# Alias OBJ Model File
# Exported from SketchUp, (c) 2000-2012 Trimble Navigation Limited
# File units = meters

mtllib layer18.mtl

g Mesh1 Model

usemtl FrontColor
v 16.3559 27.4301 -100
vt 3937.01 1189.75
vn 0.978382 -0.206804 -0
v 17.53 32.9848 -0
vt 0 1413.27
v 16.3559 27.4301 -0
vt 0 1189.75
f 1/1/1 2/2/1 3/3/1

v 17.53 32.9848 -100
vt 3937.01 1413.27
f 2/2/1 1/1/1 4/4/1

v 18.5197 33.684 -100
vt 3937.01 1360.66
vn 0.530422 -0.847734 -0
vt 0 1312.95
vn 0.576965 -0.816769 -0
vt 3937.01 1312.95
f 5/5/2 2/6/3 4/7/3

v 18.5197 33.684 -0
vt 0 1360.66
f 2/6/3 5/5/2 6/8/2

v 19.5812 34.2683 -100
vt 3937.01 1325.94
vn 0.432514 -0.901627 -0
vt 0 1278.24
vt 3937.01 1278.24
f 7/9/4 6/10/2 5/11/2

v 19.5812 34.2683 -0
vt 0 1325.94
f 6/10/2 7/9/4 8/12/4

v 20.7013 34.7305 -100
vt 3937.01 1274.97
vn 0.329203 -0.944259 -0
vt 0 1227.26
vt 3937.01 1227.26
f 9/13/5 8/14/4 7/15/4

v 20.7013 34.7305 -0
vt 0 1274.97
f 8/14/4 9/13/5 10/16/5

v 21.866 35.0648 -100
vt 3937.01 1208.36
vn 0.22178 -0.975097 -0
vt 0 1160.65
vt 3937.01 1160.65
f 11/17/6 10/18/5 9/19/5

v 21.866 35.0648 -0
vt 0 1208.36
f 10/18/5 11/17/6 12/20/6

v 23.0607 35.2671 -100
vt 3937.01 1126.96
vn 0.111587 -0.993755 -0
vt 0 1079.25
vt 3937.01 1079.25
f 13/21/7 12/22/6 11/23/6

v 23.0607 35.2671 -0
vt 0 1126.96
f 12/22/6 13/21/7 14/24/7

v 24.2705 35.3348 -100
vt 3937.01 1031.78
vn -6.25478e-017 -1 -0
vt 0 984.072
vt 3937.01 984.072
f 15/25/8 14/26/7 13/27/7

v 24.2705 35.3348 -0
vt 0 1031.78
f 14/26/7 15/25/8 16/28/8

v 25.4804 35.2671 -100
vt -3937.01 -924.008
vn -0.111587 -0.993755 -0
vt 0 -876.302
vt -3937.01 -876.302
f 17/29/9 16/30/8 15/31/8

v 25.4804 35.2671 -0
vt 0 -924.008
f 16/30/8 17/29/9 18/32/9

v 26.6751 35.0648 -100
vt -3937.01 -804.994
vn -0.22178 -0.975097 -0
vt 0 -757.289
vt -3937.01 -757.289
f 19/33/10 18/34/9 17/35/9

v 26.6751 35.0648 -0
vt 0 -804.994
f 18/34/9 19/33/10 20/36/10

v 27.8398 34.7305 -100
vt -3937.01 -676.224
vn -0.329203 -0.944259 -0
vt 0 -628.519
vt -3937.01 -628.519
f 21/37/11 20/38/10 19/39/10

v 27.8398 34.7305 -0
vt 0 -676.224
f 20/38/10 21/37/11 22/40/11

v 28.9599 34.2683 -100
vt -3937.01 -539.306
vn -0.432514 -0.901627 -0
vt 0 -491.6
vt -3937.01 -491.6
f 23/41/12 22/42/11 21/43/11

v 28.9599 34.2683 -0
vt 0 -539.306
f 22/42/11 23/41/12 24/44/12

v 30.0214 33.684 -100
vt -3937.01 -395.949
vn -0.530422 -0.847734 -0
vt 0 -348.243
vt -3937.01 -348.243
f 25/45/13 24/46/12 23/47/12

v 30.0214 33.684 -0
vt 0 -395.949
f 24/46/12 25/45/13 26/48/13

v 31.0111 32.9848 -100
vt -3937.01 -247.944
vn -0.576965 -0.816769 -0
vt 0 -200.238
vt -3937.01 -200.238
f 27/49/14 26/50/13 25/51/13

v 31.0111 32.9848 -0
vt 0 -247.944
f 26/50/13 27/49/14 28/52/14

vt -3937.01 861.299
vn -0.951752 -0.30687 -0
v 32.9067 27.1057 -0
vt 0 618.104
vt 0 861.299
f 27/53/15 29/54/15 28/55/15

v 32.9067 27.1057 -100
vt -3937.01 618.104
f 29/54/15 27/53/15 30/56/15

v 34.5931 21.8754 -0
vt 0 401.745
f 30/56/15 31/57/15 29/54/15

v 34.5931 21.8754 -100
vt -3937.01 401.745
f 31/57/15 30/56/15 32/58/15

v 15.1817 21.8754 -100
vt 3937.01 966.224
f 3/3/1 33/59/1 1/1/1

v 15.1817 21.8754 -0
vt 0 966.224
f 33/59/1 3/3/1 34/60/1

