# Alias OBJ Model File
# Exported from SketchUp, (c) 2000-2012 Trimble Navigation Limited
# File units = meters

mtllib layer7.mtl

g Mesh1 Model

usemtl FrontColor
v 10.5579 -4.73081e-015 -100
vt 3937.01 85.9609
vn 0.978382 -0.206804 4.13734e-017
v 12.5391 9.37336 -1.08287e-015
vt 6.35085e-014 463.145
v 10.5579 0 -0
vt 1.75774e-014 85.9609
f 1/1/1 2/2/1 3/3/1

v 12.5391 9.37336 -100
vt 3937.01 463.145
f 2/2/1 1/1/1 4/4/1

vt 3937.01 614.296
vn 0.662113 -0.749404 5.68311e-017
v 14.2081 10.848 -1.0099e-015
vt 8.77727e-014 701.977
vn 0.623099 -0.782143 5.71202e-017
vt 8.50054e-014 614.296
f 4/5/2 5/6/3 2/7/2

v 14.2081 10.848 -100
vt 3937.01 701.977
f 5/6/3 4/5/2 6/8/3

vt 3937.01 703.454
v 16.0185 12.1452 -9.30754e-016
vt 9.86415e-014 791.136
vn 0.540328 -0.841455 5.72537e-017
vt 9.47508e-014 703.454
f 6/9/3 7/10/4 5/11/3

v 16.0185 12.1452 -100
vt 3937.01 791.136
f 7/10/4 6/9/3 8/12/4

vt 3937.01 784.864
v 17.9513 13.2516 -8.46252e-016
vt 1.14546e-013 872.546
vn 0.451953 -0.892042 5.67934e-017
vt 1.09127e-013 784.864
f 8/13/4 9/14/5 7/15/4

v 17.9513 13.2516 -100
vt 3937.01 872.546
f 9/14/5 8/13/4 10/16/5

vt 3937.01 857.681
v 19.9867 14.1557 -7.57268e-016
vt 1.39025e-013 945.363
vn 0.358893 -0.933379 5.57443e-017
vt 1.31406e-013 857.681
f 10/17/5 11/18/6 9/19/5

v 19.9867 14.1557 -100
vt 3937.01 945.363
f 11/18/6 10/17/5 12/20/6

vt 3937.01 921.15
v 22.1034 14.8481 -6.64727e-016
vt 1.80119e-013 1008.83
vn 0.262111 -0.965038 5.41171e-017
vt 1.69019e-013 921.15
f 12/21/6 13/22/7 11/23/6

v 22.1034 14.8481 -100
vt 3937.01 1008.83
f 13/22/7 12/21/6 14/24/7

vt 3937.01 974.613
v 24.2796 15.3217 -5.69586e-016
vt 2.61094e-013 1062.29
vn 0.162611 -0.98669 5.19288e-017
vt 2.43447e-013 974.613
f 14/25/7 15/26/8 13/27/7

v 24.2796 15.3217 -100
vt 3937.01 1062.29
f 15/26/8 14/25/7 16/28/8

vt 3937.01 1017.52
v 26.4926 15.5715 -4.72833e-016
vt 4.89436e-013 1105.2
vn 0.0614256 -0.998112 4.92021e-017
vt 4.53915e-013 1017.52
f 16/29/8 17/30/9 15/31/8

v 26.4926 15.5715 -100
vt 3937.01 1105.2
f 17/30/9 16/29/8 18/32/9

vt 3937.01 1049.41
v 28.7196 15.5949 -3.75471e-016
vt 5.13187e-012 1137.1
vn -0.0403971 -0.999184 4.59651e-017
vt 4.73892e-012 1049.41
f 18/33/9 19/34/10 17/35/9

v 28.7196 15.5949 -100
vt 3937.01 1137.1
f 19/34/10 18/33/9 20/36/10

vt -3937.01 -1069.98
v 30.9375 15.3918 -2.7851e-016
vt 5.78772e-013 -1157.66
vn -0.141801 -0.989895 4.22516e-017
vt 5.32678e-013 -1069.98
f 20/37/10 21/38/11 19/39/10

v 30.9375 15.3918 -100
vt -3937.01 -1157.66
f 21/38/11 20/37/10 22/40/11

vt -3937.01 -1078.99
v 33.1231 14.9641 -1.82955e-016
vt 2.66001e-013 -1166.67
vn -0.241734 -0.970342 3.81e-017
vt 2.44211e-013 -1078.99
f 22/41/11 23/42/12 21/43/11

v 33.1231 14.9641 -100
vt -3937.01 -1166.67
f 23/42/12 22/41/11 24/44/12

vt -3937.01 -1076.36
v 35.254 14.3164 -8.9796e-017
vt 1.67668e-013 -1164.04
vn -0.339161 -0.940728 3.35533e-017
vt 1.53652e-013 -1076.36
f 24/45/12 25/46/13 23/47/12

v 35.254 14.3164 -100
vt -3937.01 -1164.04
f 25/46/13 24/45/12 26/48/13

vt -3937.01 -1062.11
v 37.3079 13.4554 4.00741e-031
vt 1.18329e-013 -1149.79
vn -0.386618 -0.92224 3.11464e-017
vt 1.0828e-013 -1062.11
f 26/49/13 27/50/14 25/51/13

v 37.3079 13.4554 -100
vt -3937.01 -1149.79
f 27/50/14 26/49/13 28/52/14

vt -3937.01 53.445
vn -0.951752 -0.30687 -1.62126e-017
v 39.6354 6.23681 -0
vt -2.65814e-014 -245.157
vt -2.50205e-014 53.445
f 28/53/15 29/54/15 27/55/15

v 39.6354 6.23681 -100
vt -3937.01 -245.157
f 29/54/15 28/53/15 30/56/15

