# Alias OBJ Model File
# Exported from SketchUp, (c) 2000-2012 Trimble Navigation Limited
# File units = meters

mtllib layer17.mtl

g Mesh1 Model

usemtl FrontColor
v 32.6156 35.4327 -100
vt -3937.01 -693.478
vn -0.325488 -0.945546 -0
v 29.8802 36.4924 -0
vt 0 -577.984
vn -0.361222 -0.93248 -0
v 29.8802 36.4924 -100
vt -3937.01 -577.984
f 1/1/1 2/2/2 3/3/2

v 32.6156 35.4327 -0
vt 0 -693.478
f 2/2/2 1/1/1 4/4/1

v 35.4238 34.5841 -100
vt -3937.01 -941.125
vn -0.25266 -0.967555 -0
vt 0 -825.63
vt -3937.01 -825.63
f 5/5/3 4/6/1 1/7/1

v 35.4238 34.5841 -0
vt 0 -941.125
f 4/6/1 5/5/3 6/8/3

v 38.2883 33.9514 -100
vt -3937.01 -1183.66
vn -0.17837 -0.983964 -0
vt 0 -1068.16
vt -3937.01 -1068.16
f 7/9/4 6/10/3 5/11/3

v 38.2883 33.9514 -0
vt 0 -1183.66
f 6/10/3 7/9/4 8/12/4

v 41.1927 33.5384 -100
vt -3937.01 -1419.67
vn -0.103046 -0.994677 -0
vt 0 -1304.18
vt -3937.01 -1304.18
f 9/13/5 8/14/4 7/15/4

v 41.1927 33.5384 -0
vt 0 -1419.67
f 8/14/4 9/13/5 10/16/5

v 44.12 33.3473 -100
vt -3937.01 -1647.81
vn -0.0271268 -0.999632 -0
vt 0 -1532.31
vt -3937.01 -1532.31
f 11/17/6 10/18/5 9/19/5

v 44.12 33.3473 -0
vt 0 -1647.81
f 10/18/5 11/17/6 12/20/6

v 47.0534 33.3793 -100
vt 3937.01 1866.73
vn 0.0489498 -0.998801 -0
vt 0 1751.24
vt 3937.01 1751.24
f 13/21/7 12/22/6 11/23/6

v 47.0534 33.3793 -0
vt 0 1866.73
f 12/22/6 13/21/7 14/24/7

v 49.9759 33.6343 -100
vt 3937.01 2075.19
vn 0.124743 -0.992189 -0
vt 0 1959.7
vt 3937.01 1959.7
f 15/25/8 14/26/7 13/27/7

v 49.9759 33.6343 -0
vt 0 2075.19
f 14/26/7 15/25/8 16/28/8

v 52.8705 34.1107 -100
vt 3937.01 2271.97
vn 0.199814 -0.979834 -0
vt 0 2156.48
vt 3937.01 2156.48
f 17/29/9 16/30/8 15/31/8

v 52.8705 34.1107 -0
vt 0 2271.97
f 16/30/8 17/29/9 18/32/9

v 55.7205 34.8058 -100
vt 3937.01 2455.94
vn 0.273729 -0.961807 -0
vt 0 2340.44
vt 3937.01 2340.44
f 19/33/10 18/34/9 17/35/9

v 55.7205 34.8058 -0
vt 0 2455.94
f 18/34/9 19/33/10 20/36/10

v 58.5095 35.7155 -100
vt 3937.01 2626.02
vn 0.346059 -0.938213 -0
vt 0 2510.52
vt 3937.01 2510.52
f 21/37/11 20/38/10 19/39/10

v 58.5095 35.7155 -0
vt 0 2626.02
f 20/38/10 21/37/11 22/40/11

v 61.2212 36.8347 -100
vt 3937.01 2781.23
vn 0.416386 -0.909188 -0
vt 0 2665.74
vt 3937.01 2665.74
f 23/41/12 22/42/11 21/43/11

v 61.2212 36.8347 -0
vt 0 2781.23
f 22/42/11 23/41/12 24/44/12

v 63.8399 38.1567 -100
vt 3937.01 2920.69
vn 0.450671 -0.89269 -0
vt 0 2805.19
vt 3937.01 2805.19
f 25/45/13 24/46/12 23/47/12

v 63.8399 38.1567 -0
vt 0 2920.69
f 24/46/12 25/45/13 26/48/13

