# Alias OBJ Model File
# Exported from SketchUp, (c) 2000-2012 Trimble Navigation Limited
# File units = meters

mtllib layer6.mtl

g Mesh1 Model

usemtl FrontColor
v 54.1086 4.60837 -100
vt 3937.01 767.709
vn 0.960411 -0.278586 -0
v 56.3608 12.3726 -0
vt 0 1085.99
v 54.1086 4.60837 -0
vt 0 767.709
f 1/1/1 2/2/1 3/3/1

v 56.3608 12.3726 -100
vt 3937.01 1085.99
f 2/2/1 1/1/1 4/4/1

v 58.0713 13.7836 -100
vt 3937.01 2108.97
vn 0.600961 -0.799278 -0
vt 0 2021.67
vn 0.636341 -0.771408 -0
vt 3937.01 2021.67
f 5/5/2 2/6/3 4/7/3

v 58.0713 13.7836 -0
vt 0 2108.97
f 2/6/3 5/5/2 6/8/2

v 59.9018 15.0351 -100
vt 3937.01 2280.94
vn 0.52662 -0.850101 -0
vt 0 2193.64
vt 3937.01 2193.64
f 7/9/4 6/10/2 5/11/2

v 59.9018 15.0351 -0
vt 0 2280.94
f 6/10/2 7/9/4 8/12/4

v 61.8375 16.1167 -100
vt 3937.01 2434.76
vn 0.448008 -0.894029 -0
vt 0 2347.46
vt 3937.01 2347.46
f 9/13/5 8/14/4 7/15/4

v 61.8375 16.1167 -0
vt 0 2434.76
f 8/14/4 9/13/5 10/16/5

v 63.8626 17.0199 -100
vt 3937.01 2569.19
vn 0.365763 -0.930708 -0
vt 0 2481.9
vt 3937.01 2481.9
f 11/17/6 10/18/5 9/19/5

v 63.8626 17.0199 -0
vt 0 2569.19
f 10/18/5 11/17/6 12/20/6

v 65.9608 17.7371 -100
vt 3937.01 2683.15
vn 0.280552 -0.959839 -0
vt 0 2595.85
vt 3937.01 2595.85
f 13/21/7 12/22/6 11/23/6

v 65.9608 17.7371 -0
vt 0 2683.15
f 12/22/6 13/21/7 14/24/7

v 68.1149 18.2628 -100
vt 3937.01 2775.7
vn 0.193066 -0.981186 -0
vt 0 2688.4
vt 3937.01 2688.4
f 15/25/8 14/26/7 13/27/7

v 68.1149 18.2628 -0
vt 0 2775.7
f 14/26/7 15/25/8 16/28/8

v 70.3077 18.5925 -100
vt 3937.01 2846.09
vn 0.104014 -0.994576 -0
vt 0 2758.79
vt 3937.01 2758.79
f 17/29/9 16/30/8 15/31/8

v 70.3077 18.5925 -0
vt 0 2846.09
f 16/30/8 17/29/9 18/32/9

v 72.5212 18.7236 -100
vt 3937.01 2893.75
vn 0.0141187 -0.9999 -0
vt 0 2806.46
vt 3937.01 2806.46
f 19/33/10 18/34/9 17/35/9

v 72.5212 18.7236 -0
vt 0 2893.75
f 18/34/9 19/33/10 20/36/10

v 74.7375 18.655 -100
vt -3937.01 -2918.31
vn -0.0758913 -0.997116 -0
vt 0 -2831.01
vt -3937.01 -2831.01
f 21/37/11 20/38/10 19/39/10

v 74.7375 18.655 -0
vt 0 -2918.31
f 20/38/10 21/37/11 22/40/11

v 76.9387 18.3874 -100
vt -3937.01 -2919.55
vn -0.165286 -0.986246 -0
vt 0 -2832.25
vt -3937.01 -2832.25
f 23/41/12 22/42/11 21/43/11

v 76.9387 18.3874 -0
vt 0 -2919.55
f 22/42/11 23/41/12 24/44/12

v 79.1069 17.9228 -100
vt -3937.01 -2897.47
vn -0.25334 -0.967377 -0
vt 0 -2810.17
vt -3937.01 -2810.17
f 25/45/13 24/46/12 23/47/12

v 79.1069 17.9228 -0
vt 0 -2897.47
f 24/46/12 25/45/13 26/48/13

v 81.2244 17.265 -100
vt -3937.01 -2852.24
vn -0.296641 -0.954989 -0
vt 0 -2764.94
vt -3937.01 -2764.94
f 27/49/14 26/50/13 25/51/13

v 81.2244 17.265 -0
vt 0 -2852.24
f 26/50/13 27/49/14 28/52/14

