# Alias OBJ Model File
# Exported from SketchUp, (c) 2000-2012 Trimble Navigation Limited
# File units = meters

mtllib layer11.mtl

g Mesh1 Model

usemtl FrontColor
v 57.8156 17.3881 -100
vt 3937.01 1291.59
vn 0.960411 -0.278586 -0
v 58.6038 20.1054 -0
vt 0 1402.98
v 57.8156 17.3881 -0
vt 0 1291.59
f 1/1/1 2/2/1 3/3/1

v 58.6038 20.1054 -100
vt 3937.01 1402.98
f 2/2/1 1/1/1 4/4/1

v 60.2529 21.4822 -100
vt 3937.01 2363
vn 0.611135 -0.791526 -0
vt 0 2278.42
vn 0.640879 -0.767642 -0
vt 3937.01 2278.42
f 5/5/2 2/6/3 4/7/3

v 60.2529 21.4822 -0
vt 0 2363
f 2/6/3 5/5/2 6/8/2

v 62.0023 22.7293 -100
vt 3937.01 2507.1
vn 0.549023 -0.835807 -0
vt 0 2422.52
vt 3937.01 2422.52
f 7/9/4 6/10/2 5/11/2

v 62.0023 22.7293 -0
vt 0 2507.1
f 6/10/2 7/9/4 8/12/4

v 63.8415 23.8395 -100
vt 3937.01 2636.86
vn 0.483717 -0.875224 -0
vt 0 2552.28
vt 3937.01 2552.28
f 9/13/5 8/14/4 7/15/4

v 63.8415 23.8395 -0
vt 0 2636.86
f 8/14/4 9/13/5 10/16/5

v 65.7601 24.8062 -100
vt 3937.01 2751.52
vn 0.415596 -0.909549 -0
vt 0 2666.94
vt 3937.01 2666.94
f 11/17/6 10/18/5 9/19/5

v 65.7601 24.8062 -0
vt 0 2751.52
f 10/18/5 11/17/6 12/20/6

v 67.7467 25.6238 -100
vt 3937.01 2850.41
vn 0.345058 -0.938582 -0
vt 0 2765.83
vt 3937.01 2765.83
f 13/21/7 12/22/6 11/23/6

v 67.7467 25.6238 -0
vt 0 2850.41
f 12/22/6 13/21/7 14/24/7

v 69.7899 26.2877 -100
vt 3937.01 2932.97
vn 0.272511 -0.962153 -0
vt 0 2848.39
vt 3937.01 2848.39
f 15/25/8 14/26/7 13/27/7

v 69.7899 26.2877 -0
vt 0 2932.97
f 14/26/7 15/25/8 16/28/8

v 71.8778 26.7939 -100
vt 3937.01 2998.71
vn 0.198379 -0.980125 -0
vt 0 2914.13
vt 3937.01 2914.13
f 17/29/9 16/30/8 15/31/8

v 71.8778 26.7939 -0
vt 0 2998.71
f 16/30/8 17/29/9 18/32/9

v 73.9981 27.1395 -100
vt 3937.01 3047.24
vn 0.123092 -0.992395 -0
vt 0 2962.66
vt 3937.01 2962.66
f 19/33/10 18/34/9 17/35/9

v 73.9981 27.1395 -0
vt 0 3047.24
f 18/34/9 19/33/10 20/36/10

v 76.1387 27.3224 -100
vt 3937.01 3078.3
vn 0.047089 -0.998891 -0
vt 0 2993.71
vt 3937.01 2993.71
f 21/37/11 20/38/10 19/39/10

v 76.1387 27.3224 -0
vt 0 3078.3
f 20/38/10 21/37/11 22/40/11

v 78.2869 27.3416 -100
vt 3937.01 3091.68
vn -0.0291878 -0.999574 -0
vt 0 3007.1
vt 3937.01 3007.1
f 23/41/12 22/42/11 21/43/11

v 78.2869 27.3416 -0
vt 0 3091.68
f 22/42/11 23/41/12 24/44/12

v 80.4304 27.1971 -100
vt -3937.01 -3087.32
vn -0.105295 -0.994441 -0
vt 0 -3002.74
vt -3937.01 -3002.74
f 25/45/13 24/46/12 23/47/12

v 80.4304 27.1971 -0
vt 0 -3087.32
f 24/46/12 25/45/13 26/48/13

v 82.5566 26.8895 -100
vt -3937.01 -3065.25
vn -0.143146 -0.989702 -0
vt 0 -2980.67
vt -3937.01 -2980.67
f 27/49/14 26/50/13 25/51/13

v 82.5566 26.8895 -0
vt 0 -3065.25
f 26/50/13 27/49/14 28/52/14

v 56.3608 12.3726 -100
vt 3937.01 1085.99
f 3/3/1 29/53/1 1/1/1

v 56.3608 12.3726 -0
vt 0 1085.99
f 29/53/1 3/3/1 30/54/1

