# Alias OBJ Model File
# Exported from SketchUp, (c) 2000-2012 Trimble Navigation Limited
# File units = meters

mtllib layer10.mtl

g Mesh1 Model

usemtl FrontColor
v 81.2244 17.265 -100
vt 3937.01 1111.75
vn 0.990556 -0.137107 -0
v 82.0846 23.4796 -0
vt 0 1358.75
v 81.2244 17.265 -0
vt 0 1111.75
f 1/1/1 2/2/1 3/3/1

v 82.0846 23.4796 -100
vt 3937.01 1358.75
f 2/2/1 1/1/1 4/4/1

v 83.5148 22.2543 -100
vt -3937.01 -1926.85
vn -0.5807 -0.814118 -0
vt 0 -1852.7
vn -0.650624 -0.7594 -0
vt -3937.01 -1852.7
f 5/5/2 2/6/3 4/7/3

v 83.5148 22.2543 -0
vt 0 -1926.85
f 2/6/3 5/5/2 6/8/2

v 85.139 21.301 -100
vt -3937.01 -2466.25
vn -0.427705 -0.903919 -0
vt 0 -2392.11
vt -3937.01 -2392.11
f 7/9/4 6/10/2 5/11/2

v 85.139 21.301 -0
vt 0 -2466.25
f 6/10/2 7/9/4 8/12/4

v 86.906 20.6497 -100
vt -3937.01 -2929.21
vn -0.261249 -0.965271 -0
vt 0 -2855.06
vt -3937.01 -2855.06
f 9/13/5 8/14/4 7/15/4

v 86.906 20.6497 -0
vt 0 -2929.21
f 8/14/4 9/13/5 10/16/5

v 88.7604 20.3209 -100
vt -3937.01 -3301.14
vn -0.0865711 -0.996246 -0
vt 0 -3227
vt -3937.01 -3227
f 11/17/6 10/18/5 9/19/5

v 88.7604 20.3209 -0
vt 0 -3301.14
f 10/18/5 11/17/6 12/20/6

v 90.6436 20.3249 -100
vt 3937.01 3570.35
vn 0.0908311 -0.995866 -0
vt 0 3496.21
vt 3937.01 3496.21
f 13/21/7 12/22/6 11/23/6

v 90.6436 20.3249 -0
vt 0 3570.35
f 12/22/6 13/21/7 14/24/7

v 92.4966 20.6616 -100
vt 3937.01 3728.36
vn 0.265375 -0.964145 -0
vt 0 3654.22
vt 3937.01 3654.22
f 15/25/8 14/26/7 13/27/7

v 92.4966 20.6616 -0
vt 0 3728.36
f 14/26/7 15/25/8 16/28/8

v 94.2608 21.3205 -100
vt 3937.01 3770.2
vn 0.431567 -0.902081 -0
vt 0 3696.05
vt 3937.01 3696.05
f 17/29/9 16/30/8 15/31/8

v 94.2608 21.3205 -0
vt 0 3770.2
f 16/30/8 17/29/9 18/32/9

v 95.8809 22.2808 -100
vt 3937.01 3694.55
vn 0.584176 -0.811627 -0
vt 0 3620.41
vt 3937.01 3620.41
f 19/33/10 18/34/9 17/35/9

v 95.8809 22.2808 -0
vt 0 3694.55
f 18/34/9 19/33/10 20/36/10

v 97.3058 23.5122 -100
vt 3937.01 3503.8
vn 0.718401 -0.695629 -0
vt 0 3429.65
vt 3937.01 3429.65
f 21/37/11 20/38/10 19/39/10

v 97.3058 23.5122 -0
vt 0 3503.8
f 20/38/10 21/37/11 22/40/11

vt 3937.01 3129.79
v 98.4907 24.976 -0
vt 0 3203.94
vn 0.830016 -0.557739 -0
vt 0 3129.79
f 21/41/11 23/42/12 22/43/11

v 98.4907 24.976 -100
vt 3937.01 3203.94
f 23/42/12 21/41/11 24/44/12

vt 3937.01 2730.27
v 99.3983 26.6261 -0
vt 0 2804.41
vn 0.91551 -0.402296 -0
vt 0 2730.27
f 24/45/12 25/46/13 23/47/12

v 99.3983 26.6261 -100
vt 3937.01 2804.41
f 25/46/13 24/45/12 26/48/13

vt 3937.01 2243.65
v 100 28.4107 -0
vt 0 2317.79
vn 0.947585 -0.319503 -0
vt 0 2243.65
f 26/49/13 27/50/14 25/51/13

v 100 28.4107 -100
vt 3937.01 2317.79
f 27/50/14 26/49/13 28/52/14

v 80.3463 10.9205 -100
vt 3937.01 859.582
f 3/3/1 29/53/1 1/1/1

v 80.3463 10.9205 -0
vt 0 859.582
f 29/53/1 3/3/1 30/54/1

