# Alias OBJ Model File
# Exported from SketchUp, (c) 2000-2012 Trimble Navigation Limited
# File units = meters

mtllib layer12.mtl

g Mesh1 Model

usemtl FrontColor
v 14.4497 18.4121 -2.9997e-016
vt 1.68681e-014 826.864
vn 0.978382 -0.206804 8.69936e-018
v 15.1817 21.8754 -100
vt 3937.01 966.224
v 15.1817 21.8754 -0
vt 5.31454e-015 966.224
f 1/1/1 2/2/1 3/3/1

v 14.4497 18.4121 -100
vt 3937.01 826.864
f 2/2/1 1/1/1 4/4/1

v 12.5391 9.37336 -1.08287e-015
vt 4.7022e-014 463.145
f 5/5/1 4/4/1 1/1/1

v 12.5391 9.37336 -100
vt 3937.01 463.145
f 4/4/1 5/5/1 6/6/1

vt 3937.01 916.328
vn 0.441139 -0.897439 -4.18347e-017
v 16.6949 22.6192 -0
vt -6.2332e-014 982.71
vn 0.403495 -0.914982 -4.36202e-017
vt -5.66824e-014 916.328
f 2/7/2 7/8/3 3/9/2

v 16.6949 22.6192 -100
vt 3937.01 982.71
f 7/8/3 2/7/2 8/10/3

vt 3937.01 937.07
v 18.2646 23.2348 -0
vt -8.92664e-014 1003.45
vn 0.326187 -0.945305 -4.69628e-017
vt -8.15948e-014 937.07
f 8/11/3 9/12/4 7/13/3

v 18.2646 23.2348 -100
vt 3937.01 1003.45
f 9/12/4 8/11/3 10/14/4

vt 3937.01 951.12
v 19.8799 23.7182 -0
vt -1.32461e-013 1017.5
vn 0.246629 -0.96911 -4.99814e-017
vt -1.21698e-013 951.12
f 10/15/4 11/16/5 9/17/4

v 19.8799 23.7182 -100
vt 3937.01 1017.5
f 11/16/5 10/15/4 12/18/5

vt 3937.01 958.382
v 21.5297 24.0658 -0
vt -2.1116e-013 1024.76
vn 0.16537 -0.986232 -5.26554e-017
vt -1.94978e-013 958.382
f 12/19/5 13/20/6 11/21/5

v 21.5297 24.0658 -100
vt 3937.01 1024.76
f 13/20/6 12/19/5 14/22/6

vt 3937.01 958.807
v 23.2028 24.2753 -0
vt -3.95873e-013 1025.19
vn 0.0829713 -0.996552 -5.49663e-017
vt -3.67329e-013 958.807
f 14/23/6 15/24/7 13/25/6

v 23.2028 24.2753 -100
vt 3937.01 1025.19
f 15/24/7 14/23/6 16/26/7

vt 3937.01 952.39
v 24.8874 24.3454 -0
vt -1.32102e-012 1018.77
vn -1.74664e-015 -1 -5.68981e-017
vt -1.2316e-012 952.39
f 16/27/7 17/28/8 15/29/7

v 24.8874 24.3454 -100
vt 3937.01 1018.77
f 17/28/8 16/27/7 18/30/8

vt -3937.01 -939.177
v 26.572 24.2753 -0
vt -1.45421e-012 -1005.56
vn -0.0829713 -0.996552 -5.84375e-017
vt -1.36201e-012 -939.177
f 18/31/8 19/32/9 17/33/8

v 26.572 24.2753 -100
vt -3937.01 -1005.56
f 19/32/9 18/31/8 20/34/9

v 28.2451 24.0658 -100
vt -3937.01 -985.639
vn -0.16537 -0.986232 -5.95739e-017
vt -4.97125e-013 -919.258
vt -3937.01 -919.258
f 21/35/10 19/36/9 20/37/9

v 28.2451 24.0658 -0
vt -5.28425e-013 -985.639
f 19/36/9 21/35/10 22/38/10

v 29.8949 23.7182 -100
vt -3937.01 -959.152
vn -0.246629 -0.96911 -6.02995e-017
vt -3.23545e-013 -892.771
vt -3937.01 -892.771
f 23/39/11 22/40/10 21/41/10

v 29.8949 23.7182 -0
vt -3.42444e-013 -959.152
f 22/40/10 23/39/11 24/42/11

v 31.5103 23.2348 -100
vt -3937.01 -926.28
vn -0.326187 -0.945305 -6.06093e-017
vt -2.48431e-013 -859.898
vt -3937.01 -859.898
f 25/43/12 24/44/11 23/45/11

v 31.5103 23.2348 -0
vt -2.61855e-013 -926.28
f 24/44/11 25/43/12 26/46/12

v 33.0799 22.6192 -100
vt -3937.01 -887.248
vn -0.403495 -0.914982 -6.05011e-017
vt -2.05905e-013 -820.867
vt -3937.01 -820.867
f 27/47/13 26/48/12 25/49/12

v 33.0799 22.6192 -0
vt -2.16161e-013 -887.248
f 26/48/12 27/47/13 28/50/13

v 34.5931 21.8754 -100
vt -3937.01 -842.327
vn -0.441139 -0.897439 -6.02904e-017
vt -1.77993e-013 -775.945
vt -3937.01 -775.945
f 29/51/14 28/52/13 27/53/13

v 34.5931 21.8754 -0
vt -1.86135e-013 -842.327
f 28/52/13 29/51/14 30/54/14

vt -3937.01 401.745
vn -0.951752 -0.30687 -3.73693e-017
v 36.0399 17.3881 -0
vt -5.57111e-014 216.124
vt -5.34745e-014 401.745
f 29/55/15 31/56/15 30/57/15

v 36.0399 17.3881 -100
vt -3937.01 216.124
f 31/56/15 29/55/15 32/58/15

v 37.3079 13.4554 -100
vt -3937.01 53.445
f 33/59/15 31/56/15 32/58/15

v 37.3079 13.4554 4.00741e-031
vt -5.76712e-014 53.445
f 31/56/15 33/59/15 34/60/15

