# Alias OBJ Model File
# Exported from SketchUp, (c) 2000-2012 Trimble Navigation Limited
# File units = meters

mtllib layer1.mtl

g Mesh1 Model

usemtl FrontColor
v 1.36985 11.7968 -100
vt -3937.01 123.35
vn -0.306653 -0.951821 7.78098e-017
v 4.33147e-015 12.3481 -1.92356e-030
vt -4.05977e-029 181.484
vn -0.373312 -0.927706 7.69105e-017
v 2.89104e-015 12.3481 -100
vt -3937.01 181.484
f 1/1/1 2/2/2 3/3/2

v 1.36985 11.7968 -8.33637e-016
vt -2.17094e-014 123.35
f 2/2/2 1/1/1 4/4/1

v 2.80385 11.4447 -100
vt -3937.01 0.238732
vn -0.169055 -0.985607 7.8433e-017
vt -1.51071e-014 58.3726
vt -3937.01 58.3726
f 5/5/3 4/6/1 1/7/1

v 2.80385 11.4447 -1.54547e-015
vt -2.45893e-014 0.238732
f 4/6/1 5/5/3 6/8/3

v 4.27323 11.2988 -100
vt -3937.01 -123.461
vn -0.0280636 -0.999606 7.74816e-017
vt 2.64679e-014 -65.327
vt -3937.01 -65.327
f 7/9/4 6/10/3 5/11/3

v 4.27323 11.2988 -2.12122e-015
vt 4.95577e-014 -123.461
f 6/10/3 7/9/4 8/12/4

v 5.74847 11.3621 -100
vt 3937.01 245.265
vn 0.113491 -0.993539 7.49747e-017
vt 3.83752e-013 187.132
vt 3937.01 187.132
f 9/13/5 8/14/4 7/15/4

v 5.74847 11.3621 -2.54931e-015
vt 5.04258e-013 245.265
f 8/14/4 9/13/5 10/16/5

v 7.19997 11.6332 -100
vt 3937.01 362.73
vn 0.252768 -0.967527 7.09628e-017
vt 1.90544e-013 304.596
vt 3937.01 304.596
f 11/17/6 10/18/5 9/19/5

v 7.19997 11.6332 -2.82116e-015
vt 2.24016e-013 362.73
f 10/18/5 11/17/6 12/20/6

v 8.59859 12.1067 -100
vt 3937.01 473.496
vn 0.386971 -0.922092 6.55264e-017
vt 1.71547e-013 415.362
vt 3937.01 415.362
f 13/21/7 12/22/6 11/23/6

v 8.59859 12.1067 -2.93131e-015
vt 1.87631e-013 473.496
f 12/22/6 13/21/7 14/24/7

v 9.91625 12.7731 -100
vt 3937.01 575.341
vn 0.513405 -0.858146 5.87745e-017
vt 1.62141e-013 517.207
vt 3937.01 517.207
f 15/25/8 14/26/7 13/27/7

v 9.91625 12.7731 -2.87755e-015
vt 1.67186e-013 575.341
f 14/26/7 15/25/8 16/28/8

v 11.1265 13.6191 -100
vt 3937.01 666.219
vn 0.629533 -0.776974 5.08427e-017
vt 1.50732e-013 608.085
vt 3937.01 608.085
f 17/29/9 16/30/8 15/31/8

v 11.1265 13.6191 -2.66095e-015
vt 1.46775e-013 666.219
f 16/30/8 17/29/9 18/32/9

v 12.205 14.6276 -100
vt 3937.01 744.307
vn 0.733023 -0.680204 4.18903e-017
vt 1.34575e-013 686.173
vt 3937.01 686.173
f 19/33/10 18/34/9 17/35/9

v 12.205 14.6276 -2.28588e-015
vt 1.22698e-013 744.307
f 18/34/9 19/33/10 20/36/10

v 13.1302 15.7784 -100
vt 3937.01 808.036
vn 0.821798 -0.569779 3.20969e-017
vt 1.12861e-013 749.903
vt 3937.01 749.903
f 21/37/11 20/38/10 19/39/10

v 13.1302 15.7784 -1.75984e-015
vt 9.3884e-014 808.036
f 20/38/10 21/37/11 22/40/11

v 13.8835 17.0484 -100
vt 3937.01 856.128
vn 0.894076 -0.447916 2.16593e-017
vt 8.54802e-014 797.995
vt 3937.01 797.995
f 23/41/12 22/42/11 21/43/11

v 13.8835 17.0484 -1.09341e-015
vt 6.01719e-014 856.128
f 22/42/11 23/41/12 24/44/12

v 14.4497 18.4121 -100
vt 3937.01 887.617
vn 0.923561 -0.383452 1.62639e-017
vt 5.26733e-014 829.484
vt 3937.01 829.484
f 25/45/13 24/46/12 23/47/12

v 14.4497 18.4121 -2.9997e-016
vt 2.18279e-014 887.617
f 24/46/12 25/45/13 26/48/13

vt -3937.01 826.864
vn -0.978382 0.206804 -2.86757e-017
v 12.5391 9.37336 -1.08287e-015
vt -5.71016e-014 463.145
vt -2.84834e-014 826.864
f 25/49/14 27/50/14 26/51/14

v 12.5391 9.37336 -100
vt -3937.01 463.145
f 27/50/14 25/49/14 28/52/14

vt 3937.01 614.296
vn 0.662113 -0.749404 5.13231e-017
v 14.2081 10.848 -1.0099e-015
vt 8.31194e-014 701.977
vn 0.623099 -0.782143 5.43627e-017
vt 8.08987e-014 614.296
f 28/53/15 29/54/16 27/55/15

v 14.2081 10.848 -100
vt 3937.01 701.977
f 29/54/16 28/53/15 30/56/16

vt 3937.01 703.454
v 16.0185 12.1452 -9.30754e-016
vt 9.86415e-014 791.136
vn 0.540328 -0.841455 5.72537e-017
vt 9.47508e-014 703.454
f 30/57/16 31/58/17 29/59/16

v 16.0185 12.1452 -100
vt 3937.01 791.136
f 31/58/17 30/57/16 32/60/17

vt 3937.01 784.864
v 17.9513 13.2516 -8.46252e-016
vt 1.14546e-013 872.546
vn 0.451953 -0.892042 5.67934e-017
vt 1.09127e-013 784.864
f 32/61/17 33/62/18 31/63/17

v 17.9513 13.2516 -100
vt 3937.01 872.546
f 33/62/18 32/61/17 34/64/18

vt 3937.01 857.681
v 19.9867 14.1557 -7.57268e-016
vt 1.39025e-013 945.363
vn 0.358893 -0.933379 5.57443e-017
vt 1.31406e-013 857.681
f 34/65/18 35/66/19 33/67/18

v 19.9867 14.1557 -100
vt 3937.01 945.363
f 35/66/19 34/65/18 36/68/19

vt 3937.01 921.15
v 22.1034 14.8481 -6.64727e-016
vt 1.80119e-013 1008.83
vn 0.262111 -0.965038 5.41171e-017
vt 1.69019e-013 921.15
f 36/69/19 37/70/20 35/71/19

v 22.1034 14.8481 -100
vt 3937.01 1008.83
f 37/70/20 36/69/19 38/72/20

vt 3937.01 974.613
v 24.2796 15.3217 -5.69586e-016
vt 2.61094e-013 1062.29
vn 0.162611 -0.98669 5.19288e-017
vt 2.43447e-013 974.613
f 38/73/20 39/74/21 37/75/20

v 24.2796 15.3217 -100
vt 3937.01 1062.29
f 39/74/21 38/73/20 40/76/21

vt 3937.01 1017.52
v 26.4926 15.5715 -4.72833e-016
vt 4.89436e-013 1105.2
vn 0.0614256 -0.998112 4.92021e-017
vt 4.53915e-013 1017.52
f 40/77/21 41/78/22 39/79/21

v 26.4926 15.5715 -100
vt 3937.01 1105.2
f 41/78/22 40/77/21 42/80/22

vt 3937.01 1049.41
v 28.7196 15.5949 -3.75471e-016
vt 5.13187e-012 1137.1
vn -0.0403971 -0.999184 4.59651e-017
vt 4.73892e-012 1049.41
f 42/81/22 43/82/23 41/83/22

v 28.7196 15.5949 -100
vt 3937.01 1137.1
f 43/82/23 42/81/22 44/84/23

vt -3937.01 -1069.98
v 30.9375 15.3918 -2.7851e-016
vt 5.78772e-013 -1157.66
vn -0.141801 -0.989895 4.22516e-017
vt 5.32678e-013 -1069.98
f 44/85/23 45/86/24 43/87/23

v 30.9375 15.3918 -100
vt -3937.01 -1157.66
f 45/86/24 44/85/23 46/88/24

vt -3937.01 -1078.99
v 33.1231 14.9641 -1.82955e-016
vt 2.66001e-013 -1166.67
vn -0.241734 -0.970342 3.81e-017
vt 2.44211e-013 -1078.99
f 46/89/24 47/90/25 45/91/24

v 33.1231 14.9641 -100
vt -3937.01 -1166.67
f 47/90/25 46/89/24 48/92/25

vt -3937.01 -1076.36
v 35.254 14.3164 -8.9796e-017
vt 1.67668e-013 -1164.04
vn -0.339161 -0.940728 2.57643e-017
vt 1.53652e-013 -1076.36
f 48/93/25 49/94/26 47/95/25

v 35.254 14.3164 -100
vt -3937.01 -1164.04
f 49/94/26 48/93/25 50/96/26

vt -3937.01 -1062.11
v 37.3079 13.4554 4.00741e-031
vt 5.92233e-014 -1149.79
vn -0.386618 -0.92224 1.55886e-017
vt 5.24276e-014 -1062.11
f 50/97/26 51/98/27 49/99/26

v 37.3079 13.4554 -100
vt -3937.01 -1149.79
f 51/98/27 50/97/26 52/100/27

vt 3937.01 53.445
vn 0.951752 0.30687 -0
v 36.0399 17.3881 -0
vt 0 216.124
vt -1.57772e-029 53.445
f 52/101/28 53/102/28 51/103/28

v 36.0399 17.3881 -100
vt 3937.01 216.124
f 53/102/28 52/101/28 54/104/28

v 37.8061 16.8505 -100
vt -3937.01 -1230.77
vn -0.265377 -0.964145 -2.27002e-034
vt -6.41324e-031 -1158.08
vn -0.291174 -0.95667 -1.31607e-034
vt -3937.01 -1158.08
f 55/105/29 53/106/30 54/107/30

v 37.8061 16.8505 -0
vt -6.72753e-031 -1230.77
f 53/106/30 55/105/29 56/108/29

v 39.5987 16.4085 -100
vt -3937.01 -1359.03
vn -0.213226 -0.977003 -4.17231e-034
vt -2.00353e-030 -1286.34
vt -3937.01 -1286.34
f 57/109/31 56/110/29 55/111/29

v 39.5987 16.4085 -0
vt -2.09853e-030 -1359.03
f 56/110/29 57/109/31 58/112/31

v 41.4124 16.0634 -100
vt -3937.01 -1483.47
vn -0.16046 -0.987042 -6.06256e-034
vt -4.26994e-030 -1410.78
vt -3937.01 -1410.78
f 59/113/32 58/114/31 57/115/31

v 41.4124 16.0634 -0
vt -4.46551e-030 -1483.47
f 58/114/31 59/113/32 60/116/32

v 43.242 15.8162 -100
vt -3937.01 -1603.74
vn -0.107231 -0.994234 -7.93532e-034
vt -8.52558e-030 -1531.05
vt -3937.01 -1531.05
f 61/117/33 60/118/32 59/119/32

v 43.242 15.8162 -0
vt -8.90224e-030 -1603.74
f 60/118/32 61/117/33 62/120/33

v 45.0822 15.6676 -100
vt -3937.01 -1719.48
vn -0.0536931 -0.998557 -9.78519e-034
vt -1.87467e-029 -1646.79
vt -3937.01 -1646.79
f 63/121/34 62/122/33 61/123/33

v 45.0822 15.6676 -0
vt -1.95445e-029 -1719.48
f 62/122/33 63/121/34 64/124/34

v 46.9277 15.6181 -100
vt -3937.01 -1830.37
vn 4.16484e-017 -1 -1.16068e-033
vt -7.07138e-029 -1757.68
vt -3937.01 -1757.68
f 65/125/35 64/126/34 63/127/34

v 46.9277 15.6181 -0
vt -7.36087e-029 -1830.37
f 64/126/34 65/125/35 66/128/35

v 48.7733 15.6676 -100
vt 3937.01 1936.08
vn 0.0536931 -0.998557 -1.3395e-033
vt -8.60297e-029 1863.4
vt 3937.01 1863.4
f 67/129/36 66/130/35 65/131/35

v 48.7733 15.6676 -0
vt -8.94131e-029 1936.08
f 66/130/35 67/129/36 68/132/36

v 50.6135 15.8162 -100
vt 3937.01 2036.31
vn 0.107231 -0.994234 -1.51445e-033
vt -3.40543e-029 1963.63
vt 3937.01 1963.63
f 69/133/37 68/134/36 67/135/36

v 50.6135 15.8162 -0
vt -3.53392e-029 2036.31
f 68/134/36 69/133/37 70/136/37

v 52.4431 16.0634 -100
vt 3937.01 2130.78
vn 0.16046 -0.987042 -1.68503e-033
vt -2.38165e-029 2058.09
vt 3937.01 2058.09
f 71/137/38 70/138/37 69/139/37

v 52.4431 16.0634 -0
vt -2.46774e-029 2130.78
f 70/138/37 71/137/38 72/140/38

v 54.2568 16.4085 -100
vt 3937.01 2219.2
vn 0.213226 -0.977003 -1.85075e-033
vt -1.95359e-029 2146.51
vt 3937.01 2146.51
f 73/141/39 72/142/38 71/143/38

v 54.2568 16.4085 -0
vt -2.02115e-029 2219.2
f 72/142/38 73/141/39 74/144/39

v 56.0494 16.8505 -100
vt 3937.01 2301.32
vn 0.265377 -0.964145 -2.01113e-033
vt -1.72363e-029 2228.63
vt 3937.01 2228.63
f 75/145/40 74/146/39 73/147/39

v 56.0494 16.8505 -0
vt -1.78058e-029 2301.32
f 74/146/39 75/145/40 76/148/40

v 57.8156 17.3881 -100
vt 3937.01 2376.91
vn 0.291174 -0.95667 -2.08917e-033
vt -1.58328e-029 2304.22
vt 3937.01 2304.22
f 77/149/41 76/150/40 75/151/40

v 57.8156 17.3881 -0
vt -1.63317e-029 2376.91
f 76/150/40 77/149/41 78/152/41

vt -3937.01 1291.59
vn -0.960411 0.278586 -0
v 56.3608 12.3726 -0
vt 0 1085.99
vt 0 1291.59
f 77/153/42 79/154/42 78/155/42

v 56.3608 12.3726 -100
vt -3937.01 1085.99
f 79/154/42 77/153/42 80/156/42

v 58.0713 13.7836 -100
vt 3937.01 2108.97
vn 0.600961 -0.799278 -0
vt 0 2021.67
vn 0.636341 -0.771408 -0
vt 3937.01 2021.67
f 81/157/43 79/158/44 80/159/44

v 58.0713 13.7836 -0
vt 0 2108.97
f 79/158/44 81/157/43 82/160/43

v 59.9018 15.0351 -100
vt 3937.01 2280.94
vn 0.52662 -0.850101 -0
vt 0 2193.64
vt 3937.01 2193.64
f 83/161/45 82/162/43 81/163/43

v 59.9018 15.0351 -0
vt 0 2280.94
f 82/162/43 83/161/45 84/164/45

v 61.8375 16.1167 -100
vt 3937.01 2434.76
vn 0.448008 -0.894029 -0
vt 0 2347.46
vt 3937.01 2347.46
f 85/165/46 84/166/45 83/167/45

v 61.8375 16.1167 -0
vt 0 2434.76
f 84/166/45 85/165/46 86/168/46

v 63.8626 17.0199 -100
vt 3937.01 2569.19
vn 0.365763 -0.930708 -0
vt 0 2481.9
vt 3937.01 2481.9
f 87/169/47 86/170/46 85/171/46

v 63.8626 17.0199 -0
vt 0 2569.19
f 86/170/46 87/169/47 88/172/47

v 65.9608 17.7371 -100
vt 3937.01 2683.15
vn 0.280552 -0.959839 -0
vt 0 2595.85
vt 3937.01 2595.85
f 89/173/48 88/174/47 87/175/47

v 65.9608 17.7371 -0
vt 0 2683.15
f 88/174/47 89/173/48 90/176/48

v 68.1149 18.2628 -100
vt 3937.01 2775.7
vn 0.193066 -0.981186 -0
vt 0 2688.4
vt 3937.01 2688.4
f 91/177/49 90/178/48 89/179/48

v 68.1149 18.2628 -0
vt 0 2775.7
f 90/178/48 91/177/49 92/180/49

v 70.3077 18.5925 -100
vt 3937.01 2846.09
vn 0.104014 -0.994576 -0
vt 0 2758.79
vt 3937.01 2758.79
f 93/181/50 92/182/49 91/183/49

v 70.3077 18.5925 -0
vt 0 2846.09
f 92/182/49 93/181/50 94/184/50

v 72.5212 18.7236 -100
vt 3937.01 2893.75
vn 0.0141187 -0.9999 -0
vt 0 2806.46
vt 3937.01 2806.46
f 95/185/51 94/186/50 93/187/50

v 72.5212 18.7236 -0
vt 0 2893.75
f 94/186/50 95/185/51 96/188/51

v 74.7375 18.655 -100
vt -3937.01 -2918.31
vn -0.0758913 -0.997116 -0
vt 0 -2831.01
vt -3937.01 -2831.01
f 97/189/52 96/190/51 95/191/51

v 74.7375 18.655 -0
vt 0 -2918.31
f 96/190/51 97/189/52 98/192/52

v 76.9387 18.3874 -100
vt -3937.01 -2919.55
vn -0.165286 -0.986246 -0
vt 0 -2832.25
vt -3937.01 -2832.25
f 99/193/53 98/194/52 97/195/52

v 76.9387 18.3874 -0
vt 0 -2919.55
f 98/194/52 99/193/53 100/196/53

v 79.1069 17.9228 -100
vt -3937.01 -2897.47
vn -0.25334 -0.967377 -0
vt 0 -2810.17
vt -3937.01 -2810.17
f 101/197/54 100/198/53 99/199/53

v 79.1069 17.9228 -0
vt 0 -2897.47
f 100/198/53 101/197/54 102/200/54

v 81.2244 17.265 -100
vt -3937.01 -2852.24
vn -0.296641 -0.954989 -0
vt 0 -2764.94
vt -3937.01 -2764.94
f 103/201/55 102/202/54 101/203/54

v 81.2244 17.265 -0
vt 0 -2852.24
f 102/202/54 103/201/55 104/204/55

vt -3937.01 1111.75
vn -0.990556 0.137107 -0
v 80.3463 10.9205 -0
vt 0 859.582
vt 0 1111.75
f 103/205/56 105/206/56 104/207/56

v 80.3463 10.9205 -100
vt -3937.01 859.582
f 105/206/56 103/205/56 106/208/56

v 81.826 9.67702 -100
vt -3937.01 -2221.24
vn -0.581244 -0.813729 -0
vt 0 -2145.14
vn -0.643332 -0.765587 -0
vt -3937.01 -2145.14
f 107/209/57 105/210/58 106/211/58

v 81.826 9.67702 -0
vt 0 -2221.24
f 105/210/58 107/209/57 108/212/57

v 83.4822 8.68051 -100
vt -3937.01 -2640.01
vn -0.446709 -0.894679 -0
vt 0 -2563.91
vt -3937.01 -2563.91
f 109/213/59 108/214/57 107/215/57

v 83.4822 8.68051 -0
vt 0 -2640.01
f 108/214/57 109/213/59 110/216/59

v 85.2739 7.95552 -100
vt -3937.01 -2994.63
vn -0.301162 -0.953573 -0
vt 0 -2918.54
vt -3937.01 -2918.54
f 111/217/60 110/218/59 109/219/59

v 85.2739 7.95552 -0
vt 0 -2994.63
f 110/218/59 111/217/60 112/220/60

v 87.157 7.51991 -100
vt -3937.01 -3276.37
vn -0.148191 -0.988959 -0
vt 0 -3200.28
vt -3937.01 -3200.28
f 113/221/61 112/222/60 111/223/60

v 87.157 7.51991 -0
vt 0 -3276.37
f 112/222/60 113/221/61 114/224/61

v 89.0851 7.38443 -100
vt -3937.01 -3478.28
vn 0.00843413 -0.999964 -0
vt 0 -3402.18
vt -3937.01 -3402.18
f 115/225/62 114/226/61 113/227/61

v 89.0851 7.38443 -0
vt 0 -3478.28
f 114/226/61 115/225/62 116/228/62

v 91.0106 7.55241 -100
vt 3937.01 3595.38
vn 0.164851 -0.986318 -0
vt 0 3519.28
vt 3937.01 3519.28
f 117/229/63 116/230/62 115/231/62

v 91.0106 7.55241 -0
vt 0 3595.38
f 116/230/62 117/229/63 118/232/63

v 92.8861 8.01972 -100
vt 3937.01 3624.78
vn 0.317204 -0.948357 -0
vt 0 3548.68
vt 3937.01 3548.68
f 119/233/64 118/234/63 117/235/63

v 92.8861 8.01972 -0
vt 0 3624.78
f 118/234/63 119/233/64 120/236/64

v 94.6653 8.77483 -100
vt 3937.01 3565.76
vn 0.461737 -0.887017 -0
vt 0 3489.66
vt 3937.01 3489.66
f 121/237/65 120/238/64 119/239/64

v 94.6653 8.77483 -0
vt 0 3565.76
f 120/238/64 121/237/65 122/240/65

v 96.3044 9.79914 -100
vt 3937.01 3419.77
vn 0.594887 -0.803809 -0
vt 0 3343.67
vt 3937.01 3343.67
f 123/241/66 122/242/65 121/243/65

v 96.3044 9.79914 -0
vt 0 3419.77
f 122/242/65 123/241/66 124/244/66

v 97.763 11.0674 -100
vt 3937.01 3190.41
vn 0.713372 -0.700786 -0
vt 0 3114.31
vt 3937.01 3114.31
f 125/245/67 124/246/66 123/247/66

v 97.763 11.0674 -0
vt 0 3190.41
f 124/246/66 125/245/67 126/248/67

vt 3937.01 2807.25
v 99.005 12.5483 -0
vt 0 2883.34
vn 0.81427 -0.580486 -0
vt 0 2807.25
f 125/249/67 127/250/68 126/251/67

v 99.005 12.5483 -100
vt 3937.01 2883.34
f 127/250/68 125/249/67 128/252/68

vt 3937.01 2430.03
v 100 14.2054 -0
vt 0 2506.13
vn 0.857328 -0.51477 -0
vt 0 2430.03
f 128/253/68 129/254/69 127/255/68

v 100 14.2054 -100
vt 3937.01 2506.13
f 129/254/69 128/253/68 130/256/69

