# Alias OBJ Model File
# Exported from SketchUp, (c) 2000-2012 Trimble Navigation Limited
# File units = meters

mtllib layer3.mtl

g Mesh1 Model

usemtl FrontColor
v 1.33285 35.1898 -100
vt -3937.01 762.293
vn -0.534276 -0.84531 -0
v -1.44382e-015 36.1414 -0
vt 0 826.768
vn -0.581049 -0.813869 -0
v -1.44382e-015 36.1414 -100
vt -3937.01 826.768
f 1/1/1 2/2/2 3/3/2

v 1.33285 35.1898 -0
vt 0 762.293
f 2/2/2 1/1/1 4/4/1

v 2.76429 34.3943 -100
vt -3937.01 562.709
vn -0.435795 -0.900046 -0
vt 0 627.184
vt -3937.01 627.184
f 5/5/3 4/6/1 1/7/1

v 2.76429 34.3943 -0
vt 0 562.709
f 4/6/1 5/5/3 6/8/3

v 4.27614 33.7647 -100
vt -3937.01 355.571
vn -0.331781 -0.943356 -0
vt 0 420.047
vt -3937.01 420.047
f 7/9/4 6/10/3 5/11/3

v 4.27614 33.7647 -0
vt 0 355.571
f 6/10/3 7/9/4 8/12/4

v 5.8492 33.3093 -100
vt -3937.01 143.511
vn -0.223555 -0.974691 -0
vt 0 207.987
vt -3937.01 207.987
f 9/13/5 8/14/4 7/15/4

v 5.8492 33.3093 -0
vt 0 143.511
f 8/14/4 9/13/5 10/16/5

v 7.46352 33.0337 -100
vt -3937.01 -70.78
vn -0.112492 -0.993653 -0
vt 0 -6.3046
vt -3937.01 -6.3046
f 11/17/6 10/18/5 9/19/5

v 7.46352 33.0337 -0
vt 0 -70.78
f 10/18/5 11/17/6 12/20/6

v 9.0986 32.9414 -100
vt -3937.01 -284.582
vn 2.77997e-017 -1 -0
vt 0 -220.107
vt -3937.01 -220.107
f 13/21/7 12/22/6 11/23/6

v 9.0986 32.9414 -0
vt 0 -284.582
f 12/22/6 13/21/7 14/24/7

v 10.7337 33.0337 -100
vt 3937.01 495.181
vn 0.112492 -0.993653 -0
vt 0 430.705
vt 3937.01 430.705
f 15/25/8 14/26/7 13/27/7

v 10.7337 33.0337 -0
vt 0 495.181
f 14/26/7 15/25/8 16/28/8

v 12.348 33.3093 -100
vt 3937.01 699.902
vn 0.223555 -0.974691 -0
vt 0 635.427
vt 3937.01 635.427
f 17/29/9 16/30/8 15/31/8

v 12.348 33.3093 -0
vt 0 699.902
f 16/30/8 17/29/9 18/32/9

v 13.9211 33.7647 -100
vt 3937.01 896.148
vn 0.331781 -0.943356 -0
vt 0 831.673
vt 3937.01 831.673
f 19/33/10 18/34/9 17/35/9

v 13.9211 33.7647 -0
vt 0 896.148
f 18/34/9 19/33/10 20/36/10

v 15.4329 34.3943 -100
vt 3937.01 1081.43
vn 0.435795 -0.900046 -0
vt 0 1016.95
vt 3937.01 1016.95
f 21/37/11 20/38/10 19/39/10

v 15.4329 34.3943 -0
vt 0 1081.43
f 20/38/10 21/37/11 22/40/11

v 16.8643 35.1898 -100
vt 3937.01 1253.39
vn 0.534276 -0.84531 -0
vt 0 1188.91
vt 3937.01 1188.91
f 23/41/12 22/42/11 21/43/11

v 16.8643 35.1898 -0
vt 0 1253.39
f 22/42/11 23/41/12 24/44/12

v 18.1972 36.1414 -100
vt 3937.01 1409.84
vn 0.581049 -0.813869 -0
vt 0 1345.37
vt 3937.01 1345.37
f 25/45/13 24/46/12 23/47/12

v 18.1972 36.1414 -0
vt 0 1409.84
f 24/46/12 25/45/13 26/48/13

vt -3937.01 1540.29
vn -0.978382 0.206804 -0
v 17.53 32.9848 -0
vt 0 1413.27
vt 0 1540.29
f 25/49/14 27/50/14 26/51/14

v 17.53 32.9848 -100
vt -3937.01 1413.27
f 27/50/14 25/49/14 28/52/14

v 18.5197 33.684 -100
vt 3937.01 1360.66
vn 0.530422 -0.847734 -0
vt 0 1312.95
vn 0.576965 -0.816769 -0
vt 3937.01 1312.95
f 29/53/15 27/54/16 28/55/16

v 18.5197 33.684 -0
vt 0 1360.66
f 27/54/16 29/53/15 30/56/15

v 19.5812 34.2683 -100
vt 3937.01 1325.94
vn 0.432514 -0.901627 -0
vt 0 1278.24
vt 3937.01 1278.24
f 31/57/17 30/58/15 29/59/15

v 19.5812 34.2683 -0
vt 0 1325.94
f 30/58/15 31/57/17 32/60/17

v 20.7013 34.7305 -100
vt 3937.01 1274.97
vn 0.329203 -0.944259 -0
vt 0 1227.26
vt 3937.01 1227.26
f 33/61/18 32/62/17 31/63/17

v 20.7013 34.7305 -0
vt 0 1274.97
f 32/62/17 33/61/18 34/64/18

v 21.866 35.0648 -100
vt 3937.01 1208.36
vn 0.22178 -0.975097 -0
vt 0 1160.65
vt 3937.01 1160.65
f 35/65/19 34/66/18 33/67/18

v 21.866 35.0648 -0
vt 0 1208.36
f 34/66/18 35/65/19 36/68/19

v 23.0607 35.2671 -100
vt 3937.01 1126.96
vn 0.111587 -0.993755 -0
vt 0 1079.25
vt 3937.01 1079.25
f 37/69/20 36/70/19 35/71/19

v 23.0607 35.2671 -0
vt 0 1126.96
f 36/70/19 37/69/20 38/72/20

v 24.2705 35.3348 -100
vt 3937.01 1031.78
vn -6.25478e-017 -1 -0
vt 0 984.072
vt 3937.01 984.072
f 39/73/21 38/74/20 37/75/20

v 24.2705 35.3348 -0
vt 0 1031.78
f 38/74/20 39/73/21 40/76/21

v 25.4804 35.2671 -100
vt -3937.01 -924.008
vn -0.111587 -0.993755 -0
vt 0 -876.302
vt -3937.01 -876.302
f 41/77/22 40/78/21 39/79/21

v 25.4804 35.2671 -0
vt 0 -924.008
f 40/78/21 41/77/22 42/80/22

v 26.6751 35.0648 -100
vt -3937.01 -804.994
vn -0.22178 -0.975097 -0
vt 0 -757.289
vt -3937.01 -757.289
f 43/81/23 42/82/22 41/83/22

v 26.6751 35.0648 -0
vt 0 -804.994
f 42/82/22 43/81/23 44/84/23

v 27.8398 34.7305 -100
vt -3937.01 -676.224
vn -0.329203 -0.944259 -0
vt 0 -628.519
vt -3937.01 -628.519
f 45/85/24 44/86/23 43/87/23

v 27.8398 34.7305 -0
vt 0 -676.224
f 44/86/23 45/85/24 46/88/24

v 28.9599 34.2683 -100
vt -3937.01 -539.306
vn -0.432514 -0.901627 -0
vt 0 -491.6
vt -3937.01 -491.6
f 47/89/25 46/90/24 45/91/24

v 28.9599 34.2683 -0
vt 0 -539.306
f 46/90/24 47/89/25 48/92/25

v 30.0214 33.684 -100
vt -3937.01 -395.949
vn -0.530422 -0.847734 -0
vt 0 -348.243
vt -3937.01 -348.243
f 49/93/26 48/94/25 47/95/25

v 30.0214 33.684 -0
vt 0 -395.949
f 48/94/25 49/93/26 50/96/26

v 31.0111 32.9848 -100
vt -3937.01 -247.944
vn -0.576965 -0.816769 -0
vt 0 -200.238
vt -3937.01 -200.238
f 51/97/27 50/98/26 49/99/26

v 31.0111 32.9848 -0
vt 0 -247.944
f 50/98/26 51/97/27 52/100/27

vt 3937.01 861.299
vn 0.951752 0.30687 -0
v 29.8802 36.4924 -0
vt 0 1006.39
vt 0 861.299
f 51/101/28 53/102/28 52/103/28

v 29.8802 36.4924 -100
vt 3937.01 1006.39
f 53/102/28 51/101/28 54/104/28

v 32.6156 35.4327 -100
vt -3937.01 -693.478
vn -0.325488 -0.945546 -0
vt 0 -577.984
vn -0.361222 -0.93248 -0
vt -3937.01 -577.984
f 55/105/29 53/106/30 54/107/30

v 32.6156 35.4327 -0
vt 0 -693.478
f 53/106/30 55/105/29 56/108/29

v 35.4238 34.5841 -100
vt -3937.01 -941.125
vn -0.25266 -0.967555 -0
vt 0 -825.63
vt -3937.01 -825.63
f 57/109/31 56/110/29 55/111/29

v 35.4238 34.5841 -0
vt 0 -941.125
f 56/110/29 57/109/31 58/112/31

v 38.2883 33.9514 -100
vt -3937.01 -1183.66
vn -0.17837 -0.983964 -0
vt 0 -1068.16
vt -3937.01 -1068.16
f 59/113/32 58/114/31 57/115/31

v 38.2883 33.9514 -0
vt 0 -1183.66
f 58/114/31 59/113/32 60/116/32

v 41.1927 33.5384 -100
vt -3937.01 -1419.67
vn -0.103046 -0.994677 -0
vt 0 -1304.18
vt -3937.01 -1304.18
f 61/117/33 60/118/32 59/119/32

v 41.1927 33.5384 -0
vt 0 -1419.67
f 60/118/32 61/117/33 62/120/33

v 44.12 33.3473 -100
vt -3937.01 -1647.81
vn -0.0271268 -0.999632 -0
vt 0 -1532.31
vt -3937.01 -1532.31
f 63/121/34 62/122/33 61/123/33

v 44.12 33.3473 -0
vt 0 -1647.81
f 62/122/33 63/121/34 64/124/34

v 47.0534 33.3793 -100
vt 3937.01 1866.73
vn 0.0489498 -0.998801 -0
vt 0 1751.24
vt 3937.01 1751.24
f 65/125/35 64/126/34 63/127/34

v 47.0534 33.3793 -0
vt 0 1866.73
f 64/126/34 65/125/35 66/128/35

v 49.9759 33.6343 -100
vt 3937.01 2075.19
vn 0.124743 -0.992189 -0
vt 0 1959.7
vt 3937.01 1959.7
f 67/129/36 66/130/35 65/131/35

v 49.9759 33.6343 -0
vt 0 2075.19
f 66/130/35 67/129/36 68/132/36

v 52.8705 34.1107 -100
vt 3937.01 2271.97
vn 0.199814 -0.979834 -0
vt 0 2156.48
vt 3937.01 2156.48
f 69/133/37 68/134/36 67/135/36

v 52.8705 34.1107 -0
vt 0 2271.97
f 68/134/36 69/133/37 70/136/37

v 55.7205 34.8058 -100
vt 3937.01 2455.94
vn 0.273729 -0.961807 -0
vt 0 2340.44
vt 3937.01 2340.44
f 71/137/38 70/138/37 69/139/37

v 55.7205 34.8058 -0
vt 0 2455.94
f 70/138/37 71/137/38 72/140/38

v 58.5095 35.7155 -100
vt 3937.01 2626.02
vn 0.346059 -0.938213 -0
vt 0 2510.52
vt 3937.01 2510.52
f 73/141/39 72/142/38 71/143/38

v 58.5095 35.7155 -0
vt 0 2626.02
f 72/142/38 73/141/39 74/144/39

v 61.2212 36.8347 -100
vt 3937.01 2781.23
vn 0.416386 -0.909188 -0
vt 0 2665.74
vt 3937.01 2665.74
f 75/145/40 74/146/39 73/147/39

v 61.2212 36.8347 -0
vt 0 2781.23
f 74/146/39 75/145/40 76/148/40

v 63.8399 38.1567 -100
vt 3937.01 2920.69
vn 0.450671 -0.89269 -0
vt 0 2805.19
vt 3937.01 2805.19
f 77/149/41 76/150/40 75/151/40

v 63.8399 38.1567 -0
vt 0 2920.69
f 76/150/40 77/149/41 78/152/41

vt -3937.01 2142.95
vn -0.960411 0.278586 -0
v 62.5057 33.5569 -0
vt 0 1954.39
vt 0 2142.95
f 77/153/42 79/154/42 78/155/42

v 62.5057 33.5569 -100
vt -3937.01 1954.39
f 79/154/42 77/153/42 80/156/42

v 64.083 34.6084 -100
vt 3937.01 2855.02
vn 0.526059 -0.850448 -0
vt 0 2780.39
vn 0.554697 -0.832052 -0
vt 3937.01 2780.39
f 81/157/43 79/158/44 80/159/44

v 64.083 34.6084 -0
vt 0 2855.02
f 79/158/44 81/157/43 82/160/43

v 65.7282 35.5503 -100
vt 3937.01 2941.12
vn 0.466987 -0.884264 -0
vt 0 2866.49
vt 3937.01 2866.49
f 83/161/45 82/162/43 81/163/43

v 65.7282 35.5503 -0
vt 0 2941.12
f 82/162/43 83/161/45 84/164/45

v 67.4337 36.378 -100
vt 3937.01 3013.77
vn 0.405751 -0.913984 -0
vt 0 2939.14
vt 3937.01 2939.14
f 85/165/46 84/166/45 83/167/45

v 67.4337 36.378 -0
vt 0 3013.77
f 84/166/45 85/165/46 86/168/46

v 69.1915 37.0877 -100
vt 3937.01 3072.63
vn 0.342635 -0.939468 -0
vt 0 2997.99
vt 3937.01 2997.99
f 87/169/47 86/170/46 85/171/46

v 69.1915 37.0877 -0
vt 0 3072.63
f 86/170/46 87/169/47 88/172/47

v 70.9935 37.6763 -100
vt 3937.01 3117.42
vn 0.277932 -0.960601 -0
vt 0 3042.79
vt 3937.01 3042.79
f 89/173/48 88/174/47 87/175/47

v 70.9935 37.6763 -0
vt 0 3117.42
f 88/174/47 89/173/48 90/176/48

v 72.8315 38.1409 -100
vt 3937.01 3147.95
vn 0.211942 -0.977282 -0
vt 0 3073.31
vt 3937.01 3073.31
f 91/177/49 90/178/48 89/179/48

v 72.8315 38.1409 -0
vt 0 3147.95
f 90/178/48 91/177/49 92/180/49

v 74.6967 38.4794 -100
vt 3937.01 3164.06
vn 0.144969 -0.989436 -0
vt 0 3089.42
vt 3937.01 3089.42
f 93/181/50 92/182/49 91/183/49

v 74.6967 38.4794 -0
vt 0 3164.06
f 92/182/49 93/181/50 94/184/50

v 76.5807 38.6902 -100
vt 3937.01 3165.69
vn 0.0773249 -0.997006 -0
vt 0 3091.05
vt 3937.01 3091.05
f 95/185/51 94/186/50 93/187/50

v 76.5807 38.6902 -0
vt 0 3165.69
f 94/186/50 95/185/51 96/188/51

v 78.4746 38.7724 -100
vt 3937.01 3152.82
vn 0.0093224 -0.999957 -0
vt 0 3078.18
vt 3937.01 3078.18
f 97/189/52 96/190/51 95/191/51

v 78.4746 38.7724 -0
vt 0 3152.82
f 96/190/51 97/189/52 98/192/52

v 80.3697 38.7255 -100
vt -3937.01 -3125.52
vn -0.0587233 -0.998274 -0
vt 0 -3050.88
vt -3937.01 -3050.88
f 99/193/53 98/194/52 97/195/52

v 80.3697 38.7255 -0
vt 0 -3125.52
f 98/194/52 99/193/53 100/196/53

v 82.2573 38.5499 -100
vt -3937.01 -3083.91
vn -0.126497 -0.991967 -0
vt 0 -3009.27
vt -3937.01 -3009.27
f 101/197/54 100/198/53 99/199/53

v 82.2573 38.5499 -0
vt 0 -3083.91
f 100/198/53 101/197/54 102/200/54

v 84.1285 38.2462 -100
vt -3937.01 -3028.18
vn -0.160183 -0.987087 -0
vt 0 -2953.55
vt -3937.01 -2953.55
f 103/201/55 102/202/54 101/203/54

v 84.1285 38.2462 -0
vt 0 -3028.18
f 102/202/54 103/201/55 104/204/55

vt -3937.01 1945.65
vn -0.990556 0.137107 -0
v 83.8221 36.0327 -0
vt 0 1857.68
vt 0 1945.65
f 103/205/56 105/206/56 104/207/56

v 83.8221 36.0327 -100
vt -3937.01 1857.68
f 105/206/56 103/205/56 106/208/56

v 85.1787 35.6723 -100
vt -3937.01 -2880.36
vn -0.221881 -0.975074 -0
vt 0 -2825.1
vn -0.256805 -0.966463 -0
vt -3937.01 -2825.1
f 107/209/57 105/210/58 106/211/58

v 85.1787 35.6723 -0
vt 0 -2880.36
f 105/210/58 107/209/57 108/212/57

v 86.5576 35.4103 -100
vt -3937.01 -3087.64
vn -0.151217 -0.988501 -0
vt 0 -3032.38
vt -3937.01 -3032.38
f 109/213/59 108/214/57 107/215/57

v 86.5576 35.4103 -0
vt 0 -3087.64
f 108/214/57 109/213/59 110/216/59

v 87.9518 35.248 -100
vt -3937.01 -3279.09
vn -0.0797699 -0.996813 -0
vt 0 -3223.83
vt -3937.01 -3223.83
f 111/217/60 110/218/59 109/219/59

v 87.9518 35.248 -0
vt 0 -3279.09
f 110/218/59 111/217/60 112/220/60

v 89.3541 35.1865 -100
vt -3937.01 -3453.72
vn -0.00791047 -0.999969 -0
vt 0 -3398.46
vt -3937.01 -3398.46
f 113/221/61 112/222/60 111/223/60

v 89.3541 35.1865 -0
vt 0 -3453.72
f 112/222/60 113/221/61 114/224/61

v 90.7571 35.2259 -100
vt 3937.01 3610.62
vn 0.0639899 -0.997951 -0
vt 0 3555.36
vt 3937.01 3555.36
f 115/225/62 114/226/61 113/227/61

v 90.7571 35.2259 -0
vt 0 3610.62
f 114/226/61 115/225/62 116/228/62

v 92.1537 35.366 -100
vt 3937.01 3748.98
vn 0.135559 -0.990769 -0
vt 0 3693.72
vt 3937.01 3693.72
f 117/229/63 116/230/62 115/231/62

v 92.1537 35.366 -0
vt 0 3748.98
f 116/230/62 117/229/63 118/232/63

v 93.5366 35.6062 -100
vt 3937.01 3868.09
vn 0.206427 -0.978462 -0
vt 0 3812.83
vt 3937.01 3812.83
f 119/233/64 118/234/63 117/235/63

v 93.5366 35.6062 -0
vt 0 3868.09
f 118/234/63 119/233/64 120/236/64

v 94.8987 35.9451 -100
vt 3937.01 3967.34
vn 0.276227 -0.961092 -0
vt 0 3912.07
vt 3937.01 3912.07
f 121/237/65 120/238/64 119/239/64

v 94.8987 35.9451 -0
vt 0 3967.34
f 120/238/64 121/237/65 122/240/65

v 96.2329 36.3811 -100
vt 3937.01 4046.19
vn 0.344598 -0.93875 -0
vt 0 3990.93
vt 3937.01 3990.93
f 123/241/66 122/242/65 121/243/65

v 96.2329 36.3811 -0
vt 0 4046.19
f 122/242/65 123/241/66 124/244/66

v 97.5323 36.9118 -100
vt 3937.01 4104.26
vn 0.411186 -0.911552 -0
vt 0 4049
vt 3937.01 4049
f 125/245/67 124/246/66 123/247/66

v 97.5323 36.9118 -0
vt 0 4104.26
f 124/246/66 125/245/67 126/248/67

v 98.7901 37.5346 -100
vt 3937.01 4141.24
vn 0.475646 -0.879637 -0
vt 0 4085.97
vt 3937.01 4085.97
f 127/249/68 126/250/67 125/251/67

v 98.7901 37.5346 -0
vt 0 4141.24
f 126/250/67 127/249/68 128/252/68

v 100 38.2462 -100
vt 3937.01 4156.93
vn 0.506974 -0.861961 -0
vt 0 4101.67
vt 3937.01 4101.67
f 129/253/69 128/254/68 127/255/68

v 100 38.2462 -0
vt 0 4156.93
f 128/254/68 129/253/69 130/256/69

