<?xml version="1.0" encoding="UTF-8" standalone="no"?>
<!DOCTYPE svg PUBLIC "-//W3C//DTD SVG 1.1//EN"
 "http://www.w3.org/Graphics/SVG/1.1/DTD/svg11.dtd">
<!-- Generated by graphviz version 2.38.0 (20140413.2041)
 -->
<!-- Title: INMOST::unary_const_custom_variable&lt; Expr, A &gt; Pages: 1 -->
<svg width="284pt" height="961pt"
 viewBox="0.00 0.00 283.50 961.00" xmlns="http://www.w3.org/2000/svg" xmlns:xlink="http://www.w3.org/1999/xlink">
<g id="graph0" class="graph" transform="scale(1 1) rotate(0) translate(4 957)">
<title>INMOST::unary_const_custom_variable&lt; Expr, A &gt;</title>
<!-- Node1 -->
<g id="node1" class="node"><title>Node1</title>
<polygon fill="#bfbfbf" stroke="black" points="34,-0.5 34,-178.5 177,-178.5 177,-0.5 34,-0.5"/>
<text text-anchor="start" x="42" y="-166.5" font-family="Helvetica,sans-Serif" font-size="10.00">INMOST::unary_const</text>
<text text-anchor="middle" x="105.5" y="-155.5" font-family="Helvetica,sans-Serif" font-size="10.00">_custom_variable&lt; Expr, A &gt;</text>
<polyline fill="none" stroke="black" points="34,-148.5 177,-148.5 "/>
<text text-anchor="middle" x="105.5" y="-136.5" font-family="Helvetica,sans-Serif" font-size="10.00"> </text>
<polyline fill="none" stroke="black" points="34,-129.5 177,-129.5 "/>
<text text-anchor="start" x="42" y="-117.5" font-family="Helvetica,sans-Serif" font-size="10.00">+ unary_const_custom</text>
<text text-anchor="start" x="42" y="-106.5" font-family="Helvetica,sans-Serif" font-size="10.00">_variable()</text>
<text text-anchor="start" x="42" y="-95.5" font-family="Helvetica,sans-Serif" font-size="10.00">+ unary_const_custom</text>
<text text-anchor="start" x="42" y="-84.5" font-family="Helvetica,sans-Serif" font-size="10.00">_variable()</text>
<text text-anchor="start" x="42" y="-73.5" font-family="Helvetica,sans-Serif" font-size="10.00">+ operator=()</text>
<text text-anchor="start" x="42" y="-62.5" font-family="Helvetica,sans-Serif" font-size="10.00">+ Value()</text>
<text text-anchor="start" x="42" y="-51.5" font-family="Helvetica,sans-Serif" font-size="10.00">+ Variable()</text>
<text text-anchor="start" x="42" y="-40.5" font-family="Helvetica,sans-Serif" font-size="10.00">+ Variable()</text>
<text text-anchor="start" x="42" y="-29.5" font-family="Helvetica,sans-Serif" font-size="10.00">+ operator[]()</text>
<text text-anchor="start" x="42" y="-18.5" font-family="Helvetica,sans-Serif" font-size="10.00">+ GetVariation()</text>
<text text-anchor="start" x="42" y="-7.5" font-family="Helvetica,sans-Serif" font-size="10.00">+ GetVariation()</text>
</g>
<!-- Node2 -->
<g id="node2" class="node"><title>Node2</title>
<g id="a_node2"><a xlink:href="class_i_n_m_o_s_t_1_1shell__dynamic__variable.html" target="_top" xlink:title="{INMOST::shell_dynamic\l_variable\&lt; unary_const\l_pool_expression\&lt; Expr,\l A::Var \&gt;, unary_const_custom\l_variable\&lt; Expr, A \&gt; \&gt;\n||+ Value()\l+ operator()()\l+ operator()()\l+ operator[]()\l+ GetVariation()\l+ GetVariation()\l}">
<polygon fill="none" stroke="black" points="29,-216.5 29,-372.5 182,-372.5 182,-216.5 29,-216.5"/>
<text text-anchor="start" x="37" y="-360.5" font-family="Helvetica,sans-Serif" font-size="10.00">INMOST::shell_dynamic</text>
<text text-anchor="start" x="37" y="-349.5" font-family="Helvetica,sans-Serif" font-size="10.00">_variable&lt; unary_const</text>
<text text-anchor="start" x="37" y="-338.5" font-family="Helvetica,sans-Serif" font-size="10.00">_pool_expression&lt; Expr,</text>
<text text-anchor="start" x="37" y="-327.5" font-family="Helvetica,sans-Serif" font-size="10.00"> A::Var &gt;, unary_const_custom</text>
<text text-anchor="middle" x="105.5" y="-316.5" font-family="Helvetica,sans-Serif" font-size="10.00">_variable&lt; Expr, A &gt; &gt;</text>
<polyline fill="none" stroke="black" points="29,-309.5 182,-309.5 "/>
<text text-anchor="middle" x="105.5" y="-297.5" font-family="Helvetica,sans-Serif" font-size="10.00"> </text>
<polyline fill="none" stroke="black" points="29,-290.5 182,-290.5 "/>
<text text-anchor="start" x="37" y="-278.5" font-family="Helvetica,sans-Serif" font-size="10.00">+ Value()</text>
<text text-anchor="start" x="37" y="-267.5" font-family="Helvetica,sans-Serif" font-size="10.00">+ operator()()</text>
<text text-anchor="start" x="37" y="-256.5" font-family="Helvetica,sans-Serif" font-size="10.00">+ operator()()</text>
<text text-anchor="start" x="37" y="-245.5" font-family="Helvetica,sans-Serif" font-size="10.00">+ operator[]()</text>
<text text-anchor="start" x="37" y="-234.5" font-family="Helvetica,sans-Serif" font-size="10.00">+ GetVariation()</text>
<text text-anchor="start" x="37" y="-223.5" font-family="Helvetica,sans-Serif" font-size="10.00">+ GetVariation()</text>
</a>
</g>
</g>
<!-- Node2&#45;&gt;Node1 -->
<g id="edge1" class="edge"><title>Node2&#45;&gt;Node1</title>
<path fill="none" stroke="midnightblue" d="M105.5,-206.245C105.5,-197.12 105.5,-187.838 105.5,-178.703"/>
<polygon fill="none" stroke="midnightblue" points="102,-206.465 105.5,-216.465 109,-206.465 102,-206.465"/>
</g>
<!-- Node3 -->
<g id="node3" class="node"><title>Node3</title>
<g id="a_node3"><a xlink:href="class_i_n_m_o_s_t_1_1basic__dynamic__variable.html" target="_top" xlink:title="{INMOST::basic_dynamic\l_variable\&lt; unary_const\l_pool_expression\&lt; Expr,\l A::Var \&gt; \&gt;\n||+ Value()\l+ Variable()\l+ Variable()\l+ operator[]()\l+ GetVariation()\l+ GetVariation()\l}">
<polygon fill="none" stroke="black" points="0,-464.5 0,-609.5 125,-609.5 125,-464.5 0,-464.5"/>
<text text-anchor="start" x="8" y="-597.5" font-family="Helvetica,sans-Serif" font-size="10.00">INMOST::basic_dynamic</text>
<text text-anchor="start" x="8" y="-586.5" font-family="Helvetica,sans-Serif" font-size="10.00">_variable&lt; unary_const</text>
<text text-anchor="start" x="8" y="-575.5" font-family="Helvetica,sans-Serif" font-size="10.00">_pool_expression&lt; Expr,</text>
<text text-anchor="middle" x="62.5" y="-564.5" font-family="Helvetica,sans-Serif" font-size="10.00"> A::Var &gt; &gt;</text>
<polyline fill="none" stroke="black" points="0,-557.5 125,-557.5 "/>
<text text-anchor="middle" x="62.5" y="-545.5" font-family="Helvetica,sans-Serif" font-size="10.00"> </text>
<polyline fill="none" stroke="black" points="0,-538.5 125,-538.5 "/>
<text text-anchor="start" x="8" y="-526.5" font-family="Helvetica,sans-Serif" font-size="10.00">+ Value()</text>
<text text-anchor="start" x="8" y="-515.5" font-family="Helvetica,sans-Serif" font-size="10.00">+ Variable()</text>
<text text-anchor="start" x="8" y="-504.5" font-family="Helvetica,sans-Serif" font-size="10.00">+ Variable()</text>
<text text-anchor="start" x="8" y="-493.5" font-family="Helvetica,sans-Serif" font-size="10.00">+ operator[]()</text>
<text text-anchor="start" x="8" y="-482.5" font-family="Helvetica,sans-Serif" font-size="10.00">+ GetVariation()</text>
<text text-anchor="start" x="8" y="-471.5" font-family="Helvetica,sans-Serif" font-size="10.00">+ GetVariation()</text>
</a>
</g>
</g>
<!-- Node3&#45;&gt;Node2 -->
<g id="edge2" class="edge"><title>Node3&#45;&gt;Node2</title>
<path fill="none" stroke="midnightblue" d="M77.0724,-454.496C81.8058,-428.022 87.0409,-398.742 91.715,-372.6"/>
<polygon fill="none" stroke="midnightblue" points="73.5997,-454.033 75.285,-464.493 80.4905,-455.265 73.5997,-454.033"/>
</g>
<!-- Node4 -->
<g id="node4" class="node"><title>Node4</title>
<g id="a_node4"><a xlink:href="class_i_n_m_o_s_t_1_1abstract__dynamic__variable.html" target="_top" xlink:title="{INMOST::abstract_dynamic\l_variable\n||+ Value()\l+ Variable()\l+ Variable()\l+ GetVariation()\l+ GetVariation()\l}">
<polygon fill="none" stroke="black" points="22,-840.5 22,-952.5 159,-952.5 159,-840.5 22,-840.5"/>
<text text-anchor="start" x="30" y="-940.5" font-family="Helvetica,sans-Serif" font-size="10.00">INMOST::abstract_dynamic</text>
<text text-anchor="middle" x="90.5" y="-929.5" font-family="Helvetica,sans-Serif" font-size="10.00">_variable</text>
<polyline fill="none" stroke="black" points="22,-922.5 159,-922.5 "/>
<text text-anchor="middle" x="90.5" y="-910.5" font-family="Helvetica,sans-Serif" font-size="10.00"> </text>
<polyline fill="none" stroke="black" points="22,-903.5 159,-903.5 "/>
<text text-anchor="start" x="30" y="-891.5" font-family="Helvetica,sans-Serif" font-size="10.00">+ Value()</text>
<text text-anchor="start" x="30" y="-880.5" font-family="Helvetica,sans-Serif" font-size="10.00">+ Variable()</text>
<text text-anchor="start" x="30" y="-869.5" font-family="Helvetica,sans-Serif" font-size="10.00">+ Variable()</text>
<text text-anchor="start" x="30" y="-858.5" font-family="Helvetica,sans-Serif" font-size="10.00">+ GetVariation()</text>
<text text-anchor="start" x="30" y="-847.5" font-family="Helvetica,sans-Serif" font-size="10.00">+ GetVariation()</text>
</a>
</g>
</g>
<!-- Node4&#45;&gt;Node3 -->
<g id="edge3" class="edge"><title>Node4&#45;&gt;Node3</title>
<path fill="none" stroke="midnightblue" d="M83.1003,-830.087C82.1675,-820.994 81.2714,-811.768 80.5,-803 74.751,-737.657 69.8333,-663.109 66.5981,-609.762"/>
<polygon fill="none" stroke="midnightblue" points="79.6433,-830.682 84.1643,-840.264 86.6054,-829.954 79.6433,-830.682"/>
</g>
<!-- Node5 -->
<g id="node5" class="node"><title>Node5</title>
<g id="a_node5"><a xlink:href="class_i_n_m_o_s_t_1_1basic__dynamic__variable.html" target="_top" xlink:title="{INMOST::basic_dynamic\l_variable\&lt; VariableType \&gt;\n||+ Value()\l+ Variable()\l+ Variable()\l+ operator[]()\l+ GetVariation()\l+ GetVariation()\l}">
<polygon fill="none" stroke="black" points="89.5,-679.5 89.5,-802.5 217.5,-802.5 217.5,-679.5 89.5,-679.5"/>
<text text-anchor="start" x="97.5" y="-790.5" font-family="Helvetica,sans-Serif" font-size="10.00">INMOST::basic_dynamic</text>
<text text-anchor="middle" x="153.5" y="-779.5" font-family="Helvetica,sans-Serif" font-size="10.00">_variable&lt; VariableType &gt;</text>
<polyline fill="none" stroke="black" points="89.5,-772.5 217.5,-772.5 "/>
<text text-anchor="middle" x="153.5" y="-760.5" font-family="Helvetica,sans-Serif" font-size="10.00"> </text>
<polyline fill="none" stroke="black" points="89.5,-753.5 217.5,-753.5 "/>
<text text-anchor="start" x="97.5" y="-741.5" font-family="Helvetica,sans-Serif" font-size="10.00">+ Value()</text>
<text text-anchor="start" x="97.5" y="-730.5" font-family="Helvetica,sans-Serif" font-size="10.00">+ Variable()</text>
<text text-anchor="start" x="97.5" y="-719.5" font-family="Helvetica,sans-Serif" font-size="10.00">+ Variable()</text>
<text text-anchor="start" x="97.5" y="-708.5" font-family="Helvetica,sans-Serif" font-size="10.00">+ operator[]()</text>
<text text-anchor="start" x="97.5" y="-697.5" font-family="Helvetica,sans-Serif" font-size="10.00">+ GetVariation()</text>
<text text-anchor="start" x="97.5" y="-686.5" font-family="Helvetica,sans-Serif" font-size="10.00">+ GetVariation()</text>
</a>
</g>
</g>
<!-- Node4&#45;&gt;Node5 -->
<g id="edge5" class="edge"><title>Node4&#45;&gt;Node5</title>
<path fill="none" stroke="midnightblue" d="M117.049,-830.812C120.897,-821.438 124.845,-811.818 128.657,-802.53"/>
<polygon fill="none" stroke="midnightblue" points="113.803,-829.503 113.244,-840.083 120.279,-832.161 113.803,-829.503"/>
</g>
<!-- Node5&#45;&gt;Node3 -->
<g id="edge4" class="edge"><title>Node5&#45;&gt;Node3</title>
<path fill="none" stroke="orange" d="M96.4598,-670.433C94.6841,-667.31 93.0202,-664.159 91.5,-661 83.8421,-645.085 78.1328,-627.017 73.9038,-609.723"/>
<polygon fill="orange" stroke="orange" points="93.5622,-672.405 101.733,-679.149 99.5513,-668.782 93.5622,-672.405"/>
<text text-anchor="start" x="91.5" y="-653" font-family="Helvetica,sans-Serif" font-size="10.00"> &lt; unary_const_pool</text>
<text text-anchor="start" x="91.5" y="-642" font-family="Helvetica,sans-Serif" font-size="10.00">_expression&lt; Expr, A</text>
<text text-anchor="middle" x="139" y="-631" font-family="Helvetica,sans-Serif" font-size="10.00">::Var &gt; &gt;</text>
</g>
<!-- Node6 -->
<g id="node6" class="node"><title>Node6</title>
<g id="a_node6"><a xlink:href="class_i_n_m_o_s_t_1_1shell__dynamic__variable.html" target="_top" xlink:title="{INMOST::shell_dynamic\l_variable\&lt; VariableType,\l Derived \&gt;\n||+ Value()\l+ operator()()\l+ operator()()\l+ operator[]()\l+ GetVariation()\l+ GetVariation()\l}">
<polygon fill="none" stroke="black" points="143.5,-470 143.5,-604 265.5,-604 265.5,-470 143.5,-470"/>
<text text-anchor="start" x="151.5" y="-592" font-family="Helvetica,sans-Serif" font-size="10.00">INMOST::shell_dynamic</text>
<text text-anchor="start" x="151.5" y="-581" font-family="Helvetica,sans-Serif" font-size="10.00">_variable&lt; VariableType,</text>
<text text-anchor="middle" x="204.5" y="-570" font-family="Helvetica,sans-Serif" font-size="10.00"> Derived &gt;</text>
<polyline fill="none" stroke="black" points="143.5,-563 265.5,-563 "/>
<text text-anchor="middle" x="204.5" y="-551" font-family="Helvetica,sans-Serif" font-size="10.00"> </text>
<polyline fill="none" stroke="black" points="143.5,-544 265.5,-544 "/>
<text text-anchor="start" x="151.5" y="-532" font-family="Helvetica,sans-Serif" font-size="10.00">+ Value()</text>
<text text-anchor="start" x="151.5" y="-521" font-family="Helvetica,sans-Serif" font-size="10.00">+ operator()()</text>
<text text-anchor="start" x="151.5" y="-510" font-family="Helvetica,sans-Serif" font-size="10.00">+ operator()()</text>
<text text-anchor="start" x="151.5" y="-499" font-family="Helvetica,sans-Serif" font-size="10.00">+ operator[]()</text>
<text text-anchor="start" x="151.5" y="-488" font-family="Helvetica,sans-Serif" font-size="10.00">+ GetVariation()</text>
<text text-anchor="start" x="151.5" y="-477" font-family="Helvetica,sans-Serif" font-size="10.00">+ GetVariation()</text>
</a>
</g>
</g>
<!-- Node5&#45;&gt;Node6 -->
<g id="edge7" class="edge"><title>Node5&#45;&gt;Node6</title>
<path fill="none" stroke="midnightblue" d="M187.872,-669.457C188.826,-666.626 189.708,-663.801 190.5,-661 195.619,-642.905 198.874,-622.81 200.941,-604.196"/>
<polygon fill="none" stroke="midnightblue" points="184.504,-668.479 184.38,-679.073 191.084,-670.868 184.504,-668.479"/>
</g>
<!-- Node6&#45;&gt;Node2 -->
<g id="edge6" class="edge"><title>Node6&#45;&gt;Node2</title>
<path fill="none" stroke="orange" d="M173.481,-460.647C161.983,-432.713 148.931,-401.006 137.358,-372.894"/>
<polygon fill="orange" stroke="orange" points="170.274,-462.049 177.317,-469.964 176.747,-459.385 170.274,-462.049"/>
<text text-anchor="start" x="167.5" y="-438" font-family="Helvetica,sans-Serif" font-size="10.00"> &lt; unary_const_pool</text>
<text text-anchor="start" x="167.5" y="-427" font-family="Helvetica,sans-Serif" font-size="10.00">_expression&lt; Expr, A</text>
<text text-anchor="start" x="167.5" y="-416" font-family="Helvetica,sans-Serif" font-size="10.00">::Var &gt;, unary_const</text>
<text text-anchor="start" x="167.5" y="-405" font-family="Helvetica,sans-Serif" font-size="10.00">_custom_variable&lt; Expr,</text>
<text text-anchor="middle" x="221.5" y="-394" font-family="Helvetica,sans-Serif" font-size="10.00"> A &gt; &gt;</text>
</g>
</g>
</svg>
