<?xml version="1.0" encoding="UTF-8" standalone="no"?>
<!DOCTYPE svg PUBLIC "-//W3C//DTD SVG 1.1//EN"
 "http://www.w3.org/Graphics/SVG/1.1/DTD/svg11.dtd">
<!-- Generated by graphviz version 2.38.0 (20140413.2041)
 -->
<!-- Title: INMOST::Mesh::CellByLocalID Pages: 1 -->
<svg width="497pt" height="28pt"
 viewBox="0.00 0.00 497.00 28.00" xmlns="http://www.w3.org/2000/svg" xmlns:xlink="http://www.w3.org/1999/xlink">
<g id="graph0" class="graph" transform="scale(1 1) rotate(0) translate(4 24)">
<title>INMOST::Mesh::CellByLocalID</title>
<!-- Node1 -->
<g id="node1" class="node"><title>Node1</title>
<polygon fill="#bfbfbf" stroke="black" points="0,-0.5 0,-19.5 150,-19.5 150,-0.5 0,-0.5"/>
<text text-anchor="middle" x="75" y="-7.5" font-family="Helvetica,sans-Serif" font-size="10.00">INMOST::Mesh::CellByLocalID</text>
</g>
<!-- Node2 -->
<g id="node2" class="node"><title>Node2</title>
<g id="a_node2"><a xlink:href="namespace_i_n_m_o_s_t.html#adfd1fb8f456156532c262eac5e045aa3" target="_top" xlink:title="INMOST::ComposeHandleNum">
<polygon fill="none" stroke="black" points="186,-0.5 186,-19.5 337,-19.5 337,-0.5 186,-0.5"/>
<text text-anchor="middle" x="261.5" y="-7.5" font-family="Helvetica,sans-Serif" font-size="10.00">INMOST::ComposeHandleNum</text>
</a>
</g>
</g>
<!-- Node1&#45;&gt;Node2 -->
<g id="edge1" class="edge"><title>Node1&#45;&gt;Node2</title>
<path fill="none" stroke="midnightblue" d="M150.246,-10C158.575,-10 167.107,-10 175.558,-10"/>
<polygon fill="midnightblue" stroke="midnightblue" points="175.805,-13.5001 185.805,-10 175.805,-6.5001 175.805,-13.5001"/>
</g>
<!-- Node3 -->
<g id="node3" class="node"><title>Node3</title>
<g id="a_node3"><a xlink:href="namespace_i_n_m_o_s_t.html#a115b3e54c3b7be04ffec9b69c058df18" target="_top" xlink:title="INMOST::InvalidHandle">
<polygon fill="none" stroke="black" points="373,-0.5 373,-19.5 489,-19.5 489,-0.5 373,-0.5"/>
<text text-anchor="middle" x="431" y="-7.5" font-family="Helvetica,sans-Serif" font-size="10.00">INMOST::InvalidHandle</text>
</a>
</g>
</g>
<!-- Node2&#45;&gt;Node3 -->
<g id="edge2" class="edge"><title>Node2&#45;&gt;Node3</title>
<path fill="none" stroke="midnightblue" d="M337.432,-10C345.854,-10 354.396,-10 362.713,-10"/>
<polygon fill="midnightblue" stroke="midnightblue" points="362.722,-13.5001 372.722,-10 362.722,-6.5001 362.722,-13.5001"/>
</g>
</g>
</svg>
