<?xml version="1.0" encoding="UTF-8" standalone="no"?>
<!DOCTYPE svg PUBLIC "-//W3C//DTD SVG 1.1//EN"
 "http://www.w3.org/Graphics/SVG/1.1/DTD/svg11.dtd">
<!-- Generated by graphviz version 2.38.0 (20140413.2041)
 -->
<!-- Title: INMOST::interval::end Pages: 1 -->
<svg width="508pt" height="192pt"
 viewBox="0.00 0.00 508.00 191.50" xmlns="http://www.w3.org/2000/svg" xmlns:xlink="http://www.w3.org/1999/xlink">
<g id="graph0" class="graph" transform="scale(1 1) rotate(0) translate(4 187.5)">
<title>INMOST::interval::end</title>
<!-- Node1 -->
<g id="node1" class="node"><title>Node1</title>
<polygon fill="#bfbfbf" stroke="black" points="0,-68 0,-87 111,-87 111,-68 0,-68"/>
<text text-anchor="middle" x="55.5" y="-75" font-family="Helvetica,sans-Serif" font-size="10.00">INMOST::interval::end</text>
</g>
<!-- Node2 -->
<g id="node2" class="node"><title>Node2</title>
<g id="a_node2"><a xlink:href="class_i_n_m_o_s_t_1_1interval.html#adc2a3fe1bf2de30561cd9c2a2cb8f1c9" target="_top" xlink:title="INMOST::interval\&lt; INMOST\l_DATA_ENUM_TYPE, INMOST\l_DATA_REAL_TYPE \&gt;::operator=">
<polygon fill="none" stroke="black" points="161.5,-142 161.5,-183 326.5,-183 326.5,-142 161.5,-142"/>
<text text-anchor="start" x="169.5" y="-171" font-family="Helvetica,sans-Serif" font-size="10.00">INMOST::interval&lt; INMOST</text>
<text text-anchor="start" x="169.5" y="-160" font-family="Helvetica,sans-Serif" font-size="10.00">_DATA_ENUM_TYPE, INMOST</text>
<text text-anchor="middle" x="244" y="-149" font-family="Helvetica,sans-Serif" font-size="10.00">_DATA_REAL_TYPE &gt;::operator=</text>
</a>
</g>
</g>
<!-- Node1&#45;&gt;Node2 -->
<g id="edge1" class="edge"><title>Node1&#45;&gt;Node2</title>
<path fill="none" stroke="midnightblue" d="M78.5478,-92.9985C96.3763,-105.005 122.461,-121.409 147,-132.5 154.479,-135.88 162.447,-139.03 170.473,-141.921"/>
<polygon fill="midnightblue" stroke="midnightblue" points="80.2591,-89.9286 70.0291,-87.172 76.3073,-95.7064 80.2591,-89.9286"/>
</g>
<!-- Node3 -->
<g id="node3" class="node"><title>Node3</title>
<g id="a_node3"><a xlink:href="class_i_n_m_o_s_t_1_1interval.html#a83ec585e31ee18927a64306f3f04c1c5" target="_top" xlink:title="INMOST::interval\&lt; INMOST\l_DATA_ENUM_TYPE, INMOST\l_DATA_REAL_TYPE \&gt;::set_interval_end">
<polygon fill="none" stroke="black" points="147,-82 147,-123 341,-123 341,-82 147,-82"/>
<text text-anchor="start" x="155" y="-111" font-family="Helvetica,sans-Serif" font-size="10.00">INMOST::interval&lt; INMOST</text>
<text text-anchor="start" x="155" y="-100" font-family="Helvetica,sans-Serif" font-size="10.00">_DATA_ENUM_TYPE, INMOST</text>
<text text-anchor="middle" x="244" y="-89" font-family="Helvetica,sans-Serif" font-size="10.00">_DATA_REAL_TYPE &gt;::set_interval_end</text>
</a>
</g>
</g>
<!-- Node1&#45;&gt;Node3 -->
<g id="edge2" class="edge"><title>Node1&#45;&gt;Node3</title>
<path fill="none" stroke="midnightblue" d="M121.191,-86.1718C129.54,-87.2909 138.227,-88.4554 146.946,-89.6242"/>
<polygon fill="midnightblue" stroke="midnightblue" points="121.572,-82.6916 111.196,-84.8319 120.642,-89.6296 121.572,-82.6916"/>
</g>
<!-- Node4 -->
<g id="node4" class="node"><title>Node4</title>
<g id="a_node4"><a xlink:href="class_i_n_m_o_s_t_1_1_sparse_1_1_vector.html#ab3c547fde1b9c366495159bacae4d81e" target="_top" xlink:title="INMOST::Sparse::Vector::End">
<polygon fill="none" stroke="black" points="170,-44 170,-63 318,-63 318,-44 170,-44"/>
<text text-anchor="middle" x="244" y="-51" font-family="Helvetica,sans-Serif" font-size="10.00">INMOST::Sparse::Vector::End</text>
</a>
</g>
</g>
<!-- Node1&#45;&gt;Node4 -->
<g id="edge3" class="edge"><title>Node1&#45;&gt;Node4</title>
<path fill="none" stroke="midnightblue" d="M121.317,-69.1589C137.012,-67.1392 153.895,-64.9666 169.94,-62.9018"/>
<polygon fill="midnightblue" stroke="midnightblue" points="120.667,-65.7136 111.196,-70.4614 121.561,-72.6563 120.667,-65.7136"/>
</g>
<!-- Node5 -->
<g id="node5" class="node"><title>Node5</title>
<g id="a_node5"><a xlink:href="class_i_n_m_o_s_t_1_1_sparse_1_1_matrix.html#a3d827430a934c850e4047d6b2402f909" target="_top" xlink:title="INMOST::Sparse::Matrix::End">
<polygon fill="none" stroke="black" points="171,-6 171,-25 317,-25 317,-6 171,-6"/>
<text text-anchor="middle" x="244" y="-13" font-family="Helvetica,sans-Serif" font-size="10.00">INMOST::Sparse::Matrix::End</text>
</a>
</g>
</g>
<!-- Node1&#45;&gt;Node5 -->
<g id="edge4" class="edge"><title>Node1&#45;&gt;Node5</title>
<path fill="none" stroke="midnightblue" d="M82.4401,-63.0517C100.158,-53.7195 124.426,-41.9676 147,-34.5 158.372,-30.7381 170.761,-27.6072 182.745,-25.0451"/>
<polygon fill="midnightblue" stroke="midnightblue" points="80.4792,-60.1319 73.3232,-67.9448 83.7895,-66.2997 80.4792,-60.1319"/>
</g>
<!-- Node6 -->
<g id="node6" class="node"><title>Node6</title>
<g id="a_node6"><a xlink:href="class_i_n_m_o_s_t_1_1_sparse_1_1_matrix.html#aa7edfd754827dd34872233d39a3c8a47" target="_top" xlink:title="Clear all data of the matrix. ">
<polygon fill="none" stroke="black" points="377,-0.5 377,-30.5 500,-30.5 500,-0.5 377,-0.5"/>
<text text-anchor="start" x="385" y="-18.5" font-family="Helvetica,sans-Serif" font-size="10.00">INMOST::Sparse::Matrix</text>
<text text-anchor="middle" x="438.5" y="-7.5" font-family="Helvetica,sans-Serif" font-size="10.00">::Clear</text>
</a>
</g>
</g>
<!-- Node5&#45;&gt;Node6 -->
<g id="edge5" class="edge"><title>Node5&#45;&gt;Node6</title>
<path fill="none" stroke="midnightblue" d="M327.457,-15.5C344.032,-15.5 361.164,-15.5 376.831,-15.5"/>
<polygon fill="midnightblue" stroke="midnightblue" points="327.228,-12.0001 317.228,-15.5 327.228,-19.0001 327.228,-12.0001"/>
</g>
</g>
</svg>
