<?xml version="1.0" encoding="UTF-8" standalone="no"?>
<!DOCTYPE svg PUBLIC "-//W3C//DTD SVG 1.1//EN"
 "http://www.w3.org/Graphics/SVG/1.1/DTD/svg11.dtd">
<!-- Generated by graphviz version 2.38.0 (20140413.2041)
 -->
<!-- Title: INMOST::ElementSet::iterator::operator&#45;&gt; Pages: 1 -->
<svg width="291pt" height="66pt"
 viewBox="0.00 0.00 291.00 66.00" xmlns="http://www.w3.org/2000/svg" xmlns:xlink="http://www.w3.org/1999/xlink">
<g id="graph0" class="graph" transform="scale(1 1) rotate(0) translate(4 62)">
<title>INMOST::ElementSet::iterator::operator&#45;&gt;</title>
<!-- Node1 -->
<g id="node1" class="node"><title>Node1</title>
<polygon fill="#bfbfbf" stroke="black" points="0,-14 0,-44 110,-44 110,-14 0,-14"/>
<text text-anchor="start" x="8" y="-32" font-family="Helvetica,sans-Serif" font-size="10.00">INMOST::ElementSet</text>
<text text-anchor="middle" x="55" y="-21" font-family="Helvetica,sans-Serif" font-size="10.00">::iterator::operator&#45;&gt;</text>
</g>
<!-- Node2 -->
<g id="node2" class="node"><title>Node2</title>
<g id="a_node2"><a xlink:href="class_i_n_m_o_s_t_1_1_element.html#ad94d0eb624f8d1b3aff39819cd8be2c5" target="_top" xlink:title="INMOST::Element::Element">
<polygon fill="none" stroke="black" points="146,-38.5 146,-57.5 283,-57.5 283,-38.5 146,-38.5"/>
<text text-anchor="middle" x="214.5" y="-45.5" font-family="Helvetica,sans-Serif" font-size="10.00">INMOST::Element::Element</text>
</a>
</g>
</g>
<!-- Node1&#45;&gt;Node2 -->
<g id="edge1" class="edge"><title>Node1&#45;&gt;Node2</title>
<path fill="none" stroke="midnightblue" d="M110.203,-35.5387C118.453,-36.534 127.103,-37.5775 135.737,-38.619"/>
<polygon fill="midnightblue" stroke="midnightblue" points="135.493,-42.1149 145.84,-39.8378 136.331,-35.1653 135.493,-42.1149"/>
</g>
<!-- Node3 -->
<g id="node3" class="node"><title>Node3</title>
<g id="a_node3"><a xlink:href="class_i_n_m_o_s_t_1_1array.html#a0023388a73620d7656a9c936192d992c" target="_top" xlink:title="INMOST::array::at">
<polygon fill="none" stroke="black" points="167,-0.5 167,-19.5 262,-19.5 262,-0.5 167,-0.5"/>
<text text-anchor="middle" x="214.5" y="-7.5" font-family="Helvetica,sans-Serif" font-size="10.00">INMOST::array::at</text>
</a>
</g>
</g>
<!-- Node1&#45;&gt;Node3 -->
<g id="edge2" class="edge"><title>Node1&#45;&gt;Node3</title>
<path fill="none" stroke="midnightblue" d="M110.203,-22.4613C125.168,-20.6559 141.448,-18.6919 156.564,-16.8684"/>
<polygon fill="midnightblue" stroke="midnightblue" points="157.304,-20.3047 166.813,-15.6321 156.465,-13.3551 157.304,-20.3047"/>
</g>
</g>
</svg>
