<?xml version="1.0" encoding="UTF-8" standalone="no"?>
<!DOCTYPE svg PUBLIC "-//W3C//DTD SVG 1.1//EN"
 "http://www.w3.org/Graphics/SVG/1.1/DTD/svg11.dtd">
<!-- Generated by graphviz version 2.38.0 (20140413.2041)
 -->
<!-- Title: INMOST::Storage::RemMarker Pages: 1 -->
<svg width="531pt" height="180pt"
 viewBox="0.00 0.00 531.00 180.00" xmlns="http://www.w3.org/2000/svg" xmlns:xlink="http://www.w3.org/1999/xlink">
<g id="graph0" class="graph" transform="scale(1 1) rotate(0) translate(4 176)">
<title>INMOST::Storage::RemMarker</title>
<!-- Node1 -->
<g id="node1" class="node"><title>Node1</title>
<polygon fill="#bfbfbf" stroke="black" points="0,-57.5 0,-76.5 149,-76.5 149,-57.5 0,-57.5"/>
<text text-anchor="middle" x="74.5" y="-64.5" font-family="Helvetica,sans-Serif" font-size="10.00">INMOST::Storage::RemMarker</text>
</g>
<!-- Node2 -->
<g id="node2" class="node"><title>Node2</title>
<g id="a_node2"><a xlink:href="class_i_n_m_o_s_t_1_1_storage.html#a59da31b96c2b4e09e260f0deb4dae4d9" target="_top" xlink:title="INMOST::Storage::isValid">
<polygon fill="none" stroke="black" points="193.5,-114.5 193.5,-133.5 321.5,-133.5 321.5,-114.5 193.5,-114.5"/>
<text text-anchor="middle" x="257.5" y="-121.5" font-family="Helvetica,sans-Serif" font-size="10.00">INMOST::Storage::isValid</text>
</a>
</g>
</g>
<!-- Node1&#45;&gt;Node2 -->
<g id="edge1" class="edge"><title>Node1&#45;&gt;Node2</title>
<path fill="none" stroke="midnightblue" d="M105.795,-76.5405C136.075,-86.076 182.809,-100.794 216.203,-111.31"/>
<polygon fill="midnightblue" stroke="midnightblue" points="215.516,-114.763 226.106,-114.428 217.619,-108.086 215.516,-114.763"/>
</g>
<!-- Node4 -->
<g id="node4" class="node"><title>Node4</title>
<g id="a_node4"><a xlink:href="class_i_n_m_o_s_t_1_1_storage.html#a20d218fc89f75ca8534707b4f697173e" target="_top" xlink:title="INMOST::Storage::GetMeshLink">
<polygon fill="none" stroke="black" points="366,-76.5 366,-95.5 523,-95.5 523,-76.5 366,-76.5"/>
<text text-anchor="middle" x="444.5" y="-83.5" font-family="Helvetica,sans-Serif" font-size="10.00">INMOST::Storage::GetMeshLink</text>
</a>
</g>
</g>
<!-- Node1&#45;&gt;Node4 -->
<g id="edge5" class="edge"><title>Node1&#45;&gt;Node4</title>
<path fill="none" stroke="midnightblue" d="M149.086,-70.7993C208.593,-73.8717 292.55,-78.2064 355.59,-81.4612"/>
<polygon fill="midnightblue" stroke="midnightblue" points="355.749,-84.9739 365.916,-81.9943 356.11,-77.9832 355.749,-84.9739"/>
</g>
<!-- Node6 -->
<g id="node6" class="node"><title>Node6</title>
<g id="a_node6"><a xlink:href="class_i_n_m_o_s_t_1_1_mesh.html#aa758ff129bf79eff3c446946e276006c" target="_top" xlink:title="INMOST::Mesh::RemMarker">
<polygon fill="none" stroke="black" points="187.5,-38.5 187.5,-57.5 327.5,-57.5 327.5,-38.5 187.5,-38.5"/>
<text text-anchor="middle" x="257.5" y="-45.5" font-family="Helvetica,sans-Serif" font-size="10.00">INMOST::Mesh::RemMarker</text>
</a>
</g>
</g>
<!-- Node1&#45;&gt;Node6 -->
<g id="edge6" class="edge"><title>Node1&#45;&gt;Node6</title>
<path fill="none" stroke="midnightblue" d="M149.12,-59.272C158.392,-58.2987 167.909,-57.2997 177.262,-56.3178"/>
<polygon fill="midnightblue" stroke="midnightblue" points="177.749,-59.786 187.329,-55.261 177.018,-52.8242 177.749,-59.786"/>
</g>
<!-- Node8 -->
<g id="node8" class="node"><title>Node8</title>
<g id="a_node8"><a xlink:href="class_i_n_m_o_s_t_1_1_storage.html#ac79e3f3664b2ff21892f37bce0caa0e0" target="_top" xlink:title="INMOST::Storage::GetHandle">
<polygon fill="none" stroke="black" points="185,-0.5 185,-19.5 330,-19.5 330,-0.5 185,-0.5"/>
<text text-anchor="middle" x="257.5" y="-7.5" font-family="Helvetica,sans-Serif" font-size="10.00">INMOST::Storage::GetHandle</text>
</a>
</g>
</g>
<!-- Node1&#45;&gt;Node8 -->
<g id="edge8" class="edge"><title>Node1&#45;&gt;Node8</title>
<path fill="none" stroke="midnightblue" d="M101.428,-57.3918C123.504,-49.3586 156.137,-37.8299 185,-29 192.6,-26.6751 200.702,-24.3642 208.621,-22.1962"/>
<polygon fill="midnightblue" stroke="midnightblue" points="209.756,-25.5155 218.502,-19.5362 207.936,-18.7562 209.756,-25.5155"/>
</g>
<!-- Node3 -->
<g id="node3" class="node"><title>Node3</title>
<g id="a_node3"><a xlink:href="namespace_i_n_m_o_s_t.html#a115b3e54c3b7be04ffec9b69c058df18" target="_top" xlink:title="INMOST::InvalidHandle">
<polygon fill="none" stroke="black" points="386.5,-152.5 386.5,-171.5 502.5,-171.5 502.5,-152.5 386.5,-152.5"/>
<text text-anchor="middle" x="444.5" y="-159.5" font-family="Helvetica,sans-Serif" font-size="10.00">INMOST::InvalidHandle</text>
</a>
</g>
</g>
<!-- Node2&#45;&gt;Node3 -->
<g id="edge2" class="edge"><title>Node2&#45;&gt;Node3</title>
<path fill="none" stroke="midnightblue" d="M305.183,-133.589C330.146,-138.716 361.064,-145.067 387.334,-150.463"/>
<polygon fill="midnightblue" stroke="midnightblue" points="386.653,-153.896 397.152,-152.48 388.061,-147.039 386.653,-153.896"/>
</g>
<!-- Node2&#45;&gt;Node4 -->
<g id="edge3" class="edge"><title>Node2&#45;&gt;Node4</title>
<path fill="none" stroke="midnightblue" d="M305.183,-114.411C330.146,-109.284 361.064,-102.933 387.334,-97.5368"/>
<polygon fill="midnightblue" stroke="midnightblue" points="388.061,-100.961 397.152,-95.5201 386.653,-94.1038 388.061,-100.961"/>
</g>
<!-- Node5 -->
<g id="node5" class="node"><title>Node5</title>
<g id="a_node5"><a xlink:href="class_i_n_m_o_s_t_1_1_mesh.html#a05701da4bd3ed8ca69bbcca256c2b0e2" target="_top" xlink:title="INMOST::Mesh::isValidElement">
<polygon fill="none" stroke="black" points="367,-114.5 367,-133.5 522,-133.5 522,-114.5 367,-114.5"/>
<text text-anchor="middle" x="444.5" y="-121.5" font-family="Helvetica,sans-Serif" font-size="10.00">INMOST::Mesh::isValidElement</text>
</a>
</g>
</g>
<!-- Node2&#45;&gt;Node5 -->
<g id="edge4" class="edge"><title>Node2&#45;&gt;Node5</title>
<path fill="none" stroke="midnightblue" d="M321.649,-124C332.902,-124 344.802,-124 356.581,-124"/>
<polygon fill="midnightblue" stroke="midnightblue" points="356.881,-127.5 366.881,-124 356.881,-120.5 356.881,-127.5"/>
</g>
<!-- Node7 -->
<g id="node7" class="node"><title>Node7</title>
<g id="a_node7"><a xlink:href="class_i_n_m_o_s_t_1_1_mesh.html#ad7d9049c7e0f028e334d3fac70acdc6c" target="_top" xlink:title="INMOST::Mesh::MarkersTag">
<polygon fill="none" stroke="black" points="374.5,-38.5 374.5,-57.5 514.5,-57.5 514.5,-38.5 374.5,-38.5"/>
<text text-anchor="middle" x="444.5" y="-45.5" font-family="Helvetica,sans-Serif" font-size="10.00">INMOST::Mesh::MarkersTag</text>
</a>
</g>
</g>
<!-- Node6&#45;&gt;Node7 -->
<g id="edge7" class="edge"><title>Node6&#45;&gt;Node7</title>
<path fill="none" stroke="midnightblue" d="M327.65,-48C339.597,-48 352.1,-48 364.288,-48"/>
<polygon fill="midnightblue" stroke="midnightblue" points="364.434,-51.5001 374.434,-48 364.433,-44.5001 364.434,-51.5001"/>
</g>
</g>
</svg>
