<?xml version="1.0" encoding="UTF-8" standalone="no"?>
<!DOCTYPE svg PUBLIC "-//W3C//DTD SVG 1.1//EN"
 "http://www.w3.org/Graphics/SVG/1.1/DTD/svg11.dtd">
<!-- Generated by graphviz version 2.38.0 (20140413.2041)
 -->
<!-- Title: INMOST::Mesh::RemoveGhostElements Pages: 1 -->
<svg width="304pt" height="88pt"
 viewBox="0.00 0.00 304.00 88.00" xmlns="http://www.w3.org/2000/svg" xmlns:xlink="http://www.w3.org/1999/xlink">
<g id="graph0" class="graph" transform="scale(1 1) rotate(0) translate(4 84)">
<title>INMOST::Mesh::RemoveGhostElements</title>
<!-- Node1 -->
<g id="node1" class="node"><title>Node1</title>
<polygon fill="#bfbfbf" stroke="black" points="0,-24.5 0,-54.5 150,-54.5 150,-24.5 0,-24.5"/>
<text text-anchor="start" x="8" y="-42.5" font-family="Helvetica,sans-Serif" font-size="10.00">INMOST::Mesh::RemoveGhost</text>
<text text-anchor="middle" x="75" y="-31.5" font-family="Helvetica,sans-Serif" font-size="10.00">Elements</text>
</g>
<!-- Node1&#45;&gt;Node1 -->
<g id="edge1" class="edge"><title>Node1&#45;&gt;Node1</title>
<path fill="none" stroke="midnightblue" d="M46.0711,-54.659C39.0953,-64.0566 48.7383,-73 75,-73 91.0032,-73 100.835,-69.679 104.496,-64.9579"/>
<polygon fill="midnightblue" stroke="midnightblue" points="107.974,-64.4513 103.929,-54.659 100.984,-64.8364 107.974,-64.4513"/>
</g>
<!-- Node2 -->
<g id="node2" class="node"><title>Node2</title>
<g id="a_node2"><a xlink:href="class_i_n_m_o_s_t_1_1_element_set.html#a9f9a30cf2c426e7e225950c7627143f8" target="_top" xlink:title="INMOST::ElementSet\l::getHandles">
<polygon fill="none" stroke="black" points="186,-49.5 186,-79.5 296,-79.5 296,-49.5 186,-49.5"/>
<text text-anchor="start" x="194" y="-67.5" font-family="Helvetica,sans-Serif" font-size="10.00">INMOST::ElementSet</text>
<text text-anchor="middle" x="241" y="-56.5" font-family="Helvetica,sans-Serif" font-size="10.00">::getHandles</text>
</a>
</g>
</g>
<!-- Node1&#45;&gt;Node2 -->
<g id="edge2" class="edge"><title>Node1&#45;&gt;Node2</title>
<path fill="none" stroke="midnightblue" d="M150.323,-50.8297C158.758,-52.1155 167.303,-53.4181 175.595,-54.6822"/>
<polygon fill="midnightblue" stroke="midnightblue" points="175.148,-58.1544 185.561,-56.2014 176.203,-51.2343 175.148,-58.1544"/>
</g>
<!-- Node3 -->
<g id="node3" class="node"><title>Node3</title>
<g id="a_node3"><a xlink:href="class_i_n_m_o_s_t_1_1_element_set.html#a97aa938d4e6060235056a67042b5cbe8" target="_top" xlink:title="INMOST::ElementSet\l::nbHandles">
<polygon fill="none" stroke="black" points="186,-0.5 186,-30.5 296,-30.5 296,-0.5 186,-0.5"/>
<text text-anchor="start" x="194" y="-18.5" font-family="Helvetica,sans-Serif" font-size="10.00">INMOST::ElementSet</text>
<text text-anchor="middle" x="241" y="-7.5" font-family="Helvetica,sans-Serif" font-size="10.00">::nbHandles</text>
</a>
</g>
</g>
<!-- Node1&#45;&gt;Node3 -->
<g id="edge3" class="edge"><title>Node1&#45;&gt;Node3</title>
<path fill="none" stroke="midnightblue" d="M150.323,-28.6235C158.758,-27.3891 167.303,-26.1387 175.595,-24.9251"/>
<polygon fill="midnightblue" stroke="midnightblue" points="176.173,-28.3778 185.561,-23.4666 175.16,-21.4516 176.173,-28.3778"/>
</g>
</g>
</svg>
