<?xml version="1.0" encoding="UTF-8" standalone="no"?>
<!DOCTYPE svg PUBLIC "-//W3C//DTD SVG 1.1//EN"
 "http://www.w3.org/Graphics/SVG/1.1/DTD/svg11.dtd">
<!-- Generated by graphviz version 2.38.0 (20140413.2041)
 -->
<!-- Title: INMOST::Matrix::operator&#45; Pages: 1 -->
<svg width="291pt" height="66pt"
 viewBox="0.00 0.00 291.00 66.00" xmlns="http://www.w3.org/2000/svg" xmlns:xlink="http://www.w3.org/1999/xlink">
<g id="graph0" class="graph" transform="scale(1 1) rotate(0) translate(4 62)">
<title>INMOST::Matrix::operator&#45;</title>
<!-- Node1 -->
<g id="node1" class="node"><title>Node1</title>
<polygon fill="#bfbfbf" stroke="black" points="0,-19.5 0,-38.5 131,-38.5 131,-19.5 0,-19.5"/>
<text text-anchor="middle" x="65.5" y="-26.5" font-family="Helvetica,sans-Serif" font-size="10.00">INMOST::Matrix::operator&#45;</text>
</g>
<!-- Node2 -->
<g id="node2" class="node"><title>Node2</title>
<g id="a_node2"><a xlink:href="class_i_n_m_o_s_t_1_1_matrix.html#a1dc49d3efb949ed175e576db8cf3acac" target="_top" xlink:title="INMOST::Matrix::Rows">
<polygon fill="none" stroke="black" points="167,-38.5 167,-57.5 283,-57.5 283,-38.5 167,-38.5"/>
<text text-anchor="middle" x="225" y="-45.5" font-family="Helvetica,sans-Serif" font-size="10.00">INMOST::Matrix::Rows</text>
</a>
</g>
</g>
<!-- Node1&#45;&gt;Node2 -->
<g id="edge1" class="edge"><title>Node1&#45;&gt;Node2</title>
<path fill="none" stroke="midnightblue" d="M131.016,-36.7828C139.564,-37.8141 148.344,-38.8732 156.934,-39.9095"/>
<polygon fill="midnightblue" stroke="midnightblue" points="156.559,-43.3895 166.906,-41.1124 157.397,-36.4399 156.559,-43.3895"/>
</g>
<!-- Node3 -->
<g id="node3" class="node"><title>Node3</title>
<g id="a_node3"><a xlink:href="class_i_n_m_o_s_t_1_1_matrix.html#aa126cf210a88f76f04b4b32bf87f7c0e" target="_top" xlink:title="INMOST::Matrix::Cols">
<polygon fill="none" stroke="black" points="169,-0.5 169,-19.5 281,-19.5 281,-0.5 169,-0.5"/>
<text text-anchor="middle" x="225" y="-7.5" font-family="Helvetica,sans-Serif" font-size="10.00">INMOST::Matrix::Cols</text>
</a>
</g>
</g>
<!-- Node1&#45;&gt;Node3 -->
<g id="edge2" class="edge"><title>Node1&#45;&gt;Node3</title>
<path fill="none" stroke="midnightblue" d="M131.016,-21.2172C140.151,-20.1151 149.55,-18.9812 158.7,-17.8775"/>
<polygon fill="midnightblue" stroke="midnightblue" points="159.388,-21.3199 168.897,-16.6474 158.55,-14.3703 159.388,-21.3199"/>
</g>
</g>
</svg>
