<?xml version="1.0" encoding="UTF-8" standalone="no"?>
<!DOCTYPE svg PUBLIC "-//W3C//DTD SVG 1.1//EN"
 "http://www.w3.org/Graphics/SVG/1.1/DTD/svg11.dtd">
<!-- Generated by graphviz version 2.38.0 (20140413.2041)
 -->
<!-- Title: INMOST::Mesh::GeomTypeTag Pages: 1 -->
<svg width="367pt" height="66pt"
 viewBox="0.00 0.00 367.00 66.00" xmlns="http://www.w3.org/2000/svg" xmlns:xlink="http://www.w3.org/1999/xlink">
<g id="graph0" class="graph" transform="scale(1 1) rotate(0) translate(4 62)">
<title>INMOST::Mesh::GeomTypeTag</title>
<!-- Node1 -->
<g id="node1" class="node"><title>Node1</title>
<polygon fill="#bfbfbf" stroke="black" points="0,-19.5 0,-38.5 152,-38.5 152,-19.5 0,-19.5"/>
<text text-anchor="middle" x="76" y="-26.5" font-family="Helvetica,sans-Serif" font-size="10.00">INMOST::Mesh::GeomTypeTag</text>
</g>
<!-- Node2 -->
<g id="node2" class="node"><title>Node2</title>
<g id="a_node2"><a xlink:href="class_i_n_m_o_s_t_1_1_mesh.html#a819feef3c5f1206d8bbc6775becc739e" target="_top" xlink:title="INMOST::Mesh::GetGeometricType">
<polygon fill="none" stroke="black" points="188,-38.5 188,-57.5 359,-57.5 359,-38.5 188,-38.5"/>
<text text-anchor="middle" x="273.5" y="-45.5" font-family="Helvetica,sans-Serif" font-size="10.00">INMOST::Mesh::GetGeometricType</text>
</a>
</g>
</g>
<!-- Node1&#45;&gt;Node2 -->
<g id="edge1" class="edge"><title>Node1&#45;&gt;Node2</title>
<path fill="none" stroke="midnightblue" d="M162.023,-37.2631C170.605,-38.0971 179.32,-38.9441 187.897,-39.7777"/>
<polygon fill="midnightblue" stroke="midnightblue" points="162.318,-33.7754 152.026,-36.2916 161.641,-40.7425 162.318,-33.7754"/>
</g>
<!-- Node3 -->
<g id="node3" class="node"><title>Node3</title>
<g id="a_node3"><a xlink:href="class_i_n_m_o_s_t_1_1_mesh.html#a497dd8d40df1e33fd3040056a7922549" target="_top" xlink:title="INMOST::Mesh::SetGeometricType">
<polygon fill="none" stroke="black" points="188.5,-0.5 188.5,-19.5 358.5,-19.5 358.5,-0.5 188.5,-0.5"/>
<text text-anchor="middle" x="273.5" y="-7.5" font-family="Helvetica,sans-Serif" font-size="10.00">INMOST::Mesh::SetGeometricType</text>
</a>
</g>
</g>
<!-- Node1&#45;&gt;Node3 -->
<g id="edge2" class="edge"><title>Node1&#45;&gt;Node3</title>
<path fill="none" stroke="midnightblue" d="M162.115,-20.7279C170.777,-19.8861 179.573,-19.0313 188.225,-18.1904"/>
<polygon fill="midnightblue" stroke="midnightblue" points="161.641,-17.2575 152.026,-21.7084 162.318,-24.2246 161.641,-17.2575"/>
</g>
</g>
</svg>
