<?xml version="1.0" encoding="UTF-8" standalone="no"?>
<!DOCTYPE svg PUBLIC "-//W3C//DTD SVG 1.1//EN"
 "http://www.w3.org/Graphics/SVG/1.1/DTD/svg11.dtd">
<!-- Generated by graphviz version 2.38.0 (20140413.2041)
 -->
<!-- Title: INMOST::array::size Pages: 1 -->
<svg width="420pt" height="46pt"
 viewBox="0.00 0.00 420.00 46.00" xmlns="http://www.w3.org/2000/svg" xmlns:xlink="http://www.w3.org/1999/xlink">
<g id="graph0" class="graph" transform="scale(1 1) rotate(0) translate(4 42)">
<title>INMOST::array::size</title>
<!-- Node1 -->
<g id="node1" class="node"><title>Node1</title>
<polygon fill="#bfbfbf" stroke="black" points="0,-0.5 0,-19.5 105,-19.5 105,-0.5 0,-0.5"/>
<text text-anchor="middle" x="52.5" y="-7.5" font-family="Helvetica,sans-Serif" font-size="10.00">INMOST::array::size</text>
</g>
<!-- Node2 -->
<g id="node2" class="node"><title>Node2</title>
<g id="a_node2"><a xlink:href="class_i_n_m_o_s_t_1_1_matrix.html#a988d2894b8ca8489cf03dae3d5818a46" target="_top" xlink:title="INMOST::Matrix::Resize">
<polygon fill="none" stroke="black" points="141,-0.5 141,-19.5 263,-19.5 263,-0.5 141,-0.5"/>
<text text-anchor="middle" x="202" y="-7.5" font-family="Helvetica,sans-Serif" font-size="10.00">INMOST::Matrix::Resize</text>
</a>
</g>
</g>
<!-- Node1&#45;&gt;Node2 -->
<g id="edge1" class="edge"><title>Node1&#45;&gt;Node2</title>
<path fill="none" stroke="midnightblue" d="M115.271,-10C123.733,-10 132.411,-10 140.843,-10"/>
<polygon fill="midnightblue" stroke="midnightblue" points="115.088,-6.5001 105.088,-10 115.088,-13.5001 115.088,-6.5001"/>
</g>
<!-- Node3 -->
<g id="node3" class="node"><title>Node3</title>
<g id="a_node3"><a xlink:href="class_i_n_m_o_s_t_1_1_matrix.html#adf8bb731b7c0899039b99f2399d938c6" target="_top" xlink:title="INMOST::Matrix::SVD">
<polygon fill="none" stroke="black" points="299,-0.5 299,-19.5 412,-19.5 412,-0.5 299,-0.5"/>
<text text-anchor="middle" x="355.5" y="-7.5" font-family="Helvetica,sans-Serif" font-size="10.00">INMOST::Matrix::SVD</text>
</a>
</g>
</g>
<!-- Node2&#45;&gt;Node3 -->
<g id="edge2" class="edge"><title>Node2&#45;&gt;Node3</title>
<path fill="none" stroke="midnightblue" d="M273.574,-10C282.045,-10 290.603,-10 298.821,-10"/>
<polygon fill="midnightblue" stroke="midnightblue" points="273.312,-6.5001 263.312,-10 273.312,-13.5001 273.312,-6.5001"/>
</g>
<!-- Node3&#45;&gt;Node3 -->
<g id="edge3" class="edge"><title>Node3&#45;&gt;Node3</title>
<path fill="none" stroke="midnightblue" d="M327.128,-28.6539C328.314,-33.9368 337.771,-38 355.5,-38 382.516,-38 390.325,-28.5653 378.928,-19.7571"/>
<polygon fill="midnightblue" stroke="midnightblue" points="330.274,-30.1981 332.072,-19.7571 324.155,-26.7974 330.274,-30.1981"/>
</g>
</g>
</svg>
