<?xml version="1.0" encoding="UTF-8" standalone="no"?>
<!DOCTYPE svg PUBLIC "-//W3C//DTD SVG 1.1//EN"
 "http://www.w3.org/Graphics/SVG/1.1/DTD/svg11.dtd">
<!-- Generated by graphviz version 2.38.0 (20140413.2041)
 -->
<!-- Title: INMOST::Storage::DataLocalID Pages: 1 -->
<svg width="550pt" height="104pt"
 viewBox="0.00 0.00 550.00 104.00" xmlns="http://www.w3.org/2000/svg" xmlns:xlink="http://www.w3.org/1999/xlink">
<g id="graph0" class="graph" transform="scale(1 1) rotate(0) translate(4 100)">
<title>INMOST::Storage::DataLocalID</title>
<!-- Node1 -->
<g id="node1" class="node"><title>Node1</title>
<polygon fill="#bfbfbf" stroke="black" points="0,-38.5 0,-57.5 152,-57.5 152,-38.5 0,-38.5"/>
<text text-anchor="middle" x="76" y="-45.5" font-family="Helvetica,sans-Serif" font-size="10.00">INMOST::Storage::DataLocalID</text>
</g>
<!-- Node2 -->
<g id="node2" class="node"><title>Node2</title>
<g id="a_node2"><a xlink:href="class_i_n_m_o_s_t_1_1_storage.html#a20d218fc89f75ca8534707b4f697173e" target="_top" xlink:title="INMOST::Storage::GetMeshLink">
<polygon fill="none" stroke="black" points="188,-76.5 188,-95.5 345,-95.5 345,-76.5 188,-76.5"/>
<text text-anchor="middle" x="266.5" y="-83.5" font-family="Helvetica,sans-Serif" font-size="10.00">INMOST::Storage::GetMeshLink</text>
</a>
</g>
</g>
<!-- Node1&#45;&gt;Node2 -->
<g id="edge1" class="edge"><title>Node1&#45;&gt;Node2</title>
<path fill="none" stroke="midnightblue" d="M124.567,-57.589C150.001,-62.7165 181.505,-69.0672 208.271,-74.4632"/>
<polygon fill="midnightblue" stroke="midnightblue" points="207.781,-77.9347 218.276,-76.4799 209.164,-71.0727 207.781,-77.9347"/>
</g>
<!-- Node3 -->
<g id="node3" class="node"><title>Node3</title>
<g id="a_node3"><a xlink:href="class_i_n_m_o_s_t_1_1_mesh.html#a2078f4c2589dc14fe6291416ac21050f" target="_top" xlink:title="INMOST::Mesh::DataLocalID">
<polygon fill="none" stroke="black" points="195.5,-38.5 195.5,-57.5 337.5,-57.5 337.5,-38.5 195.5,-38.5"/>
<text text-anchor="middle" x="266.5" y="-45.5" font-family="Helvetica,sans-Serif" font-size="10.00">INMOST::Mesh::DataLocalID</text>
</a>
</g>
</g>
<!-- Node1&#45;&gt;Node3 -->
<g id="edge2" class="edge"><title>Node1&#45;&gt;Node3</title>
<path fill="none" stroke="midnightblue" d="M152.042,-48C162.968,-48 174.254,-48 185.278,-48"/>
<polygon fill="midnightblue" stroke="midnightblue" points="185.311,-51.5001 195.311,-48 185.311,-44.5001 185.311,-51.5001"/>
</g>
<!-- Node6 -->
<g id="node6" class="node"><title>Node6</title>
<g id="a_node6"><a xlink:href="class_i_n_m_o_s_t_1_1_storage.html#ac79e3f3664b2ff21892f37bce0caa0e0" target="_top" xlink:title="INMOST::Storage::GetHandle">
<polygon fill="none" stroke="black" points="194,-0.5 194,-19.5 339,-19.5 339,-0.5 194,-0.5"/>
<text text-anchor="middle" x="266.5" y="-7.5" font-family="Helvetica,sans-Serif" font-size="10.00">INMOST::Storage::GetHandle</text>
</a>
</g>
</g>
<!-- Node1&#45;&gt;Node6 -->
<g id="edge5" class="edge"><title>Node1&#45;&gt;Node6</title>
<path fill="none" stroke="midnightblue" d="M124.567,-38.411C150.001,-33.2835 181.505,-26.9328 208.271,-21.5368"/>
<polygon fill="midnightblue" stroke="midnightblue" points="209.164,-24.9273 218.276,-19.5201 207.781,-18.0653 209.164,-24.9273"/>
</g>
<!-- Node4 -->
<g id="node4" class="node"><title>Node4</title>
<g id="a_node4"><a xlink:href="namespace_i_n_m_o_s_t.html#a6659a95d611050914b2761dd17256928" target="_top" xlink:title="INMOST::GetHandleElementNum">
<polygon fill="none" stroke="black" points="381,-57.5 381,-76.5 542,-76.5 542,-57.5 381,-57.5"/>
<text text-anchor="middle" x="461.5" y="-64.5" font-family="Helvetica,sans-Serif" font-size="10.00">INMOST::GetHandleElementNum</text>
</a>
</g>
</g>
<!-- Node3&#45;&gt;Node4 -->
<g id="edge3" class="edge"><title>Node3&#45;&gt;Node4</title>
<path fill="none" stroke="midnightblue" d="M337.723,-54.9132C348.451,-55.9693 359.647,-57.0715 370.725,-58.1621"/>
<polygon fill="midnightblue" stroke="midnightblue" points="370.553,-61.662 380.848,-59.1586 371.239,-54.6957 370.553,-61.662"/>
</g>
<!-- Node5 -->
<g id="node5" class="node"><title>Node5</title>
<g id="a_node5"><a xlink:href="namespace_i_n_m_o_s_t.html#a661c89a10e3e2004d24295244bc60187" target="_top" xlink:title="INMOST::GetHandleID">
<polygon fill="none" stroke="black" points="404.5,-19.5 404.5,-38.5 518.5,-38.5 518.5,-19.5 404.5,-19.5"/>
<text text-anchor="middle" x="461.5" y="-26.5" font-family="Helvetica,sans-Serif" font-size="10.00">INMOST::GetHandleID</text>
</a>
</g>
</g>
<!-- Node3&#45;&gt;Node5 -->
<g id="edge4" class="edge"><title>Node3&#45;&gt;Node5</title>
<path fill="none" stroke="midnightblue" d="M337.723,-41.0868C356.099,-39.2779 375.85,-37.3334 394.023,-35.5443"/>
<polygon fill="midnightblue" stroke="midnightblue" points="394.619,-39.0027 404.228,-34.5398 393.933,-32.0364 394.619,-39.0027"/>
</g>
</g>
</svg>
