<?xml version="1.0" encoding="UTF-8" standalone="no"?>
<!DOCTYPE svg PUBLIC "-//W3C//DTD SVG 1.1//EN"
 "http://www.w3.org/Graphics/SVG/1.1/DTD/svg11.dtd">
<!-- Generated by graphviz version 2.38.0 (20140413.2041)
 -->
<!-- Title: INMOST::array::_reverse_iterator::_reverse_iterator Pages: 1 -->
<svg width="296pt" height="186pt"
 viewBox="0.00 0.00 296.00 186.00" xmlns="http://www.w3.org/2000/svg" xmlns:xlink="http://www.w3.org/1999/xlink">
<g id="graph0" class="graph" transform="scale(1 1) rotate(0) translate(4 182)">
<title>INMOST::array::_reverse_iterator::_reverse_iterator</title>
<!-- Node1 -->
<g id="node1" class="node"><title>Node1</title>
<polygon fill="#bfbfbf" stroke="black" points="0,-73.5 0,-103.5 129,-103.5 129,-73.5 0,-73.5"/>
<text text-anchor="start" x="8" y="-91.5" font-family="Helvetica,sans-Serif" font-size="10.00">INMOST::array::_reverse</text>
<text text-anchor="middle" x="64.5" y="-80.5" font-family="Helvetica,sans-Serif" font-size="10.00">_iterator::_reverse_iterator</text>
</g>
<!-- Node2 -->
<g id="node2" class="node"><title>Node2</title>
<g id="a_node2"><a xlink:href="class_i_n_m_o_s_t_1_1array_1_1__reverse__iterator.html#a8c645daf23e7766a3ed0ef071575a161" target="_top" xlink:title="INMOST::array::_reverse\l_iterator::operator&#45;">
<polygon fill="none" stroke="black" points="165,-147.5 165,-177.5 288,-177.5 288,-147.5 165,-147.5"/>
<text text-anchor="start" x="173" y="-165.5" font-family="Helvetica,sans-Serif" font-size="10.00">INMOST::array::_reverse</text>
<text text-anchor="middle" x="226.5" y="-154.5" font-family="Helvetica,sans-Serif" font-size="10.00">_iterator::operator&#45;</text>
</a>
</g>
</g>
<!-- Node1&#45;&gt;Node2 -->
<g id="edge1" class="edge"><title>Node1&#45;&gt;Node2</title>
<path fill="none" stroke="midnightblue" d="M102.897,-108.271C121.398,-117.8 144.176,-129.159 165,-138.5 171.702,-141.506 178.9,-144.533 185.912,-147.376"/>
<polygon fill="midnightblue" stroke="midnightblue" points="104.405,-105.111 93.9162,-103.617 101.184,-111.326 104.405,-105.111"/>
</g>
<!-- Node3 -->
<g id="node3" class="node"><title>Node3</title>
<g id="a_node3"><a xlink:href="class_i_n_m_o_s_t_1_1array_1_1__reverse__iterator.html#a6c78b5e67e45ecd0f7e56616adfb58e7" target="_top" xlink:title="INMOST::array::_reverse\l_iterator::operator+">
<polygon fill="none" stroke="black" points="165,-98.5 165,-128.5 288,-128.5 288,-98.5 165,-98.5"/>
<text text-anchor="start" x="173" y="-116.5" font-family="Helvetica,sans-Serif" font-size="10.00">INMOST::array::_reverse</text>
<text text-anchor="middle" x="226.5" y="-105.5" font-family="Helvetica,sans-Serif" font-size="10.00">_iterator::operator+</text>
</a>
</g>
</g>
<!-- Node1&#45;&gt;Node3 -->
<g id="edge2" class="edge"><title>Node1&#45;&gt;Node3</title>
<path fill="none" stroke="midnightblue" d="M139.215,-100.018C147.808,-101.361 156.499,-102.719 164.887,-104.029"/>
<polygon fill="midnightblue" stroke="midnightblue" points="139.616,-96.5383 129.196,-98.4525 138.536,-103.454 139.616,-96.5383"/>
</g>
<!-- Node4 -->
<g id="node4" class="node"><title>Node4</title>
<g id="a_node4"><a xlink:href="class_i_n_m_o_s_t_1_1array_1_1__reverse__iterator.html#aeaff5c9198e567097e608d2bf6c0901f" target="_top" xlink:title="INMOST::array::_reverse\l_iterator::operator++">
<polygon fill="none" stroke="black" points="165,-49.5 165,-79.5 288,-79.5 288,-49.5 165,-49.5"/>
<text text-anchor="start" x="173" y="-67.5" font-family="Helvetica,sans-Serif" font-size="10.00">INMOST::array::_reverse</text>
<text text-anchor="middle" x="226.5" y="-56.5" font-family="Helvetica,sans-Serif" font-size="10.00">_iterator::operator++</text>
</a>
</g>
</g>
<!-- Node1&#45;&gt;Node4 -->
<g id="edge3" class="edge"><title>Node1&#45;&gt;Node4</title>
<path fill="none" stroke="midnightblue" d="M139.215,-77.4427C147.808,-76.1537 156.499,-74.8502 164.887,-73.5919"/>
<polygon fill="midnightblue" stroke="midnightblue" points="138.566,-74.0008 129.196,-78.9456 139.605,-80.9234 138.566,-74.0008"/>
</g>
<!-- Node5 -->
<g id="node5" class="node"><title>Node5</title>
<g id="a_node5"><a xlink:href="class_i_n_m_o_s_t_1_1array_1_1__reverse__iterator.html#a790aae44481c4ee9b50ffb7cbe3c5688" target="_top" xlink:title="INMOST::array::_reverse\l_iterator::operator&#45;&#45;">
<polygon fill="none" stroke="black" points="165,-0.5 165,-30.5 288,-30.5 288,-0.5 165,-0.5"/>
<text text-anchor="start" x="173" y="-18.5" font-family="Helvetica,sans-Serif" font-size="10.00">INMOST::array::_reverse</text>
<text text-anchor="middle" x="226.5" y="-7.5" font-family="Helvetica,sans-Serif" font-size="10.00">_iterator::operator&#45;&#45;</text>
</a>
</g>
</g>
<!-- Node1&#45;&gt;Node5 -->
<g id="edge4" class="edge"><title>Node1&#45;&gt;Node5</title>
<path fill="none" stroke="midnightblue" d="M104.905,-68.8453C123.086,-59.944 145.023,-49.4373 165,-40.5 172.469,-37.1584 180.523,-33.719 188.241,-30.501"/>
<polygon fill="midnightblue" stroke="midnightblue" points="103.2,-65.7835 95.7706,-73.337 106.289,-72.0652 103.2,-65.7835"/>
</g>
</g>
</svg>
