<?xml version="1.0" encoding="UTF-8" standalone="no"?>
<!DOCTYPE svg PUBLIC "-//W3C//DTD SVG 1.1//EN"
 "http://www.w3.org/Graphics/SVG/1.1/DTD/svg11.dtd">
<!-- Generated by graphviz version 2.38.0 (20140413.2041)
 -->
<!-- Title: INMOST::Matrix::Cols Pages: 1 -->
<svg width="290pt" height="142pt"
 viewBox="0.00 0.00 290.00 142.00" xmlns="http://www.w3.org/2000/svg" xmlns:xlink="http://www.w3.org/1999/xlink">
<g id="graph0" class="graph" transform="scale(1 1) rotate(0) translate(4 138)">
<title>INMOST::Matrix::Cols</title>
<!-- Node1 -->
<g id="node1" class="node"><title>Node1</title>
<polygon fill="#bfbfbf" stroke="black" points="0,-57.5 0,-76.5 112,-76.5 112,-57.5 0,-57.5"/>
<text text-anchor="middle" x="56" y="-64.5" font-family="Helvetica,sans-Serif" font-size="10.00">INMOST::Matrix::Cols</text>
</g>
<!-- Node2 -->
<g id="node2" class="node"><title>Node2</title>
<g id="a_node2"><a xlink:href="class_i_n_m_o_s_t_1_1_matrix.html#afc5db512cce96f97e13292e5f8c2aa2f" target="_top" xlink:title="INMOST::Matrix::operator&#45;">
<polygon fill="none" stroke="black" points="149.5,-114.5 149.5,-133.5 280.5,-133.5 280.5,-114.5 149.5,-114.5"/>
<text text-anchor="middle" x="215" y="-121.5" font-family="Helvetica,sans-Serif" font-size="10.00">INMOST::Matrix::operator&#45;</text>
</a>
</g>
</g>
<!-- Node1&#45;&gt;Node2 -->
<g id="edge1" class="edge"><title>Node1&#45;&gt;Node2</title>
<path fill="none" stroke="midnightblue" d="M87.2387,-80.6579C104.786,-88.3225 127.421,-97.7682 148,-105 157.674,-108.4 168.297,-111.659 178.139,-114.49"/>
<polygon fill="midnightblue" stroke="midnightblue" points="88.621,-77.4423 78.059,-76.6083 85.7956,-83.8468 88.621,-77.4423"/>
</g>
<!-- Node3 -->
<g id="node3" class="node"><title>Node3</title>
<g id="a_node3"><a xlink:href="class_i_n_m_o_s_t_1_1_matrix.html#a17fc4637fa9d4aacf70538209daf0b3f" target="_top" xlink:title="INMOST::Matrix::operator+">
<polygon fill="none" stroke="black" points="148,-76.5 148,-95.5 282,-95.5 282,-76.5 148,-76.5"/>
<text text-anchor="middle" x="215" y="-83.5" font-family="Helvetica,sans-Serif" font-size="10.00">INMOST::Matrix::operator+</text>
</a>
</g>
</g>
<!-- Node1&#45;&gt;Node3 -->
<g id="edge2" class="edge"><title>Node1&#45;&gt;Node3</title>
<path fill="none" stroke="midnightblue" d="M122.46,-74.9219C130.851,-75.9374 139.447,-76.9777 147.85,-77.9946"/>
<polygon fill="midnightblue" stroke="midnightblue" points="122.7,-71.4256 112.352,-73.6987 121.859,-78.3748 122.7,-71.4256"/>
</g>
<!-- Node4 -->
<g id="node4" class="node"><title>Node4</title>
<g id="a_node4"><a xlink:href="class_i_n_m_o_s_t_1_1_matrix.html#aa7b0ad8b30a3dd848c7a75104fface8a" target="_top" xlink:title="INMOST::Matrix::operator*">
<polygon fill="none" stroke="black" points="149.5,-38.5 149.5,-57.5 280.5,-57.5 280.5,-38.5 149.5,-38.5"/>
<text text-anchor="middle" x="215" y="-45.5" font-family="Helvetica,sans-Serif" font-size="10.00">INMOST::Matrix::operator*</text>
</a>
</g>
</g>
<!-- Node1&#45;&gt;Node4 -->
<g id="edge3" class="edge"><title>Node1&#45;&gt;Node4</title>
<path fill="none" stroke="midnightblue" d="M122.354,-59.091C131.323,-58.0055 140.529,-56.8914 149.484,-55.8077"/>
<polygon fill="midnightblue" stroke="midnightblue" points="121.859,-55.6251 112.352,-60.3013 122.7,-62.5744 121.859,-55.6251"/>
</g>
<!-- Node5 -->
<g id="node5" class="node"><title>Node5</title>
<g id="a_node5"><a xlink:href="class_i_n_m_o_s_t_1_1_matrix.html#a308fc7a550c7de8c21b9ef17eecba603" target="_top" xlink:title="INMOST::Matrix::operator/">
<polygon fill="none" stroke="black" points="149.5,-0.5 149.5,-19.5 280.5,-19.5 280.5,-0.5 149.5,-0.5"/>
<text text-anchor="middle" x="215" y="-7.5" font-family="Helvetica,sans-Serif" font-size="10.00">INMOST::Matrix::operator/</text>
</a>
</g>
</g>
<!-- Node1&#45;&gt;Node5 -->
<g id="edge4" class="edge"><title>Node1&#45;&gt;Node5</title>
<path fill="none" stroke="midnightblue" d="M87.2387,-53.3421C104.786,-45.6775 127.421,-36.2318 148,-29 157.674,-25.6003 168.297,-22.3405 178.139,-19.5103"/>
<polygon fill="midnightblue" stroke="midnightblue" points="85.7956,-50.1532 78.059,-57.3917 88.621,-56.5577 85.7956,-50.1532"/>
</g>
</g>
</svg>
