<?xml version="1.0" encoding="UTF-8" standalone="no"?>
<!DOCTYPE svg PUBLIC "-//W3C//DTD SVG 1.1//EN"
 "http://www.w3.org/Graphics/SVG/1.1/DTD/svg11.dtd">
<!-- Generated by graphviz version 2.38.0 (20140413.2041)
 -->
<!-- Title: INMOST::array::begin Pages: 1 -->
<svg width="284pt" height="88pt"
 viewBox="0.00 0.00 284.00 88.00" xmlns="http://www.w3.org/2000/svg" xmlns:xlink="http://www.w3.org/1999/xlink">
<g id="graph0" class="graph" transform="scale(1 1) rotate(0) translate(4 84)">
<title>INMOST::array::begin</title>
<!-- Node1 -->
<g id="node1" class="node"><title>Node1</title>
<polygon fill="#bfbfbf" stroke="black" points="0,-30 0,-49 110,-49 110,-30 0,-30"/>
<text text-anchor="middle" x="55" y="-37" font-family="Helvetica,sans-Serif" font-size="10.00">INMOST::array::begin</text>
</g>
<!-- Node2 -->
<g id="node2" class="node"><title>Node2</title>
<g id="a_node2"><a xlink:href="class_i_n_m_o_s_t_1_1array.html#aa1ce6a39575b892b26f461a40711f87e" target="_top" xlink:title="INMOST::array\&lt; reference\l \&gt;::erase">
<polygon fill="none" stroke="black" points="146,-49.5 146,-79.5 276,-79.5 276,-49.5 146,-49.5"/>
<text text-anchor="start" x="154" y="-67.5" font-family="Helvetica,sans-Serif" font-size="10.00">INMOST::array&lt; reference</text>
<text text-anchor="middle" x="211" y="-56.5" font-family="Helvetica,sans-Serif" font-size="10.00"> &gt;::erase</text>
</a>
</g>
</g>
<!-- Node1&#45;&gt;Node2 -->
<g id="edge1" class="edge"><title>Node1&#45;&gt;Node2</title>
<path fill="none" stroke="midnightblue" d="M120.441,-49.9612C128.866,-51.3289 137.497,-52.73 145.916,-54.0967"/>
<polygon fill="midnightblue" stroke="midnightblue" points="120.726,-46.4618 110.295,-48.3141 119.605,-53.3713 120.726,-46.4618"/>
</g>
<!-- Node3 -->
<g id="node3" class="node"><title>Node3</title>
<g id="a_node3"><a xlink:href="class_i_n_m_o_s_t_1_1array.html#a2be0dbe1ac04b39cd707dd3950d28e09" target="_top" xlink:title="INMOST::array\&lt; reference\l \&gt;::insert">
<polygon fill="none" stroke="black" points="146,-0.5 146,-30.5 276,-30.5 276,-0.5 146,-0.5"/>
<text text-anchor="start" x="154" y="-18.5" font-family="Helvetica,sans-Serif" font-size="10.00">INMOST::array&lt; reference</text>
<text text-anchor="middle" x="211" y="-7.5" font-family="Helvetica,sans-Serif" font-size="10.00"> &gt;::insert</text>
</a>
</g>
</g>
<!-- Node1&#45;&gt;Node3 -->
<g id="edge2" class="edge"><title>Node1&#45;&gt;Node3</title>
<path fill="none" stroke="midnightblue" d="M120.441,-29.4573C128.866,-28.1443 137.497,-26.7992 145.916,-25.4871"/>
<polygon fill="midnightblue" stroke="midnightblue" points="119.636,-26.0403 110.295,-31.0385 120.714,-32.9568 119.636,-26.0403"/>
</g>
</g>
</svg>
