<?xml version="1.0" encoding="UTF-8" standalone="no"?>
<!DOCTYPE svg PUBLIC "-//W3C//DTD SVG 1.1//EN"
 "http://www.w3.org/Graphics/SVG/1.1/DTD/svg11.dtd">
<!-- Generated by graphviz version 2.38.0 (20140413.2041)
 -->
<!-- Title: INMOST::Mesh::NumberOfCells Pages: 1 -->
<svg width="553pt" height="28pt"
 viewBox="0.00 0.00 553.00 28.00" xmlns="http://www.w3.org/2000/svg" xmlns:xlink="http://www.w3.org/1999/xlink">
<g id="graph0" class="graph" transform="scale(1 1) rotate(0) translate(4 24)">
<title>INMOST::Mesh::NumberOfCells</title>
<!-- Node1 -->
<g id="node1" class="node"><title>Node1</title>
<polygon fill="#bfbfbf" stroke="black" points="0,-0.5 0,-19.5 155,-19.5 155,-0.5 0,-0.5"/>
<text text-anchor="middle" x="77.5" y="-7.5" font-family="Helvetica,sans-Serif" font-size="10.00">INMOST::Mesh::NumberOfCells</text>
</g>
<!-- Node2 -->
<g id="node2" class="node"><title>Node2</title>
<g id="a_node2"><a xlink:href="class_i_n_m_o_s_t_1_1_mesh.html#a7aee6d7f5b7432dc34bc7319a9e1e8f4" target="_top" xlink:title="INMOST::Mesh::NumberOfElements">
<polygon fill="none" stroke="black" points="191,-0.5 191,-19.5 365,-19.5 365,-0.5 191,-0.5"/>
<text text-anchor="middle" x="278" y="-7.5" font-family="Helvetica,sans-Serif" font-size="10.00">INMOST::Mesh::NumberOfElements</text>
</a>
</g>
</g>
<!-- Node1&#45;&gt;Node2 -->
<g id="edge1" class="edge"><title>Node1&#45;&gt;Node2</title>
<path fill="none" stroke="midnightblue" d="M165.461,-10C173.9,-10 182.458,-10 190.888,-10"/>
<polygon fill="midnightblue" stroke="midnightblue" points="165.245,-6.5001 155.245,-10 165.245,-13.5001 165.245,-6.5001"/>
</g>
<!-- Node3 -->
<g id="node3" class="node"><title>Node3</title>
<g id="a_node3"><a xlink:href="class_i_n_m_o_s_t_1_1_mesh.html#a8f8e4c3631d8448e738f26cfc99e6871" target="_top" xlink:title="INMOST::Mesh::NumberOfAll">
<polygon fill="none" stroke="black" points="401,-0.5 401,-19.5 545,-19.5 545,-0.5 401,-0.5"/>
<text text-anchor="middle" x="473" y="-7.5" font-family="Helvetica,sans-Serif" font-size="10.00">INMOST::Mesh::NumberOfAll</text>
</a>
</g>
</g>
<!-- Node2&#45;&gt;Node3 -->
<g id="edge2" class="edge"><title>Node2&#45;&gt;Node3</title>
<path fill="none" stroke="midnightblue" d="M375.185,-10C383.828,-10 392.474,-10 400.847,-10"/>
<polygon fill="midnightblue" stroke="midnightblue" points="375.058,-6.5001 365.058,-10 375.058,-13.5001 375.058,-6.5001"/>
</g>
</g>
</svg>
