<?xml version="1.0" encoding="UTF-8" standalone="no"?>
<!DOCTYPE svg PUBLIC "-//W3C//DTD SVG 1.1//EN"
 "http://www.w3.org/Graphics/SVG/1.1/DTD/svg11.dtd">
<!-- Generated by graphviz version 2.38.0 (20140413.2041)
 -->
<!-- Title: INMOST::array::_iterator::_iterator Pages: 1 -->
<svg width="288pt" height="186pt"
 viewBox="0.00 0.00 288.00 186.00" xmlns="http://www.w3.org/2000/svg" xmlns:xlink="http://www.w3.org/1999/xlink">
<g id="graph0" class="graph" transform="scale(1 1) rotate(0) translate(4 182)">
<title>INMOST::array::_iterator::_iterator</title>
<!-- Node1 -->
<g id="node1" class="node"><title>Node1</title>
<polygon fill="#bfbfbf" stroke="black" points="0,-73.5 0,-103.5 122,-103.5 122,-73.5 0,-73.5"/>
<text text-anchor="start" x="8" y="-91.5" font-family="Helvetica,sans-Serif" font-size="10.00">INMOST::array::_iterator</text>
<text text-anchor="middle" x="61" y="-80.5" font-family="Helvetica,sans-Serif" font-size="10.00">::_iterator</text>
</g>
<!-- Node2 -->
<g id="node2" class="node"><title>Node2</title>
<g id="a_node2"><a xlink:href="class_i_n_m_o_s_t_1_1array_1_1__iterator.html#ac56cfdaf3faba6e26ebaa532bc883f32" target="_top" xlink:title="INMOST::array::_iterator\l::operator&#45;">
<polygon fill="none" stroke="black" points="158,-147.5 158,-177.5 280,-177.5 280,-147.5 158,-147.5"/>
<text text-anchor="start" x="166" y="-165.5" font-family="Helvetica,sans-Serif" font-size="10.00">INMOST::array::_iterator</text>
<text text-anchor="middle" x="219" y="-154.5" font-family="Helvetica,sans-Serif" font-size="10.00">::operator&#45;</text>
</a>
</g>
</g>
<!-- Node1&#45;&gt;Node2 -->
<g id="edge1" class="edge"><title>Node1&#45;&gt;Node2</title>
<path fill="none" stroke="midnightblue" d="M98.2651,-108.477C116.057,-117.997 137.93,-129.287 158,-138.5 164.628,-141.542 171.758,-144.587 178.708,-147.436"/>
<polygon fill="midnightblue" stroke="midnightblue" points="99.8279,-105.343 89.3643,-103.681 96.5072,-111.506 99.8279,-105.343"/>
</g>
<!-- Node3 -->
<g id="node3" class="node"><title>Node3</title>
<g id="a_node3"><a xlink:href="class_i_n_m_o_s_t_1_1array_1_1__iterator.html#a9d69b11b884f1d7305e3bb1a5a92397e" target="_top" xlink:title="INMOST::array::_iterator\l::operator+">
<polygon fill="none" stroke="black" points="158,-98.5 158,-128.5 280,-128.5 280,-98.5 158,-98.5"/>
<text text-anchor="start" x="166" y="-116.5" font-family="Helvetica,sans-Serif" font-size="10.00">INMOST::array::_iterator</text>
<text text-anchor="middle" x="219" y="-105.5" font-family="Helvetica,sans-Serif" font-size="10.00">::operator+</text>
</a>
</g>
</g>
<!-- Node1&#45;&gt;Node3 -->
<g id="edge2" class="edge"><title>Node1&#45;&gt;Node3</title>
<path fill="none" stroke="midnightblue" d="M132.259,-99.7595C140.802,-101.129 149.469,-102.518 157.847,-103.86"/>
<polygon fill="midnightblue" stroke="midnightblue" points="132.742,-96.2922 122.314,-98.1657 131.634,-103.204 132.742,-96.2922"/>
</g>
<!-- Node4 -->
<g id="node4" class="node"><title>Node4</title>
<g id="a_node4"><a xlink:href="class_i_n_m_o_s_t_1_1array_1_1__iterator.html#a4ec50bd27f45666a29393a4d8ed14f08" target="_top" xlink:title="INMOST::array::_iterator\l::operator++">
<polygon fill="none" stroke="black" points="158,-49.5 158,-79.5 280,-79.5 280,-49.5 158,-49.5"/>
<text text-anchor="start" x="166" y="-67.5" font-family="Helvetica,sans-Serif" font-size="10.00">INMOST::array::_iterator</text>
<text text-anchor="middle" x="219" y="-56.5" font-family="Helvetica,sans-Serif" font-size="10.00">::operator++</text>
</a>
</g>
</g>
<!-- Node1&#45;&gt;Node4 -->
<g id="edge3" class="edge"><title>Node1&#45;&gt;Node4</title>
<path fill="none" stroke="midnightblue" d="M132.259,-77.6909C140.802,-76.3766 149.469,-75.0432 157.847,-73.7543"/>
<polygon fill="midnightblue" stroke="midnightblue" points="131.665,-74.241 122.314,-79.221 132.73,-81.1596 131.665,-74.241"/>
</g>
<!-- Node5 -->
<g id="node5" class="node"><title>Node5</title>
<g id="a_node5"><a xlink:href="class_i_n_m_o_s_t_1_1array_1_1__iterator.html#ab639e1c22006b4a0f91ed3734719726a" target="_top" xlink:title="INMOST::array::_iterator\l::operator&#45;&#45;">
<polygon fill="none" stroke="black" points="158,-0.5 158,-30.5 280,-30.5 280,-0.5 158,-0.5"/>
<text text-anchor="start" x="166" y="-18.5" font-family="Helvetica,sans-Serif" font-size="10.00">INMOST::array::_iterator</text>
<text text-anchor="middle" x="219" y="-7.5" font-family="Helvetica,sans-Serif" font-size="10.00">::operator&#45;&#45;</text>
</a>
</g>
</g>
<!-- Node1&#45;&gt;Node5 -->
<g id="edge4" class="edge"><title>Node1&#45;&gt;Node5</title>
<path fill="none" stroke="midnightblue" d="M100.058,-68.7162C117.569,-59.8086 138.7,-49.3331 158,-40.5 165.285,-37.1657 173.145,-33.7578 180.7,-30.5738"/>
<polygon fill="midnightblue" stroke="midnightblue" points="98.0458,-65.8139 90.7361,-73.4831 101.233,-72.0462 98.0458,-65.8139"/>
</g>
</g>
</svg>
