<?xml version="1.0" encoding="UTF-8" standalone="no"?>
<!DOCTYPE svg PUBLIC "-//W3C//DTD SVG 1.1//EN"
 "http://www.w3.org/Graphics/SVG/1.1/DTD/svg11.dtd">
<!-- Generated by graphviz version 2.38.0 (20140413.2041)
 -->
<!-- Title: INMOST::Matrix::pythag Pages: 1 -->
<svg width="201pt" height="66pt"
 viewBox="0.00 0.00 201.00 66.00" xmlns="http://www.w3.org/2000/svg" xmlns:xlink="http://www.w3.org/1999/xlink">
<g id="graph0" class="graph" transform="scale(1 1) rotate(0) translate(4 62)">
<title>INMOST::Matrix::pythag</title>
<!-- Node1 -->
<g id="node1" class="node"><title>Node1</title>
<polygon fill="#bfbfbf" stroke="black" points="0,-19.5 0,-38.5 122,-38.5 122,-19.5 0,-19.5"/>
<text text-anchor="middle" x="61" y="-26.5" font-family="Helvetica,sans-Serif" font-size="10.00">INMOST::Matrix::pythag</text>
</g>
<!-- Node2 -->
<g id="node2" class="node"><title>Node2</title>
<g id="a_node2"><a xlink:href="inmost__variable_8h.html#aaa87a9d57f31044c99fd1b9eb371356f" target="_top" xlink:title="fabs">
<polygon fill="none" stroke="black" points="158,-38.5 158,-57.5 193,-57.5 193,-38.5 158,-38.5"/>
<text text-anchor="middle" x="175.5" y="-45.5" font-family="Helvetica,sans-Serif" font-size="10.00">fabs</text>
</a>
</g>
</g>
<!-- Node1&#45;&gt;Node2 -->
<g id="edge1" class="edge"><title>Node1&#45;&gt;Node2</title>
<path fill="none" stroke="midnightblue" d="M118.58,-38.5557C128.694,-40.2638 138.793,-41.9695 147.571,-43.452"/>
<polygon fill="midnightblue" stroke="midnightblue" points="147.091,-46.9204 157.534,-45.1346 148.256,-40.0181 147.091,-46.9204"/>
</g>
<!-- Node3 -->
<g id="node3" class="node"><title>Node3</title>
<g id="a_node3"><a xlink:href="inmost__expression_8h.html#a9895440ef16c247ba332e9ab223ee9ea" target="_top" xlink:title="sqrt">
<polygon fill="none" stroke="black" points="159,-0.5 159,-19.5 192,-19.5 192,-0.5 159,-0.5"/>
<text text-anchor="middle" x="175.5" y="-7.5" font-family="Helvetica,sans-Serif" font-size="10.00">sqrt</text>
</a>
</g>
</g>
<!-- Node1&#45;&gt;Node3 -->
<g id="edge2" class="edge"><title>Node1&#45;&gt;Node3</title>
<path fill="none" stroke="midnightblue" d="M118.58,-19.4443C129.277,-17.6377 139.958,-15.8338 149.076,-14.2939"/>
<polygon fill="midnightblue" stroke="midnightblue" points="149.691,-17.7397 158.968,-12.6232 148.525,-10.8374 149.691,-17.7397"/>
</g>
</g>
</svg>
