<?xml version="1.0" encoding="UTF-8" standalone="no"?>
<!DOCTYPE svg PUBLIC "-//W3C//DTD SVG 1.1//EN"
 "http://www.w3.org/Graphics/SVG/1.1/DTD/svg11.dtd">
<!-- Generated by graphviz version 2.38.0 (20140413.2041)
 -->
<!-- Title: INMOST::dynarray::_iterator::_iterator Pages: 1 -->
<svg width="252pt" height="186pt"
 viewBox="0.00 0.00 252.00 186.00" xmlns="http://www.w3.org/2000/svg" xmlns:xlink="http://www.w3.org/1999/xlink">
<g id="graph0" class="graph" transform="scale(1 1) rotate(0) translate(4 182)">
<title>INMOST::dynarray::_iterator::_iterator</title>
<!-- Node1 -->
<g id="node1" class="node"><title>Node1</title>
<polygon fill="#bfbfbf" stroke="black" points="0,-73.5 0,-103.5 103,-103.5 103,-73.5 0,-73.5"/>
<text text-anchor="start" x="8" y="-91.5" font-family="Helvetica,sans-Serif" font-size="10.00">INMOST::dynarray::</text>
<text text-anchor="middle" x="51.5" y="-80.5" font-family="Helvetica,sans-Serif" font-size="10.00">_iterator::_iterator</text>
</g>
<!-- Node2 -->
<g id="node2" class="node"><title>Node2</title>
<g id="a_node2"><a xlink:href="class_i_n_m_o_s_t_1_1dynarray_1_1__iterator.html#a46a6fca66fe4f36604f10bddb6e1d212" target="_top" xlink:title="INMOST::dynarray::\l_iterator::operator&#45;">
<polygon fill="none" stroke="black" points="140,-147.5 140,-177.5 243,-177.5 243,-147.5 140,-147.5"/>
<text text-anchor="start" x="148" y="-165.5" font-family="Helvetica,sans-Serif" font-size="10.00">INMOST::dynarray::</text>
<text text-anchor="middle" x="191.5" y="-154.5" font-family="Helvetica,sans-Serif" font-size="10.00">_iterator::operator&#45;</text>
</a>
</g>
</g>
<!-- Node1&#45;&gt;Node2 -->
<g id="edge1" class="edge"><title>Node1&#45;&gt;Node2</title>
<path fill="none" stroke="midnightblue" d="M86.0663,-108.823C101.935,-118.192 121.252,-129.258 139,-138.5 144.774,-141.507 150.994,-144.559 157.046,-147.432"/>
<polygon fill="midnightblue" stroke="midnightblue" points="87.5441,-105.63 77.1596,-103.529 83.9676,-111.647 87.5441,-105.63"/>
</g>
<!-- Node3 -->
<g id="node3" class="node"><title>Node3</title>
<g id="a_node3"><a xlink:href="class_i_n_m_o_s_t_1_1dynarray_1_1__iterator.html#a713641c31b486f092b5746f6c18face1" target="_top" xlink:title="INMOST::dynarray::\l_iterator::operator+">
<polygon fill="none" stroke="black" points="140,-98.5 140,-128.5 243,-128.5 243,-98.5 140,-98.5"/>
<text text-anchor="start" x="148" y="-116.5" font-family="Helvetica,sans-Serif" font-size="10.00">INMOST::dynarray::</text>
<text text-anchor="middle" x="191.5" y="-105.5" font-family="Helvetica,sans-Serif" font-size="10.00">_iterator::operator+</text>
</a>
</g>
</g>
<!-- Node1&#45;&gt;Node3 -->
<g id="edge2" class="edge"><title>Node1&#45;&gt;Node3</title>
<path fill="none" stroke="midnightblue" d="M113.093,-99.477C122.043,-101.098 131.185,-102.755 139.904,-104.334"/>
<polygon fill="midnightblue" stroke="midnightblue" points="113.566,-96.0058 103.103,-97.6671 112.318,-102.894 113.566,-96.0058"/>
</g>
<!-- Node4 -->
<g id="node4" class="node"><title>Node4</title>
<g id="a_node4"><a xlink:href="class_i_n_m_o_s_t_1_1dynarray_1_1__iterator.html#a97250fd9b8b90c0b9332bba82b6a0683" target="_top" xlink:title="INMOST::dynarray::\l_iterator::operator++">
<polygon fill="none" stroke="black" points="139,-49.5 139,-79.5 244,-79.5 244,-49.5 139,-49.5"/>
<text text-anchor="start" x="147" y="-67.5" font-family="Helvetica,sans-Serif" font-size="10.00">INMOST::dynarray::</text>
<text text-anchor="middle" x="191.5" y="-56.5" font-family="Helvetica,sans-Serif" font-size="10.00">_iterator::operator++</text>
</a>
</g>
</g>
<!-- Node1&#45;&gt;Node4 -->
<g id="edge3" class="edge"><title>Node1&#45;&gt;Node4</title>
<path fill="none" stroke="midnightblue" d="M113.115,-77.9582C121.743,-76.4578 130.547,-74.9266 138.979,-73.4602"/>
<polygon fill="midnightblue" stroke="midnightblue" points="112.355,-74.5378 103.103,-79.6996 113.554,-81.4343 112.355,-74.5378"/>
</g>
<!-- Node5 -->
<g id="node5" class="node"><title>Node5</title>
<g id="a_node5"><a xlink:href="class_i_n_m_o_s_t_1_1dynarray_1_1__iterator.html#a7a4799a24f1c7047e5a093bb5f009e70" target="_top" xlink:title="INMOST::dynarray::\l_iterator::operator&#45;&#45;">
<polygon fill="none" stroke="black" points="140,-0.5 140,-30.5 243,-30.5 243,-0.5 140,-0.5"/>
<text text-anchor="start" x="148" y="-18.5" font-family="Helvetica,sans-Serif" font-size="10.00">INMOST::dynarray::</text>
<text text-anchor="middle" x="191.5" y="-7.5" font-family="Helvetica,sans-Serif" font-size="10.00">_iterator::operator&#45;&#45;</text>
</a>
</g>
</g>
<!-- Node1&#45;&gt;Node5 -->
<g id="edge4" class="edge"><title>Node1&#45;&gt;Node5</title>
<path fill="none" stroke="midnightblue" d="M87.6091,-68.4468C103.236,-59.6692 121.929,-49.3713 139,-40.5 145.35,-37.2002 152.201,-33.779 158.77,-30.5657"/>
<polygon fill="midnightblue" stroke="midnightblue" points="85.7881,-65.4554 78.7977,-73.4169 89.2272,-71.5524 85.7881,-65.4554"/>
</g>
</g>
</svg>
