<?xml version="1.0" encoding="UTF-8" standalone="no"?>
<!DOCTYPE svg PUBLIC "-//W3C//DTD SVG 1.1//EN"
 "http://www.w3.org/Graphics/SVG/1.1/DTD/svg11.dtd">
<!-- Generated by graphviz version 2.38.0 (20140413.2041)
 -->
<!-- Title: INMOST::Storage::RemoteReferenceArrayDV Pages: 1 -->
<svg width="387pt" height="116pt"
 viewBox="0.00 0.00 387.00 116.00" xmlns="http://www.w3.org/2000/svg" xmlns:xlink="http://www.w3.org/1999/xlink">
<g id="graph0" class="graph" transform="scale(1 1) rotate(0) translate(4 112)">
<title>INMOST::Storage::RemoteReferenceArrayDV</title>
<!-- Node1 -->
<g id="node1" class="node"><title>Node1</title>
<polygon fill="#bfbfbf" stroke="black" points="0,-39 0,-69 176,-69 176,-39 0,-39"/>
<text text-anchor="start" x="8" y="-57" font-family="Helvetica,sans-Serif" font-size="10.00">INMOST::Storage::RemoteReference</text>
<text text-anchor="middle" x="88" y="-46" font-family="Helvetica,sans-Serif" font-size="10.00">ArrayDV</text>
</g>
<!-- Node2 -->
<g id="node2" class="node"><title>Node2</title>
<g id="a_node2"><a xlink:href="class_i_n_m_o_s_t_1_1_storage.html#a20d218fc89f75ca8534707b4f697173e" target="_top" xlink:title="INMOST::Storage::GetMeshLink">
<polygon fill="none" stroke="black" points="217,-88.5 217,-107.5 374,-107.5 374,-88.5 217,-88.5"/>
<text text-anchor="middle" x="295.5" y="-95.5" font-family="Helvetica,sans-Serif" font-size="10.00">INMOST::Storage::GetMeshLink</text>
</a>
</g>
</g>
<!-- Node1&#45;&gt;Node2 -->
<g id="edge1" class="edge"><title>Node1&#45;&gt;Node2</title>
<path fill="none" stroke="midnightblue" d="M159.147,-69.0192C185.615,-74.6864 215.303,-81.0429 240.116,-86.3556"/>
<polygon fill="midnightblue" stroke="midnightblue" points="239.561,-89.8163 250.073,-88.4876 241.027,-82.9714 239.561,-89.8163"/>
</g>
<!-- Node3 -->
<g id="node3" class="node"><title>Node3</title>
<g id="a_node3"><a xlink:href="class_i_n_m_o_s_t_1_1_mesh.html#a610fbebb7fb4d1b0c4103fc5b3a37170" target="_top" xlink:title="INMOST::Mesh::RemoteReference\lArrayDV">
<polygon fill="none" stroke="black" points="212,-39 212,-69 379,-69 379,-39 212,-39"/>
<text text-anchor="start" x="220" y="-57" font-family="Helvetica,sans-Serif" font-size="10.00">INMOST::Mesh::RemoteReference</text>
<text text-anchor="middle" x="295.5" y="-46" font-family="Helvetica,sans-Serif" font-size="10.00">ArrayDV</text>
</a>
</g>
</g>
<!-- Node1&#45;&gt;Node3 -->
<g id="edge2" class="edge"><title>Node1&#45;&gt;Node3</title>
<path fill="none" stroke="midnightblue" d="M176.151,-54C184.55,-54 193.091,-54 201.544,-54"/>
<polygon fill="midnightblue" stroke="midnightblue" points="201.794,-57.5001 211.794,-54 201.794,-50.5001 201.794,-57.5001"/>
</g>
<!-- Node4 -->
<g id="node4" class="node"><title>Node4</title>
<g id="a_node4"><a xlink:href="class_i_n_m_o_s_t_1_1_storage.html#ac79e3f3664b2ff21892f37bce0caa0e0" target="_top" xlink:title="INMOST::Storage::GetHandle">
<polygon fill="none" stroke="black" points="223,-0.5 223,-19.5 368,-19.5 368,-0.5 223,-0.5"/>
<text text-anchor="middle" x="295.5" y="-7.5" font-family="Helvetica,sans-Serif" font-size="10.00">INMOST::Storage::GetHandle</text>
</a>
</g>
</g>
<!-- Node1&#45;&gt;Node4 -->
<g id="edge3" class="edge"><title>Node1&#45;&gt;Node4</title>
<path fill="none" stroke="midnightblue" d="M159.147,-38.9808C185.615,-33.3136 215.303,-26.9571 240.116,-21.6444"/>
<polygon fill="midnightblue" stroke="midnightblue" points="241.027,-25.0286 250.073,-19.5124 239.561,-18.1837 241.027,-25.0286"/>
</g>
</g>
</svg>
