<?xml version="1.0" encoding="UTF-8" standalone="no"?>
<!DOCTYPE svg PUBLIC "-//W3C//DTD SVG 1.1//EN"
 "http://www.w3.org/Graphics/SVG/1.1/DTD/svg11.dtd">
<!-- Generated by graphviz version 2.38.0 (20140413.2041)
 -->
<!-- Title: INMOST::Mesh::RemMarker Pages: 1 -->
<svg width="347pt" height="66pt"
 viewBox="0.00 0.00 347.00 66.00" xmlns="http://www.w3.org/2000/svg" xmlns:xlink="http://www.w3.org/1999/xlink">
<g id="graph0" class="graph" transform="scale(1 1) rotate(0) translate(4 62)">
<title>INMOST::Mesh::RemMarker</title>
<!-- Node1 -->
<g id="node1" class="node"><title>Node1</title>
<polygon fill="#bfbfbf" stroke="black" points="0,-19.5 0,-38.5 140,-38.5 140,-19.5 0,-19.5"/>
<text text-anchor="middle" x="70" y="-26.5" font-family="Helvetica,sans-Serif" font-size="10.00">INMOST::Mesh::RemMarker</text>
</g>
<!-- Node2 -->
<g id="node2" class="node"><title>Node2</title>
<g id="a_node2"><a xlink:href="class_i_n_m_o_s_t_1_1_mesh.html#a14f8614996be1f7dd81825a447e9f4e8" target="_top" xlink:title="INMOST::Mesh::RemMarkerArray">
<polygon fill="none" stroke="black" points="176,-38.5 176,-57.5 339,-57.5 339,-38.5 176,-38.5"/>
<text text-anchor="middle" x="257.5" y="-45.5" font-family="Helvetica,sans-Serif" font-size="10.00">INMOST::Mesh::RemMarkerArray</text>
</a>
</g>
</g>
<!-- Node1&#45;&gt;Node2 -->
<g id="edge1" class="edge"><title>Node1&#45;&gt;Node2</title>
<path fill="none" stroke="midnightblue" d="M150.282,-37.1205C158.728,-37.9857 167.327,-38.8664 175.79,-39.7332"/>
<polygon fill="midnightblue" stroke="midnightblue" points="150.378,-33.6121 140.073,-36.0749 149.665,-40.5757 150.378,-33.6121"/>
</g>
<!-- Node3 -->
<g id="node3" class="node"><title>Node3</title>
<g id="a_node3"><a xlink:href="class_i_n_m_o_s_t_1_1_storage.html#aeae593e88e3269f8590742a9e95d1813" target="_top" xlink:title="INMOST::Storage::RemMarker">
<polygon fill="none" stroke="black" points="183,-0.5 183,-19.5 332,-19.5 332,-0.5 183,-0.5"/>
<text text-anchor="middle" x="257.5" y="-7.5" font-family="Helvetica,sans-Serif" font-size="10.00">INMOST::Storage::RemMarker</text>
</a>
</g>
</g>
<!-- Node1&#45;&gt;Node3 -->
<g id="edge2" class="edge"><title>Node1&#45;&gt;Node3</title>
<path fill="none" stroke="midnightblue" d="M150.291,-20.8785C161.048,-19.7767 172.052,-18.6497 182.707,-17.5583"/>
<polygon fill="midnightblue" stroke="midnightblue" points="149.665,-17.4243 140.073,-21.9251 150.378,-24.3879 149.665,-17.4243"/>
</g>
</g>
</svg>
