<?xml version="1.0" encoding="UTF-8" standalone="no"?>
<!DOCTYPE svg PUBLIC "-//W3C//DTD SVG 1.1//EN"
 "http://www.w3.org/Graphics/SVG/1.1/DTD/svg11.dtd">
<!-- Generated by graphviz version 2.38.0 (20140413.2041)
 -->
<!-- Title: INMOST::chunk_array::size Pages: 1 -->
<svg width="710pt" height="863pt"
 viewBox="0.00 0.00 710.00 862.50" xmlns="http://www.w3.org/2000/svg" xmlns:xlink="http://www.w3.org/1999/xlink">
<g id="graph0" class="graph" transform="scale(1 1) rotate(0) translate(4 858.5)">
<title>INMOST::chunk_array::size</title>
<!-- Node1 -->
<g id="node1" class="node"><title>Node1</title>
<polygon fill="#bfbfbf" stroke="black" points="0,-318 0,-348 113,-348 113,-318 0,-318"/>
<text text-anchor="start" x="8" y="-336" font-family="Helvetica,sans-Serif" font-size="10.00">INMOST::chunk_array</text>
<text text-anchor="middle" x="56.5" y="-325" font-family="Helvetica,sans-Serif" font-size="10.00">::size</text>
</g>
<!-- Node2 -->
<g id="node2" class="node"><title>Node2</title>
<g id="a_node2"><a xlink:href="class_i_n_m_o_s_t_1_1chunk__array.html#aec851e088441675dd2540f1eb393177b" target="_top" xlink:title="INMOST::chunk_array\l\&lt; INMOST_DATA_INTEGER\l_TYPE, chunk_bits_elems\l \&gt;::operator[]">
<polygon fill="none" stroke="black" points="160.5,-802 160.5,-854 300.5,-854 300.5,-802 160.5,-802"/>
<text text-anchor="start" x="168.5" y="-842" font-family="Helvetica,sans-Serif" font-size="10.00">INMOST::chunk_array</text>
<text text-anchor="start" x="168.5" y="-831" font-family="Helvetica,sans-Serif" font-size="10.00">&lt; INMOST_DATA_INTEGER</text>
<text text-anchor="start" x="168.5" y="-820" font-family="Helvetica,sans-Serif" font-size="10.00">_TYPE, chunk_bits_elems</text>
<text text-anchor="middle" x="230.5" y="-809" font-family="Helvetica,sans-Serif" font-size="10.00"> &gt;::operator[]</text>
</a>
</g>
</g>
<!-- Node1&#45;&gt;Node2 -->
<g id="edge1" class="edge"><title>Node1&#45;&gt;Node2</title>
<path fill="none" stroke="midnightblue" d="M59.54,-358.628C66.8689,-444.956 94.3768,-723.55 149,-792 152.247,-796.069 156.051,-799.691 160.207,-802.915"/>
<polygon fill="midnightblue" stroke="midnightblue" points="63.0078,-358.095 58.692,-348.419 56.0318,-358.674 63.0078,-358.095"/>
</g>
<!-- Node3 -->
<g id="node3" class="node"><title>Node3</title>
<g id="a_node3"><a xlink:href="class_i_n_m_o_s_t_1_1chunk__array.html#a62ce04f81e2f71afe9e1cab150656673" target="_top" xlink:title="INMOST::chunk_array\l\&lt; INMOST_DATA_INTEGER\l_TYPE, chunk_bits_elems \&gt;::at">
<polygon fill="none" stroke="black" points="153,-741.5 153,-782.5 308,-782.5 308,-741.5 153,-741.5"/>
<text text-anchor="start" x="161" y="-770.5" font-family="Helvetica,sans-Serif" font-size="10.00">INMOST::chunk_array</text>
<text text-anchor="start" x="161" y="-759.5" font-family="Helvetica,sans-Serif" font-size="10.00">&lt; INMOST_DATA_INTEGER</text>
<text text-anchor="middle" x="230.5" y="-748.5" font-family="Helvetica,sans-Serif" font-size="10.00">_TYPE, chunk_bits_elems &gt;::at</text>
</a>
</g>
</g>
<!-- Node1&#45;&gt;Node3 -->
<g id="edge2" class="edge"><title>Node1&#45;&gt;Node3</title>
<path fill="none" stroke="midnightblue" d="M60.1565,-358.192C68.9007,-436.701 99.1107,-675.089 149,-732 152.048,-735.477 155.538,-738.551 159.318,-741.27"/>
<polygon fill="midnightblue" stroke="midnightblue" points="63.6315,-357.771 59.0653,-348.211 56.6729,-358.532 63.6315,-357.771"/>
</g>
<!-- Node4 -->
<g id="node4" class="node"><title>Node4</title>
<g id="a_node4"><a xlink:href="class_i_n_m_o_s_t_1_1chunk__array.html#a98dba144788127210cc6e13e38a3cf15" target="_top" xlink:title="INMOST::chunk_array\l\&lt; INMOST_DATA_INTEGER\l_TYPE, chunk_bits_elems\l \&gt;::empty">
<polygon fill="none" stroke="black" points="160.5,-670 160.5,-722 300.5,-722 300.5,-670 160.5,-670"/>
<text text-anchor="start" x="168.5" y="-710" font-family="Helvetica,sans-Serif" font-size="10.00">INMOST::chunk_array</text>
<text text-anchor="start" x="168.5" y="-699" font-family="Helvetica,sans-Serif" font-size="10.00">&lt; INMOST_DATA_INTEGER</text>
<text text-anchor="start" x="168.5" y="-688" font-family="Helvetica,sans-Serif" font-size="10.00">_TYPE, chunk_bits_elems</text>
<text text-anchor="middle" x="230.5" y="-677" font-family="Helvetica,sans-Serif" font-size="10.00"> &gt;::empty</text>
</a>
</g>
</g>
<!-- Node1&#45;&gt;Node4 -->
<g id="edge3" class="edge"><title>Node1&#45;&gt;Node4</title>
<path fill="none" stroke="midnightblue" d="M57.5206,-358.245C58.9025,-418.178 70.4278,-570.754 149,-661 152.302,-664.793 156.091,-668.19 160.185,-671.229"/>
<polygon fill="midnightblue" stroke="midnightblue" points="61.0191,-358.113 57.3667,-348.168 54.0199,-358.22 61.0191,-358.113"/>
</g>
<!-- Node5 -->
<g id="node5" class="node"><title>Node5</title>
<g id="a_node5"><a xlink:href="class_i_n_m_o_s_t_1_1chunk__array.html#a08f24768977d6a77da4c28a921f39c81" target="_top" xlink:title="INMOST::chunk_array\l\&lt; INMOST_DATA_INTEGER\l_TYPE, chunk_bits_elems\l \&gt;::chunk_array">
<polygon fill="none" stroke="black" points="160.5,-599 160.5,-651 300.5,-651 300.5,-599 160.5,-599"/>
<text text-anchor="start" x="168.5" y="-639" font-family="Helvetica,sans-Serif" font-size="10.00">INMOST::chunk_array</text>
<text text-anchor="start" x="168.5" y="-628" font-family="Helvetica,sans-Serif" font-size="10.00">&lt; INMOST_DATA_INTEGER</text>
<text text-anchor="start" x="168.5" y="-617" font-family="Helvetica,sans-Serif" font-size="10.00">_TYPE, chunk_bits_elems</text>
<text text-anchor="middle" x="230.5" y="-606" font-family="Helvetica,sans-Serif" font-size="10.00"> &gt;::chunk_array</text>
</a>
</g>
</g>
<!-- Node1&#45;&gt;Node5 -->
<g id="edge4" class="edge"><title>Node1&#45;&gt;Node5</title>
<path fill="none" stroke="midnightblue" d="M59.8547,-358.188C65.829,-408.513 85.8981,-522.448 149,-590 152.433,-593.675 156.319,-596.984 160.483,-599.961"/>
<polygon fill="midnightblue" stroke="midnightblue" points="63.3266,-357.739 58.7558,-348.181 56.3684,-358.503 63.3266,-357.739"/>
</g>
<!-- Node6 -->
<g id="node6" class="node"><title>Node6</title>
<g id="a_node6"><a xlink:href="class_i_n_m_o_s_t_1_1chunk__array.html#a678532359245fd5d0d5008f405054b9c" target="_top" xlink:title="INMOST::chunk_array\l\&lt; INMOST_DATA_INTEGER\l_TYPE, chunk_bits_elems\l \&gt;::operator=">
<polygon fill="none" stroke="black" points="160.5,-528 160.5,-580 300.5,-580 300.5,-528 160.5,-528"/>
<text text-anchor="start" x="168.5" y="-568" font-family="Helvetica,sans-Serif" font-size="10.00">INMOST::chunk_array</text>
<text text-anchor="start" x="168.5" y="-557" font-family="Helvetica,sans-Serif" font-size="10.00">&lt; INMOST_DATA_INTEGER</text>
<text text-anchor="start" x="168.5" y="-546" font-family="Helvetica,sans-Serif" font-size="10.00">_TYPE, chunk_bits_elems</text>
<text text-anchor="middle" x="230.5" y="-535" font-family="Helvetica,sans-Serif" font-size="10.00"> &gt;::operator=</text>
</a>
</g>
</g>
<!-- Node1&#45;&gt;Node6 -->
<g id="edge5" class="edge"><title>Node1&#45;&gt;Node6</title>
<path fill="none" stroke="midnightblue" d="M63.7513,-357.94C74.747,-397.103 101.058,-473.262 149,-519 152.418,-522.261 156.189,-525.246 160.177,-527.973"/>
<polygon fill="midnightblue" stroke="midnightblue" points="67.0945,-356.895 61.1082,-348.153 60.3365,-358.72 67.0945,-356.895"/>
</g>
<!-- Node7 -->
<g id="node7" class="node"><title>Node7</title>
<g id="a_node7"><a xlink:href="class_i_n_m_o_s_t_1_1chunk__array.html#aa93281054f3c4fd9347a0d1832245cfa" target="_top" xlink:title="INMOST::chunk_array\l\&lt; INMOST_DATA_INTEGER\l_TYPE, chunk_bits_elems\l \&gt;::back">
<polygon fill="none" stroke="black" points="160.5,-457 160.5,-509 300.5,-509 300.5,-457 160.5,-457"/>
<text text-anchor="start" x="168.5" y="-497" font-family="Helvetica,sans-Serif" font-size="10.00">INMOST::chunk_array</text>
<text text-anchor="start" x="168.5" y="-486" font-family="Helvetica,sans-Serif" font-size="10.00">&lt; INMOST_DATA_INTEGER</text>
<text text-anchor="start" x="168.5" y="-475" font-family="Helvetica,sans-Serif" font-size="10.00">_TYPE, chunk_bits_elems</text>
<text text-anchor="middle" x="230.5" y="-464" font-family="Helvetica,sans-Serif" font-size="10.00"> &gt;::back</text>
</a>
</g>
</g>
<!-- Node1&#45;&gt;Node7 -->
<g id="edge6" class="edge"><title>Node1&#45;&gt;Node7</title>
<path fill="none" stroke="midnightblue" d="M71.7308,-356.79C87.8132,-381.993 116.081,-421.584 149,-447 153.605,-450.555 158.616,-453.848 163.812,-456.879"/>
<polygon fill="midnightblue" stroke="midnightblue" points="74.637,-354.836 66.371,-348.208 68.6999,-358.544 74.637,-354.836"/>
</g>
<!-- Node8 -->
<g id="node8" class="node"><title>Node8</title>
<g id="a_node8"><a xlink:href="class_i_n_m_o_s_t_1_1_mesh.html#a05939bf3f29697b1ffb2005a617ee585" target="_top" xlink:title="INMOST::Mesh::NumberOfTags">
<polygon fill="none" stroke="black" points="153.5,-418.5 153.5,-437.5 307.5,-437.5 307.5,-418.5 153.5,-418.5"/>
<text text-anchor="middle" x="230.5" y="-425.5" font-family="Helvetica,sans-Serif" font-size="10.00">INMOST::Mesh::NumberOfTags</text>
</a>
</g>
</g>
<!-- Node1&#45;&gt;Node8 -->
<g id="edge7" class="edge"><title>Node1&#45;&gt;Node8</title>
<path fill="none" stroke="midnightblue" d="M78.8291,-355.697C96.1619,-372.819 122.075,-395.578 149,-409 156.711,-412.844 165.229,-415.93 173.753,-418.402"/>
<polygon fill="midnightblue" stroke="midnightblue" points="81.0161,-352.931 71.4963,-348.281 76.0384,-357.852 81.0161,-352.931"/>
</g>
<!-- Node9 -->
<g id="node9" class="node"><title>Node9</title>
<g id="a_node9"><a xlink:href="class_i_n_m_o_s_t_1_1_mesh.html#aa80eb9de7883ddfa176e9acefdc019c7" target="_top" xlink:title="INMOST::Mesh::NodeLastLocalID">
<polygon fill="none" stroke="black" points="149,-380.5 149,-399.5 312,-399.5 312,-380.5 149,-380.5"/>
<text text-anchor="middle" x="230.5" y="-387.5" font-family="Helvetica,sans-Serif" font-size="10.00">INMOST::Mesh::NodeLastLocalID</text>
</a>
</g>
</g>
<!-- Node1&#45;&gt;Node9 -->
<g id="edge8" class="edge"><title>Node1&#45;&gt;Node9</title>
<path fill="none" stroke="midnightblue" d="M99.3169,-352.039C114.729,-358.609 132.465,-365.654 149,-371 159.931,-374.534 171.891,-377.715 183.17,-380.418"/>
<polygon fill="midnightblue" stroke="midnightblue" points="100.62,-348.789 90.052,-348.029 97.839,-355.213 100.62,-348.789"/>
</g>
<!-- Node10 -->
<g id="node10" class="node"><title>Node10</title>
<g id="a_node10"><a xlink:href="class_i_n_m_o_s_t_1_1_mesh.html#abfa49ab28fa20915aaaea68a6a3ec5ac" target="_top" xlink:title="INMOST::Mesh::EdgeLastLocalID">
<polygon fill="none" stroke="black" points="149,-342.5 149,-361.5 312,-361.5 312,-342.5 149,-342.5"/>
<text text-anchor="middle" x="230.5" y="-349.5" font-family="Helvetica,sans-Serif" font-size="10.00">INMOST::Mesh::EdgeLastLocalID</text>
</a>
</g>
</g>
<!-- Node1&#45;&gt;Node10 -->
<g id="edge9" class="edge"><title>Node1&#45;&gt;Node10</title>
<path fill="none" stroke="midnightblue" d="M123.39,-340.279C131.755,-341.203 140.388,-342.156 148.949,-343.102"/>
<polygon fill="midnightblue" stroke="midnightblue" points="123.667,-336.788 113.343,-339.169 122.899,-343.746 123.667,-336.788"/>
</g>
<!-- Node11 -->
<g id="node11" class="node"><title>Node11</title>
<g id="a_node11"><a xlink:href="class_i_n_m_o_s_t_1_1_mesh.html#a5bdf8c4d6d2122d3221dd99e20a430ea" target="_top" xlink:title="INMOST::Mesh::FaceLastLocalID">
<polygon fill="none" stroke="black" points="149.5,-304.5 149.5,-323.5 311.5,-323.5 311.5,-304.5 149.5,-304.5"/>
<text text-anchor="middle" x="230.5" y="-311.5" font-family="Helvetica,sans-Serif" font-size="10.00">INMOST::Mesh::FaceLastLocalID</text>
</a>
</g>
</g>
<!-- Node1&#45;&gt;Node11 -->
<g id="edge10" class="edge"><title>Node1&#45;&gt;Node11</title>
<path fill="none" stroke="midnightblue" d="M123.478,-325.712C131.917,-324.78 140.627,-323.817 149.261,-322.864"/>
<polygon fill="midnightblue" stroke="midnightblue" points="122.899,-322.254 113.343,-326.831 123.667,-329.212 122.899,-322.254"/>
</g>
<!-- Node12 -->
<g id="node12" class="node"><title>Node12</title>
<g id="a_node12"><a xlink:href="class_i_n_m_o_s_t_1_1_mesh.html#ac46e642c492612e156a9e85a67b2305d" target="_top" xlink:title="INMOST::Mesh::CellLastLocalID">
<polygon fill="none" stroke="black" points="152,-266.5 152,-285.5 309,-285.5 309,-266.5 152,-266.5"/>
<text text-anchor="middle" x="230.5" y="-273.5" font-family="Helvetica,sans-Serif" font-size="10.00">INMOST::Mesh::CellLastLocalID</text>
</a>
</g>
</g>
<!-- Node1&#45;&gt;Node12 -->
<g id="edge11" class="edge"><title>Node1&#45;&gt;Node12</title>
<path fill="none" stroke="midnightblue" d="M99.3169,-313.961C114.729,-307.391 132.465,-300.346 149,-295 159.931,-291.466 171.891,-288.285 183.17,-285.582"/>
<polygon fill="midnightblue" stroke="midnightblue" points="97.839,-310.787 90.052,-317.971 100.62,-317.211 97.839,-310.787"/>
</g>
<!-- Node13 -->
<g id="node13" class="node"><title>Node13</title>
<g id="a_node13"><a xlink:href="class_i_n_m_o_s_t_1_1_mesh.html#aaf65bc7bb30f0c80ff196914964f7c1a" target="_top" xlink:title="INMOST::Mesh::EsetLastLocalID">
<polygon fill="none" stroke="black" points="150,-228.5 150,-247.5 311,-247.5 311,-228.5 150,-228.5"/>
<text text-anchor="middle" x="230.5" y="-235.5" font-family="Helvetica,sans-Serif" font-size="10.00">INMOST::Mesh::EsetLastLocalID</text>
</a>
</g>
</g>
<!-- Node1&#45;&gt;Node13 -->
<g id="edge12" class="edge"><title>Node1&#45;&gt;Node13</title>
<path fill="none" stroke="midnightblue" d="M78.8291,-310.303C96.1619,-293.181 122.075,-270.422 149,-257 156.711,-253.156 165.229,-250.07 173.753,-247.598"/>
<polygon fill="midnightblue" stroke="midnightblue" points="76.0384,-308.148 71.4963,-317.719 81.0161,-313.069 76.0384,-308.148"/>
</g>
<!-- Node14 -->
<g id="node14" class="node"><title>Node14</title>
<g id="a_node14"><a xlink:href="class_i_n_m_o_s_t_1_1_mesh.html#a06a2ff7416bb492e1cdd095ca9c91e85" target="_top" xlink:title="INMOST::Mesh::LastLocalID">
<polygon fill="none" stroke="black" points="160.5,-190.5 160.5,-209.5 300.5,-209.5 300.5,-190.5 160.5,-190.5"/>
<text text-anchor="middle" x="230.5" y="-197.5" font-family="Helvetica,sans-Serif" font-size="10.00">INMOST::Mesh::LastLocalID</text>
</a>
</g>
</g>
<!-- Node1&#45;&gt;Node14 -->
<g id="edge13" class="edge"><title>Node1&#45;&gt;Node14</title>
<path fill="none" stroke="midnightblue" d="M70.3615,-308.813C85.5949,-282.575 113.451,-241.442 149,-219 155.193,-215.091 162.113,-211.985 169.225,-209.517"/>
<polygon fill="midnightblue" stroke="midnightblue" points="67.1894,-307.312 65.3294,-317.743 73.2879,-310.749 67.1894,-307.312"/>
</g>
<!-- Node15 -->
<g id="node15" class="node"><title>Node15</title>
<g id="a_node15"><a xlink:href="class_i_n_m_o_s_t_1_1_mesh.html#abeeaa462c78ce8a82e0e3e87c55e4455" target="_top" xlink:title="INMOST::Mesh::NumberOfSets">
<polygon fill="none" stroke="black" points="358.5,-133.5 358.5,-152.5 511.5,-152.5 511.5,-133.5 358.5,-133.5"/>
<text text-anchor="middle" x="435" y="-140.5" font-family="Helvetica,sans-Serif" font-size="10.00">INMOST::Mesh::NumberOfSets</text>
</a>
</g>
</g>
<!-- Node1&#45;&gt;Node15 -->
<g id="edge14" class="edge"><title>Node1&#45;&gt;Node15</title>
<path fill="none" stroke="midnightblue" d="M64.9356,-307.955C76.674,-273.185 103.025,-211.17 149,-181 182.439,-159.056 285.69,-149.695 358.249,-145.762"/>
<polygon fill="midnightblue" stroke="midnightblue" points="61.4971,-307.214 61.7563,-317.805 68.1587,-309.364 61.4971,-307.214"/>
</g>
<!-- Node17 -->
<g id="node17" class="node"><title>Node17</title>
<g id="a_node17"><a xlink:href="class_i_n_m_o_s_t_1_1_mesh.html#a245f0558fa7181cf6789db69c4005b33" target="_top" xlink:title="INMOST::Mesh::NumberOfCells">
<polygon fill="none" stroke="black" points="153,-114.5 153,-133.5 308,-133.5 308,-114.5 153,-114.5"/>
<text text-anchor="middle" x="230.5" y="-121.5" font-family="Helvetica,sans-Serif" font-size="10.00">INMOST::Mesh::NumberOfCells</text>
</a>
</g>
</g>
<!-- Node1&#45;&gt;Node17 -->
<g id="edge16" class="edge"><title>Node1&#45;&gt;Node17</title>
<path fill="none" stroke="midnightblue" d="M63.0864,-307.791C73.2228,-267.963 98.4416,-190.638 149,-148 156.469,-141.701 165.543,-137.055 174.87,-133.628"/>
<polygon fill="midnightblue" stroke="midnightblue" points="59.628,-307.202 60.6707,-317.745 66.4305,-308.853 59.628,-307.202"/>
</g>
<!-- Node19 -->
<g id="node19" class="node"><title>Node19</title>
<g id="a_node19"><a xlink:href="class_i_n_m_o_s_t_1_1_mesh.html#a67db1a1d141e8d7cb93ca1284777bb08" target="_top" xlink:title="INMOST::Mesh::NumberOfFaces">
<polygon fill="none" stroke="black" points="150.5,-76.5 150.5,-95.5 310.5,-95.5 310.5,-76.5 150.5,-76.5"/>
<text text-anchor="middle" x="230.5" y="-83.5" font-family="Helvetica,sans-Serif" font-size="10.00">INMOST::Mesh::NumberOfFaces</text>
</a>
</g>
</g>
<!-- Node1&#45;&gt;Node19 -->
<g id="edge19" class="edge"><title>Node1&#45;&gt;Node19</title>
<path fill="none" stroke="midnightblue" d="M60.1075,-307.762C66.3849,-260.489 86.7583,-158.549 149,-105 153.463,-101.16 158.561,-98.0631 163.977,-95.5691"/>
<polygon fill="midnightblue" stroke="midnightblue" points="56.624,-307.415 58.884,-317.766 63.5722,-308.264 56.624,-307.415"/>
</g>
<!-- Node20 -->
<g id="node20" class="node"><title>Node20</title>
<g id="a_node20"><a xlink:href="class_i_n_m_o_s_t_1_1_mesh.html#a404c19f0ddf24cd968de766cf130b371" target="_top" xlink:title="INMOST::Mesh::NumberOfEdges">
<polygon fill="none" stroke="black" points="150,-38.5 150,-57.5 311,-57.5 311,-38.5 150,-38.5"/>
<text text-anchor="middle" x="230.5" y="-45.5" font-family="Helvetica,sans-Serif" font-size="10.00">INMOST::Mesh::NumberOfEdges</text>
</a>
</g>
</g>
<!-- Node1&#45;&gt;Node20 -->
<g id="edge21" class="edge"><title>Node1&#45;&gt;Node20</title>
<path fill="none" stroke="midnightblue" d="M58.4502,-307.781C61.8652,-254.845 77.5065,-131.71 149,-67 153.259,-63.1455 158.152,-60.0317 163.377,-57.5212"/>
<polygon fill="midnightblue" stroke="midnightblue" points="54.9447,-307.788 57.8914,-317.965 61.9341,-308.172 54.9447,-307.788"/>
</g>
<!-- Node21 -->
<g id="node21" class="node"><title>Node21</title>
<g id="a_node21"><a xlink:href="class_i_n_m_o_s_t_1_1_mesh.html#a4562c5fd5341705ed706b3c4cfda80fe" target="_top" xlink:title="INMOST::Mesh::NumberOfNodes">
<polygon fill="none" stroke="black" points="150,-0.5 150,-19.5 311,-19.5 311,-0.5 150,-0.5"/>
<text text-anchor="middle" x="230.5" y="-7.5" font-family="Helvetica,sans-Serif" font-size="10.00">INMOST::Mesh::NumberOfNodes</text>
</a>
</g>
</g>
<!-- Node1&#45;&gt;Node21 -->
<g id="edge23" class="edge"><title>Node1&#45;&gt;Node21</title>
<path fill="none" stroke="midnightblue" d="M57.184,-307.485C57.9244,-249.094 68.3099,-104.944 149,-29 153.078,-25.1617 157.782,-22.052 162.826,-19.5379"/>
<polygon fill="midnightblue" stroke="midnightblue" points="53.6835,-307.651 57.1448,-317.665 60.6834,-307.678 53.6835,-307.651"/>
</g>
<!-- Node16 -->
<g id="node16" class="node"><title>Node16</title>
<g id="a_node16"><a xlink:href="class_i_n_m_o_s_t_1_1_mesh.html#a8f8e4c3631d8448e738f26cfc99e6871" target="_top" xlink:title="INMOST::Mesh::NumberOfAll">
<polygon fill="none" stroke="black" points="558,-104.5 558,-123.5 702,-123.5 702,-104.5 558,-104.5"/>
<text text-anchor="middle" x="630" y="-111.5" font-family="Helvetica,sans-Serif" font-size="10.00">INMOST::Mesh::NumberOfAll</text>
</a>
</g>
</g>
<!-- Node15&#45;&gt;Node16 -->
<g id="edge15" class="edge"><title>Node15&#45;&gt;Node16</title>
<path fill="none" stroke="midnightblue" d="M509.561,-131.947C527.991,-129.178 547.605,-126.23 565.499,-123.542"/>
<polygon fill="midnightblue" stroke="midnightblue" points="508.832,-128.517 499.463,-133.464 509.872,-135.439 508.832,-128.517"/>
</g>
<!-- Node18 -->
<g id="node18" class="node"><title>Node18</title>
<g id="a_node18"><a xlink:href="class_i_n_m_o_s_t_1_1_mesh.html#a7aee6d7f5b7432dc34bc7319a9e1e8f4" target="_top" xlink:title="INMOST::Mesh::NumberOfElements">
<polygon fill="none" stroke="black" points="348,-76.5 348,-95.5 522,-95.5 522,-76.5 348,-76.5"/>
<text text-anchor="middle" x="435" y="-83.5" font-family="Helvetica,sans-Serif" font-size="10.00">INMOST::Mesh::NumberOfElements</text>
</a>
</g>
</g>
<!-- Node17&#45;&gt;Node18 -->
<g id="edge17" class="edge"><title>Node17&#45;&gt;Node18</title>
<path fill="none" stroke="midnightblue" d="M292.347,-112.582C321.321,-107.145 355.575,-100.717 383.141,-95.5439"/>
<polygon fill="midnightblue" stroke="midnightblue" points="291.521,-109.176 282.338,-114.46 292.812,-116.056 291.521,-109.176"/>
</g>
<!-- Node18&#45;&gt;Node16 -->
<g id="edge18" class="edge"><title>Node18&#45;&gt;Node16</title>
<path fill="none" stroke="midnightblue" d="M511.54,-96.9592C528.615,-99.4364 546.61,-102.047 563.243,-104.46"/>
<polygon fill="midnightblue" stroke="midnightblue" points="512.009,-93.4907 501.61,-95.5186 511.004,-100.418 512.009,-93.4907"/>
</g>
<!-- Node19&#45;&gt;Node18 -->
<g id="edge20" class="edge"><title>Node19&#45;&gt;Node18</title>
<path fill="none" stroke="midnightblue" d="M320.757,-86C329.76,-86 338.892,-86 347.861,-86"/>
<polygon fill="midnightblue" stroke="midnightblue" points="320.662,-82.5001 310.662,-86 320.662,-89.5001 320.662,-82.5001"/>
</g>
<!-- Node20&#45;&gt;Node18 -->
<g id="edge22" class="edge"><title>Node20&#45;&gt;Node18</title>
<path fill="none" stroke="midnightblue" d="M292.347,-59.4181C321.321,-64.8552 355.575,-71.2832 383.141,-76.4561"/>
<polygon fill="midnightblue" stroke="midnightblue" points="292.812,-55.9444 282.338,-57.54 291.521,-62.8243 292.812,-55.9444"/>
</g>
<!-- Node21&#45;&gt;Node18 -->
<g id="edge24" class="edge"><title>Node21&#45;&gt;Node18</title>
<path fill="none" stroke="midnightblue" d="M289.024,-22.0503C296.818,-24.1259 304.656,-26.4482 312,-29 350.425,-42.3518 392.977,-63.8861 416.294,-76.3116"/>
<polygon fill="midnightblue" stroke="midnightblue" points="289.768,-18.6282 279.214,-19.5542 288.042,-25.4121 289.768,-18.6282"/>
</g>
</g>
</svg>
