<?xml version="1.0" encoding="UTF-8" standalone="no"?>
<!DOCTYPE svg PUBLIC "-//W3C//DTD SVG 1.1//EN"
 "http://www.w3.org/Graphics/SVG/1.1/DTD/svg11.dtd">
<!-- Generated by graphviz version 2.38.0 (20140413.2041)
 -->
<!-- Title: INMOST::pow_expression&lt; A, B &gt; Pages: 1 -->
<svg width="229pt" height="647pt"
 viewBox="0.00 0.00 229.00 647.00" xmlns="http://www.w3.org/2000/svg" xmlns:xlink="http://www.w3.org/1999/xlink">
<g id="graph0" class="graph" transform="scale(1 1) rotate(0) translate(4 643)">
<title>INMOST::pow_expression&lt; A, B &gt;</title>
<!-- Node1 -->
<g id="node1" class="node"><title>Node1</title>
<polygon fill="#bfbfbf" stroke="black" points="6.5,-0.5 6.5,-112.5 135.5,-112.5 135.5,-0.5 6.5,-0.5"/>
<text text-anchor="start" x="14.5" y="-100.5" font-family="Helvetica,sans-Serif" font-size="10.00">INMOST::pow_expression</text>
<text text-anchor="middle" x="71" y="-89.5" font-family="Helvetica,sans-Serif" font-size="10.00">&lt; A, B &gt;</text>
<polyline fill="none" stroke="black" points="6.5,-82.5 135.5,-82.5 "/>
<text text-anchor="middle" x="71" y="-70.5" font-family="Helvetica,sans-Serif" font-size="10.00"> </text>
<polyline fill="none" stroke="black" points="6.5,-63.5 135.5,-63.5 "/>
<text text-anchor="start" x="14.5" y="-51.5" font-family="Helvetica,sans-Serif" font-size="10.00">+ pow_expression()</text>
<text text-anchor="start" x="14.5" y="-40.5" font-family="Helvetica,sans-Serif" font-size="10.00">+ pow_expression()</text>
<text text-anchor="start" x="14.5" y="-29.5" font-family="Helvetica,sans-Serif" font-size="10.00">+ GetValue()</text>
<text text-anchor="start" x="14.5" y="-18.5" font-family="Helvetica,sans-Serif" font-size="10.00">+ GetDerivative()</text>
<text text-anchor="start" x="14.5" y="-7.5" font-family="Helvetica,sans-Serif" font-size="10.00">+ GetDerivative()</text>
</g>
<!-- Node2 -->
<g id="node2" class="node"><title>Node2</title>
<g id="a_node2"><a xlink:href="class_i_n_m_o_s_t_1_1shell__expression.html" target="_top" xlink:title="{INMOST::shell_expression\l\&lt; pow_expression\&lt; A, B \&gt; \&gt;\n||+ shell_expression()\l+ shell_expression()\l+ GetValue()\l+ GetDerivative()\l+ GetDerivative()\l+ operator pow_expression\l\&lt; A, B \&gt; &amp;()\l+ operator const pow\l_expression\&lt; A, B \&gt; &amp;()\l}">
<polygon fill="none" stroke="black" points="0,-150.5 0,-306.5 142,-306.5 142,-150.5 0,-150.5"/>
<text text-anchor="start" x="8" y="-294.5" font-family="Helvetica,sans-Serif" font-size="10.00">INMOST::shell_expression</text>
<text text-anchor="middle" x="71" y="-283.5" font-family="Helvetica,sans-Serif" font-size="10.00">&lt; pow_expression&lt; A, B &gt; &gt;</text>
<polyline fill="none" stroke="black" points="0,-276.5 142,-276.5 "/>
<text text-anchor="middle" x="71" y="-264.5" font-family="Helvetica,sans-Serif" font-size="10.00"> </text>
<polyline fill="none" stroke="black" points="0,-257.5 142,-257.5 "/>
<text text-anchor="start" x="8" y="-245.5" font-family="Helvetica,sans-Serif" font-size="10.00">+ shell_expression()</text>
<text text-anchor="start" x="8" y="-234.5" font-family="Helvetica,sans-Serif" font-size="10.00">+ shell_expression()</text>
<text text-anchor="start" x="8" y="-223.5" font-family="Helvetica,sans-Serif" font-size="10.00">+ GetValue()</text>
<text text-anchor="start" x="8" y="-212.5" font-family="Helvetica,sans-Serif" font-size="10.00">+ GetDerivative()</text>
<text text-anchor="start" x="8" y="-201.5" font-family="Helvetica,sans-Serif" font-size="10.00">+ GetDerivative()</text>
<text text-anchor="start" x="8" y="-190.5" font-family="Helvetica,sans-Serif" font-size="10.00">+ operator pow_expression</text>
<text text-anchor="start" x="8" y="-179.5" font-family="Helvetica,sans-Serif" font-size="10.00">&lt; A, B &gt; &amp;()</text>
<text text-anchor="start" x="8" y="-168.5" font-family="Helvetica,sans-Serif" font-size="10.00">+ operator const pow</text>
<text text-anchor="start" x="8" y="-157.5" font-family="Helvetica,sans-Serif" font-size="10.00">_expression&lt; A, B &gt; &amp;()</text>
</a>
</g>
</g>
<!-- Node2&#45;&gt;Node1 -->
<g id="edge1" class="edge"><title>Node2&#45;&gt;Node1</title>
<path fill="none" stroke="midnightblue" d="M71,-140.348C71,-131.024 71,-121.735 71,-112.929"/>
<polygon fill="none" stroke="midnightblue" points="67.5001,-140.458 71,-150.458 74.5001,-140.458 67.5001,-140.458"/>
</g>
<!-- Node3 -->
<g id="node3" class="node"><title>Node3</title>
<g id="a_node3"><a xlink:href="class_i_n_m_o_s_t_1_1basic__expression.html" target="_top" xlink:title="{INMOST::basic_expression\n||+ basic_expression()\l+ basic_expression()\l+ GetValue()\l+ GetDerivative()\l+ GetDerivative()\l}">
<polygon fill="none" stroke="black" points="17.5,-537.5 17.5,-638.5 152.5,-638.5 152.5,-537.5 17.5,-537.5"/>
<text text-anchor="middle" x="85" y="-626.5" font-family="Helvetica,sans-Serif" font-size="10.00">INMOST::basic_expression</text>
<polyline fill="none" stroke="black" points="17.5,-619.5 152.5,-619.5 "/>
<text text-anchor="middle" x="85" y="-607.5" font-family="Helvetica,sans-Serif" font-size="10.00"> </text>
<polyline fill="none" stroke="black" points="17.5,-600.5 152.5,-600.5 "/>
<text text-anchor="start" x="25.5" y="-588.5" font-family="Helvetica,sans-Serif" font-size="10.00">+ basic_expression()</text>
<text text-anchor="start" x="25.5" y="-577.5" font-family="Helvetica,sans-Serif" font-size="10.00">+ basic_expression()</text>
<text text-anchor="start" x="25.5" y="-566.5" font-family="Helvetica,sans-Serif" font-size="10.00">+ GetValue()</text>
<text text-anchor="start" x="25.5" y="-555.5" font-family="Helvetica,sans-Serif" font-size="10.00">+ GetDerivative()</text>
<text text-anchor="start" x="25.5" y="-544.5" font-family="Helvetica,sans-Serif" font-size="10.00">+ GetDerivative()</text>
</a>
</g>
</g>
<!-- Node3&#45;&gt;Node2 -->
<g id="edge2" class="edge"><title>Node3&#45;&gt;Node2</title>
<path fill="none" stroke="midnightblue" d="M76.5282,-527.242C75.5025,-518.133 74.6051,-508.828 74,-500 69.5363,-434.872 69.0355,-360.721 69.51,-306.547"/>
<polygon fill="none" stroke="midnightblue" points="73.0803,-527.889 77.7321,-537.408 80.0317,-527.066 73.0803,-527.889"/>
</g>
<!-- Node4 -->
<g id="node4" class="node"><title>Node4</title>
<g id="a_node4"><a xlink:href="class_i_n_m_o_s_t_1_1shell__expression.html" target="_top" xlink:title="{INMOST::shell_expression\l\&lt; Derived \&gt;\n||+ shell_expression()\l+ shell_expression()\l+ GetValue()\l+ GetDerivative()\l+ GetDerivative()\l+ operator Derived &amp;()\l+ operator const Derived &amp;()\l}">
<polygon fill="none" stroke="black" points="83,-365.5 83,-499.5 221,-499.5 221,-365.5 83,-365.5"/>
<text text-anchor="start" x="91" y="-487.5" font-family="Helvetica,sans-Serif" font-size="10.00">INMOST::shell_expression</text>
<text text-anchor="middle" x="152" y="-476.5" font-family="Helvetica,sans-Serif" font-size="10.00">&lt; Derived &gt;</text>
<polyline fill="none" stroke="black" points="83,-469.5 221,-469.5 "/>
<text text-anchor="middle" x="152" y="-457.5" font-family="Helvetica,sans-Serif" font-size="10.00"> </text>
<polyline fill="none" stroke="black" points="83,-450.5 221,-450.5 "/>
<text text-anchor="start" x="91" y="-438.5" font-family="Helvetica,sans-Serif" font-size="10.00">+ shell_expression()</text>
<text text-anchor="start" x="91" y="-427.5" font-family="Helvetica,sans-Serif" font-size="10.00">+ shell_expression()</text>
<text text-anchor="start" x="91" y="-416.5" font-family="Helvetica,sans-Serif" font-size="10.00">+ GetValue()</text>
<text text-anchor="start" x="91" y="-405.5" font-family="Helvetica,sans-Serif" font-size="10.00">+ GetDerivative()</text>
<text text-anchor="start" x="91" y="-394.5" font-family="Helvetica,sans-Serif" font-size="10.00">+ GetDerivative()</text>
<text text-anchor="start" x="91" y="-383.5" font-family="Helvetica,sans-Serif" font-size="10.00">+ operator Derived &amp;()</text>
<text text-anchor="start" x="91" y="-372.5" font-family="Helvetica,sans-Serif" font-size="10.00">+ operator const Derived &amp;()</text>
</a>
</g>
</g>
<!-- Node3&#45;&gt;Node4 -->
<g id="edge4" class="edge"><title>Node3&#45;&gt;Node4</title>
<path fill="none" stroke="midnightblue" d="M110.879,-527.711C114.902,-518.494 119.079,-508.923 123.163,-499.568"/>
<polygon fill="none" stroke="midnightblue" points="107.546,-526.598 106.753,-537.163 113.961,-529.398 107.546,-526.598"/>
</g>
<!-- Node4&#45;&gt;Node2 -->
<g id="edge3" class="edge"><title>Node4&#45;&gt;Node2</title>
<path fill="none" stroke="orange" d="M121.722,-355.993C115.262,-339.882 108.431,-322.846 101.946,-306.674"/>
<polygon fill="orange" stroke="orange" points="118.507,-357.379 125.478,-365.358 125.004,-354.773 118.507,-357.379"/>
<text text-anchor="start" x="116" y="-339" font-family="Helvetica,sans-Serif" font-size="10.00"> &lt; pow_expression&lt; A,</text>
<text text-anchor="middle" x="166.5" y="-328" font-family="Helvetica,sans-Serif" font-size="10.00"> B &gt; &gt;</text>
</g>
</g>
</svg>
