<?xml version="1.0" encoding="UTF-8" standalone="no"?>
<!DOCTYPE svg PUBLIC "-//W3C//DTD SVG 1.1//EN"
 "http://www.w3.org/Graphics/SVG/1.1/DTD/svg11.dtd">
<!-- Generated by graphviz version 2.38.0 (20140413.2041)
 -->
<!-- Title: INMOST::stencil_expression::stencil_expression Pages: 1 -->
<svg width="310pt" height="66pt"
 viewBox="0.00 0.00 310.00 66.00" xmlns="http://www.w3.org/2000/svg" xmlns:xlink="http://www.w3.org/1999/xlink">
<g id="graph0" class="graph" transform="scale(1 1) rotate(0) translate(4 62)">
<title>INMOST::stencil_expression::stencil_expression</title>
<!-- Node1 -->
<g id="node1" class="node"><title>Node1</title>
<polygon fill="#bfbfbf" stroke="black" points="0,-14 0,-44 140,-44 140,-14 0,-14"/>
<text text-anchor="start" x="8" y="-32" font-family="Helvetica,sans-Serif" font-size="10.00">INMOST::stencil_expression</text>
<text text-anchor="middle" x="70" y="-21" font-family="Helvetica,sans-Serif" font-size="10.00">::stencil_expression</text>
</g>
<!-- Node2 -->
<g id="node2" class="node"><title>Node2</title>
<g id="a_node2"><a xlink:href="class_i_n_m_o_s_t_1_1dynarray.html#a95d4cabcea41ee216d2ccd310d04cd61" target="_top" xlink:title="INMOST::dynarray::begin">
<polygon fill="none" stroke="black" points="176,-38.5 176,-57.5 302,-57.5 302,-38.5 176,-38.5"/>
<text text-anchor="middle" x="239" y="-45.5" font-family="Helvetica,sans-Serif" font-size="10.00">INMOST::dynarray::begin</text>
</a>
</g>
</g>
<!-- Node1&#45;&gt;Node2 -->
<g id="edge1" class="edge"><title>Node1&#45;&gt;Node2</title>
<path fill="none" stroke="midnightblue" d="M140.372,-36.8926C148.718,-37.8422 157.258,-38.8138 165.646,-39.7681"/>
<polygon fill="midnightblue" stroke="midnightblue" points="165.446,-43.2678 175.777,-40.9208 166.237,-36.3127 165.446,-43.2678"/>
</g>
<!-- Node3 -->
<g id="node3" class="node"><title>Node3</title>
<g id="a_node3"><a xlink:href="class_i_n_m_o_s_t_1_1dynarray.html#ad3e9af27a79aa4c5a57635546091a33d" target="_top" xlink:title="INMOST::dynarray::end">
<polygon fill="none" stroke="black" points="179.5,-0.5 179.5,-19.5 298.5,-19.5 298.5,-0.5 179.5,-0.5"/>
<text text-anchor="middle" x="239" y="-7.5" font-family="Helvetica,sans-Serif" font-size="10.00">INMOST::dynarray::end</text>
</a>
</g>
</g>
<!-- Node1&#45;&gt;Node3 -->
<g id="edge2" class="edge"><title>Node1&#45;&gt;Node3</title>
<path fill="none" stroke="midnightblue" d="M140.372,-21.1074C149.915,-20.0217 159.711,-18.9071 169.243,-17.8227"/>
<polygon fill="midnightblue" stroke="midnightblue" points="169.917,-21.2687 179.457,-16.6606 169.125,-14.3136 169.917,-21.2687"/>
</g>
</g>
</svg>
