<?xml version="1.0" encoding="UTF-8" standalone="no"?>
<!DOCTYPE svg PUBLIC "-//W3C//DTD SVG 1.1//EN"
 "http://www.w3.org/Graphics/SVG/1.1/DTD/svg11.dtd">
<!-- Generated by graphviz version 2.38.0 (20140413.2041)
 -->
<!-- Title: INMOST::Mesh::BulkDFComparator::operator() Pages: 1 -->
<svg width="338pt" height="66pt"
 viewBox="0.00 0.00 338.00 66.00" xmlns="http://www.w3.org/2000/svg" xmlns:xlink="http://www.w3.org/1999/xlink">
<g id="graph0" class="graph" transform="scale(1 1) rotate(0) translate(4 62)">
<title>INMOST::Mesh::BulkDFComparator::operator()</title>
<!-- Node1 -->
<g id="node1" class="node"><title>Node1</title>
<polygon fill="#bfbfbf" stroke="black" points="0,-14 0,-44 172,-44 172,-14 0,-14"/>
<text text-anchor="start" x="8" y="-32" font-family="Helvetica,sans-Serif" font-size="10.00">INMOST::Mesh::BulkDFComparator</text>
<text text-anchor="middle" x="86" y="-21" font-family="Helvetica,sans-Serif" font-size="10.00">::operator()</text>
</g>
<!-- Node2 -->
<g id="node2" class="node"><title>Node2</title>
<g id="a_node2"><a xlink:href="namespace_i_n_m_o_s_t.html#a115b3e54c3b7be04ffec9b69c058df18" target="_top" xlink:title="INMOST::InvalidHandle">
<polygon fill="none" stroke="black" points="211,-38.5 211,-57.5 327,-57.5 327,-38.5 211,-38.5"/>
<text text-anchor="middle" x="269" y="-45.5" font-family="Helvetica,sans-Serif" font-size="10.00">INMOST::InvalidHandle</text>
</a>
</g>
</g>
<!-- Node1&#45;&gt;Node2 -->
<g id="edge1" class="edge"><title>Node1&#45;&gt;Node2</title>
<path fill="none" stroke="midnightblue" d="M172.2,-37.9436C181.829,-38.9544 191.538,-39.9736 200.89,-40.9553"/>
<polygon fill="midnightblue" stroke="midnightblue" points="200.565,-44.4404 210.876,-42.0036 201.296,-37.4786 200.565,-44.4404"/>
</g>
<!-- Node3 -->
<g id="node3" class="node"><title>Node3</title>
<g id="a_node3"><a xlink:href="class_i_n_m_o_s_t_1_1_mesh.html#a88229181252531147051badf5a05e263" target="_top" xlink:title="INMOST::Mesh::BulkDF">
<polygon fill="none" stroke="black" points="208,-0.5 208,-19.5 330,-19.5 330,-0.5 208,-0.5"/>
<text text-anchor="middle" x="269" y="-7.5" font-family="Helvetica,sans-Serif" font-size="10.00">INMOST::Mesh::BulkDF</text>
</a>
</g>
</g>
<!-- Node1&#45;&gt;Node3 -->
<g id="edge2" class="edge"><title>Node1&#45;&gt;Node3</title>
<path fill="none" stroke="midnightblue" d="M172.2,-20.0564C180.739,-19.16 189.342,-18.2569 197.702,-17.3793"/>
<polygon fill="midnightblue" stroke="midnightblue" points="198.179,-20.8486 207.759,-16.3236 197.448,-13.8868 198.179,-20.8486"/>
</g>
</g>
</svg>
