<?xml version="1.0" encoding="UTF-8" standalone="no"?>
<!DOCTYPE svg PUBLIC "-//W3C//DTD SVG 1.1//EN"
 "http://www.w3.org/Graphics/SVG/1.1/DTD/svg11.dtd">
<!-- Generated by graphviz version 2.38.0 (20140413.2041)
 -->
<!-- Title: INMOST::Sparse::Row::End Pages: 1 -->
<svg width="503pt" height="480pt"
 viewBox="0.00 0.00 503.00 480.00" xmlns="http://www.w3.org/2000/svg" xmlns:xlink="http://www.w3.org/1999/xlink">
<g id="graph0" class="graph" transform="scale(1 1) rotate(0) translate(4 476)">
<title>INMOST::Sparse::Row::End</title>
<!-- Node1 -->
<g id="node1" class="node"><title>Node1</title>
<polygon fill="#bfbfbf" stroke="black" points="0,-226 0,-245 138,-245 138,-226 0,-226"/>
<text text-anchor="middle" x="69" y="-233" font-family="Helvetica,sans-Serif" font-size="10.00">INMOST::Sparse::Row::End</text>
</g>
<!-- Node2 -->
<g id="node2" class="node"><title>Node2</title>
<g id="a_node2"><a xlink:href="class_i_n_m_o_s_t_1_1multivar__expression.html#ae04c6994f03f6e11c92987e07388caa7" target="_top" xlink:title="INMOST::multivar_expression\l::GetDerivative">
<polygon fill="none" stroke="black" points="174,-441.5 174,-471.5 319,-471.5 319,-441.5 174,-441.5"/>
<text text-anchor="start" x="182" y="-459.5" font-family="Helvetica,sans-Serif" font-size="10.00">INMOST::multivar_expression</text>
<text text-anchor="middle" x="246.5" y="-448.5" font-family="Helvetica,sans-Serif" font-size="10.00">::GetDerivative</text>
</a>
</g>
</g>
<!-- Node1&#45;&gt;Node2 -->
<g id="edge1" class="edge"><title>Node1&#45;&gt;Node2</title>
<path fill="none" stroke="midnightblue" d="M75.0085,-255.037C86.0835,-294.367 116.356,-383.507 174,-432.5 177.991,-435.892 182.48,-438.81 187.215,-441.319"/>
<polygon fill="midnightblue" stroke="midnightblue" points="78.3754,-254.08 72.3871,-245.34 71.618,-255.906 78.3754,-254.08"/>
</g>
<!-- Node3 -->
<g id="node3" class="node"><title>Node3</title>
<g id="a_node3"><a xlink:href="class_i_n_m_o_s_t_1_1multivar__expression.html#aa8201a6a63329890bde0e8ddc37dc780" target="_top" xlink:title="INMOST::multivar_expression\l::operator*=">
<polygon fill="none" stroke="black" points="174,-392.5 174,-422.5 319,-422.5 319,-392.5 174,-392.5"/>
<text text-anchor="start" x="182" y="-410.5" font-family="Helvetica,sans-Serif" font-size="10.00">INMOST::multivar_expression</text>
<text text-anchor="middle" x="246.5" y="-399.5" font-family="Helvetica,sans-Serif" font-size="10.00">::operator*=</text>
</a>
</g>
</g>
<!-- Node1&#45;&gt;Node3 -->
<g id="edge2" class="edge"><title>Node1&#45;&gt;Node3</title>
<path fill="none" stroke="midnightblue" d="M78.3651,-254.368C93.1807,-285.681 126.965,-348.403 174,-383.5 178.617,-386.945 183.76,-389.916 189.11,-392.472"/>
<polygon fill="midnightblue" stroke="midnightblue" points="81.4331,-252.662 74.0762,-245.038 75.0729,-255.586 81.4331,-252.662"/>
</g>
<!-- Node4 -->
<g id="node4" class="node"><title>Node4</title>
<g id="a_node4"><a xlink:href="class_i_n_m_o_s_t_1_1multivar__expression.html#ad1e7513f547145312c4da1ae5aff2c62" target="_top" xlink:title="INMOST::multivar_expression\l::operator/=">
<polygon fill="none" stroke="black" points="174,-343.5 174,-373.5 319,-373.5 319,-343.5 174,-343.5"/>
<text text-anchor="start" x="182" y="-361.5" font-family="Helvetica,sans-Serif" font-size="10.00">INMOST::multivar_expression</text>
<text text-anchor="middle" x="246.5" y="-350.5" font-family="Helvetica,sans-Serif" font-size="10.00">::operator/=</text>
</a>
</g>
</g>
<!-- Node1&#45;&gt;Node4 -->
<g id="edge3" class="edge"><title>Node1&#45;&gt;Node4</title>
<path fill="none" stroke="midnightblue" d="M84.0493,-252.941C102.541,-274.842 137.055,-312.238 174,-334.5 179.608,-337.879 185.752,-340.854 192.01,-343.453"/>
<polygon fill="midnightblue" stroke="midnightblue" points="86.6381,-250.579 77.5643,-245.11 81.2467,-255.044 86.6381,-250.579"/>
</g>
<!-- Node5 -->
<g id="node5" class="node"><title>Node5</title>
<g id="a_node5"><a xlink:href="class_i_n_m_o_s_t_1_1multivar__expression.html#a1c15ad7bf3f378471f911fc1e60f8a3b" target="_top" xlink:title="INMOST::multivar_expression\l::check_nans">
<polygon fill="none" stroke="black" points="174,-294.5 174,-324.5 319,-324.5 319,-294.5 174,-294.5"/>
<text text-anchor="start" x="182" y="-312.5" font-family="Helvetica,sans-Serif" font-size="10.00">INMOST::multivar_expression</text>
<text text-anchor="middle" x="246.5" y="-301.5" font-family="Helvetica,sans-Serif" font-size="10.00">::check_nans</text>
</a>
</g>
</g>
<!-- Node1&#45;&gt;Node5 -->
<g id="edge4" class="edge"><title>Node1&#45;&gt;Node5</title>
<path fill="none" stroke="midnightblue" d="M97.2554,-249.754C117.994,-260.316 147.403,-274.691 174,-285.5 181.642,-288.606 189.853,-291.636 197.89,-294.441"/>
<polygon fill="midnightblue" stroke="midnightblue" points="98.5947,-246.507 88.1003,-245.052 95.3967,-252.734 98.5947,-246.507"/>
</g>
<!-- Node7 -->
<g id="node7" class="node"><title>Node7</title>
<g id="a_node7"><a xlink:href="class_i_n_m_o_s_t_1_1_sparse_1_1_row.html#ae9bef525df99c619d6d40896c27bc5db" target="_top" xlink:title="Set the vector entries by zeroes. ">
<polygon fill="none" stroke="black" points="189,-245.5 189,-275.5 304,-275.5 304,-245.5 189,-245.5"/>
<text text-anchor="start" x="197" y="-263.5" font-family="Helvetica,sans-Serif" font-size="10.00">INMOST::Sparse::Row</text>
<text text-anchor="middle" x="246.5" y="-252.5" font-family="Helvetica,sans-Serif" font-size="10.00">::Zero</text>
</a>
</g>
</g>
<!-- Node1&#45;&gt;Node7 -->
<g id="edge6" class="edge"><title>Node1&#45;&gt;Node7</title>
<path fill="none" stroke="midnightblue" d="M147.004,-246.469C161.069,-248.473 175.509,-250.53 188.847,-252.43"/>
<polygon fill="midnightblue" stroke="midnightblue" points="147.243,-242.968 136.85,-245.023 146.256,-249.898 147.243,-242.968"/>
</g>
<!-- Node8 -->
<g id="node8" class="node"><title>Node8</title>
<g id="a_node8"><a xlink:href="class_i_n_m_o_s_t_1_1_sparse_1_1_row.html#add923d14e340862a8b6e71a8d0704596" target="_top" xlink:title="INMOST::Sparse::Row\l::Print">
<polygon fill="none" stroke="black" points="189,-196.5 189,-226.5 304,-226.5 304,-196.5 189,-196.5"/>
<text text-anchor="start" x="197" y="-214.5" font-family="Helvetica,sans-Serif" font-size="10.00">INMOST::Sparse::Row</text>
<text text-anchor="middle" x="246.5" y="-203.5" font-family="Helvetica,sans-Serif" font-size="10.00">::Print</text>
</a>
</g>
</g>
<!-- Node1&#45;&gt;Node8 -->
<g id="edge7" class="edge"><title>Node1&#45;&gt;Node8</title>
<path fill="none" stroke="midnightblue" d="M148.023,-224.83C161.75,-222.953 175.799,-221.032 188.803,-219.253"/>
<polygon fill="midnightblue" stroke="midnightblue" points="147.538,-221.364 138.104,-226.187 148.486,-228.299 147.538,-221.364"/>
</g>
<!-- Node9 -->
<g id="node9" class="node"><title>Node9</title>
<g id="a_node9"><a xlink:href="class_i_n_m_o_s_t_1_1enhanced__multivar__expression.html#a458567eb465bc407ef959ec2d1150630" target="_top" xlink:title="INMOST::enhanced_multivar\l_expression::GetDerivative">
<polygon fill="none" stroke="black" points="176.5,-147.5 176.5,-177.5 316.5,-177.5 316.5,-147.5 176.5,-147.5"/>
<text text-anchor="start" x="184.5" y="-165.5" font-family="Helvetica,sans-Serif" font-size="10.00">INMOST::enhanced_multivar</text>
<text text-anchor="middle" x="246.5" y="-154.5" font-family="Helvetica,sans-Serif" font-size="10.00">_expression::GetDerivative</text>
</a>
</g>
</g>
<!-- Node1&#45;&gt;Node9 -->
<g id="edge8" class="edge"><title>Node1&#45;&gt;Node9</title>
<path fill="none" stroke="midnightblue" d="M98.4952,-221.448C119.214,-211.453 148.06,-197.993 174,-187.5 182.411,-184.098 191.483,-180.713 200.247,-177.584"/>
<polygon fill="midnightblue" stroke="midnightblue" points="96.7728,-218.394 89.3066,-225.911 99.8309,-224.69 96.7728,-218.394"/>
</g>
<!-- Node11 -->
<g id="node11" class="node"><title>Node11</title>
<g id="a_node11"><a xlink:href="class_i_n_m_o_s_t_1_1enhanced__multivar__expression.html#a3b2f3e3370ce1626b30e837b517dffb3" target="_top" xlink:title="INMOST::enhanced_multivar\l_expression::operator*=">
<polygon fill="none" stroke="black" points="176.5,-98.5 176.5,-128.5 316.5,-128.5 316.5,-98.5 176.5,-98.5"/>
<text text-anchor="start" x="184.5" y="-116.5" font-family="Helvetica,sans-Serif" font-size="10.00">INMOST::enhanced_multivar</text>
<text text-anchor="middle" x="246.5" y="-105.5" font-family="Helvetica,sans-Serif" font-size="10.00">_expression::operator*=</text>
</a>
</g>
</g>
<!-- Node1&#45;&gt;Node11 -->
<g id="edge10" class="edge"><title>Node1&#45;&gt;Node11</title>
<path fill="none" stroke="midnightblue" d="M84.4549,-218.171C103.14,-196.761 137.621,-160.479 174,-138.5 180.19,-134.76 187.021,-131.473 193.931,-128.617"/>
<polygon fill="midnightblue" stroke="midnightblue" points="81.7303,-215.972 77.8814,-225.843 87.0459,-220.527 81.7303,-215.972"/>
</g>
<!-- Node12 -->
<g id="node12" class="node"><title>Node12</title>
<g id="a_node12"><a xlink:href="class_i_n_m_o_s_t_1_1enhanced__multivar__expression.html#a6c1a779ec33e595aca0b7279ba36b59f" target="_top" xlink:title="INMOST::enhanced_multivar\l_expression::operator/=">
<polygon fill="none" stroke="black" points="176.5,-49.5 176.5,-79.5 316.5,-79.5 316.5,-49.5 176.5,-49.5"/>
<text text-anchor="start" x="184.5" y="-67.5" font-family="Helvetica,sans-Serif" font-size="10.00">INMOST::enhanced_multivar</text>
<text text-anchor="middle" x="246.5" y="-56.5" font-family="Helvetica,sans-Serif" font-size="10.00">_expression::operator/=</text>
</a>
</g>
</g>
<!-- Node1&#45;&gt;Node12 -->
<g id="edge11" class="edge"><title>Node1&#45;&gt;Node12</title>
<path fill="none" stroke="midnightblue" d="M78.6151,-216.309C93.5912,-185.061 127.347,-123.196 174,-88.5 178.623,-85.0619 183.769,-82.0967 189.122,-79.5433"/>
<polygon fill="midnightblue" stroke="midnightblue" points="75.3143,-215.107 74.2648,-225.649 81.6598,-218.062 75.3143,-215.107"/>
</g>
<!-- Node13 -->
<g id="node13" class="node"><title>Node13</title>
<g id="a_node13"><a xlink:href="class_i_n_m_o_s_t_1_1enhanced__multivar__expression.html#aeb6a84957da4c24c21a594a26e8f2d54" target="_top" xlink:title="INMOST::enhanced_multivar\l_expression::check_nans">
<polygon fill="none" stroke="black" points="176.5,-0.5 176.5,-30.5 316.5,-30.5 316.5,-0.5 176.5,-0.5"/>
<text text-anchor="start" x="184.5" y="-18.5" font-family="Helvetica,sans-Serif" font-size="10.00">INMOST::enhanced_multivar</text>
<text text-anchor="middle" x="246.5" y="-7.5" font-family="Helvetica,sans-Serif" font-size="10.00">_expression::check_nans</text>
</a>
</g>
</g>
<!-- Node1&#45;&gt;Node13 -->
<g id="edge12" class="edge"><title>Node1&#45;&gt;Node13</title>
<path fill="none" stroke="midnightblue" d="M75.0381,-216.061C86.1671,-176.929 116.534,-88.2385 174,-39.5 178.094,-36.0276 182.711,-33.0518 187.578,-30.5027"/>
<polygon fill="midnightblue" stroke="midnightblue" points="71.6613,-215.141 72.4028,-225.71 78.414,-216.985 71.6613,-215.141"/>
</g>
<!-- Node6 -->
<g id="node6" class="node"><title>Node6</title>
<g id="a_node6"><a xlink:href="namespace_i_n_m_o_s_t.html#a974d31acc486b8730a2d83297381877a" target="_top" xlink:title="INMOST::check_nans">
<polygon fill="none" stroke="black" points="369,-300 369,-319 481,-319 481,-300 369,-300"/>
<text text-anchor="middle" x="425" y="-307" font-family="Helvetica,sans-Serif" font-size="10.00">INMOST::check_nans</text>
</a>
</g>
</g>
<!-- Node5&#45;&gt;Node6 -->
<g id="edge5" class="edge"><title>Node5&#45;&gt;Node6</title>
<path fill="none" stroke="midnightblue" d="M329.248,-309.5C342.682,-309.5 356.318,-309.5 368.902,-309.5"/>
<polygon fill="midnightblue" stroke="midnightblue" points="329.035,-306 319.035,-309.5 329.035,-313 329.035,-306"/>
</g>
<!-- Node10 -->
<g id="node10" class="node"><title>Node10</title>
<g id="a_node10"><a xlink:href="class_i_n_m_o_s_t_1_1enhanced__multivar__expression.html#a677fecf4942068b4c579c190b52dc409" target="_top" xlink:title="INMOST::enhanced_multivar\l_expression::GetDerivative">
<polygon fill="none" stroke="black" points="355,-147.5 355,-177.5 495,-177.5 495,-147.5 355,-147.5"/>
<text text-anchor="start" x="363" y="-165.5" font-family="Helvetica,sans-Serif" font-size="10.00">INMOST::enhanced_multivar</text>
<text text-anchor="middle" x="425" y="-154.5" font-family="Helvetica,sans-Serif" font-size="10.00">_expression::GetDerivative</text>
</a>
</g>
</g>
<!-- Node9&#45;&gt;Node10 -->
<g id="edge9" class="edge"><title>Node9&#45;&gt;Node10</title>
<path fill="none" stroke="midnightblue" d="M326.849,-162.5C336.223,-162.5 345.733,-162.5 354.949,-162.5"/>
<polygon fill="midnightblue" stroke="midnightblue" points="326.751,-159 316.751,-162.5 326.751,-166 326.751,-159"/>
</g>
<!-- Node14 -->
<g id="node14" class="node"><title>Node14</title>
<g id="a_node14"><a xlink:href="namespace_i_n_m_o_s_t.html#a22eaa3c4a301d2df158a997642f3e5d6" target="_top" xlink:title="INMOST::check_nans">
<polygon fill="none" stroke="black" points="369,-6 369,-25 481,-25 481,-6 369,-6"/>
<text text-anchor="middle" x="425" y="-13" font-family="Helvetica,sans-Serif" font-size="10.00">INMOST::check_nans</text>
</a>
</g>
</g>
<!-- Node13&#45;&gt;Node14 -->
<g id="edge13" class="edge"><title>Node13&#45;&gt;Node14</title>
<path fill="none" stroke="midnightblue" d="M326.976,-15.5C341.121,-15.5 355.57,-15.5 368.849,-15.5"/>
<polygon fill="midnightblue" stroke="midnightblue" points="326.751,-12.0001 316.751,-15.5 326.751,-19.0001 326.751,-12.0001"/>
</g>
</g>
</svg>
