<?xml version="1.0" encoding="UTF-8" standalone="no"?>
<!DOCTYPE svg PUBLIC "-//W3C//DTD SVG 1.1//EN"
 "http://www.w3.org/Graphics/SVG/1.1/DTD/svg11.dtd">
<!-- Generated by graphviz version 2.38.0 (20140413.2041)
 -->
<!-- Title: INMOST::interval::empty Pages: 1 -->
<svg width="291pt" height="88pt"
 viewBox="0.00 0.00 291.00 88.00" xmlns="http://www.w3.org/2000/svg" xmlns:xlink="http://www.w3.org/1999/xlink">
<g id="graph0" class="graph" transform="scale(1 1) rotate(0) translate(4 84)">
<title>INMOST::interval::empty</title>
<!-- Node1 -->
<g id="node1" class="node"><title>Node1</title>
<polygon fill="#bfbfbf" stroke="black" points="0,-30 0,-49 122,-49 122,-30 0,-30"/>
<text text-anchor="middle" x="61" y="-37" font-family="Helvetica,sans-Serif" font-size="10.00">INMOST::interval::empty</text>
</g>
<!-- Node2 -->
<g id="node2" class="node"><title>Node2</title>
<g id="a_node2"><a xlink:href="class_i_n_m_o_s_t_1_1_sparse_1_1_vector.html#aa3159404bde718edaddd5be27b9b03ab" target="_top" xlink:title="INMOST::Sparse::Vector\l::Empty">
<polygon fill="none" stroke="black" points="158,-49.5 158,-79.5 283,-79.5 283,-49.5 158,-49.5"/>
<text text-anchor="start" x="166" y="-67.5" font-family="Helvetica,sans-Serif" font-size="10.00">INMOST::Sparse::Vector</text>
<text text-anchor="middle" x="220.5" y="-56.5" font-family="Helvetica,sans-Serif" font-size="10.00">::Empty</text>
</a>
</g>
</g>
<!-- Node1&#45;&gt;Node2 -->
<g id="edge1" class="edge"><title>Node1&#45;&gt;Node2</title>
<path fill="none" stroke="midnightblue" d="M132.01,-50.6128C140.62,-51.9794 149.371,-53.3684 157.844,-54.7134"/>
<polygon fill="midnightblue" stroke="midnightblue" points="132.418,-47.1338 121.993,-49.0227 131.321,-54.0472 132.418,-47.1338"/>
</g>
<!-- Node3 -->
<g id="node3" class="node"><title>Node3</title>
<g id="a_node3"><a xlink:href="class_i_n_m_o_s_t_1_1_sparse_1_1_matrix.html#a307fa45743596d7e9d6bd216174115ea" target="_top" xlink:title="INMOST::Sparse::Matrix\l::Empty">
<polygon fill="none" stroke="black" points="159,-0.5 159,-30.5 282,-30.5 282,-0.5 159,-0.5"/>
<text text-anchor="start" x="167" y="-18.5" font-family="Helvetica,sans-Serif" font-size="10.00">INMOST::Sparse::Matrix</text>
<text text-anchor="middle" x="220.5" y="-7.5" font-family="Helvetica,sans-Serif" font-size="10.00">::Empty</text>
</a>
</g>
</g>
<!-- Node1&#45;&gt;Node3 -->
<g id="edge2" class="edge"><title>Node1&#45;&gt;Node3</title>
<path fill="none" stroke="midnightblue" d="M132.373,-28.7765C141.244,-27.4247 150.258,-26.0512 158.958,-24.7254"/>
<polygon fill="midnightblue" stroke="midnightblue" points="131.802,-25.323 122.443,-30.2896 132.856,-32.2432 131.802,-25.323"/>
</g>
</g>
</svg>
