<?xml version="1.0" encoding="UTF-8" standalone="no"?>
<!DOCTYPE svg PUBLIC "-//W3C//DTD SVG 1.1//EN"
 "http://www.w3.org/Graphics/SVG/1.1/DTD/svg11.dtd">
<!-- Generated by graphviz version 2.38.0 (20140413.2041)
 -->
<!-- Title: INMOST::dynarray::clear Pages: 1 -->
<svg width="475pt" height="151pt"
 viewBox="0.00 0.00 475.00 150.50" xmlns="http://www.w3.org/2000/svg" xmlns:xlink="http://www.w3.org/1999/xlink">
<g id="graph0" class="graph" transform="scale(1 1) rotate(0) translate(4 146.5)">
<title>INMOST::dynarray::clear</title>
<!-- Node1 -->
<g id="node1" class="node"><title>Node1</title>
<polygon fill="#bfbfbf" stroke="black" points="0,-79 0,-98 124,-98 124,-79 0,-79"/>
<text text-anchor="middle" x="62" y="-86" font-family="Helvetica,sans-Serif" font-size="10.00">INMOST::dynarray::clear</text>
</g>
<!-- Node2 -->
<g id="node2" class="node"><title>Node2</title>
<g id="a_node2"><a xlink:href="class_i_n_m_o_s_t_1_1tiny__map.html#a0a611121f5481b03a9aedce754cfe5e1" target="_top" xlink:title="INMOST::tiny_map::clear">
<polygon fill="none" stroke="black" points="160,-123 160,-142 286,-142 286,-123 160,-123"/>
<text text-anchor="middle" x="223" y="-130" font-family="Helvetica,sans-Serif" font-size="10.00">INMOST::tiny_map::clear</text>
</a>
</g>
</g>
<!-- Node1&#45;&gt;Node2 -->
<g id="edge1" class="edge"><title>Node1&#45;&gt;Node2</title>
<path fill="none" stroke="midnightblue" d="M107.259,-100.748C132.644,-107.772 164.037,-116.46 187.567,-122.971"/>
<polygon fill="midnightblue" stroke="midnightblue" points="108.072,-97.3413 97.5006,-98.0473 106.205,-104.088 108.072,-97.3413"/>
</g>
<!-- Node3 -->
<g id="node3" class="node"><title>Node3</title>
<g id="a_node3"><a xlink:href="class_i_n_m_o_s_t_1_1_element_array.html#a7c3360a81dcd3f9aaf8f3e103cc78c14" target="_top" xlink:title="INMOST::ElementArray\l::clear">
<polygon fill="none" stroke="black" points="163.5,-73.5 163.5,-103.5 282.5,-103.5 282.5,-73.5 163.5,-73.5"/>
<text text-anchor="start" x="171.5" y="-91.5" font-family="Helvetica,sans-Serif" font-size="10.00">INMOST::ElementArray</text>
<text text-anchor="middle" x="223" y="-80.5" font-family="Helvetica,sans-Serif" font-size="10.00">::clear</text>
</a>
</g>
</g>
<!-- Node1&#45;&gt;Node3 -->
<g id="edge2" class="edge"><title>Node1&#45;&gt;Node3</title>
<path fill="none" stroke="midnightblue" d="M134.156,-88.5C143.968,-88.5 153.952,-88.5 163.5,-88.5"/>
<polygon fill="midnightblue" stroke="midnightblue" points="134.019,-85.0001 124.019,-88.5 134.019,-92.0001 134.019,-85.0001"/>
</g>
<!-- Node4 -->
<g id="node4" class="node"><title>Node4</title>
<g id="a_node4"><a xlink:href="class_i_n_m_o_s_t_1_1_sparse_1_1_row.html#a23548b22ff9bdcdace097099be3d6324" target="_top" xlink:title="Clear all data of the current row. ">
<polygon fill="none" stroke="black" points="165.5,-24.5 165.5,-54.5 280.5,-54.5 280.5,-24.5 165.5,-24.5"/>
<text text-anchor="start" x="173.5" y="-42.5" font-family="Helvetica,sans-Serif" font-size="10.00">INMOST::Sparse::Row</text>
<text text-anchor="middle" x="223" y="-31.5" font-family="Helvetica,sans-Serif" font-size="10.00">::Clear</text>
</a>
</g>
</g>
<!-- Node1&#45;&gt;Node4 -->
<g id="edge3" class="edge"><title>Node1&#45;&gt;Node4</title>
<path fill="none" stroke="midnightblue" d="M103.7,-75.9574C124.886,-69.4281 150.944,-61.3976 173.207,-54.537"/>
<polygon fill="midnightblue" stroke="midnightblue" points="102.56,-72.6461 94.0343,-78.936 104.622,-79.3356 102.56,-72.6461"/>
</g>
<!-- Node5 -->
<g id="node5" class="node"><title>Node5</title>
<g id="a_node5"><a xlink:href="class_i_n_m_o_s_t_1_1multivar__expression.html#ab193d7b129e128ee315befc8aace2d2a" target="_top" xlink:title="INMOST::multivar_expression\l::operator=">
<polygon fill="none" stroke="black" points="322,-49.5 322,-79.5 467,-79.5 467,-49.5 322,-49.5"/>
<text text-anchor="start" x="330" y="-67.5" font-family="Helvetica,sans-Serif" font-size="10.00">INMOST::multivar_expression</text>
<text text-anchor="middle" x="394.5" y="-56.5" font-family="Helvetica,sans-Serif" font-size="10.00">::operator=</text>
</a>
</g>
</g>
<!-- Node4&#45;&gt;Node5 -->
<g id="edge4" class="edge"><title>Node4&#45;&gt;Node5</title>
<path fill="none" stroke="midnightblue" d="M290.961,-49.3762C301.152,-50.8793 311.702,-52.4354 321.986,-53.9522"/>
<polygon fill="midnightblue" stroke="midnightblue" points="291.316,-45.8909 280.913,-47.8942 290.295,-52.816 291.316,-45.8909"/>
</g>
<!-- Node6 -->
<g id="node6" class="node"><title>Node6</title>
<g id="a_node6"><a xlink:href="class_i_n_m_o_s_t_1_1enhanced__multivar__expression.html#af3cbe38e61e5a6aef0cb3b3789a6ee1e" target="_top" xlink:title="INMOST::enhanced_multivar\l_expression::operator=">
<polygon fill="none" stroke="black" points="324.5,-0.5 324.5,-30.5 464.5,-30.5 464.5,-0.5 324.5,-0.5"/>
<text text-anchor="start" x="332.5" y="-18.5" font-family="Helvetica,sans-Serif" font-size="10.00">INMOST::enhanced_multivar</text>
<text text-anchor="middle" x="394.5" y="-7.5" font-family="Helvetica,sans-Serif" font-size="10.00">_expression::operator=</text>
</a>
</g>
</g>
<!-- Node4&#45;&gt;Node6 -->
<g id="edge5" class="edge"><title>Node4&#45;&gt;Node6</title>
<path fill="none" stroke="midnightblue" d="M290.882,-30.03C301.891,-28.4712 313.321,-26.8528 324.383,-25.2865"/>
<polygon fill="midnightblue" stroke="midnightblue" points="290.323,-26.5741 280.913,-31.4416 291.305,-33.505 290.323,-26.5741"/>
</g>
</g>
</svg>
