<?xml version="1.0" encoding="UTF-8" standalone="no"?>
<!DOCTYPE svg PUBLIC "-//W3C//DTD SVG 1.1//EN"
 "http://www.w3.org/Graphics/SVG/1.1/DTD/svg11.dtd">
<!-- Generated by graphviz version 2.38.0 (20140413.2041)
 -->
<!-- Title: INMOST::interval::size Pages: 1 -->
<svg width="282pt" height="88pt"
 viewBox="0.00 0.00 282.00 88.00" xmlns="http://www.w3.org/2000/svg" xmlns:xlink="http://www.w3.org/1999/xlink">
<g id="graph0" class="graph" transform="scale(1 1) rotate(0) translate(4 84)">
<title>INMOST::interval::size</title>
<!-- Node1 -->
<g id="node1" class="node"><title>Node1</title>
<polygon fill="#bfbfbf" stroke="black" points="0,-30 0,-49 113,-49 113,-30 0,-30"/>
<text text-anchor="middle" x="56.5" y="-37" font-family="Helvetica,sans-Serif" font-size="10.00">INMOST::interval::size</text>
</g>
<!-- Node2 -->
<g id="node2" class="node"><title>Node2</title>
<g id="a_node2"><a xlink:href="class_i_n_m_o_s_t_1_1_sparse_1_1_vector.html#a00125d15da0caa574b90da79ea2388ae" target="_top" xlink:title="Return the global size of the vector. ">
<polygon fill="none" stroke="black" points="149,-49.5 149,-79.5 274,-79.5 274,-49.5 149,-49.5"/>
<text text-anchor="start" x="157" y="-67.5" font-family="Helvetica,sans-Serif" font-size="10.00">INMOST::Sparse::Vector</text>
<text text-anchor="middle" x="211.5" y="-56.5" font-family="Helvetica,sans-Serif" font-size="10.00">::Size</text>
</a>
</g>
</g>
<!-- Node1&#45;&gt;Node2 -->
<g id="edge1" class="edge"><title>Node1&#45;&gt;Node2</title>
<path fill="none" stroke="midnightblue" d="M123.112,-50.2209C131.677,-51.6204 140.428,-53.0503 148.924,-54.4385"/>
<polygon fill="midnightblue" stroke="midnightblue" points="123.603,-46.7548 113.169,-48.5963 122.474,-53.6632 123.603,-46.7548"/>
</g>
<!-- Node3 -->
<g id="node3" class="node"><title>Node3</title>
<g id="a_node3"><a xlink:href="class_i_n_m_o_s_t_1_1_sparse_1_1_matrix.html#a75da28c3abfd68a8d8be7db2f4cbef39" target="_top" xlink:title="Return the total number of rows in the matrix. ">
<polygon fill="none" stroke="black" points="150,-0.5 150,-30.5 273,-30.5 273,-0.5 150,-0.5"/>
<text text-anchor="start" x="158" y="-18.5" font-family="Helvetica,sans-Serif" font-size="10.00">INMOST::Sparse::Matrix</text>
<text text-anchor="middle" x="211.5" y="-7.5" font-family="Helvetica,sans-Serif" font-size="10.00">::Size</text>
</a>
</g>
</g>
<!-- Node1&#45;&gt;Node3 -->
<g id="edge2" class="edge"><title>Node1&#45;&gt;Node3</title>
<path fill="none" stroke="midnightblue" d="M123.12,-29.2066C132.033,-27.8085 141.147,-26.3789 149.965,-24.9957"/>
<polygon fill="midnightblue" stroke="midnightblue" points="122.506,-25.7601 113.169,-30.7676 123.591,-32.6755 122.506,-25.7601"/>
</g>
</g>
</svg>
