<?xml version="1.0" encoding="UTF-8" standalone="no"?>
<!DOCTYPE svg PUBLIC "-//W3C//DTD SVG 1.1//EN"
 "http://www.w3.org/Graphics/SVG/1.1/DTD/svg11.dtd">
<!-- Generated by graphviz version 2.38.0 (20140413.2041)
 -->
<!-- Title: INMOST::dynamic_variable Pages: 1 -->
<svg width="297pt" height="884pt"
 viewBox="0.00 0.00 296.50 884.00" xmlns="http://www.w3.org/2000/svg" xmlns:xlink="http://www.w3.org/1999/xlink">
<g id="graph0" class="graph" transform="scale(1 1) rotate(0) translate(4 880)">
<title>INMOST::dynamic_variable</title>
<!-- Node1 -->
<g id="node1" class="node"><title>Node1</title>
<polygon fill="#bfbfbf" stroke="black" points="46.5,-0.5 46.5,-189.5 180.5,-189.5 180.5,-0.5 46.5,-0.5"/>
<text text-anchor="middle" x="113.5" y="-177.5" font-family="Helvetica,sans-Serif" font-size="10.00">INMOST::dynamic_variable</text>
<polyline fill="none" stroke="black" points="46.5,-170.5 180.5,-170.5 "/>
<text text-anchor="middle" x="113.5" y="-158.5" font-family="Helvetica,sans-Serif" font-size="10.00"> </text>
<polyline fill="none" stroke="black" points="46.5,-151.5 180.5,-151.5 "/>
<text text-anchor="start" x="54.5" y="-139.5" font-family="Helvetica,sans-Serif" font-size="10.00">+ dynamic_variable()</text>
<text text-anchor="start" x="54.5" y="-128.5" font-family="Helvetica,sans-Serif" font-size="10.00">+ dynamic_variable()</text>
<text text-anchor="start" x="54.5" y="-117.5" font-family="Helvetica,sans-Serif" font-size="10.00">+ operator=()</text>
<text text-anchor="start" x="54.5" y="-106.5" font-family="Helvetica,sans-Serif" font-size="10.00">+ Value()</text>
<text text-anchor="start" x="54.5" y="-95.5" font-family="Helvetica,sans-Serif" font-size="10.00">+ Index()</text>
<text text-anchor="start" x="54.5" y="-84.5" font-family="Helvetica,sans-Serif" font-size="10.00">+ Variable()</text>
<text text-anchor="start" x="54.5" y="-73.5" font-family="Helvetica,sans-Serif" font-size="10.00">+ Variable()</text>
<text text-anchor="start" x="54.5" y="-62.5" font-family="Helvetica,sans-Serif" font-size="10.00">+ operator[]()</text>
<text text-anchor="start" x="54.5" y="-51.5" font-family="Helvetica,sans-Serif" font-size="10.00">+ IndexTag()</text>
<text text-anchor="start" x="54.5" y="-40.5" font-family="Helvetica,sans-Serif" font-size="10.00">+ ValueTag()</text>
<text text-anchor="start" x="54.5" y="-29.5" font-family="Helvetica,sans-Serif" font-size="10.00">+ GetVariation()</text>
<text text-anchor="start" x="54.5" y="-18.5" font-family="Helvetica,sans-Serif" font-size="10.00">+ GetVariation()</text>
<text text-anchor="start" x="54.5" y="-7.5" font-family="Helvetica,sans-Serif" font-size="10.00">+ isUnknown()</text>
</g>
<!-- Node2 -->
<g id="node2" class="node"><title>Node2</title>
<g id="a_node2"><a xlink:href="class_i_n_m_o_s_t_1_1shell__dynamic__variable.html" target="_top" xlink:title="{INMOST::shell_dynamic\l_variable\&lt; var_expression,\l dynamic_variable \&gt;\n||+ Value()\l+ operator()()\l+ operator()()\l+ operator[]()\l+ GetVariation()\l+ GetVariation()\l}">
<polygon fill="none" stroke="black" points="48,-227.5 48,-361.5 179,-361.5 179,-227.5 48,-227.5"/>
<text text-anchor="start" x="56" y="-349.5" font-family="Helvetica,sans-Serif" font-size="10.00">INMOST::shell_dynamic</text>
<text text-anchor="start" x="56" y="-338.5" font-family="Helvetica,sans-Serif" font-size="10.00">_variable&lt; var_expression,</text>
<text text-anchor="middle" x="113.5" y="-327.5" font-family="Helvetica,sans-Serif" font-size="10.00"> dynamic_variable &gt;</text>
<polyline fill="none" stroke="black" points="48,-320.5 179,-320.5 "/>
<text text-anchor="middle" x="113.5" y="-308.5" font-family="Helvetica,sans-Serif" font-size="10.00"> </text>
<polyline fill="none" stroke="black" points="48,-301.5 179,-301.5 "/>
<text text-anchor="start" x="56" y="-289.5" font-family="Helvetica,sans-Serif" font-size="10.00">+ Value()</text>
<text text-anchor="start" x="56" y="-278.5" font-family="Helvetica,sans-Serif" font-size="10.00">+ operator()()</text>
<text text-anchor="start" x="56" y="-267.5" font-family="Helvetica,sans-Serif" font-size="10.00">+ operator()()</text>
<text text-anchor="start" x="56" y="-256.5" font-family="Helvetica,sans-Serif" font-size="10.00">+ operator[]()</text>
<text text-anchor="start" x="56" y="-245.5" font-family="Helvetica,sans-Serif" font-size="10.00">+ GetVariation()</text>
<text text-anchor="start" x="56" y="-234.5" font-family="Helvetica,sans-Serif" font-size="10.00">+ GetVariation()</text>
</a>
</g>
</g>
<!-- Node2&#45;&gt;Node1 -->
<g id="edge1" class="edge"><title>Node2&#45;&gt;Node1</title>
<path fill="none" stroke="midnightblue" d="M113.5,-217.377C113.5,-208.33 113.5,-199.015 113.5,-189.759"/>
<polygon fill="none" stroke="midnightblue" points="110,-217.461 113.5,-227.461 117,-217.461 110,-217.461"/>
</g>
<!-- Node3 -->
<g id="node3" class="node"><title>Node3</title>
<g id="a_node3"><a xlink:href="class_i_n_m_o_s_t_1_1basic__dynamic__variable.html" target="_top" xlink:title="{INMOST::basic_dynamic\l_variable\&lt; var_expression \&gt;\n||+ Value()\l+ Variable()\l+ Variable()\l+ operator[]()\l+ GetVariation()\l+ GetVariation()\l}">
<polygon fill="none" stroke="black" points="0,-426 0,-549 137,-549 137,-426 0,-426"/>
<text text-anchor="start" x="8" y="-537" font-family="Helvetica,sans-Serif" font-size="10.00">INMOST::basic_dynamic</text>
<text text-anchor="middle" x="68.5" y="-526" font-family="Helvetica,sans-Serif" font-size="10.00">_variable&lt; var_expression &gt;</text>
<polyline fill="none" stroke="black" points="0,-519 137,-519 "/>
<text text-anchor="middle" x="68.5" y="-507" font-family="Helvetica,sans-Serif" font-size="10.00"> </text>
<polyline fill="none" stroke="black" points="0,-500 137,-500 "/>
<text text-anchor="start" x="8" y="-488" font-family="Helvetica,sans-Serif" font-size="10.00">+ Value()</text>
<text text-anchor="start" x="8" y="-477" font-family="Helvetica,sans-Serif" font-size="10.00">+ Variable()</text>
<text text-anchor="start" x="8" y="-466" font-family="Helvetica,sans-Serif" font-size="10.00">+ Variable()</text>
<text text-anchor="start" x="8" y="-455" font-family="Helvetica,sans-Serif" font-size="10.00">+ operator[]()</text>
<text text-anchor="start" x="8" y="-444" font-family="Helvetica,sans-Serif" font-size="10.00">+ GetVariation()</text>
<text text-anchor="start" x="8" y="-433" font-family="Helvetica,sans-Serif" font-size="10.00">+ GetVariation()</text>
</a>
</g>
</g>
<!-- Node3&#45;&gt;Node2 -->
<g id="edge2" class="edge"><title>Node3&#45;&gt;Node2</title>
<path fill="none" stroke="midnightblue" d="M85.0944,-416.066C89.2859,-398.275 93.7717,-379.236 97.9117,-361.663"/>
<polygon fill="none" stroke="midnightblue" points="81.6867,-415.268 82.8001,-425.804 88.5001,-416.873 81.6867,-415.268"/>
</g>
<!-- Node4 -->
<g id="node4" class="node"><title>Node4</title>
<g id="a_node4"><a xlink:href="class_i_n_m_o_s_t_1_1abstract__dynamic__variable.html" target="_top" xlink:title="{INMOST::abstract_dynamic\l_variable\n||+ Value()\l+ Variable()\l+ Variable()\l+ GetVariation()\l+ GetVariation()\l}">
<polygon fill="none" stroke="black" points="29,-763.5 29,-875.5 166,-875.5 166,-763.5 29,-763.5"/>
<text text-anchor="start" x="37" y="-863.5" font-family="Helvetica,sans-Serif" font-size="10.00">INMOST::abstract_dynamic</text>
<text text-anchor="middle" x="97.5" y="-852.5" font-family="Helvetica,sans-Serif" font-size="10.00">_variable</text>
<polyline fill="none" stroke="black" points="29,-845.5 166,-845.5 "/>
<text text-anchor="middle" x="97.5" y="-833.5" font-family="Helvetica,sans-Serif" font-size="10.00"> </text>
<polyline fill="none" stroke="black" points="29,-826.5 166,-826.5 "/>
<text text-anchor="start" x="37" y="-814.5" font-family="Helvetica,sans-Serif" font-size="10.00">+ Value()</text>
<text text-anchor="start" x="37" y="-803.5" font-family="Helvetica,sans-Serif" font-size="10.00">+ Variable()</text>
<text text-anchor="start" x="37" y="-792.5" font-family="Helvetica,sans-Serif" font-size="10.00">+ Variable()</text>
<text text-anchor="start" x="37" y="-781.5" font-family="Helvetica,sans-Serif" font-size="10.00">+ GetVariation()</text>
<text text-anchor="start" x="37" y="-770.5" font-family="Helvetica,sans-Serif" font-size="10.00">+ GetVariation()</text>
</a>
</g>
</g>
<!-- Node4&#45;&gt;Node3 -->
<g id="edge3" class="edge"><title>Node4&#45;&gt;Node3</title>
<path fill="none" stroke="midnightblue" d="M90.1981,-753.078C89.2504,-743.987 88.3241,-734.763 87.5,-726 81.8459,-665.873 76.4612,-597.08 72.8776,-549.062"/>
<polygon fill="none" stroke="midnightblue" points="86.7418,-753.677 91.2729,-763.254 93.7031,-752.942 86.7418,-753.677"/>
</g>
<!-- Node5 -->
<g id="node5" class="node"><title>Node5</title>
<g id="a_node5"><a xlink:href="class_i_n_m_o_s_t_1_1basic__dynamic__variable.html" target="_top" xlink:title="{INMOST::basic_dynamic\l_variable\&lt; VariableType \&gt;\n||+ Value()\l+ Variable()\l+ Variable()\l+ operator[]()\l+ GetVariation()\l+ GetVariation()\l}">
<polygon fill="none" stroke="black" points="96.5,-602.5 96.5,-725.5 224.5,-725.5 224.5,-602.5 96.5,-602.5"/>
<text text-anchor="start" x="104.5" y="-713.5" font-family="Helvetica,sans-Serif" font-size="10.00">INMOST::basic_dynamic</text>
<text text-anchor="middle" x="160.5" y="-702.5" font-family="Helvetica,sans-Serif" font-size="10.00">_variable&lt; VariableType &gt;</text>
<polyline fill="none" stroke="black" points="96.5,-695.5 224.5,-695.5 "/>
<text text-anchor="middle" x="160.5" y="-683.5" font-family="Helvetica,sans-Serif" font-size="10.00"> </text>
<polyline fill="none" stroke="black" points="96.5,-676.5 224.5,-676.5 "/>
<text text-anchor="start" x="104.5" y="-664.5" font-family="Helvetica,sans-Serif" font-size="10.00">+ Value()</text>
<text text-anchor="start" x="104.5" y="-653.5" font-family="Helvetica,sans-Serif" font-size="10.00">+ Variable()</text>
<text text-anchor="start" x="104.5" y="-642.5" font-family="Helvetica,sans-Serif" font-size="10.00">+ Variable()</text>
<text text-anchor="start" x="104.5" y="-631.5" font-family="Helvetica,sans-Serif" font-size="10.00">+ operator[]()</text>
<text text-anchor="start" x="104.5" y="-620.5" font-family="Helvetica,sans-Serif" font-size="10.00">+ GetVariation()</text>
<text text-anchor="start" x="104.5" y="-609.5" font-family="Helvetica,sans-Serif" font-size="10.00">+ GetVariation()</text>
</a>
</g>
</g>
<!-- Node4&#45;&gt;Node5 -->
<g id="edge5" class="edge"><title>Node4&#45;&gt;Node5</title>
<path fill="none" stroke="midnightblue" d="M124.049,-753.812C127.897,-744.438 131.845,-734.818 135.657,-725.53"/>
<polygon fill="none" stroke="midnightblue" points="120.803,-752.503 120.244,-763.083 127.279,-755.161 120.803,-752.503"/>
</g>
<!-- Node5&#45;&gt;Node3 -->
<g id="edge4" class="edge"><title>Node5&#45;&gt;Node3</title>
<path fill="none" stroke="orange" d="M113.922,-593.779C112.039,-590.504 110.222,-587.234 108.5,-584 102.627,-572.973 96.995,-560.895 91.9056,-549.149"/>
<polygon fill="orange" stroke="orange" points="110.938,-595.61 119.036,-602.442 116.966,-592.051 110.938,-595.61"/>
<text text-anchor="middle" x="151.5" y="-576" font-family="Helvetica,sans-Serif" font-size="10.00"> &lt; var_expression &gt;</text>
</g>
<!-- Node6 -->
<g id="node6" class="node"><title>Node6</title>
<g id="a_node6"><a xlink:href="class_i_n_m_o_s_t_1_1shell__dynamic__variable.html" target="_top" xlink:title="{INMOST::shell_dynamic\l_variable\&lt; VariableType,\l Derived \&gt;\n||+ Value()\l+ operator()()\l+ operator()()\l+ operator[]()\l+ GetVariation()\l+ GetVariation()\l}">
<polygon fill="none" stroke="black" points="155.5,-420.5 155.5,-554.5 277.5,-554.5 277.5,-420.5 155.5,-420.5"/>
<text text-anchor="start" x="163.5" y="-542.5" font-family="Helvetica,sans-Serif" font-size="10.00">INMOST::shell_dynamic</text>
<text text-anchor="start" x="163.5" y="-531.5" font-family="Helvetica,sans-Serif" font-size="10.00">_variable&lt; VariableType,</text>
<text text-anchor="middle" x="216.5" y="-520.5" font-family="Helvetica,sans-Serif" font-size="10.00"> Derived &gt;</text>
<polyline fill="none" stroke="black" points="155.5,-513.5 277.5,-513.5 "/>
<text text-anchor="middle" x="216.5" y="-501.5" font-family="Helvetica,sans-Serif" font-size="10.00"> </text>
<polyline fill="none" stroke="black" points="155.5,-494.5 277.5,-494.5 "/>
<text text-anchor="start" x="163.5" y="-482.5" font-family="Helvetica,sans-Serif" font-size="10.00">+ Value()</text>
<text text-anchor="start" x="163.5" y="-471.5" font-family="Helvetica,sans-Serif" font-size="10.00">+ operator()()</text>
<text text-anchor="start" x="163.5" y="-460.5" font-family="Helvetica,sans-Serif" font-size="10.00">+ operator()()</text>
<text text-anchor="start" x="163.5" y="-449.5" font-family="Helvetica,sans-Serif" font-size="10.00">+ operator[]()</text>
<text text-anchor="start" x="163.5" y="-438.5" font-family="Helvetica,sans-Serif" font-size="10.00">+ GetVariation()</text>
<text text-anchor="start" x="163.5" y="-427.5" font-family="Helvetica,sans-Serif" font-size="10.00">+ GetVariation()</text>
</a>
</g>
</g>
<!-- Node5&#45;&gt;Node6 -->
<g id="edge7" class="edge"><title>Node5&#45;&gt;Node6</title>
<path fill="none" stroke="midnightblue" d="M195.362,-592.895C196.481,-589.915 197.534,-586.942 198.5,-584 201.58,-574.623 204.192,-564.544 206.389,-554.575"/>
<polygon fill="none" stroke="midnightblue" points="192.021,-591.827 191.586,-602.413 198.527,-594.409 192.021,-591.827"/>
</g>
<!-- Node6&#45;&gt;Node2 -->
<g id="edge6" class="edge"><title>Node6&#45;&gt;Node2</title>
<path fill="none" stroke="orange" d="M175.911,-411.233C167.079,-394.854 157.797,-377.644 149.172,-361.649"/>
<polygon fill="orange" stroke="orange" points="172.938,-413.093 180.765,-420.234 179.099,-409.77 172.938,-413.093"/>
<text text-anchor="start" x="168.5" y="-394" font-family="Helvetica,sans-Serif" font-size="10.00"> &lt; var_expression, dynamic</text>
<text text-anchor="middle" x="228.5" y="-383" font-family="Helvetica,sans-Serif" font-size="10.00">_variable &gt;</text>
</g>
</g>
</svg>
