<?xml version="1.0" encoding="UTF-8" standalone="no"?>
<!DOCTYPE svg PUBLIC "-//W3C//DTD SVG 1.1//EN"
 "http://www.w3.org/Graphics/SVG/1.1/DTD/svg11.dtd">
<!-- Generated by graphviz version 2.38.0 (20140413.2041)
 -->
<!-- Title: INMOST::enhanced_multivar_expression::enhanced_multivar_expression Pages: 1 -->
<svg width="723pt" height="467pt"
 viewBox="0.00 0.00 723.00 467.00" xmlns="http://www.w3.org/2000/svg" xmlns:xlink="http://www.w3.org/1999/xlink">
<g id="graph0" class="graph" transform="scale(1 1) rotate(0) translate(4 463)">
<title>INMOST::enhanced_multivar_expression::enhanced_multivar_expression</title>
<!-- Node1 -->
<g id="node1" class="node"><title>Node1</title>
<polygon fill="#bfbfbf" stroke="black" points="0,-193 0,-234 155,-234 155,-193 0,-193"/>
<text text-anchor="start" x="8" y="-222" font-family="Helvetica,sans-Serif" font-size="10.00">INMOST::enhanced_multivar</text>
<text text-anchor="start" x="8" y="-211" font-family="Helvetica,sans-Serif" font-size="10.00">_expression::enhanced_multivar</text>
<text text-anchor="middle" x="77.5" y="-200" font-family="Helvetica,sans-Serif" font-size="10.00">_expression</text>
</g>
<!-- Node2 -->
<g id="node2" class="node"><title>Node2</title>
<g id="a_node2"><a xlink:href="class_i_n_m_o_s_t_1_1_automatizator.html#ab41dc204fbb52720b8dbb365f40ee0f3" target="_top" xlink:title="INMOST::Automatizator\l::GetDynamicValue">
<polygon fill="none" stroke="black" points="203.5,-337.5 203.5,-367.5 323.5,-367.5 323.5,-337.5 203.5,-337.5"/>
<text text-anchor="start" x="211.5" y="-355.5" font-family="Helvetica,sans-Serif" font-size="10.00">INMOST::Automatizator</text>
<text text-anchor="middle" x="263.5" y="-344.5" font-family="Helvetica,sans-Serif" font-size="10.00">::GetDynamicValue</text>
</a>
</g>
</g>
<!-- Node1&#45;&gt;Node2 -->
<g id="edge1" class="edge"><title>Node1&#45;&gt;Node2</title>
<path fill="none" stroke="midnightblue" d="M105.65,-234.01C140.116,-260.047 199.29,-304.749 234.266,-331.171"/>
<polygon fill="midnightblue" stroke="midnightblue" points="232.518,-334.237 242.607,-337.472 236.737,-328.651 232.518,-334.237"/>
</g>
<!-- Node8 -->
<g id="node8" class="node"><title>Node8</title>
<g id="a_node8"><a xlink:href="class_i_n_m_o_s_t_1_1_automatizator.html#aa345acdac952457bdfcd5364d5e1561f" target="_top" xlink:title="INMOST::Automatizator\l::GetDynamicMask">
<polygon fill="none" stroke="black" points="203.5,-127.5 203.5,-157.5 323.5,-157.5 323.5,-127.5 203.5,-127.5"/>
<text text-anchor="start" x="211.5" y="-145.5" font-family="Helvetica,sans-Serif" font-size="10.00">INMOST::Automatizator</text>
<text text-anchor="middle" x="263.5" y="-134.5" font-family="Helvetica,sans-Serif" font-size="10.00">::GetDynamicMask</text>
</a>
</g>
</g>
<!-- Node1&#45;&gt;Node8 -->
<g id="edge7" class="edge"><title>Node1&#45;&gt;Node8</title>
<path fill="none" stroke="midnightblue" d="M125.546,-192.958C145.588,-184.439 169.306,-174.661 191,-166.5 196.055,-164.598 201.338,-162.686 206.643,-160.817"/>
<polygon fill="midnightblue" stroke="midnightblue" points="207.874,-164.095 216.173,-157.509 205.579,-157.482 207.874,-164.095"/>
</g>
<!-- Node9 -->
<g id="node9" class="node"><title>Node9</title>
<g id="a_node9"><a xlink:href="class_i_n_m_o_s_t_1_1_storage.html#ad256a6f5101df9f507e359cdddef3a66" target="_top" xlink:title="INMOST::Storage::GetMarker">
<polygon fill="none" stroke="black" points="191,-226 191,-245 336,-245 336,-226 191,-226"/>
<text text-anchor="middle" x="263.5" y="-233" font-family="Helvetica,sans-Serif" font-size="10.00">INMOST::Storage::GetMarker</text>
</a>
</g>
</g>
<!-- Node1&#45;&gt;Node9 -->
<g id="edge8" class="edge"><title>Node1&#45;&gt;Node9</title>
<path fill="none" stroke="midnightblue" d="M155.2,-222.671C163.705,-223.688 172.39,-224.726 180.952,-225.75"/>
<polygon fill="midnightblue" stroke="midnightblue" points="180.584,-229.231 190.929,-226.943 181.415,-222.28 180.584,-229.231"/>
</g>
<!-- Node15 -->
<g id="node15" class="node"><title>Node15</title>
<g id="a_node15"><a xlink:href="class_i_n_m_o_s_t_1_1_automatizator.html#a3b9418a007184a35890a508d92fdb61c" target="_top" xlink:title="INMOST::Automatizator\l::GetDynamicIndex">
<polygon fill="none" stroke="black" points="203.5,-176.5 203.5,-206.5 323.5,-206.5 323.5,-176.5 203.5,-176.5"/>
<text text-anchor="start" x="211.5" y="-194.5" font-family="Helvetica,sans-Serif" font-size="10.00">INMOST::Automatizator</text>
<text text-anchor="middle" x="263.5" y="-183.5" font-family="Helvetica,sans-Serif" font-size="10.00">::GetDynamicIndex</text>
</a>
</g>
</g>
<!-- Node1&#45;&gt;Node15 -->
<g id="edge17" class="edge"><title>Node1&#45;&gt;Node15</title>
<path fill="none" stroke="midnightblue" d="M155.2,-204.329C167.757,-202.828 180.706,-201.28 193.074,-199.801"/>
<polygon fill="midnightblue" stroke="midnightblue" points="193.792,-203.24 203.306,-198.578 192.961,-196.29 193.792,-203.24"/>
</g>
<!-- Node19 -->
<g id="node19" class="node"><title>Node19</title>
<g id="a_node19"><a xlink:href="class_i_n_m_o_s_t_1_1_automatizator.html#a8d32c48035f0a83bd0ef783132d5da7a" target="_top" xlink:title="INMOST::Automatizator\l::GetStaticValue">
<polygon fill="none" stroke="black" points="203.5,-386.5 203.5,-416.5 323.5,-416.5 323.5,-386.5 203.5,-386.5"/>
<text text-anchor="start" x="211.5" y="-404.5" font-family="Helvetica,sans-Serif" font-size="10.00">INMOST::Automatizator</text>
<text text-anchor="middle" x="263.5" y="-393.5" font-family="Helvetica,sans-Serif" font-size="10.00">::GetStaticValue</text>
</a>
</g>
</g>
<!-- Node1&#45;&gt;Node19 -->
<g id="edge23" class="edge"><title>Node1&#45;&gt;Node19</title>
<path fill="none" stroke="midnightblue" d="M87.2561,-234.064C103.001,-268.648 139.333,-338.491 191,-377.5 192.825,-378.878 194.735,-380.18 196.708,-381.41"/>
<polygon fill="midnightblue" stroke="midnightblue" points="195.256,-384.605 205.706,-386.35 198.625,-378.469 195.256,-384.605"/>
</g>
<!-- Node21 -->
<g id="node21" class="node"><title>Node21</title>
<g id="a_node21"><a xlink:href="class_i_n_m_o_s_t_1_1_sparse_1_1_row.html#aefe7d07de8417241a0e222313e9fa9e0" target="_top" xlink:title="INMOST::Sparse::Row\l::Push">
<polygon fill="none" stroke="black" points="206,-44.5 206,-74.5 321,-74.5 321,-44.5 206,-44.5"/>
<text text-anchor="start" x="214" y="-62.5" font-family="Helvetica,sans-Serif" font-size="10.00">INMOST::Sparse::Row</text>
<text text-anchor="middle" x="263.5" y="-51.5" font-family="Helvetica,sans-Serif" font-size="10.00">::Push</text>
</a>
</g>
</g>
<!-- Node1&#45;&gt;Node21 -->
<g id="edge26" class="edge"><title>Node1&#45;&gt;Node21</title>
<path fill="none" stroke="midnightblue" d="M102.493,-192.726C125.17,-173.163 160.21,-143.119 191,-117.5 205.652,-105.309 222.168,-91.8901 235.633,-81.0328"/>
<polygon fill="midnightblue" stroke="midnightblue" points="237.983,-83.6344 243.578,-74.6375 233.593,-78.1814 237.983,-83.6344"/>
</g>
<!-- Node3 -->
<g id="node3" class="node"><title>Node3</title>
<g id="a_node3"><a xlink:href="class_i_n_m_o_s_t_1_1_storage.html#a01988cd89c450bc589b9a49b37b4c71c" target="_top" xlink:title="INMOST::Storage::RealArray">
<polygon fill="none" stroke="black" points="376,-390 376,-409 518,-409 518,-390 376,-390"/>
<text text-anchor="middle" x="447" y="-397" font-family="Helvetica,sans-Serif" font-size="10.00">INMOST::Storage::RealArray</text>
</a>
</g>
</g>
<!-- Node2&#45;&gt;Node3 -->
<g id="edge2" class="edge"><title>Node2&#45;&gt;Node3</title>
<path fill="none" stroke="midnightblue" d="M321.954,-367.504C338.137,-371.72 355.756,-376.299 372,-380.5 380.677,-382.744 389.929,-385.127 398.848,-387.419"/>
<polygon fill="midnightblue" stroke="midnightblue" points="398.171,-390.859 408.727,-389.957 399.912,-384.079 398.171,-390.859"/>
</g>
<!-- Node7 -->
<g id="node7" class="node"><title>Node7</title>
<g id="a_node7"><a xlink:href="class_i_n_m_o_s_t_1_1_automatizator.html#a7fc404b01b46043c1721319df44935c1" target="_top" xlink:title="INMOST::Automatizator\l::GetDynamicValueTag">
<polygon fill="none" stroke="black" points="387,-340.5 387,-370.5 507,-370.5 507,-340.5 387,-340.5"/>
<text text-anchor="start" x="395" y="-358.5" font-family="Helvetica,sans-Serif" font-size="10.00">INMOST::Automatizator</text>
<text text-anchor="middle" x="447" y="-347.5" font-family="Helvetica,sans-Serif" font-size="10.00">::GetDynamicValueTag</text>
</a>
</g>
</g>
<!-- Node2&#45;&gt;Node7 -->
<g id="edge6" class="edge"><title>Node2&#45;&gt;Node7</title>
<path fill="none" stroke="midnightblue" d="M323.679,-353.478C340.628,-353.758 359.256,-354.066 376.752,-354.355"/>
<polygon fill="midnightblue" stroke="midnightblue" points="376.845,-357.857 386.902,-354.523 376.961,-350.858 376.845,-357.857"/>
</g>
<!-- Node4 -->
<g id="node4" class="node"><title>Node4</title>
<g id="a_node4"><a xlink:href="class_i_n_m_o_s_t_1_1_storage.html#a20d218fc89f75ca8534707b4f697173e" target="_top" xlink:title="INMOST::Storage::GetMeshLink">
<polygon fill="none" stroke="black" points="558,-223 558,-242 715,-242 715,-223 558,-223"/>
<text text-anchor="middle" x="636.5" y="-230" font-family="Helvetica,sans-Serif" font-size="10.00">INMOST::Storage::GetMeshLink</text>
</a>
</g>
</g>
<!-- Node3&#45;&gt;Node4 -->
<g id="edge3" class="edge"><title>Node3&#45;&gt;Node4</title>
<path fill="none" stroke="midnightblue" d="M508.668,-389.832C513.556,-387.359 518.103,-384.293 522,-380.5 563.734,-339.877 516.782,-295.647 558,-254.5 560.923,-251.582 564.203,-249.044 567.719,-246.838"/>
<polygon fill="midnightblue" stroke="midnightblue" points="569.662,-249.77 576.874,-242.009 566.396,-243.579 569.662,-249.77"/>
</g>
<!-- Node5 -->
<g id="node5" class="node"><title>Node5</title>
<g id="a_node5"><a xlink:href="class_i_n_m_o_s_t_1_1_mesh.html#a06bdd4e7c0d26750ca0aa40e03fc7d4c" target="_top" xlink:title="INMOST::Mesh::RealArray">
<polygon fill="none" stroke="black" points="570.5,-390 570.5,-409 702.5,-409 702.5,-390 570.5,-390"/>
<text text-anchor="middle" x="636.5" y="-397" font-family="Helvetica,sans-Serif" font-size="10.00">INMOST::Mesh::RealArray</text>
</a>
</g>
</g>
<!-- Node3&#45;&gt;Node5 -->
<g id="edge4" class="edge"><title>Node3&#45;&gt;Node5</title>
<path fill="none" stroke="midnightblue" d="M518.085,-399.5C531.895,-399.5 546.439,-399.5 560.407,-399.5"/>
<polygon fill="midnightblue" stroke="midnightblue" points="560.458,-403 570.458,-399.5 560.458,-396 560.458,-403"/>
</g>
<!-- Node6 -->
<g id="node6" class="node"><title>Node6</title>
<g id="a_node6"><a xlink:href="class_i_n_m_o_s_t_1_1_storage.html#ac79e3f3664b2ff21892f37bce0caa0e0" target="_top" xlink:title="INMOST::Storage::GetHandle">
<polygon fill="none" stroke="black" points="564,-302 564,-321 709,-321 709,-302 564,-302"/>
<text text-anchor="middle" x="636.5" y="-309" font-family="Helvetica,sans-Serif" font-size="10.00">INMOST::Storage::GetHandle</text>
</a>
</g>
</g>
<!-- Node3&#45;&gt;Node6 -->
<g id="edge5" class="edge"><title>Node3&#45;&gt;Node6</title>
<path fill="none" stroke="midnightblue" d="M494.093,-389.91C503.495,-387.333 513.199,-384.208 522,-380.5 556.18,-366.098 592.213,-342.556 614.279,-327.044"/>
<polygon fill="midnightblue" stroke="midnightblue" points="616.455,-329.792 622.563,-321.135 612.389,-324.093 616.455,-329.792"/>
</g>
<!-- Node9&#45;&gt;Node4 -->
<g id="edge13" class="edge"><title>Node9&#45;&gt;Node4</title>
<path fill="none" stroke="midnightblue" d="M336.033,-234.922C396.393,-234.433 483.04,-233.733 547.616,-233.211"/>
<polygon fill="midnightblue" stroke="midnightblue" points="547.811,-236.709 557.783,-233.128 547.755,-229.71 547.811,-236.709"/>
</g>
<!-- Node9&#45;&gt;Node6 -->
<g id="edge16" class="edge"><title>Node9&#45;&gt;Node6</title>
<path fill="none" stroke="midnightblue" d="M277.962,-245.034C297.58,-258.351 335.657,-282.059 372,-292.5 431.201,-309.508 500.804,-313.9 553.604,-314.232"/>
<polygon fill="midnightblue" stroke="midnightblue" points="553.927,-317.733 563.932,-314.247 553.937,-310.733 553.927,-317.733"/>
</g>
<!-- Node10 -->
<g id="node10" class="node"><title>Node10</title>
<g id="a_node10"><a xlink:href="class_i_n_m_o_s_t_1_1_storage.html#a59da31b96c2b4e09e260f0deb4dae4d9" target="_top" xlink:title="INMOST::Storage::isValid">
<polygon fill="none" stroke="black" points="383,-138 383,-157 511,-157 511,-138 383,-138"/>
<text text-anchor="middle" x="447" y="-145" font-family="Helvetica,sans-Serif" font-size="10.00">INMOST::Storage::isValid</text>
</a>
</g>
</g>
<!-- Node9&#45;&gt;Node10 -->
<g id="edge9" class="edge"><title>Node9&#45;&gt;Node10</title>
<path fill="none" stroke="midnightblue" d="M315.245,-225.881C322.575,-223.219 329.745,-219.825 336,-215.5 358.228,-200.131 349.609,-181.63 372,-166.5 374.947,-164.509 378.088,-162.726 381.351,-161.131"/>
<polygon fill="midnightblue" stroke="midnightblue" points="382.973,-164.244 390.806,-157.11 380.234,-157.802 382.973,-164.244"/>
</g>
<!-- Node13 -->
<g id="node13" class="node"><title>Node13</title>
<g id="a_node13"><a xlink:href="class_i_n_m_o_s_t_1_1_mesh.html#a2c8a00522e2b06a0b59e25cae119a237" target="_top" xlink:title="INMOST::Mesh::GetMarker">
<polygon fill="none" stroke="black" points="379.5,-264 379.5,-283 514.5,-283 514.5,-264 379.5,-264"/>
<text text-anchor="middle" x="447" y="-271" font-family="Helvetica,sans-Serif" font-size="10.00">INMOST::Mesh::GetMarker</text>
</a>
</g>
</g>
<!-- Node9&#45;&gt;Node13 -->
<g id="edge14" class="edge"><title>Node9&#45;&gt;Node13</title>
<path fill="none" stroke="midnightblue" d="M310.3,-245.089C334.683,-250.194 364.857,-256.511 390.556,-261.892"/>
<polygon fill="midnightblue" stroke="midnightblue" points="390.024,-265.356 400.529,-263.98 391.459,-258.505 390.024,-265.356"/>
</g>
<!-- Node10&#45;&gt;Node4 -->
<g id="edge11" class="edge"><title>Node10&#45;&gt;Node4</title>
<path fill="none" stroke="midnightblue" d="M502.235,-157.121C509.18,-159.572 515.963,-162.646 522,-166.5 543.297,-180.096 536.877,-196.636 558,-210.5 563.295,-213.975 569.141,-216.909 575.178,-219.385"/>
<polygon fill="midnightblue" stroke="midnightblue" points="574.177,-222.746 584.77,-222.91 576.591,-216.175 574.177,-222.746"/>
</g>
<!-- Node11 -->
<g id="node11" class="node"><title>Node11</title>
<g id="a_node11"><a xlink:href="namespace_i_n_m_o_s_t.html#a115b3e54c3b7be04ffec9b69c058df18" target="_top" xlink:title="INMOST::InvalidHandle">
<polygon fill="none" stroke="black" points="578.5,-103 578.5,-122 694.5,-122 694.5,-103 578.5,-103"/>
<text text-anchor="middle" x="636.5" y="-110" font-family="Helvetica,sans-Serif" font-size="10.00">INMOST::InvalidHandle</text>
</a>
</g>
</g>
<!-- Node10&#45;&gt;Node11 -->
<g id="edge10" class="edge"><title>Node10&#45;&gt;Node11</title>
<path fill="none" stroke="midnightblue" d="M499.235,-137.936C522.488,-133.596 550.168,-128.429 574.487,-123.889"/>
<polygon fill="midnightblue" stroke="midnightblue" points="575.139,-127.328 584.327,-122.052 573.854,-120.447 575.139,-127.328"/>
</g>
<!-- Node12 -->
<g id="node12" class="node"><title>Node12</title>
<g id="a_node12"><a xlink:href="class_i_n_m_o_s_t_1_1_mesh.html#a05701da4bd3ed8ca69bbcca256c2b0e2" target="_top" xlink:title="INMOST::Mesh::isValidElement">
<polygon fill="none" stroke="black" points="559,-141 559,-160 714,-160 714,-141 559,-141"/>
<text text-anchor="middle" x="636.5" y="-148" font-family="Helvetica,sans-Serif" font-size="10.00">INMOST::Mesh::isValidElement</text>
</a>
</g>
</g>
<!-- Node10&#45;&gt;Node12 -->
<g id="edge12" class="edge"><title>Node10&#45;&gt;Node12</title>
<path fill="none" stroke="midnightblue" d="M511.218,-148.511C523.298,-148.705 536.137,-148.91 548.803,-149.113"/>
<polygon fill="midnightblue" stroke="midnightblue" points="548.852,-152.614 558.907,-149.275 548.964,-145.615 548.852,-152.614"/>
</g>
<!-- Node14 -->
<g id="node14" class="node"><title>Node14</title>
<g id="a_node14"><a xlink:href="class_i_n_m_o_s_t_1_1_mesh.html#ad7d9049c7e0f028e334d3fac70acdc6c" target="_top" xlink:title="INMOST::Mesh::MarkersTag">
<polygon fill="none" stroke="black" points="566.5,-264 566.5,-283 706.5,-283 706.5,-264 566.5,-264"/>
<text text-anchor="middle" x="636.5" y="-271" font-family="Helvetica,sans-Serif" font-size="10.00">INMOST::Mesh::MarkersTag</text>
</a>
</g>
</g>
<!-- Node13&#45;&gt;Node14 -->
<g id="edge15" class="edge"><title>Node13&#45;&gt;Node14</title>
<path fill="none" stroke="midnightblue" d="M514.633,-273.5C527.97,-273.5 542.108,-273.5 555.834,-273.5"/>
<polygon fill="midnightblue" stroke="midnightblue" points="556.229,-277 566.229,-273.5 556.229,-270 556.229,-277"/>
</g>
<!-- Node16 -->
<g id="node16" class="node"><title>Node16</title>
<g id="a_node16"><a xlink:href="class_i_n_m_o_s_t_1_1_storage.html#a11d99c05260909c93df802f94f52d48f" target="_top" xlink:title="INMOST::Storage::Integer\lArray">
<polygon fill="none" stroke="black" points="383,-176.5 383,-206.5 511,-206.5 511,-176.5 383,-176.5"/>
<text text-anchor="start" x="391" y="-194.5" font-family="Helvetica,sans-Serif" font-size="10.00">INMOST::Storage::Integer</text>
<text text-anchor="middle" x="447" y="-183.5" font-family="Helvetica,sans-Serif" font-size="10.00">Array</text>
</a>
</g>
</g>
<!-- Node15&#45;&gt;Node16 -->
<g id="edge18" class="edge"><title>Node15&#45;&gt;Node16</title>
<path fill="none" stroke="midnightblue" d="M323.679,-191.5C339.356,-191.5 356.469,-191.5 372.795,-191.5"/>
<polygon fill="midnightblue" stroke="midnightblue" points="372.838,-195 382.838,-191.5 372.838,-188 372.838,-195"/>
</g>
<!-- Node18 -->
<g id="node18" class="node"><title>Node18</title>
<g id="a_node18"><a xlink:href="class_i_n_m_o_s_t_1_1_automatizator.html#a29ee1b26035909f21fbc8e9142f8c66e" target="_top" xlink:title="INMOST::Automatizator\l::GetDynamicIndexTag">
<polygon fill="none" stroke="black" points="387,-88.5 387,-118.5 507,-118.5 507,-88.5 387,-88.5"/>
<text text-anchor="start" x="395" y="-106.5" font-family="Helvetica,sans-Serif" font-size="10.00">INMOST::Automatizator</text>
<text text-anchor="middle" x="447" y="-95.5" font-family="Helvetica,sans-Serif" font-size="10.00">::GetDynamicIndexTag</text>
</a>
</g>
</g>
<!-- Node15&#45;&gt;Node18 -->
<g id="edge22" class="edge"><title>Node15&#45;&gt;Node18</title>
<path fill="none" stroke="midnightblue" d="M317.038,-176.414C323.656,-173.577 330.149,-170.287 336,-166.5 355.531,-153.86 352.402,-141.037 372,-128.5 375.156,-126.481 378.492,-124.607 381.933,-122.87"/>
<polygon fill="midnightblue" stroke="midnightblue" points="383.617,-125.948 391.235,-118.586 380.688,-119.59 383.617,-125.948"/>
</g>
<!-- Node16&#45;&gt;Node4 -->
<g id="edge19" class="edge"><title>Node16&#45;&gt;Node4</title>
<path fill="none" stroke="midnightblue" d="M511.218,-205.324C534.266,-210.364 560.079,-216.008 582.183,-220.841"/>
<polygon fill="midnightblue" stroke="midnightblue" points="581.537,-224.283 592.054,-223 583.032,-217.444 581.537,-224.283"/>
</g>
<!-- Node16&#45;&gt;Node6 -->
<g id="edge21" class="edge"><title>Node16&#45;&gt;Node6</title>
<path fill="none" stroke="midnightblue" d="M466.724,-206.503C481.978,-218.946 503.88,-237.318 522,-254.5 538.881,-270.508 537.885,-280.811 558,-292.5 561.878,-294.753 566.014,-296.741 570.282,-298.493"/>
<polygon fill="midnightblue" stroke="midnightblue" points="569.191,-301.821 579.785,-301.967 571.594,-295.246 569.191,-301.821"/>
</g>
<!-- Node17 -->
<g id="node17" class="node"><title>Node17</title>
<g id="a_node17"><a xlink:href="class_i_n_m_o_s_t_1_1_mesh.html#ac0bbbfafae1405bd27b726bdbb4c2cdd" target="_top" xlink:title="INMOST::Mesh::IntegerArray">
<polygon fill="none" stroke="black" points="565.5,-182 565.5,-201 707.5,-201 707.5,-182 565.5,-182"/>
<text text-anchor="middle" x="636.5" y="-189" font-family="Helvetica,sans-Serif" font-size="10.00">INMOST::Mesh::IntegerArray</text>
</a>
</g>
</g>
<!-- Node16&#45;&gt;Node17 -->
<g id="edge20" class="edge"><title>Node16&#45;&gt;Node17</title>
<path fill="none" stroke="midnightblue" d="M511.218,-191.5C525.384,-191.5 540.595,-191.5 555.346,-191.5"/>
<polygon fill="midnightblue" stroke="midnightblue" points="555.467,-195 565.467,-191.5 555.467,-188 555.467,-195"/>
</g>
<!-- Node19&#45;&gt;Node3 -->
<g id="edge24" class="edge"><title>Node19&#45;&gt;Node3</title>
<path fill="none" stroke="midnightblue" d="M323.679,-400.848C337.081,-400.7 351.532,-400.541 365.644,-400.385"/>
<polygon fill="midnightblue" stroke="midnightblue" points="365.879,-403.883 375.84,-400.273 365.802,-396.884 365.879,-403.883"/>
</g>
<!-- Node20 -->
<g id="node20" class="node"><title>Node20</title>
<g id="a_node20"><a xlink:href="class_i_n_m_o_s_t_1_1_automatizator.html#a598fce631c693d1350b79b3da59a2303" target="_top" xlink:title="INMOST::Automatizator\l::GetStaticValueTag">
<polygon fill="none" stroke="black" points="387,-428.5 387,-458.5 507,-458.5 507,-428.5 387,-428.5"/>
<text text-anchor="start" x="395" y="-446.5" font-family="Helvetica,sans-Serif" font-size="10.00">INMOST::Automatizator</text>
<text text-anchor="middle" x="447" y="-435.5" font-family="Helvetica,sans-Serif" font-size="10.00">::GetStaticValueTag</text>
</a>
</g>
</g>
<!-- Node19&#45;&gt;Node20 -->
<g id="edge25" class="edge"><title>Node19&#45;&gt;Node20</title>
<path fill="none" stroke="midnightblue" d="M323.679,-415.194C340.628,-419.116 359.256,-423.427 376.752,-427.476"/>
<polygon fill="midnightblue" stroke="midnightblue" points="376.37,-430.98 386.902,-429.824 377.948,-424.16 376.37,-430.98"/>
</g>
<!-- Node22 -->
<g id="node22" class="node"><title>Node22</title>
<g id="a_node22"><a xlink:href="class_i_n_m_o_s_t_1_1dynarray.html#accbf4d646f6337f58160ceca6e6f084d" target="_top" xlink:title="INMOST::dynarray::push_back">
<polygon fill="none" stroke="black" points="372,-50 372,-69 522,-69 522,-50 372,-50"/>
<text text-anchor="middle" x="447" y="-57" font-family="Helvetica,sans-Serif" font-size="10.00">INMOST::dynarray::push_back</text>
</a>
</g>
</g>
<!-- Node21&#45;&gt;Node22 -->
<g id="edge27" class="edge"><title>Node21&#45;&gt;Node22</title>
<path fill="none" stroke="midnightblue" d="M321.43,-59.5C334.188,-59.5 347.986,-59.5 361.594,-59.5"/>
<polygon fill="midnightblue" stroke="midnightblue" points="361.942,-63.0001 371.942,-59.5 361.942,-56.0001 361.942,-63.0001"/>
</g>
<!-- Node23 -->
<g id="node23" class="node"><title>Node23</title>
<g id="a_node23"><a xlink:href="class_i_n_m_o_s_t_1_1_sparse_1_1_row.html#a1eee98cfe1a435352df39dd68a438ca7" target="_top" xlink:title="INMOST::Sparse::Row\l::make_entry">
<polygon fill="none" stroke="black" points="389.5,-0.5 389.5,-30.5 504.5,-30.5 504.5,-0.5 389.5,-0.5"/>
<text text-anchor="start" x="397.5" y="-18.5" font-family="Helvetica,sans-Serif" font-size="10.00">INMOST::Sparse::Row</text>
<text text-anchor="middle" x="447" y="-7.5" font-family="Helvetica,sans-Serif" font-size="10.00">::make_entry</text>
</a>
</g>
</g>
<!-- Node21&#45;&gt;Node23 -->
<g id="edge28" class="edge"><title>Node21&#45;&gt;Node23</title>
<path fill="none" stroke="midnightblue" d="M321.43,-45.6988C339.844,-41.2348 360.426,-36.2453 379.472,-31.628"/>
<polygon fill="midnightblue" stroke="midnightblue" points="380.378,-35.0097 389.272,-29.2522 378.729,-28.2068 380.378,-35.0097"/>
</g>
</g>
</svg>
