<?xml version="1.0" encoding="UTF-8" standalone="no"?>
<!DOCTYPE svg PUBLIC "-//W3C//DTD SVG 1.1//EN"
 "http://www.w3.org/Graphics/SVG/1.1/DTD/svg11.dtd">
<!-- Generated by graphviz version 2.38.0 (20140413.2041)
 -->
<!-- Title: INMOST::dynarray::capacity Pages: 1 -->
<svg width="345pt" height="137pt"
 viewBox="0.00 0.00 345.00 137.00" xmlns="http://www.w3.org/2000/svg" xmlns:xlink="http://www.w3.org/1999/xlink">
<g id="graph0" class="graph" transform="scale(1 1) rotate(0) translate(4 133)">
<title>INMOST::dynarray::capacity</title>
<!-- Node1 -->
<g id="node1" class="node"><title>Node1</title>
<polygon fill="#bfbfbf" stroke="black" points="0,-55 0,-74 140,-74 140,-55 0,-55"/>
<text text-anchor="middle" x="70" y="-62" font-family="Helvetica,sans-Serif" font-size="10.00">INMOST::dynarray::capacity</text>
</g>
<!-- Node2 -->
<g id="node2" class="node"><title>Node2</title>
<g id="a_node2"><a xlink:href="class_i_n_m_o_s_t_1_1dynarray.html#accbf4d646f6337f58160ceca6e6f084d" target="_top" xlink:title="INMOST::dynarray\&lt; stencil\l_kind_domain, 128 \&gt;::push_back">
<polygon fill="none" stroke="black" points="176,-98.5 176,-128.5 337,-128.5 337,-98.5 176,-98.5"/>
<text text-anchor="start" x="184" y="-116.5" font-family="Helvetica,sans-Serif" font-size="10.00">INMOST::dynarray&lt; stencil</text>
<text text-anchor="middle" x="256.5" y="-105.5" font-family="Helvetica,sans-Serif" font-size="10.00">_kind_domain, 128 &gt;::push_back</text>
</a>
</g>
</g>
<!-- Node1&#45;&gt;Node2 -->
<g id="edge1" class="edge"><title>Node1&#45;&gt;Node2</title>
<path fill="none" stroke="midnightblue" d="M116.897,-76.6896C141.716,-83.2808 172.581,-91.4782 198.881,-98.463"/>
<polygon fill="midnightblue" stroke="midnightblue" points="117.575,-73.2482 107.011,-74.064 115.778,-80.0137 117.575,-73.2482"/>
</g>
<!-- Node3 -->
<g id="node3" class="node"><title>Node3</title>
<g id="a_node3"><a xlink:href="class_i_n_m_o_s_t_1_1dynarray.html#aef8d483671a044ba927c1a523ca4d7d0" target="_top" xlink:title="INMOST::dynarray\&lt; stencil\l_kind_domain, 128 \&gt;::resize">
<polygon fill="none" stroke="black" points="186.5,-49.5 186.5,-79.5 326.5,-79.5 326.5,-49.5 186.5,-49.5"/>
<text text-anchor="start" x="194.5" y="-67.5" font-family="Helvetica,sans-Serif" font-size="10.00">INMOST::dynarray&lt; stencil</text>
<text text-anchor="middle" x="256.5" y="-56.5" font-family="Helvetica,sans-Serif" font-size="10.00">_kind_domain, 128 &gt;::resize</text>
</a>
</g>
</g>
<!-- Node1&#45;&gt;Node3 -->
<g id="edge2" class="edge"><title>Node1&#45;&gt;Node3</title>
<path fill="none" stroke="midnightblue" d="M150.265,-64.5C162.324,-64.5 174.684,-64.5 186.5,-64.5"/>
<polygon fill="midnightblue" stroke="midnightblue" points="150.226,-61.0001 140.226,-64.5 150.226,-68.0001 150.226,-61.0001"/>
</g>
<!-- Node4 -->
<g id="node4" class="node"><title>Node4</title>
<g id="a_node4"><a xlink:href="class_i_n_m_o_s_t_1_1dynarray.html#adaff52d9f33cf95c559cca1eb0ba7f79" target="_top" xlink:title="INMOST::dynarray\&lt; stencil\l_kind_domain, 128 \&gt;::insert">
<polygon fill="none" stroke="black" points="188,-0.5 188,-30.5 325,-30.5 325,-0.5 188,-0.5"/>
<text text-anchor="start" x="196" y="-18.5" font-family="Helvetica,sans-Serif" font-size="10.00">INMOST::dynarray&lt; stencil</text>
<text text-anchor="middle" x="256.5" y="-7.5" font-family="Helvetica,sans-Serif" font-size="10.00">_kind_domain, 128 &gt;::insert</text>
</a>
</g>
</g>
<!-- Node1&#45;&gt;Node4 -->
<g id="edge3" class="edge"><title>Node1&#45;&gt;Node4</title>
<path fill="none" stroke="midnightblue" d="M116.897,-52.3104C141.716,-45.7192 172.581,-37.5218 198.881,-30.537"/>
<polygon fill="midnightblue" stroke="midnightblue" points="115.778,-48.9863 107.011,-54.936 117.575,-55.7518 115.778,-48.9863"/>
</g>
</g>
</svg>
