<?xml version="1.0" encoding="UTF-8" standalone="no"?>
<!DOCTYPE svg PUBLIC "-//W3C//DTD SVG 1.1//EN"
 "http://www.w3.org/Graphics/SVG/1.1/DTD/svg11.dtd">
<!-- Generated by graphviz version 2.38.0 (20140413.2041)
 -->
<!-- Title: INMOST::Sparse::Row::operator[] Pages: 1 -->
<svg width="309pt" height="104pt"
 viewBox="0.00 0.00 309.00 104.00" xmlns="http://www.w3.org/2000/svg" xmlns:xlink="http://www.w3.org/1999/xlink">
<g id="graph0" class="graph" transform="scale(1 1) rotate(0) translate(4 100)">
<title>INMOST::Sparse::Row::operator[]</title>
<!-- Node1 -->
<g id="node1" class="node"><title>Node1</title>
<polygon fill="#bfbfbf" stroke="black" points="0,-33 0,-63 115,-63 115,-33 0,-33"/>
<text text-anchor="start" x="8" y="-51" font-family="Helvetica,sans-Serif" font-size="10.00">INMOST::Sparse::Row</text>
<text text-anchor="middle" x="57.5" y="-40" font-family="Helvetica,sans-Serif" font-size="10.00">::operator[]</text>
</g>
<!-- Node2 -->
<g id="node2" class="node"><title>Node2</title>
<g id="a_node2"><a xlink:href="class_i_n_m_o_s_t_1_1dynarray.html#aeddec63b957a8a61e89f14d28fa1a2eb" target="_top" xlink:title="INMOST::dynarray::size">
<polygon fill="none" stroke="black" points="165.5,-76.5 165.5,-95.5 286.5,-95.5 286.5,-76.5 165.5,-76.5"/>
<text text-anchor="middle" x="226" y="-83.5" font-family="Helvetica,sans-Serif" font-size="10.00">INMOST::dynarray::size</text>
</a>
</g>
</g>
<!-- Node1&#45;&gt;Node2 -->
<g id="edge1" class="edge"><title>Node1&#45;&gt;Node2</title>
<path fill="none" stroke="midnightblue" d="M115.334,-60.9712C134.093,-65.2525 154.848,-69.9894 173.21,-74.18"/>
<polygon fill="midnightblue" stroke="midnightblue" points="172.608,-77.6326 183.136,-76.4455 174.166,-70.8081 172.608,-77.6326"/>
</g>
<!-- Node3 -->
<g id="node3" class="node"><title>Node3</title>
<g id="a_node3"><a xlink:href="class_i_n_m_o_s_t_1_1dynarray.html#accbf4d646f6337f58160ceca6e6f084d" target="_top" xlink:title="INMOST::dynarray::push_back">
<polygon fill="none" stroke="black" points="151,-38.5 151,-57.5 301,-57.5 301,-38.5 151,-38.5"/>
<text text-anchor="middle" x="226" y="-45.5" font-family="Helvetica,sans-Serif" font-size="10.00">INMOST::dynarray::push_back</text>
</a>
</g>
</g>
<!-- Node1&#45;&gt;Node3 -->
<g id="edge2" class="edge"><title>Node1&#45;&gt;Node3</title>
<path fill="none" stroke="midnightblue" d="M115.334,-48C123.527,-48 132.101,-48 140.69,-48"/>
<polygon fill="midnightblue" stroke="midnightblue" points="140.758,-51.5001 150.758,-48 140.757,-44.5001 140.758,-51.5001"/>
</g>
<!-- Node4 -->
<g id="node4" class="node"><title>Node4</title>
<g id="a_node4"><a xlink:href="class_i_n_m_o_s_t_1_1dynarray.html#ac93cbe00824a74cea9848d0c66ac1f45" target="_top" xlink:title="INMOST::dynarray::back">
<polygon fill="none" stroke="black" points="164,-0.5 164,-19.5 288,-19.5 288,-0.5 164,-0.5"/>
<text text-anchor="middle" x="226" y="-7.5" font-family="Helvetica,sans-Serif" font-size="10.00">INMOST::dynarray::back</text>
</a>
</g>
</g>
<!-- Node1&#45;&gt;Node4 -->
<g id="edge3" class="edge"><title>Node1&#45;&gt;Node4</title>
<path fill="none" stroke="midnightblue" d="M115.334,-35.0288C134.093,-30.7475 154.848,-26.0106 173.21,-21.82"/>
<polygon fill="midnightblue" stroke="midnightblue" points="174.166,-25.1919 183.136,-19.5545 172.608,-18.3674 174.166,-25.1919"/>
</g>
</g>
</svg>
