<?xml version="1.0" encoding="UTF-8" standalone="no"?>
<!DOCTYPE svg PUBLIC "-//W3C//DTD SVG 1.1//EN"
 "http://www.w3.org/Graphics/SVG/1.1/DTD/svg11.dtd">
<!-- Generated by graphviz version 2.38.0 (20140413.2041)
 -->
<!-- Title: INMOST::Matrix::Unit Pages: 1 -->
<svg width="436pt" height="28pt"
 viewBox="0.00 0.00 436.00 28.00" xmlns="http://www.w3.org/2000/svg" xmlns:xlink="http://www.w3.org/1999/xlink">
<g id="graph0" class="graph" transform="scale(1 1) rotate(0) translate(4 24)">
<title>INMOST::Matrix::Unit</title>
<!-- Node1 -->
<g id="node1" class="node"><title>Node1</title>
<polygon fill="#bfbfbf" stroke="black" points="0,-0.5 0,-19.5 110,-19.5 110,-0.5 0,-0.5"/>
<text text-anchor="middle" x="55" y="-7.5" font-family="Helvetica,sans-Serif" font-size="10.00">INMOST::Matrix::Unit</text>
</g>
<!-- Node2 -->
<g id="node2" class="node"><title>Node2</title>
<g id="a_node2"><a xlink:href="class_i_n_m_o_s_t_1_1_matrix.html#ab621083d1f37df018feec6163618c1cd" target="_top" xlink:title="INMOST::Matrix::Invert">
<polygon fill="none" stroke="black" points="146,-0.5 146,-19.5 261,-19.5 261,-0.5 146,-0.5"/>
<text text-anchor="middle" x="203.5" y="-7.5" font-family="Helvetica,sans-Serif" font-size="10.00">INMOST::Matrix::Invert</text>
</a>
</g>
</g>
<!-- Node1&#45;&gt;Node2 -->
<g id="edge1" class="edge"><title>Node1&#45;&gt;Node2</title>
<path fill="none" stroke="midnightblue" d="M120.313,-10C128.747,-10 137.342,-10 145.641,-10"/>
<polygon fill="midnightblue" stroke="midnightblue" points="120.135,-6.5001 110.135,-10 120.135,-13.5001 120.135,-6.5001"/>
</g>
<!-- Node3 -->
<g id="node3" class="node"><title>Node3</title>
<g id="a_node3"><a xlink:href="class_i_n_m_o_s_t_1_1_matrix.html#a308fc7a550c7de8c21b9ef17eecba603" target="_top" xlink:title="INMOST::Matrix::operator/">
<polygon fill="none" stroke="black" points="297,-0.5 297,-19.5 428,-19.5 428,-0.5 297,-0.5"/>
<text text-anchor="middle" x="362.5" y="-7.5" font-family="Helvetica,sans-Serif" font-size="10.00">INMOST::Matrix::operator/</text>
</a>
</g>
</g>
<!-- Node2&#45;&gt;Node3 -->
<g id="edge2" class="edge"><title>Node2&#45;&gt;Node3</title>
<path fill="none" stroke="midnightblue" d="M271.381,-10C279.84,-10 288.483,-10 296.906,-10"/>
<polygon fill="midnightblue" stroke="midnightblue" points="271.181,-6.5001 261.181,-10 271.181,-13.5001 271.181,-6.5001"/>
</g>
</g>
</svg>
