<?xml version="1.0" encoding="UTF-8" standalone="no"?>
<!DOCTYPE svg PUBLIC "-//W3C//DTD SVG 1.1//EN"
 "http://www.w3.org/Graphics/SVG/1.1/DTD/svg11.dtd">
<!-- Generated by graphviz version 2.38.0 (20140413.2041)
 -->
<!-- Title: INMOST::dynarray::erase Pages: 1 -->
<svg width="300pt" height="78pt"
 viewBox="0.00 0.00 300.00 77.50" xmlns="http://www.w3.org/2000/svg" xmlns:xlink="http://www.w3.org/1999/xlink">
<g id="graph0" class="graph" transform="scale(1 1) rotate(0) translate(4 73.5)">
<title>INMOST::dynarray::erase</title>
<!-- Node1 -->
<g id="node1" class="node"><title>Node1</title>
<polygon fill="#bfbfbf" stroke="black" points="0,-28 0,-47 127,-47 127,-28 0,-28"/>
<text text-anchor="middle" x="63.5" y="-35" font-family="Helvetica,sans-Serif" font-size="10.00">INMOST::dynarray::erase</text>
</g>
<!-- Node2 -->
<g id="node2" class="node"><title>Node2</title>
<g id="a_node2"><a xlink:href="class_i_n_m_o_s_t_1_1tiny__map.html#a6e309e0a3f7b58707d4f010b09ac57f4" target="_top" xlink:title="INMOST::tiny_map::erase">
<polygon fill="none" stroke="black" points="163,-50 163,-69 292,-69 292,-50 163,-50"/>
<text text-anchor="middle" x="227.5" y="-57" font-family="Helvetica,sans-Serif" font-size="10.00">INMOST::tiny_map::erase</text>
</a>
</g>
</g>
<!-- Node1&#45;&gt;Node2 -->
<g id="edge1" class="edge"><title>Node1&#45;&gt;Node2</title>
<path fill="none" stroke="midnightblue" d="M137.155,-47.3668C145.763,-48.5357 154.497,-49.7218 162.964,-50.8716"/>
<polygon fill="midnightblue" stroke="midnightblue" points="137.513,-43.8834 127.133,-46.0058 136.571,-50.8197 137.513,-43.8834"/>
</g>
<!-- Node3 -->
<g id="node3" class="node"><title>Node3</title>
<g id="a_node3"><a xlink:href="class_i_n_m_o_s_t_1_1_element_array.html#a52337d2ab362cc95b0df62c516ef4161" target="_top" xlink:title="INMOST::ElementArray\l::erase">
<polygon fill="none" stroke="black" points="168,-0.5 168,-30.5 287,-30.5 287,-0.5 168,-0.5"/>
<text text-anchor="start" x="176" y="-18.5" font-family="Helvetica,sans-Serif" font-size="10.00">INMOST::ElementArray</text>
<text text-anchor="middle" x="227.5" y="-7.5" font-family="Helvetica,sans-Serif" font-size="10.00">::erase</text>
</a>
</g>
</g>
<!-- Node1&#45;&gt;Node3 -->
<g id="edge2" class="edge"><title>Node1&#45;&gt;Node3</title>
<path fill="none" stroke="midnightblue" d="M137.258,-27.6193C147.465,-26.2332 157.849,-24.823 167.751,-23.4782"/>
<polygon fill="midnightblue" stroke="midnightblue" points="136.571,-24.1803 127.133,-28.9942 137.513,-31.1166 136.571,-24.1803"/>
</g>
</g>
</svg>
