<?xml version="1.0" encoding="UTF-8" standalone="no"?>
<!DOCTYPE svg PUBLIC "-//W3C//DTD SVG 1.1//EN"
 "http://www.w3.org/Graphics/SVG/1.1/DTD/svg11.dtd">
<!-- Generated by graphviz version 2.38.0 (20140413.2041)
 -->
<!-- Title: INMOST::enhanced_multivar_expression::operator&#45;= Pages: 1 -->
<svg width="329pt" height="284pt"
 viewBox="0.00 0.00 329.00 284.00" xmlns="http://www.w3.org/2000/svg" xmlns:xlink="http://www.w3.org/1999/xlink">
<g id="graph0" class="graph" transform="scale(1 1) rotate(0) translate(4 280)">
<title>INMOST::enhanced_multivar_expression::operator&#45;=</title>
<!-- Node1 -->
<g id="node1" class="node"><title>Node1</title>
<polygon fill="#bfbfbf" stroke="black" points="0,-122.5 0,-152.5 140,-152.5 140,-122.5 0,-122.5"/>
<text text-anchor="start" x="8" y="-140.5" font-family="Helvetica,sans-Serif" font-size="10.00">INMOST::enhanced_multivar</text>
<text text-anchor="middle" x="70" y="-129.5" font-family="Helvetica,sans-Serif" font-size="10.00">_expression::operator&#45;=</text>
</g>
<!-- Node2 -->
<g id="node2" class="node"><title>Node2</title>
<g id="a_node2"><a xlink:href="class_i_n_m_o_s_t_1_1basic__expression.html#a80781d2a414c9af01e59a97aeae7151e" target="_top" xlink:title="INMOST::basic_expression\l::GetValue">
<polygon fill="none" stroke="black" points="181,-245.5 181,-275.5 316,-275.5 316,-245.5 181,-245.5"/>
<text text-anchor="start" x="189" y="-263.5" font-family="Helvetica,sans-Serif" font-size="10.00">INMOST::basic_expression</text>
<text text-anchor="middle" x="248.5" y="-252.5" font-family="Helvetica,sans-Serif" font-size="10.00">::GetValue</text>
</a>
</g>
</g>
<!-- Node1&#45;&gt;Node2 -->
<g id="edge1" class="edge"><title>Node1&#45;&gt;Node2</title>
<path fill="none" stroke="midnightblue" d="M83.343,-152.724C101.524,-174.23 137.533,-213.446 176,-236.5 178.808,-238.183 181.749,-239.766 184.771,-241.252"/>
<polygon fill="midnightblue" stroke="midnightblue" points="183.471,-244.506 194.026,-245.427 186.349,-238.125 183.471,-244.506"/>
</g>
<!-- Node3 -->
<g id="node3" class="node"><title>Node3</title>
<g id="a_node3"><a xlink:href="class_i_n_m_o_s_t_1_1_automatizator.html#a5bb5f3a05ecf6694cac01abc586df7af" target="_top" xlink:title="INMOST::Automatizator\l::GetMerger">
<polygon fill="none" stroke="black" points="188.5,-196.5 188.5,-226.5 308.5,-226.5 308.5,-196.5 188.5,-196.5"/>
<text text-anchor="start" x="196.5" y="-214.5" font-family="Helvetica,sans-Serif" font-size="10.00">INMOST::Automatizator</text>
<text text-anchor="middle" x="248.5" y="-203.5" font-family="Helvetica,sans-Serif" font-size="10.00">::GetMerger</text>
</a>
</g>
</g>
<!-- Node1&#45;&gt;Node3 -->
<g id="edge2" class="edge"><title>Node1&#45;&gt;Node3</title>
<path fill="none" stroke="midnightblue" d="M100.444,-152.695C121.261,-163.146 149.981,-176.983 176,-187.5 180.66,-189.384 185.531,-191.242 190.444,-193.041"/>
<polygon fill="midnightblue" stroke="midnightblue" points="189.305,-196.351 199.9,-196.416 191.659,-189.758 189.305,-196.351"/>
</g>
<!-- Node4 -->
<g id="node4" class="node"><title>Node4</title>
<g id="a_node4"><a xlink:href="class_i_n_m_o_s_t_1_1_sparse_1_1_row_merger.html#a16f262c7b5e1c03ca1aef57c5c8984dd" target="_top" xlink:title="INMOST::Sparse::RowMerger\l::PushRow">
<polygon fill="none" stroke="black" points="176,-147.5 176,-177.5 321,-177.5 321,-147.5 176,-147.5"/>
<text text-anchor="start" x="184" y="-165.5" font-family="Helvetica,sans-Serif" font-size="10.00">INMOST::Sparse::RowMerger</text>
<text text-anchor="middle" x="248.5" y="-154.5" font-family="Helvetica,sans-Serif" font-size="10.00">::PushRow</text>
</a>
</g>
</g>
<!-- Node1&#45;&gt;Node4 -->
<g id="edge3" class="edge"><title>Node1&#45;&gt;Node4</title>
<path fill="none" stroke="midnightblue" d="M140.251,-147.309C148.65,-148.499 157.29,-149.722 165.847,-150.934"/>
<polygon fill="midnightblue" stroke="midnightblue" points="165.443,-154.412 175.835,-152.349 166.425,-147.481 165.443,-154.412"/>
</g>
<!-- Node5 -->
<g id="node5" class="node"><title>Node5</title>
<g id="a_node5"><a xlink:href="class_i_n_m_o_s_t_1_1basic__expression.html#aa609f80b19e9d7cc70614aa667e04920" target="_top" xlink:title="INMOST::basic_expression\l::GetDerivative">
<polygon fill="none" stroke="black" points="181,-98.5 181,-128.5 316,-128.5 316,-98.5 181,-98.5"/>
<text text-anchor="start" x="189" y="-116.5" font-family="Helvetica,sans-Serif" font-size="10.00">INMOST::basic_expression</text>
<text text-anchor="middle" x="248.5" y="-105.5" font-family="Helvetica,sans-Serif" font-size="10.00">::GetDerivative</text>
</a>
</g>
</g>
<!-- Node1&#45;&gt;Node5 -->
<g id="edge4" class="edge"><title>Node1&#45;&gt;Node5</title>
<path fill="none" stroke="midnightblue" d="M140.251,-128.083C150.247,-126.724 160.584,-125.319 170.716,-123.941"/>
<polygon fill="midnightblue" stroke="midnightblue" points="171.322,-127.391 180.759,-122.575 170.379,-120.455 171.322,-127.391"/>
</g>
<!-- Node6 -->
<g id="node6" class="node"><title>Node6</title>
<g id="a_node6"><a xlink:href="class_i_n_m_o_s_t_1_1_sparse_1_1_row_merger.html#ac89fd9b0b08606d13e7e57c93d8c5089" target="_top" xlink:title="INMOST::Sparse::RowMerger\l::RetriveRow">
<polygon fill="none" stroke="black" points="176,-49.5 176,-79.5 321,-79.5 321,-49.5 176,-49.5"/>
<text text-anchor="start" x="184" y="-67.5" font-family="Helvetica,sans-Serif" font-size="10.00">INMOST::Sparse::RowMerger</text>
<text text-anchor="middle" x="248.5" y="-56.5" font-family="Helvetica,sans-Serif" font-size="10.00">::RetriveRow</text>
</a>
</g>
</g>
<!-- Node1&#45;&gt;Node6 -->
<g id="edge5" class="edge"><title>Node1&#45;&gt;Node6</title>
<path fill="none" stroke="midnightblue" d="M101.915,-122.455C122.658,-112.587 150.711,-99.6761 176,-89.5 181.393,-87.3301 187.055,-85.1641 192.732,-83.0655"/>
<polygon fill="midnightblue" stroke="midnightblue" points="194.051,-86.3102 202.257,-79.6084 191.663,-79.7302 194.051,-86.3102"/>
</g>
<!-- Node7 -->
<g id="node7" class="node"><title>Node7</title>
<g id="a_node7"><a xlink:href="class_i_n_m_o_s_t_1_1_sparse_1_1_row_merger.html#ac3cceb3d381017712c7e8dc4c23b85a2" target="_top" xlink:title="Clear linked list. ">
<polygon fill="none" stroke="black" points="176,-0.5 176,-30.5 321,-30.5 321,-0.5 176,-0.5"/>
<text text-anchor="start" x="184" y="-18.5" font-family="Helvetica,sans-Serif" font-size="10.00">INMOST::Sparse::RowMerger</text>
<text text-anchor="middle" x="248.5" y="-7.5" font-family="Helvetica,sans-Serif" font-size="10.00">::Clear</text>
</a>
</g>
</g>
<!-- Node1&#45;&gt;Node7 -->
<g id="edge6" class="edge"><title>Node1&#45;&gt;Node7</title>
<path fill="none" stroke="midnightblue" d="M83.7576,-122.309C102.163,-101.261 138.136,-63.2531 176,-40.5 179.39,-38.4627 182.971,-36.5591 186.65,-34.7858"/>
<polygon fill="midnightblue" stroke="midnightblue" points="188.237,-37.9105 195.948,-30.6444 185.389,-31.5162 188.237,-37.9105"/>
</g>
</g>
</svg>
