<?xml version="1.0" encoding="UTF-8" standalone="no"?>
<!DOCTYPE svg PUBLIC "-//W3C//DTD SVG 1.1//EN"
 "http://www.w3.org/Graphics/SVG/1.1/DTD/svg11.dtd">
<!-- Generated by graphviz version 2.38.0 (20140413.2041)
 -->
<!-- Title: INMOST::chunk_bulk_array::inner_resize Pages: 1 -->
<svg width="279pt" height="137pt"
 viewBox="0.00 0.00 279.00 137.00" xmlns="http://www.w3.org/2000/svg" xmlns:xlink="http://www.w3.org/1999/xlink">
<g id="graph0" class="graph" transform="scale(1 1) rotate(0) translate(4 133)">
<title>INMOST::chunk_bulk_array::inner_resize</title>
<!-- Node1 -->
<g id="node1" class="node"><title>Node1</title>
<polygon fill="#bfbfbf" stroke="black" points="0,-49.5 0,-79.5 109,-79.5 109,-49.5 0,-49.5"/>
<text text-anchor="start" x="8" y="-67.5" font-family="Helvetica,sans-Serif" font-size="10.00">INMOST::chunk_bulk</text>
<text text-anchor="middle" x="54.5" y="-56.5" font-family="Helvetica,sans-Serif" font-size="10.00">_array::inner_resize</text>
</g>
<!-- Node2 -->
<g id="node2" class="node"><title>Node2</title>
<g id="a_node2"><a xlink:href="class_i_n_m_o_s_t_1_1chunk__bulk__array.html#ae6ffef353732a7e98f50eac283173f92" target="_top" xlink:title="INMOST::chunk_bulk\l_array::chunk_bulk_array">
<polygon fill="none" stroke="black" points="145,-98.5 145,-128.5 271,-128.5 271,-98.5 145,-98.5"/>
<text text-anchor="start" x="153" y="-116.5" font-family="Helvetica,sans-Serif" font-size="10.00">INMOST::chunk_bulk</text>
<text text-anchor="middle" x="208" y="-105.5" font-family="Helvetica,sans-Serif" font-size="10.00">_array::chunk_bulk_array</text>
</a>
</g>
</g>
<!-- Node1&#45;&gt;Node2 -->
<g id="edge1" class="edge"><title>Node1&#45;&gt;Node2</title>
<path fill="none" stroke="midnightblue" d="M111.954,-82.7591C127.933,-87.9273 145.14,-93.4924 160.463,-98.4484"/>
<polygon fill="midnightblue" stroke="midnightblue" points="112.783,-79.3487 102.191,-79.6014 110.629,-86.009 112.783,-79.3487"/>
</g>
<!-- Node3 -->
<g id="node3" class="node"><title>Node3</title>
<g id="a_node3"><a xlink:href="class_i_n_m_o_s_t_1_1chunk__bulk__array.html#a106e009c592d7e4ae6e34e8e72cd3e95" target="_top" xlink:title="INMOST::chunk_bulk\l_array::operator=">
<polygon fill="none" stroke="black" points="153.5,-49.5 153.5,-79.5 262.5,-79.5 262.5,-49.5 153.5,-49.5"/>
<text text-anchor="start" x="161.5" y="-67.5" font-family="Helvetica,sans-Serif" font-size="10.00">INMOST::chunk_bulk</text>
<text text-anchor="middle" x="208" y="-56.5" font-family="Helvetica,sans-Serif" font-size="10.00">_array::operator=</text>
</a>
</g>
</g>
<!-- Node1&#45;&gt;Node3 -->
<g id="edge2" class="edge"><title>Node1&#45;&gt;Node3</title>
<path fill="none" stroke="midnightblue" d="M119.544,-64.5C130.796,-64.5 142.401,-64.5 153.334,-64.5"/>
<polygon fill="midnightblue" stroke="midnightblue" points="119.34,-61.0001 109.34,-64.5 119.34,-68.0001 119.34,-61.0001"/>
</g>
<!-- Node4 -->
<g id="node4" class="node"><title>Node4</title>
<g id="a_node4"><a xlink:href="class_i_n_m_o_s_t_1_1chunk__bulk__array.html#a5d34978b2f7f909cf01e774e2abdb0f7" target="_top" xlink:title="INMOST::chunk_bulk\l_array::resize">
<polygon fill="none" stroke="black" points="153.5,-0.5 153.5,-30.5 262.5,-30.5 262.5,-0.5 153.5,-0.5"/>
<text text-anchor="start" x="161.5" y="-18.5" font-family="Helvetica,sans-Serif" font-size="10.00">INMOST::chunk_bulk</text>
<text text-anchor="middle" x="208" y="-7.5" font-family="Helvetica,sans-Serif" font-size="10.00">_array::resize</text>
</a>
</g>
</g>
<!-- Node1&#45;&gt;Node4 -->
<g id="edge3" class="edge"><title>Node1&#45;&gt;Node4</title>
<path fill="none" stroke="midnightblue" d="M111.954,-46.2409C127.933,-41.0727 145.14,-35.5076 160.463,-30.5516"/>
<polygon fill="midnightblue" stroke="midnightblue" points="110.629,-42.991 102.191,-49.3986 112.783,-49.6513 110.629,-42.991"/>
</g>
</g>
</svg>
