<?xml version="1.0" encoding="UTF-8" standalone="no"?>
<!DOCTYPE svg PUBLIC "-//W3C//DTD SVG 1.1//EN"
 "http://www.w3.org/Graphics/SVG/1.1/DTD/svg11.dtd">
<!-- Generated by graphviz version 2.38.0 (20140413.2041)
 -->
<!-- Title: INMOST::tiny_map&lt; key, value, stacked &gt;::iterator Pages: 1 -->
<svg width="135pt" height="182pt"
 viewBox="0.00 0.00 135.00 182.00" xmlns="http://www.w3.org/2000/svg" xmlns:xlink="http://www.w3.org/1999/xlink">
<g id="graph0" class="graph" transform="scale(1 1) rotate(0) translate(4 178)">
<title>INMOST::tiny_map&lt; key, value, stacked &gt;::iterator</title>
<!-- Node1 -->
<g id="node1" class="node"><title>Node1</title>
<polygon fill="#bfbfbf" stroke="black" points="0,-0.5 0,-79.5 127,-79.5 127,-0.5 0,-0.5"/>
<text text-anchor="start" x="8" y="-67.5" font-family="Helvetica,sans-Serif" font-size="10.00">INMOST::tiny_map&lt; key,</text>
<text text-anchor="middle" x="63.5" y="-56.5" font-family="Helvetica,sans-Serif" font-size="10.00"> value, stacked &gt;::iterator</text>
<polyline fill="none" stroke="black" points="0,-49.5 127,-49.5 "/>
<text text-anchor="middle" x="63.5" y="-37.5" font-family="Helvetica,sans-Serif" font-size="10.00"> </text>
<polyline fill="none" stroke="black" points="0,-30.5 127,-30.5 "/>
<text text-anchor="start" x="8" y="-18.5" font-family="Helvetica,sans-Serif" font-size="10.00">+ iterator()</text>
<text text-anchor="start" x="8" y="-7.5" font-family="Helvetica,sans-Serif" font-size="10.00">+ iterator()</text>
</g>
<!-- Node2 -->
<g id="node2" class="node"><title>Node2</title>
<polygon fill="none" stroke="#bfbfbf" points="17.5,-116.5 17.5,-173.5 109.5,-173.5 109.5,-116.5 17.5,-116.5"/>
<text text-anchor="middle" x="63.5" y="-161.5" font-family="Helvetica,sans-Serif" font-size="10.00">container::iterator</text>
<polyline fill="none" stroke="#bfbfbf" points="17.5,-154.5 109.5,-154.5 "/>
<text text-anchor="middle" x="63.5" y="-142.5" font-family="Helvetica,sans-Serif" font-size="10.00"> </text>
<polyline fill="none" stroke="#bfbfbf" points="17.5,-135.5 109.5,-135.5 "/>
<text text-anchor="middle" x="63.5" y="-123.5" font-family="Helvetica,sans-Serif" font-size="10.00"> </text>
</g>
<!-- Node2&#45;&gt;Node1 -->
<g id="edge1" class="edge"><title>Node2&#45;&gt;Node1</title>
<path fill="none" stroke="midnightblue" d="M63.5,-106.156C63.5,-97.4733 63.5,-88.2318 63.5,-79.5205"/>
<polygon fill="none" stroke="midnightblue" points="60.0001,-106.398 63.5,-116.398 67.0001,-106.398 60.0001,-106.398"/>
</g>
</g>
</svg>
