<?xml version="1.0" encoding="UTF-8" standalone="no"?>
<!DOCTYPE svg PUBLIC "-//W3C//DTD SVG 1.1//EN"
 "http://www.w3.org/Graphics/SVG/1.1/DTD/svg11.dtd">
<!-- Generated by graphviz version 2.38.0 (20140413.2041)
 -->
<!-- Title: INMOST::Mesh::Integer Pages: 1 -->
<svg width="502pt" height="137pt"
 viewBox="0.00 0.00 502.00 137.00" xmlns="http://www.w3.org/2000/svg" xmlns:xlink="http://www.w3.org/1999/xlink">
<g id="graph0" class="graph" transform="scale(1 1) rotate(0) translate(4 133)">
<title>INMOST::Mesh::Integer</title>
<!-- Node1 -->
<g id="node1" class="node"><title>Node1</title>
<polygon fill="#bfbfbf" stroke="black" points="0,-77 0,-96 119,-96 119,-77 0,-77"/>
<text text-anchor="middle" x="59.5" y="-84" font-family="Helvetica,sans-Serif" font-size="10.00">INMOST::Mesh::Integer</text>
</g>
<!-- Node2 -->
<g id="node2" class="node"><title>Node2</title>
<g id="a_node2"><a xlink:href="class_i_n_m_o_s_t_1_1_mesh_1_1_integer_comparator.html#a521ea8d9df71795f037272d6a45523de" target="_top" xlink:title="INMOST::Mesh::IntegerComparator\l::operator()">
<polygon fill="none" stroke="black" points="155,-93.5 155,-123.5 324,-123.5 324,-93.5 155,-93.5"/>
<text text-anchor="start" x="163" y="-111.5" font-family="Helvetica,sans-Serif" font-size="10.00">INMOST::Mesh::IntegerComparator</text>
<text text-anchor="middle" x="239.5" y="-100.5" font-family="Helvetica,sans-Serif" font-size="10.00">::operator()</text>
</a>
</g>
</g>
<!-- Node1&#45;&gt;Node2 -->
<g id="edge1" class="edge"><title>Node1&#45;&gt;Node2</title>
<path fill="none" stroke="midnightblue" d="M129.368,-95.0118C137.761,-96.0492 146.407,-97.1177 154.984,-98.1778"/>
<polygon fill="midnightblue" stroke="midnightblue" points="129.631,-91.5177 119.277,-93.7646 128.772,-98.4649 129.631,-91.5177"/>
</g>
<!-- Node3 -->
<g id="node3" class="node"><title>Node3</title>
<g id="a_node3"><a xlink:href="class_i_n_m_o_s_t_1_1_storage.html#a494c65f9a4fab2831e47ad2f8fe44f5b" target="_top" xlink:title="INMOST::Storage::Integer">
<polygon fill="none" stroke="black" points="175.5,-55 175.5,-74 303.5,-74 303.5,-55 175.5,-55"/>
<text text-anchor="middle" x="239.5" y="-62" font-family="Helvetica,sans-Serif" font-size="10.00">INMOST::Storage::Integer</text>
</a>
</g>
</g>
<!-- Node1&#45;&gt;Node3 -->
<g id="edge2" class="edge"><title>Node1&#45;&gt;Node3</title>
<path fill="none" stroke="midnightblue" d="M129.591,-77.9606C144.709,-76.0921 160.634,-74.1238 175.499,-72.2866"/>
<polygon fill="midnightblue" stroke="midnightblue" points="128.772,-74.5351 119.277,-79.2354 129.631,-81.4823 128.772,-74.5351"/>
</g>
<!-- Node4 -->
<g id="node4" class="node"><title>Node4</title>
<g id="a_node4"><a xlink:href="class_i_n_m_o_s_t_1_1dynamic__variable.html#a41483a4546777613637e523f4f57ec81" target="_top" xlink:title="INMOST::dynamic_variable\l::Index">
<polygon fill="none" stroke="black" points="360,-98.5 360,-128.5 494,-128.5 494,-98.5 360,-98.5"/>
<text text-anchor="start" x="368" y="-116.5" font-family="Helvetica,sans-Serif" font-size="10.00">INMOST::dynamic_variable</text>
<text text-anchor="middle" x="427" y="-105.5" font-family="Helvetica,sans-Serif" font-size="10.00">::Index</text>
</a>
</g>
</g>
<!-- Node3&#45;&gt;Node4 -->
<g id="edge3" class="edge"><title>Node3&#45;&gt;Node4</title>
<path fill="none" stroke="midnightblue" d="M291.812,-76.432C302.472,-79.0112 313.618,-81.7821 324,-84.5 340.563,-88.8362 358.554,-93.8491 374.748,-98.4747"/>
<polygon fill="midnightblue" stroke="midnightblue" points="292.323,-72.9552 281.782,-74.0259 290.69,-79.7621 292.323,-72.9552"/>
</g>
<!-- Node5 -->
<g id="node5" class="node"><title>Node5</title>
<g id="a_node5"><a xlink:href="class_i_n_m_o_s_t_1_1dynamic__variable.html#a432e3db3a15b60eebc084cfd8dcfb28e" target="_top" xlink:title="INMOST::dynamic_variable\l::Variable">
<polygon fill="none" stroke="black" points="360,-49.5 360,-79.5 494,-79.5 494,-49.5 360,-49.5"/>
<text text-anchor="start" x="368" y="-67.5" font-family="Helvetica,sans-Serif" font-size="10.00">INMOST::dynamic_variable</text>
<text text-anchor="middle" x="427" y="-56.5" font-family="Helvetica,sans-Serif" font-size="10.00">::Variable</text>
</a>
</g>
</g>
<!-- Node3&#45;&gt;Node5 -->
<g id="edge4" class="edge"><title>Node3&#45;&gt;Node5</title>
<path fill="none" stroke="midnightblue" d="M313.94,-64.5C329.129,-64.5 345.042,-64.5 359.948,-64.5"/>
<polygon fill="midnightblue" stroke="midnightblue" points="313.561,-61.0001 303.561,-64.5 313.561,-68.0001 313.561,-61.0001"/>
</g>
<!-- Node6 -->
<g id="node6" class="node"><title>Node6</title>
<g id="a_node6"><a xlink:href="class_i_n_m_o_s_t_1_1dynamic__variable.html#af98d84e841029239fe4b098025ef0801" target="_top" xlink:title="INMOST::dynamic_variable\l::operator[]">
<polygon fill="none" stroke="black" points="360,-0.5 360,-30.5 494,-30.5 494,-0.5 360,-0.5"/>
<text text-anchor="start" x="368" y="-18.5" font-family="Helvetica,sans-Serif" font-size="10.00">INMOST::dynamic_variable</text>
<text text-anchor="middle" x="427" y="-7.5" font-family="Helvetica,sans-Serif" font-size="10.00">::operator[]</text>
</a>
</g>
</g>
<!-- Node3&#45;&gt;Node6 -->
<g id="edge5" class="edge"><title>Node3&#45;&gt;Node6</title>
<path fill="none" stroke="midnightblue" d="M286.646,-52.3104C311.599,-45.7192 342.632,-37.5218 369.074,-30.537"/>
<polygon fill="midnightblue" stroke="midnightblue" points="285.481,-48.9981 276.707,-54.936 287.269,-55.7659 285.481,-48.9981"/>
</g>
</g>
</svg>
