<?xml version="1.0" encoding="UTF-8" standalone="no"?>
<!DOCTYPE svg PUBLIC "-//W3C//DTD SVG 1.1//EN"
 "http://www.w3.org/Graphics/SVG/1.1/DTD/svg11.dtd">
<!-- Generated by graphviz version 2.38.0 (20140413.2041)
 -->
<!-- Title: INMOST::array::resize Pages: 1 -->
<svg width="440pt" height="116pt"
 viewBox="0.00 0.00 440.00 115.50" xmlns="http://www.w3.org/2000/svg" xmlns:xlink="http://www.w3.org/1999/xlink">
<g id="graph0" class="graph" transform="scale(1 1) rotate(0) translate(4 111.5)">
<title>INMOST::array::resize</title>
<!-- Node1 -->
<g id="node1" class="node"><title>Node1</title>
<polygon fill="#bfbfbf" stroke="black" points="0,-38.5 0,-57.5 113,-57.5 113,-38.5 0,-38.5"/>
<text text-anchor="middle" x="56.5" y="-45.5" font-family="Helvetica,sans-Serif" font-size="10.00">INMOST::array::resize</text>
</g>
<!-- Node2 -->
<g id="node2" class="node"><title>Node2</title>
<g id="a_node2"><a xlink:href="class_i_n_m_o_s_t_1_1array.html#a32e54226dae489c5885a3bdae1ef5660" target="_top" xlink:title="INMOST::array\&lt; reference\l \&gt;::at_safe">
<polygon fill="none" stroke="black" points="151,-77 151,-107 281,-107 281,-77 151,-77"/>
<text text-anchor="start" x="159" y="-95" font-family="Helvetica,sans-Serif" font-size="10.00">INMOST::array&lt; reference</text>
<text text-anchor="middle" x="216" y="-84" font-family="Helvetica,sans-Serif" font-size="10.00"> &gt;::at_safe</text>
</a>
</g>
</g>
<!-- Node1&#45;&gt;Node2 -->
<g id="edge1" class="edge"><title>Node1&#45;&gt;Node2</title>
<path fill="none" stroke="midnightblue" d="M101.314,-60.2402C119.832,-65.4134 141.582,-71.4897 161.073,-76.9346"/>
<polygon fill="midnightblue" stroke="midnightblue" points="102.248,-56.8671 91.6752,-57.5473 100.365,-63.609 102.248,-56.8671"/>
</g>
<!-- Node3 -->
<g id="node3" class="node"><title>Node3</title>
<g id="a_node3"><a xlink:href="class_i_n_m_o_s_t_1_1_matrix.html#a988d2894b8ca8489cf03dae3d5818a46" target="_top" xlink:title="INMOST::Matrix::Resize">
<polygon fill="none" stroke="black" points="155,-38.5 155,-57.5 277,-57.5 277,-38.5 155,-38.5"/>
<text text-anchor="middle" x="216" y="-45.5" font-family="Helvetica,sans-Serif" font-size="10.00">INMOST::Matrix::Resize</text>
</a>
</g>
</g>
<!-- Node1&#45;&gt;Node3 -->
<g id="edge2" class="edge"><title>Node1&#45;&gt;Node3</title>
<path fill="none" stroke="midnightblue" d="M123.352,-48C133.808,-48 144.575,-48 154.89,-48"/>
<polygon fill="midnightblue" stroke="midnightblue" points="123.029,-44.5001 113.029,-48 123.029,-51.5001 123.029,-44.5001"/>
</g>
<!-- Node5 -->
<g id="node5" class="node"><title>Node5</title>
<g id="a_node5"><a xlink:href="class_i_n_m_o_s_t_1_1_matrix.html#a8e4f365b905d401498a9c2545f40857b" target="_top" xlink:title="INMOST::Matrix::operator=">
<polygon fill="none" stroke="black" points="149,-0.5 149,-19.5 283,-19.5 283,-0.5 149,-0.5"/>
<text text-anchor="middle" x="216" y="-7.5" font-family="Helvetica,sans-Serif" font-size="10.00">INMOST::Matrix::operator=</text>
</a>
</g>
</g>
<!-- Node1&#45;&gt;Node5 -->
<g id="edge5" class="edge"><title>Node1&#45;&gt;Node5</title>
<path fill="none" stroke="midnightblue" d="M107.104,-36.032C129.175,-30.7069 154.803,-24.5238 175.542,-19.5201"/>
<polygon fill="midnightblue" stroke="midnightblue" points="106.144,-32.6631 97.2439,-38.411 107.786,-39.4679 106.144,-32.6631"/>
</g>
<!-- Node4 -->
<g id="node4" class="node"><title>Node4</title>
<g id="a_node4"><a xlink:href="class_i_n_m_o_s_t_1_1_matrix.html#adf8bb731b7c0899039b99f2399d938c6" target="_top" xlink:title="INMOST::Matrix::SVD">
<polygon fill="none" stroke="black" points="319,-38.5 319,-57.5 432,-57.5 432,-38.5 319,-38.5"/>
<text text-anchor="middle" x="375.5" y="-45.5" font-family="Helvetica,sans-Serif" font-size="10.00">INMOST::Matrix::SVD</text>
</a>
</g>
</g>
<!-- Node3&#45;&gt;Node4 -->
<g id="edge3" class="edge"><title>Node3&#45;&gt;Node4</title>
<path fill="none" stroke="midnightblue" d="M287.45,-48C297.977,-48 308.704,-48 318.868,-48"/>
<polygon fill="midnightblue" stroke="midnightblue" points="287.443,-44.5001 277.443,-48 287.443,-51.5001 287.443,-44.5001"/>
</g>
<!-- Node4&#45;&gt;Node4 -->
<g id="edge4" class="edge"><title>Node4&#45;&gt;Node4</title>
<path fill="none" stroke="midnightblue" d="M346.008,-66.6539C347.24,-71.9368 357.071,-76 375.5,-76 403.582,-76 411.699,-66.5653 399.852,-57.7571"/>
<polygon fill="midnightblue" stroke="midnightblue" points="349.176,-68.1668 351.148,-57.7571 343.114,-64.665 349.176,-68.1668"/>
</g>
</g>
</svg>
