<?xml version="1.0" encoding="UTF-8" standalone="no"?>
<!DOCTYPE svg PUBLIC "-//W3C//DTD SVG 1.1//EN"
 "http://www.w3.org/Graphics/SVG/1.1/DTD/svg11.dtd">
<!-- Generated by graphviz version 2.38.0 (20140413.2041)
 -->
<!-- Title: INMOST::chunk_array::clear Pages: 1 -->
<svg width="297pt" height="132pt"
 viewBox="0.00 0.00 297.00 132.00" xmlns="http://www.w3.org/2000/svg" xmlns:xlink="http://www.w3.org/1999/xlink">
<g id="graph0" class="graph" transform="scale(1 1) rotate(0) translate(4 128)">
<title>INMOST::chunk_array::clear</title>
<!-- Node1 -->
<g id="node1" class="node"><title>Node1</title>
<polygon fill="#bfbfbf" stroke="black" points="0,-46.5 0,-76.5 113,-76.5 113,-46.5 0,-46.5"/>
<text text-anchor="start" x="8" y="-64.5" font-family="Helvetica,sans-Serif" font-size="10.00">INMOST::chunk_array</text>
<text text-anchor="middle" x="56.5" y="-53.5" font-family="Helvetica,sans-Serif" font-size="10.00">::clear</text>
</g>
<!-- Node2 -->
<g id="node2" class="node"><title>Node2</title>
<g id="a_node2"><a xlink:href="class_i_n_m_o_s_t_1_1chunk__array.html#a678532359245fd5d0d5008f405054b9c" target="_top" xlink:title="INMOST::chunk_array\l\&lt; INMOST_DATA_INTEGER\l_TYPE, chunk_bits_elems\l \&gt;::operator=">
<polygon fill="none" stroke="black" points="149,-71.5 149,-123.5 289,-123.5 289,-71.5 149,-71.5"/>
<text text-anchor="start" x="157" y="-111.5" font-family="Helvetica,sans-Serif" font-size="10.00">INMOST::chunk_array</text>
<text text-anchor="start" x="157" y="-100.5" font-family="Helvetica,sans-Serif" font-size="10.00">&lt; INMOST_DATA_INTEGER</text>
<text text-anchor="start" x="157" y="-89.5" font-family="Helvetica,sans-Serif" font-size="10.00">_TYPE, chunk_bits_elems</text>
<text text-anchor="middle" x="219" y="-78.5" font-family="Helvetica,sans-Serif" font-size="10.00"> &gt;::operator=</text>
</a>
</g>
</g>
<!-- Node1&#45;&gt;Node2 -->
<g id="edge1" class="edge"><title>Node1&#45;&gt;Node2</title>
<path fill="none" stroke="midnightblue" d="M123.039,-76.2004C131.544,-78.1079 140.276,-80.0667 148.837,-81.9869"/>
<polygon fill="midnightblue" stroke="midnightblue" points="123.708,-72.7636 113.185,-73.99 122.176,-79.5939 123.708,-72.7636"/>
</g>
<!-- Node3 -->
<g id="node3" class="node"><title>Node3</title>
<g id="a_node3"><a xlink:href="class_i_n_m_o_s_t_1_1chunk__array.html#ac7640c9eb875a704cee121a62c587cca" target="_top" xlink:title="INMOST::chunk_array\l\&lt; INMOST_DATA_INTEGER\l_TYPE, chunk_bits_elems\l \&gt;::~chunk_array">
<polygon fill="none" stroke="black" points="149,-0.5 149,-52.5 289,-52.5 289,-0.5 149,-0.5"/>
<text text-anchor="start" x="157" y="-40.5" font-family="Helvetica,sans-Serif" font-size="10.00">INMOST::chunk_array</text>
<text text-anchor="start" x="157" y="-29.5" font-family="Helvetica,sans-Serif" font-size="10.00">&lt; INMOST_DATA_INTEGER</text>
<text text-anchor="start" x="157" y="-18.5" font-family="Helvetica,sans-Serif" font-size="10.00">_TYPE, chunk_bits_elems</text>
<text text-anchor="middle" x="219" y="-7.5" font-family="Helvetica,sans-Serif" font-size="10.00"> &gt;::~chunk_array</text>
</a>
</g>
</g>
<!-- Node1&#45;&gt;Node3 -->
<g id="edge2" class="edge"><title>Node1&#45;&gt;Node3</title>
<path fill="none" stroke="midnightblue" d="M123.039,-47.2079C131.544,-45.3534 140.276,-43.4491 148.837,-41.5822"/>
<polygon fill="midnightblue" stroke="midnightblue" points="122.209,-43.8066 113.185,-49.3569 123.701,-50.6459 122.209,-43.8066"/>
</g>
</g>
</svg>
