<?xml version="1.0" encoding="UTF-8" standalone="no"?>
<!DOCTYPE svg PUBLIC "-//W3C//DTD SVG 1.1//EN"
 "http://www.w3.org/Graphics/SVG/1.1/DTD/svg11.dtd">
<!-- Generated by graphviz version 2.38.0 (20140413.2041)
 -->
<!-- Title: INMOST::soft_max_expression&lt; A, B &gt; Pages: 1 -->
<svg width="238pt" height="658pt"
 viewBox="0.00 0.00 238.00 658.00" xmlns="http://www.w3.org/2000/svg" xmlns:xlink="http://www.w3.org/1999/xlink">
<g id="graph0" class="graph" transform="scale(1 1) rotate(0) translate(4 654)">
<title>INMOST::soft_max_expression&lt; A, B &gt;</title>
<!-- Node1 -->
<g id="node1" class="node"><title>Node1</title>
<polygon fill="#bfbfbf" stroke="black" points="2,-0.5 2,-112.5 154,-112.5 154,-0.5 2,-0.5"/>
<text text-anchor="start" x="10" y="-100.5" font-family="Helvetica,sans-Serif" font-size="10.00">INMOST::soft_max_expression</text>
<text text-anchor="middle" x="78" y="-89.5" font-family="Helvetica,sans-Serif" font-size="10.00">&lt; A, B &gt;</text>
<polyline fill="none" stroke="black" points="2,-82.5 154,-82.5 "/>
<text text-anchor="middle" x="78" y="-70.5" font-family="Helvetica,sans-Serif" font-size="10.00"> </text>
<polyline fill="none" stroke="black" points="2,-63.5 154,-63.5 "/>
<text text-anchor="start" x="10" y="-51.5" font-family="Helvetica,sans-Serif" font-size="10.00">+ soft_max_expression()</text>
<text text-anchor="start" x="10" y="-40.5" font-family="Helvetica,sans-Serif" font-size="10.00">+ soft_max_expression()</text>
<text text-anchor="start" x="10" y="-29.5" font-family="Helvetica,sans-Serif" font-size="10.00">+ GetValue()</text>
<text text-anchor="start" x="10" y="-18.5" font-family="Helvetica,sans-Serif" font-size="10.00">+ GetDerivative()</text>
<text text-anchor="start" x="10" y="-7.5" font-family="Helvetica,sans-Serif" font-size="10.00">+ GetDerivative()</text>
</g>
<!-- Node2 -->
<g id="node2" class="node"><title>Node2</title>
<g id="a_node2"><a xlink:href="class_i_n_m_o_s_t_1_1shell__expression.html" target="_top" xlink:title="{INMOST::shell_expression\l\&lt; soft_max_expression\&lt;\l A, B \&gt; \&gt;\n||+ shell_expression()\l+ shell_expression()\l+ GetValue()\l+ GetDerivative()\l+ GetDerivative()\l+ operator soft_max_expression\l\&lt; A, B \&gt; &amp;()\l+ operator const soft\l_max_expression\&lt; A, B \&gt; &amp;()\l}">
<polygon fill="none" stroke="black" points="0,-150.5 0,-317.5 156,-317.5 156,-150.5 0,-150.5"/>
<text text-anchor="start" x="8" y="-305.5" font-family="Helvetica,sans-Serif" font-size="10.00">INMOST::shell_expression</text>
<text text-anchor="start" x="8" y="-294.5" font-family="Helvetica,sans-Serif" font-size="10.00">&lt; soft_max_expression&lt;</text>
<text text-anchor="middle" x="78" y="-283.5" font-family="Helvetica,sans-Serif" font-size="10.00"> A, B &gt; &gt;</text>
<polyline fill="none" stroke="black" points="0,-276.5 156,-276.5 "/>
<text text-anchor="middle" x="78" y="-264.5" font-family="Helvetica,sans-Serif" font-size="10.00"> </text>
<polyline fill="none" stroke="black" points="0,-257.5 156,-257.5 "/>
<text text-anchor="start" x="8" y="-245.5" font-family="Helvetica,sans-Serif" font-size="10.00">+ shell_expression()</text>
<text text-anchor="start" x="8" y="-234.5" font-family="Helvetica,sans-Serif" font-size="10.00">+ shell_expression()</text>
<text text-anchor="start" x="8" y="-223.5" font-family="Helvetica,sans-Serif" font-size="10.00">+ GetValue()</text>
<text text-anchor="start" x="8" y="-212.5" font-family="Helvetica,sans-Serif" font-size="10.00">+ GetDerivative()</text>
<text text-anchor="start" x="8" y="-201.5" font-family="Helvetica,sans-Serif" font-size="10.00">+ GetDerivative()</text>
<text text-anchor="start" x="8" y="-190.5" font-family="Helvetica,sans-Serif" font-size="10.00">+ operator soft_max_expression</text>
<text text-anchor="start" x="8" y="-179.5" font-family="Helvetica,sans-Serif" font-size="10.00">&lt; A, B &gt; &amp;()</text>
<text text-anchor="start" x="8" y="-168.5" font-family="Helvetica,sans-Serif" font-size="10.00">+ operator const soft</text>
<text text-anchor="start" x="8" y="-157.5" font-family="Helvetica,sans-Serif" font-size="10.00">_max_expression&lt; A, B &gt; &amp;()</text>
</a>
</g>
</g>
<!-- Node2&#45;&gt;Node1 -->
<g id="edge1" class="edge"><title>Node2&#45;&gt;Node1</title>
<path fill="none" stroke="midnightblue" d="M78,-140.177C78,-130.775 78,-121.451 78,-112.638"/>
<polygon fill="none" stroke="midnightblue" points="74.5001,-140.389 78,-150.389 81.5001,-140.389 74.5001,-140.389"/>
</g>
<!-- Node3 -->
<g id="node3" class="node"><title>Node3</title>
<g id="a_node3"><a xlink:href="class_i_n_m_o_s_t_1_1basic__expression.html" target="_top" xlink:title="{INMOST::basic_expression\n||+ basic_expression()\l+ basic_expression()\l+ GetValue()\l+ GetDerivative()\l+ GetDerivative()\l}">
<polygon fill="none" stroke="black" points="24.5,-548.5 24.5,-649.5 159.5,-649.5 159.5,-548.5 24.5,-548.5"/>
<text text-anchor="middle" x="92" y="-637.5" font-family="Helvetica,sans-Serif" font-size="10.00">INMOST::basic_expression</text>
<polyline fill="none" stroke="black" points="24.5,-630.5 159.5,-630.5 "/>
<text text-anchor="middle" x="92" y="-618.5" font-family="Helvetica,sans-Serif" font-size="10.00"> </text>
<polyline fill="none" stroke="black" points="24.5,-611.5 159.5,-611.5 "/>
<text text-anchor="start" x="32.5" y="-599.5" font-family="Helvetica,sans-Serif" font-size="10.00">+ basic_expression()</text>
<text text-anchor="start" x="32.5" y="-588.5" font-family="Helvetica,sans-Serif" font-size="10.00">+ basic_expression()</text>
<text text-anchor="start" x="32.5" y="-577.5" font-family="Helvetica,sans-Serif" font-size="10.00">+ GetValue()</text>
<text text-anchor="start" x="32.5" y="-566.5" font-family="Helvetica,sans-Serif" font-size="10.00">+ GetDerivative()</text>
<text text-anchor="start" x="32.5" y="-555.5" font-family="Helvetica,sans-Serif" font-size="10.00">+ GetDerivative()</text>
</a>
</g>
</g>
<!-- Node3&#45;&gt;Node2 -->
<g id="edge2" class="edge"><title>Node3&#45;&gt;Node2</title>
<path fill="none" stroke="midnightblue" d="M83.5265,-538.242C82.501,-529.133 81.6041,-519.829 81,-511 76.5592,-446.101 75.9845,-372.422 76.4245,-317.524"/>
<polygon fill="none" stroke="midnightblue" points="80.0785,-538.889 84.7302,-548.408 87.03,-538.066 80.0785,-538.889"/>
</g>
<!-- Node4 -->
<g id="node4" class="node"><title>Node4</title>
<g id="a_node4"><a xlink:href="class_i_n_m_o_s_t_1_1shell__expression.html" target="_top" xlink:title="{INMOST::shell_expression\l\&lt; Derived \&gt;\n||+ shell_expression()\l+ shell_expression()\l+ GetValue()\l+ GetDerivative()\l+ GetDerivative()\l+ operator Derived &amp;()\l+ operator const Derived &amp;()\l}">
<polygon fill="none" stroke="black" points="90,-376.5 90,-510.5 228,-510.5 228,-376.5 90,-376.5"/>
<text text-anchor="start" x="98" y="-498.5" font-family="Helvetica,sans-Serif" font-size="10.00">INMOST::shell_expression</text>
<text text-anchor="middle" x="159" y="-487.5" font-family="Helvetica,sans-Serif" font-size="10.00">&lt; Derived &gt;</text>
<polyline fill="none" stroke="black" points="90,-480.5 228,-480.5 "/>
<text text-anchor="middle" x="159" y="-468.5" font-family="Helvetica,sans-Serif" font-size="10.00"> </text>
<polyline fill="none" stroke="black" points="90,-461.5 228,-461.5 "/>
<text text-anchor="start" x="98" y="-449.5" font-family="Helvetica,sans-Serif" font-size="10.00">+ shell_expression()</text>
<text text-anchor="start" x="98" y="-438.5" font-family="Helvetica,sans-Serif" font-size="10.00">+ shell_expression()</text>
<text text-anchor="start" x="98" y="-427.5" font-family="Helvetica,sans-Serif" font-size="10.00">+ GetValue()</text>
<text text-anchor="start" x="98" y="-416.5" font-family="Helvetica,sans-Serif" font-size="10.00">+ GetDerivative()</text>
<text text-anchor="start" x="98" y="-405.5" font-family="Helvetica,sans-Serif" font-size="10.00">+ GetDerivative()</text>
<text text-anchor="start" x="98" y="-394.5" font-family="Helvetica,sans-Serif" font-size="10.00">+ operator Derived &amp;()</text>
<text text-anchor="start" x="98" y="-383.5" font-family="Helvetica,sans-Serif" font-size="10.00">+ operator const Derived &amp;()</text>
</a>
</g>
</g>
<!-- Node3&#45;&gt;Node4 -->
<g id="edge4" class="edge"><title>Node3&#45;&gt;Node4</title>
<path fill="none" stroke="midnightblue" d="M117.879,-538.711C121.902,-529.494 126.079,-519.923 130.163,-510.568"/>
<polygon fill="none" stroke="midnightblue" points="114.546,-537.598 113.753,-548.163 120.961,-540.398 114.546,-537.598"/>
</g>
<!-- Node4&#45;&gt;Node2 -->
<g id="edge3" class="edge"><title>Node4&#45;&gt;Node2</title>
<path fill="none" stroke="orange" d="M129.342,-366.523C123.142,-350.643 116.578,-333.825 110.288,-317.714"/>
<polygon fill="orange" stroke="orange" points="126.252,-368.233 133.148,-376.275 132.772,-365.687 126.252,-368.233"/>
<text text-anchor="start" x="125" y="-350" font-family="Helvetica,sans-Serif" font-size="10.00"> &lt; soft_max_expression</text>
<text text-anchor="middle" x="177.5" y="-339" font-family="Helvetica,sans-Serif" font-size="10.00">&lt; A, B &gt; &gt;</text>
</g>
</g>
</svg>
