<?xml version="1.0" encoding="UTF-8" standalone="no"?>
<!DOCTYPE svg PUBLIC "-//W3C//DTD SVG 1.1//EN"
 "http://www.w3.org/Graphics/SVG/1.1/DTD/svg11.dtd">
<!-- Generated by graphviz version 2.38.0 (20140413.2041)
 -->
<!-- Title: INMOST::Element::GetElementDimension Pages: 1 -->
<svg width="380pt" height="78pt"
 viewBox="0.00 0.00 380.00 77.50" xmlns="http://www.w3.org/2000/svg" xmlns:xlink="http://www.w3.org/1999/xlink">
<g id="graph0" class="graph" transform="scale(1 1) rotate(0) translate(4 73.5)">
<title>INMOST::Element::GetElementDimension</title>
<!-- Node1 -->
<g id="node1" class="node"><title>Node1</title>
<polygon fill="#bfbfbf" stroke="black" points="0,-17 0,-47 153,-47 153,-17 0,-17"/>
<text text-anchor="start" x="8" y="-35" font-family="Helvetica,sans-Serif" font-size="10.00">INMOST::Element::GetElement</text>
<text text-anchor="middle" x="76.5" y="-24" font-family="Helvetica,sans-Serif" font-size="10.00">Dimension</text>
</g>
<!-- Node2 -->
<g id="node2" class="node"><title>Node2</title>
<g id="a_node2"><a xlink:href="class_i_n_m_o_s_t_1_1_element.html#a68fb90367eb06a63b69bb3059733d110" target="_top" xlink:title="INMOST::Element::GetGeometric\lDimension">
<polygon fill="none" stroke="black" points="199.5,-39 199.5,-69 361.5,-69 361.5,-39 199.5,-39"/>
<text text-anchor="start" x="207.5" y="-57" font-family="Helvetica,sans-Serif" font-size="10.00">INMOST::Element::GetGeometric</text>
<text text-anchor="middle" x="280.5" y="-46" font-family="Helvetica,sans-Serif" font-size="10.00">Dimension</text>
</a>
</g>
</g>
<!-- Node1&#45;&gt;Node2 -->
<g id="edge1" class="edge"><title>Node1&#45;&gt;Node2</title>
<path fill="none" stroke="midnightblue" d="M153.005,-40.2233C164.824,-41.5105 177.141,-42.852 189.25,-44.1708"/>
<polygon fill="midnightblue" stroke="midnightblue" points="189.036,-47.6681 199.357,-45.2715 189.794,-40.7093 189.036,-47.6681"/>
</g>
<!-- Node3 -->
<g id="node3" class="node"><title>Node3</title>
<g id="a_node3"><a xlink:href="class_i_n_m_o_s_t_1_1_element.html#a26cd9c99f7dc558190a8fb4b30074d54" target="_top" xlink:title="INMOST::Element::GetGeometricType">
<polygon fill="none" stroke="black" points="189,-0.5 189,-19.5 372,-19.5 372,-0.5 189,-0.5"/>
<text text-anchor="middle" x="280.5" y="-7.5" font-family="Helvetica,sans-Serif" font-size="10.00">INMOST::Element::GetGeometricType</text>
</a>
</g>
</g>
<!-- Node1&#45;&gt;Node3 -->
<g id="edge2" class="edge"><title>Node1&#45;&gt;Node3</title>
<path fill="none" stroke="midnightblue" d="M153.005,-23.7767C162.486,-22.7441 172.288,-21.6765 182.046,-20.6138"/>
<polygon fill="midnightblue" stroke="midnightblue" points="182.621,-24.0719 192.184,-19.5097 181.863,-17.1131 182.621,-24.0719"/>
</g>
</g>
</svg>
