<?xml version="1.0" encoding="UTF-8" standalone="no"?>
<!DOCTYPE svg PUBLIC "-//W3C//DTD SVG 1.1//EN"
 "http://www.w3.org/Graphics/SVG/1.1/DTD/svg11.dtd">
<!-- Generated by graphviz version 2.38.0 (20140413.2041)
 -->
<!-- Title: INMOST::Mesh::Bulk Pages: 1 -->
<svg width="312pt" height="78pt"
 viewBox="0.00 0.00 312.00 77.50" xmlns="http://www.w3.org/2000/svg" xmlns:xlink="http://www.w3.org/1999/xlink">
<g id="graph0" class="graph" transform="scale(1 1) rotate(0) translate(4 73.5)">
<title>INMOST::Mesh::Bulk</title>
<!-- Node1 -->
<g id="node1" class="node"><title>Node1</title>
<polygon fill="#bfbfbf" stroke="black" points="0,-22.5 0,-41.5 109,-41.5 109,-22.5 0,-22.5"/>
<text text-anchor="middle" x="54.5" y="-29.5" font-family="Helvetica,sans-Serif" font-size="10.00">INMOST::Mesh::Bulk</text>
</g>
<!-- Node2 -->
<g id="node2" class="node"><title>Node2</title>
<g id="a_node2"><a xlink:href="class_i_n_m_o_s_t_1_1_mesh_1_1_bulk_comparator.html#a8bd2436e36d465c2f9c2984b55c83ccd" target="_top" xlink:title="INMOST::Mesh::BulkComparator\l::operator()">
<polygon fill="none" stroke="black" points="145,-39 145,-69 304,-69 304,-39 145,-39"/>
<text text-anchor="start" x="153" y="-57" font-family="Helvetica,sans-Serif" font-size="10.00">INMOST::Mesh::BulkComparator</text>
<text text-anchor="middle" x="224.5" y="-46" font-family="Helvetica,sans-Serif" font-size="10.00">::operator()</text>
</a>
</g>
</g>
<!-- Node1&#45;&gt;Node2 -->
<g id="edge1" class="edge"><title>Node1&#45;&gt;Node2</title>
<path fill="none" stroke="midnightblue" d="M119.22,-40.3443C127.64,-41.4469 136.349,-42.5874 144.981,-43.7177"/>
<polygon fill="midnightblue" stroke="midnightblue" points="119.488,-36.8496 109.118,-39.0214 118.579,-43.7903 119.488,-36.8496"/>
</g>
<!-- Node3 -->
<g id="node3" class="node"><title>Node3</title>
<g id="a_node3"><a xlink:href="class_i_n_m_o_s_t_1_1_storage.html#a99e421a8211ffeac45dfb84f05b42bcf" target="_top" xlink:title="INMOST::Storage::Bulk">
<polygon fill="none" stroke="black" points="165,-0.5 165,-19.5 284,-19.5 284,-0.5 165,-0.5"/>
<text text-anchor="middle" x="224.5" y="-7.5" font-family="Helvetica,sans-Serif" font-size="10.00">INMOST::Storage::Bulk</text>
</a>
</g>
</g>
<!-- Node1&#45;&gt;Node3 -->
<g id="edge2" class="edge"><title>Node1&#45;&gt;Node3</title>
<path fill="none" stroke="midnightblue" d="M119.307,-23.6443C134.27,-21.6849 150.142,-19.6064 164.866,-17.6782"/>
<polygon fill="midnightblue" stroke="midnightblue" points="118.579,-20.2097 109.118,-24.9786 119.488,-27.1504 118.579,-20.2097"/>
</g>
</g>
</svg>
