<?xml version="1.0" encoding="UTF-8" standalone="no"?>
<!DOCTYPE svg PUBLIC "-//W3C//DTD SVG 1.1//EN"
 "http://www.w3.org/Graphics/SVG/1.1/DTD/svg11.dtd">
<!-- Generated by graphviz version 2.38.0 (20140413.2041)
 -->
<!-- Title: INMOST::Storage::RealArrayDF Pages: 1 -->
<svg width="508pt" height="104pt"
 viewBox="0.00 0.00 508.00 104.00" xmlns="http://www.w3.org/2000/svg" xmlns:xlink="http://www.w3.org/1999/xlink">
<g id="graph0" class="graph" transform="scale(1 1) rotate(0) translate(4 100)">
<title>INMOST::Storage::RealArrayDF</title>
<!-- Node1 -->
<g id="node1" class="node"><title>Node1</title>
<polygon fill="#bfbfbf" stroke="black" points="0,-38.5 0,-57.5 155,-57.5 155,-38.5 0,-38.5"/>
<text text-anchor="middle" x="77.5" y="-45.5" font-family="Helvetica,sans-Serif" font-size="10.00">INMOST::Storage::RealArrayDF</text>
</g>
<!-- Node2 -->
<g id="node2" class="node"><title>Node2</title>
<g id="a_node2"><a xlink:href="class_i_n_m_o_s_t_1_1_storage.html#a20d218fc89f75ca8534707b4f697173e" target="_top" xlink:title="INMOST::Storage::GetMeshLink">
<polygon fill="none" stroke="black" points="191,-76.5 191,-95.5 348,-95.5 348,-76.5 191,-76.5"/>
<text text-anchor="middle" x="269.5" y="-83.5" font-family="Helvetica,sans-Serif" font-size="10.00">INMOST::Storage::GetMeshLink</text>
</a>
</g>
</g>
<!-- Node1&#45;&gt;Node2 -->
<g id="edge1" class="edge"><title>Node1&#45;&gt;Node2</title>
<path fill="none" stroke="midnightblue" d="M126.445,-57.589C152.082,-62.7165 183.836,-69.0672 210.816,-74.4632"/>
<polygon fill="midnightblue" stroke="midnightblue" points="210.408,-77.9507 220.9,-76.4799 211.78,-71.0867 210.408,-77.9507"/>
</g>
<!-- Node3 -->
<g id="node3" class="node"><title>Node3</title>
<g id="a_node3"><a xlink:href="class_i_n_m_o_s_t_1_1_mesh.html#a8527fa3c2f6ece108b5abce389566365" target="_top" xlink:title="INMOST::Mesh::RealArrayDF">
<polygon fill="none" stroke="black" points="197,-38.5 197,-57.5 342,-57.5 342,-38.5 197,-38.5"/>
<text text-anchor="middle" x="269.5" y="-45.5" font-family="Helvetica,sans-Serif" font-size="10.00">INMOST::Mesh::RealArrayDF</text>
</a>
</g>
</g>
<!-- Node1&#45;&gt;Node3 -->
<g id="edge2" class="edge"><title>Node1&#45;&gt;Node3</title>
<path fill="none" stroke="midnightblue" d="M155.233,-48C165.506,-48 176.076,-48 186.436,-48"/>
<polygon fill="midnightblue" stroke="midnightblue" points="186.708,-51.5001 196.708,-48 186.708,-44.5001 186.708,-51.5001"/>
</g>
<!-- Node5 -->
<g id="node5" class="node"><title>Node5</title>
<g id="a_node5"><a xlink:href="class_i_n_m_o_s_t_1_1_storage.html#ac79e3f3664b2ff21892f37bce0caa0e0" target="_top" xlink:title="INMOST::Storage::GetHandle">
<polygon fill="none" stroke="black" points="197,-0.5 197,-19.5 342,-19.5 342,-0.5 197,-0.5"/>
<text text-anchor="middle" x="269.5" y="-7.5" font-family="Helvetica,sans-Serif" font-size="10.00">INMOST::Storage::GetHandle</text>
</a>
</g>
</g>
<!-- Node1&#45;&gt;Node5 -->
<g id="edge4" class="edge"><title>Node1&#45;&gt;Node5</title>
<path fill="none" stroke="midnightblue" d="M126.445,-38.411C152.082,-33.2835 183.836,-26.9328 210.816,-21.5368"/>
<polygon fill="midnightblue" stroke="midnightblue" points="211.78,-24.9133 220.9,-19.5201 210.408,-18.0493 211.78,-24.9133"/>
</g>
<!-- Node4 -->
<g id="node4" class="node"><title>Node4</title>
<g id="a_node4"><a xlink:href="class_i_n_m_o_s_t_1_1_tag.html#ae74774d21aaf2dd820d2a5ea1bb43f9d" target="_top" xlink:title="INMOST::Tag::GetSize">
<polygon fill="none" stroke="black" points="384,-38.5 384,-57.5 500,-57.5 500,-38.5 384,-38.5"/>
<text text-anchor="middle" x="442" y="-45.5" font-family="Helvetica,sans-Serif" font-size="10.00">INMOST::Tag::GetSize</text>
</a>
</g>
</g>
<!-- Node3&#45;&gt;Node4 -->
<g id="edge3" class="edge"><title>Node3&#45;&gt;Node4</title>
<path fill="none" stroke="midnightblue" d="M342.313,-48C352.688,-48 363.336,-48 373.62,-48"/>
<polygon fill="midnightblue" stroke="midnightblue" points="373.759,-51.5001 383.759,-48 373.759,-44.5001 373.759,-51.5001"/>
</g>
</g>
</svg>
