<?xml version="1.0" encoding="UTF-8" standalone="no"?>
<!DOCTYPE svg PUBLIC "-//W3C//DTD SVG 1.1//EN"
 "http://www.w3.org/Graphics/SVG/1.1/DTD/svg11.dtd">
<!-- Generated by graphviz version 2.38.0 (20140413.2041)
 -->
<!-- Title: INMOST::Storage::IntegerArray Pages: 1 -->
<svg width="483pt" height="143pt"
 viewBox="0.00 0.00 483.00 142.50" xmlns="http://www.w3.org/2000/svg" xmlns:xlink="http://www.w3.org/1999/xlink">
<g id="graph0" class="graph" transform="scale(1 1) rotate(0) translate(4 138.5)">
<title>INMOST::Storage::IntegerArray</title>
<!-- Node1 -->
<g id="node1" class="node"><title>Node1</title>
<polygon fill="#bfbfbf" stroke="black" points="0,-49.5 0,-79.5 128,-79.5 128,-49.5 0,-49.5"/>
<text text-anchor="start" x="8" y="-67.5" font-family="Helvetica,sans-Serif" font-size="10.00">INMOST::Storage::Integer</text>
<text text-anchor="middle" x="64" y="-56.5" font-family="Helvetica,sans-Serif" font-size="10.00">Array</text>
</g>
<!-- Node2 -->
<g id="node2" class="node"><title>Node2</title>
<g id="a_node2"><a xlink:href="class_i_n_m_o_s_t_1_1_automatizator.html#a3b9418a007184a35890a508d92fdb61c" target="_top" xlink:title="INMOST::Automatizator\l::GetDynamicIndex">
<polygon fill="none" stroke="black" points="164,-98.5 164,-128.5 284,-128.5 284,-98.5 164,-98.5"/>
<text text-anchor="start" x="172" y="-116.5" font-family="Helvetica,sans-Serif" font-size="10.00">INMOST::Automatizator</text>
<text text-anchor="middle" x="224" y="-105.5" font-family="Helvetica,sans-Serif" font-size="10.00">::GetDynamicIndex</text>
</a>
</g>
</g>
<!-- Node1&#45;&gt;Node2 -->
<g id="edge1" class="edge"><title>Node1&#45;&gt;Node2</title>
<path fill="none" stroke="midnightblue" d="M123.405,-82.6129C140.202,-87.8222 158.335,-93.4457 174.466,-98.4484"/>
<polygon fill="midnightblue" stroke="midnightblue" points="124.282,-79.2207 113.694,-79.6014 122.209,-85.9065 124.282,-79.2207"/>
</g>
<!-- Node4 -->
<g id="node4" class="node"><title>Node4</title>
<g id="a_node4"><a xlink:href="class_i_n_m_o_s_t_1_1_automatizator.html#a55fa3c6b0c26f26037954f87a86854a3" target="_top" xlink:title="INMOST::Automatizator\l::GetIndex">
<polygon fill="none" stroke="black" points="164,-49.5 164,-79.5 284,-79.5 284,-49.5 164,-49.5"/>
<text text-anchor="start" x="172" y="-67.5" font-family="Helvetica,sans-Serif" font-size="10.00">INMOST::Automatizator</text>
<text text-anchor="middle" x="224" y="-56.5" font-family="Helvetica,sans-Serif" font-size="10.00">::GetIndex</text>
</a>
</g>
</g>
<!-- Node1&#45;&gt;Node4 -->
<g id="edge3" class="edge"><title>Node1&#45;&gt;Node4</title>
<path fill="none" stroke="midnightblue" d="M138.368,-64.5C146.954,-64.5 155.63,-64.5 163.986,-64.5"/>
<polygon fill="midnightblue" stroke="midnightblue" points="138.354,-61.0001 128.354,-64.5 138.354,-68.0001 138.354,-61.0001"/>
</g>
<!-- Node5 -->
<g id="node5" class="node"><title>Node5</title>
<g id="a_node5"><a xlink:href="class_i_n_m_o_s_t_1_1_automatizator.html#a571b357aebd31b957e1fdc328e270e58" target="_top" xlink:title="INMOST::Automatizator\l::GetComponents">
<polygon fill="none" stroke="black" points="164,-0.5 164,-30.5 284,-30.5 284,-0.5 164,-0.5"/>
<text text-anchor="start" x="172" y="-18.5" font-family="Helvetica,sans-Serif" font-size="10.00">INMOST::Automatizator</text>
<text text-anchor="middle" x="224" y="-7.5" font-family="Helvetica,sans-Serif" font-size="10.00">::GetComponents</text>
</a>
</g>
</g>
<!-- Node1&#45;&gt;Node5 -->
<g id="edge4" class="edge"><title>Node1&#45;&gt;Node5</title>
<path fill="none" stroke="midnightblue" d="M123.405,-46.3871C140.202,-41.1778 158.335,-35.5543 174.466,-30.5516"/>
<polygon fill="midnightblue" stroke="midnightblue" points="122.209,-43.0935 113.694,-49.3986 124.282,-49.7793 122.209,-43.0935"/>
</g>
<!-- Node3 -->
<g id="node3" class="node"><title>Node3</title>
<g id="a_node3"><a xlink:href="class_i_n_m_o_s_t_1_1enhanced__multivar__expression.html#aa7a9b5c6c18e890d941c0abaf36fc9ac" target="_top" xlink:title="INMOST::enhanced_multivar\l_expression::enhanced_multivar\l_expression">
<polygon fill="none" stroke="black" points="320,-93 320,-134 475,-134 475,-93 320,-93"/>
<text text-anchor="start" x="328" y="-122" font-family="Helvetica,sans-Serif" font-size="10.00">INMOST::enhanced_multivar</text>
<text text-anchor="start" x="328" y="-111" font-family="Helvetica,sans-Serif" font-size="10.00">_expression::enhanced_multivar</text>
<text text-anchor="middle" x="397.5" y="-100" font-family="Helvetica,sans-Serif" font-size="10.00">_expression</text>
</a>
</g>
</g>
<!-- Node2&#45;&gt;Node3 -->
<g id="edge2" class="edge"><title>Node2&#45;&gt;Node3</title>
<path fill="none" stroke="midnightblue" d="M294.176,-113.5C302.611,-113.5 311.268,-113.5 319.804,-113.5"/>
<polygon fill="midnightblue" stroke="midnightblue" points="294.021,-110 284.021,-113.5 294.021,-117 294.021,-110"/>
</g>
</g>
</svg>
