<?xml version="1.0" encoding="UTF-8" standalone="no"?>
<!DOCTYPE svg PUBLIC "-//W3C//DTD SVG 1.1//EN"
 "http://www.w3.org/Graphics/SVG/1.1/DTD/svg11.dtd">
<!-- Generated by graphviz version 2.38.0 (20140413.2041)
 -->
<!-- Title: INMOST::Mesh::SharedTag Pages: 1 -->
<svg width="314pt" height="66pt"
 viewBox="0.00 0.00 314.00 66.00" xmlns="http://www.w3.org/2000/svg" xmlns:xlink="http://www.w3.org/1999/xlink">
<g id="graph0" class="graph" transform="scale(1 1) rotate(0) translate(4 62)">
<title>INMOST::Mesh::SharedTag</title>
<!-- Node1 -->
<g id="node1" class="node"><title>Node1</title>
<polygon fill="#bfbfbf" stroke="black" points="0,-19.5 0,-38.5 136,-38.5 136,-19.5 0,-19.5"/>
<text text-anchor="middle" x="68" y="-26.5" font-family="Helvetica,sans-Serif" font-size="10.00">INMOST::Mesh::SharedTag</text>
</g>
<!-- Node2 -->
<g id="node2" class="node"><title>Node2</title>
<g id="a_node2"><a xlink:href="class_i_n_m_o_s_t_1_1_mesh.html#a94963a0f3f1d80ee0785fb8ebd409339" target="_top" xlink:title="INMOST::Mesh::GetStatus">
<polygon fill="none" stroke="black" points="172,-38.5 172,-57.5 306,-57.5 306,-38.5 172,-38.5"/>
<text text-anchor="middle" x="239" y="-45.5" font-family="Helvetica,sans-Serif" font-size="10.00">INMOST::Mesh::GetStatus</text>
</a>
</g>
</g>
<!-- Node1&#45;&gt;Node2 -->
<g id="edge1" class="edge"><title>Node1&#45;&gt;Node2</title>
<path fill="none" stroke="midnightblue" d="M146.23,-37.6827C154.764,-38.6422 163.398,-39.6128 171.78,-40.5551"/>
<polygon fill="midnightblue" stroke="midnightblue" points="146.607,-34.2031 136.279,-36.5639 145.825,-41.1593 146.607,-34.2031"/>
</g>
<!-- Node3 -->
<g id="node3" class="node"><title>Node3</title>
<g id="a_node3"><a xlink:href="class_i_n_m_o_s_t_1_1_mesh.html#a666201ee66a5a0f871d17781055b06ac" target="_top" xlink:title="INMOST::Mesh::SetStatus">
<polygon fill="none" stroke="black" points="172.5,-0.5 172.5,-19.5 305.5,-19.5 305.5,-0.5 172.5,-0.5"/>
<text text-anchor="middle" x="239" y="-7.5" font-family="Helvetica,sans-Serif" font-size="10.00">INMOST::Mesh::SetStatus</text>
</a>
</g>
</g>
<!-- Node1&#45;&gt;Node3 -->
<g id="edge2" class="edge"><title>Node1&#45;&gt;Node3</title>
<path fill="none" stroke="midnightblue" d="M146.388,-20.2996C155.058,-19.3249 163.828,-18.3389 172.33,-17.383"/>
<polygon fill="midnightblue" stroke="midnightblue" points="145.825,-16.8407 136.279,-21.4361 146.607,-23.7969 145.825,-16.8407"/>
</g>
</g>
</svg>
