<?xml version="1.0" encoding="UTF-8" standalone="no"?>
<!DOCTYPE svg PUBLIC "-//W3C//DTD SVG 1.1//EN"
 "http://www.w3.org/Graphics/SVG/1.1/DTD/svg11.dtd">
<!-- Generated by graphviz version 2.38.0 (20140413.2041)
 -->
<!-- Title: INMOST::Storage::RealArray Pages: 1 -->
<svg width="497pt" height="88pt"
 viewBox="0.00 0.00 497.00 88.00" xmlns="http://www.w3.org/2000/svg" xmlns:xlink="http://www.w3.org/1999/xlink">
<g id="graph0" class="graph" transform="scale(1 1) rotate(0) translate(4 84)">
<title>INMOST::Storage::RealArray</title>
<!-- Node1 -->
<g id="node1" class="node"><title>Node1</title>
<polygon fill="#bfbfbf" stroke="black" points="0,-30 0,-49 142,-49 142,-30 0,-30"/>
<text text-anchor="middle" x="71" y="-37" font-family="Helvetica,sans-Serif" font-size="10.00">INMOST::Storage::RealArray</text>
</g>
<!-- Node2 -->
<g id="node2" class="node"><title>Node2</title>
<g id="a_node2"><a xlink:href="class_i_n_m_o_s_t_1_1_automatizator.html#ab41dc204fbb52720b8dbb365f40ee0f3" target="_top" xlink:title="INMOST::Automatizator\l::GetDynamicValue">
<polygon fill="none" stroke="black" points="178,-49.5 178,-79.5 298,-79.5 298,-49.5 178,-49.5"/>
<text text-anchor="start" x="186" y="-67.5" font-family="Helvetica,sans-Serif" font-size="10.00">INMOST::Automatizator</text>
<text text-anchor="middle" x="238" y="-56.5" font-family="Helvetica,sans-Serif" font-size="10.00">::GetDynamicValue</text>
</a>
</g>
</g>
<!-- Node1&#45;&gt;Node2 -->
<g id="edge1" class="edge"><title>Node1&#45;&gt;Node2</title>
<path fill="none" stroke="midnightblue" d="M144.887,-50.5435C155.912,-52.2139 167.169,-53.9196 177.856,-55.5388"/>
<polygon fill="midnightblue" stroke="midnightblue" points="145.262,-47.0604 134.85,-49.0227 144.213,-53.9814 145.262,-47.0604"/>
</g>
<!-- Node4 -->
<g id="node4" class="node"><title>Node4</title>
<g id="a_node4"><a xlink:href="class_i_n_m_o_s_t_1_1_automatizator.html#a8d32c48035f0a83bd0ef783132d5da7a" target="_top" xlink:title="INMOST::Automatizator\l::GetStaticValue">
<polygon fill="none" stroke="black" points="178,-0.5 178,-30.5 298,-30.5 298,-0.5 178,-0.5"/>
<text text-anchor="start" x="186" y="-18.5" font-family="Helvetica,sans-Serif" font-size="10.00">INMOST::Automatizator</text>
<text text-anchor="middle" x="238" y="-7.5" font-family="Helvetica,sans-Serif" font-size="10.00">::GetStaticValue</text>
</a>
</g>
</g>
<!-- Node1&#45;&gt;Node4 -->
<g id="edge3" class="edge"><title>Node1&#45;&gt;Node4</title>
<path fill="none" stroke="midnightblue" d="M147.753,-28.4813C157.889,-27.0071 168.161,-25.513 177.952,-24.0888"/>
<polygon fill="midnightblue" stroke="midnightblue" points="147.079,-25.0426 137.686,-29.9456 148.086,-31.9697 147.079,-25.0426"/>
</g>
<!-- Node3 -->
<g id="node3" class="node"><title>Node3</title>
<g id="a_node3"><a xlink:href="class_i_n_m_o_s_t_1_1enhanced__multivar__expression.html#aa7a9b5c6c18e890d941c0abaf36fc9ac" target="_top" xlink:title="INMOST::enhanced_multivar\l_expression::enhanced_multivar\l_expression">
<polygon fill="none" stroke="black" points="334,-19 334,-60 489,-60 489,-19 334,-19"/>
<text text-anchor="start" x="342" y="-48" font-family="Helvetica,sans-Serif" font-size="10.00">INMOST::enhanced_multivar</text>
<text text-anchor="start" x="342" y="-37" font-family="Helvetica,sans-Serif" font-size="10.00">_expression::enhanced_multivar</text>
<text text-anchor="middle" x="411.5" y="-26" font-family="Helvetica,sans-Serif" font-size="10.00">_expression</text>
</a>
</g>
</g>
<!-- Node2&#45;&gt;Node3 -->
<g id="edge2" class="edge"><title>Node2&#45;&gt;Node3</title>
<path fill="none" stroke="midnightblue" d="M308.176,-54.4161C316.611,-53.1865 325.268,-51.9245 333.804,-50.6801"/>
<polygon fill="midnightblue" stroke="midnightblue" points="307.411,-50.9905 298.021,-55.8964 308.421,-57.9173 307.411,-50.9905"/>
</g>
<!-- Node4&#45;&gt;Node3 -->
<g id="edge4" class="edge"><title>Node4&#45;&gt;Node3</title>
<path fill="none" stroke="midnightblue" d="M308.176,-25.1806C316.611,-26.361 325.268,-27.5725 333.804,-28.7671"/>
<polygon fill="midnightblue" stroke="midnightblue" points="308.409,-21.6792 298.021,-23.7594 307.439,-28.6117 308.409,-21.6792"/>
</g>
</g>
</svg>
