<?xml version="1.0" encoding="UTF-8" standalone="no"?>
<!DOCTYPE svg PUBLIC "-//W3C//DTD SVG 1.1//EN"
 "http://www.w3.org/Graphics/SVG/1.1/DTD/svg11.dtd">
<!-- Generated by graphviz version 2.38.0 (20140413.2041)
 -->
<!-- Title: INMOST::chunk_bulk_array::clear Pages: 1 -->
<svg width="285pt" height="88pt"
 viewBox="0.00 0.00 285.00 88.00" xmlns="http://www.w3.org/2000/svg" xmlns:xlink="http://www.w3.org/1999/xlink">
<g id="graph0" class="graph" transform="scale(1 1) rotate(0) translate(4 84)">
<title>INMOST::chunk_bulk_array::clear</title>
<!-- Node1 -->
<g id="node1" class="node"><title>Node1</title>
<polygon fill="#bfbfbf" stroke="black" points="0,-24.5 0,-54.5 109,-54.5 109,-24.5 0,-24.5"/>
<text text-anchor="start" x="8" y="-42.5" font-family="Helvetica,sans-Serif" font-size="10.00">INMOST::chunk_bulk</text>
<text text-anchor="middle" x="54.5" y="-31.5" font-family="Helvetica,sans-Serif" font-size="10.00">_array::clear</text>
</g>
<!-- Node2 -->
<g id="node2" class="node"><title>Node2</title>
<g id="a_node2"><a xlink:href="class_i_n_m_o_s_t_1_1chunk__bulk__array.html#a106e009c592d7e4ae6e34e8e72cd3e95" target="_top" xlink:title="INMOST::chunk_bulk\l_array::operator=">
<polygon fill="none" stroke="black" points="156.5,-49.5 156.5,-79.5 265.5,-79.5 265.5,-49.5 156.5,-49.5"/>
<text text-anchor="start" x="164.5" y="-67.5" font-family="Helvetica,sans-Serif" font-size="10.00">INMOST::chunk_bulk</text>
<text text-anchor="middle" x="211" y="-56.5" font-family="Helvetica,sans-Serif" font-size="10.00">_array::operator=</text>
</a>
</g>
</g>
<!-- Node1&#45;&gt;Node2 -->
<g id="edge1" class="edge"><title>Node1&#45;&gt;Node2</title>
<path fill="none" stroke="midnightblue" d="M119.338,-49.8298C131.689,-51.8284 144.512,-53.9033 156.492,-55.8417"/>
<polygon fill="midnightblue" stroke="midnightblue" points="119.534,-46.316 109.103,-48.1736 118.416,-53.2261 119.534,-46.316"/>
</g>
<!-- Node3 -->
<g id="node3" class="node"><title>Node3</title>
<g id="a_node3"><a xlink:href="class_i_n_m_o_s_t_1_1chunk__bulk__array.html#a3f4c7821dc6f2c0f26a968d54b2d22ba" target="_top" xlink:title="INMOST::chunk_bulk\l_array::~chunk_bulk_array">
<polygon fill="none" stroke="black" points="145,-0.5 145,-30.5 277,-30.5 277,-0.5 145,-0.5"/>
<text text-anchor="start" x="153" y="-18.5" font-family="Helvetica,sans-Serif" font-size="10.00">INMOST::chunk_bulk</text>
<text text-anchor="middle" x="211" y="-7.5" font-family="Helvetica,sans-Serif" font-size="10.00">_array::~chunk_bulk_array</text>
</a>
</g>
</g>
<!-- Node1&#45;&gt;Node3 -->
<g id="edge2" class="edge"><title>Node1&#45;&gt;Node3</title>
<path fill="none" stroke="midnightblue" d="M119.246,-29.5978C127.674,-28.2886 136.323,-26.945 144.775,-25.632"/>
<polygon fill="midnightblue" stroke="midnightblue" points="118.447,-26.1797 109.103,-31.1733 119.522,-33.0968 118.447,-26.1797"/>
</g>
</g>
</svg>
