<?xml version="1.0" encoding="UTF-8" standalone="no"?>
<!DOCTYPE svg PUBLIC "-//W3C//DTD SVG 1.1//EN"
 "http://www.w3.org/Graphics/SVG/1.1/DTD/svg11.dtd">
<!-- Generated by graphviz version 2.38.0 (20140413.2041)
 -->
<!-- Title: INMOST::const_pow_expression::const_pow_expression Pages: 1 -->
<svg width="236pt" height="66pt"
 viewBox="0.00 0.00 236.00 66.00" xmlns="http://www.w3.org/2000/svg" xmlns:xlink="http://www.w3.org/1999/xlink">
<g id="graph0" class="graph" transform="scale(1 1) rotate(0) translate(4 62)">
<title>INMOST::const_pow_expression::const_pow_expression</title>
<!-- Node1 -->
<g id="node1" class="node"><title>Node1</title>
<polygon fill="#bfbfbf" stroke="black" points="0,-14 0,-44 158,-44 158,-14 0,-14"/>
<text text-anchor="start" x="8" y="-32" font-family="Helvetica,sans-Serif" font-size="10.00">INMOST::const_pow_expression</text>
<text text-anchor="middle" x="79" y="-21" font-family="Helvetica,sans-Serif" font-size="10.00">::const_pow_expression</text>
</g>
<!-- Node2 -->
<g id="node2" class="node"><title>Node2</title>
<g id="a_node2"><a xlink:href="inmost__expression_8h.html#a0a5c804987ffe34c9e49d7b9d2999337" target="_top" xlink:title="pow">
<polygon fill="none" stroke="black" points="194,-38.5 194,-57.5 228,-57.5 228,-38.5 194,-38.5"/>
<text text-anchor="middle" x="211" y="-45.5" font-family="Helvetica,sans-Serif" font-size="10.00">pow</text>
</a>
</g>
</g>
<!-- Node1&#45;&gt;Node2 -->
<g id="edge1" class="edge"><title>Node1&#45;&gt;Node2</title>
<path fill="none" stroke="midnightblue" d="M158.247,-40.4361C167.311,-41.7609 176.017,-43.0332 183.617,-44.144"/>
<polygon fill="midnightblue" stroke="midnightblue" points="183.147,-47.6124 193.548,-45.5954 184.159,-40.686 183.147,-47.6124"/>
</g>
<!-- Node3 -->
<g id="node3" class="node"><title>Node3</title>
<g id="a_node3"><a xlink:href="inmost__expression_8h.html#a1a2e970d937edaaa99d5e0128609061d" target="_top" xlink:title="log">
<polygon fill="none" stroke="black" points="196.5,-0.5 196.5,-19.5 225.5,-19.5 225.5,-0.5 196.5,-0.5"/>
<text text-anchor="middle" x="211" y="-7.5" font-family="Helvetica,sans-Serif" font-size="10.00">log</text>
</a>
</g>
</g>
<!-- Node1&#45;&gt;Node3 -->
<g id="edge2" class="edge"><title>Node1&#45;&gt;Node3</title>
<path fill="none" stroke="midnightblue" d="M158.247,-17.5639C168.303,-16.0942 177.917,-14.6891 186.07,-13.4974"/>
<polygon fill="midnightblue" stroke="midnightblue" points="186.799,-16.9282 196.188,-12.0187 185.787,-10.0018 186.799,-16.9282"/>
</g>
</g>
</svg>
