<?xml version="1.0" encoding="UTF-8" standalone="no"?>
<!DOCTYPE svg PUBLIC "-//W3C//DTD SVG 1.1//EN"
 "http://www.w3.org/Graphics/SVG/1.1/DTD/svg11.dtd">
<!-- Generated by graphviz version 2.38.0 (20140413.2041)
 -->
<!-- Title: INMOST::Storage::getAsFace Pages: 1 -->
<svg width="757pt" height="104pt"
 viewBox="0.00 0.00 757.00 104.00" xmlns="http://www.w3.org/2000/svg" xmlns:xlink="http://www.w3.org/1999/xlink">
<g id="graph0" class="graph" transform="scale(1 1) rotate(0) translate(4 100)">
<title>INMOST::Storage::getAsFace</title>
<!-- Node1 -->
<g id="node1" class="node"><title>Node1</title>
<polygon fill="#bfbfbf" stroke="black" points="0,-38.5 0,-57.5 146,-57.5 146,-38.5 0,-38.5"/>
<text text-anchor="middle" x="73" y="-45.5" font-family="Helvetica,sans-Serif" font-size="10.00">INMOST::Storage::getAsFace</text>
</g>
<!-- Node2 -->
<g id="node2" class="node"><title>Node2</title>
<g id="a_node2"><a xlink:href="class_i_n_m_o_s_t_1_1_storage.html#ae6928532b6665a12831d13293c4c7b31" target="_top" xlink:title="INMOST::Storage::GetElementType">
<polygon fill="none" stroke="black" points="182,-76.5 182,-95.5 354,-95.5 354,-76.5 182,-76.5"/>
<text text-anchor="middle" x="268" y="-83.5" font-family="Helvetica,sans-Serif" font-size="10.00">INMOST::Storage::GetElementType</text>
</a>
</g>
</g>
<!-- Node1&#45;&gt;Node2 -->
<g id="edge1" class="edge"><title>Node1&#45;&gt;Node2</title>
<path fill="none" stroke="midnightblue" d="M122.702,-57.589C148.859,-62.739 181.284,-69.1232 208.767,-74.5344"/>
<polygon fill="midnightblue" stroke="midnightblue" points="208.16,-77.9821 218.648,-76.4799 209.513,-71.114 208.16,-77.9821"/>
</g>
<!-- Node5 -->
<g id="node5" class="node"><title>Node5</title>
<g id="a_node5"><a xlink:href="class_i_n_m_o_s_t_1_1_storage.html#a20d218fc89f75ca8534707b4f697173e" target="_top" xlink:title="INMOST::Storage::GetMeshLink">
<polygon fill="none" stroke="black" points="189.5,-38.5 189.5,-57.5 346.5,-57.5 346.5,-38.5 189.5,-38.5"/>
<text text-anchor="middle" x="268" y="-45.5" font-family="Helvetica,sans-Serif" font-size="10.00">INMOST::Storage::GetMeshLink</text>
</a>
</g>
</g>
<!-- Node1&#45;&gt;Node5 -->
<g id="edge4" class="edge"><title>Node1&#45;&gt;Node5</title>
<path fill="none" stroke="midnightblue" d="M146.141,-48C156.961,-48 168.219,-48 179.32,-48"/>
<polygon fill="midnightblue" stroke="midnightblue" points="179.453,-51.5001 189.453,-48 179.453,-44.5001 179.453,-51.5001"/>
</g>
<!-- Node6 -->
<g id="node6" class="node"><title>Node6</title>
<g id="a_node6"><a xlink:href="class_i_n_m_o_s_t_1_1_storage.html#ac79e3f3664b2ff21892f37bce0caa0e0" target="_top" xlink:title="INMOST::Storage::GetHandle">
<polygon fill="none" stroke="black" points="195.5,-0.5 195.5,-19.5 340.5,-19.5 340.5,-0.5 195.5,-0.5"/>
<text text-anchor="middle" x="268" y="-7.5" font-family="Helvetica,sans-Serif" font-size="10.00">INMOST::Storage::GetHandle</text>
</a>
</g>
</g>
<!-- Node1&#45;&gt;Node6 -->
<g id="edge5" class="edge"><title>Node1&#45;&gt;Node6</title>
<path fill="none" stroke="midnightblue" d="M122.702,-38.411C148.859,-33.261 181.284,-26.8768 208.767,-21.4656"/>
<polygon fill="midnightblue" stroke="midnightblue" points="209.513,-24.886 218.648,-19.5201 208.16,-18.0179 209.513,-24.886"/>
</g>
<!-- Node3 -->
<g id="node3" class="node"><title>Node3</title>
<g id="a_node3"><a xlink:href="namespace_i_n_m_o_s_t.html#ad6fc386c976a00725d44392f3e211bf2" target="_top" xlink:title="INMOST::GetHandleElementType">
<polygon fill="none" stroke="black" points="390,-76.5 390,-95.5 552,-95.5 552,-76.5 390,-76.5"/>
<text text-anchor="middle" x="471" y="-83.5" font-family="Helvetica,sans-Serif" font-size="10.00">INMOST::GetHandleElementType</text>
</a>
</g>
</g>
<!-- Node2&#45;&gt;Node3 -->
<g id="edge2" class="edge"><title>Node2&#45;&gt;Node3</title>
<path fill="none" stroke="midnightblue" d="M354.242,-86C362.61,-86 371.122,-86 379.539,-86"/>
<polygon fill="midnightblue" stroke="midnightblue" points="379.743,-89.5001 389.743,-86 379.743,-82.5001 379.743,-89.5001"/>
</g>
<!-- Node4 -->
<g id="node4" class="node"><title>Node4</title>
<g id="a_node4"><a xlink:href="namespace_i_n_m_o_s_t.html#a6659a95d611050914b2761dd17256928" target="_top" xlink:title="INMOST::GetHandleElementNum">
<polygon fill="none" stroke="black" points="588,-76.5 588,-95.5 749,-95.5 749,-76.5 588,-76.5"/>
<text text-anchor="middle" x="668.5" y="-83.5" font-family="Helvetica,sans-Serif" font-size="10.00">INMOST::GetHandleElementNum</text>
</a>
</g>
</g>
<!-- Node3&#45;&gt;Node4 -->
<g id="edge3" class="edge"><title>Node3&#45;&gt;Node4</title>
<path fill="none" stroke="midnightblue" d="M552.081,-86C560.57,-86 569.243,-86 577.831,-86"/>
<polygon fill="midnightblue" stroke="midnightblue" points="577.859,-89.5001 587.859,-86 577.859,-82.5001 577.859,-89.5001"/>
</g>
</g>
</svg>
