<?xml version="1.0" encoding="UTF-8" standalone="no"?>
<!DOCTYPE svg PUBLIC "-//W3C//DTD SVG 1.1//EN"
 "http://www.w3.org/Graphics/SVG/1.1/DTD/svg11.dtd">
<!-- Generated by graphviz version 2.38.0 (20140413.2041)
 -->
<!-- Title: INMOST::sparse_data::operator[] Pages: 1 -->
<svg width="440pt" height="127pt"
 viewBox="0.00 0.00 440.00 127.00" xmlns="http://www.w3.org/2000/svg" xmlns:xlink="http://www.w3.org/1999/xlink">
<g id="graph0" class="graph" transform="scale(1 1) rotate(0) translate(4 123)">
<title>INMOST::sparse_data::operator[]</title>
<!-- Node1 -->
<g id="node1" class="node"><title>Node1</title>
<polygon fill="#bfbfbf" stroke="black" points="0,-44.5 0,-74.5 113,-74.5 113,-44.5 0,-44.5"/>
<text text-anchor="start" x="8" y="-62.5" font-family="Helvetica,sans-Serif" font-size="10.00">INMOST::sparse_data</text>
<text text-anchor="middle" x="56.5" y="-51.5" font-family="Helvetica,sans-Serif" font-size="10.00">::operator[]</text>
</g>
<!-- Node2 -->
<g id="node2" class="node"><title>Node2</title>
<g id="a_node2"><a xlink:href="class_i_n_m_o_s_t_1_1sparse__data.html#ade4733b003c315811100d5961d3a6b82" target="_top" xlink:title="INMOST::sparse_data\l::lower_bound">
<polygon fill="none" stroke="black" points="149,-88.5 149,-118.5 262,-118.5 262,-88.5 149,-88.5"/>
<text text-anchor="start" x="157" y="-106.5" font-family="Helvetica,sans-Serif" font-size="10.00">INMOST::sparse_data</text>
<text text-anchor="middle" x="205.5" y="-95.5" font-family="Helvetica,sans-Serif" font-size="10.00">::lower_bound</text>
</a>
</g>
</g>
<!-- Node1&#45;&gt;Node2 -->
<g id="edge1" class="edge"><title>Node1&#45;&gt;Node2</title>
<path fill="none" stroke="midnightblue" d="M107.678,-74.5192C119.491,-78.0552 132.201,-81.8595 144.401,-85.5112"/>
<polygon fill="midnightblue" stroke="midnightblue" points="143.465,-88.8845 154.049,-88.3991 145.473,-82.1785 143.465,-88.8845"/>
</g>
<!-- Node3 -->
<g id="node3" class="node"><title>Node3</title>
<g id="a_node3"><a xlink:href="class_i_n_m_o_s_t_1_1sparse__data.html#a1a478f6976c25fbd618f8865d841e837" target="_top" xlink:title="INMOST::sparse_data::end">
<polygon fill="none" stroke="black" points="298,-28 298,-47 432,-47 432,-28 298,-28"/>
<text text-anchor="middle" x="365" y="-35" font-family="Helvetica,sans-Serif" font-size="10.00">INMOST::sparse_data::end</text>
</a>
</g>
</g>
<!-- Node1&#45;&gt;Node3 -->
<g id="edge2" class="edge"><title>Node1&#45;&gt;Node3</title>
<path fill="none" stroke="midnightblue" d="M113.005,-55.516C161.867,-52.0087 233.483,-46.8683 287.723,-42.975"/>
<polygon fill="midnightblue" stroke="midnightblue" points="288.259,-46.4457 297.983,-42.2386 287.758,-39.4636 288.259,-46.4457"/>
</g>
<!-- Node4 -->
<g id="node4" class="node"><title>Node4</title>
<g id="a_node4"><a xlink:href="class_i_n_m_o_s_t_1_1sparse__data.html#ae591a01cc0c86e8f4b2ca30e03f743f7" target="_top" xlink:title="INMOST::sparse_data\l::insert">
<polygon fill="none" stroke="black" points="149,-0.5 149,-30.5 262,-30.5 262,-0.5 149,-0.5"/>
<text text-anchor="start" x="157" y="-18.5" font-family="Helvetica,sans-Serif" font-size="10.00">INMOST::sparse_data</text>
<text text-anchor="middle" x="205.5" y="-7.5" font-family="Helvetica,sans-Serif" font-size="10.00">::insert</text>
</a>
</g>
</g>
<!-- Node1&#45;&gt;Node4 -->
<g id="edge3" class="edge"><title>Node1&#45;&gt;Node4</title>
<path fill="none" stroke="midnightblue" d="M107.678,-44.4808C119.491,-40.9448 132.201,-37.1405 144.401,-33.4888"/>
<polygon fill="midnightblue" stroke="midnightblue" points="145.473,-36.8215 154.049,-30.6009 143.465,-30.1155 145.473,-36.8215"/>
</g>
<!-- Node4&#45;&gt;Node3 -->
<g id="edge4" class="edge"><title>Node4&#45;&gt;Node3</title>
<path fill="none" stroke="midnightblue" d="M262.029,-23.2564C270.368,-24.4212 279.088,-25.6393 287.768,-26.8517"/>
<polygon fill="midnightblue" stroke="midnightblue" points="287.525,-30.3516 297.913,-28.2688 288.493,-23.4189 287.525,-30.3516"/>
</g>
</g>
</svg>
