<?xml version="1.0" encoding="UTF-8" standalone="no"?>
<!DOCTYPE svg PUBLIC "-//W3C//DTD SVG 1.1//EN"
 "http://www.w3.org/Graphics/SVG/1.1/DTD/svg11.dtd">
<!-- Generated by graphviz version 2.38.0 (20140413.2041)
 -->
<!-- Title: INMOST::array::swap Pages: 1 -->
<svg width="419pt" height="46pt"
 viewBox="0.00 0.00 419.00 46.00" xmlns="http://www.w3.org/2000/svg" xmlns:xlink="http://www.w3.org/1999/xlink">
<g id="graph0" class="graph" transform="scale(1 1) rotate(0) translate(4 42)">
<title>INMOST::array::swap</title>
<!-- Node1 -->
<g id="node1" class="node"><title>Node1</title>
<polygon fill="#bfbfbf" stroke="black" points="0,-0.5 0,-19.5 110,-19.5 110,-0.5 0,-0.5"/>
<text text-anchor="middle" x="55" y="-7.5" font-family="Helvetica,sans-Serif" font-size="10.00">INMOST::array::swap</text>
</g>
<!-- Node2 -->
<g id="node2" class="node"><title>Node2</title>
<g id="a_node2"><a xlink:href="class_i_n_m_o_s_t_1_1_matrix.html#a937c3a9682da457736dfa3b7a785d94c" target="_top" xlink:title="INMOST::Matrix::Swap">
<polygon fill="none" stroke="black" points="146,-0.5 146,-19.5 262,-19.5 262,-0.5 146,-0.5"/>
<text text-anchor="middle" x="204" y="-7.5" font-family="Helvetica,sans-Serif" font-size="10.00">INMOST::Matrix::Swap</text>
</a>
</g>
</g>
<!-- Node1&#45;&gt;Node2 -->
<g id="edge1" class="edge"><title>Node1&#45;&gt;Node2</title>
<path fill="none" stroke="midnightblue" d="M120.532,-10C128.996,-10 137.62,-10 145.947,-10"/>
<polygon fill="midnightblue" stroke="midnightblue" points="120.32,-6.5001 110.32,-10 120.32,-13.5001 120.32,-6.5001"/>
</g>
<!-- Node3 -->
<g id="node3" class="node"><title>Node3</title>
<g id="a_node3"><a xlink:href="class_i_n_m_o_s_t_1_1_matrix.html#adf8bb731b7c0899039b99f2399d938c6" target="_top" xlink:title="INMOST::Matrix::SVD">
<polygon fill="none" stroke="black" points="298,-0.5 298,-19.5 411,-19.5 411,-0.5 298,-0.5"/>
<text text-anchor="middle" x="354.5" y="-7.5" font-family="Helvetica,sans-Serif" font-size="10.00">INMOST::Matrix::SVD</text>
</a>
</g>
</g>
<!-- Node2&#45;&gt;Node3 -->
<g id="edge2" class="edge"><title>Node2&#45;&gt;Node3</title>
<path fill="none" stroke="midnightblue" d="M272.58,-10C280.985,-10 289.505,-10 297.704,-10"/>
<polygon fill="midnightblue" stroke="midnightblue" points="272.414,-6.5001 262.414,-10 272.414,-13.5001 272.414,-6.5001"/>
</g>
<!-- Node3&#45;&gt;Node3 -->
<g id="edge3" class="edge"><title>Node3&#45;&gt;Node3</title>
<path fill="none" stroke="midnightblue" d="M326.501,-28.6539C327.671,-33.9368 337.004,-38 354.5,-38 381.16,-38 388.867,-28.5653 377.619,-19.7571"/>
<polygon fill="midnightblue" stroke="midnightblue" points="329.64,-30.208 331.381,-19.7571 323.503,-26.8417 329.64,-30.208"/>
</g>
</g>
</svg>
