<?xml version="1.0" encoding="UTF-8" standalone="no"?>
<!DOCTYPE svg PUBLIC "-//W3C//DTD SVG 1.1//EN"
 "http://www.w3.org/Graphics/SVG/1.1/DTD/svg11.dtd">
<!-- Generated by graphviz version 2.38.0 (20140413.2041)
 -->
<!-- Title: INMOST::unary_custom_variable&lt; Expr, A &gt; Pages: 1 -->
<svg width="306pt" height="906pt"
 viewBox="0.00 0.00 305.50 906.00" xmlns="http://www.w3.org/2000/svg" xmlns:xlink="http://www.w3.org/1999/xlink">
<g id="graph0" class="graph" transform="scale(1 1) rotate(0) translate(4 902)">
<title>INMOST::unary_custom_variable&lt; Expr, A &gt;</title>
<!-- Node1 -->
<g id="node1" class="node"><title>Node1</title>
<polygon fill="#bfbfbf" stroke="black" points="40,-0.5 40,-156.5 171,-156.5 171,-0.5 40,-0.5"/>
<text text-anchor="start" x="48" y="-144.5" font-family="Helvetica,sans-Serif" font-size="10.00">INMOST::unary_custom</text>
<text text-anchor="middle" x="105.5" y="-133.5" font-family="Helvetica,sans-Serif" font-size="10.00">_variable&lt; Expr, A &gt;</text>
<polyline fill="none" stroke="black" points="40,-126.5 171,-126.5 "/>
<text text-anchor="middle" x="105.5" y="-114.5" font-family="Helvetica,sans-Serif" font-size="10.00"> </text>
<polyline fill="none" stroke="black" points="40,-107.5 171,-107.5 "/>
<text text-anchor="start" x="48" y="-95.5" font-family="Helvetica,sans-Serif" font-size="10.00">+ unary_custom_variable()</text>
<text text-anchor="start" x="48" y="-84.5" font-family="Helvetica,sans-Serif" font-size="10.00">+ unary_custom_variable()</text>
<text text-anchor="start" x="48" y="-73.5" font-family="Helvetica,sans-Serif" font-size="10.00">+ operator=()</text>
<text text-anchor="start" x="48" y="-62.5" font-family="Helvetica,sans-Serif" font-size="10.00">+ Value()</text>
<text text-anchor="start" x="48" y="-51.5" font-family="Helvetica,sans-Serif" font-size="10.00">+ Variable()</text>
<text text-anchor="start" x="48" y="-40.5" font-family="Helvetica,sans-Serif" font-size="10.00">+ Variable()</text>
<text text-anchor="start" x="48" y="-29.5" font-family="Helvetica,sans-Serif" font-size="10.00">+ operator[]()</text>
<text text-anchor="start" x="48" y="-18.5" font-family="Helvetica,sans-Serif" font-size="10.00">+ GetVariation()</text>
<text text-anchor="start" x="48" y="-7.5" font-family="Helvetica,sans-Serif" font-size="10.00">+ GetVariation()</text>
</g>
<!-- Node2 -->
<g id="node2" class="node"><title>Node2</title>
<g id="a_node2"><a xlink:href="class_i_n_m_o_s_t_1_1shell__dynamic__variable.html" target="_top" xlink:title="{INMOST::shell_dynamic\l_variable\&lt; unary_pool\l_expression\&lt; Expr, A::\lVar \&gt;, unary_custom_variable\l\&lt; Expr, A \&gt; \&gt;\n||+ Value()\l+ operator()()\l+ operator()()\l+ operator[]()\l+ GetVariation()\l+ GetVariation()\l}">
<polygon fill="none" stroke="black" points="32.5,-194.5 32.5,-350.5 178.5,-350.5 178.5,-194.5 32.5,-194.5"/>
<text text-anchor="start" x="40.5" y="-338.5" font-family="Helvetica,sans-Serif" font-size="10.00">INMOST::shell_dynamic</text>
<text text-anchor="start" x="40.5" y="-327.5" font-family="Helvetica,sans-Serif" font-size="10.00">_variable&lt; unary_pool</text>
<text text-anchor="start" x="40.5" y="-316.5" font-family="Helvetica,sans-Serif" font-size="10.00">_expression&lt; Expr, A::</text>
<text text-anchor="start" x="40.5" y="-305.5" font-family="Helvetica,sans-Serif" font-size="10.00">Var &gt;, unary_custom_variable</text>
<text text-anchor="middle" x="105.5" y="-294.5" font-family="Helvetica,sans-Serif" font-size="10.00">&lt; Expr, A &gt; &gt;</text>
<polyline fill="none" stroke="black" points="32.5,-287.5 178.5,-287.5 "/>
<text text-anchor="middle" x="105.5" y="-275.5" font-family="Helvetica,sans-Serif" font-size="10.00"> </text>
<polyline fill="none" stroke="black" points="32.5,-268.5 178.5,-268.5 "/>
<text text-anchor="start" x="40.5" y="-256.5" font-family="Helvetica,sans-Serif" font-size="10.00">+ Value()</text>
<text text-anchor="start" x="40.5" y="-245.5" font-family="Helvetica,sans-Serif" font-size="10.00">+ operator()()</text>
<text text-anchor="start" x="40.5" y="-234.5" font-family="Helvetica,sans-Serif" font-size="10.00">+ operator()()</text>
<text text-anchor="start" x="40.5" y="-223.5" font-family="Helvetica,sans-Serif" font-size="10.00">+ operator[]()</text>
<text text-anchor="start" x="40.5" y="-212.5" font-family="Helvetica,sans-Serif" font-size="10.00">+ GetVariation()</text>
<text text-anchor="start" x="40.5" y="-201.5" font-family="Helvetica,sans-Serif" font-size="10.00">+ GetVariation()</text>
</a>
</g>
</g>
<!-- Node2&#45;&gt;Node1 -->
<g id="edge1" class="edge"><title>Node2&#45;&gt;Node1</title>
<path fill="none" stroke="midnightblue" d="M105.5,-183.985C105.5,-174.85 105.5,-165.612 105.5,-156.606"/>
<polygon fill="none" stroke="midnightblue" points="102,-184.236 105.5,-194.236 109,-184.236 102,-184.236"/>
</g>
<!-- Node3 -->
<g id="node3" class="node"><title>Node3</title>
<g id="a_node3"><a xlink:href="class_i_n_m_o_s_t_1_1basic__dynamic__variable.html" target="_top" xlink:title="{INMOST::basic_dynamic\l_variable\&lt; unary_pool\l_expression\&lt; Expr, A::\lVar \&gt; \&gt;\n||+ Value()\l+ Variable()\l+ Variable()\l+ operator[]()\l+ GetVariation()\l+ GetVariation()\l}">
<polygon fill="none" stroke="black" points="0,-420.5 0,-565.5 125,-565.5 125,-420.5 0,-420.5"/>
<text text-anchor="start" x="8" y="-553.5" font-family="Helvetica,sans-Serif" font-size="10.00">INMOST::basic_dynamic</text>
<text text-anchor="start" x="8" y="-542.5" font-family="Helvetica,sans-Serif" font-size="10.00">_variable&lt; unary_pool</text>
<text text-anchor="start" x="8" y="-531.5" font-family="Helvetica,sans-Serif" font-size="10.00">_expression&lt; Expr, A::</text>
<text text-anchor="middle" x="62.5" y="-520.5" font-family="Helvetica,sans-Serif" font-size="10.00">Var &gt; &gt;</text>
<polyline fill="none" stroke="black" points="0,-513.5 125,-513.5 "/>
<text text-anchor="middle" x="62.5" y="-501.5" font-family="Helvetica,sans-Serif" font-size="10.00"> </text>
<polyline fill="none" stroke="black" points="0,-494.5 125,-494.5 "/>
<text text-anchor="start" x="8" y="-482.5" font-family="Helvetica,sans-Serif" font-size="10.00">+ Value()</text>
<text text-anchor="start" x="8" y="-471.5" font-family="Helvetica,sans-Serif" font-size="10.00">+ Variable()</text>
<text text-anchor="start" x="8" y="-460.5" font-family="Helvetica,sans-Serif" font-size="10.00">+ Variable()</text>
<text text-anchor="start" x="8" y="-449.5" font-family="Helvetica,sans-Serif" font-size="10.00">+ operator[]()</text>
<text text-anchor="start" x="8" y="-438.5" font-family="Helvetica,sans-Serif" font-size="10.00">+ GetVariation()</text>
<text text-anchor="start" x="8" y="-427.5" font-family="Helvetica,sans-Serif" font-size="10.00">+ GetVariation()</text>
</a>
</g>
</g>
<!-- Node3&#45;&gt;Node2 -->
<g id="edge2" class="edge"><title>Node3&#45;&gt;Node2</title>
<path fill="none" stroke="midnightblue" d="M78.5604,-410.391C82.3963,-390.899 86.4795,-370.151 90.2765,-350.857"/>
<polygon fill="none" stroke="midnightblue" points="75.0767,-409.967 76.5798,-420.455 81.9449,-411.319 75.0767,-409.967"/>
</g>
<!-- Node4 -->
<g id="node4" class="node"><title>Node4</title>
<g id="a_node4"><a xlink:href="class_i_n_m_o_s_t_1_1abstract__dynamic__variable.html" target="_top" xlink:title="{INMOST::abstract_dynamic\l_variable\n||+ Value()\l+ Variable()\l+ Variable()\l+ GetVariation()\l+ GetVariation()\l}">
<polygon fill="none" stroke="black" points="5,-785.5 5,-897.5 142,-897.5 142,-785.5 5,-785.5"/>
<text text-anchor="start" x="13" y="-885.5" font-family="Helvetica,sans-Serif" font-size="10.00">INMOST::abstract_dynamic</text>
<text text-anchor="middle" x="73.5" y="-874.5" font-family="Helvetica,sans-Serif" font-size="10.00">_variable</text>
<polyline fill="none" stroke="black" points="5,-867.5 142,-867.5 "/>
<text text-anchor="middle" x="73.5" y="-855.5" font-family="Helvetica,sans-Serif" font-size="10.00"> </text>
<polyline fill="none" stroke="black" points="5,-848.5 142,-848.5 "/>
<text text-anchor="start" x="13" y="-836.5" font-family="Helvetica,sans-Serif" font-size="10.00">+ Value()</text>
<text text-anchor="start" x="13" y="-825.5" font-family="Helvetica,sans-Serif" font-size="10.00">+ Variable()</text>
<text text-anchor="start" x="13" y="-814.5" font-family="Helvetica,sans-Serif" font-size="10.00">+ Variable()</text>
<text text-anchor="start" x="13" y="-803.5" font-family="Helvetica,sans-Serif" font-size="10.00">+ GetVariation()</text>
<text text-anchor="start" x="13" y="-792.5" font-family="Helvetica,sans-Serif" font-size="10.00">+ GetVariation()</text>
</a>
</g>
</g>
<!-- Node4&#45;&gt;Node3 -->
<g id="edge3" class="edge"><title>Node4&#45;&gt;Node3</title>
<path fill="none" stroke="midnightblue" d="M65.5791,-775.124C64.7261,-766.026 63.991,-756.788 63.5,-748 60.0684,-686.58 60.0797,-616.675 60.8008,-565.771"/>
<polygon fill="none" stroke="midnightblue" points="62.1187,-775.698 66.5855,-785.306 69.0847,-775.01 62.1187,-775.698"/>
</g>
<!-- Node5 -->
<g id="node5" class="node"><title>Node5</title>
<g id="a_node5"><a xlink:href="class_i_n_m_o_s_t_1_1basic__dynamic__variable.html" target="_top" xlink:title="{INMOST::basic_dynamic\l_variable\&lt; VariableType \&gt;\n||+ Value()\l+ Variable()\l+ Variable()\l+ operator[]()\l+ GetVariation()\l+ GetVariation()\l}">
<polygon fill="none" stroke="black" points="72.5,-624.5 72.5,-747.5 200.5,-747.5 200.5,-624.5 72.5,-624.5"/>
<text text-anchor="start" x="80.5" y="-735.5" font-family="Helvetica,sans-Serif" font-size="10.00">INMOST::basic_dynamic</text>
<text text-anchor="middle" x="136.5" y="-724.5" font-family="Helvetica,sans-Serif" font-size="10.00">_variable&lt; VariableType &gt;</text>
<polyline fill="none" stroke="black" points="72.5,-717.5 200.5,-717.5 "/>
<text text-anchor="middle" x="136.5" y="-705.5" font-family="Helvetica,sans-Serif" font-size="10.00"> </text>
<polyline fill="none" stroke="black" points="72.5,-698.5 200.5,-698.5 "/>
<text text-anchor="start" x="80.5" y="-686.5" font-family="Helvetica,sans-Serif" font-size="10.00">+ Value()</text>
<text text-anchor="start" x="80.5" y="-675.5" font-family="Helvetica,sans-Serif" font-size="10.00">+ Variable()</text>
<text text-anchor="start" x="80.5" y="-664.5" font-family="Helvetica,sans-Serif" font-size="10.00">+ Variable()</text>
<text text-anchor="start" x="80.5" y="-653.5" font-family="Helvetica,sans-Serif" font-size="10.00">+ operator[]()</text>
<text text-anchor="start" x="80.5" y="-642.5" font-family="Helvetica,sans-Serif" font-size="10.00">+ GetVariation()</text>
<text text-anchor="start" x="80.5" y="-631.5" font-family="Helvetica,sans-Serif" font-size="10.00">+ GetVariation()</text>
</a>
</g>
</g>
<!-- Node4&#45;&gt;Node5 -->
<g id="edge5" class="edge"><title>Node4&#45;&gt;Node5</title>
<path fill="none" stroke="midnightblue" d="M100.049,-775.812C103.897,-766.438 107.845,-756.818 111.657,-747.53"/>
<polygon fill="none" stroke="midnightblue" points="96.8035,-774.503 96.2444,-785.083 103.279,-777.161 96.8035,-774.503"/>
</g>
<!-- Node5&#45;&gt;Node3 -->
<g id="edge4" class="edge"><title>Node5&#45;&gt;Node3</title>
<path fill="none" stroke="orange" d="M78.6811,-615.131C77.1511,-612.117 75.7474,-609.069 74.5,-606 69.3822,-593.409 66.1587,-579.4 64.1783,-565.67"/>
<polygon fill="orange" stroke="orange" points="75.716,-617.002 83.62,-624.057 81.841,-613.613 75.716,-617.002"/>
<text text-anchor="start" x="74.5" y="-598" font-family="Helvetica,sans-Serif" font-size="10.00"> &lt; unary_pool_expression</text>
<text text-anchor="middle" x="130.5" y="-587" font-family="Helvetica,sans-Serif" font-size="10.00">&lt; Expr, A::Var &gt; &gt;</text>
</g>
<!-- Node6 -->
<g id="node6" class="node"><title>Node6</title>
<g id="a_node6"><a xlink:href="class_i_n_m_o_s_t_1_1shell__dynamic__variable.html" target="_top" xlink:title="{INMOST::shell_dynamic\l_variable\&lt; VariableType,\l Derived \&gt;\n||+ Value()\l+ operator()()\l+ operator()()\l+ operator[]()\l+ GetVariation()\l+ GetVariation()\l}">
<polygon fill="none" stroke="black" points="143.5,-426 143.5,-560 265.5,-560 265.5,-426 143.5,-426"/>
<text text-anchor="start" x="151.5" y="-548" font-family="Helvetica,sans-Serif" font-size="10.00">INMOST::shell_dynamic</text>
<text text-anchor="start" x="151.5" y="-537" font-family="Helvetica,sans-Serif" font-size="10.00">_variable&lt; VariableType,</text>
<text text-anchor="middle" x="204.5" y="-526" font-family="Helvetica,sans-Serif" font-size="10.00"> Derived &gt;</text>
<polyline fill="none" stroke="black" points="143.5,-519 265.5,-519 "/>
<text text-anchor="middle" x="204.5" y="-507" font-family="Helvetica,sans-Serif" font-size="10.00"> </text>
<polyline fill="none" stroke="black" points="143.5,-500 265.5,-500 "/>
<text text-anchor="start" x="151.5" y="-488" font-family="Helvetica,sans-Serif" font-size="10.00">+ Value()</text>
<text text-anchor="start" x="151.5" y="-477" font-family="Helvetica,sans-Serif" font-size="10.00">+ operator()()</text>
<text text-anchor="start" x="151.5" y="-466" font-family="Helvetica,sans-Serif" font-size="10.00">+ operator()()</text>
<text text-anchor="start" x="151.5" y="-455" font-family="Helvetica,sans-Serif" font-size="10.00">+ operator[]()</text>
<text text-anchor="start" x="151.5" y="-444" font-family="Helvetica,sans-Serif" font-size="10.00">+ GetVariation()</text>
<text text-anchor="start" x="151.5" y="-433" font-family="Helvetica,sans-Serif" font-size="10.00">+ GetVariation()</text>
</a>
</g>
</g>
<!-- Node5&#45;&gt;Node6 -->
<g id="edge7" class="edge"><title>Node5&#45;&gt;Node6</title>
<path fill="none" stroke="midnightblue" d="M186.563,-615.294C188.001,-612.211 189.323,-609.107 190.5,-606 195.947,-591.614 199.37,-575.52 201.498,-560.117"/>
<polygon fill="none" stroke="midnightblue" points="183.319,-613.953 181.931,-624.456 189.566,-617.111 183.319,-613.953"/>
</g>
<!-- Node6&#45;&gt;Node2 -->
<g id="edge6" class="edge"><title>Node6&#45;&gt;Node2</title>
<path fill="none" stroke="orange" d="M170.301,-416.52C160.639,-395.196 150.115,-371.968 140.412,-350.553"/>
<polygon fill="orange" stroke="orange" points="167.213,-418.186 174.528,-425.85 173.589,-415.297 167.213,-418.186"/>
<text text-anchor="start" x="161.5" y="-394" font-family="Helvetica,sans-Serif" font-size="10.00"> &lt; unary_pool_expression</text>
<text text-anchor="start" x="161.5" y="-383" font-family="Helvetica,sans-Serif" font-size="10.00">&lt; Expr, A::Var &gt;, unary</text>
<text text-anchor="middle" x="229.5" y="-372" font-family="Helvetica,sans-Serif" font-size="10.00">_custom_variable&lt; Expr, A &gt; &gt;</text>
</g>
</g>
</svg>
