<?xml version="1.0" encoding="UTF-8" standalone="no"?>
<!DOCTYPE svg PUBLIC "-//W3C//DTD SVG 1.1//EN"
 "http://www.w3.org/Graphics/SVG/1.1/DTD/svg11.dtd">
<!-- Generated by graphviz version 2.38.0 (20140413.2041)
 -->
<!-- Title: INMOST::Automatizator::GetDynamicMask Pages: 1 -->
<svg width="319pt" height="149pt"
 viewBox="0.00 0.00 319.00 149.00" xmlns="http://www.w3.org/2000/svg" xmlns:xlink="http://www.w3.org/1999/xlink">
<g id="graph0" class="graph" transform="scale(1 1) rotate(0) translate(4 145)">
<title>INMOST::Automatizator::GetDynamicMask</title>
<!-- Node1 -->
<g id="node1" class="node"><title>Node1</title>
<polygon fill="#bfbfbf" stroke="black" points="0,-55.5 0,-85.5 120,-85.5 120,-55.5 0,-55.5"/>
<text text-anchor="start" x="8" y="-73.5" font-family="Helvetica,sans-Serif" font-size="10.00">INMOST::Automatizator</text>
<text text-anchor="middle" x="60" y="-62.5" font-family="Helvetica,sans-Serif" font-size="10.00">::GetDynamicMask</text>
</g>
<!-- Node2 -->
<g id="node2" class="node"><title>Node2</title>
<g id="a_node2"><a xlink:href="class_i_n_m_o_s_t_1_1_automatizator.html#a3da0c47982b82640337e87375abe7314" target="_top" xlink:title="INMOST::Automatizator\l::isDynamicValid">
<polygon fill="none" stroke="black" points="173.5,-110.5 173.5,-140.5 293.5,-140.5 293.5,-110.5 173.5,-110.5"/>
<text text-anchor="start" x="181.5" y="-128.5" font-family="Helvetica,sans-Serif" font-size="10.00">INMOST::Automatizator</text>
<text text-anchor="middle" x="233.5" y="-117.5" font-family="Helvetica,sans-Serif" font-size="10.00">::isDynamicValid</text>
</a>
</g>
</g>
<!-- Node1&#45;&gt;Node2 -->
<g id="edge1" class="edge"><title>Node1&#45;&gt;Node2</title>
<path fill="none" stroke="midnightblue" d="M117.46,-88.6067C139.565,-95.6958 164.621,-103.731 185.694,-110.489"/>
<polygon fill="midnightblue" stroke="midnightblue" points="118.454,-85.2501 107.863,-85.529 116.317,-91.9157 118.454,-85.2501"/>
</g>
<!-- Node3 -->
<g id="node3" class="node"><title>Node3</title>
<g id="a_node3"><a xlink:href="class_i_n_m_o_s_t_1_1enhanced__multivar__expression.html#aa7a9b5c6c18e890d941c0abaf36fc9ac" target="_top" xlink:title="INMOST::enhanced_multivar\l_expression::enhanced_multivar\l_expression">
<polygon fill="none" stroke="black" points="156,-50 156,-91 311,-91 311,-50 156,-50"/>
<text text-anchor="start" x="164" y="-79" font-family="Helvetica,sans-Serif" font-size="10.00">INMOST::enhanced_multivar</text>
<text text-anchor="start" x="164" y="-68" font-family="Helvetica,sans-Serif" font-size="10.00">_expression::enhanced_multivar</text>
<text text-anchor="middle" x="233.5" y="-57" font-family="Helvetica,sans-Serif" font-size="10.00">_expression</text>
</a>
</g>
</g>
<!-- Node1&#45;&gt;Node3 -->
<g id="edge2" class="edge"><title>Node1&#45;&gt;Node3</title>
<path fill="none" stroke="midnightblue" d="M130.176,-70.5C138.611,-70.5 147.268,-70.5 155.804,-70.5"/>
<polygon fill="midnightblue" stroke="midnightblue" points="130.021,-67.0001 120.021,-70.5 130.021,-74.0001 130.021,-67.0001"/>
</g>
<!-- Node4 -->
<g id="node4" class="node"><title>Node4</title>
<g id="a_node4"><a xlink:href="class_i_n_m_o_s_t_1_1dynamic__variable.html#a681874b35071574a0ed8a1ab928f959e" target="_top" xlink:title="INMOST::dynamic_variable\l::dynamic_variable">
<polygon fill="none" stroke="black" points="166.5,-0.5 166.5,-30.5 300.5,-30.5 300.5,-0.5 166.5,-0.5"/>
<text text-anchor="start" x="174.5" y="-18.5" font-family="Helvetica,sans-Serif" font-size="10.00">INMOST::dynamic_variable</text>
<text text-anchor="middle" x="233.5" y="-7.5" font-family="Helvetica,sans-Serif" font-size="10.00">::dynamic_variable</text>
</a>
</g>
</g>
<!-- Node1&#45;&gt;Node4 -->
<g id="edge3" class="edge"><title>Node1&#45;&gt;Node4</title>
<path fill="none" stroke="midnightblue" d="M117.46,-52.3933C139.565,-45.3042 164.621,-37.2687 185.694,-30.5108"/>
<polygon fill="midnightblue" stroke="midnightblue" points="116.317,-49.0843 107.863,-55.471 118.454,-55.7499 116.317,-49.0843"/>
</g>
</g>
</svg>
