<?xml version="1.0" encoding="UTF-8" standalone="no"?>
<!DOCTYPE svg PUBLIC "-//W3C//DTD SVG 1.1//EN"
 "http://www.w3.org/Graphics/SVG/1.1/DTD/svg11.dtd">
<!-- Generated by graphviz version 2.38.0 (20140413.2041)
 -->
<!-- Title: INMOST::Mesh::NumberOfEdges Pages: 1 -->
<svg width="559pt" height="28pt"
 viewBox="0.00 0.00 559.00 28.00" xmlns="http://www.w3.org/2000/svg" xmlns:xlink="http://www.w3.org/1999/xlink">
<g id="graph0" class="graph" transform="scale(1 1) rotate(0) translate(4 24)">
<title>INMOST::Mesh::NumberOfEdges</title>
<!-- Node1 -->
<g id="node1" class="node"><title>Node1</title>
<polygon fill="#bfbfbf" stroke="black" points="0,-0.5 0,-19.5 161,-19.5 161,-0.5 0,-0.5"/>
<text text-anchor="middle" x="80.5" y="-7.5" font-family="Helvetica,sans-Serif" font-size="10.00">INMOST::Mesh::NumberOfEdges</text>
</g>
<!-- Node2 -->
<g id="node2" class="node"><title>Node2</title>
<g id="a_node2"><a xlink:href="class_i_n_m_o_s_t_1_1_mesh.html#a7aee6d7f5b7432dc34bc7319a9e1e8f4" target="_top" xlink:title="INMOST::Mesh::NumberOfElements">
<polygon fill="none" stroke="black" points="197,-0.5 197,-19.5 371,-19.5 371,-0.5 197,-0.5"/>
<text text-anchor="middle" x="284" y="-7.5" font-family="Helvetica,sans-Serif" font-size="10.00">INMOST::Mesh::NumberOfElements</text>
</a>
</g>
</g>
<!-- Node1&#45;&gt;Node2 -->
<g id="edge1" class="edge"><title>Node1&#45;&gt;Node2</title>
<path fill="none" stroke="midnightblue" d="M171.15,-10C179.734,-10 188.427,-10 196.975,-10"/>
<polygon fill="midnightblue" stroke="midnightblue" points="171.138,-6.5001 161.138,-10 171.138,-13.5001 171.138,-6.5001"/>
</g>
<!-- Node3 -->
<g id="node3" class="node"><title>Node3</title>
<g id="a_node3"><a xlink:href="class_i_n_m_o_s_t_1_1_mesh.html#a8f8e4c3631d8448e738f26cfc99e6871" target="_top" xlink:title="INMOST::Mesh::NumberOfAll">
<polygon fill="none" stroke="black" points="407,-0.5 407,-19.5 551,-19.5 551,-0.5 407,-0.5"/>
<text text-anchor="middle" x="479" y="-7.5" font-family="Helvetica,sans-Serif" font-size="10.00">INMOST::Mesh::NumberOfAll</text>
</a>
</g>
</g>
<!-- Node2&#45;&gt;Node3 -->
<g id="edge2" class="edge"><title>Node2&#45;&gt;Node3</title>
<path fill="none" stroke="midnightblue" d="M381.185,-10C389.828,-10 398.474,-10 406.847,-10"/>
<polygon fill="midnightblue" stroke="midnightblue" points="381.058,-6.5001 371.058,-10 381.058,-13.5001 381.058,-6.5001"/>
</g>
</g>
</svg>
