<?xml version="1.0" encoding="UTF-8" standalone="no"?>
<!DOCTYPE svg PUBLIC "-//W3C//DTD SVG 1.1//EN"
 "http://www.w3.org/Graphics/SVG/1.1/DTD/svg11.dtd">
<!-- Generated by graphviz version 2.38.0 (20140413.2041)
 -->
<!-- Title: INMOST::Mesh::FirstHandle Pages: 1 -->
<svg width="486pt" height="66pt"
 viewBox="0.00 0.00 486.00 66.00" xmlns="http://www.w3.org/2000/svg" xmlns:xlink="http://www.w3.org/1999/xlink">
<g id="graph0" class="graph" transform="scale(1 1) rotate(0) translate(4 62)">
<title>INMOST::Mesh::FirstHandle</title>
<!-- Node1 -->
<g id="node1" class="node"><title>Node1</title>
<polygon fill="#bfbfbf" stroke="black" points="0,-19.5 0,-38.5 139,-38.5 139,-19.5 0,-19.5"/>
<text text-anchor="middle" x="69.5" y="-26.5" font-family="Helvetica,sans-Serif" font-size="10.00">INMOST::Mesh::FirstHandle</text>
</g>
<!-- Node2 -->
<g id="node2" class="node"><title>Node2</title>
<g id="a_node2"><a xlink:href="namespace_i_n_m_o_s_t.html#adfd1fb8f456156532c262eac5e045aa3" target="_top" xlink:title="INMOST::ComposeHandleNum">
<polygon fill="none" stroke="black" points="175,-38.5 175,-57.5 326,-57.5 326,-38.5 175,-38.5"/>
<text text-anchor="middle" x="250.5" y="-45.5" font-family="Helvetica,sans-Serif" font-size="10.00">INMOST::ComposeHandleNum</text>
</a>
</g>
</g>
<!-- Node1&#45;&gt;Node2 -->
<g id="edge1" class="edge"><title>Node1&#45;&gt;Node2</title>
<path fill="none" stroke="midnightblue" d="M139.194,-36.2916C147.556,-37.1791 156.174,-38.0939 164.735,-39.0026"/>
<polygon fill="midnightblue" stroke="midnightblue" points="164.425,-42.4892 174.738,-40.0644 165.164,-35.5283 164.425,-42.4892"/>
</g>
<!-- Node4 -->
<g id="node4" class="node"><title>Node4</title>
<g id="a_node4"><a xlink:href="namespace_i_n_m_o_s_t.html#abfa34d6393c75e4cb6bbfbc1ded4f99a" target="_top" xlink:title="INMOST::ElementNum">
<polygon fill="none" stroke="black" points="192.5,-0.5 192.5,-19.5 308.5,-19.5 308.5,-0.5 192.5,-0.5"/>
<text text-anchor="middle" x="250.5" y="-7.5" font-family="Helvetica,sans-Serif" font-size="10.00">INMOST::ElementNum</text>
</a>
</g>
</g>
<!-- Node1&#45;&gt;Node4 -->
<g id="edge3" class="edge"><title>Node1&#45;&gt;Node4</title>
<path fill="none" stroke="midnightblue" d="M139.194,-21.7084C153.316,-20.2095 168.169,-18.6329 182.24,-17.1394"/>
<polygon fill="midnightblue" stroke="midnightblue" points="182.75,-20.6049 192.325,-16.0689 182.011,-13.644 182.75,-20.6049"/>
</g>
<!-- Node3 -->
<g id="node3" class="node"><title>Node3</title>
<g id="a_node3"><a xlink:href="namespace_i_n_m_o_s_t.html#a115b3e54c3b7be04ffec9b69c058df18" target="_top" xlink:title="INMOST::InvalidHandle">
<polygon fill="none" stroke="black" points="362,-38.5 362,-57.5 478,-57.5 478,-38.5 362,-38.5"/>
<text text-anchor="middle" x="420" y="-45.5" font-family="Helvetica,sans-Serif" font-size="10.00">INMOST::InvalidHandle</text>
</a>
</g>
</g>
<!-- Node2&#45;&gt;Node3 -->
<g id="edge2" class="edge"><title>Node2&#45;&gt;Node3</title>
<path fill="none" stroke="midnightblue" d="M326.432,-48C334.854,-48 343.396,-48 351.713,-48"/>
<polygon fill="midnightblue" stroke="midnightblue" points="351.722,-51.5001 361.722,-48 351.722,-44.5001 351.722,-51.5001"/>
</g>
</g>
</svg>
