<?xml version="1.0" encoding="UTF-8" standalone="no"?>
<!DOCTYPE svg PUBLIC "-//W3C//DTD SVG 1.1//EN"
 "http://www.w3.org/Graphics/SVG/1.1/DTD/svg11.dtd">
<!-- Generated by graphviz version 2.38.0 (20140413.2041)
 -->
<!-- Title: INMOST::binary_custom_variable&lt; Expr, A, B &gt; Pages: 1 -->
<svg width="298pt" height="917pt"
 viewBox="0.00 0.00 297.50 917.00" xmlns="http://www.w3.org/2000/svg" xmlns:xlink="http://www.w3.org/1999/xlink">
<g id="graph0" class="graph" transform="scale(1 1) rotate(0) translate(4 913)">
<title>INMOST::binary_custom_variable&lt; Expr, A, B &gt;</title>
<!-- Node1 -->
<g id="node1" class="node"><title>Node1</title>
<polygon fill="#bfbfbf" stroke="black" points="45,-0.5 45,-156.5 178,-156.5 178,-0.5 45,-0.5"/>
<text text-anchor="start" x="53" y="-144.5" font-family="Helvetica,sans-Serif" font-size="10.00">INMOST::binary_custom</text>
<text text-anchor="middle" x="111.5" y="-133.5" font-family="Helvetica,sans-Serif" font-size="10.00">_variable&lt; Expr, A, B &gt;</text>
<polyline fill="none" stroke="black" points="45,-126.5 178,-126.5 "/>
<text text-anchor="middle" x="111.5" y="-114.5" font-family="Helvetica,sans-Serif" font-size="10.00"> </text>
<polyline fill="none" stroke="black" points="45,-107.5 178,-107.5 "/>
<text text-anchor="start" x="53" y="-95.5" font-family="Helvetica,sans-Serif" font-size="10.00">+ binary_custom_variable()</text>
<text text-anchor="start" x="53" y="-84.5" font-family="Helvetica,sans-Serif" font-size="10.00">+ binary_custom_variable()</text>
<text text-anchor="start" x="53" y="-73.5" font-family="Helvetica,sans-Serif" font-size="10.00">+ operator=()</text>
<text text-anchor="start" x="53" y="-62.5" font-family="Helvetica,sans-Serif" font-size="10.00">+ Value()</text>
<text text-anchor="start" x="53" y="-51.5" font-family="Helvetica,sans-Serif" font-size="10.00">+ Variable()</text>
<text text-anchor="start" x="53" y="-40.5" font-family="Helvetica,sans-Serif" font-size="10.00">+ Variable()</text>
<text text-anchor="start" x="53" y="-29.5" font-family="Helvetica,sans-Serif" font-size="10.00">+ operator[]()</text>
<text text-anchor="start" x="53" y="-18.5" font-family="Helvetica,sans-Serif" font-size="10.00">+ GetVariation()</text>
<text text-anchor="start" x="53" y="-7.5" font-family="Helvetica,sans-Serif" font-size="10.00">+ GetVariation()</text>
</g>
<!-- Node2 -->
<g id="node2" class="node"><title>Node2</title>
<g id="a_node2"><a xlink:href="class_i_n_m_o_s_t_1_1shell__dynamic__variable.html" target="_top" xlink:title="{INMOST::shell_dynamic\l_variable\&lt; binary_pool\l_expression\&lt; Expr, A::Var,\l B::Var \&gt;, binary_custom\l_variable\&lt; Expr, A, B \&gt; \&gt;\n||+ Value()\l+ operator()()\l+ operator()()\l+ operator[]()\l+ GetVariation()\l+ GetVariation()\l}">
<polygon fill="none" stroke="black" points="44,-194.5 44,-350.5 179,-350.5 179,-194.5 44,-194.5"/>
<text text-anchor="start" x="52" y="-338.5" font-family="Helvetica,sans-Serif" font-size="10.00">INMOST::shell_dynamic</text>
<text text-anchor="start" x="52" y="-327.5" font-family="Helvetica,sans-Serif" font-size="10.00">_variable&lt; binary_pool</text>
<text text-anchor="start" x="52" y="-316.5" font-family="Helvetica,sans-Serif" font-size="10.00">_expression&lt; Expr, A::Var,</text>
<text text-anchor="start" x="52" y="-305.5" font-family="Helvetica,sans-Serif" font-size="10.00"> B::Var &gt;, binary_custom</text>
<text text-anchor="middle" x="111.5" y="-294.5" font-family="Helvetica,sans-Serif" font-size="10.00">_variable&lt; Expr, A, B &gt; &gt;</text>
<polyline fill="none" stroke="black" points="44,-287.5 179,-287.5 "/>
<text text-anchor="middle" x="111.5" y="-275.5" font-family="Helvetica,sans-Serif" font-size="10.00"> </text>
<polyline fill="none" stroke="black" points="44,-268.5 179,-268.5 "/>
<text text-anchor="start" x="52" y="-256.5" font-family="Helvetica,sans-Serif" font-size="10.00">+ Value()</text>
<text text-anchor="start" x="52" y="-245.5" font-family="Helvetica,sans-Serif" font-size="10.00">+ operator()()</text>
<text text-anchor="start" x="52" y="-234.5" font-family="Helvetica,sans-Serif" font-size="10.00">+ operator()()</text>
<text text-anchor="start" x="52" y="-223.5" font-family="Helvetica,sans-Serif" font-size="10.00">+ operator[]()</text>
<text text-anchor="start" x="52" y="-212.5" font-family="Helvetica,sans-Serif" font-size="10.00">+ GetVariation()</text>
<text text-anchor="start" x="52" y="-201.5" font-family="Helvetica,sans-Serif" font-size="10.00">+ GetVariation()</text>
</a>
</g>
</g>
<!-- Node2&#45;&gt;Node1 -->
<g id="edge1" class="edge"><title>Node2&#45;&gt;Node1</title>
<path fill="none" stroke="midnightblue" d="M111.5,-183.985C111.5,-174.85 111.5,-165.612 111.5,-156.606"/>
<polygon fill="none" stroke="midnightblue" points="108,-184.236 111.5,-194.236 115,-184.236 108,-184.236"/>
</g>
<!-- Node3 -->
<g id="node3" class="node"><title>Node3</title>
<g id="a_node3"><a xlink:href="class_i_n_m_o_s_t_1_1basic__dynamic__variable.html" target="_top" xlink:title="{INMOST::basic_dynamic\l_variable\&lt; binary_pool\l_expression\&lt; Expr, A::Var,\l B::Var \&gt; \&gt;\n||+ Value()\l+ Variable()\l+ Variable()\l+ operator[]()\l+ GetVariation()\l+ GetVariation()\l}">
<polygon fill="none" stroke="black" points="0,-431.5 0,-576.5 135,-576.5 135,-431.5 0,-431.5"/>
<text text-anchor="start" x="8" y="-564.5" font-family="Helvetica,sans-Serif" font-size="10.00">INMOST::basic_dynamic</text>
<text text-anchor="start" x="8" y="-553.5" font-family="Helvetica,sans-Serif" font-size="10.00">_variable&lt; binary_pool</text>
<text text-anchor="start" x="8" y="-542.5" font-family="Helvetica,sans-Serif" font-size="10.00">_expression&lt; Expr, A::Var,</text>
<text text-anchor="middle" x="67.5" y="-531.5" font-family="Helvetica,sans-Serif" font-size="10.00"> B::Var &gt; &gt;</text>
<polyline fill="none" stroke="black" points="0,-524.5 135,-524.5 "/>
<text text-anchor="middle" x="67.5" y="-512.5" font-family="Helvetica,sans-Serif" font-size="10.00"> </text>
<polyline fill="none" stroke="black" points="0,-505.5 135,-505.5 "/>
<text text-anchor="start" x="8" y="-493.5" font-family="Helvetica,sans-Serif" font-size="10.00">+ Value()</text>
<text text-anchor="start" x="8" y="-482.5" font-family="Helvetica,sans-Serif" font-size="10.00">+ Variable()</text>
<text text-anchor="start" x="8" y="-471.5" font-family="Helvetica,sans-Serif" font-size="10.00">+ Variable()</text>
<text text-anchor="start" x="8" y="-460.5" font-family="Helvetica,sans-Serif" font-size="10.00">+ operator[]()</text>
<text text-anchor="start" x="8" y="-449.5" font-family="Helvetica,sans-Serif" font-size="10.00">+ GetVariation()</text>
<text text-anchor="start" x="8" y="-438.5" font-family="Helvetica,sans-Serif" font-size="10.00">+ GetVariation()</text>
</a>
</g>
</g>
<!-- Node3&#45;&gt;Node2 -->
<g id="edge2" class="edge"><title>Node3&#45;&gt;Node2</title>
<path fill="none" stroke="midnightblue" d="M83.1719,-421.257C87.5822,-398.253 92.3633,-373.315 96.7197,-350.593"/>
<polygon fill="none" stroke="midnightblue" points="79.6865,-420.849 81.2409,-431.329 86.5613,-422.167 79.6865,-420.849"/>
</g>
<!-- Node4 -->
<g id="node4" class="node"><title>Node4</title>
<g id="a_node4"><a xlink:href="class_i_n_m_o_s_t_1_1abstract__dynamic__variable.html" target="_top" xlink:title="{INMOST::abstract_dynamic\l_variable\n||+ Value()\l+ Variable()\l+ Variable()\l+ GetVariation()\l+ GetVariation()\l}">
<polygon fill="none" stroke="black" points="12,-796.5 12,-908.5 149,-908.5 149,-796.5 12,-796.5"/>
<text text-anchor="start" x="20" y="-896.5" font-family="Helvetica,sans-Serif" font-size="10.00">INMOST::abstract_dynamic</text>
<text text-anchor="middle" x="80.5" y="-885.5" font-family="Helvetica,sans-Serif" font-size="10.00">_variable</text>
<polyline fill="none" stroke="black" points="12,-878.5 149,-878.5 "/>
<text text-anchor="middle" x="80.5" y="-866.5" font-family="Helvetica,sans-Serif" font-size="10.00"> </text>
<polyline fill="none" stroke="black" points="12,-859.5 149,-859.5 "/>
<text text-anchor="start" x="20" y="-847.5" font-family="Helvetica,sans-Serif" font-size="10.00">+ Value()</text>
<text text-anchor="start" x="20" y="-836.5" font-family="Helvetica,sans-Serif" font-size="10.00">+ Variable()</text>
<text text-anchor="start" x="20" y="-825.5" font-family="Helvetica,sans-Serif" font-size="10.00">+ Variable()</text>
<text text-anchor="start" x="20" y="-814.5" font-family="Helvetica,sans-Serif" font-size="10.00">+ GetVariation()</text>
<text text-anchor="start" x="20" y="-803.5" font-family="Helvetica,sans-Serif" font-size="10.00">+ GetVariation()</text>
</a>
</g>
</g>
<!-- Node4&#45;&gt;Node3 -->
<g id="edge3" class="edge"><title>Node4&#45;&gt;Node3</title>
<path fill="none" stroke="midnightblue" d="M72.6434,-786.121C71.7805,-777.023 71.0256,-767.786 70.5,-759 66.8198,-697.48 66.2636,-627.434 66.5174,-576.504"/>
<polygon fill="none" stroke="midnightblue" points="69.1834,-786.697 73.6569,-796.301 76.149,-786.004 69.1834,-786.697"/>
</g>
<!-- Node5 -->
<g id="node5" class="node"><title>Node5</title>
<g id="a_node5"><a xlink:href="class_i_n_m_o_s_t_1_1basic__dynamic__variable.html" target="_top" xlink:title="{INMOST::basic_dynamic\l_variable\&lt; VariableType \&gt;\n||+ Value()\l+ Variable()\l+ Variable()\l+ operator[]()\l+ GetVariation()\l+ GetVariation()\l}">
<polygon fill="none" stroke="black" points="79.5,-635.5 79.5,-758.5 207.5,-758.5 207.5,-635.5 79.5,-635.5"/>
<text text-anchor="start" x="87.5" y="-746.5" font-family="Helvetica,sans-Serif" font-size="10.00">INMOST::basic_dynamic</text>
<text text-anchor="middle" x="143.5" y="-735.5" font-family="Helvetica,sans-Serif" font-size="10.00">_variable&lt; VariableType &gt;</text>
<polyline fill="none" stroke="black" points="79.5,-728.5 207.5,-728.5 "/>
<text text-anchor="middle" x="143.5" y="-716.5" font-family="Helvetica,sans-Serif" font-size="10.00"> </text>
<polyline fill="none" stroke="black" points="79.5,-709.5 207.5,-709.5 "/>
<text text-anchor="start" x="87.5" y="-697.5" font-family="Helvetica,sans-Serif" font-size="10.00">+ Value()</text>
<text text-anchor="start" x="87.5" y="-686.5" font-family="Helvetica,sans-Serif" font-size="10.00">+ Variable()</text>
<text text-anchor="start" x="87.5" y="-675.5" font-family="Helvetica,sans-Serif" font-size="10.00">+ Variable()</text>
<text text-anchor="start" x="87.5" y="-664.5" font-family="Helvetica,sans-Serif" font-size="10.00">+ operator[]()</text>
<text text-anchor="start" x="87.5" y="-653.5" font-family="Helvetica,sans-Serif" font-size="10.00">+ GetVariation()</text>
<text text-anchor="start" x="87.5" y="-642.5" font-family="Helvetica,sans-Serif" font-size="10.00">+ GetVariation()</text>
</a>
</g>
</g>
<!-- Node4&#45;&gt;Node5 -->
<g id="edge5" class="edge"><title>Node4&#45;&gt;Node5</title>
<path fill="none" stroke="midnightblue" d="M107.049,-786.812C110.897,-777.438 114.845,-767.818 118.657,-758.53"/>
<polygon fill="none" stroke="midnightblue" points="103.803,-785.503 103.244,-796.083 110.279,-788.161 103.803,-785.503"/>
</g>
<!-- Node5&#45;&gt;Node3 -->
<g id="edge4" class="edge"><title>Node5&#45;&gt;Node3</title>
<path fill="none" stroke="orange" d="M86.0232,-626.629C84.3682,-623.451 82.8488,-620.236 81.5,-617 76.2608,-604.429 72.8344,-590.429 70.6227,-576.702"/>
<polygon fill="orange" stroke="orange" points="83.0515,-628.485 91.0169,-635.471 89.1466,-625.042 83.0515,-628.485"/>
<text text-anchor="start" x="81.5" y="-609" font-family="Helvetica,sans-Serif" font-size="10.00"> &lt; binary_pool_expression</text>
<text text-anchor="middle" x="139" y="-598" font-family="Helvetica,sans-Serif" font-size="10.00">&lt; Expr, A::Var, B::Var &gt; &gt;</text>
</g>
<!-- Node6 -->
<g id="node6" class="node"><title>Node6</title>
<g id="a_node6"><a xlink:href="class_i_n_m_o_s_t_1_1shell__dynamic__variable.html" target="_top" xlink:title="{INMOST::shell_dynamic\l_variable\&lt; VariableType,\l Derived \&gt;\n||+ Value()\l+ operator()()\l+ operator()()\l+ operator[]()\l+ GetVariation()\l+ GetVariation()\l}">
<polygon fill="none" stroke="black" points="153.5,-437 153.5,-571 275.5,-571 275.5,-437 153.5,-437"/>
<text text-anchor="start" x="161.5" y="-559" font-family="Helvetica,sans-Serif" font-size="10.00">INMOST::shell_dynamic</text>
<text text-anchor="start" x="161.5" y="-548" font-family="Helvetica,sans-Serif" font-size="10.00">_variable&lt; VariableType,</text>
<text text-anchor="middle" x="214.5" y="-537" font-family="Helvetica,sans-Serif" font-size="10.00"> Derived &gt;</text>
<polyline fill="none" stroke="black" points="153.5,-530 275.5,-530 "/>
<text text-anchor="middle" x="214.5" y="-518" font-family="Helvetica,sans-Serif" font-size="10.00"> </text>
<polyline fill="none" stroke="black" points="153.5,-511 275.5,-511 "/>
<text text-anchor="start" x="161.5" y="-499" font-family="Helvetica,sans-Serif" font-size="10.00">+ Value()</text>
<text text-anchor="start" x="161.5" y="-488" font-family="Helvetica,sans-Serif" font-size="10.00">+ operator()()</text>
<text text-anchor="start" x="161.5" y="-477" font-family="Helvetica,sans-Serif" font-size="10.00">+ operator()()</text>
<text text-anchor="start" x="161.5" y="-466" font-family="Helvetica,sans-Serif" font-size="10.00">+ operator[]()</text>
<text text-anchor="start" x="161.5" y="-455" font-family="Helvetica,sans-Serif" font-size="10.00">+ GetVariation()</text>
<text text-anchor="start" x="161.5" y="-444" font-family="Helvetica,sans-Serif" font-size="10.00">+ GetVariation()</text>
</a>
</g>
</g>
<!-- Node5&#45;&gt;Node6 -->
<g id="edge7" class="edge"><title>Node5&#45;&gt;Node6</title>
<path fill="none" stroke="midnightblue" d="M196.468,-626.163C197.939,-623.129 199.293,-620.069 200.5,-617 206.13,-602.685 209.623,-586.617 211.761,-571.219"/>
<polygon fill="none" stroke="midnightblue" points="193.287,-624.693 191.731,-635.173 199.482,-627.951 193.287,-624.693"/>
</g>
<!-- Node6&#45;&gt;Node2 -->
<g id="edge6" class="edge"><title>Node6&#45;&gt;Node2</title>
<path fill="none" stroke="orange" d="M180.676,-427.634C169.623,-403.007 157.334,-375.625 146.217,-350.854"/>
<polygon fill="orange" stroke="orange" points="177.559,-429.237 184.846,-436.927 183.945,-426.371 177.559,-429.237"/>
<text text-anchor="start" x="172.5" y="-405" font-family="Helvetica,sans-Serif" font-size="10.00"> &lt; binary_pool_expression</text>
<text text-anchor="start" x="172.5" y="-394" font-family="Helvetica,sans-Serif" font-size="10.00">&lt; Expr, A::Var, B::Var</text>
<text text-anchor="start" x="172.5" y="-383" font-family="Helvetica,sans-Serif" font-size="10.00"> &gt;, binary_custom_variable</text>
<text text-anchor="middle" x="231" y="-372" font-family="Helvetica,sans-Serif" font-size="10.00">&lt; Expr, A, B &gt; &gt;</text>
</g>
</g>
</svg>
