<?xml version="1.0" encoding="UTF-8" standalone="no"?>
<!DOCTYPE svg PUBLIC "-//W3C//DTD SVG 1.1//EN"
 "http://www.w3.org/Graphics/SVG/1.1/DTD/svg11.dtd">
<!-- Generated by graphviz version 2.38.0 (20140413.2041)
 -->
<!-- Title: INMOST::sparse_data::begin Pages: 1 -->
<svg width="270pt" height="137pt"
 viewBox="0.00 0.00 270.00 137.00" xmlns="http://www.w3.org/2000/svg" xmlns:xlink="http://www.w3.org/1999/xlink">
<g id="graph0" class="graph" transform="scale(1 1) rotate(0) translate(4 133)">
<title>INMOST::sparse_data::begin</title>
<!-- Node1 -->
<g id="node1" class="node"><title>Node1</title>
<polygon fill="#bfbfbf" stroke="black" points="0,-49.5 0,-79.5 113,-79.5 113,-49.5 0,-49.5"/>
<text text-anchor="start" x="8" y="-67.5" font-family="Helvetica,sans-Serif" font-size="10.00">INMOST::sparse_data</text>
<text text-anchor="middle" x="56.5" y="-56.5" font-family="Helvetica,sans-Serif" font-size="10.00">::begin</text>
</g>
<!-- Node2 -->
<g id="node2" class="node"><title>Node2</title>
<g id="a_node2"><a xlink:href="class_i_n_m_o_s_t_1_1sparse__data.html#a84af6410ef2ad9b28f2dfe099debe208" target="_top" xlink:title="INMOST::sparse_data\l::~sparse_data">
<polygon fill="none" stroke="black" points="149,-98.5 149,-128.5 262,-128.5 262,-98.5 149,-98.5"/>
<text text-anchor="start" x="157" y="-116.5" font-family="Helvetica,sans-Serif" font-size="10.00">INMOST::sparse_data</text>
<text text-anchor="middle" x="205.5" y="-105.5" font-family="Helvetica,sans-Serif" font-size="10.00">::~sparse_data</text>
</a>
</g>
</g>
<!-- Node1&#45;&gt;Node2 -->
<g id="edge1" class="edge"><title>Node1&#45;&gt;Node2</title>
<path fill="none" stroke="midnightblue" d="M112.716,-82.9055C128.097,-88.0322 144.618,-93.5392 159.345,-98.4484"/>
<polygon fill="midnightblue" stroke="midnightblue" points="113.398,-79.4434 102.804,-79.6014 111.184,-86.0842 113.398,-79.4434"/>
</g>
<!-- Node3 -->
<g id="node3" class="node"><title>Node3</title>
<g id="a_node3"><a xlink:href="class_i_n_m_o_s_t_1_1sparse__data.html#a88ed4b339070db011ee9fab196ae1b9f" target="_top" xlink:title="INMOST::sparse_data\l::operator=">
<polygon fill="none" stroke="black" points="149,-49.5 149,-79.5 262,-79.5 262,-49.5 149,-49.5"/>
<text text-anchor="start" x="157" y="-67.5" font-family="Helvetica,sans-Serif" font-size="10.00">INMOST::sparse_data</text>
<text text-anchor="middle" x="205.5" y="-56.5" font-family="Helvetica,sans-Serif" font-size="10.00">::operator=</text>
</a>
</g>
</g>
<!-- Node1&#45;&gt;Node3 -->
<g id="edge2" class="edge"><title>Node1&#45;&gt;Node3</title>
<path fill="none" stroke="midnightblue" d="M123.078,-64.5C131.681,-64.5 140.43,-64.5 148.847,-64.5"/>
<polygon fill="midnightblue" stroke="midnightblue" points="123.074,-61.0001 113.074,-64.5 123.074,-68.0001 123.074,-61.0001"/>
</g>
<!-- Node4 -->
<g id="node4" class="node"><title>Node4</title>
<g id="a_node4"><a xlink:href="class_i_n_m_o_s_t_1_1sparse__data.html#a48b4f5a3045019d8641200b9b9d345d5" target="_top" xlink:title="INMOST::sparse_data\l::clear">
<polygon fill="none" stroke="black" points="149,-0.5 149,-30.5 262,-30.5 262,-0.5 149,-0.5"/>
<text text-anchor="start" x="157" y="-18.5" font-family="Helvetica,sans-Serif" font-size="10.00">INMOST::sparse_data</text>
<text text-anchor="middle" x="205.5" y="-7.5" font-family="Helvetica,sans-Serif" font-size="10.00">::clear</text>
</a>
</g>
</g>
<!-- Node1&#45;&gt;Node4 -->
<g id="edge3" class="edge"><title>Node1&#45;&gt;Node4</title>
<path fill="none" stroke="midnightblue" d="M112.716,-46.0945C128.097,-40.9678 144.618,-35.4608 159.345,-30.5516"/>
<polygon fill="midnightblue" stroke="midnightblue" points="111.184,-42.9158 102.804,-49.3986 113.398,-49.5566 111.184,-42.9158"/>
</g>
</g>
</svg>
