<?xml version="1.0" encoding="UTF-8" standalone="no"?>
<!DOCTYPE svg PUBLIC "-//W3C//DTD SVG 1.1//EN"
 "http://www.w3.org/Graphics/SVG/1.1/DTD/svg11.dtd">
<!-- Generated by graphviz version 2.38.0 (20140413.2041)
 -->
<!-- Title: INMOST::Storage::GetElementType Pages: 1 -->
<svg width="377pt" height="218pt"
 viewBox="0.00 0.00 377.00 218.00" xmlns="http://www.w3.org/2000/svg" xmlns:xlink="http://www.w3.org/1999/xlink">
<g id="graph0" class="graph" transform="scale(1 1) rotate(0) translate(4 214)">
<title>INMOST::Storage::GetElementType</title>
<!-- Node1 -->
<g id="node1" class="node"><title>Node1</title>
<polygon fill="#bfbfbf" stroke="black" points="0,-95.5 0,-114.5 172,-114.5 172,-95.5 0,-95.5"/>
<text text-anchor="middle" x="86" y="-102.5" font-family="Helvetica,sans-Serif" font-size="10.00">INMOST::Storage::GetElementType</text>
</g>
<!-- Node2 -->
<g id="node2" class="node"><title>Node2</title>
<g id="a_node2"><a xlink:href="class_i_n_m_o_s_t_1_1_storage.html#a1120f87c2cb4eaf015db837f0f7cce3f" target="_top" xlink:title="INMOST::Storage::getAsElement">
<polygon fill="none" stroke="black" points="208,-190.5 208,-209.5 369,-209.5 369,-190.5 208,-190.5"/>
<text text-anchor="middle" x="288.5" y="-197.5" font-family="Helvetica,sans-Serif" font-size="10.00">INMOST::Storage::getAsElement</text>
</a>
</g>
</g>
<!-- Node1&#45;&gt;Node2 -->
<g id="edge1" class="edge"><title>Node1&#45;&gt;Node2</title>
<path fill="none" stroke="midnightblue" d="M107.35,-120.719C130.516,-137.89 170.076,-165.069 208,-181 217.027,-184.792 226.964,-187.921 236.664,-190.467"/>
<polygon fill="midnightblue" stroke="midnightblue" points="109.407,-117.886 99.3114,-114.672 105.199,-123.48 109.407,-117.886"/>
</g>
<!-- Node3 -->
<g id="node3" class="node"><title>Node3</title>
<g id="a_node3"><a xlink:href="class_i_n_m_o_s_t_1_1_storage.html#aac94c3afac6383b988c7992a72fc353c" target="_top" xlink:title="INMOST::Storage::getAsNode">
<polygon fill="none" stroke="black" points="215,-152.5 215,-171.5 362,-171.5 362,-152.5 215,-152.5"/>
<text text-anchor="middle" x="288.5" y="-159.5" font-family="Helvetica,sans-Serif" font-size="10.00">INMOST::Storage::getAsNode</text>
</a>
</g>
</g>
<!-- Node1&#45;&gt;Node3 -->
<g id="edge2" class="edge"><title>Node1&#45;&gt;Node3</title>
<path fill="none" stroke="midnightblue" d="M125.351,-117.796C149.045,-125.514 180.143,-135.307 208,-143 220.037,-146.324 233.193,-149.608 245.276,-152.487"/>
<polygon fill="midnightblue" stroke="midnightblue" points="126.274,-114.415 115.681,-114.628 124.094,-121.067 126.274,-114.415"/>
</g>
<!-- Node4 -->
<g id="node4" class="node"><title>Node4</title>
<g id="a_node4"><a xlink:href="class_i_n_m_o_s_t_1_1_storage.html#aae2639c86f7e1ed99341800a6350beaf" target="_top" xlink:title="INMOST::Storage::getAsEdge">
<polygon fill="none" stroke="black" points="215,-114.5 215,-133.5 362,-133.5 362,-114.5 215,-114.5"/>
<text text-anchor="middle" x="288.5" y="-121.5" font-family="Helvetica,sans-Serif" font-size="10.00">INMOST::Storage::getAsEdge</text>
</a>
</g>
</g>
<!-- Node1&#45;&gt;Node4 -->
<g id="edge3" class="edge"><title>Node1&#45;&gt;Node4</title>
<path fill="none" stroke="midnightblue" d="M182.065,-114.009C193.033,-115.048 204.084,-116.095 214.692,-117.1"/>
<polygon fill="midnightblue" stroke="midnightblue" points="182.316,-110.517 172.03,-113.058 181.655,-117.486 182.316,-110.517"/>
</g>
<!-- Node5 -->
<g id="node5" class="node"><title>Node5</title>
<g id="a_node5"><a xlink:href="class_i_n_m_o_s_t_1_1_storage.html#a3bb9ba79f8c0f6be46abeb505ae6522a" target="_top" xlink:title="INMOST::Storage::getAsFace">
<polygon fill="none" stroke="black" points="215.5,-76.5 215.5,-95.5 361.5,-95.5 361.5,-76.5 215.5,-76.5"/>
<text text-anchor="middle" x="288.5" y="-83.5" font-family="Helvetica,sans-Serif" font-size="10.00">INMOST::Storage::getAsFace</text>
</a>
</g>
</g>
<!-- Node1&#45;&gt;Node5 -->
<g id="edge4" class="edge"><title>Node1&#45;&gt;Node5</title>
<path fill="none" stroke="midnightblue" d="M182.216,-95.977C193.35,-94.9219 204.567,-93.859 215.316,-92.8403"/>
<polygon fill="midnightblue" stroke="midnightblue" points="181.655,-92.5144 172.03,-96.9423 182.316,-99.4832 181.655,-92.5144"/>
</g>
<!-- Node6 -->
<g id="node6" class="node"><title>Node6</title>
<g id="a_node6"><a xlink:href="class_i_n_m_o_s_t_1_1_storage.html#a273dc6c3f277ad2cda0f37df30a8f534" target="_top" xlink:title="INMOST::Storage::getAsCell">
<polygon fill="none" stroke="black" points="218,-38.5 218,-57.5 359,-57.5 359,-38.5 218,-38.5"/>
<text text-anchor="middle" x="288.5" y="-45.5" font-family="Helvetica,sans-Serif" font-size="10.00">INMOST::Storage::getAsCell</text>
</a>
</g>
</g>
<!-- Node1&#45;&gt;Node6 -->
<g id="edge5" class="edge"><title>Node1&#45;&gt;Node6</title>
<path fill="none" stroke="midnightblue" d="M125.351,-92.2039C149.045,-84.4861 180.143,-74.6929 208,-67 220.037,-63.6758 233.193,-60.3918 245.276,-57.5133"/>
<polygon fill="midnightblue" stroke="midnightblue" points="124.094,-88.9325 115.681,-95.3722 126.274,-95.5846 124.094,-88.9325"/>
</g>
<!-- Node7 -->
<g id="node7" class="node"><title>Node7</title>
<g id="a_node7"><a xlink:href="class_i_n_m_o_s_t_1_1_storage.html#a20b4ae741200cfea234a9989b36f4c11" target="_top" xlink:title="INMOST::Storage::getAsSet">
<polygon fill="none" stroke="black" points="218.5,-0.5 218.5,-19.5 358.5,-19.5 358.5,-0.5 218.5,-0.5"/>
<text text-anchor="middle" x="288.5" y="-7.5" font-family="Helvetica,sans-Serif" font-size="10.00">INMOST::Storage::getAsSet</text>
</a>
</g>
</g>
<!-- Node1&#45;&gt;Node7 -->
<g id="edge6" class="edge"><title>Node1&#45;&gt;Node7</title>
<path fill="none" stroke="midnightblue" d="M107.35,-89.2815C130.516,-72.1098 170.076,-44.9315 208,-29 217.027,-25.2076 226.964,-22.0793 236.664,-19.5325"/>
<polygon fill="midnightblue" stroke="midnightblue" points="105.199,-86.5199 99.3114,-95.3284 109.407,-92.1138 105.199,-86.5199"/>
</g>
</g>
</svg>
