<?xml version="1.0" encoding="UTF-8" standalone="no"?>
<!DOCTYPE svg PUBLIC "-//W3C//DTD SVG 1.1//EN"
 "http://www.w3.org/Graphics/SVG/1.1/DTD/svg11.dtd">
<!-- Generated by graphviz version 2.38.0 (20140413.2041)
 -->
<!-- Title: INMOST::Mesh::RealDF Pages: 1 -->
<svg width="338pt" height="78pt"
 viewBox="0.00 0.00 338.00 77.50" xmlns="http://www.w3.org/2000/svg" xmlns:xlink="http://www.w3.org/1999/xlink">
<g id="graph0" class="graph" transform="scale(1 1) rotate(0) translate(4 73.5)">
<title>INMOST::Mesh::RealDF</title>
<!-- Node1 -->
<g id="node1" class="node"><title>Node1</title>
<polygon fill="#bfbfbf" stroke="black" points="0,-22.5 0,-41.5 122,-41.5 122,-22.5 0,-22.5"/>
<text text-anchor="middle" x="61" y="-29.5" font-family="Helvetica,sans-Serif" font-size="10.00">INMOST::Mesh::RealDF</text>
</g>
<!-- Node2 -->
<g id="node2" class="node"><title>Node2</title>
<g id="a_node2"><a xlink:href="class_i_n_m_o_s_t_1_1_mesh_1_1_real_d_f_comparator.html#a32d2944a800656447a02c967fda7c9e2" target="_top" xlink:title="INMOST::Mesh::RealDFComparator\l::operator()">
<polygon fill="none" stroke="black" points="158,-39 158,-69 330,-69 330,-39 158,-39"/>
<text text-anchor="start" x="166" y="-57" font-family="Helvetica,sans-Serif" font-size="10.00">INMOST::Mesh::RealDFComparator</text>
<text text-anchor="middle" x="244" y="-46" font-family="Helvetica,sans-Serif" font-size="10.00">::operator()</text>
</a>
</g>
</g>
<!-- Node1&#45;&gt;Node2 -->
<g id="edge1" class="edge"><title>Node1&#45;&gt;Node2</title>
<path fill="none" stroke="midnightblue" d="M132.18,-40.5301C140.628,-41.557 149.326,-42.6142 157.957,-43.6633"/>
<polygon fill="midnightblue" stroke="midnightblue" points="132.368,-37.0274 122.019,-39.2951 131.524,-43.9762 132.368,-37.0274"/>
</g>
<!-- Node3 -->
<g id="node3" class="node"><title>Node3</title>
<g id="a_node3"><a xlink:href="class_i_n_m_o_s_t_1_1_storage.html#ae7df0ed4c26520dd0858b138fd3fb24a" target="_top" xlink:title="INMOST::Storage::RealDF">
<polygon fill="none" stroke="black" points="178.5,-0.5 178.5,-19.5 309.5,-19.5 309.5,-0.5 178.5,-0.5"/>
<text text-anchor="middle" x="244" y="-7.5" font-family="Helvetica,sans-Serif" font-size="10.00">INMOST::Storage::RealDF</text>
</a>
</g>
</g>
<!-- Node1&#45;&gt;Node3 -->
<g id="edge2" class="edge"><title>Node1&#45;&gt;Node3</title>
<path fill="none" stroke="midnightblue" d="M132.379,-23.4457C147.559,-21.6006 163.534,-19.6588 178.477,-17.8425"/>
<polygon fill="midnightblue" stroke="midnightblue" points="131.524,-20.0238 122.019,-24.7049 132.368,-26.9726 131.524,-20.0238"/>
</g>
</g>
</svg>
