<?xml version="1.0" encoding="UTF-8" standalone="no"?>
<!DOCTYPE svg PUBLIC "-//W3C//DTD SVG 1.1//EN"
 "http://www.w3.org/Graphics/SVG/1.1/DTD/svg11.dtd">
<!-- Generated by graphviz version 2.38.0 (20140413.2041)
 -->
<!-- Title: INMOST::Sparse::RowMerger::RetriveRow Pages: 1 -->
<svg width="344pt" height="394pt"
 viewBox="0.00 0.00 344.00 394.00" xmlns="http://www.w3.org/2000/svg" xmlns:xlink="http://www.w3.org/1999/xlink">
<g id="graph0" class="graph" transform="scale(1 1) rotate(0) translate(4 390)">
<title>INMOST::Sparse::RowMerger::RetriveRow</title>
<!-- Node1 -->
<g id="node1" class="node"><title>Node1</title>
<polygon fill="#bfbfbf" stroke="black" points="0,-171.5 0,-201.5 145,-201.5 145,-171.5 0,-171.5"/>
<text text-anchor="start" x="8" y="-189.5" font-family="Helvetica,sans-Serif" font-size="10.00">INMOST::Sparse::RowMerger</text>
<text text-anchor="middle" x="72.5" y="-178.5" font-family="Helvetica,sans-Serif" font-size="10.00">::RetriveRow</text>
</g>
<!-- Node2 -->
<g id="node2" class="node"><title>Node2</title>
<g id="a_node2"><a xlink:href="class_i_n_m_o_s_t_1_1_sparse_1_1_row_merger.html#abb1106be94a034a035f9d0dd6ba34016" target="_top" xlink:title="INMOST::Sparse::RowMerger\l::Merge">
<polygon fill="none" stroke="black" points="186,-355.5 186,-385.5 331,-385.5 331,-355.5 186,-355.5"/>
<text text-anchor="start" x="194" y="-373.5" font-family="Helvetica,sans-Serif" font-size="10.00">INMOST::Sparse::RowMerger</text>
<text text-anchor="middle" x="258.5" y="-362.5" font-family="Helvetica,sans-Serif" font-size="10.00">::Merge</text>
</a>
</g>
</g>
<!-- Node1&#45;&gt;Node2 -->
<g id="edge1" class="edge"><title>Node1&#45;&gt;Node2</title>
<path fill="none" stroke="midnightblue" d="M83.8204,-211.079C99.681,-245.949 133.296,-309.53 181,-345.5 186.132,-349.37 191.89,-352.656 197.882,-355.443"/>
<polygon fill="midnightblue" stroke="midnightblue" points="86.8936,-209.374 79.6461,-201.646 80.4923,-212.207 86.8936,-209.374"/>
</g>
<!-- Node3 -->
<g id="node3" class="node"><title>Node3</title>
<g id="a_node3"><a xlink:href="class_i_n_m_o_s_t_1_1enhanced__multivar__expression.html#a45c809d9a3421981e9243a54262ca9fb" target="_top" xlink:title="INMOST::enhanced_multivar\l_expression::enhanced_multivar\l_expression">
<polygon fill="none" stroke="black" points="181,-295 181,-336 336,-336 336,-295 181,-295"/>
<text text-anchor="start" x="189" y="-324" font-family="Helvetica,sans-Serif" font-size="10.00">INMOST::enhanced_multivar</text>
<text text-anchor="start" x="189" y="-313" font-family="Helvetica,sans-Serif" font-size="10.00">_expression::enhanced_multivar</text>
<text text-anchor="middle" x="258.5" y="-302" font-family="Helvetica,sans-Serif" font-size="10.00">_expression</text>
</a>
</g>
</g>
<!-- Node1&#45;&gt;Node3 -->
<g id="edge2" class="edge"><title>Node1&#45;&gt;Node3</title>
<path fill="none" stroke="midnightblue" d="M93.5541,-209.349C113.809,-231.292 146.9,-264.169 181,-285.5 186.443,-288.905 192.335,-292.039 198.352,-294.894"/>
<polygon fill="midnightblue" stroke="midnightblue" points="96.0103,-206.847 86.6945,-201.801 90.83,-211.555 96.0103,-206.847"/>
</g>
<!-- Node4 -->
<g id="node4" class="node"><title>Node4</title>
<g id="a_node4"><a xlink:href="class_i_n_m_o_s_t_1_1enhanced__multivar__expression.html#a677fecf4942068b4c579c190b52dc409" target="_top" xlink:title="INMOST::enhanced_multivar\l_expression::GetDerivative">
<polygon fill="none" stroke="black" points="188.5,-245.5 188.5,-275.5 328.5,-275.5 328.5,-245.5 188.5,-245.5"/>
<text text-anchor="start" x="196.5" y="-263.5" font-family="Helvetica,sans-Serif" font-size="10.00">INMOST::enhanced_multivar</text>
<text text-anchor="middle" x="258.5" y="-252.5" font-family="Helvetica,sans-Serif" font-size="10.00">_expression::GetDerivative</text>
</a>
</g>
</g>
<!-- Node1&#45;&gt;Node4 -->
<g id="edge3" class="edge"><title>Node1&#45;&gt;Node4</title>
<path fill="none" stroke="midnightblue" d="M112.351,-206.075C132.55,-215.866 157.804,-227.512 181,-236.5 189.047,-239.618 197.683,-242.634 206.152,-245.413"/>
<polygon fill="midnightblue" stroke="midnightblue" points="113.684,-202.831 103.163,-201.581 110.608,-209.119 113.684,-202.831"/>
</g>
<!-- Node5 -->
<g id="node5" class="node"><title>Node5</title>
<g id="a_node5"><a xlink:href="class_i_n_m_o_s_t_1_1enhanced__multivar__expression.html#ac5919c2f1fe2d724401bd2df073cfbb6" target="_top" xlink:title="INMOST::enhanced_multivar\l_expression::operator=">
<polygon fill="none" stroke="black" points="188.5,-196.5 188.5,-226.5 328.5,-226.5 328.5,-196.5 188.5,-196.5"/>
<text text-anchor="start" x="196.5" y="-214.5" font-family="Helvetica,sans-Serif" font-size="10.00">INMOST::enhanced_multivar</text>
<text text-anchor="middle" x="258.5" y="-203.5" font-family="Helvetica,sans-Serif" font-size="10.00">_expression::operator=</text>
</a>
</g>
</g>
<!-- Node1&#45;&gt;Node5 -->
<g id="edge4" class="edge"><title>Node1&#45;&gt;Node5</title>
<path fill="none" stroke="midnightblue" d="M155.264,-197.609C166.341,-199.114 177.618,-200.647 188.443,-202.117"/>
<polygon fill="midnightblue" stroke="midnightblue" points="155.546,-194.116 145.166,-196.237 154.604,-201.052 155.546,-194.116"/>
</g>
<!-- Node6 -->
<g id="node6" class="node"><title>Node6</title>
<g id="a_node6"><a xlink:href="class_i_n_m_o_s_t_1_1enhanced__multivar__expression.html#a41816d1b5eb3737263f2c6e93f6eb5a3" target="_top" xlink:title="INMOST::enhanced_multivar\l_expression::operator+=">
<polygon fill="none" stroke="black" points="188.5,-147.5 188.5,-177.5 328.5,-177.5 328.5,-147.5 188.5,-147.5"/>
<text text-anchor="start" x="196.5" y="-165.5" font-family="Helvetica,sans-Serif" font-size="10.00">INMOST::enhanced_multivar</text>
<text text-anchor="middle" x="258.5" y="-154.5" font-family="Helvetica,sans-Serif" font-size="10.00">_expression::operator+=</text>
</a>
</g>
</g>
<!-- Node1&#45;&gt;Node6 -->
<g id="edge5" class="edge"><title>Node1&#45;&gt;Node6</title>
<path fill="none" stroke="midnightblue" d="M155.264,-175.835C166.341,-174.39 177.618,-172.919 188.443,-171.507"/>
<polygon fill="midnightblue" stroke="midnightblue" points="154.629,-172.388 145.166,-177.152 155.535,-179.329 154.629,-172.388"/>
</g>
<!-- Node7 -->
<g id="node7" class="node"><title>Node7</title>
<g id="a_node7"><a xlink:href="class_i_n_m_o_s_t_1_1enhanced__multivar__expression.html#ac8e90e11bf754d4cc9c200711aeea4f7" target="_top" xlink:title="INMOST::enhanced_multivar\l_expression::operator&#45;=">
<polygon fill="none" stroke="black" points="188.5,-98.5 188.5,-128.5 328.5,-128.5 328.5,-98.5 188.5,-98.5"/>
<text text-anchor="start" x="196.5" y="-116.5" font-family="Helvetica,sans-Serif" font-size="10.00">INMOST::enhanced_multivar</text>
<text text-anchor="middle" x="258.5" y="-105.5" font-family="Helvetica,sans-Serif" font-size="10.00">_expression::operator&#45;=</text>
</a>
</g>
</g>
<!-- Node1&#45;&gt;Node7 -->
<g id="edge6" class="edge"><title>Node1&#45;&gt;Node7</title>
<path fill="none" stroke="midnightblue" d="M114.22,-167.116C134.145,-157.941 158.609,-147.131 181,-138.5 189.865,-135.083 199.419,-131.717 208.669,-128.617"/>
<polygon fill="midnightblue" stroke="midnightblue" points="112.719,-163.954 105.12,-171.337 115.665,-170.304 112.719,-163.954"/>
</g>
<!-- Node8 -->
<g id="node8" class="node"><title>Node8</title>
<g id="a_node8"><a xlink:href="class_i_n_m_o_s_t_1_1enhanced__multivar__expression.html#a97c2fa6cfb8896e0b16d71db17c22d81" target="_top" xlink:title="INMOST::enhanced_multivar\l_expression::operator*=">
<polygon fill="none" stroke="black" points="188.5,-49.5 188.5,-79.5 328.5,-79.5 328.5,-49.5 188.5,-49.5"/>
<text text-anchor="start" x="196.5" y="-67.5" font-family="Helvetica,sans-Serif" font-size="10.00">INMOST::enhanced_multivar</text>
<text text-anchor="middle" x="258.5" y="-56.5" font-family="Helvetica,sans-Serif" font-size="10.00">_expression::operator*=</text>
</a>
</g>
</g>
<!-- Node1&#45;&gt;Node8 -->
<g id="edge7" class="edge"><title>Node1&#45;&gt;Node8</title>
<path fill="none" stroke="midnightblue" d="M93.3868,-163.71C113.516,-141.907 146.515,-109.473 181,-89.5 187.529,-85.7184 194.708,-82.4198 201.971,-79.5687"/>
<polygon fill="midnightblue" stroke="midnightblue" points="90.7016,-161.46 86.5742,-171.218 95.8858,-166.164 90.7016,-161.46"/>
</g>
<!-- Node9 -->
<g id="node9" class="node"><title>Node9</title>
<g id="a_node9"><a xlink:href="class_i_n_m_o_s_t_1_1enhanced__multivar__expression.html#a17b17b1df743295e60b688d2cf0c8382" target="_top" xlink:title="INMOST::enhanced_multivar\l_expression::operator/=">
<polygon fill="none" stroke="black" points="188.5,-0.5 188.5,-30.5 328.5,-30.5 328.5,-0.5 188.5,-0.5"/>
<text text-anchor="start" x="196.5" y="-18.5" font-family="Helvetica,sans-Serif" font-size="10.00">INMOST::enhanced_multivar</text>
<text text-anchor="middle" x="258.5" y="-7.5" font-family="Helvetica,sans-Serif" font-size="10.00">_expression::operator/=</text>
</a>
</g>
</g>
<!-- Node1&#45;&gt;Node9 -->
<g id="edge8" class="edge"><title>Node1&#45;&gt;Node9</title>
<path fill="none" stroke="midnightblue" d="M85.334,-162.044C102.203,-129.673 136.153,-72.9238 181,-40.5 186.322,-36.6524 192.268,-33.3749 198.43,-30.5879"/>
<polygon fill="midnightblue" stroke="midnightblue" points="82.0642,-160.752 80.6542,-171.253 88.3047,-163.923 82.0642,-160.752"/>
</g>
</g>
</svg>
