<?xml version="1.0" encoding="UTF-8" standalone="no"?>
<!DOCTYPE svg PUBLIC "-//W3C//DTD SVG 1.1//EN"
 "http://www.w3.org/Graphics/SVG/1.1/DTD/svg11.dtd">
<!-- Generated by graphviz version 2.38.0 (20140413.2041)
 -->
<!-- Title: INMOST::Storage::BulkDV Pages: 1 -->
<svg width="333pt" height="104pt"
 viewBox="0.00 0.00 333.00 104.00" xmlns="http://www.w3.org/2000/svg" xmlns:xlink="http://www.w3.org/1999/xlink">
<g id="graph0" class="graph" transform="scale(1 1) rotate(0) translate(4 100)">
<title>INMOST::Storage::BulkDV</title>
<!-- Node1 -->
<g id="node1" class="node"><title>Node1</title>
<polygon fill="#bfbfbf" stroke="black" points="0,-38.5 0,-57.5 132,-57.5 132,-38.5 0,-38.5"/>
<text text-anchor="middle" x="66" y="-45.5" font-family="Helvetica,sans-Serif" font-size="10.00">INMOST::Storage::BulkDV</text>
</g>
<!-- Node2 -->
<g id="node2" class="node"><title>Node2</title>
<g id="a_node2"><a xlink:href="class_i_n_m_o_s_t_1_1_storage.html#a20d218fc89f75ca8534707b4f697173e" target="_top" xlink:title="INMOST::Storage::GetMeshLink">
<polygon fill="none" stroke="black" points="168,-76.5 168,-95.5 325,-95.5 325,-76.5 168,-76.5"/>
<text text-anchor="middle" x="246.5" y="-83.5" font-family="Helvetica,sans-Serif" font-size="10.00">INMOST::Storage::GetMeshLink</text>
</a>
</g>
</g>
<!-- Node1&#45;&gt;Node2 -->
<g id="edge1" class="edge"><title>Node1&#45;&gt;Node2</title>
<path fill="none" stroke="midnightblue" d="M112.043,-57.589C136.023,-62.6939 165.698,-69.0113 190.972,-74.3918"/>
<polygon fill="midnightblue" stroke="midnightblue" points="190.271,-77.821 200.781,-76.4799 191.729,-70.9744 190.271,-77.821"/>
</g>
<!-- Node3 -->
<g id="node3" class="node"><title>Node3</title>
<g id="a_node3"><a xlink:href="class_i_n_m_o_s_t_1_1_mesh.html#a35a62a1c63ac51297dddabb1312f32d1" target="_top" xlink:title="INMOST::Mesh::BulkDV">
<polygon fill="none" stroke="black" points="185.5,-38.5 185.5,-57.5 307.5,-57.5 307.5,-38.5 185.5,-38.5"/>
<text text-anchor="middle" x="246.5" y="-45.5" font-family="Helvetica,sans-Serif" font-size="10.00">INMOST::Mesh::BulkDV</text>
</a>
</g>
</g>
<!-- Node1&#45;&gt;Node3 -->
<g id="edge2" class="edge"><title>Node1&#45;&gt;Node3</title>
<path fill="none" stroke="midnightblue" d="M132.2,-48C146.145,-48 160.935,-48 175.067,-48"/>
<polygon fill="midnightblue" stroke="midnightblue" points="175.219,-51.5001 185.219,-48 175.219,-44.5001 175.219,-51.5001"/>
</g>
<!-- Node4 -->
<g id="node4" class="node"><title>Node4</title>
<g id="a_node4"><a xlink:href="class_i_n_m_o_s_t_1_1_storage.html#ac79e3f3664b2ff21892f37bce0caa0e0" target="_top" xlink:title="INMOST::Storage::GetHandle">
<polygon fill="none" stroke="black" points="174,-0.5 174,-19.5 319,-19.5 319,-0.5 174,-0.5"/>
<text text-anchor="middle" x="246.5" y="-7.5" font-family="Helvetica,sans-Serif" font-size="10.00">INMOST::Storage::GetHandle</text>
</a>
</g>
</g>
<!-- Node1&#45;&gt;Node4 -->
<g id="edge3" class="edge"><title>Node1&#45;&gt;Node4</title>
<path fill="none" stroke="midnightblue" d="M112.043,-38.411C136.023,-33.3061 165.698,-26.9887 190.972,-21.6082"/>
<polygon fill="midnightblue" stroke="midnightblue" points="191.729,-25.0256 200.781,-19.5201 190.271,-18.179 191.729,-25.0256"/>
</g>
</g>
</svg>
