<?xml version="1.0" encoding="UTF-8" standalone="no"?>
<!DOCTYPE svg PUBLIC "-//W3C//DTD SVG 1.1//EN"
 "http://www.w3.org/Graphics/SVG/1.1/DTD/svg11.dtd">
<!-- Generated by graphviz version 2.38.0 (20140413.2041)
 -->
<!-- Title: INMOST::Mesh::ElementByLocalID Pages: 1 -->
<svg width="330pt" height="46pt"
 viewBox="0.00 0.00 330.00 46.00" xmlns="http://www.w3.org/2000/svg" xmlns:xlink="http://www.w3.org/1999/xlink">
<g id="graph0" class="graph" transform="scale(1 1) rotate(0) translate(4 42)">
<title>INMOST::Mesh::ElementByLocalID</title>
<!-- Node1 -->
<g id="node1" class="node"><title>Node1</title>
<polygon fill="#bfbfbf" stroke="black" points="0,-0.5 0,-19.5 170,-19.5 170,-0.5 0,-0.5"/>
<text text-anchor="middle" x="85" y="-7.5" font-family="Helvetica,sans-Serif" font-size="10.00">INMOST::Mesh::ElementByLocalID</text>
</g>
<!-- Node1&#45;&gt;Node1 -->
<g id="edge1" class="edge"><title>Node1&#45;&gt;Node1</title>
<path fill="none" stroke="midnightblue" d="M57.565,-19.7571C44.2183,-28.5653 53.3633,-38 85,-38 106.75,-38 117.87,-33.5406 118.358,-27.8913"/>
<polygon fill="midnightblue" stroke="midnightblue" points="121.151,-25.7806 112.435,-19.7571 115.492,-29.9012 121.151,-25.7806"/>
</g>
<!-- Node2 -->
<g id="node2" class="node"><title>Node2</title>
<g id="a_node2"><a xlink:href="namespace_i_n_m_o_s_t.html#abfa34d6393c75e4cb6bbfbc1ded4f99a" target="_top" xlink:title="INMOST::ElementNum">
<polygon fill="none" stroke="black" points="206,-0.5 206,-19.5 322,-19.5 322,-0.5 206,-0.5"/>
<text text-anchor="middle" x="264" y="-7.5" font-family="Helvetica,sans-Serif" font-size="10.00">INMOST::ElementNum</text>
</a>
</g>
</g>
<!-- Node1&#45;&gt;Node2 -->
<g id="edge2" class="edge"><title>Node1&#45;&gt;Node2</title>
<path fill="none" stroke="midnightblue" d="M170.094,-10C178.718,-10 187.398,-10 195.806,-10"/>
<polygon fill="midnightblue" stroke="midnightblue" points="195.904,-13.5001 205.904,-10 195.904,-6.5001 195.904,-13.5001"/>
</g>
</g>
</svg>
