<?xml version="1.0" encoding="UTF-8" standalone="no"?>
<!DOCTYPE svg PUBLIC "-//W3C//DTD SVG 1.1//EN"
 "http://www.w3.org/Graphics/SVG/1.1/DTD/svg11.dtd">
<!-- Generated by graphviz version 2.38.0 (20140413.2041)
 -->
<!-- Title: INMOST::dynamic_variable::Value Pages: 1 -->
<svg width="490pt" height="104pt"
 viewBox="0.00 0.00 490.00 104.00" xmlns="http://www.w3.org/2000/svg" xmlns:xlink="http://www.w3.org/1999/xlink">
<g id="graph0" class="graph" transform="scale(1 1) rotate(0) translate(4 100)">
<title>INMOST::dynamic_variable::Value</title>
<!-- Node1 -->
<g id="node1" class="node"><title>Node1</title>
<polygon fill="#bfbfbf" stroke="black" points="0,-33 0,-63 134,-63 134,-33 0,-33"/>
<text text-anchor="start" x="8" y="-51" font-family="Helvetica,sans-Serif" font-size="10.00">INMOST::dynamic_variable</text>
<text text-anchor="middle" x="67" y="-40" font-family="Helvetica,sans-Serif" font-size="10.00">::Value</text>
</g>
<!-- Node2 -->
<g id="node2" class="node"><title>Node2</title>
<g id="a_node2"><a xlink:href="class_i_n_m_o_s_t_1_1_storage.html#ac2b245b3c0e50e23a0eb0b2332ca4ae4" target="_top" xlink:title="INMOST::Storage::Real">
<polygon fill="none" stroke="black" points="170,-38.5 170,-57.5 289,-57.5 289,-38.5 170,-38.5"/>
<text text-anchor="middle" x="229.5" y="-45.5" font-family="Helvetica,sans-Serif" font-size="10.00">INMOST::Storage::Real</text>
</a>
</g>
</g>
<!-- Node1&#45;&gt;Node2 -->
<g id="edge1" class="edge"><title>Node1&#45;&gt;Node2</title>
<path fill="none" stroke="midnightblue" d="M134.208,-48C142.619,-48 151.241,-48 159.691,-48"/>
<polygon fill="midnightblue" stroke="midnightblue" points="159.887,-51.5001 169.887,-48 159.887,-44.5001 159.887,-51.5001"/>
</g>
<!-- Node3 -->
<g id="node3" class="node"><title>Node3</title>
<g id="a_node3"><a xlink:href="class_i_n_m_o_s_t_1_1_storage.html#a20d218fc89f75ca8534707b4f697173e" target="_top" xlink:title="INMOST::Storage::GetMeshLink">
<polygon fill="none" stroke="black" points="325,-76.5 325,-95.5 482,-95.5 482,-76.5 325,-76.5"/>
<text text-anchor="middle" x="403.5" y="-83.5" font-family="Helvetica,sans-Serif" font-size="10.00">INMOST::Storage::GetMeshLink</text>
</a>
</g>
</g>
<!-- Node2&#45;&gt;Node3 -->
<g id="edge2" class="edge"><title>Node2&#45;&gt;Node3</title>
<path fill="none" stroke="midnightblue" d="M273.903,-57.589C296.907,-62.6713 325.351,-68.9554 349.634,-74.3203"/>
<polygon fill="midnightblue" stroke="midnightblue" points="348.89,-77.7402 359.409,-76.4799 350.4,-70.905 348.89,-77.7402"/>
</g>
<!-- Node4 -->
<g id="node4" class="node"><title>Node4</title>
<g id="a_node4"><a xlink:href="class_i_n_m_o_s_t_1_1_mesh.html#afa084c637bc9f6850ed77fbb7778d404" target="_top" xlink:title="INMOST::Mesh::Real">
<polygon fill="none" stroke="black" points="349,-38.5 349,-57.5 458,-57.5 458,-38.5 349,-38.5"/>
<text text-anchor="middle" x="403.5" y="-45.5" font-family="Helvetica,sans-Serif" font-size="10.00">INMOST::Mesh::Real</text>
</a>
</g>
</g>
<!-- Node2&#45;&gt;Node4 -->
<g id="edge3" class="edge"><title>Node2&#45;&gt;Node4</title>
<path fill="none" stroke="midnightblue" d="M289.212,-48C305.098,-48 322.371,-48 338.53,-48"/>
<polygon fill="midnightblue" stroke="midnightblue" points="338.963,-51.5001 348.963,-48 338.963,-44.5001 338.963,-51.5001"/>
</g>
<!-- Node5 -->
<g id="node5" class="node"><title>Node5</title>
<g id="a_node5"><a xlink:href="class_i_n_m_o_s_t_1_1_storage.html#ac79e3f3664b2ff21892f37bce0caa0e0" target="_top" xlink:title="INMOST::Storage::GetHandle">
<polygon fill="none" stroke="black" points="331,-0.5 331,-19.5 476,-19.5 476,-0.5 331,-0.5"/>
<text text-anchor="middle" x="403.5" y="-7.5" font-family="Helvetica,sans-Serif" font-size="10.00">INMOST::Storage::GetHandle</text>
</a>
</g>
</g>
<!-- Node2&#45;&gt;Node5 -->
<g id="edge4" class="edge"><title>Node2&#45;&gt;Node5</title>
<path fill="none" stroke="midnightblue" d="M273.903,-38.411C296.907,-33.3287 325.351,-27.0446 349.634,-21.6797"/>
<polygon fill="midnightblue" stroke="midnightblue" points="350.4,-25.095 359.409,-19.5201 348.89,-18.2598 350.4,-25.095"/>
</g>
</g>
</svg>
