<?xml version="1.0" encoding="UTF-8" standalone="no"?>
<!DOCTYPE svg PUBLIC "-//W3C//DTD SVG 1.1//EN"
 "http://www.w3.org/Graphics/SVG/1.1/DTD/svg11.dtd">
<!-- Generated by graphviz version 2.38.0 (20140413.2041)
 -->
<!-- Title: INMOST::sparse_data::end Pages: 1 -->
<svg width="440pt" height="274pt"
 viewBox="0.00 0.00 440.00 274.00" xmlns="http://www.w3.org/2000/svg" xmlns:xlink="http://www.w3.org/1999/xlink">
<g id="graph0" class="graph" transform="scale(1 1) rotate(0) translate(4 270)">
<title>INMOST::sparse_data::end</title>
<!-- Node1 -->
<g id="node1" class="node"><title>Node1</title>
<polygon fill="#bfbfbf" stroke="black" points="0,-126 0,-145 134,-145 134,-126 0,-126"/>
<text text-anchor="middle" x="67" y="-133" font-family="Helvetica,sans-Serif" font-size="10.00">INMOST::sparse_data::end</text>
</g>
<!-- Node2 -->
<g id="node2" class="node"><title>Node2</title>
<g id="a_node2"><a xlink:href="class_i_n_m_o_s_t_1_1sparse__data.html#ae5e7a053b2146e97f0bef5ae6532daa8" target="_top" xlink:title="INMOST::sparse_data\l::find">
<polygon fill="none" stroke="black" points="170,-235.5 170,-265.5 283,-265.5 283,-235.5 170,-235.5"/>
<text text-anchor="start" x="178" y="-253.5" font-family="Helvetica,sans-Serif" font-size="10.00">INMOST::sparse_data</text>
<text text-anchor="middle" x="226.5" y="-242.5" font-family="Helvetica,sans-Serif" font-size="10.00">::find</text>
</a>
</g>
</g>
<!-- Node1&#45;&gt;Node2 -->
<g id="edge1" class="edge"><title>Node1&#45;&gt;Node2</title>
<path fill="none" stroke="midnightblue" d="M83.7066,-152.495C102.672,-172.267 136.248,-204.947 170,-226.5 175.043,-229.72 180.592,-232.697 186.171,-235.378"/>
<polygon fill="midnightblue" stroke="midnightblue" points="86.1495,-149.984 76.7371,-145.121 81.062,-154.793 86.1495,-149.984"/>
</g>
<!-- Node3 -->
<g id="node3" class="node"><title>Node3</title>
<g id="a_node3"><a xlink:href="class_i_n_m_o_s_t_1_1sparse__data.html#ae591a01cc0c86e8f4b2ca30e03f743f7" target="_top" xlink:title="INMOST::sparse_data\l::insert">
<polygon fill="none" stroke="black" points="170,-186.5 170,-216.5 283,-216.5 283,-186.5 170,-186.5"/>
<text text-anchor="start" x="178" y="-204.5" font-family="Helvetica,sans-Serif" font-size="10.00">INMOST::sparse_data</text>
<text text-anchor="middle" x="226.5" y="-193.5" font-family="Helvetica,sans-Serif" font-size="10.00">::insert</text>
</a>
</g>
</g>
<!-- Node1&#45;&gt;Node3 -->
<g id="edge2" class="edge"><title>Node1&#45;&gt;Node3</title>
<path fill="none" stroke="midnightblue" d="M100.282,-149.028C126.202,-159.89 162.579,-175.133 189.449,-186.393"/>
<polygon fill="midnightblue" stroke="midnightblue" points="101.478,-145.734 90.9019,-145.097 98.7721,-152.19 101.478,-145.734"/>
</g>
<!-- Node4 -->
<g id="node4" class="node"><title>Node4</title>
<g id="a_node4"><a xlink:href="class_i_n_m_o_s_t_1_1sparse__data.html#aa1992c65e625842b61eab85ca05fe4d4" target="_top" xlink:title="INMOST::sparse_data\l::operator[]">
<polygon fill="none" stroke="black" points="319,-164.5 319,-194.5 432,-194.5 432,-164.5 319,-164.5"/>
<text text-anchor="start" x="327" y="-182.5" font-family="Helvetica,sans-Serif" font-size="10.00">INMOST::sparse_data</text>
<text text-anchor="middle" x="375.5" y="-171.5" font-family="Helvetica,sans-Serif" font-size="10.00">::operator[]</text>
</a>
</g>
</g>
<!-- Node1&#45;&gt;Node4 -->
<g id="edge6" class="edge"><title>Node1&#45;&gt;Node4</title>
<path fill="none" stroke="midnightblue" d="M144.033,-146.415C198.213,-154.193 269.824,-164.473 318.754,-171.497"/>
<polygon fill="midnightblue" stroke="midnightblue" points="144.524,-142.95 134.129,-144.993 143.53,-149.879 144.524,-142.95"/>
</g>
<!-- Node5 -->
<g id="node5" class="node"><title>Node5</title>
<g id="a_node5"><a xlink:href="class_i_n_m_o_s_t_1_1sparse__data.html#a84af6410ef2ad9b28f2dfe099debe208" target="_top" xlink:title="INMOST::sparse_data\l::~sparse_data">
<polygon fill="none" stroke="black" points="170,-98.5 170,-128.5 283,-128.5 283,-98.5 170,-98.5"/>
<text text-anchor="start" x="178" y="-116.5" font-family="Helvetica,sans-Serif" font-size="10.00">INMOST::sparse_data</text>
<text text-anchor="middle" x="226.5" y="-105.5" font-family="Helvetica,sans-Serif" font-size="10.00">::~sparse_data</text>
</a>
</g>
</g>
<!-- Node1&#45;&gt;Node5 -->
<g id="edge4" class="edge"><title>Node1&#45;&gt;Node5</title>
<path fill="none" stroke="midnightblue" d="M144.334,-124.837C152.885,-123.643 161.474,-122.443 169.698,-121.295"/>
<polygon fill="midnightblue" stroke="midnightblue" points="143.757,-121.384 134.338,-126.234 144.726,-128.317 143.757,-121.384"/>
</g>
<!-- Node6 -->
<g id="node6" class="node"><title>Node6</title>
<g id="a_node6"><a xlink:href="class_i_n_m_o_s_t_1_1sparse__data.html#a88ed4b339070db011ee9fab196ae1b9f" target="_top" xlink:title="INMOST::sparse_data\l::operator=">
<polygon fill="none" stroke="black" points="170,-49.5 170,-79.5 283,-79.5 283,-49.5 170,-49.5"/>
<text text-anchor="start" x="178" y="-67.5" font-family="Helvetica,sans-Serif" font-size="10.00">INMOST::sparse_data</text>
<text text-anchor="middle" x="226.5" y="-56.5" font-family="Helvetica,sans-Serif" font-size="10.00">::operator=</text>
</a>
</g>
</g>
<!-- Node1&#45;&gt;Node6 -->
<g id="edge5" class="edge"><title>Node1&#45;&gt;Node6</title>
<path fill="none" stroke="midnightblue" d="M98.4461,-121.765C118.72,-112.62 145.953,-100.338 170,-89.5 177.13,-86.2866 184.775,-82.8421 192.042,-79.5684"/>
<polygon fill="midnightblue" stroke="midnightblue" points="96.7731,-118.68 89.0967,-125.983 99.6514,-125.061 96.7731,-118.68"/>
</g>
<!-- Node7 -->
<g id="node7" class="node"><title>Node7</title>
<g id="a_node7"><a xlink:href="class_i_n_m_o_s_t_1_1sparse__data.html#a48b4f5a3045019d8641200b9b9d345d5" target="_top" xlink:title="INMOST::sparse_data\l::clear">
<polygon fill="none" stroke="black" points="170,-0.5 170,-30.5 283,-30.5 283,-0.5 170,-0.5"/>
<text text-anchor="start" x="178" y="-18.5" font-family="Helvetica,sans-Serif" font-size="10.00">INMOST::sparse_data</text>
<text text-anchor="middle" x="226.5" y="-7.5" font-family="Helvetica,sans-Serif" font-size="10.00">::clear</text>
</a>
</g>
</g>
<!-- Node1&#45;&gt;Node7 -->
<g id="edge7" class="edge"><title>Node1&#45;&gt;Node7</title>
<path fill="none" stroke="midnightblue" d="M83.3226,-118.114C102.147,-97.5414 135.812,-63.2204 170,-40.5 175.457,-36.8735 181.526,-33.5372 187.591,-30.5632"/>
<polygon fill="midnightblue" stroke="midnightblue" points="80.5192,-115.997 76.4244,-125.768 85.7191,-120.683 80.5192,-115.997"/>
</g>
<!-- Node3&#45;&gt;Node4 -->
<g id="edge3" class="edge"><title>Node3&#45;&gt;Node4</title>
<path fill="none" stroke="midnightblue" d="M293.078,-191.686C301.681,-190.398 310.43,-189.089 318.847,-187.829"/>
<polygon fill="midnightblue" stroke="midnightblue" points="292.446,-188.241 283.074,-193.183 293.482,-195.164 292.446,-188.241"/>
</g>
</g>
</svg>
