<?xml version="1.0" encoding="UTF-8" standalone="no"?>
<!DOCTYPE svg PUBLIC "-//W3C//DTD SVG 1.1//EN"
 "http://www.w3.org/Graphics/SVG/1.1/DTD/svg11.dtd">
<!-- Generated by graphviz version 2.38.0 (20140413.2041)
 -->
<!-- Title: INMOST::ElementSet::operator= Pages: 1 -->
<svg width="473pt" height="39pt"
 viewBox="0.00 0.00 473.00 39.00" xmlns="http://www.w3.org/2000/svg" xmlns:xlink="http://www.w3.org/1999/xlink">
<g id="graph0" class="graph" transform="scale(1 1) rotate(0) translate(4 35)">
<title>INMOST::ElementSet::operator=</title>
<!-- Node1 -->
<g id="node1" class="node"><title>Node1</title>
<polygon fill="#bfbfbf" stroke="black" points="0,-0.5 0,-30.5 110,-30.5 110,-0.5 0,-0.5"/>
<text text-anchor="start" x="8" y="-18.5" font-family="Helvetica,sans-Serif" font-size="10.00">INMOST::ElementSet</text>
<text text-anchor="middle" x="55" y="-7.5" font-family="Helvetica,sans-Serif" font-size="10.00">::operator=</text>
</g>
<!-- Node2 -->
<g id="node2" class="node"><title>Node2</title>
<g id="a_node2"><a xlink:href="class_i_n_m_o_s_t_1_1_element.html#a8761a37c3bc9f46ada8f09034e8fa3a7" target="_top" xlink:title="INMOST::Element::operator=">
<polygon fill="none" stroke="black" points="146,-6 146,-25 289,-25 289,-6 146,-6"/>
<text text-anchor="middle" x="217.5" y="-13" font-family="Helvetica,sans-Serif" font-size="10.00">INMOST::Element::operator=</text>
</a>
</g>
</g>
<!-- Node1&#45;&gt;Node2 -->
<g id="edge1" class="edge"><title>Node1&#45;&gt;Node2</title>
<path fill="none" stroke="midnightblue" d="M110.338,-15.5C118.509,-15.5 127.081,-15.5 135.662,-15.5"/>
<polygon fill="midnightblue" stroke="midnightblue" points="135.716,-19.0001 145.715,-15.5 135.715,-12.0001 135.716,-19.0001"/>
</g>
<!-- Node3 -->
<g id="node3" class="node"><title>Node3</title>
<g id="a_node3"><a xlink:href="class_i_n_m_o_s_t_1_1_storage.html#a156c939c83d6854e1efaa29c1c38dddb" target="_top" xlink:title="INMOST::Storage::operator=">
<polygon fill="none" stroke="black" points="325,-6 325,-25 465,-25 465,-6 325,-6"/>
<text text-anchor="middle" x="395" y="-13" font-family="Helvetica,sans-Serif" font-size="10.00">INMOST::Storage::operator=</text>
</a>
</g>
</g>
<!-- Node2&#45;&gt;Node3 -->
<g id="edge2" class="edge"><title>Node2&#45;&gt;Node3</title>
<path fill="none" stroke="midnightblue" d="M289.124,-15.5C297.613,-15.5 306.324,-15.5 314.924,-15.5"/>
<polygon fill="midnightblue" stroke="midnightblue" points="314.947,-19.0001 324.947,-15.5 314.947,-12.0001 314.947,-19.0001"/>
</g>
</g>
</svg>
