<?xml version="1.0" encoding="UTF-8" standalone="no"?>
<!DOCTYPE svg PUBLIC "-//W3C//DTD SVG 1.1//EN"
 "http://www.w3.org/Graphics/SVG/1.1/DTD/svg11.dtd">
<!-- Generated by graphviz version 2.38.0 (20140413.2041)
 -->
<!-- Title: INMOST::shell::begin Pages: 1 -->
<svg width="281pt" height="88pt"
 viewBox="0.00 0.00 281.00 88.00" xmlns="http://www.w3.org/2000/svg" xmlns:xlink="http://www.w3.org/1999/xlink">
<g id="graph0" class="graph" transform="scale(1 1) rotate(0) translate(4 84)">
<title>INMOST::shell::begin</title>
<!-- Node1 -->
<g id="node1" class="node"><title>Node1</title>
<polygon fill="#bfbfbf" stroke="black" points="0,-30 0,-49 109,-49 109,-30 0,-30"/>
<text text-anchor="middle" x="54.5" y="-37" font-family="Helvetica,sans-Serif" font-size="10.00">INMOST::shell::begin</text>
</g>
<!-- Node2 -->
<g id="node2" class="node"><title>Node2</title>
<g id="a_node2"><a xlink:href="class_i_n_m_o_s_t_1_1shell.html#aa0e5ecefe4f5e57d8c7b6c09455869da" target="_top" xlink:title="INMOST::shell\&lt; reference\l \&gt;::erase">
<polygon fill="none" stroke="black" points="145,-49.5 145,-79.5 273,-79.5 273,-49.5 145,-49.5"/>
<text text-anchor="start" x="153" y="-67.5" font-family="Helvetica,sans-Serif" font-size="10.00">INMOST::shell&lt; reference</text>
<text text-anchor="middle" x="209" y="-56.5" font-family="Helvetica,sans-Serif" font-size="10.00"> &gt;::erase</text>
</a>
</g>
</g>
<!-- Node1&#45;&gt;Node2 -->
<g id="edge1" class="edge"><title>Node1&#45;&gt;Node2</title>
<path fill="none" stroke="midnightblue" d="M119.39,-49.9737C127.796,-51.3519 136.409,-52.7638 144.804,-54.1401"/>
<polygon fill="midnightblue" stroke="midnightblue" points="119.7,-46.478 109.266,-48.3141 118.568,-53.3858 119.7,-46.478"/>
</g>
<!-- Node3 -->
<g id="node3" class="node"><title>Node3</title>
<g id="a_node3"><a xlink:href="class_i_n_m_o_s_t_1_1shell.html#a1ee54f3650925ab3f031666fa31cf98d" target="_top" xlink:title="INMOST::shell\&lt; reference\l \&gt;::insert">
<polygon fill="none" stroke="black" points="145,-0.5 145,-30.5 273,-30.5 273,-0.5 145,-0.5"/>
<text text-anchor="start" x="153" y="-18.5" font-family="Helvetica,sans-Serif" font-size="10.00">INMOST::shell&lt; reference</text>
<text text-anchor="middle" x="209" y="-7.5" font-family="Helvetica,sans-Serif" font-size="10.00"> &gt;::insert</text>
</a>
</g>
</g>
<!-- Node1&#45;&gt;Node3 -->
<g id="edge2" class="edge"><title>Node1&#45;&gt;Node3</title>
<path fill="none" stroke="midnightblue" d="M119.39,-29.4452C127.796,-28.1222 136.409,-26.7667 144.804,-25.4455"/>
<polygon fill="midnightblue" stroke="midnightblue" points="118.6,-26.0263 109.266,-31.0385 119.688,-32.9412 118.6,-26.0263"/>
</g>
</g>
</svg>
