<?xml version="1.0" encoding="UTF-8" standalone="no"?>
<!DOCTYPE svg PUBLIC "-//W3C//DTD SVG 1.1//EN"
 "http://www.w3.org/Graphics/SVG/1.1/DTD/svg11.dtd">
<!-- Generated by graphviz version 2.38.0 (20140413.2041)
 -->
<!-- Title: INMOST::chunk_bulk_array::operator= Pages: 1 -->
<svg width="262pt" height="137pt"
 viewBox="0.00 0.00 262.00 137.00" xmlns="http://www.w3.org/2000/svg" xmlns:xlink="http://www.w3.org/1999/xlink">
<g id="graph0" class="graph" transform="scale(1 1) rotate(0) translate(4 133)">
<title>INMOST::chunk_bulk_array::operator=</title>
<!-- Node1 -->
<g id="node1" class="node"><title>Node1</title>
<polygon fill="#bfbfbf" stroke="black" points="0,-49.5 0,-79.5 109,-79.5 109,-49.5 0,-49.5"/>
<text text-anchor="start" x="8" y="-67.5" font-family="Helvetica,sans-Serif" font-size="10.00">INMOST::chunk_bulk</text>
<text text-anchor="middle" x="54.5" y="-56.5" font-family="Helvetica,sans-Serif" font-size="10.00">_array::operator=</text>
</g>
<!-- Node2 -->
<g id="node2" class="node"><title>Node2</title>
<g id="a_node2"><a xlink:href="class_i_n_m_o_s_t_1_1chunk__bulk__array.html#aab471a9d7c9bc16073fd6acb993aa3a8" target="_top" xlink:title="INMOST::chunk_bulk\l_array::clear">
<polygon fill="none" stroke="black" points="145,-98.5 145,-128.5 254,-128.5 254,-98.5 145,-98.5"/>
<text text-anchor="start" x="153" y="-116.5" font-family="Helvetica,sans-Serif" font-size="10.00">INMOST::chunk_bulk</text>
<text text-anchor="middle" x="199.5" y="-105.5" font-family="Helvetica,sans-Serif" font-size="10.00">_array::clear</text>
</a>
</g>
</g>
<!-- Node1&#45;&gt;Node2 -->
<g id="edge1" class="edge"><title>Node1&#45;&gt;Node2</title>
<path fill="none" stroke="midnightblue" d="M99.5715,-79.6014C113.843,-84.4917 129.833,-89.9707 144.727,-95.0744"/>
<polygon fill="midnightblue" stroke="midnightblue" points="143.733,-98.4335 154.328,-98.3641 146.002,-91.8114 143.733,-98.4335"/>
</g>
<!-- Node3 -->
<g id="node3" class="node"><title>Node3</title>
<g id="a_node3"><a xlink:href="class_i_n_m_o_s_t_1_1chunk__bulk__array.html#a374c54c79398708ef5368fe94bb3458f" target="_top" xlink:title="INMOST::chunk_bulk\l_array::inner_resize">
<polygon fill="none" stroke="black" points="145,-49.5 145,-79.5 254,-79.5 254,-49.5 145,-49.5"/>
<text text-anchor="start" x="153" y="-67.5" font-family="Helvetica,sans-Serif" font-size="10.00">INMOST::chunk_bulk</text>
<text text-anchor="middle" x="199.5" y="-56.5" font-family="Helvetica,sans-Serif" font-size="10.00">_array::inner_resize</text>
</a>
</g>
</g>
<!-- Node1&#45;&gt;Node3 -->
<g id="edge2" class="edge"><title>Node1&#45;&gt;Node3</title>
<path fill="none" stroke="midnightblue" d="M109.155,-64.5C117.381,-64.5 125.944,-64.5 134.368,-64.5"/>
<polygon fill="midnightblue" stroke="midnightblue" points="134.545,-68.0001 144.545,-64.5 134.544,-61.0001 134.545,-68.0001"/>
</g>
<!-- Node4 -->
<g id="node4" class="node"><title>Node4</title>
<g id="a_node4"><a xlink:href="class_i_n_m_o_s_t_1_1chunk__bulk__array.html#a1db6577988aaaf54b3840b98ff3c1b48" target="_top" xlink:title="INMOST::chunk_bulk\l_array::size">
<polygon fill="none" stroke="black" points="145,-0.5 145,-30.5 254,-30.5 254,-0.5 145,-0.5"/>
<text text-anchor="start" x="153" y="-18.5" font-family="Helvetica,sans-Serif" font-size="10.00">INMOST::chunk_bulk</text>
<text text-anchor="middle" x="199.5" y="-7.5" font-family="Helvetica,sans-Serif" font-size="10.00">_array::size</text>
</a>
</g>
</g>
<!-- Node1&#45;&gt;Node4 -->
<g id="edge3" class="edge"><title>Node1&#45;&gt;Node4</title>
<path fill="none" stroke="midnightblue" d="M99.5715,-49.3986C113.843,-44.5083 129.833,-39.0293 144.727,-33.9256"/>
<polygon fill="midnightblue" stroke="midnightblue" points="146.002,-37.1886 154.328,-30.6359 143.733,-30.5665 146.002,-37.1886"/>
</g>
</g>
</svg>
