<?xml version="1.0" encoding="UTF-8" standalone="no"?>
<!DOCTYPE svg PUBLIC "-//W3C//DTD SVG 1.1//EN"
 "http://www.w3.org/Graphics/SVG/1.1/DTD/svg11.dtd">
<!-- Generated by graphviz version 2.38.0 (20140413.2041)
 -->
<!-- Title: INMOST::soft_abs_expression&lt; A &gt; Pages: 1 -->
<svg width="245pt" height="636pt"
 viewBox="0.00 0.00 244.50 636.00" xmlns="http://www.w3.org/2000/svg" xmlns:xlink="http://www.w3.org/1999/xlink">
<g id="graph0" class="graph" transform="scale(1 1) rotate(0) translate(4 632)">
<title>INMOST::soft_abs_expression&lt; A &gt;</title>
<!-- Node1 -->
<g id="node1" class="node"><title>Node1</title>
<polygon fill="#bfbfbf" stroke="black" points="0,-0.5 0,-101.5 173,-101.5 173,-0.5 0,-0.5"/>
<text text-anchor="middle" x="86.5" y="-89.5" font-family="Helvetica,sans-Serif" font-size="10.00">INMOST::soft_abs_expression&lt; A &gt;</text>
<polyline fill="none" stroke="black" points="0,-82.5 173,-82.5 "/>
<text text-anchor="middle" x="86.5" y="-70.5" font-family="Helvetica,sans-Serif" font-size="10.00"> </text>
<polyline fill="none" stroke="black" points="0,-63.5 173,-63.5 "/>
<text text-anchor="start" x="8" y="-51.5" font-family="Helvetica,sans-Serif" font-size="10.00">+ soft_abs_expression()</text>
<text text-anchor="start" x="8" y="-40.5" font-family="Helvetica,sans-Serif" font-size="10.00">+ soft_abs_expression()</text>
<text text-anchor="start" x="8" y="-29.5" font-family="Helvetica,sans-Serif" font-size="10.00">+ GetValue()</text>
<text text-anchor="start" x="8" y="-18.5" font-family="Helvetica,sans-Serif" font-size="10.00">+ GetDerivative()</text>
<text text-anchor="start" x="8" y="-7.5" font-family="Helvetica,sans-Serif" font-size="10.00">+ GetDerivative()</text>
</g>
<!-- Node2 -->
<g id="node2" class="node"><title>Node2</title>
<g id="a_node2"><a xlink:href="class_i_n_m_o_s_t_1_1shell__expression.html" target="_top" xlink:title="{INMOST::shell_expression\l\&lt; soft_abs_expression\&lt; A \&gt; \&gt;\n||+ shell_expression()\l+ shell_expression()\l+ GetValue()\l+ GetDerivative()\l+ GetDerivative()\l+ operator soft_abs_expression\l\&lt; A \&gt; &amp;()\l+ operator const soft\l_abs_expression\&lt; A \&gt; &amp;()\l}">
<polygon fill="none" stroke="black" points="10,-139.5 10,-295.5 163,-295.5 163,-139.5 10,-139.5"/>
<text text-anchor="start" x="18" y="-283.5" font-family="Helvetica,sans-Serif" font-size="10.00">INMOST::shell_expression</text>
<text text-anchor="middle" x="86.5" y="-272.5" font-family="Helvetica,sans-Serif" font-size="10.00">&lt; soft_abs_expression&lt; A &gt; &gt;</text>
<polyline fill="none" stroke="black" points="10,-265.5 163,-265.5 "/>
<text text-anchor="middle" x="86.5" y="-253.5" font-family="Helvetica,sans-Serif" font-size="10.00"> </text>
<polyline fill="none" stroke="black" points="10,-246.5 163,-246.5 "/>
<text text-anchor="start" x="18" y="-234.5" font-family="Helvetica,sans-Serif" font-size="10.00">+ shell_expression()</text>
<text text-anchor="start" x="18" y="-223.5" font-family="Helvetica,sans-Serif" font-size="10.00">+ shell_expression()</text>
<text text-anchor="start" x="18" y="-212.5" font-family="Helvetica,sans-Serif" font-size="10.00">+ GetValue()</text>
<text text-anchor="start" x="18" y="-201.5" font-family="Helvetica,sans-Serif" font-size="10.00">+ GetDerivative()</text>
<text text-anchor="start" x="18" y="-190.5" font-family="Helvetica,sans-Serif" font-size="10.00">+ GetDerivative()</text>
<text text-anchor="start" x="18" y="-179.5" font-family="Helvetica,sans-Serif" font-size="10.00">+ operator soft_abs_expression</text>
<text text-anchor="start" x="18" y="-168.5" font-family="Helvetica,sans-Serif" font-size="10.00">&lt; A &gt; &amp;()</text>
<text text-anchor="start" x="18" y="-157.5" font-family="Helvetica,sans-Serif" font-size="10.00">+ operator const soft</text>
<text text-anchor="start" x="18" y="-146.5" font-family="Helvetica,sans-Serif" font-size="10.00">_abs_expression&lt; A &gt; &amp;()</text>
</a>
</g>
</g>
<!-- Node2&#45;&gt;Node1 -->
<g id="edge1" class="edge"><title>Node2&#45;&gt;Node1</title>
<path fill="none" stroke="midnightblue" d="M86.5,-128.964C86.5,-119.664 86.5,-110.456 86.5,-101.816"/>
<polygon fill="none" stroke="midnightblue" points="83.0001,-129.067 86.5,-139.067 90.0001,-129.067 83.0001,-129.067"/>
</g>
<!-- Node3 -->
<g id="node3" class="node"><title>Node3</title>
<g id="a_node3"><a xlink:href="class_i_n_m_o_s_t_1_1basic__expression.html" target="_top" xlink:title="{INMOST::basic_expression\n||+ basic_expression()\l+ basic_expression()\l+ GetValue()\l+ GetDerivative()\l+ GetDerivative()\l}">
<polygon fill="none" stroke="black" points="33,-526.5 33,-627.5 168,-627.5 168,-526.5 33,-526.5"/>
<text text-anchor="middle" x="100.5" y="-615.5" font-family="Helvetica,sans-Serif" font-size="10.00">INMOST::basic_expression</text>
<polyline fill="none" stroke="black" points="33,-608.5 168,-608.5 "/>
<text text-anchor="middle" x="100.5" y="-596.5" font-family="Helvetica,sans-Serif" font-size="10.00"> </text>
<polyline fill="none" stroke="black" points="33,-589.5 168,-589.5 "/>
<text text-anchor="start" x="41" y="-577.5" font-family="Helvetica,sans-Serif" font-size="10.00">+ basic_expression()</text>
<text text-anchor="start" x="41" y="-566.5" font-family="Helvetica,sans-Serif" font-size="10.00">+ basic_expression()</text>
<text text-anchor="start" x="41" y="-555.5" font-family="Helvetica,sans-Serif" font-size="10.00">+ GetValue()</text>
<text text-anchor="start" x="41" y="-544.5" font-family="Helvetica,sans-Serif" font-size="10.00">+ GetDerivative()</text>
<text text-anchor="start" x="41" y="-533.5" font-family="Helvetica,sans-Serif" font-size="10.00">+ GetDerivative()</text>
</a>
</g>
</g>
<!-- Node3&#45;&gt;Node2 -->
<g id="edge2" class="edge"><title>Node3&#45;&gt;Node2</title>
<path fill="none" stroke="midnightblue" d="M92.0282,-516.242C91.0025,-507.133 90.1051,-497.828 89.5,-489 85.0363,-423.872 84.5355,-349.721 85.01,-295.547"/>
<polygon fill="none" stroke="midnightblue" points="88.5803,-516.889 93.2321,-526.408 95.5317,-516.066 88.5803,-516.889"/>
</g>
<!-- Node4 -->
<g id="node4" class="node"><title>Node4</title>
<g id="a_node4"><a xlink:href="class_i_n_m_o_s_t_1_1shell__expression.html" target="_top" xlink:title="{INMOST::shell_expression\l\&lt; Derived \&gt;\n||+ shell_expression()\l+ shell_expression()\l+ GetValue()\l+ GetDerivative()\l+ GetDerivative()\l+ operator Derived &amp;()\l+ operator const Derived &amp;()\l}">
<polygon fill="none" stroke="black" points="98.5,-354.5 98.5,-488.5 236.5,-488.5 236.5,-354.5 98.5,-354.5"/>
<text text-anchor="start" x="106.5" y="-476.5" font-family="Helvetica,sans-Serif" font-size="10.00">INMOST::shell_expression</text>
<text text-anchor="middle" x="167.5" y="-465.5" font-family="Helvetica,sans-Serif" font-size="10.00">&lt; Derived &gt;</text>
<polyline fill="none" stroke="black" points="98.5,-458.5 236.5,-458.5 "/>
<text text-anchor="middle" x="167.5" y="-446.5" font-family="Helvetica,sans-Serif" font-size="10.00"> </text>
<polyline fill="none" stroke="black" points="98.5,-439.5 236.5,-439.5 "/>
<text text-anchor="start" x="106.5" y="-427.5" font-family="Helvetica,sans-Serif" font-size="10.00">+ shell_expression()</text>
<text text-anchor="start" x="106.5" y="-416.5" font-family="Helvetica,sans-Serif" font-size="10.00">+ shell_expression()</text>
<text text-anchor="start" x="106.5" y="-405.5" font-family="Helvetica,sans-Serif" font-size="10.00">+ GetValue()</text>
<text text-anchor="start" x="106.5" y="-394.5" font-family="Helvetica,sans-Serif" font-size="10.00">+ GetDerivative()</text>
<text text-anchor="start" x="106.5" y="-383.5" font-family="Helvetica,sans-Serif" font-size="10.00">+ GetDerivative()</text>
<text text-anchor="start" x="106.5" y="-372.5" font-family="Helvetica,sans-Serif" font-size="10.00">+ operator Derived &amp;()</text>
<text text-anchor="start" x="106.5" y="-361.5" font-family="Helvetica,sans-Serif" font-size="10.00">+ operator const Derived &amp;()</text>
</a>
</g>
</g>
<!-- Node3&#45;&gt;Node4 -->
<g id="edge4" class="edge"><title>Node3&#45;&gt;Node4</title>
<path fill="none" stroke="midnightblue" d="M126.379,-516.711C130.402,-507.494 134.579,-497.923 138.663,-488.568"/>
<polygon fill="none" stroke="midnightblue" points="123.046,-515.598 122.253,-526.163 129.461,-518.398 123.046,-515.598"/>
</g>
<!-- Node4&#45;&gt;Node2 -->
<g id="edge3" class="edge"><title>Node4&#45;&gt;Node2</title>
<path fill="none" stroke="orange" d="M137.222,-344.993C130.762,-328.882 123.931,-311.846 117.446,-295.674"/>
<polygon fill="orange" stroke="orange" points="134.007,-346.379 140.978,-354.358 140.504,-343.773 134.007,-346.379"/>
<text text-anchor="start" x="131.5" y="-328" font-family="Helvetica,sans-Serif" font-size="10.00"> &lt; soft_abs_expression</text>
<text text-anchor="middle" x="182.5" y="-317" font-family="Helvetica,sans-Serif" font-size="10.00">&lt; A &gt; &gt;</text>
</g>
</g>
</svg>
