<?xml version="1.0" encoding="UTF-8" standalone="no"?>
<!DOCTYPE svg PUBLIC "-//W3C//DTD SVG 1.1//EN"
 "http://www.w3.org/Graphics/SVG/1.1/DTD/svg11.dtd">
<!-- Generated by graphviz version 2.38.0 (20140413.2041)
 -->
<!-- Title: INMOST::soft_min_expression&lt; A, B &gt; Pages: 1 -->
<svg width="235pt" height="658pt"
 viewBox="0.00 0.00 234.50 658.00" xmlns="http://www.w3.org/2000/svg" xmlns:xlink="http://www.w3.org/1999/xlink">
<g id="graph0" class="graph" transform="scale(1 1) rotate(0) translate(4 654)">
<title>INMOST::soft_min_expression&lt; A, B &gt;</title>
<!-- Node1 -->
<g id="node1" class="node"><title>Node1</title>
<polygon fill="#bfbfbf" stroke="black" points="2,-0.5 2,-112.5 151,-112.5 151,-0.5 2,-0.5"/>
<text text-anchor="start" x="10" y="-100.5" font-family="Helvetica,sans-Serif" font-size="10.00">INMOST::soft_min_expression</text>
<text text-anchor="middle" x="76.5" y="-89.5" font-family="Helvetica,sans-Serif" font-size="10.00">&lt; A, B &gt;</text>
<polyline fill="none" stroke="black" points="2,-82.5 151,-82.5 "/>
<text text-anchor="middle" x="76.5" y="-70.5" font-family="Helvetica,sans-Serif" font-size="10.00"> </text>
<polyline fill="none" stroke="black" points="2,-63.5 151,-63.5 "/>
<text text-anchor="start" x="10" y="-51.5" font-family="Helvetica,sans-Serif" font-size="10.00">+ soft_min_expression()</text>
<text text-anchor="start" x="10" y="-40.5" font-family="Helvetica,sans-Serif" font-size="10.00">+ soft_min_expression()</text>
<text text-anchor="start" x="10" y="-29.5" font-family="Helvetica,sans-Serif" font-size="10.00">+ GetValue()</text>
<text text-anchor="start" x="10" y="-18.5" font-family="Helvetica,sans-Serif" font-size="10.00">+ GetDerivative()</text>
<text text-anchor="start" x="10" y="-7.5" font-family="Helvetica,sans-Serif" font-size="10.00">+ GetDerivative()</text>
</g>
<!-- Node2 -->
<g id="node2" class="node"><title>Node2</title>
<g id="a_node2"><a xlink:href="class_i_n_m_o_s_t_1_1shell__expression.html" target="_top" xlink:title="{INMOST::shell_expression\l\&lt; soft_min_expression\&lt;\l A, B \&gt; \&gt;\n||+ shell_expression()\l+ shell_expression()\l+ GetValue()\l+ GetDerivative()\l+ GetDerivative()\l+ operator soft_min_expression\l\&lt; A, B \&gt; &amp;()\l+ operator const soft\l_min_expression\&lt; A, B \&gt; &amp;()\l}">
<polygon fill="none" stroke="black" points="0,-150.5 0,-317.5 153,-317.5 153,-150.5 0,-150.5"/>
<text text-anchor="start" x="8" y="-305.5" font-family="Helvetica,sans-Serif" font-size="10.00">INMOST::shell_expression</text>
<text text-anchor="start" x="8" y="-294.5" font-family="Helvetica,sans-Serif" font-size="10.00">&lt; soft_min_expression&lt;</text>
<text text-anchor="middle" x="76.5" y="-283.5" font-family="Helvetica,sans-Serif" font-size="10.00"> A, B &gt; &gt;</text>
<polyline fill="none" stroke="black" points="0,-276.5 153,-276.5 "/>
<text text-anchor="middle" x="76.5" y="-264.5" font-family="Helvetica,sans-Serif" font-size="10.00"> </text>
<polyline fill="none" stroke="black" points="0,-257.5 153,-257.5 "/>
<text text-anchor="start" x="8" y="-245.5" font-family="Helvetica,sans-Serif" font-size="10.00">+ shell_expression()</text>
<text text-anchor="start" x="8" y="-234.5" font-family="Helvetica,sans-Serif" font-size="10.00">+ shell_expression()</text>
<text text-anchor="start" x="8" y="-223.5" font-family="Helvetica,sans-Serif" font-size="10.00">+ GetValue()</text>
<text text-anchor="start" x="8" y="-212.5" font-family="Helvetica,sans-Serif" font-size="10.00">+ GetDerivative()</text>
<text text-anchor="start" x="8" y="-201.5" font-family="Helvetica,sans-Serif" font-size="10.00">+ GetDerivative()</text>
<text text-anchor="start" x="8" y="-190.5" font-family="Helvetica,sans-Serif" font-size="10.00">+ operator soft_min_expression</text>
<text text-anchor="start" x="8" y="-179.5" font-family="Helvetica,sans-Serif" font-size="10.00">&lt; A, B &gt; &amp;()</text>
<text text-anchor="start" x="8" y="-168.5" font-family="Helvetica,sans-Serif" font-size="10.00">+ operator const soft</text>
<text text-anchor="start" x="8" y="-157.5" font-family="Helvetica,sans-Serif" font-size="10.00">_min_expression&lt; A, B &gt; &amp;()</text>
</a>
</g>
</g>
<!-- Node2&#45;&gt;Node1 -->
<g id="edge1" class="edge"><title>Node2&#45;&gt;Node1</title>
<path fill="none" stroke="midnightblue" d="M76.5,-140.177C76.5,-130.775 76.5,-121.451 76.5,-112.638"/>
<polygon fill="none" stroke="midnightblue" points="73.0001,-140.389 76.5,-150.389 80.0001,-140.389 73.0001,-140.389"/>
</g>
<!-- Node3 -->
<g id="node3" class="node"><title>Node3</title>
<g id="a_node3"><a xlink:href="class_i_n_m_o_s_t_1_1basic__expression.html" target="_top" xlink:title="{INMOST::basic_expression\n||+ basic_expression()\l+ basic_expression()\l+ GetValue()\l+ GetDerivative()\l+ GetDerivative()\l}">
<polygon fill="none" stroke="black" points="23,-548.5 23,-649.5 158,-649.5 158,-548.5 23,-548.5"/>
<text text-anchor="middle" x="90.5" y="-637.5" font-family="Helvetica,sans-Serif" font-size="10.00">INMOST::basic_expression</text>
<polyline fill="none" stroke="black" points="23,-630.5 158,-630.5 "/>
<text text-anchor="middle" x="90.5" y="-618.5" font-family="Helvetica,sans-Serif" font-size="10.00"> </text>
<polyline fill="none" stroke="black" points="23,-611.5 158,-611.5 "/>
<text text-anchor="start" x="31" y="-599.5" font-family="Helvetica,sans-Serif" font-size="10.00">+ basic_expression()</text>
<text text-anchor="start" x="31" y="-588.5" font-family="Helvetica,sans-Serif" font-size="10.00">+ basic_expression()</text>
<text text-anchor="start" x="31" y="-577.5" font-family="Helvetica,sans-Serif" font-size="10.00">+ GetValue()</text>
<text text-anchor="start" x="31" y="-566.5" font-family="Helvetica,sans-Serif" font-size="10.00">+ GetDerivative()</text>
<text text-anchor="start" x="31" y="-555.5" font-family="Helvetica,sans-Serif" font-size="10.00">+ GetDerivative()</text>
</a>
</g>
</g>
<!-- Node3&#45;&gt;Node2 -->
<g id="edge2" class="edge"><title>Node3&#45;&gt;Node2</title>
<path fill="none" stroke="midnightblue" d="M82.0265,-538.242C81.001,-529.133 80.1041,-519.829 79.5,-511 75.0592,-446.101 74.4845,-372.422 74.9245,-317.524"/>
<polygon fill="none" stroke="midnightblue" points="78.5785,-538.889 83.2302,-548.408 85.53,-538.066 78.5785,-538.889"/>
</g>
<!-- Node4 -->
<g id="node4" class="node"><title>Node4</title>
<g id="a_node4"><a xlink:href="class_i_n_m_o_s_t_1_1shell__expression.html" target="_top" xlink:title="{INMOST::shell_expression\l\&lt; Derived \&gt;\n||+ shell_expression()\l+ shell_expression()\l+ GetValue()\l+ GetDerivative()\l+ GetDerivative()\l+ operator Derived &amp;()\l+ operator const Derived &amp;()\l}">
<polygon fill="none" stroke="black" points="88.5,-376.5 88.5,-510.5 226.5,-510.5 226.5,-376.5 88.5,-376.5"/>
<text text-anchor="start" x="96.5" y="-498.5" font-family="Helvetica,sans-Serif" font-size="10.00">INMOST::shell_expression</text>
<text text-anchor="middle" x="157.5" y="-487.5" font-family="Helvetica,sans-Serif" font-size="10.00">&lt; Derived &gt;</text>
<polyline fill="none" stroke="black" points="88.5,-480.5 226.5,-480.5 "/>
<text text-anchor="middle" x="157.5" y="-468.5" font-family="Helvetica,sans-Serif" font-size="10.00"> </text>
<polyline fill="none" stroke="black" points="88.5,-461.5 226.5,-461.5 "/>
<text text-anchor="start" x="96.5" y="-449.5" font-family="Helvetica,sans-Serif" font-size="10.00">+ shell_expression()</text>
<text text-anchor="start" x="96.5" y="-438.5" font-family="Helvetica,sans-Serif" font-size="10.00">+ shell_expression()</text>
<text text-anchor="start" x="96.5" y="-427.5" font-family="Helvetica,sans-Serif" font-size="10.00">+ GetValue()</text>
<text text-anchor="start" x="96.5" y="-416.5" font-family="Helvetica,sans-Serif" font-size="10.00">+ GetDerivative()</text>
<text text-anchor="start" x="96.5" y="-405.5" font-family="Helvetica,sans-Serif" font-size="10.00">+ GetDerivative()</text>
<text text-anchor="start" x="96.5" y="-394.5" font-family="Helvetica,sans-Serif" font-size="10.00">+ operator Derived &amp;()</text>
<text text-anchor="start" x="96.5" y="-383.5" font-family="Helvetica,sans-Serif" font-size="10.00">+ operator const Derived &amp;()</text>
</a>
</g>
</g>
<!-- Node3&#45;&gt;Node4 -->
<g id="edge4" class="edge"><title>Node3&#45;&gt;Node4</title>
<path fill="none" stroke="midnightblue" d="M116.379,-538.711C120.402,-529.494 124.579,-519.923 128.663,-510.568"/>
<polygon fill="none" stroke="midnightblue" points="113.046,-537.598 112.253,-548.163 119.461,-540.398 113.046,-537.598"/>
</g>
<!-- Node4&#45;&gt;Node2 -->
<g id="edge3" class="edge"><title>Node4&#45;&gt;Node2</title>
<path fill="none" stroke="orange" d="M127.842,-366.523C121.642,-350.643 115.078,-333.825 108.788,-317.714"/>
<polygon fill="orange" stroke="orange" points="124.752,-368.233 131.648,-376.275 131.272,-365.687 124.752,-368.233"/>
<text text-anchor="start" x="123.5" y="-350" font-family="Helvetica,sans-Serif" font-size="10.00"> &lt; soft_min_expression</text>
<text text-anchor="middle" x="174.5" y="-339" font-family="Helvetica,sans-Serif" font-size="10.00">&lt; A, B &gt; &gt;</text>
</g>
</g>
</svg>
