<?xml version="1.0" encoding="UTF-8" standalone="no"?>
<!DOCTYPE svg PUBLIC "-//W3C//DTD SVG 1.1//EN"
 "http://www.w3.org/Graphics/SVG/1.1/DTD/svg11.dtd">
<!-- Generated by graphviz version 2.38.0 (20140413.2041)
 -->
<!-- Title: INMOST::basic_expression::GetDerivative Pages: 1 -->
<svg width="334pt" height="590pt"
 viewBox="0.00 0.00 334.00 590.00" xmlns="http://www.w3.org/2000/svg" xmlns:xlink="http://www.w3.org/1999/xlink">
<g id="graph0" class="graph" transform="scale(1 1) rotate(0) translate(4 586)">
<title>INMOST::basic_expression::GetDerivative</title>
<!-- Node1 -->
<g id="node1" class="node"><title>Node1</title>
<polygon fill="#bfbfbf" stroke="black" points="0,-278.5 0,-308.5 135,-308.5 135,-278.5 0,-278.5"/>
<text text-anchor="start" x="8" y="-296.5" font-family="Helvetica,sans-Serif" font-size="10.00">INMOST::basic_expression</text>
<text text-anchor="middle" x="67.5" y="-285.5" font-family="Helvetica,sans-Serif" font-size="10.00">::GetDerivative</text>
</g>
<!-- Node2 -->
<g id="node2" class="node"><title>Node2</title>
<g id="a_node2"><a xlink:href="class_i_n_m_o_s_t_1_1multivar__expression.html#a4d5add92ea9fcf358fd6292a1fbcfe4f" target="_top" xlink:title="INMOST::multivar_expression\l::multivar_expression">
<polygon fill="none" stroke="black" points="176,-551.5 176,-581.5 321,-581.5 321,-551.5 176,-551.5"/>
<text text-anchor="start" x="184" y="-569.5" font-family="Helvetica,sans-Serif" font-size="10.00">INMOST::multivar_expression</text>
<text text-anchor="middle" x="248.5" y="-558.5" font-family="Helvetica,sans-Serif" font-size="10.00">::multivar_expression</text>
</a>
</g>
</g>
<!-- Node1&#45;&gt;Node2 -->
<g id="edge1" class="edge"><title>Node1&#45;&gt;Node2</title>
<path fill="none" stroke="midnightblue" d="M71.7203,-318.544C79.4648,-368.459 103.752,-480.831 171,-542.5 174.693,-545.887 178.861,-548.796 183.296,-551.294"/>
<polygon fill="midnightblue" stroke="midnightblue" points="75.1782,-318 70.2723,-308.61 68.2514,-319.01 75.1782,-318"/>
</g>
<!-- Node3 -->
<g id="node3" class="node"><title>Node3</title>
<g id="a_node3"><a xlink:href="class_i_n_m_o_s_t_1_1multivar__expression.html#a8e12c7a16e7720e6524444ba9d938be2" target="_top" xlink:title="INMOST::multivar_expression\l::operator=">
<polygon fill="none" stroke="black" points="176,-502.5 176,-532.5 321,-532.5 321,-502.5 176,-502.5"/>
<text text-anchor="start" x="184" y="-520.5" font-family="Helvetica,sans-Serif" font-size="10.00">INMOST::multivar_expression</text>
<text text-anchor="middle" x="248.5" y="-509.5" font-family="Helvetica,sans-Serif" font-size="10.00">::operator=</text>
</a>
</g>
</g>
<!-- Node1&#45;&gt;Node3 -->
<g id="edge2" class="edge"><title>Node1&#45;&gt;Node3</title>
<path fill="none" stroke="midnightblue" d="M74.4736,-318.286C85.9126,-360.46 114.908,-446.196 171,-493.5 175.044,-496.91 179.572,-499.836 184.353,-502.348"/>
<polygon fill="midnightblue" stroke="midnightblue" points="77.8458,-317.347 71.9378,-308.552 71.0719,-319.111 77.8458,-317.347"/>
</g>
<!-- Node4 -->
<g id="node4" class="node"><title>Node4</title>
<g id="a_node4"><a xlink:href="class_i_n_m_o_s_t_1_1multivar__expression.html#a4097d4feec354889aeb3306ed223f485" target="_top" xlink:title="INMOST::multivar_expression\l::operator+=">
<polygon fill="none" stroke="black" points="176,-453.5 176,-483.5 321,-483.5 321,-453.5 176,-453.5"/>
<text text-anchor="start" x="184" y="-471.5" font-family="Helvetica,sans-Serif" font-size="10.00">INMOST::multivar_expression</text>
<text text-anchor="middle" x="248.5" y="-460.5" font-family="Helvetica,sans-Serif" font-size="10.00">::operator+=</text>
</a>
</g>
</g>
<!-- Node1&#45;&gt;Node4 -->
<g id="edge3" class="edge"><title>Node1&#45;&gt;Node4</title>
<path fill="none" stroke="midnightblue" d="M78.9734,-318.366C94.3227,-351.855 126.063,-411.097 171,-444.5 175.58,-447.905 180.656,-450.834 185.95,-453.354"/>
<polygon fill="midnightblue" stroke="midnightblue" points="82.0044,-316.568 74.7396,-308.856 75.6095,-319.415 82.0044,-316.568"/>
</g>
<!-- Node5 -->
<g id="node5" class="node"><title>Node5</title>
<g id="a_node5"><a xlink:href="class_i_n_m_o_s_t_1_1multivar__expression.html#aaace2e2ac91e4fb73183a1901a3e1ea1" target="_top" xlink:title="INMOST::multivar_expression\l::operator&#45;=">
<polygon fill="none" stroke="black" points="176,-404.5 176,-434.5 321,-434.5 321,-404.5 176,-404.5"/>
<text text-anchor="start" x="184" y="-422.5" font-family="Helvetica,sans-Serif" font-size="10.00">INMOST::multivar_expression</text>
<text text-anchor="middle" x="248.5" y="-411.5" font-family="Helvetica,sans-Serif" font-size="10.00">::operator&#45;=</text>
</a>
</g>
</g>
<!-- Node1&#45;&gt;Node5 -->
<g id="edge4" class="edge"><title>Node1&#45;&gt;Node5</title>
<path fill="none" stroke="midnightblue" d="M86.0067,-316.492C104.703,-339.556 136.361,-374.572 171,-395.5 176.6,-398.883 182.722,-401.833 188.985,-404.394"/>
<polygon fill="midnightblue" stroke="midnightblue" points="88.6847,-314.236 79.7235,-308.584 83.204,-318.591 88.6847,-314.236"/>
</g>
<!-- Node6 -->
<g id="node6" class="node"><title>Node6</title>
<g id="a_node6"><a xlink:href="class_i_n_m_o_s_t_1_1multivar__expression.html#aa8201a6a63329890bde0e8ddc37dc780" target="_top" xlink:title="INMOST::multivar_expression\l::operator*=">
<polygon fill="none" stroke="black" points="176,-355.5 176,-385.5 321,-385.5 321,-355.5 176,-355.5"/>
<text text-anchor="start" x="184" y="-373.5" font-family="Helvetica,sans-Serif" font-size="10.00">INMOST::multivar_expression</text>
<text text-anchor="middle" x="248.5" y="-362.5" font-family="Helvetica,sans-Serif" font-size="10.00">::operator*=</text>
</a>
</g>
</g>
<!-- Node1&#45;&gt;Node6 -->
<g id="edge5" class="edge"><title>Node1&#45;&gt;Node6</title>
<path fill="none" stroke="midnightblue" d="M103.279,-313.396C122.794,-324.07 147.812,-336.952 171,-346.5 178.723,-349.68 187.028,-352.688 195.218,-355.429"/>
<polygon fill="midnightblue" stroke="midnightblue" points="104.895,-310.291 94.4506,-308.514 101.507,-316.416 104.895,-310.291"/>
</g>
<!-- Node7 -->
<g id="node7" class="node"><title>Node7</title>
<g id="a_node7"><a xlink:href="class_i_n_m_o_s_t_1_1multivar__expression.html#ad1e7513f547145312c4da1ae5aff2c62" target="_top" xlink:title="INMOST::multivar_expression\l::operator/=">
<polygon fill="none" stroke="black" points="176,-306.5 176,-336.5 321,-336.5 321,-306.5 176,-306.5"/>
<text text-anchor="start" x="184" y="-324.5" font-family="Helvetica,sans-Serif" font-size="10.00">INMOST::multivar_expression</text>
<text text-anchor="middle" x="248.5" y="-313.5" font-family="Helvetica,sans-Serif" font-size="10.00">::operator/=</text>
</a>
</g>
</g>
<!-- Node1&#45;&gt;Node7 -->
<g id="edge6" class="edge"><title>Node1&#45;&gt;Node7</title>
<path fill="none" stroke="midnightblue" d="M145.258,-305.507C155.458,-307.102 165.884,-308.733 175.991,-310.314"/>
<polygon fill="midnightblue" stroke="midnightblue" points="145.574,-302.014 135.153,-303.926 144.492,-308.93 145.574,-302.014"/>
</g>
<!-- Node8 -->
<g id="node8" class="node"><title>Node8</title>
<g id="a_node8"><a xlink:href="class_i_n_m_o_s_t_1_1enhanced__multivar__expression.html#a45c809d9a3421981e9243a54262ca9fb" target="_top" xlink:title="INMOST::enhanced_multivar\l_expression::enhanced_multivar\l_expression">
<polygon fill="none" stroke="black" points="171,-246 171,-287 326,-287 326,-246 171,-246"/>
<text text-anchor="start" x="179" y="-275" font-family="Helvetica,sans-Serif" font-size="10.00">INMOST::enhanced_multivar</text>
<text text-anchor="start" x="179" y="-264" font-family="Helvetica,sans-Serif" font-size="10.00">_expression::enhanced_multivar</text>
<text text-anchor="middle" x="248.5" y="-253" font-family="Helvetica,sans-Serif" font-size="10.00">_expression</text>
</a>
</g>
</g>
<!-- Node1&#45;&gt;Node8 -->
<g id="edge7" class="edge"><title>Node1&#45;&gt;Node8</title>
<path fill="none" stroke="midnightblue" d="M145.077,-281.949C153.61,-280.662 162.303,-279.351 170.837,-278.064"/>
<polygon fill="midnightblue" stroke="midnightblue" points="144.519,-278.494 135.153,-283.446 145.563,-285.415 144.519,-278.494"/>
</g>
<!-- Node9 -->
<g id="node9" class="node"><title>Node9</title>
<g id="a_node9"><a xlink:href="class_i_n_m_o_s_t_1_1enhanced__multivar__expression.html#ac5919c2f1fe2d724401bd2df073cfbb6" target="_top" xlink:title="INMOST::enhanced_multivar\l_expression::operator=">
<polygon fill="none" stroke="black" points="178.5,-196.5 178.5,-226.5 318.5,-226.5 318.5,-196.5 178.5,-196.5"/>
<text text-anchor="start" x="186.5" y="-214.5" font-family="Helvetica,sans-Serif" font-size="10.00">INMOST::enhanced_multivar</text>
<text text-anchor="middle" x="248.5" y="-203.5" font-family="Helvetica,sans-Serif" font-size="10.00">_expression::operator=</text>
</a>
</g>
</g>
<!-- Node1&#45;&gt;Node9 -->
<g id="edge8" class="edge"><title>Node1&#45;&gt;Node9</title>
<path fill="none" stroke="midnightblue" d="M101.28,-273.152C121.005,-261.449 146.889,-247.028 171,-236.5 179.195,-232.922 188.074,-229.57 196.783,-226.555"/>
<polygon fill="midnightblue" stroke="midnightblue" points="99.4523,-270.166 92.679,-278.313 103.054,-276.168 99.4523,-270.166"/>
</g>
<!-- Node10 -->
<g id="node10" class="node"><title>Node10</title>
<g id="a_node10"><a xlink:href="class_i_n_m_o_s_t_1_1enhanced__multivar__expression.html#a41816d1b5eb3737263f2c6e93f6eb5a3" target="_top" xlink:title="INMOST::enhanced_multivar\l_expression::operator+=">
<polygon fill="none" stroke="black" points="178.5,-147.5 178.5,-177.5 318.5,-177.5 318.5,-147.5 178.5,-147.5"/>
<text text-anchor="start" x="186.5" y="-165.5" font-family="Helvetica,sans-Serif" font-size="10.00">INMOST::enhanced_multivar</text>
<text text-anchor="middle" x="248.5" y="-154.5" font-family="Helvetica,sans-Serif" font-size="10.00">_expression::operator+=</text>
</a>
</g>
</g>
<!-- Node1&#45;&gt;Node10 -->
<g id="edge9" class="edge"><title>Node1&#45;&gt;Node10</title>
<path fill="none" stroke="midnightblue" d="M85.5574,-270.058C104.098,-246.142 135.822,-209.507 171,-187.5 177.041,-183.721 183.712,-180.455 190.52,-177.648"/>
<polygon fill="midnightblue" stroke="midnightblue" points="82.6021,-268.163 79.3412,-278.243 88.1767,-272.396 82.6021,-268.163"/>
</g>
<!-- Node11 -->
<g id="node11" class="node"><title>Node11</title>
<g id="a_node11"><a xlink:href="class_i_n_m_o_s_t_1_1enhanced__multivar__expression.html#ac8e90e11bf754d4cc9c200711aeea4f7" target="_top" xlink:title="INMOST::enhanced_multivar\l_expression::operator&#45;=">
<polygon fill="none" stroke="black" points="178.5,-98.5 178.5,-128.5 318.5,-128.5 318.5,-98.5 178.5,-98.5"/>
<text text-anchor="start" x="186.5" y="-116.5" font-family="Helvetica,sans-Serif" font-size="10.00">INMOST::enhanced_multivar</text>
<text text-anchor="middle" x="248.5" y="-105.5" font-family="Helvetica,sans-Serif" font-size="10.00">_expression::operator&#45;=</text>
</a>
</g>
</g>
<!-- Node1&#45;&gt;Node11 -->
<g id="edge10" class="edge"><title>Node1&#45;&gt;Node11</title>
<path fill="none" stroke="midnightblue" d="M78.4286,-269.019C93.4737,-234.916 125.226,-173.384 171,-138.5 176.112,-134.604 181.857,-131.301 187.842,-128.504"/>
<polygon fill="midnightblue" stroke="midnightblue" points="75.1886,-267.694 74.4642,-278.264 81.6221,-270.453 75.1886,-267.694"/>
</g>
<!-- Node12 -->
<g id="node12" class="node"><title>Node12</title>
<g id="a_node12"><a xlink:href="class_i_n_m_o_s_t_1_1enhanced__multivar__expression.html#a97c2fa6cfb8896e0b16d71db17c22d81" target="_top" xlink:title="INMOST::enhanced_multivar\l_expression::operator*=">
<polygon fill="none" stroke="black" points="178.5,-49.5 178.5,-79.5 318.5,-79.5 318.5,-49.5 178.5,-49.5"/>
<text text-anchor="start" x="186.5" y="-67.5" font-family="Helvetica,sans-Serif" font-size="10.00">INMOST::enhanced_multivar</text>
<text text-anchor="middle" x="248.5" y="-56.5" font-family="Helvetica,sans-Serif" font-size="10.00">_expression::operator*=</text>
</a>
</g>
</g>
<!-- Node1&#45;&gt;Node12 -->
<g id="edge11" class="edge"><title>Node1&#45;&gt;Node12</title>
<path fill="none" stroke="midnightblue" d="M74.304,-268.611C85.5536,-225.824 114.358,-138.237 171,-89.5 175.448,-85.6724 180.496,-82.4279 185.827,-79.678"/>
<polygon fill="midnightblue" stroke="midnightblue" points="70.8686,-267.92 71.8159,-278.473 77.6559,-269.633 70.8686,-267.92"/>
</g>
<!-- Node13 -->
<g id="node13" class="node"><title>Node13</title>
<g id="a_node13"><a xlink:href="class_i_n_m_o_s_t_1_1enhanced__multivar__expression.html#a17b17b1df743295e60b688d2cf0c8382" target="_top" xlink:title="INMOST::enhanced_multivar\l_expression::operator/=">
<polygon fill="none" stroke="black" points="178.5,-0.5 178.5,-30.5 318.5,-30.5 318.5,-0.5 178.5,-0.5"/>
<text text-anchor="start" x="186.5" y="-18.5" font-family="Helvetica,sans-Serif" font-size="10.00">INMOST::enhanced_multivar</text>
<text text-anchor="middle" x="248.5" y="-7.5" font-family="Helvetica,sans-Serif" font-size="10.00">_expression::operator/=</text>
</a>
</g>
</g>
<!-- Node1&#45;&gt;Node13 -->
<g id="edge12" class="edge"><title>Node1&#45;&gt;Node13</title>
<path fill="none" stroke="midnightblue" d="M71.6564,-268.13C79.2856,-217.551 103.375,-103.609 171,-40.5 175.188,-36.5915 179.997,-33.2937 185.121,-30.5112"/>
<polygon fill="midnightblue" stroke="midnightblue" points="68.1678,-267.804 70.2322,-278.195 75.0988,-268.784 68.1678,-267.804"/>
</g>
</g>
</svg>
