<?xml version="1.0" encoding="UTF-8" standalone="no"?>
<!DOCTYPE svg PUBLIC "-//W3C//DTD SVG 1.1//EN"
 "http://www.w3.org/Graphics/SVG/1.1/DTD/svg11.dtd">
<!-- Generated by graphviz version 2.38.0 (20140413.2041)
 -->
<!-- Title: INMOST::Storage::GetDataCapacity Pages: 1 -->
<svg width="343pt" height="104pt"
 viewBox="0.00 0.00 343.00 104.00" xmlns="http://www.w3.org/2000/svg" xmlns:xlink="http://www.w3.org/1999/xlink">
<g id="graph0" class="graph" transform="scale(1 1) rotate(0) translate(4 100)">
<title>INMOST::Storage::GetDataCapacity</title>
<!-- Node1 -->
<g id="node1" class="node"><title>Node1</title>
<polygon fill="#bfbfbf" stroke="black" points="0,-33 0,-63 135,-63 135,-33 0,-33"/>
<text text-anchor="start" x="8" y="-51" font-family="Helvetica,sans-Serif" font-size="10.00">INMOST::Storage::GetData</text>
<text text-anchor="middle" x="67.5" y="-40" font-family="Helvetica,sans-Serif" font-size="10.00">Capacity</text>
</g>
<!-- Node2 -->
<g id="node2" class="node"><title>Node2</title>
<g id="a_node2"><a xlink:href="class_i_n_m_o_s_t_1_1_storage.html#a20d218fc89f75ca8534707b4f697173e" target="_top" xlink:title="INMOST::Storage::GetMeshLink">
<polygon fill="none" stroke="black" points="174.5,-76.5 174.5,-95.5 331.5,-95.5 331.5,-76.5 174.5,-76.5"/>
<text text-anchor="middle" x="253" y="-83.5" font-family="Helvetica,sans-Serif" font-size="10.00">INMOST::Storage::GetMeshLink</text>
</a>
</g>
</g>
<!-- Node1&#45;&gt;Node2 -->
<g id="edge1" class="edge"><title>Node1&#45;&gt;Node2</title>
<path fill="none" stroke="midnightblue" d="M135.007,-61.7726C155.096,-65.9327 176.935,-70.4553 196.247,-74.4543"/>
<polygon fill="midnightblue" stroke="midnightblue" points="195.59,-77.8925 206.092,-76.4931 197.009,-71.038 195.59,-77.8925"/>
</g>
<!-- Node3 -->
<g id="node3" class="node"><title>Node3</title>
<g id="a_node3"><a xlink:href="class_i_n_m_o_s_t_1_1_mesh.html#ad63b699b72fe2c4af6f8b4004707e46c" target="_top" xlink:title="INMOST::Mesh::GetDataCapacity">
<polygon fill="none" stroke="black" points="171,-38.5 171,-57.5 335,-57.5 335,-38.5 171,-38.5"/>
<text text-anchor="middle" x="253" y="-45.5" font-family="Helvetica,sans-Serif" font-size="10.00">INMOST::Mesh::GetDataCapacity</text>
</a>
</g>
</g>
<!-- Node1&#45;&gt;Node3 -->
<g id="edge2" class="edge"><title>Node1&#45;&gt;Node3</title>
<path fill="none" stroke="midnightblue" d="M135.007,-48C143.338,-48 151.969,-48 160.596,-48"/>
<polygon fill="midnightblue" stroke="midnightblue" points="160.704,-51.5001 170.704,-48 160.704,-44.5001 160.704,-51.5001"/>
</g>
<!-- Node4 -->
<g id="node4" class="node"><title>Node4</title>
<g id="a_node4"><a xlink:href="class_i_n_m_o_s_t_1_1_storage.html#ac79e3f3664b2ff21892f37bce0caa0e0" target="_top" xlink:title="INMOST::Storage::GetHandle">
<polygon fill="none" stroke="black" points="180.5,-0.5 180.5,-19.5 325.5,-19.5 325.5,-0.5 180.5,-0.5"/>
<text text-anchor="middle" x="253" y="-7.5" font-family="Helvetica,sans-Serif" font-size="10.00">INMOST::Storage::GetHandle</text>
</a>
</g>
</g>
<!-- Node1&#45;&gt;Node4 -->
<g id="edge3" class="edge"><title>Node1&#45;&gt;Node4</title>
<path fill="none" stroke="midnightblue" d="M135.007,-34.2274C155.096,-30.0673 176.935,-25.5447 196.247,-21.5457"/>
<polygon fill="midnightblue" stroke="midnightblue" points="197.009,-24.962 206.092,-19.5069 195.59,-18.1075 197.009,-24.962"/>
</g>
</g>
</svg>
