<?xml version="1.0" encoding="UTF-8" standalone="no"?>
<!DOCTYPE svg PUBLIC "-//W3C//DTD SVG 1.1//EN"
 "http://www.w3.org/Graphics/SVG/1.1/DTD/svg11.dtd">
<!-- Generated by graphviz version 2.38.0 (20140413.2041)
 -->
<!-- Title: INMOST::Mesh::IntegerDF Pages: 1 -->
<svg width="357pt" height="78pt"
 viewBox="0.00 0.00 357.00 77.50" xmlns="http://www.w3.org/2000/svg" xmlns:xlink="http://www.w3.org/1999/xlink">
<g id="graph0" class="graph" transform="scale(1 1) rotate(0) translate(4 73.5)">
<title>INMOST::Mesh::IntegerDF</title>
<!-- Node1 -->
<g id="node1" class="node"><title>Node1</title>
<polygon fill="#bfbfbf" stroke="black" points="0,-22.5 0,-41.5 131,-41.5 131,-22.5 0,-22.5"/>
<text text-anchor="middle" x="65.5" y="-29.5" font-family="Helvetica,sans-Serif" font-size="10.00">INMOST::Mesh::IntegerDF</text>
</g>
<!-- Node2 -->
<g id="node2" class="node"><title>Node2</title>
<g id="a_node2"><a xlink:href="class_i_n_m_o_s_t_1_1_mesh_1_1_integer_d_f_comparator.html#afff0d1793113eb0d1a8f90e98d5c118a" target="_top" xlink:title="INMOST::Mesh::IntegerDFComparator\l::operator()">
<polygon fill="none" stroke="black" points="167,-39 167,-69 349,-69 349,-39 167,-39"/>
<text text-anchor="start" x="175" y="-57" font-family="Helvetica,sans-Serif" font-size="10.00">INMOST::Mesh::IntegerDFComparator</text>
<text text-anchor="middle" x="258" y="-46" font-family="Helvetica,sans-Serif" font-size="10.00">::operator()</text>
</a>
</g>
</g>
<!-- Node1&#45;&gt;Node2 -->
<g id="edge1" class="edge"><title>Node1&#45;&gt;Node2</title>
<path fill="none" stroke="midnightblue" d="M141.321,-40.6408C149.674,-41.6054 158.247,-42.5954 166.765,-43.5792"/>
<polygon fill="midnightblue" stroke="midnightblue" points="141.596,-37.1493 131.26,-39.4789 140.793,-44.1031 141.596,-37.1493"/>
</g>
<!-- Node3 -->
<g id="node3" class="node"><title>Node3</title>
<g id="a_node3"><a xlink:href="class_i_n_m_o_s_t_1_1_storage.html#aaab24e29a2a39ed14050f15ec0e555c2" target="_top" xlink:title="INMOST::Storage::IntegerDF">
<polygon fill="none" stroke="black" points="187.5,-0.5 187.5,-19.5 328.5,-19.5 328.5,-0.5 187.5,-0.5"/>
<text text-anchor="middle" x="258" y="-7.5" font-family="Helvetica,sans-Serif" font-size="10.00">INMOST::Storage::IntegerDF</text>
</a>
</g>
</g>
<!-- Node1&#45;&gt;Node3 -->
<g id="edge2" class="edge"><title>Node1&#45;&gt;Node3</title>
<path fill="none" stroke="midnightblue" d="M141.545,-23.3334C156.591,-21.5958 172.342,-19.7767 187.202,-18.0607"/>
<polygon fill="midnightblue" stroke="midnightblue" points="140.793,-19.8969 131.26,-24.5211 141.596,-26.8507 140.793,-19.8969"/>
</g>
</g>
</svg>
