<?xml version="1.0" encoding="UTF-8" standalone="no"?>
<!DOCTYPE svg PUBLIC "-//W3C//DTD SVG 1.1//EN"
 "http://www.w3.org/Graphics/SVG/1.1/DTD/svg11.dtd">
<!-- Generated by graphviz version 2.38.0 (20140413.2041)
 -->
<!-- Title: INMOST::Storage::Real Pages: 1 -->
<svg width="320pt" height="104pt"
 viewBox="0.00 0.00 320.00 104.00" xmlns="http://www.w3.org/2000/svg" xmlns:xlink="http://www.w3.org/1999/xlink">
<g id="graph0" class="graph" transform="scale(1 1) rotate(0) translate(4 100)">
<title>INMOST::Storage::Real</title>
<!-- Node1 -->
<g id="node1" class="node"><title>Node1</title>
<polygon fill="#bfbfbf" stroke="black" points="0,-38.5 0,-57.5 119,-57.5 119,-38.5 0,-38.5"/>
<text text-anchor="middle" x="59.5" y="-45.5" font-family="Helvetica,sans-Serif" font-size="10.00">INMOST::Storage::Real</text>
</g>
<!-- Node2 -->
<g id="node2" class="node"><title>Node2</title>
<g id="a_node2"><a xlink:href="class_i_n_m_o_s_t_1_1_storage.html#a20d218fc89f75ca8534707b4f697173e" target="_top" xlink:title="INMOST::Storage::GetMeshLink">
<polygon fill="none" stroke="black" points="155,-76.5 155,-95.5 312,-95.5 312,-76.5 155,-76.5"/>
<text text-anchor="middle" x="233.5" y="-83.5" font-family="Helvetica,sans-Serif" font-size="10.00">INMOST::Storage::GetMeshLink</text>
</a>
</g>
</g>
<!-- Node1&#45;&gt;Node2 -->
<g id="edge1" class="edge"><title>Node1&#45;&gt;Node2</title>
<path fill="none" stroke="midnightblue" d="M103.903,-57.589C126.907,-62.6713 155.351,-68.9554 179.634,-74.3203"/>
<polygon fill="midnightblue" stroke="midnightblue" points="178.89,-77.7402 189.409,-76.4799 180.4,-70.905 178.89,-77.7402"/>
</g>
<!-- Node3 -->
<g id="node3" class="node"><title>Node3</title>
<g id="a_node3"><a xlink:href="class_i_n_m_o_s_t_1_1_mesh.html#afa084c637bc9f6850ed77fbb7778d404" target="_top" xlink:title="INMOST::Mesh::Real">
<polygon fill="none" stroke="black" points="179,-38.5 179,-57.5 288,-57.5 288,-38.5 179,-38.5"/>
<text text-anchor="middle" x="233.5" y="-45.5" font-family="Helvetica,sans-Serif" font-size="10.00">INMOST::Mesh::Real</text>
</a>
</g>
</g>
<!-- Node1&#45;&gt;Node3 -->
<g id="edge2" class="edge"><title>Node1&#45;&gt;Node3</title>
<path fill="none" stroke="midnightblue" d="M119.212,-48C135.098,-48 152.371,-48 168.53,-48"/>
<polygon fill="midnightblue" stroke="midnightblue" points="168.963,-51.5001 178.963,-48 168.963,-44.5001 168.963,-51.5001"/>
</g>
<!-- Node4 -->
<g id="node4" class="node"><title>Node4</title>
<g id="a_node4"><a xlink:href="class_i_n_m_o_s_t_1_1_storage.html#ac79e3f3664b2ff21892f37bce0caa0e0" target="_top" xlink:title="INMOST::Storage::GetHandle">
<polygon fill="none" stroke="black" points="161,-0.5 161,-19.5 306,-19.5 306,-0.5 161,-0.5"/>
<text text-anchor="middle" x="233.5" y="-7.5" font-family="Helvetica,sans-Serif" font-size="10.00">INMOST::Storage::GetHandle</text>
</a>
</g>
</g>
<!-- Node1&#45;&gt;Node4 -->
<g id="edge3" class="edge"><title>Node1&#45;&gt;Node4</title>
<path fill="none" stroke="midnightblue" d="M103.903,-38.411C126.907,-33.3287 155.351,-27.0446 179.634,-21.6797"/>
<polygon fill="midnightblue" stroke="midnightblue" points="180.4,-25.095 189.409,-19.5201 178.89,-18.2598 180.4,-25.095"/>
</g>
</g>
</svg>
