<?xml version="1.0" encoding="UTF-8" standalone="no"?>
<!DOCTYPE svg PUBLIC "-//W3C//DTD SVG 1.1//EN"
 "http://www.w3.org/Graphics/SVG/1.1/DTD/svg11.dtd">
<!-- Generated by graphviz version 2.38.0 (20140413.2041)
 -->
<!-- Title: INMOST::Sparse::RowMerger Pages: 1 -->
<svg width="157pt" height="358pt"
 viewBox="0.00 0.00 157.00 358.00" xmlns="http://www.w3.org/2000/svg" xmlns:xlink="http://www.w3.org/1999/xlink">
<g id="graph0" class="graph" transform="scale(1 1) rotate(0) translate(4 354)">
<title>INMOST::Sparse::RowMerger</title>
<!-- Node1 -->
<g id="node1" class="node"><title>Node1</title>
<polygon fill="#bfbfbf" stroke="black" points="2,-0.5 2,-233.5 147,-233.5 147,-0.5 2,-0.5"/>
<text text-anchor="middle" x="74.5" y="-221.5" font-family="Helvetica,sans-Serif" font-size="10.00">INMOST::Sparse::RowMerger</text>
<polyline fill="none" stroke="black" points="2,-214.5 147,-214.5 "/>
<text text-anchor="middle" x="74.5" y="-202.5" font-family="Helvetica,sans-Serif" font-size="10.00"> </text>
<polyline fill="none" stroke="black" points="2,-195.5 147,-195.5 "/>
<text text-anchor="start" x="10" y="-183.5" font-family="Helvetica,sans-Serif" font-size="10.00">+ RowMerger()</text>
<text text-anchor="start" x="10" y="-172.5" font-family="Helvetica,sans-Serif" font-size="10.00">+ RowMerger()</text>
<text text-anchor="start" x="10" y="-161.5" font-family="Helvetica,sans-Serif" font-size="10.00">+ RowMerger()</text>
<text text-anchor="start" x="10" y="-150.5" font-family="Helvetica,sans-Serif" font-size="10.00">+ ~RowMerger()</text>
<text text-anchor="start" x="10" y="-139.5" font-family="Helvetica,sans-Serif" font-size="10.00">+ Resize()</text>
<text text-anchor="start" x="10" y="-128.5" font-family="Helvetica,sans-Serif" font-size="10.00">+ Resize()</text>
<text text-anchor="start" x="10" y="-117.5" font-family="Helvetica,sans-Serif" font-size="10.00">+ Clear()</text>
<text text-anchor="start" x="10" y="-106.5" font-family="Helvetica,sans-Serif" font-size="10.00">+ PushRow()</text>
<text text-anchor="start" x="10" y="-95.5" font-family="Helvetica,sans-Serif" font-size="10.00">+ AddRow()</text>
<text text-anchor="start" x="10" y="-84.5" font-family="Helvetica,sans-Serif" font-size="10.00">+ Multiply()</text>
<text text-anchor="start" x="10" y="-73.5" font-family="Helvetica,sans-Serif" font-size="10.00">+ RetriveRow()</text>
<text text-anchor="start" x="10" y="-62.5" font-family="Helvetica,sans-Serif" font-size="10.00">+ Size()</text>
<text text-anchor="start" x="10" y="-51.5" font-family="Helvetica,sans-Serif" font-size="10.00">+ operator[]()</text>
<text text-anchor="start" x="10" y="-40.5" font-family="Helvetica,sans-Serif" font-size="10.00">+ operator[]()</text>
<text text-anchor="start" x="10" y="-29.5" font-family="Helvetica,sans-Serif" font-size="10.00">+ Merge()</text>
<text text-anchor="start" x="10" y="-18.5" font-family="Helvetica,sans-Serif" font-size="10.00">+ Begin()</text>
<text text-anchor="start" x="10" y="-7.5" font-family="Helvetica,sans-Serif" font-size="10.00">+ End()</text>
</g>
<!-- Node2 -->
<g id="node2" class="node"><title>Node2</title>
<polygon fill="none" stroke="#bfbfbf" points="0,-292.5 0,-349.5 149,-349.5 149,-292.5 0,-292.5"/>
<text text-anchor="middle" x="74.5" y="-337.5" font-family="Helvetica,sans-Serif" font-size="10.00">INMOST_DATA_ENUM_TYPE</text>
<polyline fill="none" stroke="#bfbfbf" points="0,-330.5 149,-330.5 "/>
<text text-anchor="middle" x="74.5" y="-318.5" font-family="Helvetica,sans-Serif" font-size="10.00"> </text>
<polyline fill="none" stroke="#bfbfbf" points="0,-311.5 149,-311.5 "/>
<text text-anchor="middle" x="74.5" y="-299.5" font-family="Helvetica,sans-Serif" font-size="10.00"> </text>
</g>
<!-- Node2&#45;&gt;Node1 -->
<g id="edge1" class="edge"><title>Node2&#45;&gt;Node1</title>
<path fill="none" stroke="#404040" d="M74.5,-292.336C74.5,-279.519 74.5,-263.282 74.5,-245.899"/>
<polygon fill="none" stroke="#404040" points="74.5001,-245.709 70.5,-239.709 74.5,-233.709 78.5,-239.709 74.5001,-245.709"/>
<text text-anchor="middle" x="94.5" y="-266" font-family="Helvetica,sans-Serif" font-size="10.00"> +EOL</text>
<text text-anchor="middle" x="94.5" y="-255" font-family="Helvetica,sans-Serif" font-size="10.00">+UNDEF</text>
</g>
</g>
</svg>
