<?xml version="1.0" encoding="UTF-8" standalone="no"?>
<!DOCTYPE svg PUBLIC "-//W3C//DTD SVG 1.1//EN"
 "http://www.w3.org/Graphics/SVG/1.1/DTD/svg11.dtd">
<!-- Generated by graphviz version 2.38.0 (20140413.2041)
 -->
<!-- Title: INMOST::Sparse::Row::Zero Pages: 1 -->
<svg width="459pt" height="78pt"
 viewBox="0.00 0.00 459.00 77.50" xmlns="http://www.w3.org/2000/svg" xmlns:xlink="http://www.w3.org/1999/xlink">
<g id="graph0" class="graph" transform="scale(1 1) rotate(0) translate(4 73.5)">
<title>INMOST::Sparse::Row::Zero</title>
<!-- Node1 -->
<g id="node1" class="node"><title>Node1</title>
<polygon fill="#bfbfbf" stroke="black" points="0,-17 0,-47 115,-47 115,-17 0,-17"/>
<text text-anchor="start" x="8" y="-35" font-family="Helvetica,sans-Serif" font-size="10.00">INMOST::Sparse::Row</text>
<text text-anchor="middle" x="57.5" y="-24" font-family="Helvetica,sans-Serif" font-size="10.00">::Zero</text>
</g>
<!-- Node2 -->
<g id="node2" class="node"><title>Node2</title>
<g id="a_node2"><a xlink:href="class_i_n_m_o_s_t_1_1_sparse_1_1_row.html#ae151ff1b4c953a41174aaf5a4261fafa" target="_top" xlink:title="INMOST::Sparse::Row\l::Begin">
<polygon fill="none" stroke="black" points="162.5,-39 162.5,-69 277.5,-69 277.5,-39 162.5,-39"/>
<text text-anchor="start" x="170.5" y="-57" font-family="Helvetica,sans-Serif" font-size="10.00">INMOST::Sparse::Row</text>
<text text-anchor="middle" x="220" y="-46" font-family="Helvetica,sans-Serif" font-size="10.00">::Begin</text>
</a>
</g>
</g>
<!-- Node1&#45;&gt;Node2 -->
<g id="edge1" class="edge"><title>Node1&#45;&gt;Node2</title>
<path fill="none" stroke="midnightblue" d="M115.086,-39.7564C127.073,-41.3994 139.833,-43.1484 152.159,-44.838"/>
<polygon fill="midnightblue" stroke="midnightblue" points="152.001,-48.349 162.384,-46.2395 152.952,-41.4138 152.001,-48.349"/>
</g>
<!-- Node4 -->
<g id="node4" class="node"><title>Node4</title>
<g id="a_node4"><a xlink:href="class_i_n_m_o_s_t_1_1_sparse_1_1_row.html#a8f933f39bae05075356ab209eafcc47a" target="_top" xlink:title="INMOST::Sparse::Row::End">
<polygon fill="none" stroke="black" points="151,-0.5 151,-19.5 289,-19.5 289,-0.5 151,-0.5"/>
<text text-anchor="middle" x="220" y="-7.5" font-family="Helvetica,sans-Serif" font-size="10.00">INMOST::Sparse::Row::End</text>
</a>
</g>
</g>
<!-- Node1&#45;&gt;Node4 -->
<g id="edge3" class="edge"><title>Node1&#45;&gt;Node4</title>
<path fill="none" stroke="midnightblue" d="M115.086,-24.2436C123.389,-23.1055 132.064,-21.9165 140.708,-20.7316"/>
<polygon fill="midnightblue" stroke="midnightblue" points="141.385,-24.1716 150.817,-19.3459 140.435,-17.2365 141.385,-24.1716"/>
</g>
<!-- Node3 -->
<g id="node3" class="node"><title>Node3</title>
<g id="a_node3"><a xlink:href="class_i_n_m_o_s_t_1_1dynarray.html#a95d4cabcea41ee216d2ccd310d04cd61" target="_top" xlink:title="INMOST::dynarray::begin">
<polygon fill="none" stroke="black" points="325,-44.5 325,-63.5 451,-63.5 451,-44.5 325,-44.5"/>
<text text-anchor="middle" x="388" y="-51.5" font-family="Helvetica,sans-Serif" font-size="10.00">INMOST::dynarray::begin</text>
</a>
</g>
</g>
<!-- Node2&#45;&gt;Node3 -->
<g id="edge2" class="edge"><title>Node2&#45;&gt;Node3</title>
<path fill="none" stroke="midnightblue" d="M277.663,-54C289.551,-54 302.242,-54 314.613,-54"/>
<polygon fill="midnightblue" stroke="midnightblue" points="314.906,-57.5001 324.906,-54 314.906,-50.5001 314.906,-57.5001"/>
</g>
<!-- Node5 -->
<g id="node5" class="node"><title>Node5</title>
<g id="a_node5"><a xlink:href="class_i_n_m_o_s_t_1_1dynarray.html#ad3e9af27a79aa4c5a57635546091a33d" target="_top" xlink:title="INMOST::dynarray::end">
<polygon fill="none" stroke="black" points="328.5,-0.5 328.5,-19.5 447.5,-19.5 447.5,-0.5 328.5,-0.5"/>
<text text-anchor="middle" x="388" y="-7.5" font-family="Helvetica,sans-Serif" font-size="10.00">INMOST::dynarray::end</text>
</a>
</g>
</g>
<!-- Node4&#45;&gt;Node5 -->
<g id="edge4" class="edge"><title>Node4&#45;&gt;Node5</title>
<path fill="none" stroke="midnightblue" d="M289.477,-10C298.987,-10 308.76,-10 318.274,-10"/>
<polygon fill="midnightblue" stroke="midnightblue" points="318.473,-13.5001 328.473,-10 318.473,-6.5001 318.473,-13.5001"/>
</g>
</g>
</svg>
