<?xml version="1.0" encoding="UTF-8" standalone="no"?>
<!DOCTYPE svg PUBLIC "-//W3C//DTD SVG 1.1//EN"
 "http://www.w3.org/Graphics/SVG/1.1/DTD/svg11.dtd">
<!-- Generated by graphviz version 2.38.0 (20140413.2041)
 -->
<!-- Title: INMOST::dynamic_variable::dynamic_variable Pages: 1 -->
<svg width="298pt" height="186pt"
 viewBox="0.00 0.00 298.00 186.00" xmlns="http://www.w3.org/2000/svg" xmlns:xlink="http://www.w3.org/1999/xlink">
<g id="graph0" class="graph" transform="scale(1 1) rotate(0) translate(4 182)">
<title>INMOST::dynamic_variable::dynamic_variable</title>
<!-- Node1 -->
<g id="node1" class="node"><title>Node1</title>
<polygon fill="#bfbfbf" stroke="black" points="0,-73.5 0,-103.5 134,-103.5 134,-73.5 0,-73.5"/>
<text text-anchor="start" x="8" y="-91.5" font-family="Helvetica,sans-Serif" font-size="10.00">INMOST::dynamic_variable</text>
<text text-anchor="middle" x="67" y="-80.5" font-family="Helvetica,sans-Serif" font-size="10.00">::dynamic_variable</text>
</g>
<!-- Node2 -->
<g id="node2" class="node"><title>Node2</title>
<g id="a_node2"><a xlink:href="class_i_n_m_o_s_t_1_1_automatizator.html#aa345acdac952457bdfcd5364d5e1561f" target="_top" xlink:title="INMOST::Automatizator\l::GetDynamicMask">
<polygon fill="none" stroke="black" points="170,-147.5 170,-177.5 290,-177.5 290,-147.5 170,-147.5"/>
<text text-anchor="start" x="178" y="-165.5" font-family="Helvetica,sans-Serif" font-size="10.00">INMOST::Automatizator</text>
<text text-anchor="middle" x="230" y="-154.5" font-family="Helvetica,sans-Serif" font-size="10.00">::GetDynamicMask</text>
</a>
</g>
</g>
<!-- Node1&#45;&gt;Node2 -->
<g id="edge1" class="edge"><title>Node1&#45;&gt;Node2</title>
<path fill="none" stroke="midnightblue" d="M97.6453,-103.709C117.863,-113.914 145.341,-127.457 170,-138.5 173.643,-140.131 177.431,-141.78 181.252,-143.408"/>
<polygon fill="midnightblue" stroke="midnightblue" points="180.175,-146.752 190.75,-147.393 182.882,-140.297 180.175,-146.752"/>
</g>
<!-- Node3 -->
<g id="node3" class="node"><title>Node3</title>
<g id="a_node3"><a xlink:href="class_i_n_m_o_s_t_1_1_automatizator.html#a7fc404b01b46043c1721319df44935c1" target="_top" xlink:title="INMOST::Automatizator\l::GetDynamicValueTag">
<polygon fill="none" stroke="black" points="170,-98.5 170,-128.5 290,-128.5 290,-98.5 170,-98.5"/>
<text text-anchor="start" x="178" y="-116.5" font-family="Helvetica,sans-Serif" font-size="10.00">INMOST::Automatizator</text>
<text text-anchor="middle" x="230" y="-105.5" font-family="Helvetica,sans-Serif" font-size="10.00">::GetDynamicValueTag</text>
</a>
</g>
</g>
<!-- Node1&#45;&gt;Node3 -->
<g id="edge2" class="edge"><title>Node1&#45;&gt;Node3</title>
<path fill="none" stroke="midnightblue" d="M134.414,-98.8128C142.789,-100.113 151.374,-101.446 159.791,-102.753"/>
<polygon fill="midnightblue" stroke="midnightblue" points="159.531,-106.255 169.949,-104.331 160.605,-99.3376 159.531,-106.255"/>
</g>
<!-- Node4 -->
<g id="node4" class="node"><title>Node4</title>
<g id="a_node4"><a xlink:href="class_i_n_m_o_s_t_1_1_automatizator.html#a29ee1b26035909f21fbc8e9142f8c66e" target="_top" xlink:title="INMOST::Automatizator\l::GetDynamicIndexTag">
<polygon fill="none" stroke="black" points="170,-49.5 170,-79.5 290,-79.5 290,-49.5 170,-49.5"/>
<text text-anchor="start" x="178" y="-67.5" font-family="Helvetica,sans-Serif" font-size="10.00">INMOST::Automatizator</text>
<text text-anchor="middle" x="230" y="-56.5" font-family="Helvetica,sans-Serif" font-size="10.00">::GetDynamicIndexTag</text>
</a>
</g>
</g>
<!-- Node1&#45;&gt;Node4 -->
<g id="edge3" class="edge"><title>Node1&#45;&gt;Node4</title>
<path fill="none" stroke="midnightblue" d="M134.414,-78.5997C142.789,-77.3513 151.374,-76.0715 159.791,-74.8168"/>
<polygon fill="midnightblue" stroke="midnightblue" points="160.575,-78.2388 169.949,-73.3026 159.543,-71.3153 160.575,-78.2388"/>
</g>
<!-- Node5 -->
<g id="node5" class="node"><title>Node5</title>
<g id="a_node5"><a xlink:href="class_i_n_m_o_s_t_1_1_automatizator.html#a598fce631c693d1350b79b3da59a2303" target="_top" xlink:title="INMOST::Automatizator\l::GetStaticValueTag">
<polygon fill="none" stroke="black" points="170,-0.5 170,-30.5 290,-30.5 290,-0.5 170,-0.5"/>
<text text-anchor="start" x="178" y="-18.5" font-family="Helvetica,sans-Serif" font-size="10.00">INMOST::Automatizator</text>
<text text-anchor="middle" x="230" y="-7.5" font-family="Helvetica,sans-Serif" font-size="10.00">::GetStaticValueTag</text>
</a>
</g>
</g>
<!-- Node1&#45;&gt;Node5 -->
<g id="edge4" class="edge"><title>Node1&#45;&gt;Node5</title>
<path fill="none" stroke="midnightblue" d="M99.1037,-73.4774C119.233,-63.851 146.057,-51.2013 170,-40.5 174.342,-38.5594 178.879,-36.5698 183.425,-34.6016"/>
<polygon fill="midnightblue" stroke="midnightblue" points="184.902,-37.7766 192.709,-30.6144 182.139,-31.3446 184.902,-37.7766"/>
</g>
</g>
</svg>
