<?xml version="1.0" encoding="UTF-8" standalone="no"?>
<!DOCTYPE svg PUBLIC "-//W3C//DTD SVG 1.1//EN"
 "http://www.w3.org/Graphics/SVG/1.1/DTD/svg11.dtd">
<!-- Generated by graphviz version 2.38.0 (20140413.2041)
 -->
<!-- Title: INMOST::stencil_variable&lt; A &gt; Pages: 1 -->
<svg width="302pt" height="862pt"
 viewBox="0.00 0.00 302.00 862.00" xmlns="http://www.w3.org/2000/svg" xmlns:xlink="http://www.w3.org/1999/xlink">
<g id="graph0" class="graph" transform="scale(1 1) rotate(0) translate(4 858)">
<title>INMOST::stencil_variable&lt; A &gt;</title>
<!-- Node1 -->
<g id="node1" class="node"><title>Node1</title>
<polygon fill="#bfbfbf" stroke="black" points="42,-0.5 42,-145.5 192,-145.5 192,-0.5 42,-0.5"/>
<text text-anchor="middle" x="117" y="-133.5" font-family="Helvetica,sans-Serif" font-size="10.00">INMOST::stencil_variable&lt; A &gt;</text>
<polyline fill="none" stroke="black" points="42,-126.5 192,-126.5 "/>
<text text-anchor="middle" x="117" y="-114.5" font-family="Helvetica,sans-Serif" font-size="10.00"> </text>
<polyline fill="none" stroke="black" points="42,-107.5 192,-107.5 "/>
<text text-anchor="start" x="50" y="-95.5" font-family="Helvetica,sans-Serif" font-size="10.00">+ stencil_variable()</text>
<text text-anchor="start" x="50" y="-84.5" font-family="Helvetica,sans-Serif" font-size="10.00">+ stencil_variable()</text>
<text text-anchor="start" x="50" y="-73.5" font-family="Helvetica,sans-Serif" font-size="10.00">+ operator=()</text>
<text text-anchor="start" x="50" y="-62.5" font-family="Helvetica,sans-Serif" font-size="10.00">+ Value()</text>
<text text-anchor="start" x="50" y="-51.5" font-family="Helvetica,sans-Serif" font-size="10.00">+ Variable()</text>
<text text-anchor="start" x="50" y="-40.5" font-family="Helvetica,sans-Serif" font-size="10.00">+ Variable()</text>
<text text-anchor="start" x="50" y="-29.5" font-family="Helvetica,sans-Serif" font-size="10.00">+ operator[]()</text>
<text text-anchor="start" x="50" y="-18.5" font-family="Helvetica,sans-Serif" font-size="10.00">+ GetVariation()</text>
<text text-anchor="start" x="50" y="-7.5" font-family="Helvetica,sans-Serif" font-size="10.00">+ GetVariation()</text>
</g>
<!-- Node2 -->
<g id="node2" class="node"><title>Node2</title>
<g id="a_node2"><a xlink:href="class_i_n_m_o_s_t_1_1shell__dynamic__variable.html" target="_top" xlink:title="{INMOST::shell_dynamic\l_variable\&lt; stencil_expression\l\&lt; A::Var \&gt;, stencil_variable\&lt; A \&gt; \&gt;\n||+ Value()\l+ operator()()\l+ operator()()\l+ operator[]()\l+ GetVariation()\l+ GetVariation()\l}">
<polygon fill="none" stroke="black" points="33,-183.5 33,-317.5 201,-317.5 201,-183.5 33,-183.5"/>
<text text-anchor="start" x="41" y="-305.5" font-family="Helvetica,sans-Serif" font-size="10.00">INMOST::shell_dynamic</text>
<text text-anchor="start" x="41" y="-294.5" font-family="Helvetica,sans-Serif" font-size="10.00">_variable&lt; stencil_expression</text>
<text text-anchor="middle" x="117" y="-283.5" font-family="Helvetica,sans-Serif" font-size="10.00">&lt; A::Var &gt;, stencil_variable&lt; A &gt; &gt;</text>
<polyline fill="none" stroke="black" points="33,-276.5 201,-276.5 "/>
<text text-anchor="middle" x="117" y="-264.5" font-family="Helvetica,sans-Serif" font-size="10.00"> </text>
<polyline fill="none" stroke="black" points="33,-257.5 201,-257.5 "/>
<text text-anchor="start" x="41" y="-245.5" font-family="Helvetica,sans-Serif" font-size="10.00">+ Value()</text>
<text text-anchor="start" x="41" y="-234.5" font-family="Helvetica,sans-Serif" font-size="10.00">+ operator()()</text>
<text text-anchor="start" x="41" y="-223.5" font-family="Helvetica,sans-Serif" font-size="10.00">+ operator()()</text>
<text text-anchor="start" x="41" y="-212.5" font-family="Helvetica,sans-Serif" font-size="10.00">+ operator[]()</text>
<text text-anchor="start" x="41" y="-201.5" font-family="Helvetica,sans-Serif" font-size="10.00">+ GetVariation()</text>
<text text-anchor="start" x="41" y="-190.5" font-family="Helvetica,sans-Serif" font-size="10.00">+ GetVariation()</text>
</a>
</g>
</g>
<!-- Node2&#45;&gt;Node1 -->
<g id="edge1" class="edge"><title>Node2&#45;&gt;Node1</title>
<path fill="none" stroke="midnightblue" d="M117,-173.007C117,-163.942 117,-154.714 117,-145.719"/>
<polygon fill="none" stroke="midnightblue" points="113.5,-173.151 117,-183.151 120.5,-173.151 113.5,-173.151"/>
</g>
<!-- Node3 -->
<g id="node3" class="node"><title>Node3</title>
<g id="a_node3"><a xlink:href="class_i_n_m_o_s_t_1_1basic__dynamic__variable.html" target="_top" xlink:title="{INMOST::basic_dynamic\l_variable\&lt; stencil_expression\l\&lt; A::Var \&gt; \&gt;\n||+ Value()\l+ Variable()\l+ Variable()\l+ operator[]()\l+ GetVariation()\l+ GetVariation()\l}">
<polygon fill="none" stroke="black" points="0,-387.5 0,-521.5 144,-521.5 144,-387.5 0,-387.5"/>
<text text-anchor="start" x="8" y="-509.5" font-family="Helvetica,sans-Serif" font-size="10.00">INMOST::basic_dynamic</text>
<text text-anchor="start" x="8" y="-498.5" font-family="Helvetica,sans-Serif" font-size="10.00">_variable&lt; stencil_expression</text>
<text text-anchor="middle" x="72" y="-487.5" font-family="Helvetica,sans-Serif" font-size="10.00">&lt; A::Var &gt; &gt;</text>
<polyline fill="none" stroke="black" points="0,-480.5 144,-480.5 "/>
<text text-anchor="middle" x="72" y="-468.5" font-family="Helvetica,sans-Serif" font-size="10.00"> </text>
<polyline fill="none" stroke="black" points="0,-461.5 144,-461.5 "/>
<text text-anchor="start" x="8" y="-449.5" font-family="Helvetica,sans-Serif" font-size="10.00">+ Value()</text>
<text text-anchor="start" x="8" y="-438.5" font-family="Helvetica,sans-Serif" font-size="10.00">+ Variable()</text>
<text text-anchor="start" x="8" y="-427.5" font-family="Helvetica,sans-Serif" font-size="10.00">+ Variable()</text>
<text text-anchor="start" x="8" y="-416.5" font-family="Helvetica,sans-Serif" font-size="10.00">+ operator[]()</text>
<text text-anchor="start" x="8" y="-405.5" font-family="Helvetica,sans-Serif" font-size="10.00">+ GetVariation()</text>
<text text-anchor="start" x="8" y="-394.5" font-family="Helvetica,sans-Serif" font-size="10.00">+ GetVariation()</text>
</a>
</g>
</g>
<!-- Node3&#45;&gt;Node2 -->
<g id="edge2" class="edge"><title>Node3&#45;&gt;Node2</title>
<path fill="none" stroke="midnightblue" d="M88.9235,-377.532C93.2996,-357.889 97.976,-336.897 102.232,-317.791"/>
<polygon fill="none" stroke="midnightblue" points="85.4929,-376.836 86.7347,-387.358 92.3254,-378.358 85.4929,-376.836"/>
</g>
<!-- Node4 -->
<g id="node4" class="node"><title>Node4</title>
<g id="a_node4"><a xlink:href="class_i_n_m_o_s_t_1_1abstract__dynamic__variable.html" target="_top" xlink:title="{INMOST::abstract_dynamic\l_variable\n||+ Value()\l+ Variable()\l+ Variable()\l+ GetVariation()\l+ GetVariation()\l}">
<polygon fill="none" stroke="black" points="32.5,-741.5 32.5,-853.5 169.5,-853.5 169.5,-741.5 32.5,-741.5"/>
<text text-anchor="start" x="40.5" y="-841.5" font-family="Helvetica,sans-Serif" font-size="10.00">INMOST::abstract_dynamic</text>
<text text-anchor="middle" x="101" y="-830.5" font-family="Helvetica,sans-Serif" font-size="10.00">_variable</text>
<polyline fill="none" stroke="black" points="32.5,-823.5 169.5,-823.5 "/>
<text text-anchor="middle" x="101" y="-811.5" font-family="Helvetica,sans-Serif" font-size="10.00"> </text>
<polyline fill="none" stroke="black" points="32.5,-804.5 169.5,-804.5 "/>
<text text-anchor="start" x="40.5" y="-792.5" font-family="Helvetica,sans-Serif" font-size="10.00">+ Value()</text>
<text text-anchor="start" x="40.5" y="-781.5" font-family="Helvetica,sans-Serif" font-size="10.00">+ Variable()</text>
<text text-anchor="start" x="40.5" y="-770.5" font-family="Helvetica,sans-Serif" font-size="10.00">+ Variable()</text>
<text text-anchor="start" x="40.5" y="-759.5" font-family="Helvetica,sans-Serif" font-size="10.00">+ GetVariation()</text>
<text text-anchor="start" x="40.5" y="-748.5" font-family="Helvetica,sans-Serif" font-size="10.00">+ GetVariation()</text>
</a>
</g>
</g>
<!-- Node4&#45;&gt;Node3 -->
<g id="edge3" class="edge"><title>Node4&#45;&gt;Node3</title>
<path fill="none" stroke="midnightblue" d="M93.6695,-731.081C92.7261,-721.989 91.8086,-712.765 91,-704 85.3057,-642.28 80.0349,-571.824 76.4966,-521.733"/>
<polygon fill="none" stroke="midnightblue" points="90.213,-731.679 94.7411,-741.257 97.1745,-730.945 90.213,-731.679"/>
</g>
<!-- Node5 -->
<g id="node5" class="node"><title>Node5</title>
<g id="a_node5"><a xlink:href="class_i_n_m_o_s_t_1_1basic__dynamic__variable.html" target="_top" xlink:title="{INMOST::basic_dynamic\l_variable\&lt; VariableType \&gt;\n||+ Value()\l+ Variable()\l+ Variable()\l+ operator[]()\l+ GetVariation()\l+ GetVariation()\l}">
<polygon fill="none" stroke="black" points="100,-580.5 100,-703.5 228,-703.5 228,-580.5 100,-580.5"/>
<text text-anchor="start" x="108" y="-691.5" font-family="Helvetica,sans-Serif" font-size="10.00">INMOST::basic_dynamic</text>
<text text-anchor="middle" x="164" y="-680.5" font-family="Helvetica,sans-Serif" font-size="10.00">_variable&lt; VariableType &gt;</text>
<polyline fill="none" stroke="black" points="100,-673.5 228,-673.5 "/>
<text text-anchor="middle" x="164" y="-661.5" font-family="Helvetica,sans-Serif" font-size="10.00"> </text>
<polyline fill="none" stroke="black" points="100,-654.5 228,-654.5 "/>
<text text-anchor="start" x="108" y="-642.5" font-family="Helvetica,sans-Serif" font-size="10.00">+ Value()</text>
<text text-anchor="start" x="108" y="-631.5" font-family="Helvetica,sans-Serif" font-size="10.00">+ Variable()</text>
<text text-anchor="start" x="108" y="-620.5" font-family="Helvetica,sans-Serif" font-size="10.00">+ Variable()</text>
<text text-anchor="start" x="108" y="-609.5" font-family="Helvetica,sans-Serif" font-size="10.00">+ operator[]()</text>
<text text-anchor="start" x="108" y="-598.5" font-family="Helvetica,sans-Serif" font-size="10.00">+ GetVariation()</text>
<text text-anchor="start" x="108" y="-587.5" font-family="Helvetica,sans-Serif" font-size="10.00">+ GetVariation()</text>
</a>
</g>
</g>
<!-- Node4&#45;&gt;Node5 -->
<g id="edge5" class="edge"><title>Node4&#45;&gt;Node5</title>
<path fill="none" stroke="midnightblue" d="M127.549,-731.812C131.397,-722.438 135.345,-712.818 139.157,-703.53"/>
<polygon fill="none" stroke="midnightblue" points="124.303,-730.503 123.744,-741.083 130.779,-733.161 124.303,-730.503"/>
</g>
<!-- Node5&#45;&gt;Node3 -->
<g id="edge4" class="edge"><title>Node5&#45;&gt;Node3</title>
<path fill="none" stroke="orange" d="M113.322,-571.811C111.448,-568.542 109.663,-565.263 108,-562 101.575,-549.393 95.902,-535.384 91.0701,-521.78"/>
<polygon fill="orange" stroke="orange" points="110.336,-573.638 118.472,-580.425 116.345,-570.046 110.336,-573.638"/>
<text text-anchor="start" x="108" y="-554" font-family="Helvetica,sans-Serif" font-size="10.00"> &lt; stencil_expression</text>
<text text-anchor="middle" x="155" y="-543" font-family="Helvetica,sans-Serif" font-size="10.00">&lt; A::Var &gt; &gt;</text>
</g>
<!-- Node6 -->
<g id="node6" class="node"><title>Node6</title>
<g id="a_node6"><a xlink:href="class_i_n_m_o_s_t_1_1shell__dynamic__variable.html" target="_top" xlink:title="{INMOST::shell_dynamic\l_variable\&lt; VariableType,\l Derived \&gt;\n||+ Value()\l+ operator()()\l+ operator()()\l+ operator[]()\l+ GetVariation()\l+ GetVariation()\l}">
<polygon fill="none" stroke="black" points="162,-387.5 162,-521.5 284,-521.5 284,-387.5 162,-387.5"/>
<text text-anchor="start" x="170" y="-509.5" font-family="Helvetica,sans-Serif" font-size="10.00">INMOST::shell_dynamic</text>
<text text-anchor="start" x="170" y="-498.5" font-family="Helvetica,sans-Serif" font-size="10.00">_variable&lt; VariableType,</text>
<text text-anchor="middle" x="223" y="-487.5" font-family="Helvetica,sans-Serif" font-size="10.00"> Derived &gt;</text>
<polyline fill="none" stroke="black" points="162,-480.5 284,-480.5 "/>
<text text-anchor="middle" x="223" y="-468.5" font-family="Helvetica,sans-Serif" font-size="10.00"> </text>
<polyline fill="none" stroke="black" points="162,-461.5 284,-461.5 "/>
<text text-anchor="start" x="170" y="-449.5" font-family="Helvetica,sans-Serif" font-size="10.00">+ Value()</text>
<text text-anchor="start" x="170" y="-438.5" font-family="Helvetica,sans-Serif" font-size="10.00">+ operator()()</text>
<text text-anchor="start" x="170" y="-427.5" font-family="Helvetica,sans-Serif" font-size="10.00">+ operator()()</text>
<text text-anchor="start" x="170" y="-416.5" font-family="Helvetica,sans-Serif" font-size="10.00">+ operator[]()</text>
<text text-anchor="start" x="170" y="-405.5" font-family="Helvetica,sans-Serif" font-size="10.00">+ GetVariation()</text>
<text text-anchor="start" x="170" y="-394.5" font-family="Helvetica,sans-Serif" font-size="10.00">+ GetVariation()</text>
</a>
</g>
</g>
<!-- Node5&#45;&gt;Node6 -->
<g id="edge7" class="edge"><title>Node5&#45;&gt;Node6</title>
<path fill="none" stroke="midnightblue" d="M202.778,-570.818C203.938,-567.871 205.019,-564.925 206,-562 210.285,-549.218 213.504,-535.202 215.919,-521.656"/>
<polygon fill="none" stroke="midnightblue" points="199.48,-569.632 198.83,-580.207 205.933,-572.346 199.48,-569.632"/>
</g>
<!-- Node6&#45;&gt;Node2 -->
<g id="edge6" class="edge"><title>Node6&#45;&gt;Node2</title>
<path fill="none" stroke="orange" d="M183.559,-378.339C173.13,-358.464 161.949,-337.158 151.786,-317.791"/>
<polygon fill="orange" stroke="orange" points="180.546,-380.129 188.292,-387.358 186.744,-376.876 180.546,-380.129"/>
<text text-anchor="start" x="176" y="-361" font-family="Helvetica,sans-Serif" font-size="10.00"> &lt; stencil_expression</text>
<text text-anchor="start" x="176" y="-350" font-family="Helvetica,sans-Serif" font-size="10.00">&lt; A::Var &gt;, stencil_variable</text>
<text text-anchor="middle" x="235" y="-339" font-family="Helvetica,sans-Serif" font-size="10.00">&lt; A &gt; &gt;</text>
</g>
</g>
</svg>
