<?xml version="1.0" encoding="UTF-8" standalone="no"?>
<!DOCTYPE svg PUBLIC "-//W3C//DTD SVG 1.1//EN"
 "http://www.w3.org/Graphics/SVG/1.1/DTD/svg11.dtd">
<!-- Generated by graphviz version 2.38.0 (20140413.2041)
 -->
<!-- Title: INMOST::Storage::isValid Pages: 1 -->
<svg width="512pt" height="378pt"
 viewBox="0.00 0.00 512.00 378.00" xmlns="http://www.w3.org/2000/svg" xmlns:xlink="http://www.w3.org/1999/xlink">
<g id="graph0" class="graph" transform="scale(1 1) rotate(0) translate(4 374)">
<title>INMOST::Storage::isValid</title>
<!-- Node1 -->
<g id="node1" class="node"><title>Node1</title>
<polygon fill="#bfbfbf" stroke="black" points="0,-167 0,-186 128,-186 128,-167 0,-167"/>
<text text-anchor="middle" x="64" y="-174" font-family="Helvetica,sans-Serif" font-size="10.00">INMOST::Storage::isValid</text>
</g>
<!-- Node2 -->
<g id="node2" class="node"><title>Node2</title>
<g id="a_node2"><a xlink:href="class_i_n_m_o_s_t_1_1_mesh.html#a94963a0f3f1d80ee0785fb8ebd409339" target="_top" xlink:title="INMOST::Mesh::GetStatus">
<polygon fill="none" stroke="black" points="171.5,-300 171.5,-319 305.5,-319 305.5,-300 171.5,-300"/>
<text text-anchor="middle" x="238.5" y="-307" font-family="Helvetica,sans-Serif" font-size="10.00">INMOST::Mesh::GetStatus</text>
</a>
</g>
</g>
<!-- Node1&#45;&gt;Node2 -->
<g id="edge1" class="edge"><title>Node1&#45;&gt;Node2</title>
<path fill="none" stroke="midnightblue" d="M75.8603,-194.861C91.8786,-220.301 124.277,-265.908 164,-290.5 170.275,-294.385 177.323,-297.48 184.503,-299.944"/>
<polygon fill="midnightblue" stroke="midnightblue" points="78.7519,-192.881 70.542,-186.185 72.7838,-196.54 78.7519,-192.881"/>
</g>
<!-- Node3 -->
<g id="node3" class="node"><title>Node3</title>
<g id="a_node3"><a xlink:href="class_i_n_m_o_s_t_1_1_storage.html#a04201e9bd362d98f568664168cba71be" target="_top" xlink:title="Check if any data is associated with Tag. ">
<polygon fill="none" stroke="black" points="168.5,-262 168.5,-281 308.5,-281 308.5,-262 168.5,-262"/>
<text text-anchor="middle" x="238.5" y="-269" font-family="Helvetica,sans-Serif" font-size="10.00">INMOST::Storage::HaveData</text>
</a>
</g>
</g>
<!-- Node1&#45;&gt;Node3 -->
<g id="edge2" class="edge"><title>Node1&#45;&gt;Node3</title>
<path fill="none" stroke="midnightblue" d="M82.1716,-193.205C100.841,-210.473 132.277,-237.025 164,-252.5 171.818,-256.314 180.49,-259.424 189.057,-261.94"/>
<polygon fill="midnightblue" stroke="midnightblue" points="84.4381,-190.532 74.7624,-186.216 79.6346,-195.624 84.4381,-190.532"/>
</g>
<!-- Node4 -->
<g id="node4" class="node"><title>Node4</title>
<g id="a_node4"><a xlink:href="class_i_n_m_o_s_t_1_1_storage.html#a66b86d9ae28d429ff830735a63ecef4d" target="_top" xlink:title="INMOST::Storage::SetMarker">
<polygon fill="none" stroke="black" points="166.5,-224 166.5,-243 310.5,-243 310.5,-224 166.5,-224"/>
<text text-anchor="middle" x="238.5" y="-231" font-family="Helvetica,sans-Serif" font-size="10.00">INMOST::Storage::SetMarker</text>
</a>
</g>
</g>
<!-- Node1&#45;&gt;Node4 -->
<g id="edge3" class="edge"><title>Node1&#45;&gt;Node4</title>
<path fill="none" stroke="midnightblue" d="M97.4048,-190.007C116.58,-197.73 141.454,-207.284 164,-214.5 174.67,-217.915 186.357,-221.156 197.21,-223.964"/>
<polygon fill="midnightblue" stroke="midnightblue" points="98.5213,-186.683 87.9395,-186.158 95.8841,-193.167 98.5213,-186.683"/>
</g>
<!-- Node5 -->
<g id="node5" class="node"><title>Node5</title>
<g id="a_node5"><a xlink:href="class_i_n_m_o_s_t_1_1_storage.html#ad256a6f5101df9f507e359cdddef3a66" target="_top" xlink:title="INMOST::Storage::GetMarker">
<polygon fill="none" stroke="black" points="166,-186 166,-205 311,-205 311,-186 166,-186"/>
<text text-anchor="middle" x="238.5" y="-193" font-family="Helvetica,sans-Serif" font-size="10.00">INMOST::Storage::GetMarker</text>
</a>
</g>
</g>
<!-- Node1&#45;&gt;Node5 -->
<g id="edge4" class="edge"><title>Node1&#45;&gt;Node5</title>
<path fill="none" stroke="midnightblue" d="M138.397,-184.584C147.475,-185.584 156.747,-186.605 165.798,-187.602"/>
<polygon fill="midnightblue" stroke="midnightblue" points="138.576,-181.083 128.253,-183.467 137.81,-188.041 138.576,-181.083"/>
</g>
<!-- Node13 -->
<g id="node13" class="node"><title>Node13</title>
<g id="a_node13"><a xlink:href="class_i_n_m_o_s_t_1_1_storage.html#aeae593e88e3269f8590742a9e95d1813" target="_top" xlink:title="INMOST::Storage::RemMarker">
<polygon fill="none" stroke="black" points="164,-148 164,-167 313,-167 313,-148 164,-148"/>
<text text-anchor="middle" x="238.5" y="-155" font-family="Helvetica,sans-Serif" font-size="10.00">INMOST::Storage::RemMarker</text>
</a>
</g>
</g>
<!-- Node1&#45;&gt;Node13 -->
<g id="edge12" class="edge"><title>Node1&#45;&gt;Node13</title>
<path fill="none" stroke="midnightblue" d="M138.386,-168.417C146.778,-167.493 155.337,-166.55 163.735,-165.625"/>
<polygon fill="midnightblue" stroke="midnightblue" points="137.81,-164.959 128.253,-169.533 138.576,-171.917 137.81,-164.959"/>
</g>
<!-- Node14 -->
<g id="node14" class="node"><title>Node14</title>
<g id="a_node14"><a xlink:href="class_i_n_m_o_s_t_1_1_storage.html#a0e061a35dc4196b9bb88bef49c882c08" target="_top" xlink:title="INMOST::Storage::SetPrivate\lMarker">
<polygon fill="none" stroke="black" points="167,-98.5 167,-128.5 310,-128.5 310,-98.5 167,-98.5"/>
<text text-anchor="start" x="175" y="-116.5" font-family="Helvetica,sans-Serif" font-size="10.00">INMOST::Storage::SetPrivate</text>
<text text-anchor="middle" x="238.5" y="-105.5" font-family="Helvetica,sans-Serif" font-size="10.00">Marker</text>
</a>
</g>
</g>
<!-- Node1&#45;&gt;Node14 -->
<g id="edge13" class="edge"><title>Node1&#45;&gt;Node14</title>
<path fill="none" stroke="midnightblue" d="M98.7711,-163.166C117.852,-155.726 142.182,-146.395 164,-138.5 173.125,-135.198 182.932,-131.776 192.314,-128.562"/>
<polygon fill="midnightblue" stroke="midnightblue" points="97.35,-159.964 89.3127,-166.867 99.9006,-166.483 97.35,-159.964"/>
</g>
<!-- Node15 -->
<g id="node15" class="node"><title>Node15</title>
<g id="a_node15"><a xlink:href="class_i_n_m_o_s_t_1_1_storage.html#ae55c21c60460d82e202669890cbb05ce" target="_top" xlink:title="INMOST::Storage::GetPrivate\lMarker">
<polygon fill="none" stroke="black" points="166.5,-49.5 166.5,-79.5 310.5,-79.5 310.5,-49.5 166.5,-49.5"/>
<text text-anchor="start" x="174.5" y="-67.5" font-family="Helvetica,sans-Serif" font-size="10.00">INMOST::Storage::GetPrivate</text>
<text text-anchor="middle" x="238.5" y="-56.5" font-family="Helvetica,sans-Serif" font-size="10.00">Marker</text>
</a>
</g>
</g>
<!-- Node1&#45;&gt;Node15 -->
<g id="edge14" class="edge"><title>Node1&#45;&gt;Node15</title>
<path fill="none" stroke="midnightblue" d="M80.1749,-159.272C98.3295,-139.622 130.495,-107.734 164,-88.5 169.821,-85.1585 176.172,-82.2067 182.623,-79.62"/>
<polygon fill="midnightblue" stroke="midnightblue" points="77.4099,-157.111 73.2891,-166.872 82.5973,-161.811 77.4099,-157.111"/>
</g>
<!-- Node16 -->
<g id="node16" class="node"><title>Node16</title>
<g id="a_node16"><a xlink:href="class_i_n_m_o_s_t_1_1_storage.html#a7eb821d11fb14f7c7c86c93c57587666" target="_top" xlink:title="INMOST::Storage::RemPrivate\lMarker">
<polygon fill="none" stroke="black" points="164,-0.5 164,-30.5 313,-30.5 313,-0.5 164,-0.5"/>
<text text-anchor="start" x="172" y="-18.5" font-family="Helvetica,sans-Serif" font-size="10.00">INMOST::Storage::RemPrivate</text>
<text text-anchor="middle" x="238.5" y="-7.5" font-family="Helvetica,sans-Serif" font-size="10.00">Marker</text>
</a>
</g>
</g>
<!-- Node1&#45;&gt;Node16 -->
<g id="edge15" class="edge"><title>Node1&#45;&gt;Node16</title>
<path fill="none" stroke="midnightblue" d="M73.6724,-157.768C88.2257,-128.345 120.317,-71.3723 164,-39.5 168.663,-36.0979 173.833,-33.1615 179.208,-30.6304"/>
<polygon fill="midnightblue" stroke="midnightblue" points="70.4415,-156.411 69.2658,-166.941 76.7511,-159.443 70.4415,-156.411"/>
</g>
<!-- Node6 -->
<g id="node6" class="node"><title>Node6</title>
<g id="a_node6"><a xlink:href="class_i_n_m_o_s_t_1_1_automatizator.html#a3da0c47982b82640337e87375abe7314" target="_top" xlink:title="INMOST::Automatizator\l::isDynamicValid">
<polygon fill="none" stroke="black" points="366.5,-339.5 366.5,-369.5 486.5,-369.5 486.5,-339.5 366.5,-339.5"/>
<text text-anchor="start" x="374.5" y="-357.5" font-family="Helvetica,sans-Serif" font-size="10.00">INMOST::Automatizator</text>
<text text-anchor="middle" x="426.5" y="-346.5" font-family="Helvetica,sans-Serif" font-size="10.00">::isDynamicValid</text>
</a>
</g>
</g>
<!-- Node5&#45;&gt;Node6 -->
<g id="edge5" class="edge"><title>Node5&#45;&gt;Node6</title>
<path fill="none" stroke="midnightblue" d="M308.229,-210.509C309.901,-211.74 311.497,-213.068 313,-214.5 352.075,-251.744 310.888,-292.271 349,-330.5 353.914,-335.429 359.826,-339.348 366.16,-342.464"/>
<polygon fill="midnightblue" stroke="midnightblue" points="309.684,-207.299 299.314,-205.127 306.066,-213.291 309.684,-207.299"/>
</g>
<!-- Node7 -->
<g id="node7" class="node"><title>Node7</title>
<g id="a_node7"><a xlink:href="class_i_n_m_o_s_t_1_1_automatizator.html#a6ae69d02eb607b39c5000c39882c484d" target="_top" xlink:title="INMOST::Automatizator\l::isStaticValid">
<polygon fill="none" stroke="black" points="366.5,-290.5 366.5,-320.5 486.5,-320.5 486.5,-290.5 366.5,-290.5"/>
<text text-anchor="start" x="374.5" y="-308.5" font-family="Helvetica,sans-Serif" font-size="10.00">INMOST::Automatizator</text>
<text text-anchor="middle" x="426.5" y="-297.5" font-family="Helvetica,sans-Serif" font-size="10.00">::isStaticValid</text>
</a>
</g>
</g>
<!-- Node5&#45;&gt;Node7 -->
<g id="edge6" class="edge"><title>Node5&#45;&gt;Node7</title>
<path fill="none" stroke="midnightblue" d="M305.56,-209.535C308.166,-211.027 310.661,-212.677 313,-214.5 339.351,-235.044 323.308,-259.137 349,-280.5 354.157,-284.788 360.069,-288.347 366.273,-291.299"/>
<polygon fill="midnightblue" stroke="midnightblue" points="306.859,-206.275 296.336,-205.043 303.794,-212.568 306.859,-206.275"/>
</g>
<!-- Node8 -->
<g id="node8" class="node"><title>Node8</title>
<g id="a_node8"><a xlink:href="class_i_n_m_o_s_t_1_1enhanced__multivar__expression.html#aa7a9b5c6c18e890d941c0abaf36fc9ac" target="_top" xlink:title="INMOST::enhanced_multivar\l_expression::enhanced_multivar\l_expression">
<polygon fill="none" stroke="black" points="349,-230 349,-271 504,-271 504,-230 349,-230"/>
<text text-anchor="start" x="357" y="-259" font-family="Helvetica,sans-Serif" font-size="10.00">INMOST::enhanced_multivar</text>
<text text-anchor="start" x="357" y="-248" font-family="Helvetica,sans-Serif" font-size="10.00">_expression::enhanced_multivar</text>
<text text-anchor="middle" x="426.5" y="-237" font-family="Helvetica,sans-Serif" font-size="10.00">_expression</text>
</a>
</g>
</g>
<!-- Node5&#45;&gt;Node8 -->
<g id="edge7" class="edge"><title>Node5&#45;&gt;Node8</title>
<path fill="none" stroke="midnightblue" d="M287.853,-207.583C296.259,-209.802 304.9,-212.159 313,-214.5 329.45,-219.254 347.138,-224.737 363.505,-229.967"/>
<polygon fill="midnightblue" stroke="midnightblue" points="288.699,-204.186 278.14,-205.05 286.933,-210.96 288.699,-204.186"/>
</g>
<!-- Node9 -->
<g id="node9" class="node"><title>Node9</title>
<g id="a_node9"><a xlink:href="class_i_n_m_o_s_t_1_1dynamic__variable.html#a41483a4546777613637e523f4f57ec81" target="_top" xlink:title="INMOST::dynamic_variable\l::Index">
<polygon fill="none" stroke="black" points="359.5,-180.5 359.5,-210.5 493.5,-210.5 493.5,-180.5 359.5,-180.5"/>
<text text-anchor="start" x="367.5" y="-198.5" font-family="Helvetica,sans-Serif" font-size="10.00">INMOST::dynamic_variable</text>
<text text-anchor="middle" x="426.5" y="-187.5" font-family="Helvetica,sans-Serif" font-size="10.00">::Index</text>
</a>
</g>
</g>
<!-- Node5&#45;&gt;Node9 -->
<g id="edge8" class="edge"><title>Node5&#45;&gt;Node9</title>
<path fill="none" stroke="midnightblue" d="M321.283,-195.5C334.021,-195.5 347.044,-195.5 359.378,-195.5"/>
<polygon fill="midnightblue" stroke="midnightblue" points="321.146,-192 311.146,-195.5 321.146,-199 321.146,-192"/>
</g>
<!-- Node10 -->
<g id="node10" class="node"><title>Node10</title>
<g id="a_node10"><a xlink:href="class_i_n_m_o_s_t_1_1dynamic__variable.html#a432e3db3a15b60eebc084cfd8dcfb28e" target="_top" xlink:title="INMOST::dynamic_variable\l::Variable">
<polygon fill="none" stroke="black" points="359.5,-131.5 359.5,-161.5 493.5,-161.5 493.5,-131.5 359.5,-131.5"/>
<text text-anchor="start" x="367.5" y="-149.5" font-family="Helvetica,sans-Serif" font-size="10.00">INMOST::dynamic_variable</text>
<text text-anchor="middle" x="426.5" y="-138.5" font-family="Helvetica,sans-Serif" font-size="10.00">::Variable</text>
</a>
</g>
</g>
<!-- Node5&#45;&gt;Node10 -->
<g id="edge9" class="edge"><title>Node5&#45;&gt;Node10</title>
<path fill="none" stroke="midnightblue" d="M286.341,-183.448C295.199,-181.153 304.386,-178.762 313,-176.5 331.378,-171.674 351.428,-166.348 369.443,-161.539"/>
<polygon fill="midnightblue" stroke="midnightblue" points="285.333,-180.094 276.529,-185.987 287.087,-186.871 285.333,-180.094"/>
</g>
<!-- Node11 -->
<g id="node11" class="node"><title>Node11</title>
<g id="a_node11"><a xlink:href="class_i_n_m_o_s_t_1_1dynamic__variable.html#af98d84e841029239fe4b098025ef0801" target="_top" xlink:title="INMOST::dynamic_variable\l::operator[]">
<polygon fill="none" stroke="black" points="359.5,-82.5 359.5,-112.5 493.5,-112.5 493.5,-82.5 359.5,-82.5"/>
<text text-anchor="start" x="367.5" y="-100.5" font-family="Helvetica,sans-Serif" font-size="10.00">INMOST::dynamic_variable</text>
<text text-anchor="middle" x="426.5" y="-89.5" font-family="Helvetica,sans-Serif" font-size="10.00">::operator[]</text>
</a>
</g>
</g>
<!-- Node5&#45;&gt;Node11 -->
<g id="edge10" class="edge"><title>Node5&#45;&gt;Node11</title>
<path fill="none" stroke="midnightblue" d="M304.315,-181.791C307.352,-180.215 310.269,-178.459 313,-176.5 336.742,-159.475 325.7,-139.125 349,-121.5 353.551,-118.057 358.607,-115.101 363.889,-112.565"/>
<polygon fill="midnightblue" stroke="midnightblue" points="302.605,-178.722 294.903,-185.997 305.46,-185.113 302.605,-178.722"/>
</g>
<!-- Node12 -->
<g id="node12" class="node"><title>Node12</title>
<g id="a_node12"><a xlink:href="class_i_n_m_o_s_t_1_1dynamic__variable.html#a144f4624248335fd4b690f3416720007" target="_top" xlink:title="INMOST::dynamic_variable\l::isUnknown">
<polygon fill="none" stroke="black" points="359.5,-33.5 359.5,-63.5 493.5,-63.5 493.5,-33.5 359.5,-33.5"/>
<text text-anchor="start" x="367.5" y="-51.5" font-family="Helvetica,sans-Serif" font-size="10.00">INMOST::dynamic_variable</text>
<text text-anchor="middle" x="426.5" y="-40.5" font-family="Helvetica,sans-Serif" font-size="10.00">::isUnknown</text>
</a>
</g>
</g>
<!-- Node5&#45;&gt;Node12 -->
<g id="edge11" class="edge"><title>Node5&#45;&gt;Node12</title>
<path fill="none" stroke="midnightblue" d="M307.613,-180.82C309.505,-179.498 311.308,-178.061 313,-176.5 348.947,-143.329 313.911,-106.577 349,-72.5 352.495,-69.1058 356.464,-66.1912 360.713,-63.6883"/>
<polygon fill="midnightblue" stroke="midnightblue" points="305.724,-177.869 298.826,-185.91 309.233,-183.926 305.724,-177.869"/>
</g>
</g>
</svg>
