<?xml version="1.0" encoding="UTF-8" standalone="no"?>
<!DOCTYPE svg PUBLIC "-//W3C//DTD SVG 1.1//EN"
 "http://www.w3.org/Graphics/SVG/1.1/DTD/svg11.dtd">
<!-- Generated by graphviz version 2.38.0 (20140413.2041)
 -->
<!-- Title: INMOST::Storage::operator= Pages: 1 -->
<svg width="492pt" height="192pt"
 viewBox="0.00 0.00 492.00 191.50" xmlns="http://www.w3.org/2000/svg" xmlns:xlink="http://www.w3.org/1999/xlink">
<g id="graph0" class="graph" transform="scale(1 1) rotate(0) translate(4 187.5)">
<title>INMOST::Storage::operator=</title>
<!-- Node1 -->
<g id="node1" class="node"><title>Node1</title>
<polygon fill="#bfbfbf" stroke="black" points="0,-88 0,-107 140,-107 140,-88 0,-88"/>
<text text-anchor="middle" x="70" y="-95" font-family="Helvetica,sans-Serif" font-size="10.00">INMOST::Storage::operator=</text>
</g>
<!-- Node2 -->
<g id="node2" class="node"><title>Node2</title>
<g id="a_node2"><a xlink:href="class_i_n_m_o_s_t_1_1_element.html#a8761a37c3bc9f46ada8f09034e8fa3a7" target="_top" xlink:title="INMOST::Element::operator=">
<polygon fill="none" stroke="black" points="176,-88 176,-107 319,-107 319,-88 176,-88"/>
<text text-anchor="middle" x="247.5" y="-95" font-family="Helvetica,sans-Serif" font-size="10.00">INMOST::Element::operator=</text>
</a>
</g>
</g>
<!-- Node1&#45;&gt;Node2 -->
<g id="edge1" class="edge"><title>Node1&#45;&gt;Node2</title>
<path fill="none" stroke="midnightblue" d="M150.353,-97.5C158.811,-97.5 167.374,-97.5 175.723,-97.5"/>
<polygon fill="midnightblue" stroke="midnightblue" points="150.11,-94.0001 140.11,-97.5 150.11,-101 150.11,-94.0001"/>
</g>
<!-- Node3 -->
<g id="node3" class="node"><title>Node3</title>
<g id="a_node3"><a xlink:href="class_i_n_m_o_s_t_1_1_node.html#a66f15cc56dd523d7e445bf2daa4619c3" target="_top" xlink:title="INMOST::Node::operator=">
<polygon fill="none" stroke="black" points="355,-164 355,-183 484,-183 484,-164 355,-164"/>
<text text-anchor="middle" x="419.5" y="-171" font-family="Helvetica,sans-Serif" font-size="10.00">INMOST::Node::operator=</text>
</a>
</g>
</g>
<!-- Node2&#45;&gt;Node3 -->
<g id="edge2" class="edge"><title>Node2&#45;&gt;Node3</title>
<path fill="none" stroke="midnightblue" d="M272.538,-112.168C293.692,-124.634 325.614,-142.384 355,-154.5 363.617,-158.053 373.138,-161.26 382.129,-163.984"/>
<polygon fill="midnightblue" stroke="midnightblue" points="274.279,-109.131 263.897,-107.017 270.694,-115.144 274.279,-109.131"/>
</g>
<!-- Node4 -->
<g id="node4" class="node"><title>Node4</title>
<g id="a_node4"><a xlink:href="class_i_n_m_o_s_t_1_1_edge.html#a94ce93c2543797423d9505bce0ba77a8" target="_top" xlink:title="INMOST::Edge::operator=">
<polygon fill="none" stroke="black" points="355,-126 355,-145 484,-145 484,-126 355,-126"/>
<text text-anchor="middle" x="419.5" y="-133" font-family="Helvetica,sans-Serif" font-size="10.00">INMOST::Edge::operator=</text>
</a>
</g>
</g>
<!-- Node2&#45;&gt;Node4 -->
<g id="edge3" class="edge"><title>Node2&#45;&gt;Node4</title>
<path fill="none" stroke="midnightblue" d="M301.398,-109.324C325.365,-114.682 353.324,-120.931 375.91,-125.98"/>
<polygon fill="midnightblue" stroke="midnightblue" points="301.921,-105.855 291.398,-107.089 300.394,-112.686 301.921,-105.855"/>
</g>
<!-- Node5 -->
<g id="node5" class="node"><title>Node5</title>
<g id="a_node5"><a xlink:href="class_i_n_m_o_s_t_1_1_face.html#a6a6f3c1fbe976e4190b65ef840761963" target="_top" xlink:title="INMOST::Face::operator=">
<polygon fill="none" stroke="black" points="355.5,-88 355.5,-107 483.5,-107 483.5,-88 355.5,-88"/>
<text text-anchor="middle" x="419.5" y="-95" font-family="Helvetica,sans-Serif" font-size="10.00">INMOST::Face::operator=</text>
</a>
</g>
</g>
<!-- Node2&#45;&gt;Node5 -->
<g id="edge4" class="edge"><title>Node2&#45;&gt;Node5</title>
<path fill="none" stroke="midnightblue" d="M329.35,-97.5C338.109,-97.5 346.926,-97.5 355.429,-97.5"/>
<polygon fill="midnightblue" stroke="midnightblue" points="329.118,-94.0001 319.118,-97.5 329.118,-101 329.118,-94.0001"/>
</g>
<!-- Node6 -->
<g id="node6" class="node"><title>Node6</title>
<g id="a_node6"><a xlink:href="class_i_n_m_o_s_t_1_1_cell.html#a42506f458c54cc177a56444d88b01770" target="_top" xlink:title="Assignment operator. ">
<polygon fill="none" stroke="black" points="358,-50 358,-69 481,-69 481,-50 358,-50"/>
<text text-anchor="middle" x="419.5" y="-57" font-family="Helvetica,sans-Serif" font-size="10.00">INMOST::Cell::operator=</text>
</a>
</g>
</g>
<!-- Node2&#45;&gt;Node6 -->
<g id="edge5" class="edge"><title>Node2&#45;&gt;Node6</title>
<path fill="none" stroke="midnightblue" d="M301.398,-85.6757C325.365,-80.3184 353.324,-74.0689 375.91,-69.0201"/>
<polygon fill="midnightblue" stroke="midnightblue" points="300.394,-82.3138 291.398,-87.911 301.921,-89.1452 300.394,-82.3138"/>
</g>
<!-- Node7 -->
<g id="node7" class="node"><title>Node7</title>
<g id="a_node7"><a xlink:href="class_i_n_m_o_s_t_1_1_element_set.html#af5b35094511b79311211b22afd395662" target="_top" xlink:title="INMOST::ElementSet\l::operator=">
<polygon fill="none" stroke="black" points="364.5,-0.5 364.5,-30.5 474.5,-30.5 474.5,-0.5 364.5,-0.5"/>
<text text-anchor="start" x="372.5" y="-18.5" font-family="Helvetica,sans-Serif" font-size="10.00">INMOST::ElementSet</text>
<text text-anchor="middle" x="419.5" y="-7.5" font-family="Helvetica,sans-Serif" font-size="10.00">::operator=</text>
</a>
</g>
</g>
<!-- Node2&#45;&gt;Node7 -->
<g id="edge6" class="edge"><title>Node2&#45;&gt;Node7</title>
<path fill="none" stroke="midnightblue" d="M273.918,-82.8154C295.233,-70.7653 326.648,-53.6142 355,-40.5 362.42,-37.068 370.453,-33.6699 378.23,-30.5367"/>
<polygon fill="midnightblue" stroke="midnightblue" points="272.121,-79.8112 265.162,-87.8003 275.584,-85.8945 272.121,-79.8112"/>
</g>
</g>
</svg>
