<?xml version="1.0" encoding="UTF-8" standalone="no"?>
<!DOCTYPE svg PUBLIC "-//W3C//DTD SVG 1.1//EN"
 "http://www.w3.org/Graphics/SVG/1.1/DTD/svg11.dtd">
<!-- Generated by graphviz version 2.38.0 (20140413.2041)
 -->
<!-- Title: INMOST::Sparse::Row::Swap Pages: 1 -->
<svg width="304pt" height="235pt"
 viewBox="0.00 0.00 304.00 235.00" xmlns="http://www.w3.org/2000/svg" xmlns:xlink="http://www.w3.org/1999/xlink">
<g id="graph0" class="graph" transform="scale(1 1) rotate(0) translate(4 231)">
<title>INMOST::Sparse::Row::Swap</title>
<!-- Node1 -->
<g id="node1" class="node"><title>Node1</title>
<polygon fill="#bfbfbf" stroke="black" points="0,-98.5 0,-128.5 115,-128.5 115,-98.5 0,-98.5"/>
<text text-anchor="start" x="8" y="-116.5" font-family="Helvetica,sans-Serif" font-size="10.00">INMOST::Sparse::Row</text>
<text text-anchor="middle" x="57.5" y="-105.5" font-family="Helvetica,sans-Serif" font-size="10.00">::Swap</text>
</g>
<!-- Node2 -->
<g id="node2" class="node"><title>Node2</title>
<g id="a_node2"><a xlink:href="class_i_n_m_o_s_t_1_1multivar__expression.html#a8e12c7a16e7720e6524444ba9d938be2" target="_top" xlink:title="INMOST::multivar_expression\l::operator=">
<polygon fill="none" stroke="black" points="151,-196.5 151,-226.5 296,-226.5 296,-196.5 151,-196.5"/>
<text text-anchor="start" x="159" y="-214.5" font-family="Helvetica,sans-Serif" font-size="10.00">INMOST::multivar_expression</text>
<text text-anchor="middle" x="223.5" y="-203.5" font-family="Helvetica,sans-Serif" font-size="10.00">::operator=</text>
</a>
</g>
</g>
<!-- Node1&#45;&gt;Node2 -->
<g id="edge1" class="edge"><title>Node1&#45;&gt;Node2</title>
<path fill="none" stroke="midnightblue" d="M81.5338,-135.766C99.3135,-151.953 125.166,-173.41 151,-187.5 157.093,-190.823 163.727,-193.798 170.418,-196.428"/>
<polygon fill="midnightblue" stroke="midnightblue" points="83.6745,-132.978 73.962,-128.745 78.9149,-138.111 83.6745,-132.978"/>
</g>
<!-- Node3 -->
<g id="node3" class="node"><title>Node3</title>
<g id="a_node3"><a xlink:href="class_i_n_m_o_s_t_1_1multivar__expression.html#a4097d4feec354889aeb3306ed223f485" target="_top" xlink:title="INMOST::multivar_expression\l::operator+=">
<polygon fill="none" stroke="black" points="151,-147.5 151,-177.5 296,-177.5 296,-147.5 151,-147.5"/>
<text text-anchor="start" x="159" y="-165.5" font-family="Helvetica,sans-Serif" font-size="10.00">INMOST::multivar_expression</text>
<text text-anchor="middle" x="223.5" y="-154.5" font-family="Helvetica,sans-Serif" font-size="10.00">::operator+=</text>
</a>
</g>
</g>
<!-- Node1&#45;&gt;Node3 -->
<g id="edge2" class="edge"><title>Node1&#45;&gt;Node3</title>
<path fill="none" stroke="midnightblue" d="M118.634,-131.467C136.206,-136.717 155.223,-142.399 172.123,-147.448"/>
<polygon fill="midnightblue" stroke="midnightblue" points="119.627,-128.111 109.044,-128.601 117.623,-134.818 119.627,-128.111"/>
</g>
<!-- Node4 -->
<g id="node4" class="node"><title>Node4</title>
<g id="a_node4"><a xlink:href="class_i_n_m_o_s_t_1_1multivar__expression.html#aaace2e2ac91e4fb73183a1901a3e1ea1" target="_top" xlink:title="INMOST::multivar_expression\l::operator&#45;=">
<polygon fill="none" stroke="black" points="151,-98.5 151,-128.5 296,-128.5 296,-98.5 151,-98.5"/>
<text text-anchor="start" x="159" y="-116.5" font-family="Helvetica,sans-Serif" font-size="10.00">INMOST::multivar_expression</text>
<text text-anchor="middle" x="223.5" y="-105.5" font-family="Helvetica,sans-Serif" font-size="10.00">::operator&#45;=</text>
</a>
</g>
</g>
<!-- Node1&#45;&gt;Node4 -->
<g id="edge3" class="edge"><title>Node1&#45;&gt;Node4</title>
<path fill="none" stroke="midnightblue" d="M125.504,-113.5C133.897,-113.5 142.507,-113.5 150.966,-113.5"/>
<polygon fill="midnightblue" stroke="midnightblue" points="125.399,-110 115.399,-113.5 125.399,-117 125.399,-110"/>
</g>
<!-- Node5 -->
<g id="node5" class="node"><title>Node5</title>
<g id="a_node5"><a xlink:href="class_i_n_m_o_s_t_1_1multivar__expression.html#aa8201a6a63329890bde0e8ddc37dc780" target="_top" xlink:title="INMOST::multivar_expression\l::operator*=">
<polygon fill="none" stroke="black" points="151,-49.5 151,-79.5 296,-79.5 296,-49.5 151,-49.5"/>
<text text-anchor="start" x="159" y="-67.5" font-family="Helvetica,sans-Serif" font-size="10.00">INMOST::multivar_expression</text>
<text text-anchor="middle" x="223.5" y="-56.5" font-family="Helvetica,sans-Serif" font-size="10.00">::operator*=</text>
</a>
</g>
</g>
<!-- Node1&#45;&gt;Node5 -->
<g id="edge4" class="edge"><title>Node1&#45;&gt;Node5</title>
<path fill="none" stroke="midnightblue" d="M118.634,-95.533C136.206,-90.283 155.223,-84.6011 172.123,-79.5516"/>
<polygon fill="midnightblue" stroke="midnightblue" points="117.623,-92.1822 109.044,-98.3986 119.627,-98.8892 117.623,-92.1822"/>
</g>
<!-- Node6 -->
<g id="node6" class="node"><title>Node6</title>
<g id="a_node6"><a xlink:href="class_i_n_m_o_s_t_1_1multivar__expression.html#ad1e7513f547145312c4da1ae5aff2c62" target="_top" xlink:title="INMOST::multivar_expression\l::operator/=">
<polygon fill="none" stroke="black" points="151,-0.5 151,-30.5 296,-30.5 296,-0.5 151,-0.5"/>
<text text-anchor="start" x="159" y="-18.5" font-family="Helvetica,sans-Serif" font-size="10.00">INMOST::multivar_expression</text>
<text text-anchor="middle" x="223.5" y="-7.5" font-family="Helvetica,sans-Serif" font-size="10.00">::operator/=</text>
</a>
</g>
</g>
<!-- Node1&#45;&gt;Node6 -->
<g id="edge5" class="edge"><title>Node1&#45;&gt;Node6</title>
<path fill="none" stroke="midnightblue" d="M81.9623,-91.3571C99.7833,-75.4797 125.498,-54.5058 151,-40.5 157.685,-36.8284 165.011,-33.5373 172.345,-30.6426"/>
<polygon fill="midnightblue" stroke="midnightblue" points="79.4168,-88.9405 74.3589,-98.2501 84.1184,-94.1266 79.4168,-88.9405"/>
</g>
</g>
</svg>
