<?xml version="1.0" encoding="UTF-8" standalone="no"?>
<!DOCTYPE svg PUBLIC "-//W3C//DTD SVG 1.1//EN"
 "http://www.w3.org/Graphics/SVG/1.1/DTD/svg11.dtd">
<!-- Generated by graphviz version 2.38.0 (20140413.2041)
 -->
<!-- Title: INMOST::shell::_iterator::operator= Pages: 1 -->
<svg width="304pt" height="100pt"
 viewBox="0.00 0.00 304.00 99.50" xmlns="http://www.w3.org/2000/svg" xmlns:xlink="http://www.w3.org/1999/xlink">
<g id="graph0" class="graph" transform="scale(1 1) rotate(0) translate(4 95.5)">
<title>INMOST::shell::_iterator::operator=</title>
<!-- Node1 -->
<g id="node1" class="node"><title>Node1</title>
<polygon fill="#bfbfbf" stroke="black" points="0,-33 0,-63 121,-63 121,-33 0,-33"/>
<text text-anchor="start" x="8" y="-51" font-family="Helvetica,sans-Serif" font-size="10.00">INMOST::shell::_iterator</text>
<text text-anchor="middle" x="60.5" y="-40" font-family="Helvetica,sans-Serif" font-size="10.00">::operator=</text>
</g>
<!-- Node2 -->
<g id="node2" class="node"><title>Node2</title>
<g id="a_node2"><a xlink:href="class_i_n_m_o_s_t_1_1_storage_1_1reference__array_1_1iterator.html#adf41f797a07ea1af42d64e5b3ef850bd" target="_top" xlink:title="INMOST::Storage::reference\l_array::iterator::operator=">
<polygon fill="none" stroke="black" points="157,-61 157,-91 296,-91 296,-61 157,-61"/>
<text text-anchor="start" x="165" y="-79" font-family="Helvetica,sans-Serif" font-size="10.00">INMOST::Storage::reference</text>
<text text-anchor="middle" x="226.5" y="-68" font-family="Helvetica,sans-Serif" font-size="10.00">_array::iterator::operator=</text>
</a>
</g>
</g>
<!-- Node1&#45;&gt;Node2 -->
<g id="edge1" class="edge"><title>Node1&#45;&gt;Node2</title>
<path fill="none" stroke="midnightblue" d="M131.117,-59.8857C139.68,-61.3478 148.428,-62.8413 156.975,-64.3005"/>
<polygon fill="midnightblue" stroke="midnightblue" points="131.618,-56.4208 121.172,-58.1878 130.44,-63.321 131.618,-56.4208"/>
</g>
<!-- Node3 -->
<g id="node3" class="node"><title>Node3</title>
<g id="a_node3"><a xlink:href="class_i_n_m_o_s_t_1_1_storage_1_1reference__array_1_1const__iterator.html#a14703c26f3f90ec5eb0fa6a08fcd3789" target="_top" xlink:title="INMOST::Storage::reference\l_array::const_iterator::\loperator=">
<polygon fill="none" stroke="black" points="157,-0.5 157,-41.5 296,-41.5 296,-0.5 157,-0.5"/>
<text text-anchor="start" x="165" y="-29.5" font-family="Helvetica,sans-Serif" font-size="10.00">INMOST::Storage::reference</text>
<text text-anchor="start" x="165" y="-18.5" font-family="Helvetica,sans-Serif" font-size="10.00">_array::const_iterator::</text>
<text text-anchor="middle" x="226.5" y="-7.5" font-family="Helvetica,sans-Serif" font-size="10.00">operator=</text>
</a>
</g>
</g>
<!-- Node1&#45;&gt;Node3 -->
<g id="edge2" class="edge"><title>Node1&#45;&gt;Node3</title>
<path fill="none" stroke="midnightblue" d="M131.117,-36.5387C139.68,-35.1289 148.428,-33.6887 156.975,-32.2816"/>
<polygon fill="midnightblue" stroke="midnightblue" points="130.47,-33.0979 121.172,-38.176 131.607,-40.005 130.47,-33.0979"/>
</g>
</g>
</svg>
