<?xml version="1.0" encoding="UTF-8" standalone="no"?>
<!DOCTYPE svg PUBLIC "-//W3C//DTD SVG 1.1//EN"
 "http://www.w3.org/Graphics/SVG/1.1/DTD/svg11.dtd">
<!-- Generated by graphviz version 2.38.0 (20140413.2041)
 -->
<!-- Title: INMOST::Mesh::NumberOfElements Pages: 1 -->
<svg width="528pt" height="142pt"
 viewBox="0.00 0.00 528.00 142.00" xmlns="http://www.w3.org/2000/svg" xmlns:xlink="http://www.w3.org/1999/xlink">
<g id="graph0" class="graph" transform="scale(1 1) rotate(0) translate(4 138)">
<title>INMOST::Mesh::NumberOfElements</title>
<!-- Node1 -->
<g id="node1" class="node"><title>Node1</title>
<polygon fill="#bfbfbf" stroke="black" points="0,-57.5 0,-76.5 174,-76.5 174,-57.5 0,-57.5"/>
<text text-anchor="middle" x="87" y="-64.5" font-family="Helvetica,sans-Serif" font-size="10.00">INMOST::Mesh::NumberOfElements</text>
</g>
<!-- Node2 -->
<g id="node2" class="node"><title>Node2</title>
<g id="a_node2"><a xlink:href="class_i_n_m_o_s_t_1_1_mesh.html#a245f0558fa7181cf6789db69c4005b33" target="_top" xlink:title="INMOST::Mesh::NumberOfCells">
<polygon fill="none" stroke="black" points="213,-114.5 213,-133.5 368,-133.5 368,-114.5 213,-114.5"/>
<text text-anchor="middle" x="290.5" y="-121.5" font-family="Helvetica,sans-Serif" font-size="10.00">INMOST::Mesh::NumberOfCells</text>
</a>
</g>
</g>
<!-- Node1&#45;&gt;Node2 -->
<g id="edge1" class="edge"><title>Node1&#45;&gt;Node2</title>
<path fill="none" stroke="midnightblue" d="M116.925,-76.6131C141.543,-84.6493 177.914,-96.1796 210,-105 218.843,-107.431 228.287,-109.845 237.466,-112.097"/>
<polygon fill="midnightblue" stroke="midnightblue" points="236.738,-115.521 247.281,-114.468 238.383,-108.717 236.738,-115.521"/>
</g>
<!-- Node4 -->
<g id="node4" class="node"><title>Node4</title>
<g id="a_node4"><a xlink:href="class_i_n_m_o_s_t_1_1_mesh.html#a67db1a1d141e8d7cb93ca1284777bb08" target="_top" xlink:title="INMOST::Mesh::NumberOfFaces">
<polygon fill="none" stroke="black" points="210.5,-76.5 210.5,-95.5 370.5,-95.5 370.5,-76.5 210.5,-76.5"/>
<text text-anchor="middle" x="290.5" y="-83.5" font-family="Helvetica,sans-Serif" font-size="10.00">INMOST::Mesh::NumberOfFaces</text>
</a>
</g>
</g>
<!-- Node1&#45;&gt;Node4 -->
<g id="edge3" class="edge"><title>Node1&#45;&gt;Node4</title>
<path fill="none" stroke="midnightblue" d="M174.039,-75.1128C182.726,-75.932 191.563,-76.7653 200.283,-77.5875"/>
<polygon fill="midnightblue" stroke="midnightblue" points="200.166,-81.0919 210.45,-78.5462 200.823,-74.1228 200.166,-81.0919"/>
</g>
<!-- Node5 -->
<g id="node5" class="node"><title>Node5</title>
<g id="a_node5"><a xlink:href="class_i_n_m_o_s_t_1_1_mesh.html#a404c19f0ddf24cd968de766cf130b371" target="_top" xlink:title="INMOST::Mesh::NumberOfEdges">
<polygon fill="none" stroke="black" points="210,-38.5 210,-57.5 371,-57.5 371,-38.5 210,-38.5"/>
<text text-anchor="middle" x="290.5" y="-45.5" font-family="Helvetica,sans-Serif" font-size="10.00">INMOST::Mesh::NumberOfEdges</text>
</a>
</g>
</g>
<!-- Node1&#45;&gt;Node5 -->
<g id="edge5" class="edge"><title>Node1&#45;&gt;Node5</title>
<path fill="none" stroke="midnightblue" d="M174.039,-58.8872C182.573,-58.0825 191.25,-57.2642 199.82,-56.4562"/>
<polygon fill="midnightblue" stroke="midnightblue" points="200.188,-59.9371 209.816,-55.5137 199.531,-52.968 200.188,-59.9371"/>
</g>
<!-- Node6 -->
<g id="node6" class="node"><title>Node6</title>
<g id="a_node6"><a xlink:href="class_i_n_m_o_s_t_1_1_mesh.html#a4562c5fd5341705ed706b3c4cfda80fe" target="_top" xlink:title="INMOST::Mesh::NumberOfNodes">
<polygon fill="none" stroke="black" points="210,-0.5 210,-19.5 371,-19.5 371,-0.5 210,-0.5"/>
<text text-anchor="middle" x="290.5" y="-7.5" font-family="Helvetica,sans-Serif" font-size="10.00">INMOST::Mesh::NumberOfNodes</text>
</a>
</g>
</g>
<!-- Node1&#45;&gt;Node6 -->
<g id="edge7" class="edge"><title>Node1&#45;&gt;Node6</title>
<path fill="none" stroke="midnightblue" d="M116.925,-57.3869C141.543,-49.3507 177.914,-37.8204 210,-29 218.843,-26.5691 228.287,-24.1548 237.466,-21.9035"/>
<polygon fill="midnightblue" stroke="midnightblue" points="238.383,-25.2828 247.281,-19.5315 236.738,-18.4786 238.383,-25.2828"/>
</g>
<!-- Node3 -->
<g id="node3" class="node"><title>Node3</title>
<g id="a_node3"><a xlink:href="class_i_n_m_o_s_t_1_1chunk__array.html#a3133c45f74d39c2271889033147567c9" target="_top" xlink:title="INMOST::chunk_array\l::size">
<polygon fill="none" stroke="black" points="407,-52 407,-82 520,-82 520,-52 407,-52"/>
<text text-anchor="start" x="415" y="-70" font-family="Helvetica,sans-Serif" font-size="10.00">INMOST::chunk_array</text>
<text text-anchor="middle" x="463.5" y="-59" font-family="Helvetica,sans-Serif" font-size="10.00">::size</text>
</a>
</g>
</g>
<!-- Node2&#45;&gt;Node3 -->
<g id="edge2" class="edge"><title>Node2&#45;&gt;Node3</title>
<path fill="none" stroke="midnightblue" d="M336.834,-114.482C348.095,-111.758 360.068,-108.551 371,-105 387.528,-99.6306 405.262,-92.5808 420.675,-86.0132"/>
<polygon fill="midnightblue" stroke="midnightblue" points="422.152,-89.1879 429.94,-82.0056 419.373,-82.7631 422.152,-89.1879"/>
</g>
<!-- Node4&#45;&gt;Node3 -->
<g id="edge4" class="edge"><title>Node4&#45;&gt;Node3</title>
<path fill="none" stroke="midnightblue" d="M370.993,-77.1675C379.55,-76.2167 388.187,-75.257 396.56,-74.3266"/>
<polygon fill="midnightblue" stroke="midnightblue" points="397.067,-77.792 406.619,-73.209 396.294,-70.8348 397.067,-77.792"/>
</g>
<!-- Node5&#45;&gt;Node3 -->
<g id="edge6" class="edge"><title>Node5&#45;&gt;Node3</title>
<path fill="none" stroke="midnightblue" d="M371.243,-56.8603C379.785,-57.8095 388.405,-58.7672 396.758,-59.6953"/>
<polygon fill="midnightblue" stroke="midnightblue" points="396.467,-63.1844 406.792,-60.8102 397.24,-56.2272 396.467,-63.1844"/>
</g>
<!-- Node6&#45;&gt;Node3 -->
<g id="edge8" class="edge"><title>Node6&#45;&gt;Node3</title>
<path fill="none" stroke="midnightblue" d="M336.834,-19.5185C348.095,-22.2423 360.068,-25.4485 371,-29 387.528,-34.3694 405.262,-41.4192 420.675,-47.9868"/>
<polygon fill="midnightblue" stroke="midnightblue" points="419.373,-51.2369 429.94,-51.9944 422.152,-44.8121 419.373,-51.2369"/>
</g>
</g>
</svg>
