<?xml version="1.0" encoding="UTF-8" standalone="no"?>
<!DOCTYPE svg PUBLIC "-//W3C//DTD SVG 1.1//EN"
 "http://www.w3.org/Graphics/SVG/1.1/DTD/svg11.dtd">
<!-- Generated by graphviz version 2.38.0 (20140413.2041)
 -->
<!-- Title: INMOST::binary_pool::get_op Pages: 1 -->
<svg width="284pt" height="88pt"
 viewBox="0.00 0.00 284.00 88.00" xmlns="http://www.w3.org/2000/svg" xmlns:xlink="http://www.w3.org/1999/xlink">
<g id="graph0" class="graph" transform="scale(1 1) rotate(0) translate(4 84)">
<title>INMOST::binary_pool::get_op</title>
<!-- Node1 -->
<g id="node1" class="node"><title>Node1</title>
<polygon fill="#bfbfbf" stroke="black" points="0,-24.5 0,-54.5 109,-54.5 109,-24.5 0,-24.5"/>
<text text-anchor="start" x="8" y="-42.5" font-family="Helvetica,sans-Serif" font-size="10.00">INMOST::binary_pool</text>
<text text-anchor="middle" x="54.5" y="-31.5" font-family="Helvetica,sans-Serif" font-size="10.00">::get_op</text>
</g>
<!-- Node2 -->
<g id="node2" class="node"><title>Node2</title>
<g id="a_node2"><a xlink:href="class_i_n_m_o_s_t_1_1binary__pool__expression.html#a721ff99a3861a0ca02a456d4022c6c5d" target="_top" xlink:title="INMOST::binary_pool\l_expression::GetValue">
<polygon fill="none" stroke="black" points="152.5,-49.5 152.5,-79.5 268.5,-79.5 268.5,-49.5 152.5,-49.5"/>
<text text-anchor="start" x="160.5" y="-67.5" font-family="Helvetica,sans-Serif" font-size="10.00">INMOST::binary_pool</text>
<text text-anchor="middle" x="210.5" y="-56.5" font-family="Helvetica,sans-Serif" font-size="10.00">_expression::GetValue</text>
</a>
</g>
</g>
<!-- Node1&#45;&gt;Node2 -->
<g id="edge1" class="edge"><title>Node1&#45;&gt;Node2</title>
<path fill="none" stroke="midnightblue" d="M119.275,-49.8532C130.211,-51.6285 141.514,-53.4633 152.266,-55.2087"/>
<polygon fill="midnightblue" stroke="midnightblue" points="119.793,-46.3915 109.362,-48.2438 118.672,-53.301 119.793,-46.3915"/>
</g>
<!-- Node3 -->
<g id="node3" class="node"><title>Node3</title>
<g id="a_node3"><a xlink:href="class_i_n_m_o_s_t_1_1binary__pool__expression.html#aa7c9d0fd609f10c8d7b273131eabaa7d" target="_top" xlink:title="INMOST::binary_pool\l_expression::GetDerivative">
<polygon fill="none" stroke="black" points="145,-0.5 145,-30.5 276,-30.5 276,-0.5 145,-0.5"/>
<text text-anchor="start" x="153" y="-18.5" font-family="Helvetica,sans-Serif" font-size="10.00">INMOST::binary_pool</text>
<text text-anchor="middle" x="210.5" y="-7.5" font-family="Helvetica,sans-Serif" font-size="10.00">_expression::GetDerivative</text>
</a>
</g>
</g>
<!-- Node1&#45;&gt;Node3 -->
<g id="edge2" class="edge"><title>Node1&#45;&gt;Node3</title>
<path fill="none" stroke="midnightblue" d="M119.451,-29.5336C127.832,-28.2275 136.425,-26.8883 144.818,-25.5804"/>
<polygon fill="midnightblue" stroke="midnightblue" points="118.703,-26.1078 109.362,-31.106 119.781,-33.0243 118.703,-26.1078"/>
</g>
</g>
</svg>
