<?xml version="1.0" encoding="UTF-8" standalone="no"?>
<!DOCTYPE svg PUBLIC "-//W3C//DTD SVG 1.1//EN"
 "http://www.w3.org/Graphics/SVG/1.1/DTD/svg11.dtd">
<!-- Generated by graphviz version 2.38.0 (20140413.2041)
 -->
<!-- Title: INMOST::stencil_variable::operator[] Pages: 1 -->
<svg width="298pt" height="116pt"
 viewBox="0.00 0.00 298.00 115.50" xmlns="http://www.w3.org/2000/svg" xmlns:xlink="http://www.w3.org/1999/xlink">
<g id="graph0" class="graph" transform="scale(1 1) rotate(0) translate(4 111.5)">
<title>INMOST::stencil_variable::operator[]</title>
<!-- Node1 -->
<g id="node1" class="node"><title>Node1</title>
<polygon fill="#bfbfbf" stroke="black" points="0,-33 0,-63 125,-63 125,-33 0,-33"/>
<text text-anchor="start" x="8" y="-51" font-family="Helvetica,sans-Serif" font-size="10.00">INMOST::stencil_variable</text>
<text text-anchor="middle" x="62.5" y="-40" font-family="Helvetica,sans-Serif" font-size="10.00">::operator[]</text>
</g>
<!-- Node2 -->
<g id="node2" class="node"><title>Node2</title>
<g id="a_node2"><a xlink:href="class_i_n_m_o_s_t_1_1_automatizator.html#a0873f51c2f40480337ff3de86cb0ac01" target="_top" xlink:title="INMOST::Automatizator\l::GetStencil">
<polygon fill="none" stroke="black" points="165.5,-77 165.5,-107 285.5,-107 285.5,-77 165.5,-77"/>
<text text-anchor="start" x="173.5" y="-95" font-family="Helvetica,sans-Serif" font-size="10.00">INMOST::Automatizator</text>
<text text-anchor="middle" x="225.5" y="-84" font-family="Helvetica,sans-Serif" font-size="10.00">::GetStencil</text>
</a>
</g>
</g>
<!-- Node1&#45;&gt;Node2 -->
<g id="edge1" class="edge"><title>Node1&#45;&gt;Node2</title>
<path fill="none" stroke="midnightblue" d="M118.457,-63.0192C131.725,-66.6452 146.025,-70.5534 159.697,-74.2899"/>
<polygon fill="midnightblue" stroke="midnightblue" points="158.949,-77.7137 169.518,-76.9738 160.794,-70.9613 158.949,-77.7137"/>
</g>
<!-- Node3 -->
<g id="node3" class="node"><title>Node3</title>
<g id="a_node3"><a xlink:href="class_i_n_m_o_s_t_1_1dynarray.html#aef8d483671a044ba927c1a523ca4d7d0" target="_top" xlink:title="INMOST::dynarray::resize">
<polygon fill="none" stroke="black" points="161,-38.5 161,-57.5 290,-57.5 290,-38.5 161,-38.5"/>
<text text-anchor="middle" x="225.5" y="-45.5" font-family="Helvetica,sans-Serif" font-size="10.00">INMOST::dynarray::resize</text>
</a>
</g>
</g>
<!-- Node1&#45;&gt;Node3 -->
<g id="edge2" class="edge"><title>Node1&#45;&gt;Node3</title>
<path fill="none" stroke="midnightblue" d="M125.286,-48C133.545,-48 142.082,-48 150.523,-48"/>
<polygon fill="midnightblue" stroke="midnightblue" points="150.746,-51.5001 160.746,-48 150.746,-44.5001 150.746,-51.5001"/>
</g>
<!-- Node4 -->
<g id="node4" class="node"><title>Node4</title>
<g id="a_node4"><a xlink:href="class_i_n_m_o_s_t_1_1dynarray.html#aeddec63b957a8a61e89f14d28fa1a2eb" target="_top" xlink:title="INMOST::dynarray::size">
<polygon fill="none" stroke="black" points="165,-0.5 165,-19.5 286,-19.5 286,-0.5 165,-0.5"/>
<text text-anchor="middle" x="225.5" y="-7.5" font-family="Helvetica,sans-Serif" font-size="10.00">INMOST::dynarray::size</text>
</a>
</g>
</g>
<!-- Node1&#45;&gt;Node4 -->
<g id="edge3" class="edge"><title>Node1&#45;&gt;Node4</title>
<path fill="none" stroke="midnightblue" d="M125.286,-33.4169C141.435,-29.6053 158.648,-25.5427 174.125,-21.8898"/>
<polygon fill="midnightblue" stroke="midnightblue" points="175.087,-25.2589 184.016,-19.5553 173.479,-18.4461 175.087,-25.2589"/>
</g>
</g>
</svg>
