<?xml version="1.0" encoding="UTF-8" standalone="no"?>
<!DOCTYPE svg PUBLIC "-//W3C//DTD SVG 1.1//EN"
 "http://www.w3.org/Graphics/SVG/1.1/DTD/svg11.dtd">
<!-- Generated by graphviz version 2.38.0 (20140413.2041)
 -->
<!-- Title: INMOST::enhanced_multivar_expression::check_nans Pages: 1 -->
<svg width="484pt" height="78pt"
 viewBox="0.00 0.00 484.00 77.50" xmlns="http://www.w3.org/2000/svg" xmlns:xlink="http://www.w3.org/1999/xlink">
<g id="graph0" class="graph" transform="scale(1 1) rotate(0) translate(4 73.5)">
<title>INMOST::enhanced_multivar_expression::check_nans</title>
<!-- Node1 -->
<g id="node1" class="node"><title>Node1</title>
<polygon fill="#bfbfbf" stroke="black" points="0,-17 0,-47 140,-47 140,-17 0,-17"/>
<text text-anchor="start" x="8" y="-35" font-family="Helvetica,sans-Serif" font-size="10.00">INMOST::enhanced_multivar</text>
<text text-anchor="middle" x="70" y="-24" font-family="Helvetica,sans-Serif" font-size="10.00">_expression::check_nans</text>
</g>
<!-- Node2 -->
<g id="node2" class="node"><title>Node2</title>
<g id="a_node2"><a xlink:href="class_i_n_m_o_s_t_1_1_sparse_1_1_row.html#ae151ff1b4c953a41174aaf5a4261fafa" target="_top" xlink:title="INMOST::Sparse::Row\l::Begin">
<polygon fill="none" stroke="black" points="187.5,-39 187.5,-69 302.5,-69 302.5,-39 187.5,-39"/>
<text text-anchor="start" x="195.5" y="-57" font-family="Helvetica,sans-Serif" font-size="10.00">INMOST::Sparse::Row</text>
<text text-anchor="middle" x="245" y="-46" font-family="Helvetica,sans-Serif" font-size="10.00">::Begin</text>
</a>
</g>
</g>
<!-- Node1&#45;&gt;Node2 -->
<g id="edge1" class="edge"><title>Node1&#45;&gt;Node2</title>
<path fill="none" stroke="midnightblue" d="M140.369,-40.8215C152.56,-42.3718 165.224,-43.9822 177.339,-45.5229"/>
<polygon fill="midnightblue" stroke="midnightblue" points="177.003,-49.0082 187.365,-46.7978 177.886,-42.0642 177.003,-49.0082"/>
</g>
<!-- Node4 -->
<g id="node4" class="node"><title>Node4</title>
<g id="a_node4"><a xlink:href="class_i_n_m_o_s_t_1_1_sparse_1_1_row.html#a8f933f39bae05075356ab209eafcc47a" target="_top" xlink:title="INMOST::Sparse::Row::End">
<polygon fill="none" stroke="black" points="176,-0.5 176,-19.5 314,-19.5 314,-0.5 176,-0.5"/>
<text text-anchor="middle" x="245" y="-7.5" font-family="Helvetica,sans-Serif" font-size="10.00">INMOST::Sparse::Row::End</text>
</a>
</g>
</g>
<!-- Node1&#45;&gt;Node4 -->
<g id="edge3" class="edge"><title>Node1&#45;&gt;Node4</title>
<path fill="none" stroke="midnightblue" d="M140.369,-23.1785C148.656,-22.1247 157.161,-21.0431 165.565,-19.9744"/>
<polygon fill="midnightblue" stroke="midnightblue" points="166.264,-23.4138 175.742,-18.6802 165.381,-16.4697 166.264,-23.4138"/>
</g>
<!-- Node3 -->
<g id="node3" class="node"><title>Node3</title>
<g id="a_node3"><a xlink:href="class_i_n_m_o_s_t_1_1dynarray.html#a95d4cabcea41ee216d2ccd310d04cd61" target="_top" xlink:title="INMOST::dynarray::begin">
<polygon fill="none" stroke="black" points="350,-44.5 350,-63.5 476,-63.5 476,-44.5 350,-44.5"/>
<text text-anchor="middle" x="413" y="-51.5" font-family="Helvetica,sans-Serif" font-size="10.00">INMOST::dynarray::begin</text>
</a>
</g>
</g>
<!-- Node2&#45;&gt;Node3 -->
<g id="edge2" class="edge"><title>Node2&#45;&gt;Node3</title>
<path fill="none" stroke="midnightblue" d="M302.663,-54C314.551,-54 327.242,-54 339.613,-54"/>
<polygon fill="midnightblue" stroke="midnightblue" points="339.906,-57.5001 349.906,-54 339.906,-50.5001 339.906,-57.5001"/>
</g>
<!-- Node5 -->
<g id="node5" class="node"><title>Node5</title>
<g id="a_node5"><a xlink:href="class_i_n_m_o_s_t_1_1dynarray.html#ad3e9af27a79aa4c5a57635546091a33d" target="_top" xlink:title="INMOST::dynarray::end">
<polygon fill="none" stroke="black" points="353.5,-0.5 353.5,-19.5 472.5,-19.5 472.5,-0.5 353.5,-0.5"/>
<text text-anchor="middle" x="413" y="-7.5" font-family="Helvetica,sans-Serif" font-size="10.00">INMOST::dynarray::end</text>
</a>
</g>
</g>
<!-- Node4&#45;&gt;Node5 -->
<g id="edge4" class="edge"><title>Node4&#45;&gt;Node5</title>
<path fill="none" stroke="midnightblue" d="M314.477,-10C323.987,-10 333.76,-10 343.274,-10"/>
<polygon fill="midnightblue" stroke="midnightblue" points="343.473,-13.5001 353.473,-10 343.473,-6.5001 343.473,-13.5001"/>
</g>
</g>
</svg>
