<?xml version="1.0" encoding="UTF-8" standalone="no"?>
<!DOCTYPE svg PUBLIC "-//W3C//DTD SVG 1.1//EN"
 "http://www.w3.org/Graphics/SVG/1.1/DTD/svg11.dtd">
<!-- Generated by graphviz version 2.38.0 (20140413.2041)
 -->
<!-- Title: INMOST::interval::get_interval_beg Pages: 1 -->
<svg width="278pt" height="186pt"
 viewBox="0.00 0.00 278.00 186.00" xmlns="http://www.w3.org/2000/svg" xmlns:xlink="http://www.w3.org/1999/xlink">
<g id="graph0" class="graph" transform="scale(1 1) rotate(0) translate(4 182)">
<title>INMOST::interval::get_interval_beg</title>
<!-- Node1 -->
<g id="node1" class="node"><title>Node1</title>
<polygon fill="#bfbfbf" stroke="black" points="0,-73.5 0,-103.5 109,-103.5 109,-73.5 0,-73.5"/>
<text text-anchor="start" x="8" y="-91.5" font-family="Helvetica,sans-Serif" font-size="10.00">INMOST::interval::get</text>
<text text-anchor="middle" x="54.5" y="-80.5" font-family="Helvetica,sans-Serif" font-size="10.00">_interval_beg</text>
</g>
<!-- Node2 -->
<g id="node2" class="node"><title>Node2</title>
<g id="a_node2"><a xlink:href="class_i_n_m_o_s_t_1_1_sparse_1_1_vector.html#ab9d6836898e3185a2089d9aa569ed1dd" target="_top" xlink:title="Get the start and the end of the distributed vector interval. ">
<polygon fill="none" stroke="black" points="145,-147.5 145,-177.5 270,-177.5 270,-147.5 145,-147.5"/>
<text text-anchor="start" x="153" y="-165.5" font-family="Helvetica,sans-Serif" font-size="10.00">INMOST::Sparse::Vector</text>
<text text-anchor="middle" x="207.5" y="-154.5" font-family="Helvetica,sans-Serif" font-size="10.00">::GetInterval</text>
</a>
</g>
</g>
<!-- Node1&#45;&gt;Node2 -->
<g id="edge1" class="edge"><title>Node1&#45;&gt;Node2</title>
<path fill="none" stroke="midnightblue" d="M89.2278,-108.788C105.755,-118.354 126.121,-129.594 145,-138.5 151.531,-141.581 158.571,-144.598 165.476,-147.398"/>
<polygon fill="midnightblue" stroke="midnightblue" points="90.874,-105.696 80.4745,-103.671 87.3413,-111.74 90.874,-105.696"/>
</g>
<!-- Node3 -->
<g id="node3" class="node"><title>Node3</title>
<g id="a_node3"><a xlink:href="class_i_n_m_o_s_t_1_1_sparse_1_1_vector.html#afb0ef479c610a8c1dd15e7df31c10b5c" target="_top" xlink:title="Get the first index of the distributed vector interval. ">
<polygon fill="none" stroke="black" points="145,-98.5 145,-128.5 270,-128.5 270,-98.5 145,-98.5"/>
<text text-anchor="start" x="153" y="-116.5" font-family="Helvetica,sans-Serif" font-size="10.00">INMOST::Sparse::Vector</text>
<text text-anchor="middle" x="207.5" y="-105.5" font-family="Helvetica,sans-Serif" font-size="10.00">::GetFirstIndex</text>
</a>
</g>
</g>
<!-- Node1&#45;&gt;Node3 -->
<g id="edge2" class="edge"><title>Node1&#45;&gt;Node3</title>
<path fill="none" stroke="midnightblue" d="M119.039,-99.0197C127.557,-100.43 136.283,-101.875 144.769,-103.28"/>
<polygon fill="midnightblue" stroke="midnightblue" points="119.6,-95.5649 109.162,-97.3845 118.456,-102.471 119.6,-95.5649"/>
</g>
<!-- Node4 -->
<g id="node4" class="node"><title>Node4</title>
<g id="a_node4"><a xlink:href="class_i_n_m_o_s_t_1_1_sparse_1_1_matrix.html#a8c5b4a6c9b7a6ca617486ce103f47370" target="_top" xlink:title="Get the start and the end row numbers of the distributed matrix interval. ">
<polygon fill="none" stroke="black" points="146,-49.5 146,-79.5 269,-79.5 269,-49.5 146,-49.5"/>
<text text-anchor="start" x="154" y="-67.5" font-family="Helvetica,sans-Serif" font-size="10.00">INMOST::Sparse::Matrix</text>
<text text-anchor="middle" x="207.5" y="-56.5" font-family="Helvetica,sans-Serif" font-size="10.00">::GetInterval</text>
</a>
</g>
</g>
<!-- Node1&#45;&gt;Node4 -->
<g id="edge3" class="edge"><title>Node1&#45;&gt;Node4</title>
<path fill="none" stroke="midnightblue" d="M119.047,-78.3998C127.911,-76.991 137,-75.5463 145.81,-74.1461"/>
<polygon fill="midnightblue" stroke="midnightblue" points="118.489,-74.9445 109.162,-79.9709 119.588,-81.8577 118.489,-74.9445"/>
</g>
<!-- Node5 -->
<g id="node5" class="node"><title>Node5</title>
<g id="a_node5"><a xlink:href="class_i_n_m_o_s_t_1_1_sparse_1_1_matrix.html#a8e79ac496dcedb739c90bf5c60e61ee5" target="_top" xlink:title="Get the first row index of the distributed matrix interval. ">
<polygon fill="none" stroke="black" points="146,-0.5 146,-30.5 269,-30.5 269,-0.5 146,-0.5"/>
<text text-anchor="start" x="154" y="-18.5" font-family="Helvetica,sans-Serif" font-size="10.00">INMOST::Sparse::Matrix</text>
<text text-anchor="middle" x="207.5" y="-7.5" font-family="Helvetica,sans-Serif" font-size="10.00">::GetFirstIndex</text>
</a>
</g>
</g>
<!-- Node1&#45;&gt;Node5 -->
<g id="edge4" class="edge"><title>Node1&#45;&gt;Node5</title>
<path fill="none" stroke="midnightblue" d="M90.9042,-68.3933C107.178,-59.4428 126.857,-49.0233 145,-40.5 152.198,-37.1185 159.983,-33.7437 167.517,-30.6176"/>
<polygon fill="midnightblue" stroke="midnightblue" points="88.8013,-65.5573 81.7536,-73.4681 92.1963,-71.6789 88.8013,-65.5573"/>
</g>
</g>
</svg>
