<?xml version="1.0" encoding="UTF-8" standalone="no"?>
<!DOCTYPE svg PUBLIC "-//W3C//DTD SVG 1.1//EN"
 "http://www.w3.org/Graphics/SVG/1.1/DTD/svg11.dtd">
<!-- Generated by graphviz version 2.38.0 (20140413.2041)
 -->
<!-- Title: INMOST::ElementArray&lt; StorageType &gt;::const_reverse_iterator Pages: 1 -->
<svg width="135pt" height="281pt"
 viewBox="0.00 0.00 135.00 281.00" xmlns="http://www.w3.org/2000/svg" xmlns:xlink="http://www.w3.org/1999/xlink">
<g id="graph0" class="graph" transform="scale(1 1) rotate(0) translate(4 277)">
<title>INMOST::ElementArray&lt; StorageType &gt;::const_reverse_iterator</title>
<!-- Node1 -->
<g id="node1" class="node"><title>Node1</title>
<polygon fill="#bfbfbf" stroke="black" points="0,-0.5 0,-167.5 127,-167.5 127,-0.5 0,-0.5"/>
<text text-anchor="start" x="8" y="-155.5" font-family="Helvetica,sans-Serif" font-size="10.00">INMOST::ElementArray</text>
<text text-anchor="start" x="8" y="-144.5" font-family="Helvetica,sans-Serif" font-size="10.00">&lt; StorageType &gt;::const</text>
<text text-anchor="middle" x="63.5" y="-133.5" font-family="Helvetica,sans-Serif" font-size="10.00">_reverse_iterator</text>
<polyline fill="none" stroke="black" points="0,-126.5 127,-126.5 "/>
<text text-anchor="middle" x="63.5" y="-114.5" font-family="Helvetica,sans-Serif" font-size="10.00"> </text>
<polyline fill="none" stroke="black" points="0,-107.5 127,-107.5 "/>
<text text-anchor="start" x="8" y="-95.5" font-family="Helvetica,sans-Serif" font-size="10.00">+ const_reverse_iterator()</text>
<text text-anchor="start" x="8" y="-84.5" font-family="Helvetica,sans-Serif" font-size="10.00">+ const_reverse_iterator()</text>
<text text-anchor="start" x="8" y="-73.5" font-family="Helvetica,sans-Serif" font-size="10.00">+ operator++()</text>
<text text-anchor="start" x="8" y="-62.5" font-family="Helvetica,sans-Serif" font-size="10.00">+ operator++()</text>
<text text-anchor="start" x="8" y="-51.5" font-family="Helvetica,sans-Serif" font-size="10.00">+ operator&#45;&#45;()</text>
<text text-anchor="start" x="8" y="-40.5" font-family="Helvetica,sans-Serif" font-size="10.00">+ operator&#45;&#45;()</text>
<text text-anchor="start" x="8" y="-29.5" font-family="Helvetica,sans-Serif" font-size="10.00">+ operator=()</text>
<text text-anchor="start" x="8" y="-18.5" font-family="Helvetica,sans-Serif" font-size="10.00">+ operator*()</text>
<text text-anchor="start" x="8" y="-7.5" font-family="Helvetica,sans-Serif" font-size="10.00">+ operator&#45;&gt;()</text>
</g>
<!-- Node2 -->
<g id="node2" class="node"><title>Node2</title>
<polygon fill="none" stroke="#bfbfbf" points="8.5,-204.5 8.5,-272.5 118.5,-272.5 118.5,-204.5 8.5,-204.5"/>
<text text-anchor="start" x="16.5" y="-260.5" font-family="Helvetica,sans-Serif" font-size="10.00">cont_t::const_reverse</text>
<text text-anchor="middle" x="63.5" y="-249.5" font-family="Helvetica,sans-Serif" font-size="10.00">_iterator</text>
<polyline fill="none" stroke="#bfbfbf" points="8.5,-242.5 118.5,-242.5 "/>
<text text-anchor="middle" x="63.5" y="-230.5" font-family="Helvetica,sans-Serif" font-size="10.00"> </text>
<polyline fill="none" stroke="#bfbfbf" points="8.5,-223.5 118.5,-223.5 "/>
<text text-anchor="middle" x="63.5" y="-211.5" font-family="Helvetica,sans-Serif" font-size="10.00"> </text>
</g>
<!-- Node2&#45;&gt;Node1 -->
<g id="edge1" class="edge"><title>Node2&#45;&gt;Node1</title>
<path fill="none" stroke="midnightblue" d="M63.5,-194.229C63.5,-185.884 63.5,-176.887 63.5,-167.765"/>
<polygon fill="none" stroke="midnightblue" points="60.0001,-194.41 63.5,-204.41 67.0001,-194.41 60.0001,-194.41"/>
</g>
</g>
</svg>
