<?xml version="1.0" encoding="UTF-8" standalone="no"?>
<!DOCTYPE svg PUBLIC "-//W3C//DTD SVG 1.1//EN"
 "http://www.w3.org/Graphics/SVG/1.1/DTD/svg11.dtd">
<!-- Generated by graphviz version 2.38.0 (20140413.2041)
 -->
<!-- Title: INMOST::ElementSet::getHandles Pages: 1 -->
<svg width="304pt" height="124pt"
 viewBox="0.00 0.00 304.00 124.00" xmlns="http://www.w3.org/2000/svg" xmlns:xlink="http://www.w3.org/1999/xlink">
<g id="graph0" class="graph" transform="scale(1 1) rotate(0) translate(4 120)">
<title>INMOST::ElementSet::getHandles</title>
<!-- Node1 -->
<g id="node1" class="node"><title>Node1</title>
<polygon fill="#bfbfbf" stroke="black" points="0,-33.5 0,-63.5 110,-63.5 110,-33.5 0,-33.5"/>
<text text-anchor="start" x="8" y="-51.5" font-family="Helvetica,sans-Serif" font-size="10.00">INMOST::ElementSet</text>
<text text-anchor="middle" x="55" y="-40.5" font-family="Helvetica,sans-Serif" font-size="10.00">::getHandles</text>
</g>
<!-- Node2 -->
<g id="node2" class="node"><title>Node2</title>
<g id="a_node2"><a xlink:href="class_i_n_m_o_s_t_1_1_element_set.html#a6d09e6ad48a8746c01b0dfccb21441ae" target="_top" xlink:title="Put multiple handles of the other set without checking of the existance of duplicate. ">
<polygon fill="none" stroke="black" points="166,-67.5 166,-97.5 276,-97.5 276,-67.5 166,-67.5"/>
<text text-anchor="start" x="174" y="-85.5" font-family="Helvetica,sans-Serif" font-size="10.00">INMOST::ElementSet</text>
<text text-anchor="middle" x="221" y="-74.5" font-family="Helvetica,sans-Serif" font-size="10.00">::PutElements</text>
</a>
</g>
</g>
<!-- Node1&#45;&gt;Node2 -->
<g id="edge1" class="edge"><title>Node1&#45;&gt;Node2</title>
<path fill="none" stroke="midnightblue" d="M119.982,-61.7646C135.163,-64.9119 151.211,-68.2389 165.903,-71.2847"/>
<polygon fill="midnightblue" stroke="midnightblue" points="120.657,-58.3301 110.154,-59.7271 119.236,-65.1843 120.657,-58.3301"/>
</g>
<!-- Node3 -->
<g id="node3" class="node"><title>Node3</title>
<g id="a_node3"><a xlink:href="class_i_n_m_o_s_t_1_1_mesh.html#a5c59c400e41943ea87dbb1f0eff1e2bd" target="_top" xlink:title="INMOST::Mesh::RemoveGhost\lElements">
<polygon fill="none" stroke="black" points="146,-0.5 146,-30.5 296,-30.5 296,-0.5 146,-0.5"/>
<text text-anchor="start" x="154" y="-18.5" font-family="Helvetica,sans-Serif" font-size="10.00">INMOST::Mesh::RemoveGhost</text>
<text text-anchor="middle" x="221" y="-7.5" font-family="Helvetica,sans-Serif" font-size="10.00">Elements</text>
</a>
</g>
</g>
<!-- Node1&#45;&gt;Node3 -->
<g id="edge3" class="edge"><title>Node1&#45;&gt;Node3</title>
<path fill="none" stroke="midnightblue" d="M120.009,-35.6201C128.531,-33.9053 137.326,-32.1356 146,-30.3903"/>
<polygon fill="midnightblue" stroke="midnightblue" points="119.267,-32.1991 110.154,-37.6031 120.648,-39.0616 119.267,-32.1991"/>
</g>
<!-- Node2&#45;&gt;Node2 -->
<g id="edge2" class="edge"><title>Node2&#45;&gt;Node2</title>
<path fill="none" stroke="midnightblue" d="M191.504,-107.958C195.165,-112.679 204.997,-116 221,-116 247.262,-116 256.905,-107.057 249.929,-97.659"/>
<polygon fill="midnightblue" stroke="midnightblue" points="195.016,-107.836 192.071,-97.659 188.026,-107.451 195.016,-107.836"/>
</g>
<!-- Node3&#45;&gt;Node3 -->
<g id="edge4" class="edge"><title>Node3&#45;&gt;Node3</title>
<path fill="none" stroke="midnightblue" d="M191.504,-40.9579C195.165,-45.679 204.997,-49 221,-49 247.262,-49 256.905,-40.0566 249.929,-30.659"/>
<polygon fill="midnightblue" stroke="midnightblue" points="195.016,-40.8364 192.071,-30.659 188.026,-40.4513 195.016,-40.8364"/>
</g>
</g>
</svg>
