<?xml version="1.0" encoding="UTF-8" standalone="no"?>
<!DOCTYPE svg PUBLIC "-//W3C//DTD SVG 1.1//EN"
 "http://www.w3.org/Graphics/SVG/1.1/DTD/svg11.dtd">
<!-- Generated by graphviz version 2.38.0 (20140413.2041)
 -->
<!-- Title: INMOST::chunk_array::empty Pages: 1 -->
<svg width="297pt" height="203pt"
 viewBox="0.00 0.00 297.00 203.00" xmlns="http://www.w3.org/2000/svg" xmlns:xlink="http://www.w3.org/1999/xlink">
<g id="graph0" class="graph" transform="scale(1 1) rotate(0) translate(4 199)">
<title>INMOST::chunk_array::empty</title>
<!-- Node1 -->
<g id="node1" class="node"><title>Node1</title>
<polygon fill="#bfbfbf" stroke="black" points="0,-82.5 0,-112.5 113,-112.5 113,-82.5 0,-82.5"/>
<text text-anchor="start" x="8" y="-100.5" font-family="Helvetica,sans-Serif" font-size="10.00">INMOST::chunk_array</text>
<text text-anchor="middle" x="56.5" y="-89.5" font-family="Helvetica,sans-Serif" font-size="10.00">::empty</text>
</g>
<!-- Node2 -->
<g id="node2" class="node"><title>Node2</title>
<g id="a_node2"><a xlink:href="class_i_n_m_o_s_t_1_1chunk__array.html#ae98c746460dcdbfcbdf1f1ba5d8d1f94" target="_top" xlink:title="INMOST::chunk_array\l\&lt; INMOST_DATA_INTEGER\l_TYPE, chunk_bits_elems\l \&gt;::front">
<polygon fill="none" stroke="black" points="149,-142.5 149,-194.5 289,-194.5 289,-142.5 149,-142.5"/>
<text text-anchor="start" x="157" y="-182.5" font-family="Helvetica,sans-Serif" font-size="10.00">INMOST::chunk_array</text>
<text text-anchor="start" x="157" y="-171.5" font-family="Helvetica,sans-Serif" font-size="10.00">&lt; INMOST_DATA_INTEGER</text>
<text text-anchor="start" x="157" y="-160.5" font-family="Helvetica,sans-Serif" font-size="10.00">_TYPE, chunk_bits_elems</text>
<text text-anchor="middle" x="219" y="-149.5" font-family="Helvetica,sans-Serif" font-size="10.00"> &gt;::front</text>
</a>
</g>
</g>
<!-- Node1&#45;&gt;Node2 -->
<g id="edge1" class="edge"><title>Node1&#45;&gt;Node2</title>
<path fill="none" stroke="midnightblue" d="M101.103,-116.789C118.946,-124.682 139.867,-133.937 159.04,-142.418"/>
<polygon fill="midnightblue" stroke="midnightblue" points="102.099,-113.402 91.5379,-112.557 99.2671,-119.804 102.099,-113.402"/>
</g>
<!-- Node3 -->
<g id="node3" class="node"><title>Node3</title>
<g id="a_node3"><a xlink:href="class_i_n_m_o_s_t_1_1chunk__array.html#aa93281054f3c4fd9347a0d1832245cfa" target="_top" xlink:title="INMOST::chunk_array\l\&lt; INMOST_DATA_INTEGER\l_TYPE, chunk_bits_elems\l \&gt;::back">
<polygon fill="none" stroke="black" points="149,-71.5 149,-123.5 289,-123.5 289,-71.5 149,-71.5"/>
<text text-anchor="start" x="157" y="-111.5" font-family="Helvetica,sans-Serif" font-size="10.00">INMOST::chunk_array</text>
<text text-anchor="start" x="157" y="-100.5" font-family="Helvetica,sans-Serif" font-size="10.00">&lt; INMOST_DATA_INTEGER</text>
<text text-anchor="start" x="157" y="-89.5" font-family="Helvetica,sans-Serif" font-size="10.00">_TYPE, chunk_bits_elems</text>
<text text-anchor="middle" x="219" y="-78.5" font-family="Helvetica,sans-Serif" font-size="10.00"> &gt;::back</text>
</a>
</g>
</g>
<!-- Node1&#45;&gt;Node3 -->
<g id="edge2" class="edge"><title>Node1&#45;&gt;Node3</title>
<path fill="none" stroke="midnightblue" d="M123.317,-97.5C131.734,-97.5 140.369,-97.5 148.837,-97.5"/>
<polygon fill="midnightblue" stroke="midnightblue" points="123.185,-94.0001 113.185,-97.5 123.185,-101 123.185,-94.0001"/>
</g>
<!-- Node4 -->
<g id="node4" class="node"><title>Node4</title>
<g id="a_node4"><a xlink:href="class_i_n_m_o_s_t_1_1chunk__array.html#a0bffae66818379747397f3315e32d388" target="_top" xlink:title="INMOST::chunk_array\l\&lt; INMOST_DATA_INTEGER\l_TYPE, chunk_bits_elems\l \&gt;::pop_back">
<polygon fill="none" stroke="black" points="149,-0.5 149,-52.5 289,-52.5 289,-0.5 149,-0.5"/>
<text text-anchor="start" x="157" y="-40.5" font-family="Helvetica,sans-Serif" font-size="10.00">INMOST::chunk_array</text>
<text text-anchor="start" x="157" y="-29.5" font-family="Helvetica,sans-Serif" font-size="10.00">&lt; INMOST_DATA_INTEGER</text>
<text text-anchor="start" x="157" y="-18.5" font-family="Helvetica,sans-Serif" font-size="10.00">_TYPE, chunk_bits_elems</text>
<text text-anchor="middle" x="219" y="-7.5" font-family="Helvetica,sans-Serif" font-size="10.00"> &gt;::pop_back</text>
</a>
</g>
</g>
<!-- Node1&#45;&gt;Node4 -->
<g id="edge3" class="edge"><title>Node1&#45;&gt;Node4</title>
<path fill="none" stroke="midnightblue" d="M101.103,-78.2113C118.946,-70.3182 139.867,-61.0634 159.04,-52.5818"/>
<polygon fill="midnightblue" stroke="midnightblue" points="99.2671,-75.1963 91.5379,-82.4427 102.099,-81.598 99.2671,-75.1963"/>
</g>
</g>
</svg>
