<?xml version="1.0" encoding="UTF-8" standalone="no"?>
<!DOCTYPE svg PUBLIC "-//W3C//DTD SVG 1.1//EN"
 "http://www.w3.org/Graphics/SVG/1.1/DTD/svg11.dtd">
<!-- Generated by graphviz version 2.38.0 (20140413.2041)
 -->
<!-- Title: INMOST::Mesh::FaceByLocalID Pages: 1 -->
<svg width="502pt" height="28pt"
 viewBox="0.00 0.00 502.00 28.00" xmlns="http://www.w3.org/2000/svg" xmlns:xlink="http://www.w3.org/1999/xlink">
<g id="graph0" class="graph" transform="scale(1 1) rotate(0) translate(4 24)">
<title>INMOST::Mesh::FaceByLocalID</title>
<!-- Node1 -->
<g id="node1" class="node"><title>Node1</title>
<polygon fill="#bfbfbf" stroke="black" points="0,-0.5 0,-19.5 155,-19.5 155,-0.5 0,-0.5"/>
<text text-anchor="middle" x="77.5" y="-7.5" font-family="Helvetica,sans-Serif" font-size="10.00">INMOST::Mesh::FaceByLocalID</text>
</g>
<!-- Node2 -->
<g id="node2" class="node"><title>Node2</title>
<g id="a_node2"><a xlink:href="namespace_i_n_m_o_s_t.html#adfd1fb8f456156532c262eac5e045aa3" target="_top" xlink:title="INMOST::ComposeHandleNum">
<polygon fill="none" stroke="black" points="191,-0.5 191,-19.5 342,-19.5 342,-0.5 191,-0.5"/>
<text text-anchor="middle" x="266.5" y="-7.5" font-family="Helvetica,sans-Serif" font-size="10.00">INMOST::ComposeHandleNum</text>
</a>
</g>
</g>
<!-- Node1&#45;&gt;Node2 -->
<g id="edge1" class="edge"><title>Node1&#45;&gt;Node2</title>
<path fill="none" stroke="midnightblue" d="M155.1,-10C163.582,-10 172.256,-10 180.83,-10"/>
<polygon fill="midnightblue" stroke="midnightblue" points="180.832,-13.5001 190.832,-10 180.832,-6.5001 180.832,-13.5001"/>
</g>
<!-- Node3 -->
<g id="node3" class="node"><title>Node3</title>
<g id="a_node3"><a xlink:href="namespace_i_n_m_o_s_t.html#a115b3e54c3b7be04ffec9b69c058df18" target="_top" xlink:title="INMOST::InvalidHandle">
<polygon fill="none" stroke="black" points="378,-0.5 378,-19.5 494,-19.5 494,-0.5 378,-0.5"/>
<text text-anchor="middle" x="436" y="-7.5" font-family="Helvetica,sans-Serif" font-size="10.00">INMOST::InvalidHandle</text>
</a>
</g>
</g>
<!-- Node2&#45;&gt;Node3 -->
<g id="edge2" class="edge"><title>Node2&#45;&gt;Node3</title>
<path fill="none" stroke="midnightblue" d="M342.432,-10C350.854,-10 359.396,-10 367.713,-10"/>
<polygon fill="midnightblue" stroke="midnightblue" points="367.722,-13.5001 377.722,-10 367.722,-6.5001 367.722,-13.5001"/>
</g>
</g>
</svg>
