<?xml version="1.0" encoding="UTF-8" standalone="no"?>
<!DOCTYPE svg PUBLIC "-//W3C//DTD SVG 1.1//EN"
 "http://www.w3.org/Graphics/SVG/1.1/DTD/svg11.dtd">
<!-- Generated by graphviz version 2.38.0 (20140413.2041)
 -->
<!-- Title: INMOST::tiny_map::operator[] Pages: 1 -->
<svg width="340pt" height="142pt"
 viewBox="0.00 0.00 340.00 142.00" xmlns="http://www.w3.org/2000/svg" xmlns:xlink="http://www.w3.org/1999/xlink">
<g id="graph0" class="graph" transform="scale(1 1) rotate(0) translate(4 138)">
<title>INMOST::tiny_map::operator[]</title>
<!-- Node1 -->
<g id="node1" class="node"><title>Node1</title>
<polygon fill="#bfbfbf" stroke="black" points="0,-57.5 0,-76.5 146,-76.5 146,-57.5 0,-57.5"/>
<text text-anchor="middle" x="73" y="-64.5" font-family="Helvetica,sans-Serif" font-size="10.00">INMOST::tiny_map::operator[]</text>
</g>
<!-- Node2 -->
<g id="node2" class="node"><title>Node2</title>
<g id="a_node2"><a xlink:href="class_i_n_m_o_s_t_1_1dynarray.html#a95d4cabcea41ee216d2ccd310d04cd61" target="_top" xlink:title="INMOST::dynarray::begin">
<polygon fill="none" stroke="black" points="194,-114.5 194,-133.5 320,-133.5 320,-114.5 194,-114.5"/>
<text text-anchor="middle" x="257" y="-121.5" font-family="Helvetica,sans-Serif" font-size="10.00">INMOST::dynarray::begin</text>
</a>
</g>
</g>
<!-- Node1&#45;&gt;Node2 -->
<g id="edge1" class="edge"><title>Node1&#45;&gt;Node2</title>
<path fill="none" stroke="midnightblue" d="M99.108,-76.5325C120.867,-84.6251 153.281,-96.2788 182,-105 189.85,-107.384 198.226,-109.725 206.417,-111.905"/>
<polygon fill="midnightblue" stroke="midnightblue" points="205.707,-115.337 216.267,-114.476 207.475,-108.564 205.707,-115.337"/>
</g>
<!-- Node3 -->
<g id="node3" class="node"><title>Node3</title>
<g id="a_node3"><a xlink:href="class_i_n_m_o_s_t_1_1dynarray.html#ad3e9af27a79aa4c5a57635546091a33d" target="_top" xlink:title="INMOST::dynarray::end">
<polygon fill="none" stroke="black" points="197.5,-76.5 197.5,-95.5 316.5,-95.5 316.5,-76.5 197.5,-76.5"/>
<text text-anchor="middle" x="257" y="-83.5" font-family="Helvetica,sans-Serif" font-size="10.00">INMOST::dynarray::end</text>
</a>
</g>
</g>
<!-- Node1&#45;&gt;Node3 -->
<g id="edge2" class="edge"><title>Node1&#45;&gt;Node3</title>
<path fill="none" stroke="midnightblue" d="M146.193,-74.5366C159.716,-75.9484 173.819,-77.4207 187.236,-78.8213"/>
<polygon fill="midnightblue" stroke="midnightblue" points="187.031,-82.3189 197.34,-79.8762 187.758,-75.3567 187.031,-82.3189"/>
</g>
<!-- Node4 -->
<g id="node4" class="node"><title>Node4</title>
<g id="a_node4"><a xlink:href="class_i_n_m_o_s_t_1_1dynarray.html#accbf4d646f6337f58160ceca6e6f084d" target="_top" xlink:title="INMOST::dynarray::push_back">
<polygon fill="none" stroke="black" points="182,-38.5 182,-57.5 332,-57.5 332,-38.5 182,-38.5"/>
<text text-anchor="middle" x="257" y="-45.5" font-family="Helvetica,sans-Serif" font-size="10.00">INMOST::dynarray::push_back</text>
</a>
</g>
</g>
<!-- Node1&#45;&gt;Node4 -->
<g id="edge3" class="edge"><title>Node1&#45;&gt;Node4</title>
<path fill="none" stroke="midnightblue" d="M146.193,-59.4634C154.61,-58.5847 163.251,-57.6825 171.812,-56.7888"/>
<polygon fill="midnightblue" stroke="midnightblue" points="172.224,-60.265 181.807,-55.7455 171.497,-53.3028 172.224,-60.265"/>
</g>
<!-- Node5 -->
<g id="node5" class="node"><title>Node5</title>
<g id="a_node5"><a xlink:href="class_i_n_m_o_s_t_1_1dynarray.html#ac93cbe00824a74cea9848d0c66ac1f45" target="_top" xlink:title="INMOST::dynarray::back">
<polygon fill="none" stroke="black" points="195,-0.5 195,-19.5 319,-19.5 319,-0.5 195,-0.5"/>
<text text-anchor="middle" x="257" y="-7.5" font-family="Helvetica,sans-Serif" font-size="10.00">INMOST::dynarray::back</text>
</a>
</g>
</g>
<!-- Node1&#45;&gt;Node5 -->
<g id="edge4" class="edge"><title>Node1&#45;&gt;Node5</title>
<path fill="none" stroke="midnightblue" d="M99.108,-57.4675C120.867,-49.3749 153.281,-37.7212 182,-29 189.85,-26.6162 198.226,-24.2751 206.417,-22.0953"/>
<polygon fill="midnightblue" stroke="midnightblue" points="207.475,-25.4365 216.267,-19.5244 205.707,-18.6634 207.475,-25.4365"/>
</g>
</g>
</svg>
