<?xml version="1.0" encoding="UTF-8" standalone="no"?>
<!DOCTYPE svg PUBLIC "-//W3C//DTD SVG 1.1//EN"
 "http://www.w3.org/Graphics/SVG/1.1/DTD/svg11.dtd">
<!-- Generated by graphviz version 2.38.0 (20140413.2041)
 -->
<!-- Title: INMOST::Tag::GetSize Pages: 1 -->
<svg width="541pt" height="264pt"
 viewBox="0.00 0.00 541.00 263.50" xmlns="http://www.w3.org/2000/svg" xmlns:xlink="http://www.w3.org/1999/xlink">
<g id="graph0" class="graph" transform="scale(1 1) rotate(0) translate(4 259.5)">
<title>INMOST::Tag::GetSize</title>
<!-- Node1 -->
<g id="node1" class="node"><title>Node1</title>
<polygon fill="#bfbfbf" stroke="black" points="0,-125 0,-144 116,-144 116,-125 0,-125"/>
<text text-anchor="middle" x="58" y="-132" font-family="Helvetica,sans-Serif" font-size="10.00">INMOST::Tag::GetSize</text>
</g>
<!-- Node2 -->
<g id="node2" class="node"><title>Node2</title>
<g id="a_node2"><a xlink:href="class_i_n_m_o_s_t_1_1_mesh.html#a8527fa3c2f6ece108b5abce389566365" target="_top" xlink:title="INMOST::Mesh::RealArrayDF">
<polygon fill="none" stroke="black" points="164,-231 164,-250 309,-250 309,-231 164,-231"/>
<text text-anchor="middle" x="236.5" y="-238" font-family="Helvetica,sans-Serif" font-size="10.00">INMOST::Mesh::RealArrayDF</text>
</a>
</g>
</g>
<!-- Node1&#45;&gt;Node2 -->
<g id="edge1" class="edge"><title>Node1&#45;&gt;Node2</title>
<path fill="none" stroke="midnightblue" d="M73.9342,-151.577C91.0392,-170.123 120.756,-199.381 152,-216.5 163.244,-222.661 176.226,-227.376 188.554,-230.927"/>
<polygon fill="midnightblue" stroke="midnightblue" points="76.5035,-149.2 67.205,-144.122 71.3072,-153.89 76.5035,-149.2"/>
</g>
<!-- Node4 -->
<g id="node4" class="node"><title>Node4</title>
<g id="a_node4"><a xlink:href="class_i_n_m_o_s_t_1_1_mesh.html#a9d5351b2b6e7f7824598cb46b3c35118" target="_top" xlink:title="INMOST::Mesh::IntegerArrayDF">
<polygon fill="none" stroke="black" points="159,-188 159,-207 314,-207 314,-188 159,-188"/>
<text text-anchor="middle" x="236.5" y="-195" font-family="Helvetica,sans-Serif" font-size="10.00">INMOST::Mesh::IntegerArrayDF</text>
</a>
</g>
</g>
<!-- Node1&#45;&gt;Node4 -->
<g id="edge3" class="edge"><title>Node1&#45;&gt;Node4</title>
<path fill="none" stroke="midnightblue" d="M88.4169,-148.385C106.511,-156.615 130.311,-166.889 152,-174.5 166.33,-179.529 182.35,-184.169 196.496,-187.946"/>
<polygon fill="midnightblue" stroke="midnightblue" points="89.5491,-145.054 79.0016,-144.053 86.6233,-151.413 89.5491,-145.054"/>
</g>
<!-- Node6 -->
<g id="node6" class="node"><title>Node6</title>
<g id="a_node6"><a xlink:href="class_i_n_m_o_s_t_1_1_mesh.html#a53d63f6a251db48695306180f22ff67e" target="_top" xlink:title="INMOST::Mesh::BulkArrayDF">
<polygon fill="none" stroke="black" points="164,-146 164,-165 309,-165 309,-146 164,-146"/>
<text text-anchor="middle" x="236.5" y="-153" font-family="Helvetica,sans-Serif" font-size="10.00">INMOST::Mesh::BulkArrayDF</text>
</a>
</g>
</g>
<!-- Node1&#45;&gt;Node6 -->
<g id="edge5" class="edge"><title>Node1&#45;&gt;Node6</title>
<path fill="none" stroke="midnightblue" d="M126.458,-142.526C138.731,-143.986 151.574,-145.514 163.96,-146.988"/>
<polygon fill="midnightblue" stroke="midnightblue" points="126.648,-139.024 116.304,-141.318 125.821,-145.975 126.648,-139.024"/>
</g>
<!-- Node8 -->
<g id="node8" class="node"><title>Node8</title>
<g id="a_node8"><a xlink:href="class_i_n_m_o_s_t_1_1_mesh.html#a92ba4c935940111e2c9584a9cc96fe6f" target="_top" xlink:title="INMOST::Mesh::ReferenceArrayDF">
<polygon fill="none" stroke="black" points="152,-105 152,-124 321,-124 321,-105 152,-105"/>
<text text-anchor="middle" x="236.5" y="-112" font-family="Helvetica,sans-Serif" font-size="10.00">INMOST::Mesh::ReferenceArrayDF</text>
</a>
</g>
</g>
<!-- Node1&#45;&gt;Node8 -->
<g id="edge7" class="edge"><title>Node1&#45;&gt;Node8</title>
<path fill="none" stroke="midnightblue" d="M126.343,-126.869C134.699,-125.922 143.32,-124.945 151.883,-123.975"/>
<polygon fill="midnightblue" stroke="midnightblue" points="125.847,-123.403 116.304,-128.007 126.635,-130.358 125.847,-123.403"/>
</g>
<!-- Node10 -->
<g id="node10" class="node"><title>Node10</title>
<g id="a_node10"><a xlink:href="class_i_n_m_o_s_t_1_1_mesh.html#aa9375f7cdff4c060bb765028c95a9e73" target="_top" xlink:title="INMOST::Mesh::RemoteReference\lArrayDF">
<polygon fill="none" stroke="black" points="153,-53.5 153,-83.5 320,-83.5 320,-53.5 153,-53.5"/>
<text text-anchor="start" x="161" y="-71.5" font-family="Helvetica,sans-Serif" font-size="10.00">INMOST::Mesh::RemoteReference</text>
<text text-anchor="middle" x="236.5" y="-60.5" font-family="Helvetica,sans-Serif" font-size="10.00">ArrayDF</text>
</a>
</g>
</g>
<!-- Node1&#45;&gt;Node10 -->
<g id="edge9" class="edge"><title>Node1&#45;&gt;Node10</title>
<path fill="none" stroke="midnightblue" d="M89.6344,-120.886C107.646,-113.076 130.945,-103.303 152,-95.5 163.143,-91.3703 175.248,-87.2506 186.693,-83.5182"/>
<polygon fill="midnightblue" stroke="midnightblue" points="87.9829,-117.788 80.2201,-124.999 90.785,-124.203 87.9829,-117.788"/>
</g>
<!-- Node12 -->
<g id="node12" class="node"><title>Node12</title>
<g id="a_node12"><a xlink:href="class_i_n_m_o_s_t_1_1_mesh.html#ab2229cce6dd3256af03af46a30f951b0" target="_top" xlink:title="INMOST::Mesh::VariableArrayDF">
<polygon fill="none" stroke="black" points="156,-10 156,-29 317,-29 317,-10 156,-10"/>
<text text-anchor="middle" x="236.5" y="-17" font-family="Helvetica,sans-Serif" font-size="10.00">INMOST::Mesh::VariableArrayDF</text>
</a>
</g>
</g>
<!-- Node1&#45;&gt;Node12 -->
<g id="edge11" class="edge"><title>Node1&#45;&gt;Node12</title>
<path fill="none" stroke="midnightblue" d="M72.2714,-117.042C88.7795,-96.5109 118.861,-62.7924 152,-43.5 162.689,-37.2772 175.097,-32.5785 187.027,-29.0659"/>
<polygon fill="midnightblue" stroke="midnightblue" points="69.4824,-114.926 66.0582,-124.952 74.9874,-119.25 69.4824,-114.926"/>
</g>
<!-- Node3 -->
<g id="node3" class="node"><title>Node3</title>
<g id="a_node3"><a xlink:href="class_i_n_m_o_s_t_1_1_storage.html#aa36fe77acb2e5f25ffb2c5d8ffe62f00" target="_top" xlink:title="INMOST::Storage::RealArrayDF">
<polygon fill="none" stroke="black" points="367.5,-236 367.5,-255 522.5,-255 522.5,-236 367.5,-236"/>
<text text-anchor="middle" x="445" y="-243" font-family="Helvetica,sans-Serif" font-size="10.00">INMOST::Storage::RealArrayDF</text>
</a>
</g>
</g>
<!-- Node2&#45;&gt;Node3 -->
<g id="edge2" class="edge"><title>Node2&#45;&gt;Node3</title>
<path fill="none" stroke="midnightblue" d="M319.387,-242.483C335.151,-242.864 351.609,-243.263 367.204,-243.641"/>
<polygon fill="midnightblue" stroke="midnightblue" points="319.226,-238.978 309.144,-242.235 319.056,-245.976 319.226,-238.978"/>
</g>
<!-- Node5 -->
<g id="node5" class="node"><title>Node5</title>
<g id="a_node5"><a xlink:href="class_i_n_m_o_s_t_1_1_storage.html#a80b2983a2708257ca9ed5c1536bcd973" target="_top" xlink:title="INMOST::Storage::Integer\lArrayDF">
<polygon fill="none" stroke="black" points="381,-186.5 381,-216.5 509,-216.5 509,-186.5 381,-186.5"/>
<text text-anchor="start" x="389" y="-204.5" font-family="Helvetica,sans-Serif" font-size="10.00">INMOST::Storage::Integer</text>
<text text-anchor="middle" x="445" y="-193.5" font-family="Helvetica,sans-Serif" font-size="10.00">ArrayDF</text>
</a>
</g>
</g>
<!-- Node4&#45;&gt;Node5 -->
<g id="edge4" class="edge"><title>Node4&#45;&gt;Node5</title>
<path fill="none" stroke="midnightblue" d="M324.224,-199.18C343.166,-199.547 362.87,-199.928 380.696,-200.274"/>
<polygon fill="midnightblue" stroke="midnightblue" points="324.165,-195.678 314.1,-198.984 324.03,-202.677 324.165,-195.678"/>
</g>
<!-- Node7 -->
<g id="node7" class="node"><title>Node7</title>
<g id="a_node7"><a xlink:href="class_i_n_m_o_s_t_1_1_storage.html#a49114bf0e458263b1cc5e4ffeb54f070" target="_top" xlink:title="INMOST::Storage::BulkArrayDF">
<polygon fill="none" stroke="black" points="367.5,-148 367.5,-167 522.5,-167 522.5,-148 367.5,-148"/>
<text text-anchor="middle" x="445" y="-155" font-family="Helvetica,sans-Serif" font-size="10.00">INMOST::Storage::BulkArrayDF</text>
</a>
</g>
</g>
<!-- Node6&#45;&gt;Node7 -->
<g id="edge6" class="edge"><title>Node6&#45;&gt;Node7</title>
<path fill="none" stroke="midnightblue" d="M319.387,-156.293C335.151,-156.446 351.609,-156.605 367.204,-156.756"/>
<polygon fill="midnightblue" stroke="midnightblue" points="319.178,-152.791 309.144,-156.194 319.11,-159.791 319.178,-152.791"/>
</g>
<!-- Node9 -->
<g id="node9" class="node"><title>Node9</title>
<g id="a_node9"><a xlink:href="class_i_n_m_o_s_t_1_1_storage.html#afe7084f05e2a97ea2c618a66ca700eb7" target="_top" xlink:title="INMOST::Storage::Reference\lArrayDF">
<polygon fill="none" stroke="black" points="373.5,-98.5 373.5,-128.5 516.5,-128.5 516.5,-98.5 373.5,-98.5"/>
<text text-anchor="start" x="381.5" y="-116.5" font-family="Helvetica,sans-Serif" font-size="10.00">INMOST::Storage::Reference</text>
<text text-anchor="middle" x="445" y="-105.5" font-family="Helvetica,sans-Serif" font-size="10.00">ArrayDF</text>
</a>
</g>
</g>
<!-- Node8&#45;&gt;Node9 -->
<g id="edge8" class="edge"><title>Node8&#45;&gt;Node9</title>
<path fill="none" stroke="midnightblue" d="M331.419,-114.045C345.541,-113.977 359.897,-113.907 373.419,-113.842"/>
<polygon fill="midnightblue" stroke="midnightblue" points="331.177,-110.546 321.194,-114.095 331.211,-117.546 331.177,-110.546"/>
</g>
<!-- Node11 -->
<g id="node11" class="node"><title>Node11</title>
<g id="a_node11"><a xlink:href="class_i_n_m_o_s_t_1_1_storage.html#a3cd1655d88dce33bd65e477dbfb44299" target="_top" xlink:title="INMOST::Storage::RemoteReference\lArrayDF">
<polygon fill="none" stroke="black" points="357,-49.5 357,-79.5 533,-79.5 533,-49.5 357,-49.5"/>
<text text-anchor="start" x="365" y="-67.5" font-family="Helvetica,sans-Serif" font-size="10.00">INMOST::Storage::RemoteReference</text>
<text text-anchor="middle" x="445" y="-56.5" font-family="Helvetica,sans-Serif" font-size="10.00">ArrayDF</text>
</a>
</g>
</g>
<!-- Node10&#45;&gt;Node11 -->
<g id="edge10" class="edge"><title>Node10&#45;&gt;Node11</title>
<path fill="none" stroke="midnightblue" d="M330.032,-66.7076C338.967,-66.5345 348.011,-66.3594 356.891,-66.1873"/>
<polygon fill="midnightblue" stroke="midnightblue" points="329.935,-63.2087 320.005,-66.9018 330.07,-70.2074 329.935,-63.2087"/>
</g>
<!-- Node13 -->
<g id="node13" class="node"><title>Node13</title>
<g id="a_node13"><a xlink:href="class_i_n_m_o_s_t_1_1_storage.html#a432185af25c8a147b4ad646b6d92268c" target="_top" xlink:title="INMOST::Storage::Variable\lArrayDF">
<polygon fill="none" stroke="black" points="378,-0.5 378,-30.5 512,-30.5 512,-0.5 378,-0.5"/>
<text text-anchor="start" x="386" y="-18.5" font-family="Helvetica,sans-Serif" font-size="10.00">INMOST::Storage::Variable</text>
<text text-anchor="middle" x="445" y="-7.5" font-family="Helvetica,sans-Serif" font-size="10.00">ArrayDF</text>
</a>
</g>
</g>
<!-- Node12&#45;&gt;Node13 -->
<g id="edge12" class="edge"><title>Node12&#45;&gt;Node13</title>
<path fill="none" stroke="midnightblue" d="M327.508,-17.7565C344.443,-17.4285 361.86,-17.0911 377.898,-16.7804"/>
<polygon fill="midnightblue" stroke="midnightblue" points="326.973,-14.2661 317.043,-17.9592 327.109,-21.2648 326.973,-14.2661"/>
</g>
</g>
</svg>
