<?xml version="1.0" encoding="UTF-8" standalone="no"?>
<!DOCTYPE svg PUBLIC "-//W3C//DTD SVG 1.1//EN"
 "http://www.w3.org/Graphics/SVG/1.1/DTD/svg11.dtd">
<!-- Generated by graphviz version 2.38.0 (20140413.2041)
 -->
<!-- Title: INMOST::Mesh::isValidElement Pages: 1 -->
<svg width="360pt" height="104pt"
 viewBox="0.00 0.00 360.00 104.00" xmlns="http://www.w3.org/2000/svg" xmlns:xlink="http://www.w3.org/1999/xlink">
<g id="graph0" class="graph" transform="scale(1 1) rotate(0) translate(4 100)">
<title>INMOST::Mesh::isValidElement</title>
<!-- Node1 -->
<g id="node1" class="node"><title>Node1</title>
<polygon fill="#bfbfbf" stroke="black" points="0,-38.5 0,-57.5 155,-57.5 155,-38.5 0,-38.5"/>
<text text-anchor="middle" x="77.5" y="-45.5" font-family="Helvetica,sans-Serif" font-size="10.00">INMOST::Mesh::isValidElement</text>
</g>
<!-- Node1&#45;&gt;Node1 -->
<g id="edge2" class="edge"><title>Node1&#45;&gt;Node1</title>
<path fill="none" stroke="midnightblue" d="M47.599,-57.7571C33.0525,-66.5653 43.0195,-76 77.5,-76 101.744,-76 113.869,-71.3356 113.875,-65.5043"/>
<polygon fill="midnightblue" stroke="midnightblue" points="116.499,-63.1862 107.401,-57.7571 111.128,-67.6749 116.499,-63.1862"/>
</g>
<!-- Node2 -->
<g id="node2" class="node"><title>Node2</title>
<g id="a_node2"><a xlink:href="namespace_i_n_m_o_s_t.html#a751ed457382757b3e8ca9e163908e542" target="_top" xlink:title="INMOST::isValidHandle">
<polygon fill="none" stroke="black" points="212,-76.5 212,-95.5 331,-95.5 331,-76.5 212,-76.5"/>
<text text-anchor="middle" x="271.5" y="-83.5" font-family="Helvetica,sans-Serif" font-size="10.00">INMOST::isValidHandle</text>
</a>
</g>
</g>
<!-- Node1&#45;&gt;Node2 -->
<g id="edge1" class="edge"><title>Node1&#45;&gt;Node2</title>
<path fill="none" stroke="midnightblue" d="M126.95,-57.589C152.971,-62.739 185.228,-69.1232 212.569,-74.5344"/>
<polygon fill="midnightblue" stroke="midnightblue" points="211.909,-77.9718 222.399,-76.4799 213.269,-71.105 211.909,-77.9718"/>
</g>
<!-- Node3 -->
<g id="node3" class="node"><title>Node3</title>
<g id="a_node3"><a xlink:href="namespace_i_n_m_o_s_t.html#a6659a95d611050914b2761dd17256928" target="_top" xlink:title="INMOST::GetHandleElementNum">
<polygon fill="none" stroke="black" points="191,-38.5 191,-57.5 352,-57.5 352,-38.5 191,-38.5"/>
<text text-anchor="middle" x="271.5" y="-45.5" font-family="Helvetica,sans-Serif" font-size="10.00">INMOST::GetHandleElementNum</text>
</a>
</g>
</g>
<!-- Node1&#45;&gt;Node3 -->
<g id="edge3" class="edge"><title>Node1&#45;&gt;Node3</title>
<path fill="none" stroke="midnightblue" d="M155.211,-48C163.528,-48 172.047,-48 180.503,-48"/>
<polygon fill="midnightblue" stroke="midnightblue" points="180.769,-51.5001 190.769,-48 180.769,-44.5001 180.769,-51.5001"/>
</g>
<!-- Node4 -->
<g id="node4" class="node"><title>Node4</title>
<g id="a_node4"><a xlink:href="namespace_i_n_m_o_s_t.html#a661c89a10e3e2004d24295244bc60187" target="_top" xlink:title="INMOST::GetHandleID">
<polygon fill="none" stroke="black" points="214.5,-0.5 214.5,-19.5 328.5,-19.5 328.5,-0.5 214.5,-0.5"/>
<text text-anchor="middle" x="271.5" y="-7.5" font-family="Helvetica,sans-Serif" font-size="10.00">INMOST::GetHandleID</text>
</a>
</g>
</g>
<!-- Node1&#45;&gt;Node4 -->
<g id="edge4" class="edge"><title>Node1&#45;&gt;Node4</title>
<path fill="none" stroke="midnightblue" d="M126.95,-38.411C152.971,-33.261 185.228,-26.8768 212.569,-21.4656"/>
<polygon fill="midnightblue" stroke="midnightblue" points="213.269,-24.895 222.399,-19.5201 211.909,-18.0282 213.269,-24.895"/>
</g>
</g>
</svg>
