<?xml version="1.0" encoding="UTF-8" standalone="no"?>
<!DOCTYPE svg PUBLIC "-//W3C//DTD SVG 1.1//EN"
 "http://www.w3.org/Graphics/SVG/1.1/DTD/svg11.dtd">
<!-- Generated by graphviz version 2.38.0 (20140413.2041)
 -->
<!-- Title: INMOST::Matrix::Transpose Pages: 1 -->
<svg width="463pt" height="84pt"
 viewBox="0.00 0.00 463.00 84.00" xmlns="http://www.w3.org/2000/svg" xmlns:xlink="http://www.w3.org/1999/xlink">
<g id="graph0" class="graph" transform="scale(1 1) rotate(0) translate(4 80)">
<title>INMOST::Matrix::Transpose</title>
<!-- Node1 -->
<g id="node1" class="node"><title>Node1</title>
<polygon fill="#bfbfbf" stroke="black" points="0,-19.5 0,-38.5 137,-38.5 137,-19.5 0,-19.5"/>
<text text-anchor="middle" x="68.5" y="-26.5" font-family="Helvetica,sans-Serif" font-size="10.00">INMOST::Matrix::Transpose</text>
</g>
<!-- Node2 -->
<g id="node2" class="node"><title>Node2</title>
<g id="a_node2"><a xlink:href="class_i_n_m_o_s_t_1_1_matrix.html#adf8bb731b7c0899039b99f2399d938c6" target="_top" xlink:title="INMOST::Matrix::SVD">
<polygon fill="none" stroke="black" points="174,-38.5 174,-57.5 287,-57.5 287,-38.5 174,-38.5"/>
<text text-anchor="middle" x="230.5" y="-45.5" font-family="Helvetica,sans-Serif" font-size="10.00">INMOST::Matrix::SVD</text>
</a>
</g>
</g>
<!-- Node1&#45;&gt;Node2 -->
<g id="edge1" class="edge"><title>Node1&#45;&gt;Node2</title>
<path fill="none" stroke="midnightblue" d="M147.337,-38.2432C156.213,-39.2972 165.125,-40.3555 173.635,-41.366"/>
<polygon fill="midnightblue" stroke="midnightblue" points="147.697,-34.7614 137.354,-37.0577 146.872,-41.7126 147.697,-34.7614"/>
</g>
<!-- Node3 -->
<g id="node3" class="node"><title>Node3</title>
<g id="a_node3"><a xlink:href="class_i_n_m_o_s_t_1_1_matrix.html#ab621083d1f37df018feec6163618c1cd" target="_top" xlink:title="INMOST::Matrix::Invert">
<polygon fill="none" stroke="black" points="173,-0.5 173,-19.5 288,-19.5 288,-0.5 173,-0.5"/>
<text text-anchor="middle" x="230.5" y="-7.5" font-family="Helvetica,sans-Serif" font-size="10.00">INMOST::Matrix::Invert</text>
</a>
</g>
</g>
<!-- Node1&#45;&gt;Node3 -->
<g id="edge3" class="edge"><title>Node1&#45;&gt;Node3</title>
<path fill="none" stroke="midnightblue" d="M147.333,-19.7573C155.867,-18.744 164.433,-17.7267 172.643,-16.7518"/>
<polygon fill="midnightblue" stroke="midnightblue" points="146.872,-16.2874 137.354,-20.9423 147.697,-23.2386 146.872,-16.2874"/>
</g>
<!-- Node2&#45;&gt;Node2 -->
<g id="edge2" class="edge"><title>Node2&#45;&gt;Node2</title>
<path fill="none" stroke="midnightblue" d="M201.008,-66.6539C202.24,-71.9368 212.071,-76 230.5,-76 258.582,-76 266.699,-66.5653 254.852,-57.7571"/>
<polygon fill="midnightblue" stroke="midnightblue" points="204.176,-68.1668 206.148,-57.7571 198.114,-64.665 204.176,-68.1668"/>
</g>
<!-- Node4 -->
<g id="node4" class="node"><title>Node4</title>
<g id="a_node4"><a xlink:href="class_i_n_m_o_s_t_1_1_matrix.html#a308fc7a550c7de8c21b9ef17eecba603" target="_top" xlink:title="INMOST::Matrix::operator/">
<polygon fill="none" stroke="black" points="324,-0.5 324,-19.5 455,-19.5 455,-0.5 324,-0.5"/>
<text text-anchor="middle" x="389.5" y="-7.5" font-family="Helvetica,sans-Serif" font-size="10.00">INMOST::Matrix::operator/</text>
</a>
</g>
</g>
<!-- Node3&#45;&gt;Node4 -->
<g id="edge4" class="edge"><title>Node3&#45;&gt;Node4</title>
<path fill="none" stroke="midnightblue" d="M298.381,-10C306.84,-10 315.483,-10 323.906,-10"/>
<polygon fill="midnightblue" stroke="midnightblue" points="298.181,-6.5001 288.181,-10 298.181,-13.5001 298.181,-6.5001"/>
</g>
</g>
</svg>
