<?xml version="1.0" encoding="UTF-8" standalone="no"?>
<!DOCTYPE svg PUBLIC "-//W3C//DTD SVG 1.1//EN"
 "http://www.w3.org/Graphics/SVG/1.1/DTD/svg11.dtd">
<!-- Generated by graphviz version 2.38.0 (20140413.2041)
 -->
<!-- Title: INMOST::Automatizator::GetComponents Pages: 1 -->
<svg width="485pt" height="159pt"
 viewBox="0.00 0.00 485.00 159.00" xmlns="http://www.w3.org/2000/svg" xmlns:xlink="http://www.w3.org/1999/xlink">
<g id="graph0" class="graph" transform="scale(1 1) rotate(0) translate(4 155)">
<title>INMOST::Automatizator::GetComponents</title>
<!-- Node1 -->
<g id="node1" class="node"><title>Node1</title>
<polygon fill="#bfbfbf" stroke="black" points="0,-39 0,-69 120,-69 120,-39 0,-39"/>
<text text-anchor="start" x="8" y="-57" font-family="Helvetica,sans-Serif" font-size="10.00">INMOST::Automatizator</text>
<text text-anchor="middle" x="60" y="-46" font-family="Helvetica,sans-Serif" font-size="10.00">::GetComponents</text>
</g>
<!-- Node2 -->
<g id="node2" class="node"><title>Node2</title>
<g id="a_node2"><a xlink:href="class_i_n_m_o_s_t_1_1_storage.html#a11d99c05260909c93df802f94f52d48f" target="_top" xlink:title="INMOST::Storage::Integer\lArray">
<polygon fill="none" stroke="black" points="156,-88 156,-118 284,-118 284,-88 156,-88"/>
<text text-anchor="start" x="164" y="-106" font-family="Helvetica,sans-Serif" font-size="10.00">INMOST::Storage::Integer</text>
<text text-anchor="middle" x="220" y="-95" font-family="Helvetica,sans-Serif" font-size="10.00">Array</text>
</a>
</g>
</g>
<!-- Node1&#45;&gt;Node2 -->
<g id="edge1" class="edge"><title>Node1&#45;&gt;Node2</title>
<path fill="none" stroke="midnightblue" d="M109.694,-69.1014C125.839,-74.1083 143.974,-79.7324 160.762,-84.939"/>
<polygon fill="midnightblue" stroke="midnightblue" points="159.878,-88.3292 170.466,-87.9484 161.952,-81.6433 159.878,-88.3292"/>
</g>
<!-- Node6 -->
<g id="node6" class="node"><title>Node6</title>
<g id="a_node6"><a xlink:href="class_i_n_m_o_s_t_1_1_automatizator.html#a29ee1b26035909f21fbc8e9142f8c66e" target="_top" xlink:title="INMOST::Automatizator\l::GetDynamicIndexTag">
<polygon fill="none" stroke="black" points="160,-39 160,-69 280,-69 280,-39 160,-39"/>
<text text-anchor="start" x="168" y="-57" font-family="Helvetica,sans-Serif" font-size="10.00">INMOST::Automatizator</text>
<text text-anchor="middle" x="220" y="-46" font-family="Helvetica,sans-Serif" font-size="10.00">::GetDynamicIndexTag</text>
</a>
</g>
</g>
<!-- Node1&#45;&gt;Node6 -->
<g id="edge5" class="edge"><title>Node1&#45;&gt;Node6</title>
<path fill="none" stroke="midnightblue" d="M120.283,-54C129.901,-54 139.936,-54 149.766,-54"/>
<polygon fill="midnightblue" stroke="midnightblue" points="149.91,-57.5001 159.91,-54 149.91,-50.5001 149.91,-57.5001"/>
</g>
<!-- Node7 -->
<g id="node7" class="node"><title>Node7</title>
<g id="a_node7"><a xlink:href="class_i_n_m_o_s_t_1_1shell.html#a9fd0039a56aee69a7c6a79c3ecbfaa45" target="_top" xlink:title="INMOST::shell::size">
<polygon fill="none" stroke="black" points="168,-0.5 168,-19.5 272,-19.5 272,-0.5 168,-0.5"/>
<text text-anchor="middle" x="220" y="-7.5" font-family="Helvetica,sans-Serif" font-size="10.00">INMOST::shell::size</text>
</a>
</g>
</g>
<!-- Node1&#45;&gt;Node7 -->
<g id="edge6" class="edge"><title>Node1&#45;&gt;Node7</title>
<path fill="none" stroke="midnightblue" d="M114.933,-38.9808C134.483,-33.5362 156.319,-27.4554 174.921,-22.2751"/>
<polygon fill="midnightblue" stroke="midnightblue" points="175.911,-25.6328 184.605,-19.5783 174.033,-18.8894 175.911,-25.6328"/>
</g>
<!-- Node3 -->
<g id="node3" class="node"><title>Node3</title>
<g id="a_node3"><a xlink:href="class_i_n_m_o_s_t_1_1_storage.html#a20d218fc89f75ca8534707b4f697173e" target="_top" xlink:title="INMOST::Storage::GetMeshLink">
<polygon fill="none" stroke="black" points="320,-131.5 320,-150.5 477,-150.5 477,-131.5 320,-131.5"/>
<text text-anchor="middle" x="398.5" y="-138.5" font-family="Helvetica,sans-Serif" font-size="10.00">INMOST::Storage::GetMeshLink</text>
</a>
</g>
</g>
<!-- Node2&#45;&gt;Node3 -->
<g id="edge2" class="edge"><title>Node2&#45;&gt;Node3</title>
<path fill="none" stroke="midnightblue" d="M284.222,-116.612C303.591,-120.782 324.712,-125.329 343.414,-129.355"/>
<polygon fill="midnightblue" stroke="midnightblue" points="342.726,-132.787 353.238,-131.471 344.199,-125.944 342.726,-132.787"/>
</g>
<!-- Node4 -->
<g id="node4" class="node"><title>Node4</title>
<g id="a_node4"><a xlink:href="class_i_n_m_o_s_t_1_1_mesh.html#ac0bbbfafae1405bd27b726bdbb4c2cdd" target="_top" xlink:title="INMOST::Mesh::IntegerArray">
<polygon fill="none" stroke="black" points="327.5,-93.5 327.5,-112.5 469.5,-112.5 469.5,-93.5 327.5,-93.5"/>
<text text-anchor="middle" x="398.5" y="-100.5" font-family="Helvetica,sans-Serif" font-size="10.00">INMOST::Mesh::IntegerArray</text>
</a>
</g>
</g>
<!-- Node2&#45;&gt;Node4 -->
<g id="edge3" class="edge"><title>Node2&#45;&gt;Node4</title>
<path fill="none" stroke="midnightblue" d="M284.222,-103C294.9,-103 306.111,-103 317.156,-103"/>
<polygon fill="midnightblue" stroke="midnightblue" points="317.232,-106.5 327.232,-103 317.232,-99.5001 317.232,-106.5"/>
</g>
<!-- Node5 -->
<g id="node5" class="node"><title>Node5</title>
<g id="a_node5"><a xlink:href="class_i_n_m_o_s_t_1_1_storage.html#ac79e3f3664b2ff21892f37bce0caa0e0" target="_top" xlink:title="INMOST::Storage::GetHandle">
<polygon fill="none" stroke="black" points="326,-55.5 326,-74.5 471,-74.5 471,-55.5 326,-55.5"/>
<text text-anchor="middle" x="398.5" y="-62.5" font-family="Helvetica,sans-Serif" font-size="10.00">INMOST::Storage::GetHandle</text>
</a>
</g>
</g>
<!-- Node2&#45;&gt;Node5 -->
<g id="edge4" class="edge"><title>Node2&#45;&gt;Node5</title>
<path fill="none" stroke="midnightblue" d="M284.222,-89.3885C303.591,-85.2185 324.712,-80.671 343.414,-76.6446"/>
<polygon fill="midnightblue" stroke="midnightblue" points="344.199,-80.0559 353.238,-74.5294 342.726,-73.2127 344.199,-80.0559"/>
</g>
</g>
</svg>
