<?xml version="1.0" encoding="UTF-8" standalone="no"?>
<!DOCTYPE svg PUBLIC "-//W3C//DTD SVG 1.1//EN"
 "http://www.w3.org/Graphics/SVG/1.1/DTD/svg11.dtd">
<!-- Generated by graphviz version 2.38.0 (20140413.2041)
 -->
<!-- Title: INMOST::dynarray::empty Pages: 1 -->
<svg width="306pt" height="127pt"
 viewBox="0.00 0.00 306.00 126.50" xmlns="http://www.w3.org/2000/svg" xmlns:xlink="http://www.w3.org/1999/xlink">
<g id="graph0" class="graph" transform="scale(1 1) rotate(0) translate(4 122.5)">
<title>INMOST::dynarray::empty</title>
<!-- Node1 -->
<g id="node1" class="node"><title>Node1</title>
<polygon fill="#bfbfbf" stroke="black" points="0,-55 0,-74 130,-74 130,-55 0,-55"/>
<text text-anchor="middle" x="65" y="-62" font-family="Helvetica,sans-Serif" font-size="10.00">INMOST::dynarray::empty</text>
</g>
<!-- Node2 -->
<g id="node2" class="node"><title>Node2</title>
<g id="a_node2"><a xlink:href="class_i_n_m_o_s_t_1_1tiny__map.html#a4bacdc6b10df324746195d3830005263" target="_top" xlink:title="INMOST::tiny_map::empty">
<polygon fill="none" stroke="black" points="166,-99 166,-118 298,-118 298,-99 166,-99"/>
<text text-anchor="middle" x="232" y="-106" font-family="Helvetica,sans-Serif" font-size="10.00">INMOST::tiny_map::empty</text>
</a>
</g>
</g>
<!-- Node1&#45;&gt;Node2 -->
<g id="edge1" class="edge"><title>Node1&#45;&gt;Node2</title>
<path fill="none" stroke="midnightblue" d="M111.58,-76.6547C137.983,-83.6955 170.742,-92.4312 195.267,-98.9713"/>
<polygon fill="midnightblue" stroke="midnightblue" points="112.367,-73.2422 101.803,-74.0473 110.563,-80.0059 112.367,-73.2422"/>
</g>
<!-- Node3 -->
<g id="node3" class="node"><title>Node3</title>
<g id="a_node3"><a xlink:href="class_i_n_m_o_s_t_1_1_element_array.html#a1f07d02a87fca1ef7772f99873cf09d2" target="_top" xlink:title="INMOST::ElementArray\l::empty">
<polygon fill="none" stroke="black" points="172.5,-49.5 172.5,-79.5 291.5,-79.5 291.5,-49.5 172.5,-49.5"/>
<text text-anchor="start" x="180.5" y="-67.5" font-family="Helvetica,sans-Serif" font-size="10.00">INMOST::ElementArray</text>
<text text-anchor="middle" x="232" y="-56.5" font-family="Helvetica,sans-Serif" font-size="10.00">::empty</text>
</a>
</g>
</g>
<!-- Node1&#45;&gt;Node3 -->
<g id="edge2" class="edge"><title>Node1&#45;&gt;Node3</title>
<path fill="none" stroke="midnightblue" d="M140.428,-64.5C151.11,-64.5 161.974,-64.5 172.295,-64.5"/>
<polygon fill="midnightblue" stroke="midnightblue" points="140.266,-61.0001 130.266,-64.5 140.266,-68.0001 140.266,-61.0001"/>
</g>
<!-- Node4 -->
<g id="node4" class="node"><title>Node4</title>
<g id="a_node4"><a xlink:href="class_i_n_m_o_s_t_1_1_sparse_1_1_row.html#a2b30125f532f48c2779490614255b825" target="_top" xlink:title="INMOST::Sparse::Row\l::Empty">
<polygon fill="none" stroke="black" points="174.5,-0.5 174.5,-30.5 289.5,-30.5 289.5,-0.5 174.5,-0.5"/>
<text text-anchor="start" x="182.5" y="-18.5" font-family="Helvetica,sans-Serif" font-size="10.00">INMOST::Sparse::Row</text>
<text text-anchor="middle" x="232" y="-7.5" font-family="Helvetica,sans-Serif" font-size="10.00">::Empty</text>
</a>
</g>
</g>
<!-- Node1&#45;&gt;Node4 -->
<g id="edge3" class="edge"><title>Node1&#45;&gt;Node4</title>
<path fill="none" stroke="midnightblue" d="M107.937,-52.0459C129.977,-45.5008 157.159,-37.4287 180.365,-30.537"/>
<polygon fill="midnightblue" stroke="midnightblue" points="106.795,-48.7339 98.2054,-54.936 108.788,-55.4443 106.795,-48.7339"/>
</g>
</g>
</svg>
