<?xml version="1.0" encoding="UTF-8" standalone="no"?>
<!DOCTYPE svg PUBLIC "-//W3C//DTD SVG 1.1//EN"
 "http://www.w3.org/Graphics/SVG/1.1/DTD/svg11.dtd">
<!-- Generated by graphviz version 2.38.0 (20140413.2041)
 -->
<!-- Title: INMOST::cos_expression::cos_expression Pages: 1 -->
<svg width="204pt" height="66pt"
 viewBox="0.00 0.00 204.00 66.00" xmlns="http://www.w3.org/2000/svg" xmlns:xlink="http://www.w3.org/1999/xlink">
<g id="graph0" class="graph" transform="scale(1 1) rotate(0) translate(4 62)">
<title>INMOST::cos_expression::cos_expression</title>
<!-- Node1 -->
<g id="node1" class="node"><title>Node1</title>
<polygon fill="#bfbfbf" stroke="black" points="0,-14 0,-44 128,-44 128,-14 0,-14"/>
<text text-anchor="start" x="8" y="-32" font-family="Helvetica,sans-Serif" font-size="10.00">INMOST::cos_expression</text>
<text text-anchor="middle" x="64" y="-21" font-family="Helvetica,sans-Serif" font-size="10.00">::cos_expression</text>
</g>
<!-- Node2 -->
<g id="node2" class="node"><title>Node2</title>
<g id="a_node2"><a xlink:href="inmost__expression_8h.html#a737fb4f3f217848c95b76908220f8562" target="_top" xlink:title="sin">
<polygon fill="none" stroke="black" points="165.5,-38.5 165.5,-57.5 194.5,-57.5 194.5,-38.5 165.5,-38.5"/>
<text text-anchor="middle" x="180" y="-45.5" font-family="Helvetica,sans-Serif" font-size="10.00">sin</text>
</a>
</g>
</g>
<!-- Node1&#45;&gt;Node2 -->
<g id="edge1" class="edge"><title>Node1&#45;&gt;Node2</title>
<path fill="none" stroke="midnightblue" d="M128.002,-39.5003C137.631,-41.1052 147.03,-42.6716 155.081,-44.0135"/>
<polygon fill="midnightblue" stroke="midnightblue" points="154.682,-47.4952 165.121,-45.6869 155.833,-40.5904 154.682,-47.4952"/>
</g>
<!-- Node3 -->
<g id="node3" class="node"><title>Node3</title>
<g id="a_node3"><a xlink:href="inmost__expression_8h.html#acef6948e27e092e2a8bb2aeda45595b0" target="_top" xlink:title="cos">
<polygon fill="none" stroke="black" points="164,-0.5 164,-19.5 196,-19.5 196,-0.5 164,-0.5"/>
<text text-anchor="middle" x="180" y="-7.5" font-family="Helvetica,sans-Serif" font-size="10.00">cos</text>
</a>
</g>
</g>
<!-- Node1&#45;&gt;Node3 -->
<g id="edge2" class="edge"><title>Node1&#45;&gt;Node3</title>
<path fill="none" stroke="midnightblue" d="M128.002,-18.4997C137.102,-16.983 145.996,-15.5007 153.741,-14.2098"/>
<polygon fill="midnightblue" stroke="midnightblue" points="154.54,-17.625 163.829,-12.5286 153.389,-10.7203 154.54,-17.625"/>
</g>
</g>
</svg>
