<?xml version="1.0" encoding="UTF-8" standalone="no"?>
<!DOCTYPE svg PUBLIC "-//W3C//DTD SVG 1.1//EN"
 "http://www.w3.org/Graphics/SVG/1.1/DTD/svg11.dtd">
<!-- Generated by graphviz version 2.38.0 (20140413.2041)
 -->
<!-- Title: INMOST::Mesh::RemPrivateMarker Pages: 1 -->
<svg width="332pt" height="88pt"
 viewBox="0.00 0.00 332.00 88.00" xmlns="http://www.w3.org/2000/svg" xmlns:xlink="http://www.w3.org/1999/xlink">
<g id="graph0" class="graph" transform="scale(1 1) rotate(0) translate(4 84)">
<title>INMOST::Mesh::RemPrivateMarker</title>
<!-- Node1 -->
<g id="node1" class="node"><title>Node1</title>
<polygon fill="#bfbfbf" stroke="black" points="0,-24.5 0,-54.5 139,-54.5 139,-24.5 0,-24.5"/>
<text text-anchor="start" x="8" y="-42.5" font-family="Helvetica,sans-Serif" font-size="10.00">INMOST::Mesh::RemPrivate</text>
<text text-anchor="middle" x="69.5" y="-31.5" font-family="Helvetica,sans-Serif" font-size="10.00">Marker</text>
</g>
<!-- Node2 -->
<g id="node2" class="node"><title>Node2</title>
<g id="a_node2"><a xlink:href="class_i_n_m_o_s_t_1_1_mesh.html#a4ecd1a36ff0b30e86a34b2c995751577" target="_top" xlink:title="INMOST::Mesh::RemPrivate\lMarkerArray">
<polygon fill="none" stroke="black" points="180,-49.5 180,-79.5 319,-79.5 319,-49.5 180,-49.5"/>
<text text-anchor="start" x="188" y="-67.5" font-family="Helvetica,sans-Serif" font-size="10.00">INMOST::Mesh::RemPrivate</text>
<text text-anchor="middle" x="249.5" y="-56.5" font-family="Helvetica,sans-Serif" font-size="10.00">MarkerArray</text>
</a>
</g>
</g>
<!-- Node1&#45;&gt;Node2 -->
<g id="edge1" class="edge"><title>Node1&#45;&gt;Node2</title>
<path fill="none" stroke="midnightblue" d="M149.23,-50.5576C159.477,-51.9968 169.908,-53.4619 179.97,-54.8751"/>
<polygon fill="midnightblue" stroke="midnightblue" points="149.454,-47.0548 139.065,-49.1299 148.481,-53.9868 149.454,-47.0548"/>
</g>
<!-- Node3 -->
<g id="node3" class="node"><title>Node3</title>
<g id="a_node3"><a xlink:href="class_i_n_m_o_s_t_1_1_storage.html#a7eb821d11fb14f7c7c86c93c57587666" target="_top" xlink:title="INMOST::Storage::RemPrivate\lMarker">
<polygon fill="none" stroke="black" points="175,-0.5 175,-30.5 324,-30.5 324,-0.5 175,-0.5"/>
<text text-anchor="start" x="183" y="-18.5" font-family="Helvetica,sans-Serif" font-size="10.00">INMOST::Storage::RemPrivate</text>
<text text-anchor="middle" x="249.5" y="-7.5" font-family="Helvetica,sans-Serif" font-size="10.00">Marker</text>
</a>
</g>
</g>
<!-- Node1&#45;&gt;Node3 -->
<g id="edge2" class="edge"><title>Node1&#45;&gt;Node3</title>
<path fill="none" stroke="midnightblue" d="M149.081,-28.9049C157.681,-27.7453 166.412,-26.568 174.948,-25.4171"/>
<polygon fill="midnightblue" stroke="midnightblue" points="148.507,-25.4504 139.065,-30.2553 149.443,-32.3876 148.507,-25.4504"/>
</g>
</g>
</svg>
