<?xml version="1.0" encoding="UTF-8" standalone="no"?>
<!DOCTYPE svg PUBLIC "-//W3C//DTD SVG 1.1//EN"
 "http://www.w3.org/Graphics/SVG/1.1/DTD/svg11.dtd">
<!-- Generated by graphviz version 2.38.0 (20140413.2041)
 -->
<!-- Title: INMOST::Automatizator::GetDynamicIndex Pages: 1 -->
<svg width="485pt" height="121pt"
 viewBox="0.00 0.00 485.00 120.50" xmlns="http://www.w3.org/2000/svg" xmlns:xlink="http://www.w3.org/1999/xlink">
<g id="graph0" class="graph" transform="scale(1 1) rotate(0) translate(4 116.5)">
<title>INMOST::Automatizator::GetDynamicIndex</title>
<!-- Node1 -->
<g id="node1" class="node"><title>Node1</title>
<polygon fill="#bfbfbf" stroke="black" points="0,-24.5 0,-54.5 120,-54.5 120,-24.5 0,-24.5"/>
<text text-anchor="start" x="8" y="-42.5" font-family="Helvetica,sans-Serif" font-size="10.00">INMOST::Automatizator</text>
<text text-anchor="middle" x="60" y="-31.5" font-family="Helvetica,sans-Serif" font-size="10.00">::GetDynamicIndex</text>
</g>
<!-- Node2 -->
<g id="node2" class="node"><title>Node2</title>
<g id="a_node2"><a xlink:href="class_i_n_m_o_s_t_1_1_storage.html#a11d99c05260909c93df802f94f52d48f" target="_top" xlink:title="INMOST::Storage::Integer\lArray">
<polygon fill="none" stroke="black" points="156,-49.5 156,-79.5 284,-79.5 284,-49.5 156,-49.5"/>
<text text-anchor="start" x="164" y="-67.5" font-family="Helvetica,sans-Serif" font-size="10.00">INMOST::Storage::Integer</text>
<text text-anchor="middle" x="220" y="-56.5" font-family="Helvetica,sans-Serif" font-size="10.00">Array</text>
</a>
</g>
</g>
<!-- Node1&#45;&gt;Node2 -->
<g id="edge1" class="edge"><title>Node1&#45;&gt;Node2</title>
<path fill="none" stroke="midnightblue" d="M120.283,-48.8802C128.654,-50.2047 137.34,-51.5791 145.932,-52.9386"/>
<polygon fill="midnightblue" stroke="midnightblue" points="145.526,-56.4179 155.95,-54.5238 146.62,-49.5039 145.526,-56.4179"/>
</g>
<!-- Node6 -->
<g id="node6" class="node"><title>Node6</title>
<g id="a_node6"><a xlink:href="class_i_n_m_o_s_t_1_1_automatizator.html#a29ee1b26035909f21fbc8e9142f8c66e" target="_top" xlink:title="INMOST::Automatizator\l::GetDynamicIndexTag">
<polygon fill="none" stroke="black" points="160,-0.5 160,-30.5 280,-30.5 280,-0.5 160,-0.5"/>
<text text-anchor="start" x="168" y="-18.5" font-family="Helvetica,sans-Serif" font-size="10.00">INMOST::Automatizator</text>
<text text-anchor="middle" x="220" y="-7.5" font-family="Helvetica,sans-Serif" font-size="10.00">::GetDynamicIndexTag</text>
</a>
</g>
</g>
<!-- Node1&#45;&gt;Node6 -->
<g id="edge5" class="edge"><title>Node1&#45;&gt;Node6</title>
<path fill="none" stroke="midnightblue" d="M120.283,-30.495C129.901,-29.034 139.936,-27.5097 149.766,-26.0165"/>
<polygon fill="midnightblue" stroke="midnightblue" points="150.549,-29.4378 159.91,-24.4756 149.498,-22.5172 150.549,-29.4378"/>
</g>
<!-- Node3 -->
<g id="node3" class="node"><title>Node3</title>
<g id="a_node3"><a xlink:href="class_i_n_m_o_s_t_1_1_storage.html#a20d218fc89f75ca8534707b4f697173e" target="_top" xlink:title="INMOST::Storage::GetMeshLink">
<polygon fill="none" stroke="black" points="320,-93 320,-112 477,-112 477,-93 320,-93"/>
<text text-anchor="middle" x="398.5" y="-100" font-family="Helvetica,sans-Serif" font-size="10.00">INMOST::Storage::GetMeshLink</text>
</a>
</g>
</g>
<!-- Node2&#45;&gt;Node3 -->
<g id="edge2" class="edge"><title>Node2&#45;&gt;Node3</title>
<path fill="none" stroke="midnightblue" d="M284.222,-78.1115C303.591,-82.2815 324.712,-86.829 343.414,-90.8554"/>
<polygon fill="midnightblue" stroke="midnightblue" points="342.726,-94.2873 353.238,-92.9706 344.199,-87.4441 342.726,-94.2873"/>
</g>
<!-- Node4 -->
<g id="node4" class="node"><title>Node4</title>
<g id="a_node4"><a xlink:href="class_i_n_m_o_s_t_1_1_mesh.html#ac0bbbfafae1405bd27b726bdbb4c2cdd" target="_top" xlink:title="INMOST::Mesh::IntegerArray">
<polygon fill="none" stroke="black" points="327.5,-55 327.5,-74 469.5,-74 469.5,-55 327.5,-55"/>
<text text-anchor="middle" x="398.5" y="-62" font-family="Helvetica,sans-Serif" font-size="10.00">INMOST::Mesh::IntegerArray</text>
</a>
</g>
</g>
<!-- Node2&#45;&gt;Node4 -->
<g id="edge3" class="edge"><title>Node2&#45;&gt;Node4</title>
<path fill="none" stroke="midnightblue" d="M284.222,-64.5C294.9,-64.5 306.111,-64.5 317.156,-64.5"/>
<polygon fill="midnightblue" stroke="midnightblue" points="317.232,-68.0001 327.232,-64.5 317.232,-61.0001 317.232,-68.0001"/>
</g>
<!-- Node5 -->
<g id="node5" class="node"><title>Node5</title>
<g id="a_node5"><a xlink:href="class_i_n_m_o_s_t_1_1_storage.html#ac79e3f3664b2ff21892f37bce0caa0e0" target="_top" xlink:title="INMOST::Storage::GetHandle">
<polygon fill="none" stroke="black" points="326,-17 326,-36 471,-36 471,-17 326,-17"/>
<text text-anchor="middle" x="398.5" y="-24" font-family="Helvetica,sans-Serif" font-size="10.00">INMOST::Storage::GetHandle</text>
</a>
</g>
</g>
<!-- Node2&#45;&gt;Node5 -->
<g id="edge4" class="edge"><title>Node2&#45;&gt;Node5</title>
<path fill="none" stroke="midnightblue" d="M284.222,-50.8885C303.591,-46.7185 324.712,-42.171 343.414,-38.1446"/>
<polygon fill="midnightblue" stroke="midnightblue" points="344.199,-41.5559 353.238,-36.0294 342.726,-34.7127 344.199,-41.5559"/>
</g>
</g>
</svg>
