<?xml version="1.0" encoding="UTF-8" standalone="no"?>
<!DOCTYPE svg PUBLIC "-//W3C//DTD SVG 1.1//EN"
 "http://www.w3.org/Graphics/SVG/1.1/DTD/svg11.dtd">
<!-- Generated by graphviz version 2.38.0 (20140413.2041)
 -->
<!-- Title: INMOST::Mesh::RemMarkerArray Pages: 1 -->
<svg width="523pt" height="66pt"
 viewBox="0.00 0.00 523.00 66.00" xmlns="http://www.w3.org/2000/svg" xmlns:xlink="http://www.w3.org/1999/xlink">
<g id="graph0" class="graph" transform="scale(1 1) rotate(0) translate(4 62)">
<title>INMOST::Mesh::RemMarkerArray</title>
<!-- Node1 -->
<g id="node1" class="node"><title>Node1</title>
<polygon fill="#bfbfbf" stroke="black" points="0,-19.5 0,-38.5 163,-38.5 163,-19.5 0,-19.5"/>
<text text-anchor="middle" x="81.5" y="-26.5" font-family="Helvetica,sans-Serif" font-size="10.00">INMOST::Mesh::RemMarkerArray</text>
</g>
<!-- Node2 -->
<g id="node2" class="node"><title>Node2</title>
<g id="a_node2"><a xlink:href="namespace_i_n_m_o_s_t.html#a115b3e54c3b7be04ffec9b69c058df18" target="_top" xlink:title="INMOST::InvalidHandle">
<polygon fill="none" stroke="black" points="211,-38.5 211,-57.5 327,-57.5 327,-38.5 211,-38.5"/>
<text text-anchor="middle" x="269" y="-45.5" font-family="Helvetica,sans-Serif" font-size="10.00">INMOST::InvalidHandle</text>
</a>
</g>
</g>
<!-- Node1&#45;&gt;Node2 -->
<g id="edge1" class="edge"><title>Node1&#45;&gt;Node2</title>
<path fill="none" stroke="midnightblue" d="M163.054,-37.2508C175.658,-38.5418 188.567,-39.864 200.83,-41.12"/>
<polygon fill="midnightblue" stroke="midnightblue" points="200.653,-44.6201 210.957,-42.1573 201.366,-37.6565 200.653,-44.6201"/>
</g>
<!-- Node3 -->
<g id="node3" class="node"><title>Node3</title>
<g id="a_node3"><a xlink:href="class_i_n_m_o_s_t_1_1_mesh.html#aa758ff129bf79eff3c446946e276006c" target="_top" xlink:title="INMOST::Mesh::RemMarker">
<polygon fill="none" stroke="black" points="199,-0.5 199,-19.5 339,-19.5 339,-0.5 199,-0.5"/>
<text text-anchor="middle" x="269" y="-7.5" font-family="Helvetica,sans-Serif" font-size="10.00">INMOST::Mesh::RemMarker</text>
</a>
</g>
</g>
<!-- Node1&#45;&gt;Node3 -->
<g id="edge2" class="edge"><title>Node1&#45;&gt;Node3</title>
<path fill="none" stroke="midnightblue" d="M163.054,-20.7492C171.627,-19.871 180.343,-18.9784 188.899,-18.102"/>
<polygon fill="midnightblue" stroke="midnightblue" points="189.262,-21.5832 198.854,-17.0824 188.549,-14.6196 189.262,-21.5832"/>
</g>
<!-- Node4 -->
<g id="node4" class="node"><title>Node4</title>
<g id="a_node4"><a xlink:href="class_i_n_m_o_s_t_1_1_mesh.html#ad7d9049c7e0f028e334d3fac70acdc6c" target="_top" xlink:title="INMOST::Mesh::MarkersTag">
<polygon fill="none" stroke="black" points="375,-0.5 375,-19.5 515,-19.5 515,-0.5 375,-0.5"/>
<text text-anchor="middle" x="445" y="-7.5" font-family="Helvetica,sans-Serif" font-size="10.00">INMOST::Mesh::MarkersTag</text>
</a>
</g>
</g>
<!-- Node3&#45;&gt;Node4 -->
<g id="edge3" class="edge"><title>Node3&#45;&gt;Node4</title>
<path fill="none" stroke="midnightblue" d="M339.019,-10C347.476,-10 356.169,-10 364.761,-10"/>
<polygon fill="midnightblue" stroke="midnightblue" points="364.78,-13.5001 374.779,-10 364.779,-6.5001 364.78,-13.5001"/>
</g>
</g>
</svg>
