<?xml version="1.0" encoding="UTF-8" standalone="no"?>
<!DOCTYPE svg PUBLIC "-//W3C//DTD SVG 1.1//EN"
 "http://www.w3.org/Graphics/SVG/1.1/DTD/svg11.dtd">
<!-- Generated by graphviz version 2.38.0 (20140413.2041)
 -->
<!-- Title: INMOST::ElementArray::data Pages: 1 -->
<svg width="313pt" height="918pt"
 viewBox="0.00 0.00 313.00 917.50" xmlns="http://www.w3.org/2000/svg" xmlns:xlink="http://www.w3.org/1999/xlink">
<g id="graph0" class="graph" transform="scale(1 1) rotate(0) translate(4 913.5)">
<title>INMOST::ElementArray::data</title>
<!-- Node1 -->
<g id="node1" class="node"><title>Node1</title>
<polygon fill="#bfbfbf" stroke="black" points="0,-425 0,-455 119,-455 119,-425 0,-425"/>
<text text-anchor="start" x="8" y="-443" font-family="Helvetica,sans-Serif" font-size="10.00">INMOST::ElementArray</text>
<text text-anchor="middle" x="59.5" y="-432" font-family="Helvetica,sans-Serif" font-size="10.00">::data</text>
</g>
<!-- Node2 -->
<g id="node2" class="node"><title>Node2</title>
<g id="a_node2"><a xlink:href="class_i_n_m_o_s_t_1_1_element_array.html#a271d7b4bff4a170cae01aa440351a565" target="_top" xlink:title="INMOST::ElementArray\l::Unite">
<polygon fill="none" stroke="black" points="170.5,-861 170.5,-891 289.5,-891 289.5,-861 170.5,-861"/>
<text text-anchor="start" x="178.5" y="-879" font-family="Helvetica,sans-Serif" font-size="10.00">INMOST::ElementArray</text>
<text text-anchor="middle" x="230" y="-868" font-family="Helvetica,sans-Serif" font-size="10.00">::Unite</text>
</a>
</g>
</g>
<!-- Node1&#45;&gt;Node2 -->
<g id="edge1" class="edge"><title>Node1&#45;&gt;Node2</title>
<path fill="none" stroke="midnightblue" d="M63.0798,-465.563C71.7196,-546.35 102.111,-794.23 155,-852 159.378,-856.782 164.715,-860.614 170.499,-863.685"/>
<polygon fill="midnightblue" stroke="midnightblue" points="66.5285,-464.891 62.0049,-455.31 59.5667,-465.621 66.5285,-464.891"/>
</g>
<!-- Node3 -->
<g id="node3" class="node"><title>Node3</title>
<g id="a_node3"><a xlink:href="class_i_n_m_o_s_t_1_1_element_array.html#aa714a1586fa8c427240190940cc77d5a" target="_top" xlink:title="INMOST::ElementArray\l::Subtract">
<polygon fill="none" stroke="black" points="170.5,-794 170.5,-824 289.5,-824 289.5,-794 170.5,-794"/>
<text text-anchor="start" x="178.5" y="-812" font-family="Helvetica,sans-Serif" font-size="10.00">INMOST::ElementArray</text>
<text text-anchor="middle" x="230" y="-801" font-family="Helvetica,sans-Serif" font-size="10.00">::Subtract</text>
</a>
</g>
</g>
<!-- Node1&#45;&gt;Node3 -->
<g id="edge3" class="edge"><title>Node1&#45;&gt;Node3</title>
<path fill="none" stroke="midnightblue" d="M59.7854,-465.359C59.4317,-528.314 67.4121,-693.263 155,-785 159.384,-789.591 164.652,-793.306 170.332,-796.31"/>
<polygon fill="midnightblue" stroke="midnightblue" points="63.2877,-465.207 59.9238,-455.161 56.2883,-465.112 63.2877,-465.207"/>
</g>
<!-- Node4 -->
<g id="node4" class="node"><title>Node4</title>
<g id="a_node4"><a xlink:href="class_i_n_m_o_s_t_1_1_element_array.html#a237ae0b4fb711b1b0a36041fe97ef1b3" target="_top" xlink:title="INMOST::ElementArray\l::Intersect">
<polygon fill="none" stroke="black" points="170.5,-727 170.5,-757 289.5,-757 289.5,-727 170.5,-727"/>
<text text-anchor="start" x="178.5" y="-745" font-family="Helvetica,sans-Serif" font-size="10.00">INMOST::ElementArray</text>
<text text-anchor="middle" x="230" y="-734" font-family="Helvetica,sans-Serif" font-size="10.00">::Intersect</text>
</a>
</g>
</g>
<!-- Node1&#45;&gt;Node4 -->
<g id="edge5" class="edge"><title>Node1&#45;&gt;Node4</title>
<path fill="none" stroke="midnightblue" d="M61.766,-465.156C65.8452,-519.154 83.0081,-647.013 155,-718 159.424,-722.362 164.647,-725.931 170.24,-728.852"/>
<polygon fill="midnightblue" stroke="midnightblue" points="65.2525,-464.835 61.0956,-455.09 58.268,-465.3 65.2525,-464.835"/>
</g>
<!-- Node5 -->
<g id="node5" class="node"><title>Node5</title>
<g id="a_node5"><a xlink:href="class_i_n_m_o_s_t_1_1_element_set.html#a2b27cedaf22cb5e20e36bcb480c9e50c" target="_top" xlink:title="Put multiple handles without checking. ">
<polygon fill="none" stroke="black" points="175,-660 175,-690 285,-690 285,-660 175,-660"/>
<text text-anchor="start" x="183" y="-678" font-family="Helvetica,sans-Serif" font-size="10.00">INMOST::ElementSet</text>
<text text-anchor="middle" x="230" y="-667" font-family="Helvetica,sans-Serif" font-size="10.00">::PutElements</text>
</a>
</g>
</g>
<!-- Node1&#45;&gt;Node5 -->
<g id="edge7" class="edge"><title>Node1&#45;&gt;Node5</title>
<path fill="none" stroke="midnightblue" d="M64.8769,-465.11C73.8463,-509.093 98.44,-600.213 155,-651 160.728,-656.143 167.574,-660.186 174.756,-663.364"/>
<polygon fill="midnightblue" stroke="midnightblue" points="68.3033,-464.394 62.9677,-455.241 61.4308,-465.723 68.3033,-464.394"/>
</g>
<!-- Node6 -->
<g id="node6" class="node"><title>Node6</title>
<g id="a_node6"><a xlink:href="class_i_n_m_o_s_t_1_1_element_set.html#aba2a21178003aa2a9908ca3c090d7cb8" target="_top" xlink:title="Add multiple elements with checking of the existance of duplicate. ">
<polygon fill="none" stroke="black" points="175,-593 175,-623 285,-623 285,-593 175,-593"/>
<text text-anchor="start" x="183" y="-611" font-family="Helvetica,sans-Serif" font-size="10.00">INMOST::ElementSet</text>
<text text-anchor="middle" x="230" y="-600" font-family="Helvetica,sans-Serif" font-size="10.00">::AddElements</text>
</a>
</g>
</g>
<!-- Node1&#45;&gt;Node6 -->
<g id="edge9" class="edge"><title>Node1&#45;&gt;Node6</title>
<path fill="none" stroke="midnightblue" d="M70.3877,-464.562C84.4966,-496.585 113.386,-552.245 155,-584 160.905,-588.506 167.689,-592.184 174.701,-595.181"/>
<polygon fill="midnightblue" stroke="midnightblue" points="73.4744,-462.878 66.3288,-455.055 67.0366,-465.626 73.4744,-462.878"/>
</g>
<!-- Node7 -->
<g id="node7" class="node"><title>Node7</title>
<g id="a_node7"><a xlink:href="class_i_n_m_o_s_t_1_1_element_set.html#a119169cdf12afbca790ba53169e74af0" target="_top" xlink:title="Remove multiple elements from the set. ">
<polygon fill="none" stroke="black" points="175,-526 175,-556 285,-556 285,-526 175,-526"/>
<text text-anchor="start" x="183" y="-544" font-family="Helvetica,sans-Serif" font-size="10.00">INMOST::ElementSet</text>
<text text-anchor="middle" x="230" y="-533" font-family="Helvetica,sans-Serif" font-size="10.00">::RemoveElements</text>
</a>
</g>
</g>
<!-- Node1&#45;&gt;Node7 -->
<g id="edge11" class="edge"><title>Node1&#45;&gt;Node7</title>
<path fill="none" stroke="midnightblue" d="M82.9354,-462.357C101.059,-479.355 127.923,-502.255 155,-517 161.168,-520.359 167.883,-523.343 174.669,-525.967"/>
<polygon fill="midnightblue" stroke="midnightblue" points="84.9007,-459.394 75.2539,-455.013 80.0633,-464.453 84.9007,-459.394"/>
</g>
<!-- Node8 -->
<g id="node8" class="node"><title>Node8</title>
<g id="a_node8"><a xlink:href="class_i_n_m_o_s_t_1_1_element_set.html#ab1ef60891bc6e6e8c095065843b51217" target="_top" xlink:title="Compute and return union with elements. ">
<polygon fill="none" stroke="black" points="175,-459 175,-489 285,-489 285,-459 175,-459"/>
<text text-anchor="start" x="183" y="-477" font-family="Helvetica,sans-Serif" font-size="10.00">INMOST::ElementSet</text>
<text text-anchor="middle" x="230" y="-466" font-family="Helvetica,sans-Serif" font-size="10.00">::Union</text>
</a>
</g>
</g>
<!-- Node1&#45;&gt;Node8 -->
<g id="edge13" class="edge"><title>Node1&#45;&gt;Node8</title>
<path fill="none" stroke="midnightblue" d="M129.297,-453.882C144.492,-456.948 160.381,-460.154 174.896,-463.083"/>
<polygon fill="midnightblue" stroke="midnightblue" points="129.928,-450.439 119.433,-451.892 128.543,-457.3 129.928,-450.439"/>
</g>
<!-- Node9 -->
<g id="node9" class="node"><title>Node9</title>
<g id="a_node9"><a xlink:href="class_i_n_m_o_s_t_1_1_element_set.html#af038e8851f02e9c4ae488a3ed1530bd7" target="_top" xlink:title="Compute and return difference with elements. ">
<polygon fill="none" stroke="black" points="175,-392 175,-422 285,-422 285,-392 175,-392"/>
<text text-anchor="start" x="183" y="-410" font-family="Helvetica,sans-Serif" font-size="10.00">INMOST::ElementSet</text>
<text text-anchor="middle" x="230" y="-399" font-family="Helvetica,sans-Serif" font-size="10.00">::Difference</text>
</a>
</g>
</g>
<!-- Node1&#45;&gt;Node9 -->
<g id="edge15" class="edge"><title>Node1&#45;&gt;Node9</title>
<path fill="none" stroke="midnightblue" d="M129.297,-426.526C144.492,-423.551 160.381,-420.439 174.896,-417.596"/>
<polygon fill="midnightblue" stroke="midnightblue" points="128.574,-423.101 119.433,-428.458 129.919,-429.971 128.574,-423.101"/>
</g>
<!-- Node10 -->
<g id="node10" class="node"><title>Node10</title>
<g id="a_node10"><a xlink:href="class_i_n_m_o_s_t_1_1_element_set.html#a9991abefdf4ecfdf35ee2d52eea650f1" target="_top" xlink:title="Compute and return intersection with elements. ">
<polygon fill="none" stroke="black" points="175,-325 175,-355 285,-355 285,-325 175,-325"/>
<text text-anchor="start" x="183" y="-343" font-family="Helvetica,sans-Serif" font-size="10.00">INMOST::ElementSet</text>
<text text-anchor="middle" x="230" y="-332" font-family="Helvetica,sans-Serif" font-size="10.00">::Intersection</text>
</a>
</g>
</g>
<!-- Node1&#45;&gt;Node10 -->
<g id="edge17" class="edge"><title>Node1&#45;&gt;Node10</title>
<path fill="none" stroke="midnightblue" d="M94.2617,-419.453C112.252,-408.551 134.783,-394.97 155,-383 170.854,-373.613 188.712,-363.231 202.912,-355.02"/>
<polygon fill="midnightblue" stroke="midnightblue" points="92.0386,-416.708 85.3044,-424.887 95.6694,-422.693 92.0386,-416.708"/>
</g>
<!-- Node11 -->
<g id="node11" class="node"><title>Node11</title>
<g id="a_node11"><a xlink:href="class_i_n_m_o_s_t_1_1_element_set.html#af22386930e063d805c1961222e202b24" target="_top" xlink:title="Compute and store union with elements. ">
<polygon fill="none" stroke="black" points="175,-258 175,-288 285,-288 285,-258 175,-258"/>
<text text-anchor="start" x="183" y="-276" font-family="Helvetica,sans-Serif" font-size="10.00">INMOST::ElementSet</text>
<text text-anchor="middle" x="230" y="-265" font-family="Helvetica,sans-Serif" font-size="10.00">::Unite</text>
</a>
</g>
</g>
<!-- Node1&#45;&gt;Node11 -->
<g id="edge19" class="edge"><title>Node1&#45;&gt;Node11</title>
<path fill="none" stroke="midnightblue" d="M74.7195,-416.006C91.4398,-389.241 121.232,-345.796 155,-316 167.478,-304.989 183.202,-295.382 196.943,-288.059"/>
<polygon fill="midnightblue" stroke="midnightblue" points="71.6142,-414.374 69.3654,-424.728 77.5799,-418.037 71.6142,-414.374"/>
</g>
<!-- Node12 -->
<g id="node12" class="node"><title>Node12</title>
<g id="a_node12"><a xlink:href="class_i_n_m_o_s_t_1_1_element_set.html#aa4a51ad66c30dbc1d55618a25901599e" target="_top" xlink:title="Compute and store difference with elements. ">
<polygon fill="none" stroke="black" points="175,-191 175,-221 285,-221 285,-191 175,-191"/>
<text text-anchor="start" x="183" y="-209" font-family="Helvetica,sans-Serif" font-size="10.00">INMOST::ElementSet</text>
<text text-anchor="middle" x="230" y="-198" font-family="Helvetica,sans-Serif" font-size="10.00">::Subtract</text>
</a>
</g>
</g>
<!-- Node1&#45;&gt;Node12 -->
<g id="edge21" class="edge"><title>Node1&#45;&gt;Node12</title>
<path fill="none" stroke="midnightblue" d="M67.6626,-415.048C79.9895,-375.737 108.473,-298.751 155,-249 165.758,-237.496 180.294,-228.147 193.635,-221.14"/>
<polygon fill="midnightblue" stroke="midnightblue" points="64.2395,-414.275 64.678,-424.861 70.9366,-416.312 64.2395,-414.275"/>
</g>
<!-- Node13 -->
<g id="node13" class="node"><title>Node13</title>
<g id="a_node13"><a xlink:href="class_i_n_m_o_s_t_1_1_element_set.html#a361a4f92a43b559c554554cf7492670a" target="_top" xlink:title="Compute and store intersection with elements. ">
<polygon fill="none" stroke="black" points="175,-124 175,-154 285,-154 285,-124 175,-124"/>
<text text-anchor="start" x="183" y="-142" font-family="Helvetica,sans-Serif" font-size="10.00">INMOST::ElementSet</text>
<text text-anchor="middle" x="230" y="-131" font-family="Helvetica,sans-Serif" font-size="10.00">::Intersect</text>
</a>
</g>
</g>
<!-- Node1&#45;&gt;Node13 -->
<g id="edge23" class="edge"><title>Node1&#45;&gt;Node13</title>
<path fill="none" stroke="midnightblue" d="M63.944,-414.644C71.8567,-364.863 95.449,-253.025 155,-182 164.833,-170.272 178.733,-161.021 191.835,-154.152"/>
<polygon fill="midnightblue" stroke="midnightblue" points="60.4384,-414.419 62.409,-424.829 67.3603,-415.463 60.4384,-414.419"/>
</g>
<!-- Node14 -->
<g id="node14" class="node"><title>Node14</title>
<g id="a_node14"><a xlink:href="class_i_n_m_o_s_t_1_1_mesh.html#a0ac883e455fe795e9a7db3cc8c99ac26" target="_top" xlink:title="INMOST::Mesh::RemoveGhost\lElements">
<polygon fill="none" stroke="black" points="155,-57 155,-87 305,-87 305,-57 155,-57"/>
<text text-anchor="start" x="163" y="-75" font-family="Helvetica,sans-Serif" font-size="10.00">INMOST::Mesh::RemoveGhost</text>
<text text-anchor="middle" x="230" y="-64" font-family="Helvetica,sans-Serif" font-size="10.00">Elements</text>
</a>
</g>
</g>
<!-- Node1&#45;&gt;Node14 -->
<g id="edge25" class="edge"><title>Node1&#45;&gt;Node14</title>
<path fill="none" stroke="midnightblue" d="M61.6073,-414.775C65.3953,-356.082 82.0567,-208.275 155,-115 164.245,-103.178 177.713,-93.9915 190.634,-87.2006"/>
<polygon fill="midnightblue" stroke="midnightblue" points="58.1008,-414.791 61.0237,-424.974 65.0894,-415.19 58.1008,-414.791"/>
</g>
<!-- Node15 -->
<g id="node15" class="node"><title>Node15</title>
<g id="a_node15"><a xlink:href="class_i_n_m_o_s_t_1_1_mesh.html#a92e7888589b79355fa273ad67c8c9bb5" target="_top" xlink:title="INMOST::Mesh::Enumerate">
<polygon fill="none" stroke="black" points="161.5,-0.5 161.5,-19.5 298.5,-19.5 298.5,-0.5 161.5,-0.5"/>
<text text-anchor="middle" x="230" y="-7.5" font-family="Helvetica,sans-Serif" font-size="10.00">INMOST::Mesh::Enumerate</text>
</a>
</g>
</g>
<!-- Node1&#45;&gt;Node15 -->
<g id="edge27" class="edge"><title>Node1&#45;&gt;Node15</title>
<path fill="none" stroke="midnightblue" d="M59.7144,-414.91C58.9201,-347.861 65.4229,-161.888 155,-48 165.536,-34.6052 182.081,-25.4851 196.857,-19.5449"/>
<polygon fill="midnightblue" stroke="midnightblue" points="56.216,-415.036 59.9018,-424.97 63.2148,-414.906 56.216,-415.036"/>
</g>
<!-- Node2&#45;&gt;Node2 -->
<g id="edge2" class="edge"><title>Node2&#45;&gt;Node2</title>
<path fill="none" stroke="midnightblue" d="M199.793,-901.458C203.542,-906.179 213.611,-909.5 230,-909.5 256.895,-909.5 266.77,-900.557 259.626,-891.159"/>
<polygon fill="midnightblue" stroke="midnightblue" points="203.305,-901.34 200.374,-891.159 196.316,-900.946 203.305,-901.34"/>
</g>
<!-- Node3&#45;&gt;Node3 -->
<g id="edge4" class="edge"><title>Node3&#45;&gt;Node3</title>
<path fill="none" stroke="midnightblue" d="M199.793,-834.458C203.542,-839.179 213.611,-842.5 230,-842.5 256.895,-842.5 266.77,-833.557 259.626,-824.159"/>
<polygon fill="midnightblue" stroke="midnightblue" points="203.305,-834.34 200.374,-824.159 196.316,-833.946 203.305,-834.34"/>
</g>
<!-- Node4&#45;&gt;Node4 -->
<g id="edge6" class="edge"><title>Node4&#45;&gt;Node4</title>
<path fill="none" stroke="midnightblue" d="M199.793,-767.458C203.542,-772.179 213.611,-775.5 230,-775.5 256.895,-775.5 266.77,-766.557 259.626,-757.159"/>
<polygon fill="midnightblue" stroke="midnightblue" points="203.305,-767.34 200.374,-757.159 196.316,-766.946 203.305,-767.34"/>
</g>
<!-- Node5&#45;&gt;Node5 -->
<g id="edge8" class="edge"><title>Node5&#45;&gt;Node5</title>
<path fill="none" stroke="midnightblue" d="M199.793,-700.458C203.542,-705.179 213.611,-708.5 230,-708.5 256.895,-708.5 266.77,-699.557 259.626,-690.159"/>
<polygon fill="midnightblue" stroke="midnightblue" points="203.305,-700.34 200.374,-690.159 196.316,-699.946 203.305,-700.34"/>
</g>
<!-- Node6&#45;&gt;Node6 -->
<g id="edge10" class="edge"><title>Node6&#45;&gt;Node6</title>
<path fill="none" stroke="midnightblue" d="M199.793,-633.458C203.542,-638.179 213.611,-641.5 230,-641.5 256.895,-641.5 266.77,-632.557 259.626,-623.159"/>
<polygon fill="midnightblue" stroke="midnightblue" points="203.305,-633.34 200.374,-623.159 196.316,-632.946 203.305,-633.34"/>
</g>
<!-- Node7&#45;&gt;Node7 -->
<g id="edge12" class="edge"><title>Node7&#45;&gt;Node7</title>
<path fill="none" stroke="midnightblue" d="M199.793,-566.458C203.542,-571.179 213.611,-574.5 230,-574.5 256.895,-574.5 266.77,-565.557 259.626,-556.159"/>
<polygon fill="midnightblue" stroke="midnightblue" points="203.305,-566.34 200.374,-556.159 196.316,-565.946 203.305,-566.34"/>
</g>
<!-- Node8&#45;&gt;Node8 -->
<g id="edge14" class="edge"><title>Node8&#45;&gt;Node8</title>
<path fill="none" stroke="midnightblue" d="M199.793,-499.458C203.542,-504.179 213.611,-507.5 230,-507.5 256.895,-507.5 266.77,-498.557 259.626,-489.159"/>
<polygon fill="midnightblue" stroke="midnightblue" points="203.305,-499.34 200.374,-489.159 196.316,-498.946 203.305,-499.34"/>
</g>
<!-- Node9&#45;&gt;Node9 -->
<g id="edge16" class="edge"><title>Node9&#45;&gt;Node9</title>
<path fill="none" stroke="midnightblue" d="M199.793,-432.458C203.542,-437.179 213.611,-440.5 230,-440.5 256.895,-440.5 266.77,-431.557 259.626,-422.159"/>
<polygon fill="midnightblue" stroke="midnightblue" points="203.305,-432.34 200.374,-422.159 196.316,-431.946 203.305,-432.34"/>
</g>
<!-- Node10&#45;&gt;Node10 -->
<g id="edge18" class="edge"><title>Node10&#45;&gt;Node10</title>
<path fill="none" stroke="midnightblue" d="M199.793,-365.458C203.542,-370.179 213.611,-373.5 230,-373.5 256.895,-373.5 266.77,-364.557 259.626,-355.159"/>
<polygon fill="midnightblue" stroke="midnightblue" points="203.305,-365.34 200.374,-355.159 196.316,-364.946 203.305,-365.34"/>
</g>
<!-- Node11&#45;&gt;Node11 -->
<g id="edge20" class="edge"><title>Node11&#45;&gt;Node11</title>
<path fill="none" stroke="midnightblue" d="M199.793,-298.458C203.542,-303.179 213.611,-306.5 230,-306.5 256.895,-306.5 266.77,-297.557 259.626,-288.159"/>
<polygon fill="midnightblue" stroke="midnightblue" points="203.305,-298.34 200.374,-288.159 196.316,-297.946 203.305,-298.34"/>
</g>
<!-- Node12&#45;&gt;Node12 -->
<g id="edge22" class="edge"><title>Node12&#45;&gt;Node12</title>
<path fill="none" stroke="midnightblue" d="M199.793,-231.458C203.542,-236.179 213.611,-239.5 230,-239.5 256.895,-239.5 266.77,-230.557 259.626,-221.159"/>
<polygon fill="midnightblue" stroke="midnightblue" points="203.305,-231.34 200.374,-221.159 196.316,-230.946 203.305,-231.34"/>
</g>
<!-- Node13&#45;&gt;Node13 -->
<g id="edge24" class="edge"><title>Node13&#45;&gt;Node13</title>
<path fill="none" stroke="midnightblue" d="M199.793,-164.458C203.542,-169.179 213.611,-172.5 230,-172.5 256.895,-172.5 266.77,-163.557 259.626,-154.159"/>
<polygon fill="midnightblue" stroke="midnightblue" points="203.305,-164.34 200.374,-154.159 196.316,-163.946 203.305,-164.34"/>
</g>
<!-- Node14&#45;&gt;Node14 -->
<g id="edge26" class="edge"><title>Node14&#45;&gt;Node14</title>
<path fill="none" stroke="midnightblue" d="M199.793,-97.4579C203.542,-102.179 213.611,-105.5 230,-105.5 256.895,-105.5 266.77,-96.5566 259.626,-87.159"/>
<polygon fill="midnightblue" stroke="midnightblue" points="203.305,-97.3403 200.374,-87.159 196.316,-96.946 203.305,-97.3403"/>
</g>
<!-- Node15&#45;&gt;Node15 -->
<g id="edge28" class="edge"><title>Node15&#45;&gt;Node15</title>
<path fill="none" stroke="midnightblue" d="M198.189,-28.2746C199.096,-33.741 209.699,-38 230,-38 260.215,-38 268.949,-28.5653 256.202,-19.7571"/>
<polygon fill="midnightblue" stroke="midnightblue" points="201.221,-30.0337 203.798,-19.7571 195.375,-26.1836 201.221,-30.0337"/>
</g>
</g>
</svg>
