<?xml version="1.0" encoding="UTF-8" standalone="no"?>
<!DOCTYPE svg PUBLIC "-//W3C//DTD SVG 1.1//EN"
 "http://www.w3.org/Graphics/SVG/1.1/DTD/svg11.dtd">
<!-- Generated by graphviz version 2.38.0 (20140413.2041)
 -->
<!-- Title: INMOST::enhanced_multivar_expression::GetDerivative Pages: 1 -->
<svg width="665pt" height="235pt"
 viewBox="0.00 0.00 665.00 235.00" xmlns="http://www.w3.org/2000/svg" xmlns:xlink="http://www.w3.org/1999/xlink">
<g id="graph0" class="graph" transform="scale(1 1) rotate(0) translate(4 231)">
<title>INMOST::enhanced_multivar_expression::GetDerivative</title>
<!-- Node1 -->
<g id="node1" class="node"><title>Node1</title>
<polygon fill="#bfbfbf" stroke="black" points="0,-98.5 0,-128.5 140,-128.5 140,-98.5 0,-98.5"/>
<text text-anchor="start" x="8" y="-116.5" font-family="Helvetica,sans-Serif" font-size="10.00">INMOST::enhanced_multivar</text>
<text text-anchor="middle" x="70" y="-105.5" font-family="Helvetica,sans-Serif" font-size="10.00">_expression::GetDerivative</text>
</g>
<!-- Node2 -->
<g id="node2" class="node"><title>Node2</title>
<g id="a_node2"><a xlink:href="class_i_n_m_o_s_t_1_1_automatizator.html#a5bb5f3a05ecf6694cac01abc586df7af" target="_top" xlink:title="INMOST::Automatizator\l::GetMerger">
<polygon fill="none" stroke="black" points="188.5,-196.5 188.5,-226.5 308.5,-226.5 308.5,-196.5 188.5,-196.5"/>
<text text-anchor="start" x="196.5" y="-214.5" font-family="Helvetica,sans-Serif" font-size="10.00">INMOST::Automatizator</text>
<text text-anchor="middle" x="248.5" y="-203.5" font-family="Helvetica,sans-Serif" font-size="10.00">::GetMerger</text>
</a>
</g>
</g>
<!-- Node1&#45;&gt;Node2 -->
<g id="edge1" class="edge"><title>Node1&#45;&gt;Node2</title>
<path fill="none" stroke="midnightblue" d="M88.9269,-128.601C109.044,-144.937 143.174,-170.872 176,-187.5 179.513,-189.28 183.188,-190.973 186.938,-192.574"/>
<polygon fill="midnightblue" stroke="midnightblue" points="185.78,-195.881 196.364,-196.366 188.393,-189.387 185.78,-195.881"/>
</g>
<!-- Node3 -->
<g id="node3" class="node"><title>Node3</title>
<g id="a_node3"><a xlink:href="class_i_n_m_o_s_t_1_1enhanced__multivar__expression.html#a458567eb465bc407ef959ec2d1150630" target="_top" xlink:title="INMOST::enhanced_multivar\l_expression::GetDerivative">
<polygon fill="none" stroke="black" points="178.5,-147.5 178.5,-177.5 318.5,-177.5 318.5,-147.5 178.5,-147.5"/>
<text text-anchor="start" x="186.5" y="-165.5" font-family="Helvetica,sans-Serif" font-size="10.00">INMOST::enhanced_multivar</text>
<text text-anchor="middle" x="248.5" y="-154.5" font-family="Helvetica,sans-Serif" font-size="10.00">_expression::GetDerivative</text>
</a>
</g>
</g>
<!-- Node1&#45;&gt;Node3 -->
<g id="edge2" class="edge"><title>Node1&#45;&gt;Node3</title>
<path fill="none" stroke="midnightblue" d="M125.396,-128.601C143.768,-133.702 164.447,-139.443 183.493,-144.73"/>
<polygon fill="midnightblue" stroke="midnightblue" points="182.712,-148.146 193.284,-147.448 184.584,-141.401 182.712,-148.146"/>
</g>
<!-- Node8 -->
<g id="node8" class="node"><title>Node8</title>
<g id="a_node8"><a xlink:href="class_i_n_m_o_s_t_1_1_sparse_1_1_row_merger.html#a1ca4322ea16f7a9e4679f787a7b03951" target="_top" xlink:title="INMOST::Sparse::RowMerger\l::AddRow">
<polygon fill="none" stroke="black" points="176,-98.5 176,-128.5 321,-128.5 321,-98.5 176,-98.5"/>
<text text-anchor="start" x="184" y="-116.5" font-family="Helvetica,sans-Serif" font-size="10.00">INMOST::Sparse::RowMerger</text>
<text text-anchor="middle" x="248.5" y="-105.5" font-family="Helvetica,sans-Serif" font-size="10.00">::AddRow</text>
</a>
</g>
</g>
<!-- Node1&#45;&gt;Node8 -->
<g id="edge7" class="edge"><title>Node1&#45;&gt;Node8</title>
<path fill="none" stroke="midnightblue" d="M140.251,-113.5C148.559,-113.5 157.103,-113.5 165.568,-113.5"/>
<polygon fill="midnightblue" stroke="midnightblue" points="165.835,-117 175.835,-113.5 165.835,-110 165.835,-117"/>
</g>
<!-- Node9 -->
<g id="node9" class="node"><title>Node9</title>
<g id="a_node9"><a xlink:href="class_i_n_m_o_s_t_1_1_sparse_1_1_row_merger.html#ac89fd9b0b08606d13e7e57c93d8c5089" target="_top" xlink:title="INMOST::Sparse::RowMerger\l::RetriveRow">
<polygon fill="none" stroke="black" points="176,-49.5 176,-79.5 321,-79.5 321,-49.5 176,-49.5"/>
<text text-anchor="start" x="184" y="-67.5" font-family="Helvetica,sans-Serif" font-size="10.00">INMOST::Sparse::RowMerger</text>
<text text-anchor="middle" x="248.5" y="-56.5" font-family="Helvetica,sans-Serif" font-size="10.00">::RetriveRow</text>
</a>
</g>
</g>
<!-- Node1&#45;&gt;Node9 -->
<g id="edge8" class="edge"><title>Node1&#45;&gt;Node9</title>
<path fill="none" stroke="midnightblue" d="M125.396,-98.3986C143.768,-93.2981 164.447,-87.5571 183.493,-82.2695"/>
<polygon fill="midnightblue" stroke="midnightblue" points="184.584,-85.5991 193.284,-79.5516 182.712,-78.8542 184.584,-85.5991"/>
</g>
<!-- Node10 -->
<g id="node10" class="node"><title>Node10</title>
<g id="a_node10"><a xlink:href="class_i_n_m_o_s_t_1_1_sparse_1_1_row_merger.html#ac3cceb3d381017712c7e8dc4c23b85a2" target="_top" xlink:title="Clear linked list. ">
<polygon fill="none" stroke="black" points="176,-0.5 176,-30.5 321,-30.5 321,-0.5 176,-0.5"/>
<text text-anchor="start" x="184" y="-18.5" font-family="Helvetica,sans-Serif" font-size="10.00">INMOST::Sparse::RowMerger</text>
<text text-anchor="middle" x="248.5" y="-7.5" font-family="Helvetica,sans-Serif" font-size="10.00">::Clear</text>
</a>
</g>
</g>
<!-- Node1&#45;&gt;Node10 -->
<g id="edge9" class="edge"><title>Node1&#45;&gt;Node10</title>
<path fill="none" stroke="midnightblue" d="M89.3702,-98.4059C109.598,-82.3568 143.569,-57.0531 176,-40.5 180.242,-38.3347 184.715,-36.2818 189.269,-34.3526"/>
<polygon fill="midnightblue" stroke="midnightblue" points="190.707,-37.5468 198.681,-30.5704 188.097,-31.0516 190.707,-37.5468"/>
</g>
<!-- Node4 -->
<g id="node4" class="node"><title>Node4</title>
<g id="a_node4"><a xlink:href="class_i_n_m_o_s_t_1_1_sparse_1_1_row.html#ae151ff1b4c953a41174aaf5a4261fafa" target="_top" xlink:title="INMOST::Sparse::Row\l::Begin">
<polygon fill="none" stroke="black" points="368.5,-169.5 368.5,-199.5 483.5,-199.5 483.5,-169.5 368.5,-169.5"/>
<text text-anchor="start" x="376.5" y="-187.5" font-family="Helvetica,sans-Serif" font-size="10.00">INMOST::Sparse::Row</text>
<text text-anchor="middle" x="426" y="-176.5" font-family="Helvetica,sans-Serif" font-size="10.00">::Begin</text>
</a>
</g>
</g>
<!-- Node3&#45;&gt;Node4 -->
<g id="edge3" class="edge"><title>Node3&#45;&gt;Node4</title>
<path fill="none" stroke="midnightblue" d="M318.61,-171.163C331.629,-172.795 345.221,-174.499 358.168,-176.122"/>
<polygon fill="midnightblue" stroke="midnightblue" points="358.032,-179.632 368.389,-177.404 358.902,-172.687 358.032,-179.632"/>
</g>
<!-- Node6 -->
<g id="node6" class="node"><title>Node6</title>
<g id="a_node6"><a xlink:href="class_i_n_m_o_s_t_1_1_sparse_1_1_row.html#a8f933f39bae05075356ab209eafcc47a" target="_top" xlink:title="INMOST::Sparse::Row::End">
<polygon fill="none" stroke="black" points="357,-131 357,-150 495,-150 495,-131 357,-131"/>
<text text-anchor="middle" x="426" y="-138" font-family="Helvetica,sans-Serif" font-size="10.00">INMOST::Sparse::Row::End</text>
</a>
</g>
</g>
<!-- Node3&#45;&gt;Node6 -->
<g id="edge5" class="edge"><title>Node3&#45;&gt;Node6</title>
<path fill="none" stroke="midnightblue" d="M318.61,-153.837C327.838,-152.68 337.354,-151.487 346.725,-150.312"/>
<polygon fill="midnightblue" stroke="midnightblue" points="347.328,-153.764 356.815,-149.047 346.457,-146.819 347.328,-153.764"/>
</g>
<!-- Node5 -->
<g id="node5" class="node"><title>Node5</title>
<g id="a_node5"><a xlink:href="class_i_n_m_o_s_t_1_1dynarray.html#a95d4cabcea41ee216d2ccd310d04cd61" target="_top" xlink:title="INMOST::dynarray::begin">
<polygon fill="none" stroke="black" points="531,-175 531,-194 657,-194 657,-175 531,-175"/>
<text text-anchor="middle" x="594" y="-182" font-family="Helvetica,sans-Serif" font-size="10.00">INMOST::dynarray::begin</text>
</a>
</g>
</g>
<!-- Node4&#45;&gt;Node5 -->
<g id="edge4" class="edge"><title>Node4&#45;&gt;Node5</title>
<path fill="none" stroke="midnightblue" d="M483.663,-184.5C495.551,-184.5 508.242,-184.5 520.613,-184.5"/>
<polygon fill="midnightblue" stroke="midnightblue" points="520.906,-188 530.906,-184.5 520.906,-181 520.906,-188"/>
</g>
<!-- Node7 -->
<g id="node7" class="node"><title>Node7</title>
<g id="a_node7"><a xlink:href="class_i_n_m_o_s_t_1_1dynarray.html#ad3e9af27a79aa4c5a57635546091a33d" target="_top" xlink:title="INMOST::dynarray::end">
<polygon fill="none" stroke="black" points="534.5,-131 534.5,-150 653.5,-150 653.5,-131 534.5,-131"/>
<text text-anchor="middle" x="594" y="-138" font-family="Helvetica,sans-Serif" font-size="10.00">INMOST::dynarray::end</text>
</a>
</g>
</g>
<!-- Node6&#45;&gt;Node7 -->
<g id="edge6" class="edge"><title>Node6&#45;&gt;Node7</title>
<path fill="none" stroke="midnightblue" d="M495.477,-140.5C504.987,-140.5 514.76,-140.5 524.274,-140.5"/>
<polygon fill="midnightblue" stroke="midnightblue" points="524.473,-144 534.473,-140.5 524.473,-137 524.473,-144"/>
</g>
</g>
</svg>
