<?xml version="1.0" encoding="UTF-8" standalone="no"?>
<!DOCTYPE svg PUBLIC "-//W3C//DTD SVG 1.1//EN"
 "http://www.w3.org/Graphics/SVG/1.1/DTD/svg11.dtd">
<!-- Generated by graphviz version 2.38.0 (20140413.2041)
 -->
<!-- Title: INMOST::Mesh::RemoveGhostElements Pages: 1 -->
<svg width="471pt" height="88pt"
 viewBox="0.00 0.00 471.00 88.00" xmlns="http://www.w3.org/2000/svg" xmlns:xlink="http://www.w3.org/1999/xlink">
<g id="graph0" class="graph" transform="scale(1 1) rotate(0) translate(4 84)">
<title>INMOST::Mesh::RemoveGhostElements</title>
<!-- Node1 -->
<g id="node1" class="node"><title>Node1</title>
<polygon fill="#bfbfbf" stroke="black" points="0,-24.5 0,-54.5 150,-54.5 150,-24.5 0,-24.5"/>
<text text-anchor="start" x="8" y="-42.5" font-family="Helvetica,sans-Serif" font-size="10.00">INMOST::Mesh::RemoveGhost</text>
<text text-anchor="middle" x="75" y="-31.5" font-family="Helvetica,sans-Serif" font-size="10.00">Elements</text>
</g>
<!-- Node1&#45;&gt;Node1 -->
<g id="edge1" class="edge"><title>Node1&#45;&gt;Node1</title>
<path fill="none" stroke="midnightblue" d="M45.374,-54.659C38.2301,-64.0566 48.1055,-73 75,-73 91.3889,-73 101.458,-69.679 105.207,-64.9579"/>
<polygon fill="midnightblue" stroke="midnightblue" points="108.684,-64.446 104.626,-54.659 101.695,-64.8403 108.684,-64.446"/>
</g>
<!-- Node2 -->
<g id="node2" class="node"><title>Node2</title>
<g id="a_node2"><a xlink:href="class_i_n_m_o_s_t_1_1_element_array.html#afd94fb30e65569ec6ccce11b9c881c1e" target="_top" xlink:title="INMOST::ElementArray\l::data">
<polygon fill="none" stroke="black" points="186,-49.5 186,-79.5 305,-79.5 305,-49.5 186,-49.5"/>
<text text-anchor="start" x="194" y="-67.5" font-family="Helvetica,sans-Serif" font-size="10.00">INMOST::ElementArray</text>
<text text-anchor="middle" x="245.5" y="-56.5" font-family="Helvetica,sans-Serif" font-size="10.00">::data</text>
</a>
</g>
</g>
<!-- Node1&#45;&gt;Node2 -->
<g id="edge2" class="edge"><title>Node1&#45;&gt;Node2</title>
<path fill="none" stroke="midnightblue" d="M150.397,-50.5381C158.859,-51.7935 167.454,-53.0689 175.837,-54.3126"/>
<polygon fill="midnightblue" stroke="midnightblue" points="175.527,-57.8049 185.933,-55.8105 176.555,-50.8807 175.527,-57.8049"/>
</g>
<!-- Node4 -->
<g id="node4" class="node"><title>Node4</title>
<g id="a_node4"><a xlink:href="class_i_n_m_o_s_t_1_1_element_array.html#a6b8d74b3b5dcd00aedb27579d274e078" target="_top" xlink:title="INMOST::ElementArray\l::size">
<polygon fill="none" stroke="black" points="186,-0.5 186,-30.5 305,-30.5 305,-0.5 186,-0.5"/>
<text text-anchor="start" x="194" y="-18.5" font-family="Helvetica,sans-Serif" font-size="10.00">INMOST::ElementArray</text>
<text text-anchor="middle" x="245.5" y="-7.5" font-family="Helvetica,sans-Serif" font-size="10.00">::size</text>
</a>
</g>
</g>
<!-- Node1&#45;&gt;Node4 -->
<g id="edge4" class="edge"><title>Node1&#45;&gt;Node4</title>
<path fill="none" stroke="midnightblue" d="M150.397,-28.9034C158.859,-27.6982 167.454,-26.4739 175.837,-25.2799"/>
<polygon fill="midnightblue" stroke="midnightblue" points="176.526,-28.7171 185.933,-23.8419 175.539,-21.7871 176.526,-28.7171"/>
</g>
<!-- Node3 -->
<g id="node3" class="node"><title>Node3</title>
<g id="a_node3"><a xlink:href="class_i_n_m_o_s_t_1_1dynarray.html#a161fcf0715c0f07ea1d4a1cb2e2ca74d" target="_top" xlink:title="INMOST::dynarray::data">
<polygon fill="none" stroke="black" points="341,-55 341,-74 463,-74 463,-55 341,-55"/>
<text text-anchor="middle" x="402" y="-62" font-family="Helvetica,sans-Serif" font-size="10.00">INMOST::dynarray::data</text>
</a>
</g>
</g>
<!-- Node2&#45;&gt;Node3 -->
<g id="edge3" class="edge"><title>Node2&#45;&gt;Node3</title>
<path fill="none" stroke="midnightblue" d="M305.351,-64.5C313.596,-64.5 322.138,-64.5 330.571,-64.5"/>
<polygon fill="midnightblue" stroke="midnightblue" points="330.775,-68.0001 340.775,-64.5 330.775,-61.0001 330.775,-68.0001"/>
</g>
<!-- Node5 -->
<g id="node5" class="node"><title>Node5</title>
<g id="a_node5"><a xlink:href="class_i_n_m_o_s_t_1_1dynarray.html#aeddec63b957a8a61e89f14d28fa1a2eb" target="_top" xlink:title="INMOST::dynarray::size">
<polygon fill="none" stroke="black" points="341.5,-6 341.5,-25 462.5,-25 462.5,-6 341.5,-6"/>
<text text-anchor="middle" x="402" y="-13" font-family="Helvetica,sans-Serif" font-size="10.00">INMOST::dynarray::size</text>
</a>
</g>
</g>
<!-- Node4&#45;&gt;Node5 -->
<g id="edge5" class="edge"><title>Node4&#45;&gt;Node5</title>
<path fill="none" stroke="midnightblue" d="M305.351,-15.5C313.809,-15.5 322.58,-15.5 331.225,-15.5"/>
<polygon fill="midnightblue" stroke="midnightblue" points="331.289,-19.0001 341.289,-15.5 331.289,-12.0001 331.289,-19.0001"/>
</g>
</g>
</svg>
