<?xml version="1.0" encoding="UTF-8" standalone="no"?>
<!DOCTYPE svg PUBLIC "-//W3C//DTD SVG 1.1//EN"
 "http://www.w3.org/Graphics/SVG/1.1/DTD/svg11.dtd">
<!-- Generated by graphviz version 2.38.0 (20140413.2041)
 -->
<!-- Title: INMOST::Automatizator::GetMerger Pages: 1 -->
<svg width="319pt" height="345pt"
 viewBox="0.00 0.00 319.00 344.50" xmlns="http://www.w3.org/2000/svg" xmlns:xlink="http://www.w3.org/1999/xlink">
<g id="graph0" class="graph" transform="scale(1 1) rotate(0) translate(4 340.5)">
<title>INMOST::Automatizator::GetMerger</title>
<!-- Node1 -->
<g id="node1" class="node"><title>Node1</title>
<polygon fill="#bfbfbf" stroke="black" points="0,-147.5 0,-177.5 120,-177.5 120,-147.5 0,-147.5"/>
<text text-anchor="start" x="8" y="-165.5" font-family="Helvetica,sans-Serif" font-size="10.00">INMOST::Automatizator</text>
<text text-anchor="middle" x="60" y="-154.5" font-family="Helvetica,sans-Serif" font-size="10.00">::GetMerger</text>
</g>
<!-- Node2 -->
<g id="node2" class="node"><title>Node2</title>
<g id="a_node2"><a xlink:href="class_i_n_m_o_s_t_1_1enhanced__multivar__expression.html#a45c809d9a3421981e9243a54262ca9fb" target="_top" xlink:title="INMOST::enhanced_multivar\l_expression::enhanced_multivar\l_expression">
<polygon fill="none" stroke="black" points="156,-295 156,-336 311,-336 311,-295 156,-295"/>
<text text-anchor="start" x="164" y="-324" font-family="Helvetica,sans-Serif" font-size="10.00">INMOST::enhanced_multivar</text>
<text text-anchor="start" x="164" y="-313" font-family="Helvetica,sans-Serif" font-size="10.00">_expression::enhanced_multivar</text>
<text text-anchor="middle" x="233.5" y="-302" font-family="Helvetica,sans-Serif" font-size="10.00">_expression</text>
</a>
</g>
</g>
<!-- Node1&#45;&gt;Node2 -->
<g id="edge1" class="edge"><title>Node1&#45;&gt;Node2</title>
<path fill="none" stroke="midnightblue" d="M74.3112,-186.824C90.409,-214.214 119.891,-258.422 156,-285.5 160.679,-289.009 165.822,-292.164 171.16,-294.987"/>
<polygon fill="midnightblue" stroke="midnightblue" points="77.1992,-184.824 69.1865,-177.893 71.1277,-188.308 77.1992,-184.824"/>
</g>
<!-- Node3 -->
<g id="node3" class="node"><title>Node3</title>
<g id="a_node3"><a xlink:href="class_i_n_m_o_s_t_1_1enhanced__multivar__expression.html#a677fecf4942068b4c579c190b52dc409" target="_top" xlink:title="INMOST::enhanced_multivar\l_expression::GetDerivative">
<polygon fill="none" stroke="black" points="163.5,-245.5 163.5,-275.5 303.5,-275.5 303.5,-245.5 163.5,-245.5"/>
<text text-anchor="start" x="171.5" y="-263.5" font-family="Helvetica,sans-Serif" font-size="10.00">INMOST::enhanced_multivar</text>
<text text-anchor="middle" x="233.5" y="-252.5" font-family="Helvetica,sans-Serif" font-size="10.00">_expression::GetDerivative</text>
</a>
</g>
</g>
<!-- Node1&#45;&gt;Node3 -->
<g id="edge2" class="edge"><title>Node1&#45;&gt;Node3</title>
<path fill="none" stroke="midnightblue" d="M84.3477,-184.588C102.629,-200.869 129.346,-222.526 156,-236.5 162.411,-239.861 169.373,-242.847 176.399,-245.471"/>
<polygon fill="midnightblue" stroke="midnightblue" points="86.3301,-181.66 76.5724,-177.532 81.6262,-186.844 86.3301,-181.66"/>
</g>
<!-- Node4 -->
<g id="node4" class="node"><title>Node4</title>
<g id="a_node4"><a xlink:href="class_i_n_m_o_s_t_1_1enhanced__multivar__expression.html#ac5919c2f1fe2d724401bd2df073cfbb6" target="_top" xlink:title="INMOST::enhanced_multivar\l_expression::operator=">
<polygon fill="none" stroke="black" points="163.5,-196.5 163.5,-226.5 303.5,-226.5 303.5,-196.5 163.5,-196.5"/>
<text text-anchor="start" x="171.5" y="-214.5" font-family="Helvetica,sans-Serif" font-size="10.00">INMOST::enhanced_multivar</text>
<text text-anchor="middle" x="233.5" y="-203.5" font-family="Helvetica,sans-Serif" font-size="10.00">_expression::operator=</text>
</a>
</g>
</g>
<!-- Node1&#45;&gt;Node4 -->
<g id="edge3" class="edge"><title>Node1&#45;&gt;Node4</title>
<path fill="none" stroke="midnightblue" d="M123.629,-180.394C142.075,-185.664 162.064,-191.376 179.819,-196.448"/>
<polygon fill="midnightblue" stroke="midnightblue" points="124.432,-176.983 113.855,-177.601 122.509,-183.714 124.432,-176.983"/>
</g>
<!-- Node5 -->
<g id="node5" class="node"><title>Node5</title>
<g id="a_node5"><a xlink:href="class_i_n_m_o_s_t_1_1enhanced__multivar__expression.html#a41816d1b5eb3737263f2c6e93f6eb5a3" target="_top" xlink:title="INMOST::enhanced_multivar\l_expression::operator+=">
<polygon fill="none" stroke="black" points="163.5,-147.5 163.5,-177.5 303.5,-177.5 303.5,-147.5 163.5,-147.5"/>
<text text-anchor="start" x="171.5" y="-165.5" font-family="Helvetica,sans-Serif" font-size="10.00">INMOST::enhanced_multivar</text>
<text text-anchor="middle" x="233.5" y="-154.5" font-family="Helvetica,sans-Serif" font-size="10.00">_expression::operator+=</text>
</a>
</g>
</g>
<!-- Node1&#45;&gt;Node5 -->
<g id="edge4" class="edge"><title>Node1&#45;&gt;Node5</title>
<path fill="none" stroke="midnightblue" d="M130.318,-162.5C141.202,-162.5 152.452,-162.5 163.331,-162.5"/>
<polygon fill="midnightblue" stroke="midnightblue" points="130.021,-159 120.021,-162.5 130.021,-166 130.021,-159"/>
</g>
<!-- Node6 -->
<g id="node6" class="node"><title>Node6</title>
<g id="a_node6"><a xlink:href="class_i_n_m_o_s_t_1_1enhanced__multivar__expression.html#ac8e90e11bf754d4cc9c200711aeea4f7" target="_top" xlink:title="INMOST::enhanced_multivar\l_expression::operator&#45;=">
<polygon fill="none" stroke="black" points="163.5,-98.5 163.5,-128.5 303.5,-128.5 303.5,-98.5 163.5,-98.5"/>
<text text-anchor="start" x="171.5" y="-116.5" font-family="Helvetica,sans-Serif" font-size="10.00">INMOST::enhanced_multivar</text>
<text text-anchor="middle" x="233.5" y="-105.5" font-family="Helvetica,sans-Serif" font-size="10.00">_expression::operator&#45;=</text>
</a>
</g>
</g>
<!-- Node1&#45;&gt;Node6 -->
<g id="edge5" class="edge"><title>Node1&#45;&gt;Node6</title>
<path fill="none" stroke="midnightblue" d="M123.629,-144.606C142.075,-139.336 162.064,-133.624 179.819,-128.552"/>
<polygon fill="midnightblue" stroke="midnightblue" points="122.509,-141.286 113.855,-147.399 124.432,-148.017 122.509,-141.286"/>
</g>
<!-- Node7 -->
<g id="node7" class="node"><title>Node7</title>
<g id="a_node7"><a xlink:href="class_i_n_m_o_s_t_1_1enhanced__multivar__expression.html#a97c2fa6cfb8896e0b16d71db17c22d81" target="_top" xlink:title="INMOST::enhanced_multivar\l_expression::operator*=">
<polygon fill="none" stroke="black" points="163.5,-49.5 163.5,-79.5 303.5,-79.5 303.5,-49.5 163.5,-49.5"/>
<text text-anchor="start" x="171.5" y="-67.5" font-family="Helvetica,sans-Serif" font-size="10.00">INMOST::enhanced_multivar</text>
<text text-anchor="middle" x="233.5" y="-56.5" font-family="Helvetica,sans-Serif" font-size="10.00">_expression::operator*=</text>
</a>
</g>
</g>
<!-- Node1&#45;&gt;Node7 -->
<g id="edge6" class="edge"><title>Node1&#45;&gt;Node7</title>
<path fill="none" stroke="midnightblue" d="M84.7789,-140.529C103.102,-124.557 129.678,-103.389 156,-89.5 163.044,-85.7833 170.744,-82.4823 178.458,-79.5961"/>
<polygon fill="midnightblue" stroke="midnightblue" points="82.1284,-138.202 76.9716,-147.457 86.7745,-143.437 82.1284,-138.202"/>
</g>
<!-- Node8 -->
<g id="node8" class="node"><title>Node8</title>
<g id="a_node8"><a xlink:href="class_i_n_m_o_s_t_1_1enhanced__multivar__expression.html#a17b17b1df743295e60b688d2cf0c8382" target="_top" xlink:title="INMOST::enhanced_multivar\l_expression::operator/=">
<polygon fill="none" stroke="black" points="163.5,-0.5 163.5,-30.5 303.5,-30.5 303.5,-0.5 163.5,-0.5"/>
<text text-anchor="start" x="171.5" y="-18.5" font-family="Helvetica,sans-Serif" font-size="10.00">INMOST::enhanced_multivar</text>
<text text-anchor="middle" x="233.5" y="-7.5" font-family="Helvetica,sans-Serif" font-size="10.00">_expression::operator/=</text>
</a>
</g>
</g>
<!-- Node1&#45;&gt;Node8 -->
<g id="edge7" class="edge"><title>Node1&#45;&gt;Node8</title>
<path fill="none" stroke="midnightblue" d="M73.8298,-138.439C89.658,-110.958 119.062,-66.4554 156,-40.5 161.487,-36.6441 167.607,-33.3552 173.928,-30.5563"/>
<polygon fill="midnightblue" stroke="midnightblue" points="70.6479,-136.957 68.8073,-147.391 76.7527,-140.382 70.6479,-136.957"/>
</g>
</g>
</svg>
