<?xml version="1.0" encoding="UTF-8" standalone="no"?>
<!DOCTYPE svg PUBLIC "-//W3C//DTD SVG 1.1//EN"
 "http://www.w3.org/Graphics/SVG/1.1/DTD/svg11.dtd">
<!-- Generated by graphviz version 2.38.0 (20140413.2041)
 -->
<!-- Title: INMOST::Mesh::isValidElement Pages: 1 -->
<svg width="703pt" height="378pt"
 viewBox="0.00 0.00 703.00 378.00" xmlns="http://www.w3.org/2000/svg" xmlns:xlink="http://www.w3.org/1999/xlink">
<g id="graph0" class="graph" transform="scale(1 1) rotate(0) translate(4 374)">
<title>INMOST::Mesh::isValidElement</title>
<!-- Node1 -->
<g id="node1" class="node"><title>Node1</title>
<polygon fill="#bfbfbf" stroke="black" points="0,-167 0,-186 155,-186 155,-167 0,-167"/>
<text text-anchor="middle" x="77.5" y="-174" font-family="Helvetica,sans-Serif" font-size="10.00">INMOST::Mesh::isValidElement</text>
</g>
<!-- Node2 -->
<g id="node2" class="node"><title>Node2</title>
<g id="a_node2"><a xlink:href="class_i_n_m_o_s_t_1_1_storage.html#a59da31b96c2b4e09e260f0deb4dae4d9" target="_top" xlink:title="INMOST::Storage::isValid">
<polygon fill="none" stroke="black" points="191,-167 191,-186 319,-186 319,-167 191,-167"/>
<text text-anchor="middle" x="255" y="-174" font-family="Helvetica,sans-Serif" font-size="10.00">INMOST::Storage::isValid</text>
</a>
</g>
</g>
<!-- Node1&#45;&gt;Node2 -->
<g id="edge1" class="edge"><title>Node1&#45;&gt;Node2</title>
<path fill="none" stroke="midnightblue" d="M165.306,-176.5C173.918,-176.5 182.543,-176.5 190.847,-176.5"/>
<polygon fill="midnightblue" stroke="midnightblue" points="165.222,-173 155.222,-176.5 165.222,-180 165.222,-173"/>
</g>
<!-- Node3 -->
<g id="node3" class="node"><title>Node3</title>
<g id="a_node3"><a xlink:href="class_i_n_m_o_s_t_1_1_mesh.html#a94963a0f3f1d80ee0785fb8ebd409339" target="_top" xlink:title="INMOST::Mesh::GetStatus">
<polygon fill="none" stroke="black" points="362.5,-300 362.5,-319 496.5,-319 496.5,-300 362.5,-300"/>
<text text-anchor="middle" x="429.5" y="-307" font-family="Helvetica,sans-Serif" font-size="10.00">INMOST::Mesh::GetStatus</text>
</a>
</g>
</g>
<!-- Node2&#45;&gt;Node3 -->
<g id="edge2" class="edge"><title>Node2&#45;&gt;Node3</title>
<path fill="none" stroke="midnightblue" d="M266.86,-194.861C282.879,-220.301 315.277,-265.908 355,-290.5 361.275,-294.385 368.323,-297.48 375.503,-299.944"/>
<polygon fill="midnightblue" stroke="midnightblue" points="269.752,-192.881 261.542,-186.185 263.784,-196.54 269.752,-192.881"/>
</g>
<!-- Node4 -->
<g id="node4" class="node"><title>Node4</title>
<g id="a_node4"><a xlink:href="class_i_n_m_o_s_t_1_1_storage.html#a04201e9bd362d98f568664168cba71be" target="_top" xlink:title="Check if any data is associated with Tag. ">
<polygon fill="none" stroke="black" points="359.5,-262 359.5,-281 499.5,-281 499.5,-262 359.5,-262"/>
<text text-anchor="middle" x="429.5" y="-269" font-family="Helvetica,sans-Serif" font-size="10.00">INMOST::Storage::HaveData</text>
</a>
</g>
</g>
<!-- Node2&#45;&gt;Node4 -->
<g id="edge3" class="edge"><title>Node2&#45;&gt;Node4</title>
<path fill="none" stroke="midnightblue" d="M273.172,-193.205C291.841,-210.473 323.277,-237.025 355,-252.5 362.818,-256.314 371.49,-259.424 380.057,-261.94"/>
<polygon fill="midnightblue" stroke="midnightblue" points="275.438,-190.532 265.762,-186.216 270.635,-195.624 275.438,-190.532"/>
</g>
<!-- Node5 -->
<g id="node5" class="node"><title>Node5</title>
<g id="a_node5"><a xlink:href="class_i_n_m_o_s_t_1_1_storage.html#a66b86d9ae28d429ff830735a63ecef4d" target="_top" xlink:title="INMOST::Storage::SetMarker">
<polygon fill="none" stroke="black" points="357.5,-224 357.5,-243 501.5,-243 501.5,-224 357.5,-224"/>
<text text-anchor="middle" x="429.5" y="-231" font-family="Helvetica,sans-Serif" font-size="10.00">INMOST::Storage::SetMarker</text>
</a>
</g>
</g>
<!-- Node2&#45;&gt;Node5 -->
<g id="edge4" class="edge"><title>Node2&#45;&gt;Node5</title>
<path fill="none" stroke="midnightblue" d="M288.405,-190.007C307.58,-197.73 332.454,-207.284 355,-214.5 365.67,-217.915 377.357,-221.156 388.21,-223.964"/>
<polygon fill="midnightblue" stroke="midnightblue" points="289.521,-186.683 278.94,-186.158 286.884,-193.167 289.521,-186.683"/>
</g>
<!-- Node6 -->
<g id="node6" class="node"><title>Node6</title>
<g id="a_node6"><a xlink:href="class_i_n_m_o_s_t_1_1_storage.html#ad256a6f5101df9f507e359cdddef3a66" target="_top" xlink:title="INMOST::Storage::GetMarker">
<polygon fill="none" stroke="black" points="357,-186 357,-205 502,-205 502,-186 357,-186"/>
<text text-anchor="middle" x="429.5" y="-193" font-family="Helvetica,sans-Serif" font-size="10.00">INMOST::Storage::GetMarker</text>
</a>
</g>
</g>
<!-- Node2&#45;&gt;Node6 -->
<g id="edge5" class="edge"><title>Node2&#45;&gt;Node6</title>
<path fill="none" stroke="midnightblue" d="M329.397,-184.584C338.475,-185.584 347.747,-186.605 356.798,-187.602"/>
<polygon fill="midnightblue" stroke="midnightblue" points="329.576,-181.083 319.253,-183.467 328.81,-188.041 329.576,-181.083"/>
</g>
<!-- Node14 -->
<g id="node14" class="node"><title>Node14</title>
<g id="a_node14"><a xlink:href="class_i_n_m_o_s_t_1_1_storage.html#aeae593e88e3269f8590742a9e95d1813" target="_top" xlink:title="INMOST::Storage::RemMarker">
<polygon fill="none" stroke="black" points="355,-148 355,-167 504,-167 504,-148 355,-148"/>
<text text-anchor="middle" x="429.5" y="-155" font-family="Helvetica,sans-Serif" font-size="10.00">INMOST::Storage::RemMarker</text>
</a>
</g>
</g>
<!-- Node2&#45;&gt;Node14 -->
<g id="edge13" class="edge"><title>Node2&#45;&gt;Node14</title>
<path fill="none" stroke="midnightblue" d="M329.386,-168.417C337.778,-167.493 346.337,-166.55 354.735,-165.625"/>
<polygon fill="midnightblue" stroke="midnightblue" points="328.81,-164.959 319.253,-169.533 329.576,-171.917 328.81,-164.959"/>
</g>
<!-- Node15 -->
<g id="node15" class="node"><title>Node15</title>
<g id="a_node15"><a xlink:href="class_i_n_m_o_s_t_1_1_storage.html#a0e061a35dc4196b9bb88bef49c882c08" target="_top" xlink:title="INMOST::Storage::SetPrivate\lMarker">
<polygon fill="none" stroke="black" points="358,-98.5 358,-128.5 501,-128.5 501,-98.5 358,-98.5"/>
<text text-anchor="start" x="366" y="-116.5" font-family="Helvetica,sans-Serif" font-size="10.00">INMOST::Storage::SetPrivate</text>
<text text-anchor="middle" x="429.5" y="-105.5" font-family="Helvetica,sans-Serif" font-size="10.00">Marker</text>
</a>
</g>
</g>
<!-- Node2&#45;&gt;Node15 -->
<g id="edge14" class="edge"><title>Node2&#45;&gt;Node15</title>
<path fill="none" stroke="midnightblue" d="M289.771,-163.166C308.852,-155.726 333.182,-146.395 355,-138.5 364.125,-135.198 373.932,-131.776 383.314,-128.562"/>
<polygon fill="midnightblue" stroke="midnightblue" points="288.35,-159.964 280.313,-166.867 290.901,-166.483 288.35,-159.964"/>
</g>
<!-- Node16 -->
<g id="node16" class="node"><title>Node16</title>
<g id="a_node16"><a xlink:href="class_i_n_m_o_s_t_1_1_storage.html#ae55c21c60460d82e202669890cbb05ce" target="_top" xlink:title="INMOST::Storage::GetPrivate\lMarker">
<polygon fill="none" stroke="black" points="357.5,-49.5 357.5,-79.5 501.5,-79.5 501.5,-49.5 357.5,-49.5"/>
<text text-anchor="start" x="365.5" y="-67.5" font-family="Helvetica,sans-Serif" font-size="10.00">INMOST::Storage::GetPrivate</text>
<text text-anchor="middle" x="429.5" y="-56.5" font-family="Helvetica,sans-Serif" font-size="10.00">Marker</text>
</a>
</g>
</g>
<!-- Node2&#45;&gt;Node16 -->
<g id="edge15" class="edge"><title>Node2&#45;&gt;Node16</title>
<path fill="none" stroke="midnightblue" d="M271.175,-159.272C289.329,-139.622 321.495,-107.734 355,-88.5 360.821,-85.1585 367.172,-82.2067 373.623,-79.62"/>
<polygon fill="midnightblue" stroke="midnightblue" points="268.41,-157.111 264.289,-166.872 273.597,-161.811 268.41,-157.111"/>
</g>
<!-- Node17 -->
<g id="node17" class="node"><title>Node17</title>
<g id="a_node17"><a xlink:href="class_i_n_m_o_s_t_1_1_storage.html#a7eb821d11fb14f7c7c86c93c57587666" target="_top" xlink:title="INMOST::Storage::RemPrivate\lMarker">
<polygon fill="none" stroke="black" points="355,-0.5 355,-30.5 504,-30.5 504,-0.5 355,-0.5"/>
<text text-anchor="start" x="363" y="-18.5" font-family="Helvetica,sans-Serif" font-size="10.00">INMOST::Storage::RemPrivate</text>
<text text-anchor="middle" x="429.5" y="-7.5" font-family="Helvetica,sans-Serif" font-size="10.00">Marker</text>
</a>
</g>
</g>
<!-- Node2&#45;&gt;Node17 -->
<g id="edge16" class="edge"><title>Node2&#45;&gt;Node17</title>
<path fill="none" stroke="midnightblue" d="M264.672,-157.768C279.226,-128.345 311.317,-71.3723 355,-39.5 359.663,-36.0979 364.833,-33.1615 370.208,-30.6304"/>
<polygon fill="midnightblue" stroke="midnightblue" points="261.442,-156.411 260.266,-166.941 267.751,-159.443 261.442,-156.411"/>
</g>
<!-- Node7 -->
<g id="node7" class="node"><title>Node7</title>
<g id="a_node7"><a xlink:href="class_i_n_m_o_s_t_1_1_automatizator.html#a3da0c47982b82640337e87375abe7314" target="_top" xlink:title="INMOST::Automatizator\l::isDynamicValid">
<polygon fill="none" stroke="black" points="557.5,-339.5 557.5,-369.5 677.5,-369.5 677.5,-339.5 557.5,-339.5"/>
<text text-anchor="start" x="565.5" y="-357.5" font-family="Helvetica,sans-Serif" font-size="10.00">INMOST::Automatizator</text>
<text text-anchor="middle" x="617.5" y="-346.5" font-family="Helvetica,sans-Serif" font-size="10.00">::isDynamicValid</text>
</a>
</g>
</g>
<!-- Node6&#45;&gt;Node7 -->
<g id="edge6" class="edge"><title>Node6&#45;&gt;Node7</title>
<path fill="none" stroke="midnightblue" d="M499.229,-210.509C500.901,-211.74 502.497,-213.068 504,-214.5 543.075,-251.744 501.888,-292.271 540,-330.5 544.914,-335.429 550.826,-339.348 557.16,-342.464"/>
<polygon fill="midnightblue" stroke="midnightblue" points="500.684,-207.299 490.314,-205.127 497.066,-213.291 500.684,-207.299"/>
</g>
<!-- Node8 -->
<g id="node8" class="node"><title>Node8</title>
<g id="a_node8"><a xlink:href="class_i_n_m_o_s_t_1_1_automatizator.html#a6ae69d02eb607b39c5000c39882c484d" target="_top" xlink:title="INMOST::Automatizator\l::isStaticValid">
<polygon fill="none" stroke="black" points="557.5,-290.5 557.5,-320.5 677.5,-320.5 677.5,-290.5 557.5,-290.5"/>
<text text-anchor="start" x="565.5" y="-308.5" font-family="Helvetica,sans-Serif" font-size="10.00">INMOST::Automatizator</text>
<text text-anchor="middle" x="617.5" y="-297.5" font-family="Helvetica,sans-Serif" font-size="10.00">::isStaticValid</text>
</a>
</g>
</g>
<!-- Node6&#45;&gt;Node8 -->
<g id="edge7" class="edge"><title>Node6&#45;&gt;Node8</title>
<path fill="none" stroke="midnightblue" d="M496.56,-209.535C499.166,-211.027 501.661,-212.677 504,-214.5 530.351,-235.044 514.308,-259.137 540,-280.5 545.157,-284.788 551.069,-288.347 557.273,-291.299"/>
<polygon fill="midnightblue" stroke="midnightblue" points="497.859,-206.275 487.336,-205.043 494.794,-212.568 497.859,-206.275"/>
</g>
<!-- Node9 -->
<g id="node9" class="node"><title>Node9</title>
<g id="a_node9"><a xlink:href="class_i_n_m_o_s_t_1_1enhanced__multivar__expression.html#aa7a9b5c6c18e890d941c0abaf36fc9ac" target="_top" xlink:title="INMOST::enhanced_multivar\l_expression::enhanced_multivar\l_expression">
<polygon fill="none" stroke="black" points="540,-230 540,-271 695,-271 695,-230 540,-230"/>
<text text-anchor="start" x="548" y="-259" font-family="Helvetica,sans-Serif" font-size="10.00">INMOST::enhanced_multivar</text>
<text text-anchor="start" x="548" y="-248" font-family="Helvetica,sans-Serif" font-size="10.00">_expression::enhanced_multivar</text>
<text text-anchor="middle" x="617.5" y="-237" font-family="Helvetica,sans-Serif" font-size="10.00">_expression</text>
</a>
</g>
</g>
<!-- Node6&#45;&gt;Node9 -->
<g id="edge8" class="edge"><title>Node6&#45;&gt;Node9</title>
<path fill="none" stroke="midnightblue" d="M478.853,-207.583C487.259,-209.802 495.9,-212.159 504,-214.5 520.45,-219.254 538.138,-224.737 554.505,-229.967"/>
<polygon fill="midnightblue" stroke="midnightblue" points="479.699,-204.186 469.14,-205.05 477.933,-210.96 479.699,-204.186"/>
</g>
<!-- Node10 -->
<g id="node10" class="node"><title>Node10</title>
<g id="a_node10"><a xlink:href="class_i_n_m_o_s_t_1_1dynamic__variable.html#a41483a4546777613637e523f4f57ec81" target="_top" xlink:title="INMOST::dynamic_variable\l::Index">
<polygon fill="none" stroke="black" points="550.5,-180.5 550.5,-210.5 684.5,-210.5 684.5,-180.5 550.5,-180.5"/>
<text text-anchor="start" x="558.5" y="-198.5" font-family="Helvetica,sans-Serif" font-size="10.00">INMOST::dynamic_variable</text>
<text text-anchor="middle" x="617.5" y="-187.5" font-family="Helvetica,sans-Serif" font-size="10.00">::Index</text>
</a>
</g>
</g>
<!-- Node6&#45;&gt;Node10 -->
<g id="edge9" class="edge"><title>Node6&#45;&gt;Node10</title>
<path fill="none" stroke="midnightblue" d="M512.283,-195.5C525.021,-195.5 538.044,-195.5 550.378,-195.5"/>
<polygon fill="midnightblue" stroke="midnightblue" points="512.146,-192 502.146,-195.5 512.146,-199 512.146,-192"/>
</g>
<!-- Node11 -->
<g id="node11" class="node"><title>Node11</title>
<g id="a_node11"><a xlink:href="class_i_n_m_o_s_t_1_1dynamic__variable.html#a432e3db3a15b60eebc084cfd8dcfb28e" target="_top" xlink:title="INMOST::dynamic_variable\l::Variable">
<polygon fill="none" stroke="black" points="550.5,-131.5 550.5,-161.5 684.5,-161.5 684.5,-131.5 550.5,-131.5"/>
<text text-anchor="start" x="558.5" y="-149.5" font-family="Helvetica,sans-Serif" font-size="10.00">INMOST::dynamic_variable</text>
<text text-anchor="middle" x="617.5" y="-138.5" font-family="Helvetica,sans-Serif" font-size="10.00">::Variable</text>
</a>
</g>
</g>
<!-- Node6&#45;&gt;Node11 -->
<g id="edge10" class="edge"><title>Node6&#45;&gt;Node11</title>
<path fill="none" stroke="midnightblue" d="M477.341,-183.448C486.199,-181.153 495.386,-178.762 504,-176.5 522.378,-171.674 542.428,-166.348 560.443,-161.539"/>
<polygon fill="midnightblue" stroke="midnightblue" points="476.333,-180.094 467.529,-185.987 478.087,-186.871 476.333,-180.094"/>
</g>
<!-- Node12 -->
<g id="node12" class="node"><title>Node12</title>
<g id="a_node12"><a xlink:href="class_i_n_m_o_s_t_1_1dynamic__variable.html#af98d84e841029239fe4b098025ef0801" target="_top" xlink:title="INMOST::dynamic_variable\l::operator[]">
<polygon fill="none" stroke="black" points="550.5,-82.5 550.5,-112.5 684.5,-112.5 684.5,-82.5 550.5,-82.5"/>
<text text-anchor="start" x="558.5" y="-100.5" font-family="Helvetica,sans-Serif" font-size="10.00">INMOST::dynamic_variable</text>
<text text-anchor="middle" x="617.5" y="-89.5" font-family="Helvetica,sans-Serif" font-size="10.00">::operator[]</text>
</a>
</g>
</g>
<!-- Node6&#45;&gt;Node12 -->
<g id="edge11" class="edge"><title>Node6&#45;&gt;Node12</title>
<path fill="none" stroke="midnightblue" d="M495.315,-181.791C498.352,-180.215 501.269,-178.459 504,-176.5 527.742,-159.475 516.7,-139.125 540,-121.5 544.551,-118.057 549.607,-115.101 554.889,-112.565"/>
<polygon fill="midnightblue" stroke="midnightblue" points="493.605,-178.722 485.903,-185.997 496.46,-185.113 493.605,-178.722"/>
</g>
<!-- Node13 -->
<g id="node13" class="node"><title>Node13</title>
<g id="a_node13"><a xlink:href="class_i_n_m_o_s_t_1_1dynamic__variable.html#a144f4624248335fd4b690f3416720007" target="_top" xlink:title="INMOST::dynamic_variable\l::isUnknown">
<polygon fill="none" stroke="black" points="550.5,-33.5 550.5,-63.5 684.5,-63.5 684.5,-33.5 550.5,-33.5"/>
<text text-anchor="start" x="558.5" y="-51.5" font-family="Helvetica,sans-Serif" font-size="10.00">INMOST::dynamic_variable</text>
<text text-anchor="middle" x="617.5" y="-40.5" font-family="Helvetica,sans-Serif" font-size="10.00">::isUnknown</text>
</a>
</g>
</g>
<!-- Node6&#45;&gt;Node13 -->
<g id="edge12" class="edge"><title>Node6&#45;&gt;Node13</title>
<path fill="none" stroke="midnightblue" d="M498.613,-180.82C500.505,-179.498 502.308,-178.061 504,-176.5 539.947,-143.329 504.911,-106.577 540,-72.5 543.495,-69.1058 547.464,-66.1912 551.713,-63.6883"/>
<polygon fill="midnightblue" stroke="midnightblue" points="496.724,-177.869 489.826,-185.91 500.233,-183.926 496.724,-177.869"/>
</g>
</g>
</svg>
