<?xml version="1.0" encoding="UTF-8" standalone="no"?>
<!DOCTYPE svg PUBLIC "-//W3C//DTD SVG 1.1//EN"
 "http://www.w3.org/Graphics/SVG/1.1/DTD/svg11.dtd">
<!-- Generated by graphviz version 2.38.0 (20140413.2041)
 -->
<!-- Title: INMOST::Storage::DelSparseData Pages: 1 -->
<svg width="365pt" height="104pt"
 viewBox="0.00 0.00 365.00 104.00" xmlns="http://www.w3.org/2000/svg" xmlns:xlink="http://www.w3.org/1999/xlink">
<g id="graph0" class="graph" transform="scale(1 1) rotate(0) translate(4 100)">
<title>INMOST::Storage::DelSparseData</title>
<!-- Node1 -->
<g id="node1" class="node"><title>Node1</title>
<polygon fill="#bfbfbf" stroke="black" points="0,-38.5 0,-57.5 164,-57.5 164,-38.5 0,-38.5"/>
<text text-anchor="middle" x="82" y="-45.5" font-family="Helvetica,sans-Serif" font-size="10.00">INMOST::Storage::DelSparseData</text>
</g>
<!-- Node2 -->
<g id="node2" class="node"><title>Node2</title>
<g id="a_node2"><a xlink:href="class_i_n_m_o_s_t_1_1_storage.html#a20d218fc89f75ca8534707b4f697173e" target="_top" xlink:title="INMOST::Storage::GetMeshLink">
<polygon fill="none" stroke="black" points="200,-76.5 200,-95.5 357,-95.5 357,-76.5 200,-76.5"/>
<text text-anchor="middle" x="278.5" y="-83.5" font-family="Helvetica,sans-Serif" font-size="10.00">INMOST::Storage::GetMeshLink</text>
</a>
</g>
</g>
<!-- Node1&#45;&gt;Node2 -->
<g id="edge1" class="edge"><title>Node1&#45;&gt;Node2</title>
<path fill="none" stroke="midnightblue" d="M131.83,-57.54C158.188,-62.6896 190.917,-69.084 218.671,-74.5065"/>
<polygon fill="midnightblue" stroke="midnightblue" points="218.165,-77.9736 228.65,-76.4561 219.507,-71.1035 218.165,-77.9736"/>
</g>
<!-- Node3 -->
<g id="node3" class="node"><title>Node3</title>
<g id="a_node3"><a xlink:href="class_i_n_m_o_s_t_1_1_mesh.html#a21517e19d638410e9a5bdbaf4cc8fd4c" target="_top" xlink:title="INMOST::Mesh::DelSparseData">
<polygon fill="none" stroke="black" points="201,-38.5 201,-57.5 356,-57.5 356,-38.5 201,-38.5"/>
<text text-anchor="middle" x="278.5" y="-45.5" font-family="Helvetica,sans-Serif" font-size="10.00">INMOST::Mesh::DelSparseData</text>
</a>
</g>
</g>
<!-- Node1&#45;&gt;Node3 -->
<g id="edge2" class="edge"><title>Node1&#45;&gt;Node3</title>
<path fill="none" stroke="midnightblue" d="M164.077,-48C172.938,-48 181.983,-48 190.907,-48"/>
<polygon fill="midnightblue" stroke="midnightblue" points="190.915,-51.5001 200.915,-48 190.915,-44.5001 190.915,-51.5001"/>
</g>
<!-- Node4 -->
<g id="node4" class="node"><title>Node4</title>
<g id="a_node4"><a xlink:href="class_i_n_m_o_s_t_1_1_storage.html#ac79e3f3664b2ff21892f37bce0caa0e0" target="_top" xlink:title="INMOST::Storage::GetHandle">
<polygon fill="none" stroke="black" points="206,-0.5 206,-19.5 351,-19.5 351,-0.5 206,-0.5"/>
<text text-anchor="middle" x="278.5" y="-7.5" font-family="Helvetica,sans-Serif" font-size="10.00">INMOST::Storage::GetHandle</text>
</a>
</g>
</g>
<!-- Node1&#45;&gt;Node4 -->
<g id="edge3" class="edge"><title>Node1&#45;&gt;Node4</title>
<path fill="none" stroke="midnightblue" d="M131.83,-38.46C158.188,-33.3104 190.917,-26.916 218.671,-21.4935"/>
<polygon fill="midnightblue" stroke="midnightblue" points="219.507,-24.8965 228.65,-19.5439 218.165,-18.0264 219.507,-24.8965"/>
</g>
</g>
</svg>
