<?xml version="1.0" encoding="UTF-8" standalone="no"?>
<!DOCTYPE svg PUBLIC "-//W3C//DTD SVG 1.1//EN"
 "http://www.w3.org/Graphics/SVG/1.1/DTD/svg11.dtd">
<!-- Generated by graphviz version 2.38.0 (20140413.2041)
 -->
<!-- Title: INMOST::Storage::GetPrivateMarker Pages: 1 -->
<svg width="526pt" height="192pt"
 viewBox="0.00 0.00 526.00 192.00" xmlns="http://www.w3.org/2000/svg" xmlns:xlink="http://www.w3.org/1999/xlink">
<g id="graph0" class="graph" transform="scale(1 1) rotate(0) translate(4 188)">
<title>INMOST::Storage::GetPrivateMarker</title>
<!-- Node1 -->
<g id="node1" class="node"><title>Node1</title>
<polygon fill="#bfbfbf" stroke="black" points="0,-61 0,-91 144,-91 144,-61 0,-61"/>
<text text-anchor="start" x="8" y="-79" font-family="Helvetica,sans-Serif" font-size="10.00">INMOST::Storage::GetPrivate</text>
<text text-anchor="middle" x="72" y="-68" font-family="Helvetica,sans-Serif" font-size="10.00">Marker</text>
</g>
<!-- Node2 -->
<g id="node2" class="node"><title>Node2</title>
<g id="a_node2"><a xlink:href="class_i_n_m_o_s_t_1_1_storage.html#a59da31b96c2b4e09e260f0deb4dae4d9" target="_top" xlink:title="INMOST::Storage::isValid">
<polygon fill="none" stroke="black" points="188.5,-126.5 188.5,-145.5 316.5,-145.5 316.5,-126.5 188.5,-126.5"/>
<text text-anchor="middle" x="252.5" y="-133.5" font-family="Helvetica,sans-Serif" font-size="10.00">INMOST::Storage::isValid</text>
</a>
</g>
</g>
<!-- Node1&#45;&gt;Node2 -->
<g id="edge1" class="edge"><title>Node1&#45;&gt;Node2</title>
<path fill="none" stroke="midnightblue" d="M117.77,-91.0705C136.934,-97.5197 159.564,-105.132 180,-112 190.833,-115.641 202.591,-119.588 213.383,-123.211"/>
<polygon fill="midnightblue" stroke="midnightblue" points="212.375,-126.564 222.969,-126.428 214.602,-119.928 212.375,-126.564"/>
</g>
<!-- Node4 -->
<g id="node4" class="node"><title>Node4</title>
<g id="a_node4"><a xlink:href="class_i_n_m_o_s_t_1_1_storage.html#a20d218fc89f75ca8534707b4f697173e" target="_top" xlink:title="INMOST::Storage::GetMeshLink">
<polygon fill="none" stroke="black" points="361,-88.5 361,-107.5 518,-107.5 518,-88.5 361,-88.5"/>
<text text-anchor="middle" x="439.5" y="-95.5" font-family="Helvetica,sans-Serif" font-size="10.00">INMOST::Storage::GetMeshLink</text>
</a>
</g>
</g>
<!-- Node1&#45;&gt;Node4 -->
<g id="edge5" class="edge"><title>Node1&#45;&gt;Node4</title>
<path fill="none" stroke="midnightblue" d="M144.34,-80.294C203.279,-83.8417 287.22,-88.8942 350.358,-92.6946"/>
<polygon fill="midnightblue" stroke="midnightblue" points="350.509,-96.2099 360.701,-93.3172 350.93,-89.2226 350.509,-96.2099"/>
</g>
<!-- Node6 -->
<g id="node6" class="node"><title>Node6</title>
<g id="a_node6"><a xlink:href="class_i_n_m_o_s_t_1_1_mesh.html#a55fc60cdcbe03f4ab0dad0940ef21325" target="_top" xlink:title="INMOST::Mesh::GetPrivate\lMarker">
<polygon fill="none" stroke="black" points="185.5,-39 185.5,-69 319.5,-69 319.5,-39 185.5,-39"/>
<text text-anchor="start" x="193.5" y="-57" font-family="Helvetica,sans-Serif" font-size="10.00">INMOST::Mesh::GetPrivate</text>
<text text-anchor="middle" x="252.5" y="-46" font-family="Helvetica,sans-Serif" font-size="10.00">Marker</text>
</a>
</g>
</g>
<!-- Node1&#45;&gt;Node6 -->
<g id="edge6" class="edge"><title>Node1&#45;&gt;Node6</title>
<path fill="none" stroke="midnightblue" d="M144.061,-67.2418C154.269,-65.9836 164.809,-64.6846 175.115,-63.4144"/>
<polygon fill="midnightblue" stroke="midnightblue" points="175.826,-66.8534 185.323,-62.1563 174.969,-59.9059 175.826,-66.8534"/>
</g>
<!-- Node7 -->
<g id="node7" class="node"><title>Node7</title>
<g id="a_node7"><a xlink:href="class_i_n_m_o_s_t_1_1_storage.html#ac79e3f3664b2ff21892f37bce0caa0e0" target="_top" xlink:title="INMOST::Storage::GetHandle">
<polygon fill="none" stroke="black" points="180,-0.5 180,-19.5 325,-19.5 325,-0.5 180,-0.5"/>
<text text-anchor="middle" x="252.5" y="-7.5" font-family="Helvetica,sans-Serif" font-size="10.00">INMOST::Storage::GetHandle</text>
</a>
</g>
</g>
<!-- Node1&#45;&gt;Node7 -->
<g id="edge7" class="edge"><title>Node1&#45;&gt;Node7</title>
<path fill="none" stroke="midnightblue" d="M103.86,-60.9292C124.966,-51.0006 153.765,-38.1861 180,-29 186.834,-26.6071 194.125,-24.3467 201.341,-22.2765"/>
<polygon fill="midnightblue" stroke="midnightblue" points="202.382,-25.62 211.085,-19.5768 200.513,-18.8742 202.382,-25.62"/>
</g>
<!-- Node3 -->
<g id="node3" class="node"><title>Node3</title>
<g id="a_node3"><a xlink:href="namespace_i_n_m_o_s_t.html#a115b3e54c3b7be04ffec9b69c058df18" target="_top" xlink:title="INMOST::InvalidHandle">
<polygon fill="none" stroke="black" points="381.5,-164.5 381.5,-183.5 497.5,-183.5 497.5,-164.5 381.5,-164.5"/>
<text text-anchor="middle" x="439.5" y="-171.5" font-family="Helvetica,sans-Serif" font-size="10.00">INMOST::InvalidHandle</text>
</a>
</g>
</g>
<!-- Node2&#45;&gt;Node3 -->
<g id="edge2" class="edge"><title>Node2&#45;&gt;Node3</title>
<path fill="none" stroke="midnightblue" d="M300.183,-145.589C325.146,-150.716 356.064,-157.067 382.334,-162.463"/>
<polygon fill="midnightblue" stroke="midnightblue" points="381.653,-165.896 392.152,-164.48 383.061,-159.039 381.653,-165.896"/>
</g>
<!-- Node2&#45;&gt;Node4 -->
<g id="edge3" class="edge"><title>Node2&#45;&gt;Node4</title>
<path fill="none" stroke="midnightblue" d="M300.183,-126.411C325.146,-121.284 356.064,-114.933 382.334,-109.537"/>
<polygon fill="midnightblue" stroke="midnightblue" points="383.061,-112.961 392.152,-107.52 381.653,-106.104 383.061,-112.961"/>
</g>
<!-- Node5 -->
<g id="node5" class="node"><title>Node5</title>
<g id="a_node5"><a xlink:href="class_i_n_m_o_s_t_1_1_mesh.html#a05701da4bd3ed8ca69bbcca256c2b0e2" target="_top" xlink:title="INMOST::Mesh::isValidElement">
<polygon fill="none" stroke="black" points="362,-126.5 362,-145.5 517,-145.5 517,-126.5 362,-126.5"/>
<text text-anchor="middle" x="439.5" y="-133.5" font-family="Helvetica,sans-Serif" font-size="10.00">INMOST::Mesh::isValidElement</text>
</a>
</g>
</g>
<!-- Node2&#45;&gt;Node5 -->
<g id="edge4" class="edge"><title>Node2&#45;&gt;Node5</title>
<path fill="none" stroke="midnightblue" d="M316.649,-136C327.902,-136 339.802,-136 351.581,-136"/>
<polygon fill="midnightblue" stroke="midnightblue" points="351.881,-139.5 361.881,-136 351.881,-132.5 351.881,-139.5"/>
</g>
</g>
</svg>
