<?xml version="1.0" encoding="UTF-8" standalone="no"?>
<!DOCTYPE svg PUBLIC "-//W3C//DTD SVG 1.1//EN"
 "http://www.w3.org/Graphics/SVG/1.1/DTD/svg11.dtd">
<!-- Generated by graphviz version 2.38.0 (20140413.2041)
 -->
<!-- Title: INMOST::dynarray::data Pages: 1 -->
<svg width="471pt" height="918pt"
 viewBox="0.00 0.00 471.00 917.50" xmlns="http://www.w3.org/2000/svg" xmlns:xlink="http://www.w3.org/1999/xlink">
<g id="graph0" class="graph" transform="scale(1 1) rotate(0) translate(4 913.5)">
<title>INMOST::dynarray::data</title>
<!-- Node1 -->
<g id="node1" class="node"><title>Node1</title>
<polygon fill="#bfbfbf" stroke="black" points="0,-430.5 0,-449.5 122,-449.5 122,-430.5 0,-430.5"/>
<text text-anchor="middle" x="61" y="-437.5" font-family="Helvetica,sans-Serif" font-size="10.00">INMOST::dynarray::data</text>
</g>
<!-- Node2 -->
<g id="node2" class="node"><title>Node2</title>
<g id="a_node2"><a xlink:href="class_i_n_m_o_s_t_1_1_element_array.html#afd94fb30e65569ec6ccce11b9c881c1e" target="_top" xlink:title="INMOST::ElementArray\l::data">
<polygon fill="none" stroke="black" points="158,-425 158,-455 277,-455 277,-425 158,-425"/>
<text text-anchor="start" x="166" y="-443" font-family="Helvetica,sans-Serif" font-size="10.00">INMOST::ElementArray</text>
<text text-anchor="middle" x="217.5" y="-432" font-family="Helvetica,sans-Serif" font-size="10.00">::data</text>
</a>
</g>
</g>
<!-- Node1&#45;&gt;Node2 -->
<g id="edge1" class="edge"><title>Node1&#45;&gt;Node2</title>
<path fill="none" stroke="midnightblue" d="M132.426,-440C140.896,-440 149.477,-440 157.756,-440"/>
<polygon fill="midnightblue" stroke="midnightblue" points="132.176,-436.5 122.176,-440 132.176,-443.5 132.176,-436.5"/>
</g>
<!-- Node3 -->
<g id="node3" class="node"><title>Node3</title>
<g id="a_node3"><a xlink:href="class_i_n_m_o_s_t_1_1_element_array.html#a271d7b4bff4a170cae01aa440351a565" target="_top" xlink:title="INMOST::ElementArray\l::Unite">
<polygon fill="none" stroke="black" points="328.5,-861 328.5,-891 447.5,-891 447.5,-861 328.5,-861"/>
<text text-anchor="start" x="336.5" y="-879" font-family="Helvetica,sans-Serif" font-size="10.00">INMOST::ElementArray</text>
<text text-anchor="middle" x="388" y="-868" font-family="Helvetica,sans-Serif" font-size="10.00">::Unite</text>
</a>
</g>
</g>
<!-- Node2&#45;&gt;Node3 -->
<g id="edge2" class="edge"><title>Node2&#45;&gt;Node3</title>
<path fill="none" stroke="midnightblue" d="M221.08,-465.563C229.72,-546.35 260.111,-794.23 313,-852 317.378,-856.782 322.715,-860.614 328.499,-863.685"/>
<polygon fill="midnightblue" stroke="midnightblue" points="224.529,-464.891 220.005,-455.31 217.567,-465.621 224.529,-464.891"/>
</g>
<!-- Node4 -->
<g id="node4" class="node"><title>Node4</title>
<g id="a_node4"><a xlink:href="class_i_n_m_o_s_t_1_1_element_array.html#aa714a1586fa8c427240190940cc77d5a" target="_top" xlink:title="INMOST::ElementArray\l::Subtract">
<polygon fill="none" stroke="black" points="328.5,-794 328.5,-824 447.5,-824 447.5,-794 328.5,-794"/>
<text text-anchor="start" x="336.5" y="-812" font-family="Helvetica,sans-Serif" font-size="10.00">INMOST::ElementArray</text>
<text text-anchor="middle" x="388" y="-801" font-family="Helvetica,sans-Serif" font-size="10.00">::Subtract</text>
</a>
</g>
</g>
<!-- Node2&#45;&gt;Node4 -->
<g id="edge4" class="edge"><title>Node2&#45;&gt;Node4</title>
<path fill="none" stroke="midnightblue" d="M217.785,-465.359C217.432,-528.314 225.412,-693.263 313,-785 317.384,-789.591 322.652,-793.306 328.332,-796.31"/>
<polygon fill="midnightblue" stroke="midnightblue" points="221.288,-465.207 217.924,-455.161 214.288,-465.112 221.288,-465.207"/>
</g>
<!-- Node5 -->
<g id="node5" class="node"><title>Node5</title>
<g id="a_node5"><a xlink:href="class_i_n_m_o_s_t_1_1_element_array.html#a237ae0b4fb711b1b0a36041fe97ef1b3" target="_top" xlink:title="INMOST::ElementArray\l::Intersect">
<polygon fill="none" stroke="black" points="328.5,-727 328.5,-757 447.5,-757 447.5,-727 328.5,-727"/>
<text text-anchor="start" x="336.5" y="-745" font-family="Helvetica,sans-Serif" font-size="10.00">INMOST::ElementArray</text>
<text text-anchor="middle" x="388" y="-734" font-family="Helvetica,sans-Serif" font-size="10.00">::Intersect</text>
</a>
</g>
</g>
<!-- Node2&#45;&gt;Node5 -->
<g id="edge6" class="edge"><title>Node2&#45;&gt;Node5</title>
<path fill="none" stroke="midnightblue" d="M219.766,-465.156C223.845,-519.154 241.008,-647.013 313,-718 317.424,-722.362 322.647,-725.931 328.24,-728.852"/>
<polygon fill="midnightblue" stroke="midnightblue" points="223.252,-464.835 219.096,-455.09 216.268,-465.3 223.252,-464.835"/>
</g>
<!-- Node6 -->
<g id="node6" class="node"><title>Node6</title>
<g id="a_node6"><a xlink:href="class_i_n_m_o_s_t_1_1_element_set.html#a2b27cedaf22cb5e20e36bcb480c9e50c" target="_top" xlink:title="Put multiple handles without checking. ">
<polygon fill="none" stroke="black" points="333,-660 333,-690 443,-690 443,-660 333,-660"/>
<text text-anchor="start" x="341" y="-678" font-family="Helvetica,sans-Serif" font-size="10.00">INMOST::ElementSet</text>
<text text-anchor="middle" x="388" y="-667" font-family="Helvetica,sans-Serif" font-size="10.00">::PutElements</text>
</a>
</g>
</g>
<!-- Node2&#45;&gt;Node6 -->
<g id="edge8" class="edge"><title>Node2&#45;&gt;Node6</title>
<path fill="none" stroke="midnightblue" d="M222.877,-465.11C231.846,-509.093 256.44,-600.213 313,-651 318.728,-656.143 325.574,-660.186 332.756,-663.364"/>
<polygon fill="midnightblue" stroke="midnightblue" points="226.303,-464.394 220.968,-455.241 219.431,-465.723 226.303,-464.394"/>
</g>
<!-- Node7 -->
<g id="node7" class="node"><title>Node7</title>
<g id="a_node7"><a xlink:href="class_i_n_m_o_s_t_1_1_element_set.html#aba2a21178003aa2a9908ca3c090d7cb8" target="_top" xlink:title="Add multiple elements with checking of the existance of duplicate. ">
<polygon fill="none" stroke="black" points="333,-593 333,-623 443,-623 443,-593 333,-593"/>
<text text-anchor="start" x="341" y="-611" font-family="Helvetica,sans-Serif" font-size="10.00">INMOST::ElementSet</text>
<text text-anchor="middle" x="388" y="-600" font-family="Helvetica,sans-Serif" font-size="10.00">::AddElements</text>
</a>
</g>
</g>
<!-- Node2&#45;&gt;Node7 -->
<g id="edge10" class="edge"><title>Node2&#45;&gt;Node7</title>
<path fill="none" stroke="midnightblue" d="M228.388,-464.562C242.497,-496.585 271.386,-552.245 313,-584 318.905,-588.506 325.689,-592.184 332.701,-595.181"/>
<polygon fill="midnightblue" stroke="midnightblue" points="231.474,-462.878 224.329,-455.055 225.037,-465.626 231.474,-462.878"/>
</g>
<!-- Node8 -->
<g id="node8" class="node"><title>Node8</title>
<g id="a_node8"><a xlink:href="class_i_n_m_o_s_t_1_1_element_set.html#a119169cdf12afbca790ba53169e74af0" target="_top" xlink:title="Remove multiple elements from the set. ">
<polygon fill="none" stroke="black" points="333,-526 333,-556 443,-556 443,-526 333,-526"/>
<text text-anchor="start" x="341" y="-544" font-family="Helvetica,sans-Serif" font-size="10.00">INMOST::ElementSet</text>
<text text-anchor="middle" x="388" y="-533" font-family="Helvetica,sans-Serif" font-size="10.00">::RemoveElements</text>
</a>
</g>
</g>
<!-- Node2&#45;&gt;Node8 -->
<g id="edge12" class="edge"><title>Node2&#45;&gt;Node8</title>
<path fill="none" stroke="midnightblue" d="M240.935,-462.357C259.059,-479.355 285.923,-502.255 313,-517 319.168,-520.359 325.883,-523.343 332.669,-525.967"/>
<polygon fill="midnightblue" stroke="midnightblue" points="242.901,-459.394 233.254,-455.013 238.063,-464.453 242.901,-459.394"/>
</g>
<!-- Node9 -->
<g id="node9" class="node"><title>Node9</title>
<g id="a_node9"><a xlink:href="class_i_n_m_o_s_t_1_1_element_set.html#ab1ef60891bc6e6e8c095065843b51217" target="_top" xlink:title="Compute and return union with elements. ">
<polygon fill="none" stroke="black" points="333,-459 333,-489 443,-489 443,-459 333,-459"/>
<text text-anchor="start" x="341" y="-477" font-family="Helvetica,sans-Serif" font-size="10.00">INMOST::ElementSet</text>
<text text-anchor="middle" x="388" y="-466" font-family="Helvetica,sans-Serif" font-size="10.00">::Union</text>
</a>
</g>
</g>
<!-- Node2&#45;&gt;Node9 -->
<g id="edge14" class="edge"><title>Node2&#45;&gt;Node9</title>
<path fill="none" stroke="midnightblue" d="M287.297,-453.882C302.492,-456.948 318.381,-460.154 332.896,-463.083"/>
<polygon fill="midnightblue" stroke="midnightblue" points="287.928,-450.439 277.433,-451.892 286.543,-457.3 287.928,-450.439"/>
</g>
<!-- Node10 -->
<g id="node10" class="node"><title>Node10</title>
<g id="a_node10"><a xlink:href="class_i_n_m_o_s_t_1_1_element_set.html#af038e8851f02e9c4ae488a3ed1530bd7" target="_top" xlink:title="Compute and return difference with elements. ">
<polygon fill="none" stroke="black" points="333,-392 333,-422 443,-422 443,-392 333,-392"/>
<text text-anchor="start" x="341" y="-410" font-family="Helvetica,sans-Serif" font-size="10.00">INMOST::ElementSet</text>
<text text-anchor="middle" x="388" y="-399" font-family="Helvetica,sans-Serif" font-size="10.00">::Difference</text>
</a>
</g>
</g>
<!-- Node2&#45;&gt;Node10 -->
<g id="edge16" class="edge"><title>Node2&#45;&gt;Node10</title>
<path fill="none" stroke="midnightblue" d="M287.297,-426.526C302.492,-423.551 318.381,-420.439 332.896,-417.596"/>
<polygon fill="midnightblue" stroke="midnightblue" points="286.574,-423.101 277.433,-428.458 287.919,-429.971 286.574,-423.101"/>
</g>
<!-- Node11 -->
<g id="node11" class="node"><title>Node11</title>
<g id="a_node11"><a xlink:href="class_i_n_m_o_s_t_1_1_element_set.html#a9991abefdf4ecfdf35ee2d52eea650f1" target="_top" xlink:title="Compute and return intersection with elements. ">
<polygon fill="none" stroke="black" points="333,-325 333,-355 443,-355 443,-325 333,-325"/>
<text text-anchor="start" x="341" y="-343" font-family="Helvetica,sans-Serif" font-size="10.00">INMOST::ElementSet</text>
<text text-anchor="middle" x="388" y="-332" font-family="Helvetica,sans-Serif" font-size="10.00">::Intersection</text>
</a>
</g>
</g>
<!-- Node2&#45;&gt;Node11 -->
<g id="edge18" class="edge"><title>Node2&#45;&gt;Node11</title>
<path fill="none" stroke="midnightblue" d="M252.262,-419.453C270.252,-408.551 292.783,-394.97 313,-383 328.854,-373.613 346.712,-363.231 360.912,-355.02"/>
<polygon fill="midnightblue" stroke="midnightblue" points="250.039,-416.708 243.304,-424.887 253.669,-422.693 250.039,-416.708"/>
</g>
<!-- Node12 -->
<g id="node12" class="node"><title>Node12</title>
<g id="a_node12"><a xlink:href="class_i_n_m_o_s_t_1_1_element_set.html#af22386930e063d805c1961222e202b24" target="_top" xlink:title="Compute and store union with elements. ">
<polygon fill="none" stroke="black" points="333,-258 333,-288 443,-288 443,-258 333,-258"/>
<text text-anchor="start" x="341" y="-276" font-family="Helvetica,sans-Serif" font-size="10.00">INMOST::ElementSet</text>
<text text-anchor="middle" x="388" y="-265" font-family="Helvetica,sans-Serif" font-size="10.00">::Unite</text>
</a>
</g>
</g>
<!-- Node2&#45;&gt;Node12 -->
<g id="edge20" class="edge"><title>Node2&#45;&gt;Node12</title>
<path fill="none" stroke="midnightblue" d="M232.72,-416.006C249.44,-389.241 279.232,-345.796 313,-316 325.478,-304.989 341.202,-295.382 354.943,-288.059"/>
<polygon fill="midnightblue" stroke="midnightblue" points="229.614,-414.374 227.365,-424.728 235.58,-418.037 229.614,-414.374"/>
</g>
<!-- Node13 -->
<g id="node13" class="node"><title>Node13</title>
<g id="a_node13"><a xlink:href="class_i_n_m_o_s_t_1_1_element_set.html#aa4a51ad66c30dbc1d55618a25901599e" target="_top" xlink:title="Compute and store difference with elements. ">
<polygon fill="none" stroke="black" points="333,-191 333,-221 443,-221 443,-191 333,-191"/>
<text text-anchor="start" x="341" y="-209" font-family="Helvetica,sans-Serif" font-size="10.00">INMOST::ElementSet</text>
<text text-anchor="middle" x="388" y="-198" font-family="Helvetica,sans-Serif" font-size="10.00">::Subtract</text>
</a>
</g>
</g>
<!-- Node2&#45;&gt;Node13 -->
<g id="edge22" class="edge"><title>Node2&#45;&gt;Node13</title>
<path fill="none" stroke="midnightblue" d="M225.663,-415.048C237.99,-375.737 266.473,-298.751 313,-249 323.758,-237.496 338.294,-228.147 351.635,-221.14"/>
<polygon fill="midnightblue" stroke="midnightblue" points="222.24,-414.275 222.678,-424.861 228.937,-416.312 222.24,-414.275"/>
</g>
<!-- Node14 -->
<g id="node14" class="node"><title>Node14</title>
<g id="a_node14"><a xlink:href="class_i_n_m_o_s_t_1_1_element_set.html#a361a4f92a43b559c554554cf7492670a" target="_top" xlink:title="Compute and store intersection with elements. ">
<polygon fill="none" stroke="black" points="333,-124 333,-154 443,-154 443,-124 333,-124"/>
<text text-anchor="start" x="341" y="-142" font-family="Helvetica,sans-Serif" font-size="10.00">INMOST::ElementSet</text>
<text text-anchor="middle" x="388" y="-131" font-family="Helvetica,sans-Serif" font-size="10.00">::Intersect</text>
</a>
</g>
</g>
<!-- Node2&#45;&gt;Node14 -->
<g id="edge24" class="edge"><title>Node2&#45;&gt;Node14</title>
<path fill="none" stroke="midnightblue" d="M221.944,-414.644C229.857,-364.863 253.449,-253.025 313,-182 322.833,-170.272 336.733,-161.021 349.835,-154.152"/>
<polygon fill="midnightblue" stroke="midnightblue" points="218.438,-414.419 220.409,-424.829 225.36,-415.463 218.438,-414.419"/>
</g>
<!-- Node15 -->
<g id="node15" class="node"><title>Node15</title>
<g id="a_node15"><a xlink:href="class_i_n_m_o_s_t_1_1_mesh.html#a0ac883e455fe795e9a7db3cc8c99ac26" target="_top" xlink:title="INMOST::Mesh::RemoveGhost\lElements">
<polygon fill="none" stroke="black" points="313,-57 313,-87 463,-87 463,-57 313,-57"/>
<text text-anchor="start" x="321" y="-75" font-family="Helvetica,sans-Serif" font-size="10.00">INMOST::Mesh::RemoveGhost</text>
<text text-anchor="middle" x="388" y="-64" font-family="Helvetica,sans-Serif" font-size="10.00">Elements</text>
</a>
</g>
</g>
<!-- Node2&#45;&gt;Node15 -->
<g id="edge26" class="edge"><title>Node2&#45;&gt;Node15</title>
<path fill="none" stroke="midnightblue" d="M219.607,-414.775C223.395,-356.082 240.057,-208.275 313,-115 322.245,-103.178 335.713,-93.9915 348.634,-87.2006"/>
<polygon fill="midnightblue" stroke="midnightblue" points="216.101,-414.791 219.024,-424.974 223.089,-415.19 216.101,-414.791"/>
</g>
<!-- Node16 -->
<g id="node16" class="node"><title>Node16</title>
<g id="a_node16"><a xlink:href="class_i_n_m_o_s_t_1_1_mesh.html#a92e7888589b79355fa273ad67c8c9bb5" target="_top" xlink:title="INMOST::Mesh::Enumerate">
<polygon fill="none" stroke="black" points="319.5,-0.5 319.5,-19.5 456.5,-19.5 456.5,-0.5 319.5,-0.5"/>
<text text-anchor="middle" x="388" y="-7.5" font-family="Helvetica,sans-Serif" font-size="10.00">INMOST::Mesh::Enumerate</text>
</a>
</g>
</g>
<!-- Node2&#45;&gt;Node16 -->
<g id="edge28" class="edge"><title>Node2&#45;&gt;Node16</title>
<path fill="none" stroke="midnightblue" d="M217.714,-414.91C216.92,-347.861 223.423,-161.888 313,-48 323.536,-34.6052 340.081,-25.4851 354.857,-19.5449"/>
<polygon fill="midnightblue" stroke="midnightblue" points="214.216,-415.036 217.902,-424.97 221.215,-414.906 214.216,-415.036"/>
</g>
<!-- Node3&#45;&gt;Node3 -->
<g id="edge3" class="edge"><title>Node3&#45;&gt;Node3</title>
<path fill="none" stroke="midnightblue" d="M357.793,-901.458C361.542,-906.179 371.611,-909.5 388,-909.5 414.895,-909.5 424.77,-900.557 417.626,-891.159"/>
<polygon fill="midnightblue" stroke="midnightblue" points="361.305,-901.34 358.374,-891.159 354.316,-900.946 361.305,-901.34"/>
</g>
<!-- Node4&#45;&gt;Node4 -->
<g id="edge5" class="edge"><title>Node4&#45;&gt;Node4</title>
<path fill="none" stroke="midnightblue" d="M357.793,-834.458C361.542,-839.179 371.611,-842.5 388,-842.5 414.895,-842.5 424.77,-833.557 417.626,-824.159"/>
<polygon fill="midnightblue" stroke="midnightblue" points="361.305,-834.34 358.374,-824.159 354.316,-833.946 361.305,-834.34"/>
</g>
<!-- Node5&#45;&gt;Node5 -->
<g id="edge7" class="edge"><title>Node5&#45;&gt;Node5</title>
<path fill="none" stroke="midnightblue" d="M357.793,-767.458C361.542,-772.179 371.611,-775.5 388,-775.5 414.895,-775.5 424.77,-766.557 417.626,-757.159"/>
<polygon fill="midnightblue" stroke="midnightblue" points="361.305,-767.34 358.374,-757.159 354.316,-766.946 361.305,-767.34"/>
</g>
<!-- Node6&#45;&gt;Node6 -->
<g id="edge9" class="edge"><title>Node6&#45;&gt;Node6</title>
<path fill="none" stroke="midnightblue" d="M357.793,-700.458C361.542,-705.179 371.611,-708.5 388,-708.5 414.895,-708.5 424.77,-699.557 417.626,-690.159"/>
<polygon fill="midnightblue" stroke="midnightblue" points="361.305,-700.34 358.374,-690.159 354.316,-699.946 361.305,-700.34"/>
</g>
<!-- Node7&#45;&gt;Node7 -->
<g id="edge11" class="edge"><title>Node7&#45;&gt;Node7</title>
<path fill="none" stroke="midnightblue" d="M357.793,-633.458C361.542,-638.179 371.611,-641.5 388,-641.5 414.895,-641.5 424.77,-632.557 417.626,-623.159"/>
<polygon fill="midnightblue" stroke="midnightblue" points="361.305,-633.34 358.374,-623.159 354.316,-632.946 361.305,-633.34"/>
</g>
<!-- Node8&#45;&gt;Node8 -->
<g id="edge13" class="edge"><title>Node8&#45;&gt;Node8</title>
<path fill="none" stroke="midnightblue" d="M357.793,-566.458C361.542,-571.179 371.611,-574.5 388,-574.5 414.895,-574.5 424.77,-565.557 417.626,-556.159"/>
<polygon fill="midnightblue" stroke="midnightblue" points="361.305,-566.34 358.374,-556.159 354.316,-565.946 361.305,-566.34"/>
</g>
<!-- Node9&#45;&gt;Node9 -->
<g id="edge15" class="edge"><title>Node9&#45;&gt;Node9</title>
<path fill="none" stroke="midnightblue" d="M357.793,-499.458C361.542,-504.179 371.611,-507.5 388,-507.5 414.895,-507.5 424.77,-498.557 417.626,-489.159"/>
<polygon fill="midnightblue" stroke="midnightblue" points="361.305,-499.34 358.374,-489.159 354.316,-498.946 361.305,-499.34"/>
</g>
<!-- Node10&#45;&gt;Node10 -->
<g id="edge17" class="edge"><title>Node10&#45;&gt;Node10</title>
<path fill="none" stroke="midnightblue" d="M357.793,-432.458C361.542,-437.179 371.611,-440.5 388,-440.5 414.895,-440.5 424.77,-431.557 417.626,-422.159"/>
<polygon fill="midnightblue" stroke="midnightblue" points="361.305,-432.34 358.374,-422.159 354.316,-431.946 361.305,-432.34"/>
</g>
<!-- Node11&#45;&gt;Node11 -->
<g id="edge19" class="edge"><title>Node11&#45;&gt;Node11</title>
<path fill="none" stroke="midnightblue" d="M357.793,-365.458C361.542,-370.179 371.611,-373.5 388,-373.5 414.895,-373.5 424.77,-364.557 417.626,-355.159"/>
<polygon fill="midnightblue" stroke="midnightblue" points="361.305,-365.34 358.374,-355.159 354.316,-364.946 361.305,-365.34"/>
</g>
<!-- Node12&#45;&gt;Node12 -->
<g id="edge21" class="edge"><title>Node12&#45;&gt;Node12</title>
<path fill="none" stroke="midnightblue" d="M357.793,-298.458C361.542,-303.179 371.611,-306.5 388,-306.5 414.895,-306.5 424.77,-297.557 417.626,-288.159"/>
<polygon fill="midnightblue" stroke="midnightblue" points="361.305,-298.34 358.374,-288.159 354.316,-297.946 361.305,-298.34"/>
</g>
<!-- Node13&#45;&gt;Node13 -->
<g id="edge23" class="edge"><title>Node13&#45;&gt;Node13</title>
<path fill="none" stroke="midnightblue" d="M357.793,-231.458C361.542,-236.179 371.611,-239.5 388,-239.5 414.895,-239.5 424.77,-230.557 417.626,-221.159"/>
<polygon fill="midnightblue" stroke="midnightblue" points="361.305,-231.34 358.374,-221.159 354.316,-230.946 361.305,-231.34"/>
</g>
<!-- Node14&#45;&gt;Node14 -->
<g id="edge25" class="edge"><title>Node14&#45;&gt;Node14</title>
<path fill="none" stroke="midnightblue" d="M357.793,-164.458C361.542,-169.179 371.611,-172.5 388,-172.5 414.895,-172.5 424.77,-163.557 417.626,-154.159"/>
<polygon fill="midnightblue" stroke="midnightblue" points="361.305,-164.34 358.374,-154.159 354.316,-163.946 361.305,-164.34"/>
</g>
<!-- Node15&#45;&gt;Node15 -->
<g id="edge27" class="edge"><title>Node15&#45;&gt;Node15</title>
<path fill="none" stroke="midnightblue" d="M357.793,-97.4579C361.542,-102.179 371.611,-105.5 388,-105.5 414.895,-105.5 424.77,-96.5566 417.626,-87.159"/>
<polygon fill="midnightblue" stroke="midnightblue" points="361.305,-97.3403 358.374,-87.159 354.316,-96.946 361.305,-97.3403"/>
</g>
<!-- Node16&#45;&gt;Node16 -->
<g id="edge29" class="edge"><title>Node16&#45;&gt;Node16</title>
<path fill="none" stroke="midnightblue" d="M356.189,-28.2746C357.096,-33.741 367.699,-38 388,-38 418.215,-38 426.949,-28.5653 414.202,-19.7571"/>
<polygon fill="midnightblue" stroke="midnightblue" points="359.221,-30.0337 361.798,-19.7571 353.375,-26.1836 359.221,-30.0337"/>
</g>
</g>
</svg>
