<?xml version="1.0" encoding="UTF-8" standalone="no"?>
<!DOCTYPE svg PUBLIC "-//W3C//DTD SVG 1.1//EN"
 "http://www.w3.org/Graphics/SVG/1.1/DTD/svg11.dtd">
<!-- Generated by graphviz version 2.38.0 (20140413.2041)
 -->
<!-- Title: INMOST::Mesh::IntegerArray Pages: 1 -->
<svg width="661pt" height="143pt"
 viewBox="0.00 0.00 661.00 142.50" xmlns="http://www.w3.org/2000/svg" xmlns:xlink="http://www.w3.org/1999/xlink">
<g id="graph0" class="graph" transform="scale(1 1) rotate(0) translate(4 138.5)">
<title>INMOST::Mesh::IntegerArray</title>
<!-- Node1 -->
<g id="node1" class="node"><title>Node1</title>
<polygon fill="#bfbfbf" stroke="black" points="0,-55 0,-74 142,-74 142,-55 0,-55"/>
<text text-anchor="middle" x="71" y="-62" font-family="Helvetica,sans-Serif" font-size="10.00">INMOST::Mesh::IntegerArray</text>
</g>
<!-- Node2 -->
<g id="node2" class="node"><title>Node2</title>
<g id="a_node2"><a xlink:href="class_i_n_m_o_s_t_1_1_storage.html#a11d99c05260909c93df802f94f52d48f" target="_top" xlink:title="INMOST::Storage::Integer\lArray">
<polygon fill="none" stroke="black" points="178,-49.5 178,-79.5 306,-79.5 306,-49.5 178,-49.5"/>
<text text-anchor="start" x="186" y="-67.5" font-family="Helvetica,sans-Serif" font-size="10.00">INMOST::Storage::Integer</text>
<text text-anchor="middle" x="242" y="-56.5" font-family="Helvetica,sans-Serif" font-size="10.00">Array</text>
</a>
</g>
</g>
<!-- Node1&#45;&gt;Node2 -->
<g id="edge1" class="edge"><title>Node1&#45;&gt;Node2</title>
<path fill="none" stroke="midnightblue" d="M152.22,-64.5C160.794,-64.5 169.427,-64.5 177.765,-64.5"/>
<polygon fill="midnightblue" stroke="midnightblue" points="152.203,-61.0001 142.203,-64.5 152.203,-68.0001 152.203,-61.0001"/>
</g>
<!-- Node3 -->
<g id="node3" class="node"><title>Node3</title>
<g id="a_node3"><a xlink:href="class_i_n_m_o_s_t_1_1_automatizator.html#a3b9418a007184a35890a508d92fdb61c" target="_top" xlink:title="INMOST::Automatizator\l::GetDynamicIndex">
<polygon fill="none" stroke="black" points="342,-98.5 342,-128.5 462,-128.5 462,-98.5 342,-98.5"/>
<text text-anchor="start" x="350" y="-116.5" font-family="Helvetica,sans-Serif" font-size="10.00">INMOST::Automatizator</text>
<text text-anchor="middle" x="402" y="-105.5" font-family="Helvetica,sans-Serif" font-size="10.00">::GetDynamicIndex</text>
</a>
</g>
</g>
<!-- Node2&#45;&gt;Node3 -->
<g id="edge2" class="edge"><title>Node2&#45;&gt;Node3</title>
<path fill="none" stroke="midnightblue" d="M301.405,-82.6129C318.202,-87.8222 336.335,-93.4457 352.466,-98.4484"/>
<polygon fill="midnightblue" stroke="midnightblue" points="302.282,-79.2207 291.694,-79.6014 300.209,-85.9065 302.282,-79.2207"/>
</g>
<!-- Node5 -->
<g id="node5" class="node"><title>Node5</title>
<g id="a_node5"><a xlink:href="class_i_n_m_o_s_t_1_1_automatizator.html#a55fa3c6b0c26f26037954f87a86854a3" target="_top" xlink:title="INMOST::Automatizator\l::GetIndex">
<polygon fill="none" stroke="black" points="342,-49.5 342,-79.5 462,-79.5 462,-49.5 342,-49.5"/>
<text text-anchor="start" x="350" y="-67.5" font-family="Helvetica,sans-Serif" font-size="10.00">INMOST::Automatizator</text>
<text text-anchor="middle" x="402" y="-56.5" font-family="Helvetica,sans-Serif" font-size="10.00">::GetIndex</text>
</a>
</g>
</g>
<!-- Node2&#45;&gt;Node5 -->
<g id="edge4" class="edge"><title>Node2&#45;&gt;Node5</title>
<path fill="none" stroke="midnightblue" d="M316.368,-64.5C324.954,-64.5 333.63,-64.5 341.986,-64.5"/>
<polygon fill="midnightblue" stroke="midnightblue" points="316.354,-61.0001 306.354,-64.5 316.354,-68.0001 316.354,-61.0001"/>
</g>
<!-- Node6 -->
<g id="node6" class="node"><title>Node6</title>
<g id="a_node6"><a xlink:href="class_i_n_m_o_s_t_1_1_automatizator.html#a571b357aebd31b957e1fdc328e270e58" target="_top" xlink:title="INMOST::Automatizator\l::GetComponents">
<polygon fill="none" stroke="black" points="342,-0.5 342,-30.5 462,-30.5 462,-0.5 342,-0.5"/>
<text text-anchor="start" x="350" y="-18.5" font-family="Helvetica,sans-Serif" font-size="10.00">INMOST::Automatizator</text>
<text text-anchor="middle" x="402" y="-7.5" font-family="Helvetica,sans-Serif" font-size="10.00">::GetComponents</text>
</a>
</g>
</g>
<!-- Node2&#45;&gt;Node6 -->
<g id="edge5" class="edge"><title>Node2&#45;&gt;Node6</title>
<path fill="none" stroke="midnightblue" d="M301.405,-46.3871C318.202,-41.1778 336.335,-35.5543 352.466,-30.5516"/>
<polygon fill="midnightblue" stroke="midnightblue" points="300.209,-43.0935 291.694,-49.3986 302.282,-49.7793 300.209,-43.0935"/>
</g>
<!-- Node4 -->
<g id="node4" class="node"><title>Node4</title>
<g id="a_node4"><a xlink:href="class_i_n_m_o_s_t_1_1enhanced__multivar__expression.html#aa7a9b5c6c18e890d941c0abaf36fc9ac" target="_top" xlink:title="INMOST::enhanced_multivar\l_expression::enhanced_multivar\l_expression">
<polygon fill="none" stroke="black" points="498,-93 498,-134 653,-134 653,-93 498,-93"/>
<text text-anchor="start" x="506" y="-122" font-family="Helvetica,sans-Serif" font-size="10.00">INMOST::enhanced_multivar</text>
<text text-anchor="start" x="506" y="-111" font-family="Helvetica,sans-Serif" font-size="10.00">_expression::enhanced_multivar</text>
<text text-anchor="middle" x="575.5" y="-100" font-family="Helvetica,sans-Serif" font-size="10.00">_expression</text>
</a>
</g>
</g>
<!-- Node3&#45;&gt;Node4 -->
<g id="edge3" class="edge"><title>Node3&#45;&gt;Node4</title>
<path fill="none" stroke="midnightblue" d="M472.176,-113.5C480.611,-113.5 489.268,-113.5 497.804,-113.5"/>
<polygon fill="midnightblue" stroke="midnightblue" points="472.021,-110 462.021,-113.5 472.021,-117 472.021,-110"/>
</g>
</g>
</svg>
