<?xml version="1.0" encoding="UTF-8" standalone="no"?>
<!DOCTYPE svg PUBLIC "-//W3C//DTD SVG 1.1//EN"
 "http://www.w3.org/Graphics/SVG/1.1/DTD/svg11.dtd">
<!-- Generated by graphviz version 2.38.0 (20140413.2041)
 -->
<!-- Title: INMOST::array::assert Pages: 1 -->
<svg width="288pt" height="578pt"
 viewBox="0.00 0.00 288.00 578.00" xmlns="http://www.w3.org/2000/svg" xmlns:xlink="http://www.w3.org/1999/xlink">
<g id="graph0" class="graph" transform="scale(1 1) rotate(0) translate(4 574)">
<title>INMOST::array::assert</title>
<!-- Node1 -->
<g id="node1" class="node"><title>Node1</title>
<polygon fill="#bfbfbf" stroke="black" points="0,-275 0,-294 114,-294 114,-275 0,-275"/>
<text text-anchor="middle" x="57" y="-282" font-family="Helvetica,sans-Serif" font-size="10.00">INMOST::array::assert</text>
</g>
<!-- Node2 -->
<g id="node2" class="node"><title>Node2</title>
<g id="a_node2"><a xlink:href="class_i_n_m_o_s_t_1_1array.html#af53f8ece04516e935ed8fc9089328730" target="_top" xlink:title="INMOST::array\&lt; reference\l \&gt;::array">
<polygon fill="none" stroke="black" points="150,-539.5 150,-569.5 280,-569.5 280,-539.5 150,-539.5"/>
<text text-anchor="start" x="158" y="-557.5" font-family="Helvetica,sans-Serif" font-size="10.00">INMOST::array&lt; reference</text>
<text text-anchor="middle" x="215" y="-546.5" font-family="Helvetica,sans-Serif" font-size="10.00"> &gt;::array</text>
</a>
</g>
</g>
<!-- Node1&#45;&gt;Node2 -->
<g id="edge1" class="edge"><title>Node1&#45;&gt;Node2</title>
<path fill="none" stroke="midnightblue" d="M59.8725,-304.096C65.2762,-349.972 84.9351,-465.377 150,-530.5 153.439,-533.942 157.418,-536.897 161.675,-539.433"/>
<polygon fill="midnightblue" stroke="midnightblue" points="63.3364,-303.572 58.7869,-294.004 56.3766,-304.321 63.3364,-303.572"/>
</g>
<!-- Node3 -->
<g id="node3" class="node"><title>Node3</title>
<g id="a_node3"><a xlink:href="class_i_n_m_o_s_t_1_1array.html#ac31cc8195fbde806498d6b363a8b2747" target="_top" xlink:title="INMOST::array\&lt; reference\l \&gt;::operator[]">
<polygon fill="none" stroke="black" points="150,-490.5 150,-520.5 280,-520.5 280,-490.5 150,-490.5"/>
<text text-anchor="start" x="158" y="-508.5" font-family="Helvetica,sans-Serif" font-size="10.00">INMOST::array&lt; reference</text>
<text text-anchor="middle" x="215" y="-497.5" font-family="Helvetica,sans-Serif" font-size="10.00"> &gt;::operator[]</text>
</a>
</g>
</g>
<!-- Node1&#45;&gt;Node3 -->
<g id="edge2" class="edge"><title>Node1&#45;&gt;Node3</title>
<path fill="none" stroke="midnightblue" d="M61.9502,-304.098C70.817,-343.208 95.9059,-431.476 150,-481.5 153.746,-484.964 158.04,-487.942 162.591,-490.499"/>
<polygon fill="midnightblue" stroke="midnightblue" points="65.3541,-303.278 59.8274,-294.239 58.5109,-304.752 65.3541,-303.278"/>
</g>
<!-- Node4 -->
<g id="node4" class="node"><title>Node4</title>
<g id="a_node4"><a xlink:href="class_i_n_m_o_s_t_1_1array.html#a0023388a73620d7656a9c936192d992c" target="_top" xlink:title="INMOST::array\&lt; reference\l \&gt;::at">
<polygon fill="none" stroke="black" points="150,-441.5 150,-471.5 280,-471.5 280,-441.5 150,-441.5"/>
<text text-anchor="start" x="158" y="-459.5" font-family="Helvetica,sans-Serif" font-size="10.00">INMOST::array&lt; reference</text>
<text text-anchor="middle" x="215" y="-448.5" font-family="Helvetica,sans-Serif" font-size="10.00"> &gt;::at</text>
</a>
</g>
</g>
<!-- Node1&#45;&gt;Node4 -->
<g id="edge3" class="edge"><title>Node1&#45;&gt;Node4</title>
<path fill="none" stroke="midnightblue" d="M65.1177,-303.655C77.6421,-334.877 106.487,-396.828 150,-432.5 154.13,-435.886 158.785,-438.822 163.654,-441.364"/>
<polygon fill="midnightblue" stroke="midnightblue" points="68.3787,-302.384 61.4983,-294.327 61.8527,-304.916 68.3787,-302.384"/>
</g>
<!-- Node5 -->
<g id="node5" class="node"><title>Node5</title>
<g id="a_node5"><a xlink:href="class_i_n_m_o_s_t_1_1array.html#a36e76845f5992d0ca9fc59b18959fd99" target="_top" xlink:title="INMOST::array\&lt; reference\l \&gt;::operator=">
<polygon fill="none" stroke="black" points="150,-392.5 150,-422.5 280,-422.5 280,-392.5 150,-392.5"/>
<text text-anchor="start" x="158" y="-410.5" font-family="Helvetica,sans-Serif" font-size="10.00">INMOST::array&lt; reference</text>
<text text-anchor="middle" x="215" y="-399.5" font-family="Helvetica,sans-Serif" font-size="10.00"> &gt;::operator=</text>
</a>
</g>
</g>
<!-- Node1&#45;&gt;Node5 -->
<g id="edge4" class="edge"><title>Node1&#45;&gt;Node5</title>
<path fill="none" stroke="midnightblue" d="M70.5276,-302.416C86.6434,-324.281 116.572,-361.099 150,-383.5 155.028,-386.869 160.592,-389.848 166.28,-392.459"/>
<polygon fill="midnightblue" stroke="midnightblue" points="73.1824,-300.114 64.4966,-294.047 67.5032,-304.206 73.1824,-300.114"/>
</g>
<!-- Node6 -->
<g id="node6" class="node"><title>Node6</title>
<g id="a_node6"><a xlink:href="class_i_n_m_o_s_t_1_1array.html#ac848814036bb81eca7108f14c810540d" target="_top" xlink:title="INMOST::array\&lt; reference\l \&gt;::push_back">
<polygon fill="none" stroke="black" points="150,-343.5 150,-373.5 280,-373.5 280,-343.5 150,-343.5"/>
<text text-anchor="start" x="158" y="-361.5" font-family="Helvetica,sans-Serif" font-size="10.00">INMOST::array&lt; reference</text>
<text text-anchor="middle" x="215" y="-350.5" font-family="Helvetica,sans-Serif" font-size="10.00"> &gt;::push_back</text>
</a>
</g>
</g>
<!-- Node1&#45;&gt;Node6 -->
<g id="edge5" class="edge"><title>Node1&#45;&gt;Node6</title>
<path fill="none" stroke="midnightblue" d="M82.7612,-299.18C101.012,-309.696 126.624,-323.827 150,-334.5 156.801,-337.605 164.13,-340.635 171.316,-343.439"/>
<polygon fill="midnightblue" stroke="midnightblue" points="84.3427,-296.05 73.9389,-294.047 80.8227,-302.101 84.3427,-296.05"/>
</g>
<!-- Node7 -->
<g id="node7" class="node"><title>Node7</title>
<g id="a_node7"><a xlink:href="class_i_n_m_o_s_t_1_1array.html#a0ed71a0654b2c169db413f93b275ca9f" target="_top" xlink:title="INMOST::array\&lt; reference\l \&gt;::pop_back">
<polygon fill="none" stroke="black" points="150,-294.5 150,-324.5 280,-324.5 280,-294.5 150,-294.5"/>
<text text-anchor="start" x="158" y="-312.5" font-family="Helvetica,sans-Serif" font-size="10.00">INMOST::array&lt; reference</text>
<text text-anchor="middle" x="215" y="-301.5" font-family="Helvetica,sans-Serif" font-size="10.00"> &gt;::pop_back</text>
</a>
</g>
</g>
<!-- Node1&#45;&gt;Node7 -->
<g id="edge6" class="edge"><title>Node1&#45;&gt;Node7</title>
<path fill="none" stroke="midnightblue" d="M124.455,-295.15C132.86,-296.497 141.448,-297.873 149.817,-299.214"/>
<polygon fill="midnightblue" stroke="midnightblue" points="124.747,-291.652 114.32,-293.526 123.64,-298.564 124.747,-291.652"/>
</g>
<!-- Node8 -->
<g id="node8" class="node"><title>Node8</title>
<g id="a_node8"><a xlink:href="class_i_n_m_o_s_t_1_1array.html#a84710cc8bc72922643d5a9de3d9a2d66" target="_top" xlink:title="INMOST::array\&lt; reference\l \&gt;::back">
<polygon fill="none" stroke="black" points="150,-245.5 150,-275.5 280,-275.5 280,-245.5 150,-245.5"/>
<text text-anchor="start" x="158" y="-263.5" font-family="Helvetica,sans-Serif" font-size="10.00">INMOST::array&lt; reference</text>
<text text-anchor="middle" x="215" y="-252.5" font-family="Helvetica,sans-Serif" font-size="10.00"> &gt;::back</text>
</a>
</g>
</g>
<!-- Node1&#45;&gt;Node8 -->
<g id="edge7" class="edge"><title>Node1&#45;&gt;Node8</title>
<path fill="none" stroke="midnightblue" d="M124.455,-274.276C132.86,-272.983 141.448,-271.662 149.817,-270.374"/>
<polygon fill="midnightblue" stroke="midnightblue" points="123.671,-270.855 114.32,-275.835 124.736,-277.774 123.671,-270.855"/>
</g>
<!-- Node9 -->
<g id="node9" class="node"><title>Node9</title>
<g id="a_node9"><a xlink:href="class_i_n_m_o_s_t_1_1array.html#a3f8933b69ab66e72fd8210a9d054204a" target="_top" xlink:title="INMOST::array\&lt; reference\l \&gt;::front">
<polygon fill="none" stroke="black" points="150,-196.5 150,-226.5 280,-226.5 280,-196.5 150,-196.5"/>
<text text-anchor="start" x="158" y="-214.5" font-family="Helvetica,sans-Serif" font-size="10.00">INMOST::array&lt; reference</text>
<text text-anchor="middle" x="215" y="-203.5" font-family="Helvetica,sans-Serif" font-size="10.00"> &gt;::front</text>
</a>
</g>
</g>
<!-- Node1&#45;&gt;Node9 -->
<g id="edge8" class="edge"><title>Node1&#45;&gt;Node9</title>
<path fill="none" stroke="midnightblue" d="M83.8766,-270.038C102.11,-260.086 127.235,-246.848 150,-236.5 157.493,-233.094 165.596,-229.708 173.436,-226.578"/>
<polygon fill="midnightblue" stroke="midnightblue" points="82.0943,-267.023 75.019,-274.91 85.4678,-273.157 82.0943,-267.023"/>
</g>
<!-- Node10 -->
<g id="node10" class="node"><title>Node10</title>
<g id="a_node10"><a xlink:href="class_i_n_m_o_s_t_1_1array.html#a0b730a136da5c87b007b22a9a9161e73" target="_top" xlink:title="INMOST::array\&lt; reference\l \&gt;::resize">
<polygon fill="none" stroke="black" points="150,-147.5 150,-177.5 280,-177.5 280,-147.5 150,-147.5"/>
<text text-anchor="start" x="158" y="-165.5" font-family="Helvetica,sans-Serif" font-size="10.00">INMOST::array&lt; reference</text>
<text text-anchor="middle" x="215" y="-154.5" font-family="Helvetica,sans-Serif" font-size="10.00"> &gt;::resize</text>
</a>
</g>
</g>
<!-- Node1&#45;&gt;Node10 -->
<g id="edge9" class="edge"><title>Node1&#45;&gt;Node10</title>
<path fill="none" stroke="midnightblue" d="M70.9077,-266.706C87.2136,-245.333 117.14,-209.603 150,-187.5 155.543,-183.772 161.723,-180.478 167.997,-177.608"/>
<polygon fill="midnightblue" stroke="midnightblue" points="67.9638,-264.798 64.7846,-274.905 73.5724,-268.987 67.9638,-264.798"/>
</g>
<!-- Node11 -->
<g id="node11" class="node"><title>Node11</title>
<g id="a_node11"><a xlink:href="class_i_n_m_o_s_t_1_1array.html#aa1ce6a39575b892b26f461a40711f87e" target="_top" xlink:title="INMOST::array\&lt; reference\l \&gt;::erase">
<polygon fill="none" stroke="black" points="150,-98.5 150,-128.5 280,-128.5 280,-98.5 150,-98.5"/>
<text text-anchor="start" x="158" y="-116.5" font-family="Helvetica,sans-Serif" font-size="10.00">INMOST::array&lt; reference</text>
<text text-anchor="middle" x="215" y="-105.5" font-family="Helvetica,sans-Serif" font-size="10.00"> &gt;::erase</text>
</a>
</g>
</g>
<!-- Node1&#45;&gt;Node11 -->
<g id="edge10" class="edge"><title>Node1&#45;&gt;Node11</title>
<path fill="none" stroke="midnightblue" d="M65.4091,-265.268C78.1997,-234.436 107.23,-173.832 150,-138.5 154.598,-134.701 159.842,-131.433 165.303,-128.632"/>
<polygon fill="midnightblue" stroke="midnightblue" points="62.0433,-264.258 61.5663,-274.842 68.5395,-266.866 62.0433,-264.258"/>
</g>
<!-- Node12 -->
<g id="node12" class="node"><title>Node12</title>
<g id="a_node12"><a xlink:href="class_i_n_m_o_s_t_1_1array.html#a2be0dbe1ac04b39cd707dd3950d28e09" target="_top" xlink:title="INMOST::array\&lt; reference\l \&gt;::insert">
<polygon fill="none" stroke="black" points="150,-49.5 150,-79.5 280,-79.5 280,-49.5 150,-49.5"/>
<text text-anchor="start" x="158" y="-67.5" font-family="Helvetica,sans-Serif" font-size="10.00">INMOST::array&lt; reference</text>
<text text-anchor="middle" x="215" y="-56.5" font-family="Helvetica,sans-Serif" font-size="10.00"> &gt;::insert</text>
</a>
</g>
</g>
<!-- Node1&#45;&gt;Node12 -->
<g id="edge11" class="edge"><title>Node1&#45;&gt;Node12</title>
<path fill="none" stroke="midnightblue" d="M62.1258,-264.912C71.2547,-226.181 96.7119,-139.261 150,-89.5 154.098,-85.6735 158.848,-82.4094 163.873,-79.6302"/>
<polygon fill="midnightblue" stroke="midnightblue" points="58.6611,-264.367 59.8887,-274.891 65.4916,-265.899 58.6611,-264.367"/>
</g>
<!-- Node13 -->
<g id="node13" class="node"><title>Node13</title>
<g id="a_node13"><a xlink:href="class_i_n_m_o_s_t_1_1array.html#af8741a307b9261063adbf4f5685ad114" target="_top" xlink:title="INMOST::array\&lt; reference\l \&gt;::replace">
<polygon fill="none" stroke="black" points="150,-0.5 150,-30.5 280,-30.5 280,-0.5 150,-0.5"/>
<text text-anchor="start" x="158" y="-18.5" font-family="Helvetica,sans-Serif" font-size="10.00">INMOST::array&lt; reference</text>
<text text-anchor="middle" x="215" y="-7.5" font-family="Helvetica,sans-Serif" font-size="10.00"> &gt;::replace</text>
</a>
</g>
</g>
<!-- Node1&#45;&gt;Node13 -->
<g id="edge12" class="edge"><title>Node1&#45;&gt;Node13</title>
<path fill="none" stroke="midnightblue" d="M60.0604,-264.493C65.8069,-218.695 86.047,-105.214 150,-40.5 153.773,-36.6819 158.197,-33.4336 162.927,-30.6728"/>
<polygon fill="midnightblue" stroke="midnightblue" points="56.5627,-264.272 58.8939,-274.608 63.5166,-265.074 56.5627,-264.272"/>
</g>
</g>
</svg>
