<?xml version="1.0" encoding="UTF-8" standalone="no"?>
<!DOCTYPE svg PUBLIC "-//W3C//DTD SVG 1.1//EN"
 "http://www.w3.org/Graphics/SVG/1.1/DTD/svg11.dtd">
<!-- Generated by graphviz version 2.38.0 (20140413.2041)
 -->
<!-- Title: INMOST::Storage::GetMarker Pages: 1 -->
<svg width="527pt" height="180pt"
 viewBox="0.00 0.00 527.00 180.00" xmlns="http://www.w3.org/2000/svg" xmlns:xlink="http://www.w3.org/1999/xlink">
<g id="graph0" class="graph" transform="scale(1 1) rotate(0) translate(4 176)">
<title>INMOST::Storage::GetMarker</title>
<!-- Node1 -->
<g id="node1" class="node"><title>Node1</title>
<polygon fill="#bfbfbf" stroke="black" points="0,-57.5 0,-76.5 145,-76.5 145,-57.5 0,-57.5"/>
<text text-anchor="middle" x="72.5" y="-64.5" font-family="Helvetica,sans-Serif" font-size="10.00">INMOST::Storage::GetMarker</text>
</g>
<!-- Node2 -->
<g id="node2" class="node"><title>Node2</title>
<g id="a_node2"><a xlink:href="class_i_n_m_o_s_t_1_1_storage.html#a59da31b96c2b4e09e260f0deb4dae4d9" target="_top" xlink:title="INMOST::Storage::isValid">
<polygon fill="none" stroke="black" points="189.5,-114.5 189.5,-133.5 317.5,-133.5 317.5,-114.5 189.5,-114.5"/>
<text text-anchor="middle" x="253.5" y="-121.5" font-family="Helvetica,sans-Serif" font-size="10.00">INMOST::Storage::isValid</text>
</a>
</g>
</g>
<!-- Node1&#45;&gt;Node2 -->
<g id="edge1" class="edge"><title>Node1&#45;&gt;Node2</title>
<path fill="none" stroke="midnightblue" d="M103.461,-76.5405C133.405,-86.076 179.624,-100.794 212.649,-111.31"/>
<polygon fill="midnightblue" stroke="midnightblue" points="211.851,-114.729 222.442,-114.428 213.975,-108.059 211.851,-114.729"/>
</g>
<!-- Node4 -->
<g id="node4" class="node"><title>Node4</title>
<g id="a_node4"><a xlink:href="class_i_n_m_o_s_t_1_1_storage.html#a20d218fc89f75ca8534707b4f697173e" target="_top" xlink:title="INMOST::Storage::GetMeshLink">
<polygon fill="none" stroke="black" points="362,-76.5 362,-95.5 519,-95.5 519,-76.5 362,-76.5"/>
<text text-anchor="middle" x="440.5" y="-83.5" font-family="Helvetica,sans-Serif" font-size="10.00">INMOST::Storage::GetMeshLink</text>
</a>
</g>
</g>
<!-- Node1&#45;&gt;Node4 -->
<g id="edge5" class="edge"><title>Node1&#45;&gt;Node4</title>
<path fill="none" stroke="midnightblue" d="M145.373,-70.7311C204.435,-73.7972 288.353,-78.1535 351.445,-81.4288"/>
<polygon fill="midnightblue" stroke="midnightblue" points="351.613,-84.9422 361.781,-81.9654 351.976,-77.9516 351.613,-84.9422"/>
</g>
<!-- Node6 -->
<g id="node6" class="node"><title>Node6</title>
<g id="a_node6"><a xlink:href="class_i_n_m_o_s_t_1_1_mesh.html#a2c8a00522e2b06a0b59e25cae119a237" target="_top" xlink:title="INMOST::Mesh::GetMarker">
<polygon fill="none" stroke="black" points="186,-38.5 186,-57.5 321,-57.5 321,-38.5 186,-38.5"/>
<text text-anchor="middle" x="253.5" y="-45.5" font-family="Helvetica,sans-Serif" font-size="10.00">INMOST::Mesh::GetMarker</text>
</a>
</g>
</g>
<!-- Node1&#45;&gt;Node6 -->
<g id="edge6" class="edge"><title>Node1&#45;&gt;Node6</title>
<path fill="none" stroke="midnightblue" d="M145.017,-59.4088C155.096,-58.339 165.492,-57.2355 175.666,-56.1556"/>
<polygon fill="midnightblue" stroke="midnightblue" points="176.17,-59.6218 185.745,-55.0858 175.431,-52.6609 176.17,-59.6218"/>
</g>
<!-- Node8 -->
<g id="node8" class="node"><title>Node8</title>
<g id="a_node8"><a xlink:href="class_i_n_m_o_s_t_1_1_storage.html#ac79e3f3664b2ff21892f37bce0caa0e0" target="_top" xlink:title="INMOST::Storage::GetHandle">
<polygon fill="none" stroke="black" points="181,-0.5 181,-19.5 326,-19.5 326,-0.5 181,-0.5"/>
<text text-anchor="middle" x="253.5" y="-7.5" font-family="Helvetica,sans-Serif" font-size="10.00">INMOST::Storage::GetHandle</text>
</a>
</g>
</g>
<!-- Node1&#45;&gt;Node8 -->
<g id="edge8" class="edge"><title>Node1&#45;&gt;Node8</title>
<path fill="none" stroke="midnightblue" d="M98.938,-57.3598C120.6,-49.3071 152.632,-37.7678 181,-29 188.507,-26.68 196.508,-24.3838 204.34,-22.2326"/>
<polygon fill="midnightblue" stroke="midnightblue" points="205.376,-25.5784 214.119,-19.5944 203.552,-18.82 205.376,-25.5784"/>
</g>
<!-- Node3 -->
<g id="node3" class="node"><title>Node3</title>
<g id="a_node3"><a xlink:href="namespace_i_n_m_o_s_t.html#a115b3e54c3b7be04ffec9b69c058df18" target="_top" xlink:title="INMOST::InvalidHandle">
<polygon fill="none" stroke="black" points="382.5,-152.5 382.5,-171.5 498.5,-171.5 498.5,-152.5 382.5,-152.5"/>
<text text-anchor="middle" x="440.5" y="-159.5" font-family="Helvetica,sans-Serif" font-size="10.00">INMOST::InvalidHandle</text>
</a>
</g>
</g>
<!-- Node2&#45;&gt;Node3 -->
<g id="edge2" class="edge"><title>Node2&#45;&gt;Node3</title>
<path fill="none" stroke="midnightblue" d="M301.183,-133.589C326.146,-138.716 357.064,-145.067 383.334,-150.463"/>
<polygon fill="midnightblue" stroke="midnightblue" points="382.653,-153.896 393.152,-152.48 384.061,-147.039 382.653,-153.896"/>
</g>
<!-- Node2&#45;&gt;Node4 -->
<g id="edge3" class="edge"><title>Node2&#45;&gt;Node4</title>
<path fill="none" stroke="midnightblue" d="M301.183,-114.411C326.146,-109.284 357.064,-102.933 383.334,-97.5368"/>
<polygon fill="midnightblue" stroke="midnightblue" points="384.061,-100.961 393.152,-95.5201 382.653,-94.1038 384.061,-100.961"/>
</g>
<!-- Node5 -->
<g id="node5" class="node"><title>Node5</title>
<g id="a_node5"><a xlink:href="class_i_n_m_o_s_t_1_1_mesh.html#a05701da4bd3ed8ca69bbcca256c2b0e2" target="_top" xlink:title="INMOST::Mesh::isValidElement">
<polygon fill="none" stroke="black" points="363,-114.5 363,-133.5 518,-133.5 518,-114.5 363,-114.5"/>
<text text-anchor="middle" x="440.5" y="-121.5" font-family="Helvetica,sans-Serif" font-size="10.00">INMOST::Mesh::isValidElement</text>
</a>
</g>
</g>
<!-- Node2&#45;&gt;Node5 -->
<g id="edge4" class="edge"><title>Node2&#45;&gt;Node5</title>
<path fill="none" stroke="midnightblue" d="M317.649,-124C328.902,-124 340.802,-124 352.581,-124"/>
<polygon fill="midnightblue" stroke="midnightblue" points="352.881,-127.5 362.881,-124 352.881,-120.5 352.881,-127.5"/>
</g>
<!-- Node7 -->
<g id="node7" class="node"><title>Node7</title>
<g id="a_node7"><a xlink:href="class_i_n_m_o_s_t_1_1_mesh.html#ad7d9049c7e0f028e334d3fac70acdc6c" target="_top" xlink:title="INMOST::Mesh::MarkersTag">
<polygon fill="none" stroke="black" points="370.5,-38.5 370.5,-57.5 510.5,-57.5 510.5,-38.5 370.5,-38.5"/>
<text text-anchor="middle" x="440.5" y="-45.5" font-family="Helvetica,sans-Serif" font-size="10.00">INMOST::Mesh::MarkersTag</text>
</a>
</g>
</g>
<!-- Node6&#45;&gt;Node7 -->
<g id="edge7" class="edge"><title>Node6&#45;&gt;Node7</title>
<path fill="none" stroke="midnightblue" d="M321.028,-48C333.697,-48 347.074,-48 360.097,-48"/>
<polygon fill="midnightblue" stroke="midnightblue" points="360.446,-51.5001 370.446,-48 360.446,-44.5001 360.446,-51.5001"/>
</g>
</g>
</svg>
