<?xml version="1.0" encoding="UTF-8" standalone="no"?>
<!DOCTYPE svg PUBLIC "-//W3C//DTD SVG 1.1//EN"
 "http://www.w3.org/Graphics/SVG/1.1/DTD/svg11.dtd">
<!-- Generated by graphviz version 2.38.0 (20140413.2041)
 -->
<!-- Title: INMOST::Mesh::HandleDataPos Pages: 1 -->
<svg width="362pt" height="66pt"
 viewBox="0.00 0.00 362.00 66.00" xmlns="http://www.w3.org/2000/svg" xmlns:xlink="http://www.w3.org/1999/xlink">
<g id="graph0" class="graph" transform="scale(1 1) rotate(0) translate(4 62)">
<title>INMOST::Mesh::HandleDataPos</title>
<!-- Node1 -->
<g id="node1" class="node"><title>Node1</title>
<polygon fill="#bfbfbf" stroke="black" points="0,-19.5 0,-38.5 157,-38.5 157,-19.5 0,-19.5"/>
<text text-anchor="middle" x="78.5" y="-26.5" font-family="Helvetica,sans-Serif" font-size="10.00">INMOST::Mesh::HandleDataPos</text>
</g>
<!-- Node2 -->
<g id="node2" class="node"><title>Node2</title>
<g id="a_node2"><a xlink:href="namespace_i_n_m_o_s_t.html#a6659a95d611050914b2761dd17256928" target="_top" xlink:title="INMOST::GetHandleElementNum">
<polygon fill="none" stroke="black" points="193,-38.5 193,-57.5 354,-57.5 354,-38.5 193,-38.5"/>
<text text-anchor="middle" x="273.5" y="-45.5" font-family="Helvetica,sans-Serif" font-size="10.00">INMOST::GetHandleElementNum</text>
</a>
</g>
</g>
<!-- Node1&#45;&gt;Node2 -->
<g id="edge1" class="edge"><title>Node1&#45;&gt;Node2</title>
<path fill="none" stroke="midnightblue" d="M157.166,-36.6459C165.598,-37.476 174.23,-38.3257 182.79,-39.1684"/>
<polygon fill="midnightblue" stroke="midnightblue" points="182.495,-42.6562 192.789,-40.1528 183.18,-35.6899 182.495,-42.6562"/>
</g>
<!-- Node3 -->
<g id="node3" class="node"><title>Node3</title>
<g id="a_node3"><a xlink:href="namespace_i_n_m_o_s_t.html#a661c89a10e3e2004d24295244bc60187" target="_top" xlink:title="INMOST::GetHandleID">
<polygon fill="none" stroke="black" points="216.5,-0.5 216.5,-19.5 330.5,-19.5 330.5,-0.5 216.5,-0.5"/>
<text text-anchor="middle" x="273.5" y="-7.5" font-family="Helvetica,sans-Serif" font-size="10.00">INMOST::GetHandleID</text>
</a>
</g>
</g>
<!-- Node1&#45;&gt;Node3 -->
<g id="edge2" class="edge"><title>Node1&#45;&gt;Node3</title>
<path fill="none" stroke="midnightblue" d="M157.166,-21.3541C173.406,-19.7554 190.386,-18.0838 206.169,-16.53"/>
<polygon fill="midnightblue" stroke="midnightblue" points="206.739,-19.9909 216.348,-15.5279 206.053,-13.0246 206.739,-19.9909"/>
</g>
</g>
</svg>
