<?xml version="1.0" encoding="UTF-8" standalone="no"?>
<!DOCTYPE svg PUBLIC "-//W3C//DTD SVG 1.1//EN"
 "http://www.w3.org/Graphics/SVG/1.1/DTD/svg11.dtd">
<!-- Generated by graphviz version 2.38.0 (20140413.2041)
 -->
<!-- Title: INMOST::Automatizator::isStaticValid Pages: 1 -->
<svg width="683pt" height="180pt"
 viewBox="0.00 0.00 683.00 180.00" xmlns="http://www.w3.org/2000/svg" xmlns:xlink="http://www.w3.org/1999/xlink">
<g id="graph0" class="graph" transform="scale(1 1) rotate(0) translate(4 176)">
<title>INMOST::Automatizator::isStaticValid</title>
<!-- Node1 -->
<g id="node1" class="node"><title>Node1</title>
<polygon fill="#bfbfbf" stroke="black" points="0,-74 0,-104 120,-104 120,-74 0,-74"/>
<text text-anchor="start" x="8" y="-92" font-family="Helvetica,sans-Serif" font-size="10.00">INMOST::Automatizator</text>
<text text-anchor="middle" x="60" y="-81" font-family="Helvetica,sans-Serif" font-size="10.00">::isStaticValid</text>
</g>
<!-- Node2 -->
<g id="node2" class="node"><title>Node2</title>
<g id="a_node2"><a xlink:href="class_i_n_m_o_s_t_1_1_automatizator.html#a06a1bb3d3a85545bc2d896500967c446" target="_top" xlink:title="INMOST::Automatizator\l::GetStaticMask">
<polygon fill="none" stroke="black" points="168.5,-96 168.5,-126 288.5,-126 288.5,-96 168.5,-96"/>
<text text-anchor="start" x="176.5" y="-114" font-family="Helvetica,sans-Serif" font-size="10.00">INMOST::Automatizator</text>
<text text-anchor="middle" x="228.5" y="-103" font-family="Helvetica,sans-Serif" font-size="10.00">::GetStaticMask</text>
</a>
</g>
</g>
<!-- Node1&#45;&gt;Node2 -->
<g id="edge1" class="edge"><title>Node1&#45;&gt;Node2</title>
<path fill="none" stroke="midnightblue" d="M120.17,-96.8183C132.487,-98.4458 145.574,-100.175 158.218,-101.846"/>
<polygon fill="midnightblue" stroke="midnightblue" points="157.867,-105.33 168.24,-103.17 158.784,-98.3899 157.867,-105.33"/>
</g>
<!-- Node3 -->
<g id="node3" class="node"><title>Node3</title>
<g id="a_node3"><a xlink:href="class_i_n_m_o_s_t_1_1_storage.html#ad256a6f5101df9f507e359cdddef3a66" target="_top" xlink:title="INMOST::Storage::GetMarker">
<polygon fill="none" stroke="black" points="156,-57.5 156,-76.5 301,-76.5 301,-57.5 156,-57.5"/>
<text text-anchor="middle" x="228.5" y="-64.5" font-family="Helvetica,sans-Serif" font-size="10.00">INMOST::Storage::GetMarker</text>
</a>
</g>
</g>
<!-- Node1&#45;&gt;Node3 -->
<g id="edge2" class="edge"><title>Node1&#45;&gt;Node3</title>
<path fill="none" stroke="midnightblue" d="M120.17,-81.1817C128.501,-80.0809 137.184,-78.9337 145.843,-77.7895"/>
<polygon fill="midnightblue" stroke="midnightblue" points="146.52,-81.2305 155.976,-76.4507 145.603,-74.2908 146.52,-81.2305"/>
</g>
<!-- Node4 -->
<g id="node4" class="node"><title>Node4</title>
<g id="a_node4"><a xlink:href="class_i_n_m_o_s_t_1_1_storage.html#a59da31b96c2b4e09e260f0deb4dae4d9" target="_top" xlink:title="INMOST::Storage::isValid">
<polygon fill="none" stroke="black" points="345.5,-114.5 345.5,-133.5 473.5,-133.5 473.5,-114.5 345.5,-114.5"/>
<text text-anchor="middle" x="409.5" y="-121.5" font-family="Helvetica,sans-Serif" font-size="10.00">INMOST::Storage::isValid</text>
</a>
</g>
</g>
<!-- Node3&#45;&gt;Node4 -->
<g id="edge3" class="edge"><title>Node3&#45;&gt;Node4</title>
<path fill="none" stroke="midnightblue" d="M268.694,-76.5752C279.252,-79.3824 290.621,-82.6144 301,-86 317.321,-91.3238 320.858,-94.1558 337,-100 347.356,-103.75 358.626,-107.626 369.092,-111.142"/>
<polygon fill="midnightblue" stroke="midnightblue" points="368.229,-114.543 378.823,-114.385 370.443,-107.903 368.229,-114.543"/>
</g>
<!-- Node6 -->
<g id="node6" class="node"><title>Node6</title>
<g id="a_node6"><a xlink:href="class_i_n_m_o_s_t_1_1_storage.html#a20d218fc89f75ca8534707b4f697173e" target="_top" xlink:title="INMOST::Storage::GetMeshLink">
<polygon fill="none" stroke="black" points="518,-76.5 518,-95.5 675,-95.5 675,-76.5 518,-76.5"/>
<text text-anchor="middle" x="596.5" y="-83.5" font-family="Helvetica,sans-Serif" font-size="10.00">INMOST::Storage::GetMeshLink</text>
</a>
</g>
</g>
<!-- Node3&#45;&gt;Node6 -->
<g id="edge7" class="edge"><title>Node3&#45;&gt;Node6</title>
<path fill="none" stroke="midnightblue" d="M301.373,-70.7311C360.435,-73.7972 444.353,-78.1535 507.445,-81.4288"/>
<polygon fill="midnightblue" stroke="midnightblue" points="507.613,-84.9422 517.781,-81.9654 507.976,-77.9516 507.613,-84.9422"/>
</g>
<!-- Node8 -->
<g id="node8" class="node"><title>Node8</title>
<g id="a_node8"><a xlink:href="class_i_n_m_o_s_t_1_1_mesh.html#a2c8a00522e2b06a0b59e25cae119a237" target="_top" xlink:title="INMOST::Mesh::GetMarker">
<polygon fill="none" stroke="black" points="342,-38.5 342,-57.5 477,-57.5 477,-38.5 342,-38.5"/>
<text text-anchor="middle" x="409.5" y="-45.5" font-family="Helvetica,sans-Serif" font-size="10.00">INMOST::Mesh::GetMarker</text>
</a>
</g>
</g>
<!-- Node3&#45;&gt;Node8 -->
<g id="edge8" class="edge"><title>Node3&#45;&gt;Node8</title>
<path fill="none" stroke="midnightblue" d="M301.017,-59.4088C311.096,-58.339 321.492,-57.2355 331.666,-56.1556"/>
<polygon fill="midnightblue" stroke="midnightblue" points="332.17,-59.6218 341.745,-55.0858 331.431,-52.6609 332.17,-59.6218"/>
</g>
<!-- Node10 -->
<g id="node10" class="node"><title>Node10</title>
<g id="a_node10"><a xlink:href="class_i_n_m_o_s_t_1_1_storage.html#ac79e3f3664b2ff21892f37bce0caa0e0" target="_top" xlink:title="INMOST::Storage::GetHandle">
<polygon fill="none" stroke="black" points="337,-0.5 337,-19.5 482,-19.5 482,-0.5 337,-0.5"/>
<text text-anchor="middle" x="409.5" y="-7.5" font-family="Helvetica,sans-Serif" font-size="10.00">INMOST::Storage::GetHandle</text>
</a>
</g>
</g>
<!-- Node3&#45;&gt;Node10 -->
<g id="edge10" class="edge"><title>Node3&#45;&gt;Node10</title>
<path fill="none" stroke="midnightblue" d="M254.938,-57.3598C276.6,-49.3071 308.632,-37.7678 337,-29 344.507,-26.68 352.508,-24.3838 360.34,-22.2326"/>
<polygon fill="midnightblue" stroke="midnightblue" points="361.376,-25.5784 370.119,-19.5944 359.552,-18.82 361.376,-25.5784"/>
</g>
<!-- Node5 -->
<g id="node5" class="node"><title>Node5</title>
<g id="a_node5"><a xlink:href="namespace_i_n_m_o_s_t.html#a115b3e54c3b7be04ffec9b69c058df18" target="_top" xlink:title="INMOST::InvalidHandle">
<polygon fill="none" stroke="black" points="538.5,-152.5 538.5,-171.5 654.5,-171.5 654.5,-152.5 538.5,-152.5"/>
<text text-anchor="middle" x="596.5" y="-159.5" font-family="Helvetica,sans-Serif" font-size="10.00">INMOST::InvalidHandle</text>
</a>
</g>
</g>
<!-- Node4&#45;&gt;Node5 -->
<g id="edge4" class="edge"><title>Node4&#45;&gt;Node5</title>
<path fill="none" stroke="midnightblue" d="M457.183,-133.589C482.146,-138.716 513.064,-145.067 539.334,-150.463"/>
<polygon fill="midnightblue" stroke="midnightblue" points="538.653,-153.896 549.152,-152.48 540.061,-147.039 538.653,-153.896"/>
</g>
<!-- Node4&#45;&gt;Node6 -->
<g id="edge5" class="edge"><title>Node4&#45;&gt;Node6</title>
<path fill="none" stroke="midnightblue" d="M457.183,-114.411C482.146,-109.284 513.064,-102.933 539.334,-97.5368"/>
<polygon fill="midnightblue" stroke="midnightblue" points="540.061,-100.961 549.152,-95.5201 538.653,-94.1038 540.061,-100.961"/>
</g>
<!-- Node7 -->
<g id="node7" class="node"><title>Node7</title>
<g id="a_node7"><a xlink:href="class_i_n_m_o_s_t_1_1_mesh.html#a05701da4bd3ed8ca69bbcca256c2b0e2" target="_top" xlink:title="INMOST::Mesh::isValidElement">
<polygon fill="none" stroke="black" points="519,-114.5 519,-133.5 674,-133.5 674,-114.5 519,-114.5"/>
<text text-anchor="middle" x="596.5" y="-121.5" font-family="Helvetica,sans-Serif" font-size="10.00">INMOST::Mesh::isValidElement</text>
</a>
</g>
</g>
<!-- Node4&#45;&gt;Node7 -->
<g id="edge6" class="edge"><title>Node4&#45;&gt;Node7</title>
<path fill="none" stroke="midnightblue" d="M473.649,-124C484.902,-124 496.802,-124 508.581,-124"/>
<polygon fill="midnightblue" stroke="midnightblue" points="508.881,-127.5 518.881,-124 508.881,-120.5 508.881,-127.5"/>
</g>
<!-- Node9 -->
<g id="node9" class="node"><title>Node9</title>
<g id="a_node9"><a xlink:href="class_i_n_m_o_s_t_1_1_mesh.html#ad7d9049c7e0f028e334d3fac70acdc6c" target="_top" xlink:title="INMOST::Mesh::MarkersTag">
<polygon fill="none" stroke="black" points="526.5,-38.5 526.5,-57.5 666.5,-57.5 666.5,-38.5 526.5,-38.5"/>
<text text-anchor="middle" x="596.5" y="-45.5" font-family="Helvetica,sans-Serif" font-size="10.00">INMOST::Mesh::MarkersTag</text>
</a>
</g>
</g>
<!-- Node8&#45;&gt;Node9 -->
<g id="edge9" class="edge"><title>Node8&#45;&gt;Node9</title>
<path fill="none" stroke="midnightblue" d="M477.028,-48C489.697,-48 503.074,-48 516.097,-48"/>
<polygon fill="midnightblue" stroke="midnightblue" points="516.446,-51.5001 526.446,-48 516.446,-44.5001 516.446,-51.5001"/>
</g>
</g>
</svg>
