<?xml version="1.0" encoding="UTF-8" standalone="no"?>
<!DOCTYPE svg PUBLIC "-//W3C//DTD SVG 1.1//EN"
 "http://www.w3.org/Graphics/SVG/1.1/DTD/svg11.dtd">
<!-- Generated by graphviz version 2.38.0 (20140413.2041)
 -->
<!-- Title: INMOST::Mesh::Real Pages: 1 -->
<svg width="482pt" height="137pt"
 viewBox="0.00 0.00 482.00 137.00" xmlns="http://www.w3.org/2000/svg" xmlns:xlink="http://www.w3.org/1999/xlink">
<g id="graph0" class="graph" transform="scale(1 1) rotate(0) translate(4 133)">
<title>INMOST::Mesh::Real</title>
<!-- Node1 -->
<g id="node1" class="node"><title>Node1</title>
<polygon fill="#bfbfbf" stroke="black" points="0,-77 0,-96 109,-96 109,-77 0,-77"/>
<text text-anchor="middle" x="54.5" y="-84" font-family="Helvetica,sans-Serif" font-size="10.00">INMOST::Mesh::Real</text>
</g>
<!-- Node2 -->
<g id="node2" class="node"><title>Node2</title>
<g id="a_node2"><a xlink:href="class_i_n_m_o_s_t_1_1_mesh_1_1_real_comparator.html#af394d903edeb659bd1a48a95b569996c" target="_top" xlink:title="INMOST::Mesh::RealComparator\l::operator()">
<polygon fill="none" stroke="black" points="145,-93.5 145,-123.5 304,-123.5 304,-93.5 145,-93.5"/>
<text text-anchor="start" x="153" y="-111.5" font-family="Helvetica,sans-Serif" font-size="10.00">INMOST::Mesh::RealComparator</text>
<text text-anchor="middle" x="224.5" y="-100.5" font-family="Helvetica,sans-Serif" font-size="10.00">::operator()</text>
</a>
</g>
</g>
<!-- Node1&#45;&gt;Node2 -->
<g id="edge1" class="edge"><title>Node1&#45;&gt;Node2</title>
<path fill="none" stroke="midnightblue" d="M119.22,-94.8443C127.64,-95.9469 136.349,-97.0874 144.981,-98.2177"/>
<polygon fill="midnightblue" stroke="midnightblue" points="119.488,-91.3496 109.118,-93.5214 118.579,-98.2903 119.488,-91.3496"/>
</g>
<!-- Node3 -->
<g id="node3" class="node"><title>Node3</title>
<g id="a_node3"><a xlink:href="class_i_n_m_o_s_t_1_1_storage.html#ac2b245b3c0e50e23a0eb0b2332ca4ae4" target="_top" xlink:title="INMOST::Storage::Real">
<polygon fill="none" stroke="black" points="165,-55 165,-74 284,-74 284,-55 165,-55"/>
<text text-anchor="middle" x="224.5" y="-62" font-family="Helvetica,sans-Serif" font-size="10.00">INMOST::Storage::Real</text>
</a>
</g>
</g>
<!-- Node1&#45;&gt;Node3 -->
<g id="edge2" class="edge"><title>Node1&#45;&gt;Node3</title>
<path fill="none" stroke="midnightblue" d="M119.307,-78.1443C134.27,-76.1849 150.142,-74.1064 164.866,-72.1782"/>
<polygon fill="midnightblue" stroke="midnightblue" points="118.579,-74.7097 109.118,-79.4786 119.488,-81.6504 118.579,-74.7097"/>
</g>
<!-- Node4 -->
<g id="node4" class="node"><title>Node4</title>
<g id="a_node4"><a xlink:href="class_i_n_m_o_s_t_1_1dynamic__variable.html#a443190921b29f4282bae8eec1164f8e1" target="_top" xlink:title="INMOST::dynamic_variable\l::Value">
<polygon fill="none" stroke="black" points="340,-98.5 340,-128.5 474,-128.5 474,-98.5 340,-98.5"/>
<text text-anchor="start" x="348" y="-116.5" font-family="Helvetica,sans-Serif" font-size="10.00">INMOST::dynamic_variable</text>
<text text-anchor="middle" x="407" y="-105.5" font-family="Helvetica,sans-Serif" font-size="10.00">::Value</text>
</a>
</g>
</g>
<!-- Node3&#45;&gt;Node4 -->
<g id="edge3" class="edge"><title>Node3&#45;&gt;Node4</title>
<path fill="none" stroke="midnightblue" d="M273.712,-76.5603C283.736,-79.1304 294.223,-81.8651 304,-84.5 320.354,-88.9072 338.127,-93.8921 354.187,-98.4703"/>
<polygon fill="midnightblue" stroke="midnightblue" points="274.44,-73.1341 263.885,-74.0549 272.711,-79.9171 274.44,-73.1341"/>
</g>
<!-- Node5 -->
<g id="node5" class="node"><title>Node5</title>
<g id="a_node5"><a xlink:href="class_i_n_m_o_s_t_1_1dynamic__variable.html#a432e3db3a15b60eebc084cfd8dcfb28e" target="_top" xlink:title="INMOST::dynamic_variable\l::Variable">
<polygon fill="none" stroke="black" points="340,-49.5 340,-79.5 474,-79.5 474,-49.5 340,-49.5"/>
<text text-anchor="start" x="348" y="-67.5" font-family="Helvetica,sans-Serif" font-size="10.00">INMOST::dynamic_variable</text>
<text text-anchor="middle" x="407" y="-56.5" font-family="Helvetica,sans-Serif" font-size="10.00">::Variable</text>
</a>
</g>
</g>
<!-- Node3&#45;&gt;Node5 -->
<g id="edge4" class="edge"><title>Node3&#45;&gt;Node5</title>
<path fill="none" stroke="midnightblue" d="M294.297,-64.5C309.246,-64.5 325.028,-64.5 339.87,-64.5"/>
<polygon fill="midnightblue" stroke="midnightblue" points="294.103,-61.0001 284.103,-64.5 294.103,-68.0001 294.103,-61.0001"/>
</g>
<!-- Node6 -->
<g id="node6" class="node"><title>Node6</title>
<g id="a_node6"><a xlink:href="class_i_n_m_o_s_t_1_1dynamic__variable.html#af98d84e841029239fe4b098025ef0801" target="_top" xlink:title="INMOST::dynamic_variable\l::operator[]">
<polygon fill="none" stroke="black" points="340,-0.5 340,-30.5 474,-30.5 474,-0.5 340,-0.5"/>
<text text-anchor="start" x="348" y="-18.5" font-family="Helvetica,sans-Serif" font-size="10.00">INMOST::dynamic_variable</text>
<text text-anchor="middle" x="407" y="-7.5" font-family="Helvetica,sans-Serif" font-size="10.00">::operator[]</text>
</a>
</g>
</g>
<!-- Node3&#45;&gt;Node6 -->
<g id="edge5" class="edge"><title>Node3&#45;&gt;Node6</title>
<path fill="none" stroke="midnightblue" d="M270.402,-52.3104C294.682,-45.7192 324.879,-37.5218 350.609,-30.537"/>
<polygon fill="midnightblue" stroke="midnightblue" points="269.464,-48.9383 260.731,-54.936 271.298,-55.6938 269.464,-48.9383"/>
</g>
</g>
</svg>
