<?xml version="1.0" encoding="UTF-8" standalone="no"?>
<!DOCTYPE svg PUBLIC "-//W3C//DTD SVG 1.1//EN"
 "http://www.w3.org/Graphics/SVG/1.1/DTD/svg11.dtd">
<!-- Generated by graphviz version 2.38.0 (20140413.2041)
 -->
<!-- Title: INMOST::Sparse::Row::Push Pages: 1 -->
<svg width="314pt" height="100pt"
 viewBox="0.00 0.00 314.00 99.50" xmlns="http://www.w3.org/2000/svg" xmlns:xlink="http://www.w3.org/1999/xlink">
<g id="graph0" class="graph" transform="scale(1 1) rotate(0) translate(4 95.5)">
<title>INMOST::Sparse::Row::Push</title>
<!-- Node1 -->
<g id="node1" class="node"><title>Node1</title>
<polygon fill="#bfbfbf" stroke="black" points="0,-33 0,-63 115,-63 115,-33 0,-33"/>
<text text-anchor="start" x="8" y="-51" font-family="Helvetica,sans-Serif" font-size="10.00">INMOST::Sparse::Row</text>
<text text-anchor="middle" x="57.5" y="-40" font-family="Helvetica,sans-Serif" font-size="10.00">::Push</text>
</g>
<!-- Node2 -->
<g id="node2" class="node"><title>Node2</title>
<g id="a_node2"><a xlink:href="class_i_n_m_o_s_t_1_1multivar__expression.html#a4cc78b01ea5377add0e8a1eeadbd9282" target="_top" xlink:title="INMOST::multivar_expression\l::multivar_expression">
<polygon fill="none" stroke="black" points="156,-61 156,-91 301,-91 301,-61 156,-61"/>
<text text-anchor="start" x="164" y="-79" font-family="Helvetica,sans-Serif" font-size="10.00">INMOST::multivar_expression</text>
<text text-anchor="middle" x="228.5" y="-68" font-family="Helvetica,sans-Serif" font-size="10.00">::multivar_expression</text>
</a>
</g>
</g>
<!-- Node1&#45;&gt;Node2 -->
<g id="edge1" class="edge"><title>Node1&#45;&gt;Node2</title>
<path fill="none" stroke="midnightblue" d="M125.189,-59.0491C135.274,-60.72 145.714,-62.4496 155.898,-64.1369"/>
<polygon fill="midnightblue" stroke="midnightblue" points="125.682,-55.5832 115.245,-57.4015 124.538,-62.489 125.682,-55.5832"/>
</g>
<!-- Node3 -->
<g id="node3" class="node"><title>Node3</title>
<g id="a_node3"><a xlink:href="class_i_n_m_o_s_t_1_1enhanced__multivar__expression.html#a8335b26ac9e1fdcb252f3626052c0025" target="_top" xlink:title="INMOST::enhanced_multivar\l_expression::enhanced_multivar\l_expression">
<polygon fill="none" stroke="black" points="151,-0.5 151,-41.5 306,-41.5 306,-0.5 151,-0.5"/>
<text text-anchor="start" x="159" y="-29.5" font-family="Helvetica,sans-Serif" font-size="10.00">INMOST::enhanced_multivar</text>
<text text-anchor="start" x="159" y="-18.5" font-family="Helvetica,sans-Serif" font-size="10.00">_expression::enhanced_multivar</text>
<text text-anchor="middle" x="228.5" y="-7.5" font-family="Helvetica,sans-Serif" font-size="10.00">_expression</text>
</a>
</g>
</g>
<!-- Node1&#45;&gt;Node3 -->
<g id="edge2" class="edge"><title>Node1&#45;&gt;Node3</title>
<path fill="none" stroke="midnightblue" d="M125.307,-37.3267C133.674,-35.9899 142.284,-34.6144 150.787,-33.2559"/>
<polygon fill="midnightblue" stroke="midnightblue" points="124.567,-33.9004 115.245,-38.9343 125.672,-40.8127 124.567,-33.9004"/>
</g>
</g>
</svg>
