<?xml version="1.0" encoding="UTF-8" standalone="no"?>
<!DOCTYPE svg PUBLIC "-//W3C//DTD SVG 1.1//EN"
 "http://www.w3.org/Graphics/SVG/1.1/DTD/svg11.dtd">
<!-- Generated by graphviz version 2.38.0 (20140413.2041)
 -->
<!-- Title: INMOST::Tag::isSparse Pages: 1 -->
<svg width="279pt" height="66pt"
 viewBox="0.00 0.00 279.00 66.00" xmlns="http://www.w3.org/2000/svg" xmlns:xlink="http://www.w3.org/1999/xlink">
<g id="graph0" class="graph" transform="scale(1 1) rotate(0) translate(4 62)">
<title>INMOST::Tag::isSparse</title>
<!-- Node1 -->
<g id="node1" class="node"><title>Node1</title>
<polygon fill="#bfbfbf" stroke="black" points="0,-19.5 0,-38.5 119,-38.5 119,-19.5 0,-19.5"/>
<text text-anchor="middle" x="59.5" y="-26.5" font-family="Helvetica,sans-Serif" font-size="10.00">INMOST::Tag::isSparse</text>
</g>
<!-- Node2 -->
<g id="node2" class="node"><title>Node2</title>
<g id="a_node2"><a xlink:href="namespace_i_n_m_o_s_t.html#a66b75096ead978424525d59fca979ce2" target="_top" xlink:title="INMOST::OneType">
<polygon fill="none" stroke="black" points="164,-38.5 164,-57.5 262,-57.5 262,-38.5 164,-38.5"/>
<text text-anchor="middle" x="213" y="-45.5" font-family="Helvetica,sans-Serif" font-size="10.00">INMOST::OneType</text>
</a>
</g>
</g>
<!-- Node1&#45;&gt;Node2 -->
<g id="edge1" class="edge"><title>Node1&#45;&gt;Node2</title>
<path fill="none" stroke="midnightblue" d="M119.074,-36.3459C130.421,-37.769 142.312,-39.2602 153.652,-40.6824"/>
<polygon fill="midnightblue" stroke="midnightblue" points="153.523,-44.1936 163.881,-41.9652 154.394,-37.248 153.523,-44.1936"/>
</g>
<!-- Node3 -->
<g id="node3" class="node"><title>Node3</title>
<g id="a_node3"><a xlink:href="namespace_i_n_m_o_s_t.html#abfa34d6393c75e4cb6bbfbc1ded4f99a" target="_top" xlink:title="INMOST::ElementNum">
<polygon fill="none" stroke="black" points="155,-0.5 155,-19.5 271,-19.5 271,-0.5 155,-0.5"/>
<text text-anchor="middle" x="213" y="-7.5" font-family="Helvetica,sans-Serif" font-size="10.00">INMOST::ElementNum</text>
</a>
</g>
</g>
<!-- Node1&#45;&gt;Node3 -->
<g id="edge2" class="edge"><title>Node1&#45;&gt;Node3</title>
<path fill="none" stroke="midnightblue" d="M119.074,-21.6541C127.361,-20.6147 135.938,-19.5391 144.379,-18.4805"/>
<polygon fill="midnightblue" stroke="midnightblue" points="145.093,-21.9185 154.579,-17.2013 144.221,-14.973 145.093,-21.9185"/>
</g>
</g>
</svg>
