<?xml version="1.0" encoding="UTF-8" standalone="no"?>
<!DOCTYPE svg PUBLIC "-//W3C//DTD SVG 1.1//EN"
 "http://www.w3.org/Graphics/SVG/1.1/DTD/svg11.dtd">
<!-- Generated by graphviz version 2.38.0 (20140413.2041)
 -->
<!-- Title: INMOST::Node::operator= Pages: 1 -->
<svg width="492pt" height="28pt"
 viewBox="0.00 0.00 492.00 28.00" xmlns="http://www.w3.org/2000/svg" xmlns:xlink="http://www.w3.org/1999/xlink">
<g id="graph0" class="graph" transform="scale(1 1) rotate(0) translate(4 24)">
<title>INMOST::Node::operator=</title>
<!-- Node1 -->
<g id="node1" class="node"><title>Node1</title>
<polygon fill="#bfbfbf" stroke="black" points="0,-0.5 0,-19.5 129,-19.5 129,-0.5 0,-0.5"/>
<text text-anchor="middle" x="64.5" y="-7.5" font-family="Helvetica,sans-Serif" font-size="10.00">INMOST::Node::operator=</text>
</g>
<!-- Node2 -->
<g id="node2" class="node"><title>Node2</title>
<g id="a_node2"><a xlink:href="class_i_n_m_o_s_t_1_1_element.html#a8761a37c3bc9f46ada8f09034e8fa3a7" target="_top" xlink:title="INMOST::Element::operator=">
<polygon fill="none" stroke="black" points="165,-0.5 165,-19.5 308,-19.5 308,-0.5 165,-0.5"/>
<text text-anchor="middle" x="236.5" y="-7.5" font-family="Helvetica,sans-Serif" font-size="10.00">INMOST::Element::operator=</text>
</a>
</g>
</g>
<!-- Node1&#45;&gt;Node2 -->
<g id="edge1" class="edge"><title>Node1&#45;&gt;Node2</title>
<path fill="none" stroke="midnightblue" d="M129.285,-10C137.615,-10 146.234,-10 154.795,-10"/>
<polygon fill="midnightblue" stroke="midnightblue" points="154.798,-13.5001 164.798,-10 154.798,-6.5001 154.798,-13.5001"/>
</g>
<!-- Node3 -->
<g id="node3" class="node"><title>Node3</title>
<g id="a_node3"><a xlink:href="class_i_n_m_o_s_t_1_1_storage.html#a156c939c83d6854e1efaa29c1c38dddb" target="_top" xlink:title="INMOST::Storage::operator=">
<polygon fill="none" stroke="black" points="344,-0.5 344,-19.5 484,-19.5 484,-0.5 344,-0.5"/>
<text text-anchor="middle" x="414" y="-7.5" font-family="Helvetica,sans-Serif" font-size="10.00">INMOST::Storage::operator=</text>
</a>
</g>
</g>
<!-- Node2&#45;&gt;Node3 -->
<g id="edge2" class="edge"><title>Node2&#45;&gt;Node3</title>
<path fill="none" stroke="midnightblue" d="M308.124,-10C316.613,-10 325.324,-10 333.924,-10"/>
<polygon fill="midnightblue" stroke="midnightblue" points="333.947,-13.5001 343.947,-10 333.947,-6.5001 333.947,-13.5001"/>
</g>
</g>
</svg>
