<?xml version="1.0" encoding="UTF-8" standalone="no"?>
<!DOCTYPE svg PUBLIC "-//W3C//DTD SVG 1.1//EN"
 "http://www.w3.org/Graphics/SVG/1.1/DTD/svg11.dtd">
<!-- Generated by graphviz version 2.38.0 (20140413.2041)
 -->
<!-- Title: INMOST::Storage::ClearMarkerSpace Pages: 1 -->
<svg width="353pt" height="116pt"
 viewBox="0.00 0.00 353.00 116.00" xmlns="http://www.w3.org/2000/svg" xmlns:xlink="http://www.w3.org/1999/xlink">
<g id="graph0" class="graph" transform="scale(1 1) rotate(0) translate(4 112)">
<title>INMOST::Storage::ClearMarkerSpace</title>
<!-- Node1 -->
<g id="node1" class="node"><title>Node1</title>
<polygon fill="#bfbfbf" stroke="black" points="0,-39 0,-69 152,-69 152,-39 0,-39"/>
<text text-anchor="start" x="8" y="-57" font-family="Helvetica,sans-Serif" font-size="10.00">INMOST::Storage::ClearMarker</text>
<text text-anchor="middle" x="76" y="-46" font-family="Helvetica,sans-Serif" font-size="10.00">Space</text>
</g>
<!-- Node2 -->
<g id="node2" class="node"><title>Node2</title>
<g id="a_node2"><a xlink:href="class_i_n_m_o_s_t_1_1_storage.html#a20d218fc89f75ca8534707b4f697173e" target="_top" xlink:title="INMOST::Storage::GetMeshLink">
<polygon fill="none" stroke="black" points="188,-88.5 188,-107.5 345,-107.5 345,-88.5 188,-88.5"/>
<text text-anchor="middle" x="266.5" y="-95.5" font-family="Helvetica,sans-Serif" font-size="10.00">INMOST::Storage::GetMeshLink</text>
</a>
</g>
</g>
<!-- Node1&#45;&gt;Node2 -->
<g id="edge1" class="edge"><title>Node1&#45;&gt;Node2</title>
<path fill="none" stroke="midnightblue" d="M141.344,-69.0192C165.406,-74.636 192.37,-80.93 215.006,-86.2137"/>
<polygon fill="midnightblue" stroke="midnightblue" points="214.214,-89.6228 224.748,-88.4876 215.805,-82.806 214.214,-89.6228"/>
</g>
<!-- Node3 -->
<g id="node3" class="node"><title>Node3</title>
<g id="a_node3"><a xlink:href="class_i_n_m_o_s_t_1_1_mesh.html#a4b688c3af40eeef80d7d365c56be193f" target="_top" xlink:title="Remove all the markers from the element. ">
<polygon fill="none" stroke="black" points="195.5,-39 195.5,-69 337.5,-69 337.5,-39 195.5,-39"/>
<text text-anchor="start" x="203.5" y="-57" font-family="Helvetica,sans-Serif" font-size="10.00">INMOST::Mesh::ClearMarker</text>
<text text-anchor="middle" x="266.5" y="-46" font-family="Helvetica,sans-Serif" font-size="10.00">Space</text>
</a>
</g>
</g>
<!-- Node1&#45;&gt;Node3 -->
<g id="edge2" class="edge"><title>Node1&#45;&gt;Node3</title>
<path fill="none" stroke="midnightblue" d="M152.042,-54C162.968,-54 174.254,-54 185.278,-54"/>
<polygon fill="midnightblue" stroke="midnightblue" points="185.311,-57.5001 195.311,-54 185.311,-50.5001 185.311,-57.5001"/>
</g>
<!-- Node4 -->
<g id="node4" class="node"><title>Node4</title>
<g id="a_node4"><a xlink:href="class_i_n_m_o_s_t_1_1_storage.html#ac79e3f3664b2ff21892f37bce0caa0e0" target="_top" xlink:title="INMOST::Storage::GetHandle">
<polygon fill="none" stroke="black" points="194,-0.5 194,-19.5 339,-19.5 339,-0.5 194,-0.5"/>
<text text-anchor="middle" x="266.5" y="-7.5" font-family="Helvetica,sans-Serif" font-size="10.00">INMOST::Storage::GetHandle</text>
</a>
</g>
</g>
<!-- Node1&#45;&gt;Node4 -->
<g id="edge3" class="edge"><title>Node1&#45;&gt;Node4</title>
<path fill="none" stroke="midnightblue" d="M141.344,-38.9808C165.406,-33.364 192.37,-27.07 215.006,-21.7863"/>
<polygon fill="midnightblue" stroke="midnightblue" points="215.805,-25.194 224.748,-19.5124 214.214,-18.3772 215.805,-25.194"/>
</g>
</g>
</svg>
