<?xml version="1.0" encoding="UTF-8" standalone="no"?>
<!DOCTYPE svg PUBLIC "-//W3C//DTD SVG 1.1//EN"
 "http://www.w3.org/Graphics/SVG/1.1/DTD/svg11.dtd">
<!-- Generated by graphviz version 2.38.0 (20140413.2041)
 -->
<!-- Title: INMOST::shell::_iterator::_iterator Pages: 1 -->
<svg width="286pt" height="186pt"
 viewBox="0.00 0.00 286.00 186.00" xmlns="http://www.w3.org/2000/svg" xmlns:xlink="http://www.w3.org/1999/xlink">
<g id="graph0" class="graph" transform="scale(1 1) rotate(0) translate(4 182)">
<title>INMOST::shell::_iterator::_iterator</title>
<!-- Node1 -->
<g id="node1" class="node"><title>Node1</title>
<polygon fill="#bfbfbf" stroke="black" points="0,-73.5 0,-103.5 121,-103.5 121,-73.5 0,-73.5"/>
<text text-anchor="start" x="8" y="-91.5" font-family="Helvetica,sans-Serif" font-size="10.00">INMOST::shell::_iterator</text>
<text text-anchor="middle" x="60.5" y="-80.5" font-family="Helvetica,sans-Serif" font-size="10.00">::_iterator</text>
</g>
<!-- Node2 -->
<g id="node2" class="node"><title>Node2</title>
<g id="a_node2"><a xlink:href="class_i_n_m_o_s_t_1_1shell_1_1__iterator.html#adef83883a9f7f0e19d877897d4a7b769" target="_top" xlink:title="INMOST::shell::_iterator\l::operator&#45;">
<polygon fill="none" stroke="black" points="157,-147.5 157,-177.5 278,-177.5 278,-147.5 157,-147.5"/>
<text text-anchor="start" x="165" y="-165.5" font-family="Helvetica,sans-Serif" font-size="10.00">INMOST::shell::_iterator</text>
<text text-anchor="middle" x="217.5" y="-154.5" font-family="Helvetica,sans-Serif" font-size="10.00">::operator&#45;</text>
</a>
</g>
</g>
<!-- Node1&#45;&gt;Node2 -->
<g id="edge1" class="edge"><title>Node1&#45;&gt;Node2</title>
<path fill="none" stroke="midnightblue" d="M97.5769,-108.466C115.276,-117.983 137.036,-129.275 157,-138.5 163.572,-141.537 170.643,-144.579 177.535,-147.428"/>
<polygon fill="midnightblue" stroke="midnightblue" points="99.1826,-105.355 88.7224,-103.671 95.8494,-111.511 99.1826,-105.355"/>
</g>
<!-- Node3 -->
<g id="node3" class="node"><title>Node3</title>
<g id="a_node3"><a xlink:href="class_i_n_m_o_s_t_1_1shell_1_1__iterator.html#a68c5a82df4e8c47757b58228a68ce5d3" target="_top" xlink:title="INMOST::shell::_iterator\l::operator+">
<polygon fill="none" stroke="black" points="157,-98.5 157,-128.5 278,-128.5 278,-98.5 157,-98.5"/>
<text text-anchor="start" x="165" y="-116.5" font-family="Helvetica,sans-Serif" font-size="10.00">INMOST::shell::_iterator</text>
<text text-anchor="middle" x="217.5" y="-105.5" font-family="Helvetica,sans-Serif" font-size="10.00">::operator+</text>
</a>
</g>
</g>
<!-- Node1&#45;&gt;Node3 -->
<g id="edge2" class="edge"><title>Node1&#45;&gt;Node3</title>
<path fill="none" stroke="midnightblue" d="M131.382,-99.7713C139.933,-101.151 148.609,-102.55 156.988,-103.901"/>
<polygon fill="midnightblue" stroke="midnightblue" points="131.857,-96.3027 121.427,-98.1657 130.742,-103.213 131.857,-96.3027"/>
</g>
<!-- Node4 -->
<g id="node4" class="node"><title>Node4</title>
<g id="a_node4"><a xlink:href="class_i_n_m_o_s_t_1_1shell_1_1__iterator.html#a3c5d7b235ebb7074c3deb4cc017639de" target="_top" xlink:title="INMOST::shell::_iterator\l::operator++">
<polygon fill="none" stroke="black" points="157,-49.5 157,-79.5 278,-79.5 278,-49.5 157,-49.5"/>
<text text-anchor="start" x="165" y="-67.5" font-family="Helvetica,sans-Serif" font-size="10.00">INMOST::shell::_iterator</text>
<text text-anchor="middle" x="217.5" y="-56.5" font-family="Helvetica,sans-Serif" font-size="10.00">::operator++</text>
</a>
</g>
</g>
<!-- Node1&#45;&gt;Node4 -->
<g id="edge3" class="edge"><title>Node1&#45;&gt;Node4</title>
<path fill="none" stroke="midnightblue" d="M131.382,-77.6795C139.933,-76.3555 148.609,-75.0122 156.988,-73.7148"/>
<polygon fill="midnightblue" stroke="midnightblue" points="130.774,-74.232 121.427,-79.221 131.845,-81.1495 130.774,-74.232"/>
</g>
<!-- Node5 -->
<g id="node5" class="node"><title>Node5</title>
<g id="a_node5"><a xlink:href="class_i_n_m_o_s_t_1_1shell_1_1__iterator.html#a36bb9c287148a551491acc04a73a891c" target="_top" xlink:title="INMOST::shell::_iterator\l::operator&#45;&#45;">
<polygon fill="none" stroke="black" points="157,-0.5 157,-30.5 278,-30.5 278,-0.5 157,-0.5"/>
<text text-anchor="start" x="165" y="-18.5" font-family="Helvetica,sans-Serif" font-size="10.00">INMOST::shell::_iterator</text>
<text text-anchor="middle" x="217.5" y="-7.5" font-family="Helvetica,sans-Serif" font-size="10.00">::operator&#45;&#45;</text>
</a>
</g>
</g>
<!-- Node1&#45;&gt;Node5 -->
<g id="edge4" class="edge"><title>Node1&#45;&gt;Node5</title>
<path fill="none" stroke="midnightblue" d="M99.3616,-68.7272C116.782,-59.8218 137.803,-49.345 157,-40.5 164.225,-37.171 172.019,-33.7655 179.511,-30.5821"/>
<polygon fill="midnightblue" stroke="midnightblue" points="97.3828,-65.8089 90.0882,-73.4926 100.582,-72.035 97.3828,-65.8089"/>
</g>
</g>
</svg>
