<?xml version="1.0" encoding="UTF-8" standalone="no"?>
<!DOCTYPE svg PUBLIC "-//W3C//DTD SVG 1.1//EN"
 "http://www.w3.org/Graphics/SVG/1.1/DTD/svg11.dtd">
<!-- Generated by graphviz version 2.38.0 (20140413.2041)
 -->
<!-- Title: INMOST::Matrix::Rows Pages: 1 -->
<svg width="294pt" height="142pt"
 viewBox="0.00 0.00 294.00 142.00" xmlns="http://www.w3.org/2000/svg" xmlns:xlink="http://www.w3.org/1999/xlink">
<g id="graph0" class="graph" transform="scale(1 1) rotate(0) translate(4 138)">
<title>INMOST::Matrix::Rows</title>
<!-- Node1 -->
<g id="node1" class="node"><title>Node1</title>
<polygon fill="#bfbfbf" stroke="black" points="0,-57.5 0,-76.5 116,-76.5 116,-57.5 0,-57.5"/>
<text text-anchor="middle" x="58" y="-64.5" font-family="Helvetica,sans-Serif" font-size="10.00">INMOST::Matrix::Rows</text>
</g>
<!-- Node2 -->
<g id="node2" class="node"><title>Node2</title>
<g id="a_node2"><a xlink:href="class_i_n_m_o_s_t_1_1_matrix.html#afc5db512cce96f97e13292e5f8c2aa2f" target="_top" xlink:title="INMOST::Matrix::operator&#45;">
<polygon fill="none" stroke="black" points="153.5,-114.5 153.5,-133.5 284.5,-133.5 284.5,-114.5 153.5,-114.5"/>
<text text-anchor="middle" x="219" y="-121.5" font-family="Helvetica,sans-Serif" font-size="10.00">INMOST::Matrix::operator&#45;</text>
</a>
</g>
</g>
<!-- Node1&#45;&gt;Node2 -->
<g id="edge1" class="edge"><title>Node1&#45;&gt;Node2</title>
<path fill="none" stroke="midnightblue" d="M89.9324,-80.6162C107.875,-88.2672 131.007,-97.7131 152,-105 161.687,-108.363 172.314,-111.61 182.156,-114.441"/>
<polygon fill="midnightblue" stroke="midnightblue" points="91.1139,-77.3143 80.5448,-76.5754 88.3462,-83.744 91.1139,-77.3143"/>
</g>
<!-- Node3 -->
<g id="node3" class="node"><title>Node3</title>
<g id="a_node3"><a xlink:href="class_i_n_m_o_s_t_1_1_matrix.html#a17fc4637fa9d4aacf70538209daf0b3f" target="_top" xlink:title="INMOST::Matrix::operator+">
<polygon fill="none" stroke="black" points="152,-76.5 152,-95.5 286,-95.5 286,-76.5 152,-76.5"/>
<text text-anchor="middle" x="219" y="-83.5" font-family="Helvetica,sans-Serif" font-size="10.00">INMOST::Matrix::operator+</text>
</a>
</g>
</g>
<!-- Node1&#45;&gt;Node3 -->
<g id="edge2" class="edge"><title>Node1&#45;&gt;Node3</title>
<path fill="none" stroke="midnightblue" d="M126.495,-75.0654C134.864,-76.0655 143.414,-77.0873 151.764,-78.085"/>
<polygon fill="midnightblue" stroke="midnightblue" points="126.747,-71.5708 116.403,-73.8594 125.917,-78.5213 126.747,-71.5708"/>
</g>
<!-- Node4 -->
<g id="node4" class="node"><title>Node4</title>
<g id="a_node4"><a xlink:href="class_i_n_m_o_s_t_1_1_matrix.html#aa7b0ad8b30a3dd848c7a75104fface8a" target="_top" xlink:title="INMOST::Matrix::operator*">
<polygon fill="none" stroke="black" points="153.5,-38.5 153.5,-57.5 284.5,-57.5 284.5,-38.5 153.5,-38.5"/>
<text text-anchor="middle" x="219" y="-45.5" font-family="Helvetica,sans-Serif" font-size="10.00">INMOST::Matrix::operator*</text>
</a>
</g>
</g>
<!-- Node1&#45;&gt;Node4 -->
<g id="edge3" class="edge"><title>Node1&#45;&gt;Node4</title>
<path fill="none" stroke="midnightblue" d="M126.392,-58.9468C135.341,-57.8774 144.5,-56.783 153.4,-55.7195"/>
<polygon fill="midnightblue" stroke="midnightblue" points="125.917,-55.4787 116.403,-60.1406 126.747,-62.4292 125.917,-55.4787"/>
</g>
<!-- Node5 -->
<g id="node5" class="node"><title>Node5</title>
<g id="a_node5"><a xlink:href="class_i_n_m_o_s_t_1_1_matrix.html#a308fc7a550c7de8c21b9ef17eecba603" target="_top" xlink:title="INMOST::Matrix::operator/">
<polygon fill="none" stroke="black" points="153.5,-0.5 153.5,-19.5 284.5,-19.5 284.5,-0.5 153.5,-0.5"/>
<text text-anchor="middle" x="219" y="-7.5" font-family="Helvetica,sans-Serif" font-size="10.00">INMOST::Matrix::operator/</text>
</a>
</g>
</g>
<!-- Node1&#45;&gt;Node5 -->
<g id="edge4" class="edge"><title>Node1&#45;&gt;Node5</title>
<path fill="none" stroke="midnightblue" d="M89.9324,-53.3838C107.875,-45.7328 131.007,-36.2869 152,-29 161.687,-25.6374 172.314,-22.3898 182.156,-19.5595"/>
<polygon fill="midnightblue" stroke="midnightblue" points="88.3462,-50.256 80.5448,-57.4246 91.1139,-56.6857 88.3462,-50.256"/>
</g>
</g>
</svg>
