<?xml version="1.0" encoding="UTF-8" standalone="no"?>
<!DOCTYPE svg PUBLIC "-//W3C//DTD SVG 1.1//EN"
 "http://www.w3.org/Graphics/SVG/1.1/DTD/svg11.dtd">
<!-- Generated by graphviz version 2.38.0 (20140413.2041)
 -->
<!-- Title: INMOST::Matrix::Print Pages: 1 -->
<svg width="382pt" height="72pt"
 viewBox="0.00 0.00 382.00 71.50" xmlns="http://www.w3.org/2000/svg" xmlns:xlink="http://www.w3.org/1999/xlink">
<g id="graph0" class="graph" transform="scale(1 1) rotate(0) translate(4 67.5)">
<title>INMOST::Matrix::Print</title>
<!-- Node1 -->
<g id="node1" class="node"><title>Node1</title>
<polygon fill="#bfbfbf" stroke="black" points="0,-25 0,-44 113,-44 113,-25 0,-25"/>
<text text-anchor="middle" x="56.5" y="-32" font-family="Helvetica,sans-Serif" font-size="10.00">INMOST::Matrix::Print</text>
</g>
<!-- Node2 -->
<g id="node2" class="node"><title>Node2</title>
<g id="a_node2"><a xlink:href="inmost__variable_8h.html#aaa87a9d57f31044c99fd1b9eb371356f" target="_top" xlink:title="fabs">
<polygon fill="none" stroke="black" points="160,-44 160,-63 195,-63 195,-44 160,-44"/>
<text text-anchor="middle" x="177.5" y="-51" font-family="Helvetica,sans-Serif" font-size="10.00">fabs</text>
</a>
</g>
</g>
<!-- Node1&#45;&gt;Node2 -->
<g id="edge1" class="edge"><title>Node1&#45;&gt;Node2</title>
<path fill="none" stroke="midnightblue" d="M113.167,-43.3881C125.961,-45.4308 138.992,-47.5113 149.881,-49.2499"/>
<polygon fill="midnightblue" stroke="midnightblue" points="149.541,-52.7399 159.968,-50.8605 150.645,-45.8275 149.541,-52.7399"/>
</g>
<!-- Node3 -->
<g id="node3" class="node"><title>Node3</title>
<g id="a_node3"><a xlink:href="inmost__expression_8h.html#a8d817263643d76be460d1bb5f1c64408" target="_top" xlink:title="get_value">
<polygon fill="none" stroke="black" points="149,-6 149,-25 206,-25 206,-6 149,-6"/>
<text text-anchor="middle" x="177.5" y="-13" font-family="Helvetica,sans-Serif" font-size="10.00">get_value</text>
</a>
</g>
</g>
<!-- Node1&#45;&gt;Node3 -->
<g id="edge2" class="edge"><title>Node1&#45;&gt;Node3</title>
<path fill="none" stroke="midnightblue" d="M113.167,-25.6119C121.844,-24.2266 130.63,-22.8238 138.782,-21.5221"/>
<polygon fill="midnightblue" stroke="midnightblue" points="139.392,-24.9693 148.715,-19.9363 138.288,-18.0568 139.392,-24.9693"/>
</g>
<!-- Node4 -->
<g id="node4" class="node"><title>Node4</title>
<g id="a_node4"><a xlink:href="class_i_n_m_o_s_t_1_1shell__expression.html#af9d7c61264aa4b66000a2a5373049667" target="_top" xlink:title="INMOST::shell_expression\l::GetValue">
<polygon fill="none" stroke="black" points="242,-0.5 242,-30.5 374,-30.5 374,-0.5 242,-0.5"/>
<text text-anchor="start" x="250" y="-18.5" font-family="Helvetica,sans-Serif" font-size="10.00">INMOST::shell_expression</text>
<text text-anchor="middle" x="308" y="-7.5" font-family="Helvetica,sans-Serif" font-size="10.00">::GetValue</text>
</a>
</g>
</g>
<!-- Node3&#45;&gt;Node4 -->
<g id="edge3" class="edge"><title>Node3&#45;&gt;Node4</title>
<path fill="none" stroke="midnightblue" d="M206.066,-15.5C213.865,-15.5 222.748,-15.5 231.935,-15.5"/>
<polygon fill="midnightblue" stroke="midnightblue" points="231.985,-19.0001 241.985,-15.5 231.985,-12.0001 231.985,-19.0001"/>
</g>
</g>
</svg>
