<?xml version="1.0" encoding="UTF-8" standalone="no"?>
<!DOCTYPE svg PUBLIC "-//W3C//DTD SVG 1.1//EN"
 "http://www.w3.org/Graphics/SVG/1.1/DTD/svg11.dtd">
<!-- Generated by graphviz version 2.38.0 (20140413.2041)
 -->
<!-- Title: INMOST::Mesh::GlobalIDTag Pages: 1 -->
<svg width="524pt" height="39pt"
 viewBox="0.00 0.00 524.00 39.00" xmlns="http://www.w3.org/2000/svg" xmlns:xlink="http://www.w3.org/1999/xlink">
<g id="graph0" class="graph" transform="scale(1 1) rotate(0) translate(4 35)">
<title>INMOST::Mesh::GlobalIDTag</title>
<!-- Node1 -->
<g id="node1" class="node"><title>Node1</title>
<polygon fill="#bfbfbf" stroke="black" points="0,-6 0,-25 142,-25 142,-6 0,-6"/>
<text text-anchor="middle" x="71" y="-13" font-family="Helvetica,sans-Serif" font-size="10.00">INMOST::Mesh::GlobalIDTag</text>
</g>
<!-- Node2 -->
<g id="node2" class="node"><title>Node2</title>
<g id="a_node2"><a xlink:href="class_i_n_m_o_s_t_1_1_mesh.html#ab9f84a185381a0096fc358e7e2ff5db7" target="_top" xlink:title="INMOST::Mesh::GlobalID">
<polygon fill="none" stroke="black" points="178,-6 178,-25 304,-25 304,-6 178,-6"/>
<text text-anchor="middle" x="241" y="-13" font-family="Helvetica,sans-Serif" font-size="10.00">INMOST::Mesh::GlobalID</text>
</a>
</g>
</g>
<!-- Node1&#45;&gt;Node2 -->
<g id="edge1" class="edge"><title>Node1&#45;&gt;Node2</title>
<path fill="none" stroke="midnightblue" d="M152.279,-15.5C160.84,-15.5 169.452,-15.5 177.76,-15.5"/>
<polygon fill="midnightblue" stroke="midnightblue" points="152.274,-12.0001 142.274,-15.5 152.274,-19.0001 152.274,-12.0001"/>
</g>
<!-- Node3 -->
<g id="node3" class="node"><title>Node3</title>
<g id="a_node3"><a xlink:href="class_i_n_m_o_s_t_1_1_mesh_1_1_global_i_d_comparator.html#ac382eb1939cb5099bafb7fca4b081e3c" target="_top" xlink:title="INMOST::Mesh::GlobalIDComparator\l::operator()">
<polygon fill="none" stroke="black" points="340,-0.5 340,-30.5 516,-30.5 516,-0.5 340,-0.5"/>
<text text-anchor="start" x="348" y="-18.5" font-family="Helvetica,sans-Serif" font-size="10.00">INMOST::Mesh::GlobalIDComparator</text>
<text text-anchor="middle" x="428" y="-7.5" font-family="Helvetica,sans-Serif" font-size="10.00">::operator()</text>
</a>
</g>
</g>
<!-- Node2&#45;&gt;Node3 -->
<g id="edge2" class="edge"><title>Node2&#45;&gt;Node3</title>
<path fill="none" stroke="midnightblue" d="M314.194,-15.5C322.567,-15.5 331.173,-15.5 339.72,-15.5"/>
<polygon fill="midnightblue" stroke="midnightblue" points="314.117,-12.0001 304.117,-15.5 314.117,-19.0001 314.117,-12.0001"/>
</g>
</g>
</svg>
