<?xml version="1.0" encoding="UTF-8" standalone="no"?>
<!DOCTYPE svg PUBLIC "-//W3C//DTD SVG 1.1//EN"
 "http://www.w3.org/Graphics/SVG/1.1/DTD/svg11.dtd">
<!-- Generated by graphviz version 2.38.0 (20140413.2041)
 -->
<!-- Title: INMOST::shell::_reverse_iterator::_reverse_iterator Pages: 1 -->
<svg width="295pt" height="186pt"
 viewBox="0.00 0.00 295.00 186.00" xmlns="http://www.w3.org/2000/svg" xmlns:xlink="http://www.w3.org/1999/xlink">
<g id="graph0" class="graph" transform="scale(1 1) rotate(0) translate(4 182)">
<title>INMOST::shell::_reverse_iterator::_reverse_iterator</title>
<!-- Node1 -->
<g id="node1" class="node"><title>Node1</title>
<polygon fill="#bfbfbf" stroke="black" points="0,-73.5 0,-103.5 129,-103.5 129,-73.5 0,-73.5"/>
<text text-anchor="start" x="8" y="-91.5" font-family="Helvetica,sans-Serif" font-size="10.00">INMOST::shell::_reverse</text>
<text text-anchor="middle" x="64.5" y="-80.5" font-family="Helvetica,sans-Serif" font-size="10.00">_iterator::_reverse_iterator</text>
</g>
<!-- Node2 -->
<g id="node2" class="node"><title>Node2</title>
<g id="a_node2"><a xlink:href="class_i_n_m_o_s_t_1_1shell_1_1__reverse__iterator.html#a13e1239123acf8984c072dce1b9ab84c" target="_top" xlink:title="INMOST::shell::_reverse\l_iterator::operator&#45;">
<polygon fill="none" stroke="black" points="165,-147.5 165,-177.5 287,-177.5 287,-147.5 165,-147.5"/>
<text text-anchor="start" x="173" y="-165.5" font-family="Helvetica,sans-Serif" font-size="10.00">INMOST::shell::_reverse</text>
<text text-anchor="middle" x="226" y="-154.5" font-family="Helvetica,sans-Serif" font-size="10.00">_iterator::operator&#45;</text>
</a>
</g>
</g>
<!-- Node1&#45;&gt;Node2 -->
<g id="edge1" class="edge"><title>Node1&#45;&gt;Node2</title>
<path fill="none" stroke="midnightblue" d="M102.909,-108.245C121.413,-117.768 144.189,-129.129 165,-138.5 171.752,-141.54 179.01,-144.608 186.065,-147.487"/>
<polygon fill="midnightblue" stroke="midnightblue" points="104.416,-105.084 93.9261,-103.594 101.197,-111.301 104.416,-105.084"/>
</g>
<!-- Node3 -->
<g id="node3" class="node"><title>Node3</title>
<g id="a_node3"><a xlink:href="class_i_n_m_o_s_t_1_1shell_1_1__reverse__iterator.html#a7d5b5cc3f652fe7201103502e199f8e8" target="_top" xlink:title="INMOST::shell::_reverse\l_iterator::operator+">
<polygon fill="none" stroke="black" points="165,-98.5 165,-128.5 287,-128.5 287,-98.5 165,-98.5"/>
<text text-anchor="start" x="173" y="-116.5" font-family="Helvetica,sans-Serif" font-size="10.00">INMOST::shell::_reverse</text>
<text text-anchor="middle" x="226" y="-105.5" font-family="Helvetica,sans-Serif" font-size="10.00">_iterator::operator+</text>
</a>
</g>
</g>
<!-- Node1&#45;&gt;Node3 -->
<g id="edge2" class="edge"><title>Node1&#45;&gt;Node3</title>
<path fill="none" stroke="midnightblue" d="M139.416,-100.086C147.956,-101.424 156.586,-102.777 164.911,-104.082"/>
<polygon fill="midnightblue" stroke="midnightblue" points="139.877,-96.6152 129.456,-98.5244 138.793,-103.531 139.877,-96.6152"/>
</g>
<!-- Node4 -->
<g id="node4" class="node"><title>Node4</title>
<g id="a_node4"><a xlink:href="class_i_n_m_o_s_t_1_1shell_1_1__reverse__iterator.html#aa88d507df6b8a736d732fee87e0d85ea" target="_top" xlink:title="INMOST::shell::_reverse\l_iterator::operator++">
<polygon fill="none" stroke="black" points="165,-49.5 165,-79.5 287,-79.5 287,-49.5 165,-49.5"/>
<text text-anchor="start" x="173" y="-67.5" font-family="Helvetica,sans-Serif" font-size="10.00">INMOST::shell::_reverse</text>
<text text-anchor="middle" x="226" y="-56.5" font-family="Helvetica,sans-Serif" font-size="10.00">_iterator::operator++</text>
</a>
</g>
</g>
<!-- Node1&#45;&gt;Node4 -->
<g id="edge3" class="edge"><title>Node1&#45;&gt;Node4</title>
<path fill="none" stroke="midnightblue" d="M139.416,-77.3778C147.956,-76.0928 156.586,-74.7942 164.911,-73.5416"/>
<polygon fill="midnightblue" stroke="midnightblue" points="138.824,-73.9275 129.456,-78.8766 139.865,-80.8496 138.824,-73.9275"/>
</g>
<!-- Node5 -->
<g id="node5" class="node"><title>Node5</title>
<g id="a_node5"><a xlink:href="class_i_n_m_o_s_t_1_1shell_1_1__reverse__iterator.html#a5725a5237f25ab0eae55437fcd732c9b" target="_top" xlink:title="INMOST::shell::_reverse\l_iterator::operator&#45;&#45;">
<polygon fill="none" stroke="black" points="165,-0.5 165,-30.5 287,-30.5 287,-0.5 165,-0.5"/>
<text text-anchor="start" x="173" y="-18.5" font-family="Helvetica,sans-Serif" font-size="10.00">INMOST::shell::_reverse</text>
<text text-anchor="middle" x="226" y="-7.5" font-family="Helvetica,sans-Serif" font-size="10.00">_iterator::operator&#45;&#45;</text>
</a>
</g>
</g>
<!-- Node1&#45;&gt;Node5 -->
<g id="edge4" class="edge"><title>Node1&#45;&gt;Node5</title>
<path fill="none" stroke="midnightblue" d="M104.917,-68.8724C123.1,-59.9765 145.036,-49.4666 165,-40.5 172.412,-37.1711 180.4,-33.7372 188.055,-30.5206"/>
<polygon fill="midnightblue" stroke="midnightblue" points="103.213,-65.8098 95.7811,-73.3605 106.3,-72.0927 103.213,-65.8098"/>
</g>
</g>
</svg>
