<?xml version="1.0" encoding="UTF-8" standalone="no"?>
<!DOCTYPE svg PUBLIC "-//W3C//DTD SVG 1.1//EN"
 "http://www.w3.org/Graphics/SVG/1.1/DTD/svg11.dtd">
<!-- Generated by graphviz version 2.38.0 (20140413.2041)
 -->
<!-- Title: INMOST::dynamic_variable::isUnknown Pages: 1 -->
<svg width="697pt" height="180pt"
 viewBox="0.00 0.00 697.00 180.00" xmlns="http://www.w3.org/2000/svg" xmlns:xlink="http://www.w3.org/1999/xlink">
<g id="graph0" class="graph" transform="scale(1 1) rotate(0) translate(4 176)">
<title>INMOST::dynamic_variable::isUnknown</title>
<!-- Node1 -->
<g id="node1" class="node"><title>Node1</title>
<polygon fill="#bfbfbf" stroke="black" points="0,-52 0,-82 134,-82 134,-52 0,-52"/>
<text text-anchor="start" x="8" y="-70" font-family="Helvetica,sans-Serif" font-size="10.00">INMOST::dynamic_variable</text>
<text text-anchor="middle" x="67" y="-59" font-family="Helvetica,sans-Serif" font-size="10.00">::isUnknown</text>
</g>
<!-- Node2 -->
<g id="node2" class="node"><title>Node2</title>
<g id="a_node2"><a xlink:href="class_i_n_m_o_s_t_1_1_storage.html#ad256a6f5101df9f507e359cdddef3a66" target="_top" xlink:title="INMOST::Storage::GetMarker">
<polygon fill="none" stroke="black" points="170,-57.5 170,-76.5 315,-76.5 315,-57.5 170,-57.5"/>
<text text-anchor="middle" x="242.5" y="-64.5" font-family="Helvetica,sans-Serif" font-size="10.00">INMOST::Storage::GetMarker</text>
</a>
</g>
</g>
<!-- Node1&#45;&gt;Node2 -->
<g id="edge1" class="edge"><title>Node1&#45;&gt;Node2</title>
<path fill="none" stroke="midnightblue" d="M134.088,-67C142.485,-67 151.157,-67 159.762,-67"/>
<polygon fill="midnightblue" stroke="midnightblue" points="159.814,-70.5001 169.814,-67 159.814,-63.5001 159.814,-70.5001"/>
</g>
<!-- Node3 -->
<g id="node3" class="node"><title>Node3</title>
<g id="a_node3"><a xlink:href="class_i_n_m_o_s_t_1_1_storage.html#a59da31b96c2b4e09e260f0deb4dae4d9" target="_top" xlink:title="INMOST::Storage::isValid">
<polygon fill="none" stroke="black" points="359.5,-114.5 359.5,-133.5 487.5,-133.5 487.5,-114.5 359.5,-114.5"/>
<text text-anchor="middle" x="423.5" y="-121.5" font-family="Helvetica,sans-Serif" font-size="10.00">INMOST::Storage::isValid</text>
</a>
</g>
</g>
<!-- Node2&#45;&gt;Node3 -->
<g id="edge2" class="edge"><title>Node2&#45;&gt;Node3</title>
<path fill="none" stroke="midnightblue" d="M273.461,-76.5405C303.405,-86.076 349.624,-100.794 382.649,-111.31"/>
<polygon fill="midnightblue" stroke="midnightblue" points="381.851,-114.729 392.442,-114.428 383.975,-108.059 381.851,-114.729"/>
</g>
<!-- Node5 -->
<g id="node5" class="node"><title>Node5</title>
<g id="a_node5"><a xlink:href="class_i_n_m_o_s_t_1_1_storage.html#a20d218fc89f75ca8534707b4f697173e" target="_top" xlink:title="INMOST::Storage::GetMeshLink">
<polygon fill="none" stroke="black" points="532,-76.5 532,-95.5 689,-95.5 689,-76.5 532,-76.5"/>
<text text-anchor="middle" x="610.5" y="-83.5" font-family="Helvetica,sans-Serif" font-size="10.00">INMOST::Storage::GetMeshLink</text>
</a>
</g>
</g>
<!-- Node2&#45;&gt;Node5 -->
<g id="edge6" class="edge"><title>Node2&#45;&gt;Node5</title>
<path fill="none" stroke="midnightblue" d="M315.373,-70.7311C374.435,-73.7972 458.353,-78.1535 521.445,-81.4288"/>
<polygon fill="midnightblue" stroke="midnightblue" points="521.613,-84.9422 531.781,-81.9654 521.976,-77.9516 521.613,-84.9422"/>
</g>
<!-- Node7 -->
<g id="node7" class="node"><title>Node7</title>
<g id="a_node7"><a xlink:href="class_i_n_m_o_s_t_1_1_mesh.html#a2c8a00522e2b06a0b59e25cae119a237" target="_top" xlink:title="INMOST::Mesh::GetMarker">
<polygon fill="none" stroke="black" points="356,-38.5 356,-57.5 491,-57.5 491,-38.5 356,-38.5"/>
<text text-anchor="middle" x="423.5" y="-45.5" font-family="Helvetica,sans-Serif" font-size="10.00">INMOST::Mesh::GetMarker</text>
</a>
</g>
</g>
<!-- Node2&#45;&gt;Node7 -->
<g id="edge7" class="edge"><title>Node2&#45;&gt;Node7</title>
<path fill="none" stroke="midnightblue" d="M315.017,-59.4088C325.096,-58.339 335.492,-57.2355 345.666,-56.1556"/>
<polygon fill="midnightblue" stroke="midnightblue" points="346.17,-59.6218 355.745,-55.0858 345.431,-52.6609 346.17,-59.6218"/>
</g>
<!-- Node9 -->
<g id="node9" class="node"><title>Node9</title>
<g id="a_node9"><a xlink:href="class_i_n_m_o_s_t_1_1_storage.html#ac79e3f3664b2ff21892f37bce0caa0e0" target="_top" xlink:title="INMOST::Storage::GetHandle">
<polygon fill="none" stroke="black" points="351,-0.5 351,-19.5 496,-19.5 496,-0.5 351,-0.5"/>
<text text-anchor="middle" x="423.5" y="-7.5" font-family="Helvetica,sans-Serif" font-size="10.00">INMOST::Storage::GetHandle</text>
</a>
</g>
</g>
<!-- Node2&#45;&gt;Node9 -->
<g id="edge9" class="edge"><title>Node2&#45;&gt;Node9</title>
<path fill="none" stroke="midnightblue" d="M268.938,-57.3598C290.6,-49.3071 322.632,-37.7678 351,-29 358.507,-26.68 366.508,-24.3838 374.34,-22.2326"/>
<polygon fill="midnightblue" stroke="midnightblue" points="375.376,-25.5784 384.119,-19.5944 373.552,-18.82 375.376,-25.5784"/>
</g>
<!-- Node4 -->
<g id="node4" class="node"><title>Node4</title>
<g id="a_node4"><a xlink:href="namespace_i_n_m_o_s_t.html#a115b3e54c3b7be04ffec9b69c058df18" target="_top" xlink:title="INMOST::InvalidHandle">
<polygon fill="none" stroke="black" points="552.5,-152.5 552.5,-171.5 668.5,-171.5 668.5,-152.5 552.5,-152.5"/>
<text text-anchor="middle" x="610.5" y="-159.5" font-family="Helvetica,sans-Serif" font-size="10.00">INMOST::InvalidHandle</text>
</a>
</g>
</g>
<!-- Node3&#45;&gt;Node4 -->
<g id="edge3" class="edge"><title>Node3&#45;&gt;Node4</title>
<path fill="none" stroke="midnightblue" d="M471.183,-133.589C496.146,-138.716 527.064,-145.067 553.334,-150.463"/>
<polygon fill="midnightblue" stroke="midnightblue" points="552.653,-153.896 563.152,-152.48 554.061,-147.039 552.653,-153.896"/>
</g>
<!-- Node3&#45;&gt;Node5 -->
<g id="edge4" class="edge"><title>Node3&#45;&gt;Node5</title>
<path fill="none" stroke="midnightblue" d="M471.183,-114.411C496.146,-109.284 527.064,-102.933 553.334,-97.5368"/>
<polygon fill="midnightblue" stroke="midnightblue" points="554.061,-100.961 563.152,-95.5201 552.653,-94.1038 554.061,-100.961"/>
</g>
<!-- Node6 -->
<g id="node6" class="node"><title>Node6</title>
<g id="a_node6"><a xlink:href="class_i_n_m_o_s_t_1_1_mesh.html#a05701da4bd3ed8ca69bbcca256c2b0e2" target="_top" xlink:title="INMOST::Mesh::isValidElement">
<polygon fill="none" stroke="black" points="533,-114.5 533,-133.5 688,-133.5 688,-114.5 533,-114.5"/>
<text text-anchor="middle" x="610.5" y="-121.5" font-family="Helvetica,sans-Serif" font-size="10.00">INMOST::Mesh::isValidElement</text>
</a>
</g>
</g>
<!-- Node3&#45;&gt;Node6 -->
<g id="edge5" class="edge"><title>Node3&#45;&gt;Node6</title>
<path fill="none" stroke="midnightblue" d="M487.649,-124C498.902,-124 510.802,-124 522.581,-124"/>
<polygon fill="midnightblue" stroke="midnightblue" points="522.881,-127.5 532.881,-124 522.881,-120.5 522.881,-127.5"/>
</g>
<!-- Node8 -->
<g id="node8" class="node"><title>Node8</title>
<g id="a_node8"><a xlink:href="class_i_n_m_o_s_t_1_1_mesh.html#ad7d9049c7e0f028e334d3fac70acdc6c" target="_top" xlink:title="INMOST::Mesh::MarkersTag">
<polygon fill="none" stroke="black" points="540.5,-38.5 540.5,-57.5 680.5,-57.5 680.5,-38.5 540.5,-38.5"/>
<text text-anchor="middle" x="610.5" y="-45.5" font-family="Helvetica,sans-Serif" font-size="10.00">INMOST::Mesh::MarkersTag</text>
</a>
</g>
</g>
<!-- Node7&#45;&gt;Node8 -->
<g id="edge8" class="edge"><title>Node7&#45;&gt;Node8</title>
<path fill="none" stroke="midnightblue" d="M491.028,-48C503.697,-48 517.074,-48 530.097,-48"/>
<polygon fill="midnightblue" stroke="midnightblue" points="530.446,-51.5001 540.446,-48 530.446,-44.5001 530.446,-51.5001"/>
</g>
</g>
</svg>
