<?xml version="1.0" encoding="UTF-8" standalone="no"?>
<!DOCTYPE svg PUBLIC "-//W3C//DTD SVG 1.1//EN"
 "http://www.w3.org/Graphics/SVG/1.1/DTD/svg11.dtd">
<!-- Generated by graphviz version 2.38.0 (20140413.2041)
 -->
<!-- Title: INMOST::Sparse::Row::make_entry Pages: 1 -->
<svg width="465pt" height="100pt"
 viewBox="0.00 0.00 465.00 99.50" xmlns="http://www.w3.org/2000/svg" xmlns:xlink="http://www.w3.org/1999/xlink">
<g id="graph0" class="graph" transform="scale(1 1) rotate(0) translate(4 95.5)">
<title>INMOST::Sparse::Row::make_entry</title>
<!-- Node1 -->
<g id="node1" class="node"><title>Node1</title>
<polygon fill="#bfbfbf" stroke="black" points="0,-33 0,-63 115,-63 115,-33 0,-33"/>
<text text-anchor="start" x="8" y="-51" font-family="Helvetica,sans-Serif" font-size="10.00">INMOST::Sparse::Row</text>
<text text-anchor="middle" x="57.5" y="-40" font-family="Helvetica,sans-Serif" font-size="10.00">::make_entry</text>
</g>
<!-- Node2 -->
<g id="node2" class="node"><title>Node2</title>
<g id="a_node2"><a xlink:href="class_i_n_m_o_s_t_1_1_sparse_1_1_row.html#aefe7d07de8417241a0e222313e9fa9e0" target="_top" xlink:title="INMOST::Sparse::Row\l::Push">
<polygon fill="none" stroke="black" points="151,-33 151,-63 266,-63 266,-33 151,-33"/>
<text text-anchor="start" x="159" y="-51" font-family="Helvetica,sans-Serif" font-size="10.00">INMOST::Sparse::Row</text>
<text text-anchor="middle" x="208.5" y="-40" font-family="Helvetica,sans-Serif" font-size="10.00">::Push</text>
</a>
</g>
</g>
<!-- Node1&#45;&gt;Node2 -->
<g id="edge1" class="edge"><title>Node1&#45;&gt;Node2</title>
<path fill="none" stroke="midnightblue" d="M125.508,-48C133.99,-48 142.604,-48 150.902,-48"/>
<polygon fill="midnightblue" stroke="midnightblue" points="125.256,-44.5001 115.256,-48 125.256,-51.5001 125.256,-44.5001"/>
</g>
<!-- Node3 -->
<g id="node3" class="node"><title>Node3</title>
<g id="a_node3"><a xlink:href="class_i_n_m_o_s_t_1_1multivar__expression.html#a4cc78b01ea5377add0e8a1eeadbd9282" target="_top" xlink:title="INMOST::multivar_expression\l::multivar_expression">
<polygon fill="none" stroke="black" points="307,-61 307,-91 452,-91 452,-61 307,-61"/>
<text text-anchor="start" x="315" y="-79" font-family="Helvetica,sans-Serif" font-size="10.00">INMOST::multivar_expression</text>
<text text-anchor="middle" x="379.5" y="-68" font-family="Helvetica,sans-Serif" font-size="10.00">::multivar_expression</text>
</a>
</g>
</g>
<!-- Node2&#45;&gt;Node3 -->
<g id="edge2" class="edge"><title>Node2&#45;&gt;Node3</title>
<path fill="none" stroke="midnightblue" d="M276.189,-59.0491C286.274,-60.72 296.714,-62.4496 306.898,-64.1369"/>
<polygon fill="midnightblue" stroke="midnightblue" points="276.682,-55.5832 266.245,-57.4015 275.538,-62.489 276.682,-55.5832"/>
</g>
<!-- Node4 -->
<g id="node4" class="node"><title>Node4</title>
<g id="a_node4"><a xlink:href="class_i_n_m_o_s_t_1_1enhanced__multivar__expression.html#a8335b26ac9e1fdcb252f3626052c0025" target="_top" xlink:title="INMOST::enhanced_multivar\l_expression::enhanced_multivar\l_expression">
<polygon fill="none" stroke="black" points="302,-0.5 302,-41.5 457,-41.5 457,-0.5 302,-0.5"/>
<text text-anchor="start" x="310" y="-29.5" font-family="Helvetica,sans-Serif" font-size="10.00">INMOST::enhanced_multivar</text>
<text text-anchor="start" x="310" y="-18.5" font-family="Helvetica,sans-Serif" font-size="10.00">_expression::enhanced_multivar</text>
<text text-anchor="middle" x="379.5" y="-7.5" font-family="Helvetica,sans-Serif" font-size="10.00">_expression</text>
</a>
</g>
</g>
<!-- Node2&#45;&gt;Node4 -->
<g id="edge3" class="edge"><title>Node2&#45;&gt;Node4</title>
<path fill="none" stroke="midnightblue" d="M276.307,-37.3267C284.674,-35.9899 293.284,-34.6144 301.787,-33.2559"/>
<polygon fill="midnightblue" stroke="midnightblue" points="275.567,-33.9004 266.245,-38.9343 276.672,-40.8127 275.567,-33.9004"/>
</g>
</g>
</svg>
