<?xml version="1.0" encoding="UTF-8" standalone="no"?>
<!DOCTYPE svg PUBLIC "-//W3C//DTD SVG 1.1//EN"
 "http://www.w3.org/Graphics/SVG/1.1/DTD/svg11.dtd">
<!-- Generated by graphviz version 2.38.0 (20140413.2041)
 -->
<!-- Title: INMOST::shell::size Pages: 1 -->
<svg width="276pt" height="88pt"
 viewBox="0.00 0.00 276.00 88.00" xmlns="http://www.w3.org/2000/svg" xmlns:xlink="http://www.w3.org/1999/xlink">
<g id="graph0" class="graph" transform="scale(1 1) rotate(0) translate(4 84)">
<title>INMOST::shell::size</title>
<!-- Node1 -->
<g id="node1" class="node"><title>Node1</title>
<polygon fill="#bfbfbf" stroke="black" points="0,-30 0,-49 104,-49 104,-30 0,-30"/>
<text text-anchor="middle" x="52" y="-37" font-family="Helvetica,sans-Serif" font-size="10.00">INMOST::shell::size</text>
</g>
<!-- Node2 -->
<g id="node2" class="node"><title>Node2</title>
<g id="a_node2"><a xlink:href="class_i_n_m_o_s_t_1_1shell.html#a4780a114cf049e0e606c97ee78297c19" target="_top" xlink:title="INMOST::shell\&lt; reference\l \&gt;::shell">
<polygon fill="none" stroke="black" points="140,-49.5 140,-79.5 268,-79.5 268,-49.5 140,-49.5"/>
<text text-anchor="start" x="148" y="-67.5" font-family="Helvetica,sans-Serif" font-size="10.00">INMOST::shell&lt; reference</text>
<text text-anchor="middle" x="204" y="-56.5" font-family="Helvetica,sans-Serif" font-size="10.00"> &gt;::shell</text>
</a>
</g>
</g>
<!-- Node1&#45;&gt;Node2 -->
<g id="edge1" class="edge"><title>Node1&#45;&gt;Node2</title>
<path fill="none" stroke="midnightblue" d="M114.315,-49.7192C122.727,-51.1212 131.377,-52.5629 139.822,-53.9703"/>
<polygon fill="midnightblue" stroke="midnightblue" points="114.641,-46.2254 104.202,-48.0337 113.49,-53.1301 114.641,-46.2254"/>
</g>
<!-- Node3 -->
<g id="node3" class="node"><title>Node3</title>
<g id="a_node3"><a xlink:href="class_i_n_m_o_s_t_1_1_automatizator.html#a571b357aebd31b957e1fdc328e270e58" target="_top" xlink:title="INMOST::Automatizator\l::GetComponents">
<polygon fill="none" stroke="black" points="144,-0.5 144,-30.5 264,-30.5 264,-0.5 144,-0.5"/>
<text text-anchor="start" x="152" y="-18.5" font-family="Helvetica,sans-Serif" font-size="10.00">INMOST::Automatizator</text>
<text text-anchor="middle" x="204" y="-7.5" font-family="Helvetica,sans-Serif" font-size="10.00">::GetComponents</text>
</a>
</g>
</g>
<!-- Node1&#45;&gt;Node3 -->
<g id="edge2" class="edge"><title>Node1&#45;&gt;Node3</title>
<path fill="none" stroke="midnightblue" d="M114.223,-29.7043C123.978,-28.1434 134.056,-26.531 143.765,-24.9776"/>
<polygon fill="midnightblue" stroke="midnightblue" points="113.523,-26.2717 104.202,-31.3077 114.629,-33.1837 113.523,-26.2717"/>
</g>
</g>
</svg>
