<?xml version="1.0" encoding="UTF-8" standalone="no"?>
<!DOCTYPE svg PUBLIC "-//W3C//DTD SVG 1.1//EN"
 "http://www.w3.org/Graphics/SVG/1.1/DTD/svg11.dtd">
<!-- Generated by graphviz version 2.38.0 (20140413.2041)
 -->
<!-- Title: INMOST::Mesh::Enumerate Pages: 1 -->
<svg width="458pt" height="88pt"
 viewBox="0.00 0.00 458.00 88.00" xmlns="http://www.w3.org/2000/svg" xmlns:xlink="http://www.w3.org/1999/xlink">
<g id="graph0" class="graph" transform="scale(1 1) rotate(0) translate(4 84)">
<title>INMOST::Mesh::Enumerate</title>
<!-- Node1 -->
<g id="node1" class="node"><title>Node1</title>
<polygon fill="#bfbfbf" stroke="black" points="0,-30 0,-49 137,-49 137,-30 0,-30"/>
<text text-anchor="middle" x="68.5" y="-37" font-family="Helvetica,sans-Serif" font-size="10.00">INMOST::Mesh::Enumerate</text>
</g>
<!-- Node1&#45;&gt;Node1 -->
<g id="edge1" class="edge"><title>Node1&#45;&gt;Node1</title>
<path fill="none" stroke="midnightblue" d="M43.2228,-49.2571C30.9258,-58.0653 39.3516,-67.5 68.5,-67.5 88.0841,-67.5 98.3136,-63.241 99.1886,-57.7746"/>
<polygon fill="midnightblue" stroke="midnightblue" points="102.094,-55.8207 93.7772,-49.2571 96.1856,-59.5745 102.094,-55.8207"/>
</g>
<!-- Node2 -->
<g id="node2" class="node"><title>Node2</title>
<g id="a_node2"><a xlink:href="class_i_n_m_o_s_t_1_1_element_array.html#afd94fb30e65569ec6ccce11b9c881c1e" target="_top" xlink:title="INMOST::ElementArray\l::data">
<polygon fill="none" stroke="black" points="173,-49.5 173,-79.5 292,-79.5 292,-49.5 173,-49.5"/>
<text text-anchor="start" x="181" y="-67.5" font-family="Helvetica,sans-Serif" font-size="10.00">INMOST::ElementArray</text>
<text text-anchor="middle" x="232.5" y="-56.5" font-family="Helvetica,sans-Serif" font-size="10.00">::data</text>
</a>
</g>
</g>
<!-- Node1&#45;&gt;Node2 -->
<g id="edge2" class="edge"><title>Node1&#45;&gt;Node2</title>
<path fill="none" stroke="midnightblue" d="M131.207,-49.0227C141.575,-50.6227 152.39,-52.2917 162.918,-53.9164"/>
<polygon fill="midnightblue" stroke="midnightblue" points="162.484,-57.3907 172.901,-55.4569 163.551,-50.4726 162.484,-57.3907"/>
</g>
<!-- Node4 -->
<g id="node4" class="node"><title>Node4</title>
<g id="a_node4"><a xlink:href="class_i_n_m_o_s_t_1_1_element_array.html#a6b8d74b3b5dcd00aedb27579d274e078" target="_top" xlink:title="INMOST::ElementArray\l::size">
<polygon fill="none" stroke="black" points="173,-0.5 173,-30.5 292,-30.5 292,-0.5 173,-0.5"/>
<text text-anchor="start" x="181" y="-18.5" font-family="Helvetica,sans-Serif" font-size="10.00">INMOST::ElementArray</text>
<text text-anchor="middle" x="232.5" y="-7.5" font-family="Helvetica,sans-Serif" font-size="10.00">::size</text>
</a>
</g>
</g>
<!-- Node1&#45;&gt;Node4 -->
<g id="edge4" class="edge"><title>Node1&#45;&gt;Node4</title>
<path fill="none" stroke="midnightblue" d="M133.992,-29.9456C143.388,-28.5536 153.093,-27.1158 162.573,-25.7115"/>
<polygon fill="midnightblue" stroke="midnightblue" points="163.366,-29.1322 172.745,-24.2045 162.34,-22.2078 163.366,-29.1322"/>
</g>
<!-- Node3 -->
<g id="node3" class="node"><title>Node3</title>
<g id="a_node3"><a xlink:href="class_i_n_m_o_s_t_1_1dynarray.html#a161fcf0715c0f07ea1d4a1cb2e2ca74d" target="_top" xlink:title="INMOST::dynarray::data">
<polygon fill="none" stroke="black" points="328,-55 328,-74 450,-74 450,-55 328,-55"/>
<text text-anchor="middle" x="389" y="-62" font-family="Helvetica,sans-Serif" font-size="10.00">INMOST::dynarray::data</text>
</a>
</g>
</g>
<!-- Node2&#45;&gt;Node3 -->
<g id="edge3" class="edge"><title>Node2&#45;&gt;Node3</title>
<path fill="none" stroke="midnightblue" d="M292.351,-64.5C300.596,-64.5 309.138,-64.5 317.571,-64.5"/>
<polygon fill="midnightblue" stroke="midnightblue" points="317.775,-68.0001 327.775,-64.5 317.775,-61.0001 317.775,-68.0001"/>
</g>
<!-- Node5 -->
<g id="node5" class="node"><title>Node5</title>
<g id="a_node5"><a xlink:href="class_i_n_m_o_s_t_1_1dynarray.html#aeddec63b957a8a61e89f14d28fa1a2eb" target="_top" xlink:title="INMOST::dynarray::size">
<polygon fill="none" stroke="black" points="328.5,-6 328.5,-25 449.5,-25 449.5,-6 328.5,-6"/>
<text text-anchor="middle" x="389" y="-13" font-family="Helvetica,sans-Serif" font-size="10.00">INMOST::dynarray::size</text>
</a>
</g>
</g>
<!-- Node4&#45;&gt;Node5 -->
<g id="edge5" class="edge"><title>Node4&#45;&gt;Node5</title>
<path fill="none" stroke="midnightblue" d="M292.351,-15.5C300.809,-15.5 309.58,-15.5 318.225,-15.5"/>
<polygon fill="midnightblue" stroke="midnightblue" points="318.289,-19.0001 328.289,-15.5 318.289,-12.0001 318.289,-19.0001"/>
</g>
</g>
</svg>
