<?xml version="1.0" encoding="UTF-8" standalone="no"?>
<!DOCTYPE svg PUBLIC "-//W3C//DTD SVG 1.1//EN"
 "http://www.w3.org/Graphics/SVG/1.1/DTD/svg11.dtd">
<!-- Generated by graphviz version 2.38.0 (20140413.2041)
 -->
<!-- Title: INMOST::dynarray::resize Pages: 1 -->
<svg width="298pt" height="137pt"
 viewBox="0.00 0.00 298.00 137.00" xmlns="http://www.w3.org/2000/svg" xmlns:xlink="http://www.w3.org/1999/xlink">
<g id="graph0" class="graph" transform="scale(1 1) rotate(0) translate(4 133)">
<title>INMOST::dynarray::resize</title>
<!-- Node1 -->
<g id="node1" class="node"><title>Node1</title>
<polygon fill="#bfbfbf" stroke="black" points="0,-55 0,-74 129,-74 129,-55 0,-55"/>
<text text-anchor="middle" x="64.5" y="-62" font-family="Helvetica,sans-Serif" font-size="10.00">INMOST::dynarray::resize</text>
</g>
<!-- Node2 -->
<g id="node2" class="node"><title>Node2</title>
<g id="a_node2"><a xlink:href="class_i_n_m_o_s_t_1_1_element_array.html#add733394f2963753f85302886e2e65de" target="_top" xlink:title="INMOST::ElementArray\l::resize">
<polygon fill="none" stroke="black" points="168,-98.5 168,-128.5 287,-128.5 287,-98.5 168,-98.5"/>
<text text-anchor="start" x="176" y="-116.5" font-family="Helvetica,sans-Serif" font-size="10.00">INMOST::ElementArray</text>
<text text-anchor="middle" x="227.5" y="-105.5" font-family="Helvetica,sans-Serif" font-size="10.00">::resize</text>
</a>
</g>
</g>
<!-- Node1&#45;&gt;Node2 -->
<g id="edge1" class="edge"><title>Node1&#45;&gt;Node2</title>
<path fill="none" stroke="midnightblue" d="M106.711,-77.0426C128.165,-83.5719 154.551,-91.6024 177.093,-98.463"/>
<polygon fill="midnightblue" stroke="midnightblue" points="107.51,-73.6273 96.9246,-74.064 105.472,-80.3241 107.51,-73.6273"/>
</g>
<!-- Node3 -->
<g id="node3" class="node"><title>Node3</title>
<g id="a_node3"><a xlink:href="class_i_n_m_o_s_t_1_1_sparse_1_1_row.html#a877facd0755e9f5838c589c6bdebe5b5" target="_top" xlink:title="INMOST::Sparse::Row\l::Resize">
<polygon fill="none" stroke="black" points="170,-49.5 170,-79.5 285,-79.5 285,-49.5 170,-49.5"/>
<text text-anchor="start" x="178" y="-67.5" font-family="Helvetica,sans-Serif" font-size="10.00">INMOST::Sparse::Row</text>
<text text-anchor="middle" x="227.5" y="-56.5" font-family="Helvetica,sans-Serif" font-size="10.00">::Resize</text>
</a>
</g>
</g>
<!-- Node1&#45;&gt;Node3 -->
<g id="edge2" class="edge"><title>Node1&#45;&gt;Node3</title>
<path fill="none" stroke="midnightblue" d="M139.316,-64.5C149.574,-64.5 159.977,-64.5 169.854,-64.5"/>
<polygon fill="midnightblue" stroke="midnightblue" points="139.131,-61.0001 129.131,-64.5 139.131,-68.0001 139.131,-61.0001"/>
</g>
<!-- Node4 -->
<g id="node4" class="node"><title>Node4</title>
<g id="a_node4"><a xlink:href="class_i_n_m_o_s_t_1_1stencil__variable.html#ad96bb49e7c2f1fc00cd02947490beae4" target="_top" xlink:title="INMOST::stencil_variable\l::operator[]">
<polygon fill="none" stroke="black" points="165,-0.5 165,-30.5 290,-30.5 290,-0.5 165,-0.5"/>
<text text-anchor="start" x="173" y="-18.5" font-family="Helvetica,sans-Serif" font-size="10.00">INMOST::stencil_variable</text>
<text text-anchor="middle" x="227.5" y="-7.5" font-family="Helvetica,sans-Serif" font-size="10.00">::operator[]</text>
</a>
</g>
</g>
<!-- Node1&#45;&gt;Node4 -->
<g id="edge3" class="edge"><title>Node1&#45;&gt;Node4</title>
<path fill="none" stroke="midnightblue" d="M106.711,-51.9574C128.165,-45.4281 154.551,-37.3976 177.093,-30.537"/>
<polygon fill="midnightblue" stroke="midnightblue" points="105.472,-48.6759 96.9246,-54.936 107.51,-55.3727 105.472,-48.6759"/>
</g>
</g>
</svg>
