<?xml version="1.0" encoding="UTF-8" standalone="no"?>
<!DOCTYPE svg PUBLIC "-//W3C//DTD SVG 1.1//EN"
 "http://www.w3.org/Graphics/SVG/1.1/DTD/svg11.dtd">
<!-- Generated by graphviz version 2.38.0 (20140413.2041)
 -->
<!-- Title: INMOST::Mesh::EdgeByLocalID Pages: 1 -->
<svg width="503pt" height="28pt"
 viewBox="0.00 0.00 503.00 28.00" xmlns="http://www.w3.org/2000/svg" xmlns:xlink="http://www.w3.org/1999/xlink">
<g id="graph0" class="graph" transform="scale(1 1) rotate(0) translate(4 24)">
<title>INMOST::Mesh::EdgeByLocalID</title>
<!-- Node1 -->
<g id="node1" class="node"><title>Node1</title>
<polygon fill="#bfbfbf" stroke="black" points="0,-0.5 0,-19.5 156,-19.5 156,-0.5 0,-0.5"/>
<text text-anchor="middle" x="78" y="-7.5" font-family="Helvetica,sans-Serif" font-size="10.00">INMOST::Mesh::EdgeByLocalID</text>
</g>
<!-- Node2 -->
<g id="node2" class="node"><title>Node2</title>
<g id="a_node2"><a xlink:href="namespace_i_n_m_o_s_t.html#adfd1fb8f456156532c262eac5e045aa3" target="_top" xlink:title="INMOST::ComposeHandleNum">
<polygon fill="none" stroke="black" points="192,-0.5 192,-19.5 343,-19.5 343,-0.5 192,-0.5"/>
<text text-anchor="middle" x="267.5" y="-7.5" font-family="Helvetica,sans-Serif" font-size="10.00">INMOST::ComposeHandleNum</text>
</a>
</g>
</g>
<!-- Node1&#45;&gt;Node2 -->
<g id="edge1" class="edge"><title>Node1&#45;&gt;Node2</title>
<path fill="none" stroke="midnightblue" d="M156.075,-10C164.569,-10 173.252,-10 181.832,-10"/>
<polygon fill="midnightblue" stroke="midnightblue" points="181.84,-13.5001 191.84,-10 181.84,-6.5001 181.84,-13.5001"/>
</g>
<!-- Node3 -->
<g id="node3" class="node"><title>Node3</title>
<g id="a_node3"><a xlink:href="namespace_i_n_m_o_s_t.html#a115b3e54c3b7be04ffec9b69c058df18" target="_top" xlink:title="INMOST::InvalidHandle">
<polygon fill="none" stroke="black" points="379,-0.5 379,-19.5 495,-19.5 495,-0.5 379,-0.5"/>
<text text-anchor="middle" x="437" y="-7.5" font-family="Helvetica,sans-Serif" font-size="10.00">INMOST::InvalidHandle</text>
</a>
</g>
</g>
<!-- Node2&#45;&gt;Node3 -->
<g id="edge2" class="edge"><title>Node2&#45;&gt;Node3</title>
<path fill="none" stroke="midnightblue" d="M343.432,-10C351.854,-10 360.396,-10 368.713,-10"/>
<polygon fill="midnightblue" stroke="midnightblue" points="368.722,-13.5001 378.722,-10 368.722,-6.5001 368.722,-13.5001"/>
</g>
</g>
</svg>
