<?xml version="1.0" encoding="UTF-8" standalone="no"?>
<!DOCTYPE svg PUBLIC "-//W3C//DTD SVG 1.1//EN"
 "http://www.w3.org/Graphics/SVG/1.1/DTD/svg11.dtd">
<!-- Generated by graphviz version 2.38.0 (20140413.2041)
 -->
<!-- Title: INMOST::Storage::ReferenceArrayDF Pages: 1 -->
<svg width="508pt" height="104pt"
 viewBox="0.00 0.00 508.00 104.00" xmlns="http://www.w3.org/2000/svg" xmlns:xlink="http://www.w3.org/1999/xlink">
<g id="graph0" class="graph" transform="scale(1 1) rotate(0) translate(4 100)">
<title>INMOST::Storage::ReferenceArrayDF</title>
<!-- Node1 -->
<g id="node1" class="node"><title>Node1</title>
<polygon fill="#bfbfbf" stroke="black" points="0,-33 0,-63 143,-63 143,-33 0,-33"/>
<text text-anchor="start" x="8" y="-51" font-family="Helvetica,sans-Serif" font-size="10.00">INMOST::Storage::Reference</text>
<text text-anchor="middle" x="71.5" y="-40" font-family="Helvetica,sans-Serif" font-size="10.00">ArrayDF</text>
</g>
<!-- Node2 -->
<g id="node2" class="node"><title>Node2</title>
<g id="a_node2"><a xlink:href="class_i_n_m_o_s_t_1_1_storage.html#a20d218fc89f75ca8534707b4f697173e" target="_top" xlink:title="INMOST::Storage::GetMeshLink">
<polygon fill="none" stroke="black" points="185,-76.5 185,-95.5 342,-95.5 342,-76.5 185,-76.5"/>
<text text-anchor="middle" x="263.5" y="-83.5" font-family="Helvetica,sans-Serif" font-size="10.00">INMOST::Storage::GetMeshLink</text>
</a>
</g>
</g>
<!-- Node1&#45;&gt;Node2 -->
<g id="edge1" class="edge"><title>Node1&#45;&gt;Node2</title>
<path fill="none" stroke="midnightblue" d="M143.249,-62.1498C163.554,-66.2108 185.443,-70.5887 204.857,-74.4714"/>
<polygon fill="midnightblue" stroke="midnightblue" points="204.27,-77.9232 214.762,-76.4524 205.643,-71.0591 204.27,-77.9232"/>
</g>
<!-- Node3 -->
<g id="node3" class="node"><title>Node3</title>
<g id="a_node3"><a xlink:href="class_i_n_m_o_s_t_1_1_mesh.html#a92ba4c935940111e2c9584a9cc96fe6f" target="_top" xlink:title="INMOST::Mesh::ReferenceArrayDF">
<polygon fill="none" stroke="black" points="179,-38.5 179,-57.5 348,-57.5 348,-38.5 179,-38.5"/>
<text text-anchor="middle" x="263.5" y="-45.5" font-family="Helvetica,sans-Serif" font-size="10.00">INMOST::Mesh::ReferenceArrayDF</text>
</a>
</g>
</g>
<!-- Node1&#45;&gt;Node3 -->
<g id="edge2" class="edge"><title>Node1&#45;&gt;Node3</title>
<path fill="none" stroke="midnightblue" d="M143.249,-48C151.591,-48 160.2,-48 168.795,-48"/>
<polygon fill="midnightblue" stroke="midnightblue" points="168.861,-51.5001 178.861,-48 168.861,-44.5001 168.861,-51.5001"/>
</g>
<!-- Node5 -->
<g id="node5" class="node"><title>Node5</title>
<g id="a_node5"><a xlink:href="class_i_n_m_o_s_t_1_1_storage.html#ac79e3f3664b2ff21892f37bce0caa0e0" target="_top" xlink:title="INMOST::Storage::GetHandle">
<polygon fill="none" stroke="black" points="191,-0.5 191,-19.5 336,-19.5 336,-0.5 191,-0.5"/>
<text text-anchor="middle" x="263.5" y="-7.5" font-family="Helvetica,sans-Serif" font-size="10.00">INMOST::Storage::GetHandle</text>
</a>
</g>
</g>
<!-- Node1&#45;&gt;Node5 -->
<g id="edge4" class="edge"><title>Node1&#45;&gt;Node5</title>
<path fill="none" stroke="midnightblue" d="M143.249,-33.8502C163.554,-29.7892 185.443,-25.4113 204.857,-21.5286"/>
<polygon fill="midnightblue" stroke="midnightblue" points="205.643,-24.9409 214.762,-19.5476 204.27,-18.0768 205.643,-24.9409"/>
</g>
<!-- Node4 -->
<g id="node4" class="node"><title>Node4</title>
<g id="a_node4"><a xlink:href="class_i_n_m_o_s_t_1_1_tag.html#ae74774d21aaf2dd820d2a5ea1bb43f9d" target="_top" xlink:title="INMOST::Tag::GetSize">
<polygon fill="none" stroke="black" points="384,-38.5 384,-57.5 500,-57.5 500,-38.5 384,-38.5"/>
<text text-anchor="middle" x="442" y="-45.5" font-family="Helvetica,sans-Serif" font-size="10.00">INMOST::Tag::GetSize</text>
</a>
</g>
</g>
<!-- Node3&#45;&gt;Node4 -->
<g id="edge3" class="edge"><title>Node3&#45;&gt;Node4</title>
<path fill="none" stroke="midnightblue" d="M348.098,-48C356.713,-48 365.387,-48 373.791,-48"/>
<polygon fill="midnightblue" stroke="midnightblue" points="373.886,-51.5001 383.886,-48 373.886,-44.5001 373.886,-51.5001"/>
</g>
</g>
</svg>
