<?xml version="1.0" encoding="UTF-8" standalone="no"?>
<!DOCTYPE svg PUBLIC "-//W3C//DTD SVG 1.1//EN"
 "http://www.w3.org/Graphics/SVG/1.1/DTD/svg11.dtd">
<!-- Generated by graphviz version 2.38.0 (20140413.2041)
 -->
<!-- Title: INMOST::array::at Pages: 1 -->
<svg width="249pt" height="88pt"
 viewBox="0.00 0.00 249.00 88.00" xmlns="http://www.w3.org/2000/svg" xmlns:xlink="http://www.w3.org/1999/xlink">
<g id="graph0" class="graph" transform="scale(1 1) rotate(0) translate(4 84)">
<title>INMOST::array::at</title>
<!-- Node1 -->
<g id="node1" class="node"><title>Node1</title>
<polygon fill="#bfbfbf" stroke="black" points="0,-30 0,-49 95,-49 95,-30 0,-30"/>
<text text-anchor="middle" x="47.5" y="-37" font-family="Helvetica,sans-Serif" font-size="10.00">INMOST::array::at</text>
</g>
<!-- Node2 -->
<g id="node2" class="node"><title>Node2</title>
<g id="a_node2"><a xlink:href="class_i_n_m_o_s_t_1_1_element_set_1_1iterator.html#abf18785498ca81cea90c811afb7c2899" target="_top" xlink:title="INMOST::ElementSet\l::iterator::operator*">
<polygon fill="none" stroke="black" points="131,-49.5 131,-79.5 241,-79.5 241,-49.5 131,-49.5"/>
<text text-anchor="start" x="139" y="-67.5" font-family="Helvetica,sans-Serif" font-size="10.00">INMOST::ElementSet</text>
<text text-anchor="middle" x="186" y="-56.5" font-family="Helvetica,sans-Serif" font-size="10.00">::iterator::operator*</text>
</a>
</g>
</g>
<!-- Node1&#45;&gt;Node2 -->
<g id="edge1" class="edge"><title>Node1&#45;&gt;Node2</title>
<path fill="none" stroke="midnightblue" d="M105.197,-49.8841C113.607,-51.4244 122.258,-53.0088 130.62,-54.5402"/>
<polygon fill="midnightblue" stroke="midnightblue" points="105.561,-46.3925 95.0938,-48.0337 104.3,-53.278 105.561,-46.3925"/>
</g>
<!-- Node3 -->
<g id="node3" class="node"><title>Node3</title>
<g id="a_node3"><a xlink:href="class_i_n_m_o_s_t_1_1_element_set_1_1iterator.html#aaa9ccdabd1b9d4aaf2d7c779a953e972" target="_top" xlink:title="INMOST::ElementSet\l::iterator::operator&#45;\&gt;">
<polygon fill="none" stroke="black" points="131,-0.5 131,-30.5 241,-30.5 241,-0.5 131,-0.5"/>
<text text-anchor="start" x="139" y="-18.5" font-family="Helvetica,sans-Serif" font-size="10.00">INMOST::ElementSet</text>
<text text-anchor="middle" x="186" y="-7.5" font-family="Helvetica,sans-Serif" font-size="10.00">::iterator::operator&#45;&gt;</text>
</a>
</g>
</g>
<!-- Node1&#45;&gt;Node3 -->
<g id="edge2" class="edge"><title>Node1&#45;&gt;Node3</title>
<path fill="none" stroke="midnightblue" d="M105.197,-29.5313C113.607,-28.0526 122.258,-26.5315 130.62,-25.0614"/>
<polygon fill="midnightblue" stroke="midnightblue" points="104.337,-26.1288 95.0938,-31.3077 105.549,-33.0231 104.337,-26.1288"/>
</g>
</g>
</svg>
