<?xml version="1.0" encoding="UTF-8" standalone="no"?>
<!DOCTYPE svg PUBLIC "-//W3C//DTD SVG 1.1//EN"
 "http://www.w3.org/Graphics/SVG/1.1/DTD/svg11.dtd">
<!-- Generated by graphviz version 2.38.0 (20140413.2041)
 -->
<!-- Title: INMOST::ternary_pool::get_op Pages: 1 -->
<svg width="288pt" height="88pt"
 viewBox="0.00 0.00 288.00 88.00" xmlns="http://www.w3.org/2000/svg" xmlns:xlink="http://www.w3.org/1999/xlink">
<g id="graph0" class="graph" transform="scale(1 1) rotate(0) translate(4 84)">
<title>INMOST::ternary_pool::get_op</title>
<!-- Node1 -->
<g id="node1" class="node"><title>Node1</title>
<polygon fill="#bfbfbf" stroke="black" points="0,-24.5 0,-54.5 113,-54.5 113,-24.5 0,-24.5"/>
<text text-anchor="start" x="8" y="-42.5" font-family="Helvetica,sans-Serif" font-size="10.00">INMOST::ternary_pool</text>
<text text-anchor="middle" x="56.5" y="-31.5" font-family="Helvetica,sans-Serif" font-size="10.00">::get_op</text>
</g>
<!-- Node2 -->
<g id="node2" class="node"><title>Node2</title>
<g id="a_node2"><a xlink:href="class_i_n_m_o_s_t_1_1ternary__pool__expression.html#a4109a84405cfbe1fa138c90b5a5de325" target="_top" xlink:title="INMOST::ternary_pool\l_expression::GetValue">
<polygon fill="none" stroke="black" points="156.5,-49.5 156.5,-79.5 272.5,-79.5 272.5,-49.5 156.5,-49.5"/>
<text text-anchor="start" x="164.5" y="-67.5" font-family="Helvetica,sans-Serif" font-size="10.00">INMOST::ternary_pool</text>
<text text-anchor="middle" x="214.5" y="-56.5" font-family="Helvetica,sans-Serif" font-size="10.00">_expression::GetValue</text>
</a>
</g>
</g>
<!-- Node1&#45;&gt;Node2 -->
<g id="edge1" class="edge"><title>Node1&#45;&gt;Node2</title>
<path fill="none" stroke="midnightblue" d="M123.359,-50.0543C134.356,-51.8166 145.682,-53.6317 156.435,-55.355"/>
<polygon fill="midnightblue" stroke="midnightblue" points="123.807,-46.5815 113.379,-48.455 122.699,-53.4933 123.807,-46.5815"/>
</g>
<!-- Node3 -->
<g id="node3" class="node"><title>Node3</title>
<g id="a_node3"><a xlink:href="class_i_n_m_o_s_t_1_1ternary__pool__expression.html#ae5de44162145139c575a8821c8d0d9f7" target="_top" xlink:title="INMOST::ternary_pool\l_expression::GetDerivative">
<polygon fill="none" stroke="black" points="149,-0.5 149,-30.5 280,-30.5 280,-0.5 149,-0.5"/>
<text text-anchor="start" x="157" y="-18.5" font-family="Helvetica,sans-Serif" font-size="10.00">INMOST::ternary_pool</text>
<text text-anchor="middle" x="214.5" y="-7.5" font-family="Helvetica,sans-Serif" font-size="10.00">_expression::GetDerivative</text>
</a>
</g>
</g>
<!-- Node1&#45;&gt;Node3 -->
<g id="edge2" class="edge"><title>Node1&#45;&gt;Node3</title>
<path fill="none" stroke="midnightblue" d="M123.536,-29.3406C131.963,-28.0442 140.58,-26.7184 148.983,-25.4257"/>
<polygon fill="midnightblue" stroke="midnightblue" points="122.73,-25.9233 113.379,-30.9032 123.795,-32.8419 122.73,-25.9233"/>
</g>
</g>
</svg>
