<?xml version="1.0" encoding="UTF-8" standalone="no"?>
<!DOCTYPE svg PUBLIC "-//W3C//DTD SVG 1.1//EN"
 "http://www.w3.org/Graphics/SVG/1.1/DTD/svg11.dtd">
<!-- Generated by graphviz version 2.38.0 (20140413.2041)
 -->
<!-- Title: INMOST::shell::_reverse_iterator::operator&#45;&#45; Pages: 1 -->
<svg width="311pt" height="110pt"
 viewBox="0.00 0.00 311.00 110.00" xmlns="http://www.w3.org/2000/svg" xmlns:xlink="http://www.w3.org/1999/xlink">
<g id="graph0" class="graph" transform="scale(1 1) rotate(0) translate(4 106)">
<title>INMOST::shell::_reverse_iterator::operator&#45;&#45;</title>
<!-- Node1 -->
<g id="node1" class="node"><title>Node1</title>
<polygon fill="#bfbfbf" stroke="black" points="0,-36 0,-66 122,-66 122,-36 0,-36"/>
<text text-anchor="start" x="8" y="-54" font-family="Helvetica,sans-Serif" font-size="10.00">INMOST::shell::_reverse</text>
<text text-anchor="middle" x="61" y="-43" font-family="Helvetica,sans-Serif" font-size="10.00">_iterator::operator&#45;&#45;</text>
</g>
<!-- Node2 -->
<g id="node2" class="node"><title>Node2</title>
<g id="a_node2"><a xlink:href="class_i_n_m_o_s_t_1_1_storage_1_1reference__array_1_1reverse__iterator.html#a711c9e146000dfdaf604e6c8a2994988" target="_top" xlink:title="INMOST::Storage::reference\l_array::reverse_iterator\l::operator&#45;&#45;">
<polygon fill="none" stroke="black" points="161,-60.5 161,-101.5 300,-101.5 300,-60.5 161,-60.5"/>
<text text-anchor="start" x="169" y="-89.5" font-family="Helvetica,sans-Serif" font-size="10.00">INMOST::Storage::reference</text>
<text text-anchor="start" x="169" y="-78.5" font-family="Helvetica,sans-Serif" font-size="10.00">_array::reverse_iterator</text>
<text text-anchor="middle" x="230.5" y="-67.5" font-family="Helvetica,sans-Serif" font-size="10.00">::operator&#45;&#45;</text>
</a>
</g>
</g>
<!-- Node1&#45;&gt;Node2 -->
<g id="edge1" class="edge"><title>Node1&#45;&gt;Node2</title>
<path fill="none" stroke="midnightblue" d="M132.538,-63.6337C141.918,-65.3137 151.526,-67.0344 160.873,-68.7086"/>
<polygon fill="midnightblue" stroke="midnightblue" points="132.932,-60.1486 122.471,-61.8307 131.698,-67.0389 132.932,-60.1486"/>
</g>
<!-- Node3 -->
<g id="node3" class="node"><title>Node3</title>
<g id="a_node3"><a xlink:href="class_i_n_m_o_s_t_1_1_storage_1_1reference__array_1_1const__reverse__iterator.html#af511e62d50470c187b78e2e02b55c2d6" target="_top" xlink:title="INMOST::Storage::reference\l_array::const_reverse_iterator\l::operator&#45;&#45;">
<polygon fill="none" stroke="black" points="158,-0.5 158,-41.5 303,-41.5 303,-0.5 158,-0.5"/>
<text text-anchor="start" x="166" y="-29.5" font-family="Helvetica,sans-Serif" font-size="10.00">INMOST::Storage::reference</text>
<text text-anchor="start" x="166" y="-18.5" font-family="Helvetica,sans-Serif" font-size="10.00">_array::const_reverse_iterator</text>
<text text-anchor="middle" x="230.5" y="-7.5" font-family="Helvetica,sans-Serif" font-size="10.00">::operator&#45;&#45;</text>
</a>
</g>
</g>
<!-- Node1&#45;&gt;Node3 -->
<g id="edge2" class="edge"><title>Node1&#45;&gt;Node3</title>
<path fill="none" stroke="midnightblue" d="M132.326,-38.4042C140.814,-36.8841 149.49,-35.3301 157.994,-33.807"/>
<polygon fill="midnightblue" stroke="midnightblue" points="131.698,-34.9611 122.471,-40.1693 132.932,-41.8514 131.698,-34.9611"/>
</g>
</g>
</svg>
