<?xml version="1.0" encoding="UTF-8" standalone="no"?>
<!DOCTYPE svg PUBLIC "-//W3C//DTD SVG 1.1//EN"
 "http://www.w3.org/Graphics/SVG/1.1/DTD/svg11.dtd">
<!-- Generated by graphviz version 2.38.0 (20140413.2041)
 -->
<!-- Title: INMOST::tiny_map::find Pages: 1 -->
<svg width="445pt" height="104pt"
 viewBox="0.00 0.00 445.00 104.00" xmlns="http://www.w3.org/2000/svg" xmlns:xlink="http://www.w3.org/1999/xlink">
<g id="graph0" class="graph" transform="scale(1 1) rotate(0) translate(4 100)">
<title>INMOST::tiny_map::find</title>
<!-- Node1 -->
<g id="node1" class="node"><title>Node1</title>
<polygon fill="#bfbfbf" stroke="black" points="0,-38.5 0,-57.5 120,-57.5 120,-38.5 0,-38.5"/>
<text text-anchor="middle" x="60" y="-45.5" font-family="Helvetica,sans-Serif" font-size="10.00">INMOST::tiny_map::find</text>
</g>
<!-- Node2 -->
<g id="node2" class="node"><title>Node2</title>
<g id="a_node2"><a xlink:href="class_i_n_m_o_s_t_1_1dynarray.html#a95d4cabcea41ee216d2ccd310d04cd61" target="_top" xlink:title="INMOST::dynarray::begin">
<polygon fill="none" stroke="black" points="156,-76.5 156,-95.5 282,-95.5 282,-76.5 156,-76.5"/>
<text text-anchor="middle" x="219" y="-83.5" font-family="Helvetica,sans-Serif" font-size="10.00">INMOST::dynarray::begin</text>
</a>
</g>
</g>
<!-- Node1&#45;&gt;Node2 -->
<g id="edge1" class="edge"><title>Node1&#45;&gt;Node2</title>
<path fill="none" stroke="midnightblue" d="M100.618,-57.589C121.336,-62.6035 146.888,-68.7881 168.856,-74.1053"/>
<polygon fill="midnightblue" stroke="midnightblue" points="168.124,-77.5292 178.667,-76.4799 169.771,-70.7256 168.124,-77.5292"/>
</g>
<!-- Node3 -->
<g id="node3" class="node"><title>Node3</title>
<g id="a_node3"><a xlink:href="class_i_n_m_o_s_t_1_1dynarray.html#ad3e9af27a79aa4c5a57635546091a33d" target="_top" xlink:title="INMOST::dynarray::end">
<polygon fill="none" stroke="black" points="318,-19.5 318,-38.5 437,-38.5 437,-19.5 318,-19.5"/>
<text text-anchor="middle" x="377.5" y="-26.5" font-family="Helvetica,sans-Serif" font-size="10.00">INMOST::dynarray::end</text>
</a>
</g>
</g>
<!-- Node1&#45;&gt;Node3 -->
<g id="edge2" class="edge"><title>Node1&#45;&gt;Node3</title>
<path fill="none" stroke="midnightblue" d="M120.343,-44.4262C173.613,-41.2183 251.808,-36.5092 307.776,-33.1387"/>
<polygon fill="midnightblue" stroke="midnightblue" points="308.185,-36.6205 317.957,-32.5256 307.764,-29.6331 308.185,-36.6205"/>
</g>
<!-- Node4 -->
<g id="node4" class="node"><title>Node4</title>
<g id="a_node4"><a xlink:href="class_i_n_m_o_s_t_1_1tiny__map.html#a9e28be9ec160309d4767d9274283b686" target="_top" xlink:title="INMOST::tiny_map::end">
<polygon fill="none" stroke="black" points="158.5,-0.5 158.5,-19.5 279.5,-19.5 279.5,-0.5 158.5,-0.5"/>
<text text-anchor="middle" x="219" y="-7.5" font-family="Helvetica,sans-Serif" font-size="10.00">INMOST::tiny_map::end</text>
</a>
</g>
</g>
<!-- Node1&#45;&gt;Node4 -->
<g id="edge3" class="edge"><title>Node1&#45;&gt;Node4</title>
<path fill="none" stroke="midnightblue" d="M100.618,-38.411C121.336,-33.3965 146.888,-27.2119 168.856,-21.8947"/>
<polygon fill="midnightblue" stroke="midnightblue" points="169.771,-25.2744 178.667,-19.5201 168.124,-18.4708 169.771,-25.2744"/>
</g>
<!-- Node4&#45;&gt;Node3 -->
<g id="edge4" class="edge"><title>Node4&#45;&gt;Node3</title>
<path fill="none" stroke="midnightblue" d="M279.612,-17.2373C288.811,-18.354 298.374,-19.515 307.752,-20.6536"/>
<polygon fill="midnightblue" stroke="midnightblue" points="307.481,-24.1463 317.83,-21.8771 308.324,-17.1973 307.481,-24.1463"/>
</g>
</g>
</svg>
