<?xml version="1.0" encoding="UTF-8" standalone="no"?>
<!DOCTYPE svg PUBLIC "-//W3C//DTD SVG 1.1//EN"
 "http://www.w3.org/Graphics/SVG/1.1/DTD/svg11.dtd">
<!-- Generated by graphviz version 2.38.0 (20140413.2041)
 -->
<!-- Title: INMOST::Storage::VariableArrayDF Pages: 1 -->
<svg width="491pt" height="104pt"
 viewBox="0.00 0.00 491.00 104.00" xmlns="http://www.w3.org/2000/svg" xmlns:xlink="http://www.w3.org/1999/xlink">
<g id="graph0" class="graph" transform="scale(1 1) rotate(0) translate(4 100)">
<title>INMOST::Storage::VariableArrayDF</title>
<!-- Node1 -->
<g id="node1" class="node"><title>Node1</title>
<polygon fill="#bfbfbf" stroke="black" points="0,-33 0,-63 134,-63 134,-33 0,-33"/>
<text text-anchor="start" x="8" y="-51" font-family="Helvetica,sans-Serif" font-size="10.00">INMOST::Storage::Variable</text>
<text text-anchor="middle" x="67" y="-40" font-family="Helvetica,sans-Serif" font-size="10.00">ArrayDF</text>
</g>
<!-- Node2 -->
<g id="node2" class="node"><title>Node2</title>
<g id="a_node2"><a xlink:href="class_i_n_m_o_s_t_1_1_storage.html#a20d218fc89f75ca8534707b4f697173e" target="_top" xlink:title="INMOST::Storage::GetMeshLink">
<polygon fill="none" stroke="black" points="172,-76.5 172,-95.5 329,-95.5 329,-76.5 172,-76.5"/>
<text text-anchor="middle" x="250.5" y="-83.5" font-family="Helvetica,sans-Serif" font-size="10.00">INMOST::Storage::GetMeshLink</text>
</a>
</g>
</g>
<!-- Node1&#45;&gt;Node2 -->
<g id="edge1" class="edge"><title>Node1&#45;&gt;Node2</title>
<path fill="none" stroke="midnightblue" d="M134.039,-61.8264C153.714,-65.9456 175.066,-70.4161 193.996,-74.3794"/>
<polygon fill="midnightblue" stroke="midnightblue" points="193.439,-77.8386 203.944,-76.4622 194.874,-70.9871 193.439,-77.8386"/>
</g>
<!-- Node3 -->
<g id="node3" class="node"><title>Node3</title>
<g id="a_node3"><a xlink:href="class_i_n_m_o_s_t_1_1_mesh.html#ab2229cce6dd3256af03af46a30f951b0" target="_top" xlink:title="INMOST::Mesh::VariableArrayDF">
<polygon fill="none" stroke="black" points="170,-38.5 170,-57.5 331,-57.5 331,-38.5 170,-38.5"/>
<text text-anchor="middle" x="250.5" y="-45.5" font-family="Helvetica,sans-Serif" font-size="10.00">INMOST::Mesh::VariableArrayDF</text>
</a>
</g>
</g>
<!-- Node1&#45;&gt;Node3 -->
<g id="edge2" class="edge"><title>Node1&#45;&gt;Node3</title>
<path fill="none" stroke="midnightblue" d="M134.039,-48C142.417,-48 151.099,-48 159.769,-48"/>
<polygon fill="midnightblue" stroke="midnightblue" points="159.921,-51.5001 169.921,-48 159.921,-44.5001 159.921,-51.5001"/>
</g>
<!-- Node5 -->
<g id="node5" class="node"><title>Node5</title>
<g id="a_node5"><a xlink:href="class_i_n_m_o_s_t_1_1_storage.html#ac79e3f3664b2ff21892f37bce0caa0e0" target="_top" xlink:title="INMOST::Storage::GetHandle">
<polygon fill="none" stroke="black" points="178,-0.5 178,-19.5 323,-19.5 323,-0.5 178,-0.5"/>
<text text-anchor="middle" x="250.5" y="-7.5" font-family="Helvetica,sans-Serif" font-size="10.00">INMOST::Storage::GetHandle</text>
</a>
</g>
</g>
<!-- Node1&#45;&gt;Node5 -->
<g id="edge4" class="edge"><title>Node1&#45;&gt;Node5</title>
<path fill="none" stroke="midnightblue" d="M134.039,-34.1736C153.714,-30.0544 175.066,-25.5839 193.996,-21.6206"/>
<polygon fill="midnightblue" stroke="midnightblue" points="194.874,-25.0129 203.944,-19.5378 193.439,-18.1614 194.874,-25.0129"/>
</g>
<!-- Node4 -->
<g id="node4" class="node"><title>Node4</title>
<g id="a_node4"><a xlink:href="class_i_n_m_o_s_t_1_1_tag.html#ae74774d21aaf2dd820d2a5ea1bb43f9d" target="_top" xlink:title="INMOST::Tag::GetSize">
<polygon fill="none" stroke="black" points="367,-38.5 367,-57.5 483,-57.5 483,-38.5 367,-38.5"/>
<text text-anchor="middle" x="425" y="-45.5" font-family="Helvetica,sans-Serif" font-size="10.00">INMOST::Tag::GetSize</text>
</a>
</g>
</g>
<!-- Node3&#45;&gt;Node4 -->
<g id="edge3" class="edge"><title>Node3&#45;&gt;Node4</title>
<path fill="none" stroke="midnightblue" d="M331.186,-48C339.721,-48 348.343,-48 356.714,-48"/>
<polygon fill="midnightblue" stroke="midnightblue" points="356.777,-51.5001 366.777,-48 356.777,-44.5001 356.777,-51.5001"/>
</g>
</g>
</svg>
