<?xml version="1.0" encoding="UTF-8" standalone="no"?>
<!DOCTYPE svg PUBLIC "-//W3C//DTD SVG 1.1//EN"
 "http://www.w3.org/Graphics/SVG/1.1/DTD/svg11.dtd">
<!-- Generated by graphviz version 2.38.0 (20140413.2041)
 -->
<!-- Title: INMOST::dynamic_variable::operator[] Pages: 1 -->
<svg width="697pt" height="294pt"
 viewBox="0.00 0.00 697.00 294.00" xmlns="http://www.w3.org/2000/svg" xmlns:xlink="http://www.w3.org/1999/xlink">
<g id="graph0" class="graph" transform="scale(1 1) rotate(0) translate(4 290)">
<title>INMOST::dynamic_variable::operator[]</title>
<!-- Node1 -->
<g id="node1" class="node"><title>Node1</title>
<polygon fill="#bfbfbf" stroke="black" points="0,-109 0,-139 134,-139 134,-109 0,-109"/>
<text text-anchor="start" x="8" y="-127" font-family="Helvetica,sans-Serif" font-size="10.00">INMOST::dynamic_variable</text>
<text text-anchor="middle" x="67" y="-116" font-family="Helvetica,sans-Serif" font-size="10.00">::operator[]</text>
</g>
<!-- Node2 -->
<g id="node2" class="node"><title>Node2</title>
<g id="a_node2"><a xlink:href="class_i_n_m_o_s_t_1_1_storage.html#ac2b245b3c0e50e23a0eb0b2332ca4ae4" target="_top" xlink:title="INMOST::Storage::Real">
<polygon fill="none" stroke="black" points="183,-114.5 183,-133.5 302,-133.5 302,-114.5 183,-114.5"/>
<text text-anchor="middle" x="242.5" y="-121.5" font-family="Helvetica,sans-Serif" font-size="10.00">INMOST::Storage::Real</text>
</a>
</g>
</g>
<!-- Node1&#45;&gt;Node2 -->
<g id="edge1" class="edge"><title>Node1&#45;&gt;Node2</title>
<path fill="none" stroke="midnightblue" d="M134.088,-124C146.783,-124 160.104,-124 172.877,-124"/>
<polygon fill="midnightblue" stroke="midnightblue" points="172.98,-127.5 182.98,-124 172.98,-120.5 172.98,-127.5"/>
</g>
<!-- Node6 -->
<g id="node6" class="node"><title>Node6</title>
<g id="a_node6"><a xlink:href="class_i_n_m_o_s_t_1_1_storage.html#ad256a6f5101df9f507e359cdddef3a66" target="_top" xlink:title="INMOST::Storage::GetMarker">
<polygon fill="none" stroke="black" points="170,-190.5 170,-209.5 315,-209.5 315,-190.5 170,-190.5"/>
<text text-anchor="middle" x="242.5" y="-197.5" font-family="Helvetica,sans-Serif" font-size="10.00">INMOST::Storage::GetMarker</text>
</a>
</g>
</g>
<!-- Node1&#45;&gt;Node6 -->
<g id="edge5" class="edge"><title>Node1&#45;&gt;Node6</title>
<path fill="none" stroke="midnightblue" d="M102.278,-139.015C133.645,-152.755 179.674,-172.918 210.101,-186.246"/>
<polygon fill="midnightblue" stroke="midnightblue" points="208.83,-189.51 219.394,-190.317 211.639,-183.098 208.83,-189.51"/>
</g>
<!-- Node12 -->
<g id="node12" class="node"><title>Node12</title>
<g id="a_node12"><a xlink:href="class_i_n_m_o_s_t_1_1_storage.html#a494c65f9a4fab2831e47ad2f8fe44f5b" target="_top" xlink:title="INMOST::Storage::Integer">
<polygon fill="none" stroke="black" points="178.5,-57.5 178.5,-76.5 306.5,-76.5 306.5,-57.5 178.5,-57.5"/>
<text text-anchor="middle" x="242.5" y="-64.5" font-family="Helvetica,sans-Serif" font-size="10.00">INMOST::Storage::Integer</text>
</a>
</g>
</g>
<!-- Node1&#45;&gt;Node12 -->
<g id="edge14" class="edge"><title>Node1&#45;&gt;Node12</title>
<path fill="none" stroke="midnightblue" d="M114.039,-108.875C141.724,-99.7794 176.563,-88.3338 202.818,-79.7083"/>
<polygon fill="midnightblue" stroke="midnightblue" points="204.019,-82.9977 212.427,-76.5513 201.834,-76.3474 204.019,-82.9977"/>
</g>
<!-- Node3 -->
<g id="node3" class="node"><title>Node3</title>
<g id="a_node3"><a xlink:href="class_i_n_m_o_s_t_1_1_storage.html#a20d218fc89f75ca8534707b4f697173e" target="_top" xlink:title="INMOST::Storage::GetMeshLink">
<polygon fill="none" stroke="black" points="532,-152.5 532,-171.5 689,-171.5 689,-152.5 532,-152.5"/>
<text text-anchor="middle" x="610.5" y="-159.5" font-family="Helvetica,sans-Serif" font-size="10.00">INMOST::Storage::GetMeshLink</text>
</a>
</g>
</g>
<!-- Node2&#45;&gt;Node3 -->
<g id="edge2" class="edge"><title>Node2&#45;&gt;Node3</title>
<path fill="none" stroke="midnightblue" d="M291.237,-133.51C309.826,-136.931 331.347,-140.547 351,-143 407.605,-150.064 471.536,-154.791 521.658,-157.763"/>
<polygon fill="midnightblue" stroke="midnightblue" points="521.628,-161.267 531.814,-158.353 522.033,-154.279 521.628,-161.267"/>
</g>
<!-- Node4 -->
<g id="node4" class="node"><title>Node4</title>
<g id="a_node4"><a xlink:href="class_i_n_m_o_s_t_1_1_mesh.html#afa084c637bc9f6850ed77fbb7778d404" target="_top" xlink:title="INMOST::Mesh::Real">
<polygon fill="none" stroke="black" points="369,-114.5 369,-133.5 478,-133.5 478,-114.5 369,-114.5"/>
<text text-anchor="middle" x="423.5" y="-121.5" font-family="Helvetica,sans-Serif" font-size="10.00">INMOST::Mesh::Real</text>
</a>
</g>
</g>
<!-- Node2&#45;&gt;Node4 -->
<g id="edge3" class="edge"><title>Node2&#45;&gt;Node4</title>
<path fill="none" stroke="midnightblue" d="M302.111,-124C320.264,-124 340.348,-124 358.826,-124"/>
<polygon fill="midnightblue" stroke="midnightblue" points="358.904,-127.5 368.904,-124 358.904,-120.5 358.904,-127.5"/>
</g>
<!-- Node5 -->
<g id="node5" class="node"><title>Node5</title>
<g id="a_node5"><a xlink:href="class_i_n_m_o_s_t_1_1_storage.html#ac79e3f3664b2ff21892f37bce0caa0e0" target="_top" xlink:title="INMOST::Storage::GetHandle">
<polygon fill="none" stroke="black" points="351,-76.5 351,-95.5 496,-95.5 496,-76.5 351,-76.5"/>
<text text-anchor="middle" x="423.5" y="-83.5" font-family="Helvetica,sans-Serif" font-size="10.00">INMOST::Storage::GetHandle</text>
</a>
</g>
</g>
<!-- Node2&#45;&gt;Node5 -->
<g id="edge4" class="edge"><title>Node2&#45;&gt;Node5</title>
<path fill="none" stroke="midnightblue" d="M288.669,-114.411C312.716,-109.306 342.474,-102.989 367.819,-97.6082"/>
<polygon fill="midnightblue" stroke="midnightblue" points="368.6,-101.02 377.656,-95.5201 367.147,-94.1731 368.6,-101.02"/>
</g>
<!-- Node6&#45;&gt;Node3 -->
<g id="edge10" class="edge"><title>Node6&#45;&gt;Node3</title>
<path fill="none" stroke="midnightblue" d="M315.373,-192.538C374.435,-186.406 458.353,-177.693 521.445,-171.142"/>
<polygon fill="midnightblue" stroke="midnightblue" points="522.196,-174.583 531.781,-170.069 521.473,-167.621 522.196,-174.583"/>
</g>
<!-- Node6&#45;&gt;Node5 -->
<g id="edge13" class="edge"><title>Node6&#45;&gt;Node5</title>
<path fill="none" stroke="midnightblue" d="M256.6,-190.427C271.287,-179.498 295.588,-160.822 315,-143 332.137,-127.266 330.999,-116.883 351,-105 354.665,-102.823 358.581,-100.891 362.622,-99.177"/>
<polygon fill="midnightblue" stroke="midnightblue" points="364.093,-102.363 372.217,-95.5614 361.625,-95.8124 364.093,-102.363"/>
</g>
<!-- Node7 -->
<g id="node7" class="node"><title>Node7</title>
<g id="a_node7"><a xlink:href="class_i_n_m_o_s_t_1_1_storage.html#a59da31b96c2b4e09e260f0deb4dae4d9" target="_top" xlink:title="INMOST::Storage::isValid">
<polygon fill="none" stroke="black" points="359.5,-228.5 359.5,-247.5 487.5,-247.5 487.5,-228.5 359.5,-228.5"/>
<text text-anchor="middle" x="423.5" y="-235.5" font-family="Helvetica,sans-Serif" font-size="10.00">INMOST::Storage::isValid</text>
</a>
</g>
</g>
<!-- Node6&#45;&gt;Node7 -->
<g id="edge6" class="edge"><title>Node6&#45;&gt;Node7</title>
<path fill="none" stroke="midnightblue" d="M288.669,-209.589C312.716,-214.694 342.474,-221.011 367.819,-226.392"/>
<polygon fill="midnightblue" stroke="midnightblue" points="367.147,-229.827 377.656,-228.48 368.6,-222.98 367.147,-229.827"/>
</g>
<!-- Node10 -->
<g id="node10" class="node"><title>Node10</title>
<g id="a_node10"><a xlink:href="class_i_n_m_o_s_t_1_1_mesh.html#a2c8a00522e2b06a0b59e25cae119a237" target="_top" xlink:title="INMOST::Mesh::GetMarker">
<polygon fill="none" stroke="black" points="356,-266.5 356,-285.5 491,-285.5 491,-266.5 356,-266.5"/>
<text text-anchor="middle" x="423.5" y="-273.5" font-family="Helvetica,sans-Serif" font-size="10.00">INMOST::Mesh::GetMarker</text>
</a>
</g>
</g>
<!-- Node6&#45;&gt;Node10 -->
<g id="edge11" class="edge"><title>Node6&#45;&gt;Node10</title>
<path fill="none" stroke="midnightblue" d="M258.99,-209.669C279.415,-222.073 316.779,-243.584 351,-257 357.186,-259.425 363.792,-261.646 370.396,-263.647"/>
<polygon fill="midnightblue" stroke="midnightblue" points="369.441,-267.014 380.019,-266.417 371.378,-260.287 369.441,-267.014"/>
</g>
<!-- Node7&#45;&gt;Node3 -->
<g id="edge8" class="edge"><title>Node7&#45;&gt;Node3</title>
<path fill="none" stroke="midnightblue" d="M462.529,-228.486C473.736,-224.836 485.737,-220.053 496,-214 514.695,-202.973 512.861,-191.238 532,-181 536.279,-178.711 540.839,-176.693 545.521,-174.914"/>
<polygon fill="midnightblue" stroke="midnightblue" points="546.924,-178.133 555.256,-171.589 544.661,-171.509 546.924,-178.133"/>
</g>
<!-- Node8 -->
<g id="node8" class="node"><title>Node8</title>
<g id="a_node8"><a xlink:href="namespace_i_n_m_o_s_t.html#a115b3e54c3b7be04ffec9b69c058df18" target="_top" xlink:title="INMOST::InvalidHandle">
<polygon fill="none" stroke="black" points="552.5,-228.5 552.5,-247.5 668.5,-247.5 668.5,-228.5 552.5,-228.5"/>
<text text-anchor="middle" x="610.5" y="-235.5" font-family="Helvetica,sans-Serif" font-size="10.00">INMOST::InvalidHandle</text>
</a>
</g>
</g>
<!-- Node7&#45;&gt;Node8 -->
<g id="edge7" class="edge"><title>Node7&#45;&gt;Node8</title>
<path fill="none" stroke="midnightblue" d="M487.649,-238C505.149,-238 524.213,-238 541.953,-238"/>
<polygon fill="midnightblue" stroke="midnightblue" points="542.224,-241.5 552.224,-238 542.224,-234.5 542.224,-241.5"/>
</g>
<!-- Node9 -->
<g id="node9" class="node"><title>Node9</title>
<g id="a_node9"><a xlink:href="class_i_n_m_o_s_t_1_1_mesh.html#a05701da4bd3ed8ca69bbcca256c2b0e2" target="_top" xlink:title="INMOST::Mesh::isValidElement">
<polygon fill="none" stroke="black" points="533,-190.5 533,-209.5 688,-209.5 688,-190.5 533,-190.5"/>
<text text-anchor="middle" x="610.5" y="-197.5" font-family="Helvetica,sans-Serif" font-size="10.00">INMOST::Mesh::isValidElement</text>
</a>
</g>
</g>
<!-- Node7&#45;&gt;Node9 -->
<g id="edge9" class="edge"><title>Node7&#45;&gt;Node9</title>
<path fill="none" stroke="midnightblue" d="M471.183,-228.411C496.146,-223.284 527.064,-216.933 553.334,-211.537"/>
<polygon fill="midnightblue" stroke="midnightblue" points="554.061,-214.961 563.152,-209.52 552.653,-208.104 554.061,-214.961"/>
</g>
<!-- Node11 -->
<g id="node11" class="node"><title>Node11</title>
<g id="a_node11"><a xlink:href="class_i_n_m_o_s_t_1_1_mesh.html#ad7d9049c7e0f028e334d3fac70acdc6c" target="_top" xlink:title="INMOST::Mesh::MarkersTag">
<polygon fill="none" stroke="black" points="540.5,-266.5 540.5,-285.5 680.5,-285.5 680.5,-266.5 540.5,-266.5"/>
<text text-anchor="middle" x="610.5" y="-273.5" font-family="Helvetica,sans-Serif" font-size="10.00">INMOST::Mesh::MarkersTag</text>
</a>
</g>
</g>
<!-- Node10&#45;&gt;Node11 -->
<g id="edge12" class="edge"><title>Node10&#45;&gt;Node11</title>
<path fill="none" stroke="midnightblue" d="M491.028,-276C503.697,-276 517.074,-276 530.097,-276"/>
<polygon fill="midnightblue" stroke="midnightblue" points="530.446,-279.5 540.446,-276 530.446,-272.5 530.446,-279.5"/>
</g>
<!-- Node12&#45;&gt;Node3 -->
<g id="edge15" class="edge"><title>Node12&#45;&gt;Node3</title>
<path fill="none" stroke="midnightblue" d="M291.712,-57.4892C343.807,-49.3568 428.428,-42.4529 496,-67 538.404,-82.4042 576.03,-121.363 595.486,-144.322"/>
<polygon fill="midnightblue" stroke="midnightblue" points="592.965,-146.765 602.026,-152.256 598.366,-142.313 592.965,-146.765"/>
</g>
<!-- Node12&#45;&gt;Node5 -->
<g id="edge17" class="edge"><title>Node12&#45;&gt;Node5</title>
<path fill="none" stroke="midnightblue" d="M306.609,-73.6987C317.663,-74.8721 329.308,-76.1081 340.781,-77.3259"/>
<polygon fill="midnightblue" stroke="midnightblue" points="340.486,-80.8142 350.8,-78.3894 341.225,-73.8533 340.486,-80.8142"/>
</g>
<!-- Node13 -->
<g id="node13" class="node"><title>Node13</title>
<g id="a_node13"><a xlink:href="class_i_n_m_o_s_t_1_1_mesh.html#aa9d44832b3e826a2b61c8e91c5457fbf" target="_top" xlink:title="INMOST::Mesh::Integer">
<polygon fill="none" stroke="black" points="364,-0.5 364,-19.5 483,-19.5 483,-0.5 364,-0.5"/>
<text text-anchor="middle" x="423.5" y="-7.5" font-family="Helvetica,sans-Serif" font-size="10.00">INMOST::Mesh::Integer</text>
</a>
</g>
</g>
<!-- Node12&#45;&gt;Node13 -->
<g id="edge16" class="edge"><title>Node12&#45;&gt;Node13</title>
<path fill="none" stroke="midnightblue" d="M273.461,-57.4595C303.405,-47.924 349.624,-33.2064 382.649,-22.6901"/>
<polygon fill="midnightblue" stroke="midnightblue" points="383.975,-25.9409 392.442,-19.5716 381.851,-19.2709 383.975,-25.9409"/>
</g>
</g>
</svg>
