<?xml version="1.0" encoding="UTF-8" standalone="no"?>
<!DOCTYPE svg PUBLIC "-//W3C//DTD SVG 1.1//EN"
 "http://www.w3.org/Graphics/SVG/1.1/DTD/svg11.dtd">
<!-- Generated by graphviz version 2.38.0 (20140413.2041)
 -->
<!-- Title: INMOST::Automatizator::GetDynamicValueTag Pages: 1 -->
<svg width="489pt" height="94pt"
 viewBox="0.00 0.00 489.00 93.50" xmlns="http://www.w3.org/2000/svg" xmlns:xlink="http://www.w3.org/1999/xlink">
<g id="graph0" class="graph" transform="scale(1 1) rotate(0) translate(4 89.5)">
<title>INMOST::Automatizator::GetDynamicValueTag</title>
<!-- Node1 -->
<g id="node1" class="node"><title>Node1</title>
<polygon fill="#bfbfbf" stroke="black" points="0,-24.5 0,-54.5 120,-54.5 120,-24.5 0,-24.5"/>
<text text-anchor="start" x="8" y="-42.5" font-family="Helvetica,sans-Serif" font-size="10.00">INMOST::Automatizator</text>
<text text-anchor="middle" x="60" y="-31.5" font-family="Helvetica,sans-Serif" font-size="10.00">::GetDynamicValueTag</text>
</g>
<!-- Node2 -->
<g id="node2" class="node"><title>Node2</title>
<g id="a_node2"><a xlink:href="class_i_n_m_o_s_t_1_1_automatizator.html#ab41dc204fbb52720b8dbb365f40ee0f3" target="_top" xlink:title="INMOST::Automatizator\l::GetDynamicValue">
<polygon fill="none" stroke="black" points="163,-49.5 163,-79.5 283,-79.5 283,-49.5 163,-49.5"/>
<text text-anchor="start" x="171" y="-67.5" font-family="Helvetica,sans-Serif" font-size="10.00">INMOST::Automatizator</text>
<text text-anchor="middle" x="223" y="-56.5" font-family="Helvetica,sans-Serif" font-size="10.00">::GetDynamicValue</text>
</a>
</g>
</g>
<!-- Node1&#45;&gt;Node2 -->
<g id="edge1" class="edge"><title>Node1&#45;&gt;Node2</title>
<path fill="none" stroke="midnightblue" d="M130.01,-50.2158C140.986,-51.9201 152.252,-53.6696 162.971,-55.334"/>
<polygon fill="midnightblue" stroke="midnightblue" points="130.455,-46.7431 120.036,-48.6671 129.381,-53.6602 130.455,-46.7431"/>
</g>
<!-- Node4 -->
<g id="node4" class="node"><title>Node4</title>
<g id="a_node4"><a xlink:href="class_i_n_m_o_s_t_1_1dynamic__variable.html#a681874b35071574a0ed8a1ab928f959e" target="_top" xlink:title="INMOST::dynamic_variable\l::dynamic_variable">
<polygon fill="none" stroke="black" points="156,-0.5 156,-30.5 290,-30.5 290,-0.5 156,-0.5"/>
<text text-anchor="start" x="164" y="-18.5" font-family="Helvetica,sans-Serif" font-size="10.00">INMOST::dynamic_variable</text>
<text text-anchor="middle" x="223" y="-7.5" font-family="Helvetica,sans-Serif" font-size="10.00">::dynamic_variable</text>
</a>
</g>
</g>
<!-- Node1&#45;&gt;Node4 -->
<g id="edge3" class="edge"><title>Node1&#45;&gt;Node4</title>
<path fill="none" stroke="midnightblue" d="M130.01,-29.2128C138.596,-27.9328 147.361,-26.6263 155.902,-25.3532"/>
<polygon fill="midnightblue" stroke="midnightblue" points="129.411,-25.7633 120.036,-30.6996 130.443,-32.6868 129.411,-25.7633"/>
</g>
<!-- Node3 -->
<g id="node3" class="node"><title>Node3</title>
<g id="a_node3"><a xlink:href="class_i_n_m_o_s_t_1_1enhanced__multivar__expression.html#aa7a9b5c6c18e890d941c0abaf36fc9ac" target="_top" xlink:title="INMOST::enhanced_multivar\l_expression::enhanced_multivar\l_expression">
<polygon fill="none" stroke="black" points="326,-44 326,-85 481,-85 481,-44 326,-44"/>
<text text-anchor="start" x="334" y="-73" font-family="Helvetica,sans-Serif" font-size="10.00">INMOST::enhanced_multivar</text>
<text text-anchor="start" x="334" y="-62" font-family="Helvetica,sans-Serif" font-size="10.00">_expression::enhanced_multivar</text>
<text text-anchor="middle" x="403.5" y="-51" font-family="Helvetica,sans-Serif" font-size="10.00">_expression</text>
</a>
</g>
</g>
<!-- Node2&#45;&gt;Node3 -->
<g id="edge2" class="edge"><title>Node2&#45;&gt;Node3</title>
<path fill="none" stroke="midnightblue" d="M293.474,-64.5C304.09,-64.5 315.098,-64.5 325.857,-64.5"/>
<polygon fill="midnightblue" stroke="midnightblue" points="293.438,-61.0001 283.438,-64.5 293.438,-68.0001 293.438,-61.0001"/>
</g>
</g>
</svg>
