<?xml version="1.0" encoding="UTF-8" standalone="no"?>
<!DOCTYPE svg PUBLIC "-//W3C//DTD SVG 1.1//EN"
 "http://www.w3.org/Graphics/SVG/1.1/DTD/svg11.dtd">
<!-- Generated by graphviz version 2.38.0 (20140413.2041)
 -->
<!-- Title: INMOST::Mesh::HierarchyComparator::operator() Pages: 1 -->
<svg width="406pt" height="78pt"
 viewBox="0.00 0.00 406.00 77.50" xmlns="http://www.w3.org/2000/svg" xmlns:xlink="http://www.w3.org/1999/xlink">
<g id="graph0" class="graph" transform="scale(1 1) rotate(0) translate(4 73.5)">
<title>INMOST::Mesh::HierarchyComparator::operator()</title>
<!-- Node1 -->
<g id="node1" class="node"><title>Node1</title>
<polygon fill="#bfbfbf" stroke="black" points="0,-22.5 0,-52.5 181,-52.5 181,-22.5 0,-22.5"/>
<text text-anchor="start" x="8" y="-40.5" font-family="Helvetica,sans-Serif" font-size="10.00">INMOST::Mesh::HierarchyComparator</text>
<text text-anchor="middle" x="90.5" y="-29.5" font-family="Helvetica,sans-Serif" font-size="10.00">::operator()</text>
</g>
<!-- Node2 -->
<g id="node2" class="node"><title>Node2</title>
<g id="a_node2"><a xlink:href="namespace_i_n_m_o_s_t.html#a115b3e54c3b7be04ffec9b69c058df18" target="_top" xlink:title="INMOST::InvalidHandle">
<polygon fill="none" stroke="black" points="249.5,-50 249.5,-69 365.5,-69 365.5,-50 249.5,-50"/>
<text text-anchor="middle" x="307.5" y="-57" font-family="Helvetica,sans-Serif" font-size="10.00">INMOST::InvalidHandle</text>
</a>
</g>
</g>
<!-- Node1&#45;&gt;Node2 -->
<g id="edge1" class="edge"><title>Node1&#45;&gt;Node2</title>
<path fill="none" stroke="midnightblue" d="M181.123,-46.6707C200.566,-48.6603 220.813,-50.732 239.221,-52.6156"/>
<polygon fill="midnightblue" stroke="midnightblue" points="238.937,-56.1048 249.241,-53.641 239.65,-49.1411 238.937,-56.1048"/>
</g>
<!-- Node3 -->
<g id="node3" class="node"><title>Node3</title>
<g id="a_node3"><a xlink:href="class_i_n_m_o_s_t_1_1_mesh_1_1_hierarchy_comparator.html#a5183194ece5b7973f2f63d8618c43697" target="_top" xlink:title="INMOST::Mesh::HierarchyComparator\l::CompareElements">
<polygon fill="none" stroke="black" points="217,-0.5 217,-30.5 398,-30.5 398,-0.5 217,-0.5"/>
<text text-anchor="start" x="225" y="-18.5" font-family="Helvetica,sans-Serif" font-size="10.00">INMOST::Mesh::HierarchyComparator</text>
<text text-anchor="middle" x="307.5" y="-7.5" font-family="Helvetica,sans-Serif" font-size="10.00">::CompareElements</text>
</a>
</g>
</g>
<!-- Node1&#45;&gt;Node3 -->
<g id="edge2" class="edge"><title>Node1&#45;&gt;Node3</title>
<path fill="none" stroke="midnightblue" d="M181.123,-28.3293C189.57,-27.465 198.168,-26.5851 206.702,-25.7119"/>
<polygon fill="midnightblue" stroke="midnightblue" points="207.085,-29.191 216.677,-24.6912 206.373,-22.2274 207.085,-29.191"/>
</g>
</g>
</svg>
