<?xml version="1.0" encoding="UTF-8" standalone="no"?>
<!DOCTYPE svg PUBLIC "-//W3C//DTD SVG 1.1//EN"
 "http://www.w3.org/Graphics/SVG/1.1/DTD/svg11.dtd">
<!-- Generated by graphviz version 2.38.0 (20140413.2041)
 -->
<!-- Title: INMOST::Sparse::Matrix::Clear Pages: 1 -->
<svg width="468pt" height="116pt"
 viewBox="0.00 0.00 468.00 115.50" xmlns="http://www.w3.org/2000/svg" xmlns:xlink="http://www.w3.org/1999/xlink">
<g id="graph0" class="graph" transform="scale(1 1) rotate(0) translate(4 111.5)">
<title>INMOST::Sparse::Matrix::Clear</title>
<!-- Node1 -->
<g id="node1" class="node"><title>Node1</title>
<polygon fill="#bfbfbf" stroke="black" points="0,-33 0,-63 123,-63 123,-33 0,-33"/>
<text text-anchor="start" x="8" y="-51" font-family="Helvetica,sans-Serif" font-size="10.00">INMOST::Sparse::Matrix</text>
<text text-anchor="middle" x="61.5" y="-40" font-family="Helvetica,sans-Serif" font-size="10.00">::Clear</text>
</g>
<!-- Node2 -->
<g id="node2" class="node"><title>Node2</title>
<g id="a_node2"><a xlink:href="class_i_n_m_o_s_t_1_1_sparse_1_1_matrix.html#ae83ce491830ae9c4a64c6322cc67813a" target="_top" xlink:title="INMOST::Sparse::Matrix\l::Begin">
<polygon fill="none" stroke="black" points="170.5,-77 170.5,-107 293.5,-107 293.5,-77 170.5,-77"/>
<text text-anchor="start" x="178.5" y="-95" font-family="Helvetica,sans-Serif" font-size="10.00">INMOST::Sparse::Matrix</text>
<text text-anchor="middle" x="232" y="-84" font-family="Helvetica,sans-Serif" font-size="10.00">::Begin</text>
</a>
</g>
</g>
<!-- Node1&#45;&gt;Node2 -->
<g id="edge1" class="edge"><title>Node1&#45;&gt;Node2</title>
<path fill="none" stroke="midnightblue" d="M120.017,-63.0192C134.038,-66.6804 149.16,-70.6294 163.595,-74.3987"/>
<polygon fill="midnightblue" stroke="midnightblue" points="162.897,-77.8336 173.456,-76.9738 164.665,-71.0607 162.897,-77.8336"/>
</g>
<!-- Node4 -->
<g id="node4" class="node"><title>Node4</title>
<g id="a_node4"><a xlink:href="class_i_n_m_o_s_t_1_1_sparse_1_1_matrix.html#a3d827430a934c850e4047d6b2402f909" target="_top" xlink:title="INMOST::Sparse::Matrix::End">
<polygon fill="none" stroke="black" points="159,-38.5 159,-57.5 305,-57.5 305,-38.5 159,-38.5"/>
<text text-anchor="middle" x="232" y="-45.5" font-family="Helvetica,sans-Serif" font-size="10.00">INMOST::Sparse::Matrix::End</text>
</a>
</g>
</g>
<!-- Node1&#45;&gt;Node4 -->
<g id="edge3" class="edge"><title>Node1&#45;&gt;Node4</title>
<path fill="none" stroke="midnightblue" d="M123.332,-48C131.598,-48 140.191,-48 148.756,-48"/>
<polygon fill="midnightblue" stroke="midnightblue" points="148.777,-51.5001 158.777,-48 148.777,-44.5001 148.777,-51.5001"/>
</g>
<!-- Node6 -->
<g id="node6" class="node"><title>Node6</title>
<g id="a_node6"><a xlink:href="class_i_n_m_o_s_t_1_1interval.html#a3934f8add08c08eb298c135f41ce0b80" target="_top" xlink:title="INMOST::interval::clear">
<polygon fill="none" stroke="black" points="174,-0.5 174,-19.5 290,-19.5 290,-0.5 174,-0.5"/>
<text text-anchor="middle" x="232" y="-7.5" font-family="Helvetica,sans-Serif" font-size="10.00">INMOST::interval::clear</text>
</a>
</g>
</g>
<!-- Node1&#45;&gt;Node6 -->
<g id="edge5" class="edge"><title>Node1&#45;&gt;Node6</title>
<path fill="none" stroke="midnightblue" d="M123.332,-34.2811C141.457,-30.1937 161.152,-25.7521 178.682,-21.7987"/>
<polygon fill="midnightblue" stroke="midnightblue" points="179.74,-25.1481 188.725,-19.5338 178.2,-18.3196 179.74,-25.1481"/>
</g>
<!-- Node3 -->
<g id="node3" class="node"><title>Node3</title>
<g id="a_node3"><a xlink:href="class_i_n_m_o_s_t_1_1interval.html#aebcff44e84cb88a63352d3039cf9d0f7" target="_top" xlink:title="INMOST::interval::begin">
<polygon fill="none" stroke="black" points="341,-82.5 341,-101.5 460,-101.5 460,-82.5 341,-82.5"/>
<text text-anchor="middle" x="400.5" y="-89.5" font-family="Helvetica,sans-Serif" font-size="10.00">INMOST::interval::begin</text>
</a>
</g>
</g>
<!-- Node2&#45;&gt;Node3 -->
<g id="edge2" class="edge"><title>Node2&#45;&gt;Node3</title>
<path fill="none" stroke="midnightblue" d="M293.581,-92C305.64,-92 318.385,-92 330.696,-92"/>
<polygon fill="midnightblue" stroke="midnightblue" points="330.91,-95.5001 340.91,-92 330.91,-88.5001 330.91,-95.5001"/>
</g>
<!-- Node5 -->
<g id="node5" class="node"><title>Node5</title>
<g id="a_node5"><a xlink:href="class_i_n_m_o_s_t_1_1interval.html#a8428a7b698ffdc4480bc7dba98292c9c" target="_top" xlink:title="INMOST::interval::end">
<polygon fill="none" stroke="black" points="345,-38.5 345,-57.5 456,-57.5 456,-38.5 345,-38.5"/>
<text text-anchor="middle" x="400.5" y="-45.5" font-family="Helvetica,sans-Serif" font-size="10.00">INMOST::interval::end</text>
</a>
</g>
</g>
<!-- Node4&#45;&gt;Node5 -->
<g id="edge4" class="edge"><title>Node4&#45;&gt;Node5</title>
<path fill="none" stroke="midnightblue" d="M305.061,-48C314.976,-48 325.106,-48 334.876,-48"/>
<polygon fill="midnightblue" stroke="midnightblue" points="334.902,-51.5001 344.902,-48 334.902,-44.5001 334.902,-51.5001"/>
</g>
</g>
</svg>
