<?xml version="1.0" encoding="UTF-8" standalone="no"?>
<!DOCTYPE svg PUBLIC "-//W3C//DTD SVG 1.1//EN"
 "http://www.w3.org/Graphics/SVG/1.1/DTD/svg11.dtd">
<!-- Generated by graphviz version 2.38.0 (20140413.2041)
 -->
<!-- Title: INMOST::Matrix::sign_func Pages: 1 -->
<svg width="291pt" height="46pt"
 viewBox="0.00 0.00 291.00 46.00" xmlns="http://www.w3.org/2000/svg" xmlns:xlink="http://www.w3.org/1999/xlink">
<g id="graph0" class="graph" transform="scale(1 1) rotate(0) translate(4 42)">
<title>INMOST::Matrix::sign_func</title>
<!-- Node1 -->
<g id="node1" class="node"><title>Node1</title>
<polygon fill="#bfbfbf" stroke="black" points="0,-0.5 0,-19.5 134,-19.5 134,-0.5 0,-0.5"/>
<text text-anchor="middle" x="67" y="-7.5" font-family="Helvetica,sans-Serif" font-size="10.00">INMOST::Matrix::sign_func</text>
</g>
<!-- Node2 -->
<g id="node2" class="node"><title>Node2</title>
<g id="a_node2"><a xlink:href="class_i_n_m_o_s_t_1_1_matrix.html#adf8bb731b7c0899039b99f2399d938c6" target="_top" xlink:title="INMOST::Matrix::SVD">
<polygon fill="none" stroke="black" points="170,-0.5 170,-19.5 283,-19.5 283,-0.5 170,-0.5"/>
<text text-anchor="middle" x="226.5" y="-7.5" font-family="Helvetica,sans-Serif" font-size="10.00">INMOST::Matrix::SVD</text>
</a>
</g>
</g>
<!-- Node1&#45;&gt;Node2 -->
<g id="edge1" class="edge"><title>Node1&#45;&gt;Node2</title>
<path fill="none" stroke="midnightblue" d="M144.613,-10C153.072,-10 161.564,-10 169.698,-10"/>
<polygon fill="midnightblue" stroke="midnightblue" points="144.338,-6.5001 134.338,-10 144.338,-13.5001 144.338,-6.5001"/>
</g>
<!-- Node2&#45;&gt;Node2 -->
<g id="edge2" class="edge"><title>Node2&#45;&gt;Node2</title>
<path fill="none" stroke="midnightblue" d="M197.008,-28.6539C198.24,-33.9368 208.071,-38 226.5,-38 254.582,-38 262.699,-28.5653 250.852,-19.7571"/>
<polygon fill="midnightblue" stroke="midnightblue" points="200.176,-30.1668 202.148,-19.7571 194.114,-26.665 200.176,-30.1668"/>
</g>
</g>
</svg>
