<?xml version="1.0" encoding="UTF-8" standalone="no"?>
<!DOCTYPE svg PUBLIC "-//W3C//DTD SVG 1.1//EN"
 "http://www.w3.org/Graphics/SVG/1.1/DTD/svg11.dtd">
<!-- Generated by graphviz version 2.38.0 (20140413.2041)
 -->
<!-- Title: INMOST::enhanced_multivar_expression::operator= Pages: 1 -->
<svg width="329pt" height="235pt"
 viewBox="0.00 0.00 329.00 235.00" xmlns="http://www.w3.org/2000/svg" xmlns:xlink="http://www.w3.org/1999/xlink">
<g id="graph0" class="graph" transform="scale(1 1) rotate(0) translate(4 231)">
<title>INMOST::enhanced_multivar_expression::operator=</title>
<!-- Node1 -->
<g id="node1" class="node"><title>Node1</title>
<polygon fill="#bfbfbf" stroke="black" points="0,-98.5 0,-128.5 140,-128.5 140,-98.5 0,-98.5"/>
<text text-anchor="start" x="8" y="-116.5" font-family="Helvetica,sans-Serif" font-size="10.00">INMOST::enhanced_multivar</text>
<text text-anchor="middle" x="70" y="-105.5" font-family="Helvetica,sans-Serif" font-size="10.00">_expression::operator=</text>
</g>
<!-- Node2 -->
<g id="node2" class="node"><title>Node2</title>
<g id="a_node2"><a xlink:href="class_i_n_m_o_s_t_1_1_automatizator.html#a5bb5f3a05ecf6694cac01abc586df7af" target="_top" xlink:title="INMOST::Automatizator\l::GetMerger">
<polygon fill="none" stroke="black" points="188.5,-196.5 188.5,-226.5 308.5,-226.5 308.5,-196.5 188.5,-196.5"/>
<text text-anchor="start" x="196.5" y="-214.5" font-family="Helvetica,sans-Serif" font-size="10.00">INMOST::Automatizator</text>
<text text-anchor="middle" x="248.5" y="-203.5" font-family="Helvetica,sans-Serif" font-size="10.00">::GetMerger</text>
</a>
</g>
</g>
<!-- Node1&#45;&gt;Node2 -->
<g id="edge1" class="edge"><title>Node1&#45;&gt;Node2</title>
<path fill="none" stroke="midnightblue" d="M88.9269,-128.601C109.044,-144.937 143.174,-170.872 176,-187.5 179.513,-189.28 183.188,-190.973 186.938,-192.574"/>
<polygon fill="midnightblue" stroke="midnightblue" points="185.78,-195.881 196.364,-196.366 188.393,-189.387 185.78,-195.881"/>
</g>
<!-- Node3 -->
<g id="node3" class="node"><title>Node3</title>
<g id="a_node3"><a xlink:href="class_i_n_m_o_s_t_1_1basic__expression.html#aa609f80b19e9d7cc70614aa667e04920" target="_top" xlink:title="INMOST::basic_expression\l::GetDerivative">
<polygon fill="none" stroke="black" points="181,-147.5 181,-177.5 316,-177.5 316,-147.5 181,-147.5"/>
<text text-anchor="start" x="189" y="-165.5" font-family="Helvetica,sans-Serif" font-size="10.00">INMOST::basic_expression</text>
<text text-anchor="middle" x="248.5" y="-154.5" font-family="Helvetica,sans-Serif" font-size="10.00">::GetDerivative</text>
</a>
</g>
</g>
<!-- Node1&#45;&gt;Node3 -->
<g id="edge2" class="edge"><title>Node1&#45;&gt;Node3</title>
<path fill="none" stroke="midnightblue" d="M125.396,-128.601C143.768,-133.702 164.447,-139.443 183.493,-144.73"/>
<polygon fill="midnightblue" stroke="midnightblue" points="182.712,-148.146 193.284,-147.448 184.584,-141.401 182.712,-148.146"/>
</g>
<!-- Node4 -->
<g id="node4" class="node"><title>Node4</title>
<g id="a_node4"><a xlink:href="class_i_n_m_o_s_t_1_1_sparse_1_1_row_merger.html#ac89fd9b0b08606d13e7e57c93d8c5089" target="_top" xlink:title="INMOST::Sparse::RowMerger\l::RetriveRow">
<polygon fill="none" stroke="black" points="176,-98.5 176,-128.5 321,-128.5 321,-98.5 176,-98.5"/>
<text text-anchor="start" x="184" y="-116.5" font-family="Helvetica,sans-Serif" font-size="10.00">INMOST::Sparse::RowMerger</text>
<text text-anchor="middle" x="248.5" y="-105.5" font-family="Helvetica,sans-Serif" font-size="10.00">::RetriveRow</text>
</a>
</g>
</g>
<!-- Node1&#45;&gt;Node4 -->
<g id="edge3" class="edge"><title>Node1&#45;&gt;Node4</title>
<path fill="none" stroke="midnightblue" d="M140.251,-113.5C148.559,-113.5 157.103,-113.5 165.568,-113.5"/>
<polygon fill="midnightblue" stroke="midnightblue" points="165.835,-117 175.835,-113.5 165.835,-110 165.835,-117"/>
</g>
<!-- Node5 -->
<g id="node5" class="node"><title>Node5</title>
<g id="a_node5"><a xlink:href="class_i_n_m_o_s_t_1_1_sparse_1_1_row_merger.html#ac3cceb3d381017712c7e8dc4c23b85a2" target="_top" xlink:title="Clear linked list. ">
<polygon fill="none" stroke="black" points="176,-49.5 176,-79.5 321,-79.5 321,-49.5 176,-49.5"/>
<text text-anchor="start" x="184" y="-67.5" font-family="Helvetica,sans-Serif" font-size="10.00">INMOST::Sparse::RowMerger</text>
<text text-anchor="middle" x="248.5" y="-56.5" font-family="Helvetica,sans-Serif" font-size="10.00">::Clear</text>
</a>
</g>
</g>
<!-- Node1&#45;&gt;Node5 -->
<g id="edge4" class="edge"><title>Node1&#45;&gt;Node5</title>
<path fill="none" stroke="midnightblue" d="M125.396,-98.3986C143.768,-93.2981 164.447,-87.5571 183.493,-82.2695"/>
<polygon fill="midnightblue" stroke="midnightblue" points="184.584,-85.5991 193.284,-79.5516 182.712,-78.8542 184.584,-85.5991"/>
</g>
<!-- Node6 -->
<g id="node6" class="node"><title>Node6</title>
<g id="a_node6"><a xlink:href="class_i_n_m_o_s_t_1_1basic__expression.html#a80781d2a414c9af01e59a97aeae7151e" target="_top" xlink:title="INMOST::basic_expression\l::GetValue">
<polygon fill="none" stroke="black" points="181,-0.5 181,-30.5 316,-30.5 316,-0.5 181,-0.5"/>
<text text-anchor="start" x="189" y="-18.5" font-family="Helvetica,sans-Serif" font-size="10.00">INMOST::basic_expression</text>
<text text-anchor="middle" x="248.5" y="-7.5" font-family="Helvetica,sans-Serif" font-size="10.00">::GetValue</text>
</a>
</g>
</g>
<!-- Node1&#45;&gt;Node6 -->
<g id="edge5" class="edge"><title>Node1&#45;&gt;Node6</title>
<path fill="none" stroke="midnightblue" d="M89.3702,-98.4059C109.598,-82.3568 143.569,-57.0531 176,-40.5 180.242,-38.3347 184.715,-36.2818 189.269,-34.3526"/>
<polygon fill="midnightblue" stroke="midnightblue" points="190.707,-37.5468 198.681,-30.5704 188.097,-31.0516 190.707,-37.5468"/>
</g>
</g>
</svg>
