<?xml version="1.0" encoding="UTF-8" standalone="no"?>
<!DOCTYPE svg PUBLIC "-//W3C//DTD SVG 1.1//EN"
 "http://www.w3.org/Graphics/SVG/1.1/DTD/svg11.dtd">
<!-- Generated by graphviz version 2.38.0 (20140413.2041)
 -->
<!-- Title: INMOST::dynarray::_reverse_iterator::_reverse_iterator Pages: 1 -->
<svg width="288pt" height="186pt"
 viewBox="0.00 0.00 288.00 186.00" xmlns="http://www.w3.org/2000/svg" xmlns:xlink="http://www.w3.org/1999/xlink">
<g id="graph0" class="graph" transform="scale(1 1) rotate(0) translate(4 182)">
<title>INMOST::dynarray::_reverse_iterator::_reverse_iterator</title>
<!-- Node1 -->
<g id="node1" class="node"><title>Node1</title>
<polygon fill="#bfbfbf" stroke="black" points="0,-68 0,-109 103,-109 103,-68 0,-68"/>
<text text-anchor="start" x="8" y="-97" font-family="Helvetica,sans-Serif" font-size="10.00">INMOST::dynarray::</text>
<text text-anchor="start" x="8" y="-86" font-family="Helvetica,sans-Serif" font-size="10.00">_reverse_iterator::</text>
<text text-anchor="middle" x="51.5" y="-75" font-family="Helvetica,sans-Serif" font-size="10.00">_reverse_iterator</text>
</g>
<!-- Node2 -->
<g id="node2" class="node"><title>Node2</title>
<g id="a_node2"><a xlink:href="class_i_n_m_o_s_t_1_1dynarray_1_1__reverse__iterator.html#a926cfb4bcfe58895a4e9f9db6bc78e4b" target="_top" xlink:title="INMOST::dynarray::\l_reverse_iterator::operator&#45;">
<polygon fill="none" stroke="black" points="143.5,-147.5 143.5,-177.5 275.5,-177.5 275.5,-147.5 143.5,-147.5"/>
<text text-anchor="start" x="151.5" y="-165.5" font-family="Helvetica,sans-Serif" font-size="10.00">INMOST::dynarray::</text>
<text text-anchor="middle" x="209.5" y="-154.5" font-family="Helvetica,sans-Serif" font-size="10.00">_reverse_iterator::operator&#45;</text>
</a>
</g>
</g>
<!-- Node1&#45;&gt;Node2 -->
<g id="edge1" class="edge"><title>Node1&#45;&gt;Node2</title>
<path fill="none" stroke="midnightblue" d="M93.5309,-114.37C107.636,-122.678 123.727,-131.527 139,-138.5 145.967,-141.681 153.486,-144.689 160.916,-147.431"/>
<polygon fill="midnightblue" stroke="midnightblue" points="94.9551,-111.143 84.5766,-109.013 91.3614,-117.15 94.9551,-111.143"/>
</g>
<!-- Node3 -->
<g id="node3" class="node"><title>Node3</title>
<g id="a_node3"><a xlink:href="class_i_n_m_o_s_t_1_1dynarray_1_1__reverse__iterator.html#aaf2b9e8e8deac2163e3882ec99a54337" target="_top" xlink:title="INMOST::dynarray::\l_reverse_iterator::operator+">
<polygon fill="none" stroke="black" points="142,-98.5 142,-128.5 277,-128.5 277,-98.5 142,-98.5"/>
<text text-anchor="start" x="150" y="-116.5" font-family="Helvetica,sans-Serif" font-size="10.00">INMOST::dynarray::</text>
<text text-anchor="middle" x="209.5" y="-105.5" font-family="Helvetica,sans-Serif" font-size="10.00">_reverse_iterator::operator+</text>
</a>
</g>
</g>
<!-- Node1&#45;&gt;Node3 -->
<g id="edge2" class="edge"><title>Node1&#45;&gt;Node3</title>
<path fill="none" stroke="midnightblue" d="M113.198,-98.2272C122.612,-99.7359 132.381,-101.301 141.917,-102.83"/>
<polygon fill="midnightblue" stroke="midnightblue" points="113.577,-94.7433 103.149,-96.6168 112.469,-101.655 113.577,-94.7433"/>
</g>
<!-- Node4 -->
<g id="node4" class="node"><title>Node4</title>
<g id="a_node4"><a xlink:href="class_i_n_m_o_s_t_1_1dynarray_1_1__reverse__iterator.html#a1b09360c5dde40977c89a676d8a1c9b9" target="_top" xlink:title="INMOST::dynarray::\l_reverse_iterator::operator++">
<polygon fill="none" stroke="black" points="139,-49.5 139,-79.5 280,-79.5 280,-49.5 139,-49.5"/>
<text text-anchor="start" x="147" y="-67.5" font-family="Helvetica,sans-Serif" font-size="10.00">INMOST::dynarray::</text>
<text text-anchor="middle" x="209.5" y="-56.5" font-family="Helvetica,sans-Serif" font-size="10.00">_reverse_iterator::operator++</text>
</a>
</g>
</g>
<!-- Node1&#45;&gt;Node4 -->
<g id="edge3" class="edge"><title>Node1&#45;&gt;Node4</title>
<path fill="none" stroke="midnightblue" d="M113.219,-79.1586C121.613,-77.8673 130.287,-76.5328 138.827,-75.219"/>
<polygon fill="midnightblue" stroke="midnightblue" points="112.5,-75.7279 103.149,-80.7079 113.565,-82.6465 112.5,-75.7279"/>
</g>
<!-- Node5 -->
<g id="node5" class="node"><title>Node5</title>
<g id="a_node5"><a xlink:href="class_i_n_m_o_s_t_1_1dynarray_1_1__reverse__iterator.html#a72f51fce264a3ac2f771b41dfe05b681" target="_top" xlink:title="INMOST::dynarray::\l_reverse_iterator::operator&#45;&#45;">
<polygon fill="none" stroke="black" points="142,-0.5 142,-30.5 277,-30.5 277,-0.5 142,-0.5"/>
<text text-anchor="start" x="150" y="-18.5" font-family="Helvetica,sans-Serif" font-size="10.00">INMOST::dynarray::</text>
<text text-anchor="middle" x="209.5" y="-7.5" font-family="Helvetica,sans-Serif" font-size="10.00">_reverse_iterator::operator&#45;&#45;</text>
</a>
</g>
</g>
<!-- Node1&#45;&gt;Node5 -->
<g id="edge4" class="edge"><title>Node1&#45;&gt;Node5</title>
<path fill="none" stroke="midnightblue" d="M95.4916,-62.8527C109.163,-55.1856 124.503,-47.078 139,-40.5 146.707,-37.0031 155.059,-33.6477 163.212,-30.5931"/>
<polygon fill="midnightblue" stroke="midnightblue" points="93.739,-59.8229 86.7743,-67.8069 97.1977,-65.9088 93.739,-59.8229"/>
</g>
</g>
</svg>
