<?xml version="1.0" encoding="UTF-8" standalone="no"?>
<!DOCTYPE svg PUBLIC "-//W3C//DTD SVG 1.1//EN"
 "http://www.w3.org/Graphics/SVG/1.1/DTD/svg11.dtd">
<!-- Generated by graphviz version 2.38.0 (20140413.2041)
 -->
<!-- Title: INMOST::Mesh::SetPrivateMarker Pages: 1 -->
<svg width="321pt" height="88pt"
 viewBox="0.00 0.00 321.00 88.00" xmlns="http://www.w3.org/2000/svg" xmlns:xlink="http://www.w3.org/1999/xlink">
<g id="graph0" class="graph" transform="scale(1 1) rotate(0) translate(4 84)">
<title>INMOST::Mesh::SetPrivateMarker</title>
<!-- Node1 -->
<g id="node1" class="node"><title>Node1</title>
<polygon fill="#bfbfbf" stroke="black" points="0,-24.5 0,-54.5 134,-54.5 134,-24.5 0,-24.5"/>
<text text-anchor="start" x="8" y="-42.5" font-family="Helvetica,sans-Serif" font-size="10.00">INMOST::Mesh::SetPrivate</text>
<text text-anchor="middle" x="67" y="-31.5" font-family="Helvetica,sans-Serif" font-size="10.00">Marker</text>
</g>
<!-- Node2 -->
<g id="node2" class="node"><title>Node2</title>
<g id="a_node2"><a xlink:href="class_i_n_m_o_s_t_1_1_mesh.html#a284d5f2e671908500d394c814f59b0dd" target="_top" xlink:title="INMOST::Mesh::SetPrivate\lMarkerArray">
<polygon fill="none" stroke="black" points="174.5,-49.5 174.5,-79.5 308.5,-79.5 308.5,-49.5 174.5,-49.5"/>
<text text-anchor="start" x="182.5" y="-67.5" font-family="Helvetica,sans-Serif" font-size="10.00">INMOST::Mesh::SetPrivate</text>
<text text-anchor="middle" x="241.5" y="-56.5" font-family="Helvetica,sans-Serif" font-size="10.00">MarkerArray</text>
</a>
</g>
</g>
<!-- Node1&#45;&gt;Node2 -->
<g id="edge1" class="edge"><title>Node1&#45;&gt;Node2</title>
<path fill="none" stroke="midnightblue" d="M144.208,-50.5447C154.3,-52.0072 164.577,-53.4967 174.477,-54.9315"/>
<polygon fill="midnightblue" stroke="midnightblue" points="144.598,-47.0647 134.2,-49.0942 143.594,-53.9923 144.598,-47.0647"/>
</g>
<!-- Node3 -->
<g id="node3" class="node"><title>Node3</title>
<g id="a_node3"><a xlink:href="class_i_n_m_o_s_t_1_1_storage.html#a0e061a35dc4196b9bb88bef49c882c08" target="_top" xlink:title="INMOST::Storage::SetPrivate\lMarker">
<polygon fill="none" stroke="black" points="170,-0.5 170,-30.5 313,-30.5 313,-0.5 170,-0.5"/>
<text text-anchor="start" x="178" y="-18.5" font-family="Helvetica,sans-Serif" font-size="10.00">INMOST::Storage::SetPrivate</text>
<text text-anchor="middle" x="241.5" y="-7.5" font-family="Helvetica,sans-Serif" font-size="10.00">Marker</text>
</a>
</g>
</g>
<!-- Node1&#45;&gt;Node3 -->
<g id="edge2" class="edge"><title>Node1&#45;&gt;Node3</title>
<path fill="none" stroke="midnightblue" d="M144.163,-28.9034C152.72,-27.7128 161.412,-26.5036 169.894,-25.3234"/>
<polygon fill="midnightblue" stroke="midnightblue" points="143.622,-25.4449 134.2,-30.2896 144.587,-32.3781 143.622,-25.4449"/>
</g>
</g>
</svg>
