<?xml version="1.0" encoding="UTF-8" standalone="no"?>
<!DOCTYPE svg PUBLIC "-//W3C//DTD SVG 1.1//EN"
 "http://www.w3.org/Graphics/SVG/1.1/DTD/svg11.dtd">
<!-- Generated by graphviz version 2.38.0 (20140413.2041)
 -->
<!-- Title: INMOST::enhanced_multivar_expression::enhanced_multivar_expression Pages: 1 -->
<svg width="344pt" height="235pt"
 viewBox="0.00 0.00 344.00 235.00" xmlns="http://www.w3.org/2000/svg" xmlns:xlink="http://www.w3.org/1999/xlink">
<g id="graph0" class="graph" transform="scale(1 1) rotate(0) translate(4 231)">
<title>INMOST::enhanced_multivar_expression::enhanced_multivar_expression</title>
<!-- Node1 -->
<g id="node1" class="node"><title>Node1</title>
<polygon fill="#bfbfbf" stroke="black" points="0,-93 0,-134 155,-134 155,-93 0,-93"/>
<text text-anchor="start" x="8" y="-122" font-family="Helvetica,sans-Serif" font-size="10.00">INMOST::enhanced_multivar</text>
<text text-anchor="start" x="8" y="-111" font-family="Helvetica,sans-Serif" font-size="10.00">_expression::enhanced_multivar</text>
<text text-anchor="middle" x="77.5" y="-100" font-family="Helvetica,sans-Serif" font-size="10.00">_expression</text>
</g>
<!-- Node2 -->
<g id="node2" class="node"><title>Node2</title>
<g id="a_node2"><a xlink:href="class_i_n_m_o_s_t_1_1_automatizator.html#a5bb5f3a05ecf6694cac01abc586df7af" target="_top" xlink:title="INMOST::Automatizator\l::GetMerger">
<polygon fill="none" stroke="black" points="203.5,-196.5 203.5,-226.5 323.5,-226.5 323.5,-196.5 203.5,-196.5"/>
<text text-anchor="start" x="211.5" y="-214.5" font-family="Helvetica,sans-Serif" font-size="10.00">INMOST::Automatizator</text>
<text text-anchor="middle" x="263.5" y="-203.5" font-family="Helvetica,sans-Serif" font-size="10.00">::GetMerger</text>
</a>
</g>
</g>
<!-- Node1&#45;&gt;Node2 -->
<g id="edge1" class="edge"><title>Node1&#45;&gt;Node2</title>
<path fill="none" stroke="midnightblue" d="M105.511,-134.145C127.591,-150.297 160.098,-172.465 191,-187.5 194.775,-189.337 198.726,-191.09 202.75,-192.752"/>
<polygon fill="midnightblue" stroke="midnightblue" points="201.634,-196.073 212.222,-196.459 204.185,-189.555 201.634,-196.073"/>
</g>
<!-- Node3 -->
<g id="node3" class="node"><title>Node3</title>
<g id="a_node3"><a xlink:href="class_i_n_m_o_s_t_1_1basic__expression.html#aa609f80b19e9d7cc70614aa667e04920" target="_top" xlink:title="INMOST::basic_expression\l::GetDerivative">
<polygon fill="none" stroke="black" points="196,-147.5 196,-177.5 331,-177.5 331,-147.5 196,-147.5"/>
<text text-anchor="start" x="204" y="-165.5" font-family="Helvetica,sans-Serif" font-size="10.00">INMOST::basic_expression</text>
<text text-anchor="middle" x="263.5" y="-154.5" font-family="Helvetica,sans-Serif" font-size="10.00">::GetDerivative</text>
</a>
</g>
</g>
<!-- Node1&#45;&gt;Node3 -->
<g id="edge2" class="edge"><title>Node1&#45;&gt;Node3</title>
<path fill="none" stroke="midnightblue" d="M155.2,-133.926C168.794,-137.546 182.847,-141.288 196.126,-144.824"/>
<polygon fill="midnightblue" stroke="midnightblue" points="195.545,-148.291 206.109,-147.483 197.346,-141.527 195.545,-148.291"/>
</g>
<!-- Node4 -->
<g id="node4" class="node"><title>Node4</title>
<g id="a_node4"><a xlink:href="class_i_n_m_o_s_t_1_1_sparse_1_1_row_merger.html#ac89fd9b0b08606d13e7e57c93d8c5089" target="_top" xlink:title="INMOST::Sparse::RowMerger\l::RetriveRow">
<polygon fill="none" stroke="black" points="191,-98.5 191,-128.5 336,-128.5 336,-98.5 191,-98.5"/>
<text text-anchor="start" x="199" y="-116.5" font-family="Helvetica,sans-Serif" font-size="10.00">INMOST::Sparse::RowMerger</text>
<text text-anchor="middle" x="263.5" y="-105.5" font-family="Helvetica,sans-Serif" font-size="10.00">::RetriveRow</text>
</a>
</g>
</g>
<!-- Node1&#45;&gt;Node4 -->
<g id="edge3" class="edge"><title>Node1&#45;&gt;Node4</title>
<path fill="none" stroke="midnightblue" d="M155.2,-113.5C163.613,-113.5 172.201,-113.5 180.672,-113.5"/>
<polygon fill="midnightblue" stroke="midnightblue" points="180.929,-117 190.929,-113.5 180.929,-110 180.929,-117"/>
</g>
<!-- Node5 -->
<g id="node5" class="node"><title>Node5</title>
<g id="a_node5"><a xlink:href="class_i_n_m_o_s_t_1_1_sparse_1_1_row_merger.html#ac3cceb3d381017712c7e8dc4c23b85a2" target="_top" xlink:title="Clear linked list. ">
<polygon fill="none" stroke="black" points="191,-49.5 191,-79.5 336,-79.5 336,-49.5 191,-49.5"/>
<text text-anchor="start" x="199" y="-67.5" font-family="Helvetica,sans-Serif" font-size="10.00">INMOST::Sparse::RowMerger</text>
<text text-anchor="middle" x="263.5" y="-56.5" font-family="Helvetica,sans-Serif" font-size="10.00">::Clear</text>
</a>
</g>
</g>
<!-- Node1&#45;&gt;Node5 -->
<g id="edge4" class="edge"><title>Node1&#45;&gt;Node5</title>
<path fill="none" stroke="midnightblue" d="M155.2,-93.0744C168.794,-89.4542 182.847,-85.712 196.126,-82.1758"/>
<polygon fill="midnightblue" stroke="midnightblue" points="197.346,-85.4728 206.109,-79.5173 195.545,-78.7086 197.346,-85.4728"/>
</g>
<!-- Node6 -->
<g id="node6" class="node"><title>Node6</title>
<g id="a_node6"><a xlink:href="class_i_n_m_o_s_t_1_1basic__expression.html#a80781d2a414c9af01e59a97aeae7151e" target="_top" xlink:title="INMOST::basic_expression\l::GetValue">
<polygon fill="none" stroke="black" points="196,-0.5 196,-30.5 331,-30.5 331,-0.5 196,-0.5"/>
<text text-anchor="start" x="204" y="-18.5" font-family="Helvetica,sans-Serif" font-size="10.00">INMOST::basic_expression</text>
<text text-anchor="middle" x="263.5" y="-7.5" font-family="Helvetica,sans-Serif" font-size="10.00">::GetValue</text>
</a>
</g>
</g>
<!-- Node1&#45;&gt;Node6 -->
<g id="edge5" class="edge"><title>Node1&#45;&gt;Node6</title>
<path fill="none" stroke="midnightblue" d="M106.058,-92.9394C128.181,-77.1073 160.48,-55.4685 191,-40.5 195.346,-38.3684 199.921,-36.3328 204.569,-34.4098"/>
<polygon fill="midnightblue" stroke="midnightblue" points="206.143,-37.5513 214.161,-30.6259 203.575,-31.0396 206.143,-37.5513"/>
</g>
</g>
</svg>
