<?xml version="1.0" encoding="UTF-8" standalone="no"?>
<!DOCTYPE svg PUBLIC "-//W3C//DTD SVG 1.1//EN"
 "http://www.w3.org/Graphics/SVG/1.1/DTD/svg11.dtd">
<!-- Generated by graphviz version 2.38.0 (20140413.2041)
 -->
<!-- Title: INMOST::Automatizator::GetDynamicIndexTag Pages: 1 -->
<svg width="489pt" height="192pt"
 viewBox="0.00 0.00 489.00 191.50" xmlns="http://www.w3.org/2000/svg" xmlns:xlink="http://www.w3.org/1999/xlink">
<g id="graph0" class="graph" transform="scale(1 1) rotate(0) translate(4 187.5)">
<title>INMOST::Automatizator::GetDynamicIndexTag</title>
<!-- Node1 -->
<g id="node1" class="node"><title>Node1</title>
<polygon fill="#bfbfbf" stroke="black" points="0,-73.5 0,-103.5 120,-103.5 120,-73.5 0,-73.5"/>
<text text-anchor="start" x="8" y="-91.5" font-family="Helvetica,sans-Serif" font-size="10.00">INMOST::Automatizator</text>
<text text-anchor="middle" x="60" y="-80.5" font-family="Helvetica,sans-Serif" font-size="10.00">::GetDynamicIndexTag</text>
</g>
<!-- Node2 -->
<g id="node2" class="node"><title>Node2</title>
<g id="a_node2"><a xlink:href="class_i_n_m_o_s_t_1_1_automatizator.html#a3b9418a007184a35890a508d92fdb61c" target="_top" xlink:title="INMOST::Automatizator\l::GetDynamicIndex">
<polygon fill="none" stroke="black" points="163,-147.5 163,-177.5 283,-177.5 283,-147.5 163,-147.5"/>
<text text-anchor="start" x="171" y="-165.5" font-family="Helvetica,sans-Serif" font-size="10.00">INMOST::Automatizator</text>
<text text-anchor="middle" x="223" y="-154.5" font-family="Helvetica,sans-Serif" font-size="10.00">::GetDynamicIndex</text>
</a>
</g>
</g>
<!-- Node1&#45;&gt;Node2 -->
<g id="edge1" class="edge"><title>Node1&#45;&gt;Node2</title>
<path fill="none" stroke="midnightblue" d="M96.3583,-108.575C113.998,-118.211 135.826,-129.572 156,-138.5 163.024,-141.608 170.588,-144.64 178.001,-147.445"/>
<polygon fill="midnightblue" stroke="midnightblue" points="97.9936,-105.48 87.5467,-103.716 94.613,-111.61 97.9936,-105.48"/>
</g>
<!-- Node4 -->
<g id="node4" class="node"><title>Node4</title>
<g id="a_node4"><a xlink:href="class_i_n_m_o_s_t_1_1_automatizator.html#a55fa3c6b0c26f26037954f87a86854a3" target="_top" xlink:title="INMOST::Automatizator\l::GetIndex">
<polygon fill="none" stroke="black" points="163,-98.5 163,-128.5 283,-128.5 283,-98.5 163,-98.5"/>
<text text-anchor="start" x="171" y="-116.5" font-family="Helvetica,sans-Serif" font-size="10.00">INMOST::Automatizator</text>
<text text-anchor="middle" x="223" y="-105.5" font-family="Helvetica,sans-Serif" font-size="10.00">::GetIndex</text>
</a>
</g>
</g>
<!-- Node1&#45;&gt;Node4 -->
<g id="edge3" class="edge"><title>Node1&#45;&gt;Node4</title>
<path fill="none" stroke="midnightblue" d="M130.01,-99.2158C140.986,-100.92 152.252,-102.67 162.971,-104.334"/>
<polygon fill="midnightblue" stroke="midnightblue" points="130.455,-95.7431 120.036,-97.6671 129.381,-102.66 130.455,-95.7431"/>
</g>
<!-- Node5 -->
<g id="node5" class="node"><title>Node5</title>
<g id="a_node5"><a xlink:href="class_i_n_m_o_s_t_1_1_automatizator.html#a571b357aebd31b957e1fdc328e270e58" target="_top" xlink:title="INMOST::Automatizator\l::GetComponents">
<polygon fill="none" stroke="black" points="163,-49.5 163,-79.5 283,-79.5 283,-49.5 163,-49.5"/>
<text text-anchor="start" x="171" y="-67.5" font-family="Helvetica,sans-Serif" font-size="10.00">INMOST::Automatizator</text>
<text text-anchor="middle" x="223" y="-56.5" font-family="Helvetica,sans-Serif" font-size="10.00">::GetComponents</text>
</a>
</g>
</g>
<!-- Node1&#45;&gt;Node5 -->
<g id="edge4" class="edge"><title>Node1&#45;&gt;Node5</title>
<path fill="none" stroke="midnightblue" d="M130.01,-78.2128C140.986,-76.5767 152.252,-74.8972 162.971,-73.2994"/>
<polygon fill="midnightblue" stroke="midnightblue" points="129.411,-74.7633 120.036,-79.6996 130.443,-81.6868 129.411,-74.7633"/>
</g>
<!-- Node6 -->
<g id="node6" class="node"><title>Node6</title>
<g id="a_node6"><a xlink:href="class_i_n_m_o_s_t_1_1dynamic__variable.html#a681874b35071574a0ed8a1ab928f959e" target="_top" xlink:title="INMOST::dynamic_variable\l::dynamic_variable">
<polygon fill="none" stroke="black" points="156,-0.5 156,-30.5 290,-30.5 290,-0.5 156,-0.5"/>
<text text-anchor="start" x="164" y="-18.5" font-family="Helvetica,sans-Serif" font-size="10.00">INMOST::dynamic_variable</text>
<text text-anchor="middle" x="223" y="-7.5" font-family="Helvetica,sans-Serif" font-size="10.00">::dynamic_variable</text>
</a>
</g>
</g>
<!-- Node1&#45;&gt;Node6 -->
<g id="edge5" class="edge"><title>Node1&#45;&gt;Node6</title>
<path fill="none" stroke="midnightblue" d="M98.1266,-68.5944C115.499,-59.5779 136.595,-49.0488 156,-40.5 163.737,-37.0915 172.098,-33.7042 180.184,-30.5743"/>
<polygon fill="midnightblue" stroke="midnightblue" points="96.1306,-65.6886 88.8927,-73.4258 99.3758,-71.8909 96.1306,-65.6886"/>
</g>
<!-- Node3 -->
<g id="node3" class="node"><title>Node3</title>
<g id="a_node3"><a xlink:href="class_i_n_m_o_s_t_1_1enhanced__multivar__expression.html#aa7a9b5c6c18e890d941c0abaf36fc9ac" target="_top" xlink:title="INMOST::enhanced_multivar\l_expression::enhanced_multivar\l_expression">
<polygon fill="none" stroke="black" points="326,-142 326,-183 481,-183 481,-142 326,-142"/>
<text text-anchor="start" x="334" y="-171" font-family="Helvetica,sans-Serif" font-size="10.00">INMOST::enhanced_multivar</text>
<text text-anchor="start" x="334" y="-160" font-family="Helvetica,sans-Serif" font-size="10.00">_expression::enhanced_multivar</text>
<text text-anchor="middle" x="403.5" y="-149" font-family="Helvetica,sans-Serif" font-size="10.00">_expression</text>
</a>
</g>
</g>
<!-- Node2&#45;&gt;Node3 -->
<g id="edge2" class="edge"><title>Node2&#45;&gt;Node3</title>
<path fill="none" stroke="midnightblue" d="M293.474,-162.5C304.09,-162.5 315.098,-162.5 325.857,-162.5"/>
<polygon fill="midnightblue" stroke="midnightblue" points="293.438,-159 283.438,-162.5 293.438,-166 293.438,-159"/>
</g>
</g>
</svg>
