<?xml version="1.0" encoding="UTF-8" standalone="no"?>
<!DOCTYPE svg PUBLIC "-//W3C//DTD SVG 1.1//EN"
 "http://www.w3.org/Graphics/SVG/1.1/DTD/svg11.dtd">
<!-- Generated by graphviz version 2.38.0 (20140413.2041)
 -->
<!-- Title: INMOST::soft_sign_expression&lt; A &gt; Pages: 1 -->
<svg width="246pt" height="636pt"
 viewBox="0.00 0.00 246.00 636.00" xmlns="http://www.w3.org/2000/svg" xmlns:xlink="http://www.w3.org/1999/xlink">
<g id="graph0" class="graph" transform="scale(1 1) rotate(0) translate(4 632)">
<title>INMOST::soft_sign_expression&lt; A &gt;</title>
<!-- Node1 -->
<g id="node1" class="node"><title>Node1</title>
<polygon fill="#bfbfbf" stroke="black" points="0,-0.5 0,-101.5 176,-101.5 176,-0.5 0,-0.5"/>
<text text-anchor="middle" x="88" y="-89.5" font-family="Helvetica,sans-Serif" font-size="10.00">INMOST::soft_sign_expression&lt; A &gt;</text>
<polyline fill="none" stroke="black" points="0,-82.5 176,-82.5 "/>
<text text-anchor="middle" x="88" y="-70.5" font-family="Helvetica,sans-Serif" font-size="10.00"> </text>
<polyline fill="none" stroke="black" points="0,-63.5 176,-63.5 "/>
<text text-anchor="start" x="8" y="-51.5" font-family="Helvetica,sans-Serif" font-size="10.00">+ soft_sign_expression()</text>
<text text-anchor="start" x="8" y="-40.5" font-family="Helvetica,sans-Serif" font-size="10.00">+ soft_sign_expression()</text>
<text text-anchor="start" x="8" y="-29.5" font-family="Helvetica,sans-Serif" font-size="10.00">+ GetValue()</text>
<text text-anchor="start" x="8" y="-18.5" font-family="Helvetica,sans-Serif" font-size="10.00">+ GetDerivative()</text>
<text text-anchor="start" x="8" y="-7.5" font-family="Helvetica,sans-Serif" font-size="10.00">+ GetDerivative()</text>
</g>
<!-- Node2 -->
<g id="node2" class="node"><title>Node2</title>
<g id="a_node2"><a xlink:href="class_i_n_m_o_s_t_1_1shell__expression.html" target="_top" xlink:title="{INMOST::shell_expression\l\&lt; soft_sign_expression\&lt; A \&gt; \&gt;\n||+ shell_expression()\l+ shell_expression()\l+ GetValue()\l+ GetDerivative()\l+ GetDerivative()\l+ operator soft_sign\l_expression\&lt; A \&gt; &amp;()\l+ operator const soft\l_sign_expression\&lt; A \&gt; &amp;()\l}">
<polygon fill="none" stroke="black" points="12.5,-139.5 12.5,-295.5 163.5,-295.5 163.5,-139.5 12.5,-139.5"/>
<text text-anchor="start" x="20.5" y="-283.5" font-family="Helvetica,sans-Serif" font-size="10.00">INMOST::shell_expression</text>
<text text-anchor="middle" x="88" y="-272.5" font-family="Helvetica,sans-Serif" font-size="10.00">&lt; soft_sign_expression&lt; A &gt; &gt;</text>
<polyline fill="none" stroke="black" points="12.5,-265.5 163.5,-265.5 "/>
<text text-anchor="middle" x="88" y="-253.5" font-family="Helvetica,sans-Serif" font-size="10.00"> </text>
<polyline fill="none" stroke="black" points="12.5,-246.5 163.5,-246.5 "/>
<text text-anchor="start" x="20.5" y="-234.5" font-family="Helvetica,sans-Serif" font-size="10.00">+ shell_expression()</text>
<text text-anchor="start" x="20.5" y="-223.5" font-family="Helvetica,sans-Serif" font-size="10.00">+ shell_expression()</text>
<text text-anchor="start" x="20.5" y="-212.5" font-family="Helvetica,sans-Serif" font-size="10.00">+ GetValue()</text>
<text text-anchor="start" x="20.5" y="-201.5" font-family="Helvetica,sans-Serif" font-size="10.00">+ GetDerivative()</text>
<text text-anchor="start" x="20.5" y="-190.5" font-family="Helvetica,sans-Serif" font-size="10.00">+ GetDerivative()</text>
<text text-anchor="start" x="20.5" y="-179.5" font-family="Helvetica,sans-Serif" font-size="10.00">+ operator soft_sign</text>
<text text-anchor="start" x="20.5" y="-168.5" font-family="Helvetica,sans-Serif" font-size="10.00">_expression&lt; A &gt; &amp;()</text>
<text text-anchor="start" x="20.5" y="-157.5" font-family="Helvetica,sans-Serif" font-size="10.00">+ operator const soft</text>
<text text-anchor="start" x="20.5" y="-146.5" font-family="Helvetica,sans-Serif" font-size="10.00">_sign_expression&lt; A &gt; &amp;()</text>
</a>
</g>
</g>
<!-- Node2&#45;&gt;Node1 -->
<g id="edge1" class="edge"><title>Node2&#45;&gt;Node1</title>
<path fill="none" stroke="midnightblue" d="M88,-128.964C88,-119.664 88,-110.456 88,-101.816"/>
<polygon fill="none" stroke="midnightblue" points="84.5001,-129.067 88,-139.067 91.5001,-129.067 84.5001,-129.067"/>
</g>
<!-- Node3 -->
<g id="node3" class="node"><title>Node3</title>
<g id="a_node3"><a xlink:href="class_i_n_m_o_s_t_1_1basic__expression.html" target="_top" xlink:title="{INMOST::basic_expression\n||+ basic_expression()\l+ basic_expression()\l+ GetValue()\l+ GetDerivative()\l+ GetDerivative()\l}">
<polygon fill="none" stroke="black" points="34.5,-526.5 34.5,-627.5 169.5,-627.5 169.5,-526.5 34.5,-526.5"/>
<text text-anchor="middle" x="102" y="-615.5" font-family="Helvetica,sans-Serif" font-size="10.00">INMOST::basic_expression</text>
<polyline fill="none" stroke="black" points="34.5,-608.5 169.5,-608.5 "/>
<text text-anchor="middle" x="102" y="-596.5" font-family="Helvetica,sans-Serif" font-size="10.00"> </text>
<polyline fill="none" stroke="black" points="34.5,-589.5 169.5,-589.5 "/>
<text text-anchor="start" x="42.5" y="-577.5" font-family="Helvetica,sans-Serif" font-size="10.00">+ basic_expression()</text>
<text text-anchor="start" x="42.5" y="-566.5" font-family="Helvetica,sans-Serif" font-size="10.00">+ basic_expression()</text>
<text text-anchor="start" x="42.5" y="-555.5" font-family="Helvetica,sans-Serif" font-size="10.00">+ GetValue()</text>
<text text-anchor="start" x="42.5" y="-544.5" font-family="Helvetica,sans-Serif" font-size="10.00">+ GetDerivative()</text>
<text text-anchor="start" x="42.5" y="-533.5" font-family="Helvetica,sans-Serif" font-size="10.00">+ GetDerivative()</text>
</a>
</g>
</g>
<!-- Node3&#45;&gt;Node2 -->
<g id="edge2" class="edge"><title>Node3&#45;&gt;Node2</title>
<path fill="none" stroke="midnightblue" d="M93.5282,-516.242C92.5025,-507.133 91.6051,-497.828 91,-489 86.5363,-423.872 86.0355,-349.721 86.51,-295.547"/>
<polygon fill="none" stroke="midnightblue" points="90.0803,-516.889 94.7321,-526.408 97.0317,-516.066 90.0803,-516.889"/>
</g>
<!-- Node4 -->
<g id="node4" class="node"><title>Node4</title>
<g id="a_node4"><a xlink:href="class_i_n_m_o_s_t_1_1shell__expression.html" target="_top" xlink:title="{INMOST::shell_expression\l\&lt; Derived \&gt;\n||+ shell_expression()\l+ shell_expression()\l+ GetValue()\l+ GetDerivative()\l+ GetDerivative()\l+ operator Derived &amp;()\l+ operator const Derived &amp;()\l}">
<polygon fill="none" stroke="black" points="100,-354.5 100,-488.5 238,-488.5 238,-354.5 100,-354.5"/>
<text text-anchor="start" x="108" y="-476.5" font-family="Helvetica,sans-Serif" font-size="10.00">INMOST::shell_expression</text>
<text text-anchor="middle" x="169" y="-465.5" font-family="Helvetica,sans-Serif" font-size="10.00">&lt; Derived &gt;</text>
<polyline fill="none" stroke="black" points="100,-458.5 238,-458.5 "/>
<text text-anchor="middle" x="169" y="-446.5" font-family="Helvetica,sans-Serif" font-size="10.00"> </text>
<polyline fill="none" stroke="black" points="100,-439.5 238,-439.5 "/>
<text text-anchor="start" x="108" y="-427.5" font-family="Helvetica,sans-Serif" font-size="10.00">+ shell_expression()</text>
<text text-anchor="start" x="108" y="-416.5" font-family="Helvetica,sans-Serif" font-size="10.00">+ shell_expression()</text>
<text text-anchor="start" x="108" y="-405.5" font-family="Helvetica,sans-Serif" font-size="10.00">+ GetValue()</text>
<text text-anchor="start" x="108" y="-394.5" font-family="Helvetica,sans-Serif" font-size="10.00">+ GetDerivative()</text>
<text text-anchor="start" x="108" y="-383.5" font-family="Helvetica,sans-Serif" font-size="10.00">+ GetDerivative()</text>
<text text-anchor="start" x="108" y="-372.5" font-family="Helvetica,sans-Serif" font-size="10.00">+ operator Derived &amp;()</text>
<text text-anchor="start" x="108" y="-361.5" font-family="Helvetica,sans-Serif" font-size="10.00">+ operator const Derived &amp;()</text>
</a>
</g>
</g>
<!-- Node3&#45;&gt;Node4 -->
<g id="edge4" class="edge"><title>Node3&#45;&gt;Node4</title>
<path fill="none" stroke="midnightblue" d="M127.879,-516.711C131.902,-507.494 136.079,-497.923 140.163,-488.568"/>
<polygon fill="none" stroke="midnightblue" points="124.546,-515.598 123.753,-526.163 130.961,-518.398 124.546,-515.598"/>
</g>
<!-- Node4&#45;&gt;Node2 -->
<g id="edge3" class="edge"><title>Node4&#45;&gt;Node2</title>
<path fill="none" stroke="orange" d="M138.722,-344.993C132.262,-328.882 125.431,-311.846 118.946,-295.674"/>
<polygon fill="orange" stroke="orange" points="135.507,-346.379 142.478,-354.358 142.004,-343.773 135.507,-346.379"/>
<text text-anchor="start" x="133" y="-328" font-family="Helvetica,sans-Serif" font-size="10.00"> &lt; soft_sign_expression</text>
<text text-anchor="middle" x="185" y="-317" font-family="Helvetica,sans-Serif" font-size="10.00">&lt; A &gt; &gt;</text>
</g>
</g>
</svg>
