<?xml version="1.0" encoding="UTF-8" standalone="no"?>
<!DOCTYPE svg PUBLIC "-//W3C//DTD SVG 1.1//EN"
 "http://www.w3.org/Graphics/SVG/1.1/DTD/svg11.dtd">
<!-- Generated by graphviz version 2.38.0 (20140413.2041)
 -->
<!-- Title: INMOST::unary_pool::get_op Pages: 1 -->
<svg width="282pt" height="88pt"
 viewBox="0.00 0.00 282.00 88.00" xmlns="http://www.w3.org/2000/svg" xmlns:xlink="http://www.w3.org/1999/xlink">
<g id="graph0" class="graph" transform="scale(1 1) rotate(0) translate(4 84)">
<title>INMOST::unary_pool::get_op</title>
<!-- Node1 -->
<g id="node1" class="node"><title>Node1</title>
<polygon fill="#bfbfbf" stroke="black" points="0,-24.5 0,-54.5 107,-54.5 107,-24.5 0,-24.5"/>
<text text-anchor="start" x="8" y="-42.5" font-family="Helvetica,sans-Serif" font-size="10.00">INMOST::unary_pool</text>
<text text-anchor="middle" x="53.5" y="-31.5" font-family="Helvetica,sans-Serif" font-size="10.00">::get_op</text>
</g>
<!-- Node2 -->
<g id="node2" class="node"><title>Node2</title>
<g id="a_node2"><a xlink:href="class_i_n_m_o_s_t_1_1unary__pool__expression.html#aa4bcacb25483728a38a32124eeef8c06" target="_top" xlink:title="INMOST::unary_pool\l_expression::GetValue">
<polygon fill="none" stroke="black" points="150.5,-49.5 150.5,-79.5 266.5,-79.5 266.5,-49.5 150.5,-49.5"/>
<text text-anchor="start" x="158.5" y="-67.5" font-family="Helvetica,sans-Serif" font-size="10.00">INMOST::unary_pool</text>
<text text-anchor="middle" x="208.5" y="-56.5" font-family="Helvetica,sans-Serif" font-size="10.00">_expression::GetValue</text>
</a>
</g>
</g>
<!-- Node1&#45;&gt;Node2 -->
<g id="edge1" class="edge"><title>Node1&#45;&gt;Node2</title>
<path fill="none" stroke="midnightblue" d="M117.105,-49.7295C128.091,-51.5247 139.473,-53.3844 150.302,-55.154"/>
<polygon fill="midnightblue" stroke="midnightblue" points="117.587,-46.2621 107.154,-48.1036 116.459,-53.1705 117.587,-46.2621"/>
</g>
<!-- Node3 -->
<g id="node3" class="node"><title>Node3</title>
<g id="a_node3"><a xlink:href="class_i_n_m_o_s_t_1_1unary__pool__expression.html#a3fecd3d97ed067da7191f1a0515ea63d" target="_top" xlink:title="INMOST::unary_pool\l_expression::GetDerivative">
<polygon fill="none" stroke="black" points="143,-0.5 143,-30.5 274,-30.5 274,-0.5 143,-0.5"/>
<text text-anchor="start" x="151" y="-18.5" font-family="Helvetica,sans-Serif" font-size="10.00">INMOST::unary_pool</text>
<text text-anchor="middle" x="208.5" y="-7.5" font-family="Helvetica,sans-Serif" font-size="10.00">_expression::GetDerivative</text>
</a>
</g>
</g>
<!-- Node1&#45;&gt;Node3 -->
<g id="edge2" class="edge"><title>Node1&#45;&gt;Node3</title>
<path fill="none" stroke="midnightblue" d="M117.295,-29.6498C125.726,-28.3273 134.386,-26.9689 142.848,-25.6415"/>
<polygon fill="midnightblue" stroke="midnightblue" points="116.491,-26.2331 107.154,-31.2406 117.576,-33.1485 116.491,-26.2331"/>
</g>
</g>
</svg>
