<?xml version="1.0" encoding="UTF-8" standalone="no"?>
<!DOCTYPE svg PUBLIC "-//W3C//DTD SVG 1.1//EN"
 "http://www.w3.org/Graphics/SVG/1.1/DTD/svg11.dtd">
<!-- Generated by graphviz version 2.38.0 (20140413.2041)
 -->
<!-- Title: INMOST::Matrix::Zero Pages: 1 -->
<svg width="625pt" height="210pt"
 viewBox="0.00 0.00 625.00 210.00" xmlns="http://www.w3.org/2000/svg" xmlns:xlink="http://www.w3.org/1999/xlink">
<g id="graph0" class="graph" transform="scale(1 1) rotate(0) translate(4 206)">
<title>INMOST::Matrix::Zero</title>
<!-- Node1 -->
<g id="node1" class="node"><title>Node1</title>
<polygon fill="#bfbfbf" stroke="black" points="0,-88.5 0,-107.5 111,-107.5 111,-88.5 0,-88.5"/>
<text text-anchor="middle" x="55.5" y="-95.5" font-family="Helvetica,sans-Serif" font-size="10.00">INMOST::Matrix::Zero</text>
</g>
<!-- Node2 -->
<g id="node2" class="node"><title>Node2</title>
<g id="a_node2"><a xlink:href="class_i_n_m_o_s_t_1_1_matrix.html#adf8bb731b7c0899039b99f2399d938c6" target="_top" xlink:title="INMOST::Matrix::SVD">
<polygon fill="none" stroke="black" points="166.5,-164.5 166.5,-183.5 279.5,-183.5 279.5,-164.5 166.5,-164.5"/>
<text text-anchor="middle" x="223" y="-171.5" font-family="Helvetica,sans-Serif" font-size="10.00">INMOST::Matrix::SVD</text>
</a>
</g>
</g>
<!-- Node1&#45;&gt;Node2 -->
<g id="edge1" class="edge"><title>Node1&#45;&gt;Node2</title>
<path fill="none" stroke="midnightblue" d="M77.3792,-113.829C95.0778,-126.57 121.568,-144.095 147,-155 155.765,-158.758 165.437,-161.894 174.839,-164.462"/>
<polygon fill="midnightblue" stroke="midnightblue" points="79.1102,-110.758 68.9776,-107.662 74.9682,-116.401 79.1102,-110.758"/>
</g>
<!-- Node3 -->
<g id="node3" class="node"><title>Node3</title>
<g id="a_node3"><a xlink:href="class_i_n_m_o_s_t_1_1_matrix.html#a8ab6869d8a6ccd6ab67522912078ec06" target="_top" xlink:title="INMOST::Matrix::FromTensor">
<polygon fill="none" stroke="black" points="151,-126.5 151,-145.5 295,-145.5 295,-126.5 151,-126.5"/>
<text text-anchor="middle" x="223" y="-133.5" font-family="Helvetica,sans-Serif" font-size="10.00">INMOST::Matrix::FromTensor</text>
</a>
</g>
</g>
<!-- Node1&#45;&gt;Node3 -->
<g id="edge3" class="edge"><title>Node1&#45;&gt;Node3</title>
<path fill="none" stroke="midnightblue" d="M108.311,-109.896C131.573,-115.237 158.647,-121.454 180.538,-126.48"/>
<polygon fill="midnightblue" stroke="midnightblue" points="108.792,-106.416 98.2626,-107.589 107.226,-113.238 108.792,-106.416"/>
</g>
<!-- Node4 -->
<g id="node4" class="node"><title>Node4</title>
<g id="a_node4"><a xlink:href="class_i_n_m_o_s_t_1_1_matrix.html#a69609050a28dba406501b358260afece" target="_top" xlink:title="INMOST::Matrix::FromDiagonal">
<polygon fill="none" stroke="black" points="147,-88.5 147,-107.5 299,-107.5 299,-88.5 147,-88.5"/>
<text text-anchor="middle" x="223" y="-95.5" font-family="Helvetica,sans-Serif" font-size="10.00">INMOST::Matrix::FromDiagonal</text>
</a>
</g>
</g>
<!-- Node1&#45;&gt;Node4 -->
<g id="edge4" class="edge"><title>Node1&#45;&gt;Node4</title>
<path fill="none" stroke="midnightblue" d="M121.207,-98C129.577,-98 138.206,-98 146.729,-98"/>
<polygon fill="midnightblue" stroke="midnightblue" points="121.15,-94.5001 111.15,-98 121.15,-101.5 121.15,-94.5001"/>
</g>
<!-- Node5 -->
<g id="node5" class="node"><title>Node5</title>
<g id="a_node5"><a xlink:href="class_i_n_m_o_s_t_1_1_matrix.html#a6621ea7517cde9cd2bdadd42e472bda5" target="_top" xlink:title="INMOST::Matrix::FromDiagonal\lInverse">
<polygon fill="none" stroke="black" points="147,-39 147,-69 299,-69 299,-39 147,-39"/>
<text text-anchor="start" x="155" y="-57" font-family="Helvetica,sans-Serif" font-size="10.00">INMOST::Matrix::FromDiagonal</text>
<text text-anchor="middle" x="223" y="-46" font-family="Helvetica,sans-Serif" font-size="10.00">Inverse</text>
</a>
</g>
</g>
<!-- Node1&#45;&gt;Node5 -->
<g id="edge5" class="edge"><title>Node1&#45;&gt;Node5</title>
<path fill="none" stroke="midnightblue" d="M102.271,-85.8313C121.787,-80.6426 144.759,-74.5354 165.334,-69.0654"/>
<polygon fill="midnightblue" stroke="midnightblue" points="101.176,-82.5007 92.411,-88.4527 102.975,-89.2657 101.176,-82.5007"/>
</g>
<!-- Node6 -->
<g id="node6" class="node"><title>Node6</title>
<g id="a_node6"><a xlink:href="class_i_n_m_o_s_t_1_1_matrix.html#abca452418b15fa0b7c74f3299c59e9e1" target="_top" xlink:title="INMOST::Matrix::Unit">
<polygon fill="none" stroke="black" points="168,-0.5 168,-19.5 278,-19.5 278,-0.5 168,-0.5"/>
<text text-anchor="middle" x="223" y="-7.5" font-family="Helvetica,sans-Serif" font-size="10.00">INMOST::Matrix::Unit</text>
</a>
</g>
</g>
<!-- Node1&#45;&gt;Node6 -->
<g id="edge6" class="edge"><title>Node1&#45;&gt;Node6</title>
<path fill="none" stroke="midnightblue" d="M74.0974,-81.4875C91.4052,-66.0857 119.203,-43.5129 147,-30 155.726,-25.7579 165.476,-22.32 174.985,-19.5694"/>
<polygon fill="midnightblue" stroke="midnightblue" points="71.5363,-79.0855 66.4895,-88.4012 76.2441,-84.266 71.5363,-79.0855"/>
</g>
<!-- Node2&#45;&gt;Node2 -->
<g id="edge2" class="edge"><title>Node2&#45;&gt;Node2</title>
<path fill="none" stroke="midnightblue" d="M191.937,-192.275C192.823,-197.741 203.177,-202 223,-202 252.504,-202 261.032,-192.565 248.585,-183.757"/>
<polygon fill="midnightblue" stroke="midnightblue" points="194.949,-194.061 197.415,-183.757 189.062,-190.275 194.949,-194.061"/>
</g>
<!-- Node7 -->
<g id="node7" class="node"><title>Node7</title>
<g id="a_node7"><a xlink:href="class_i_n_m_o_s_t_1_1_matrix.html#ab621083d1f37df018feec6163618c1cd" target="_top" xlink:title="INMOST::Matrix::Invert">
<polygon fill="none" stroke="black" points="335,-0.5 335,-19.5 450,-19.5 450,-0.5 335,-0.5"/>
<text text-anchor="middle" x="392.5" y="-7.5" font-family="Helvetica,sans-Serif" font-size="10.00">INMOST::Matrix::Invert</text>
</a>
</g>
</g>
<!-- Node6&#45;&gt;Node7 -->
<g id="edge7" class="edge"><title>Node6&#45;&gt;Node7</title>
<path fill="none" stroke="midnightblue" d="M288.731,-10C303.922,-10 319.993,-10 334.8,-10"/>
<polygon fill="midnightblue" stroke="midnightblue" points="288.382,-6.5001 278.382,-10 288.382,-13.5001 288.382,-6.5001"/>
</g>
<!-- Node8 -->
<g id="node8" class="node"><title>Node8</title>
<g id="a_node8"><a xlink:href="class_i_n_m_o_s_t_1_1_matrix.html#a308fc7a550c7de8c21b9ef17eecba603" target="_top" xlink:title="INMOST::Matrix::operator/">
<polygon fill="none" stroke="black" points="486,-0.5 486,-19.5 617,-19.5 617,-0.5 486,-0.5"/>
<text text-anchor="middle" x="551.5" y="-7.5" font-family="Helvetica,sans-Serif" font-size="10.00">INMOST::Matrix::operator/</text>
</a>
</g>
</g>
<!-- Node7&#45;&gt;Node8 -->
<g id="edge8" class="edge"><title>Node7&#45;&gt;Node8</title>
<path fill="none" stroke="midnightblue" d="M460.381,-10C468.84,-10 477.483,-10 485.906,-10"/>
<polygon fill="midnightblue" stroke="midnightblue" points="460.181,-6.5001 450.181,-10 460.181,-13.5001 460.181,-6.5001"/>
</g>
</g>
</svg>
