<?xml version="1.0" encoding="UTF-8" standalone="no"?>
<!DOCTYPE svg PUBLIC "-//W3C//DTD SVG 1.1//EN"
 "http://www.w3.org/Graphics/SVG/1.1/DTD/svg11.dtd">
<!-- Generated by graphviz version 2.38.0 (20140413.2041)
 -->
<!-- Title: INMOST::reciprocal_expression&lt; A &gt; Pages: 1 -->
<svg width="237pt" height="647pt"
 viewBox="0.00 0.00 237.00 647.00" xmlns="http://www.w3.org/2000/svg" xmlns:xlink="http://www.w3.org/1999/xlink">
<g id="graph0" class="graph" transform="scale(1 1) rotate(0) translate(4 643)">
<title>INMOST::reciprocal_expression&lt; A &gt;</title>
<!-- Node1 -->
<g id="node1" class="node"><title>Node1</title>
<polygon fill="#bfbfbf" stroke="black" points="14,-0.5 14,-112.5 140,-112.5 140,-0.5 14,-0.5"/>
<text text-anchor="start" x="22" y="-100.5" font-family="Helvetica,sans-Serif" font-size="10.00">INMOST::reciprocal</text>
<text text-anchor="middle" x="77" y="-89.5" font-family="Helvetica,sans-Serif" font-size="10.00">_expression&lt; A &gt;</text>
<polyline fill="none" stroke="black" points="14,-82.5 140,-82.5 "/>
<text text-anchor="middle" x="77" y="-70.5" font-family="Helvetica,sans-Serif" font-size="10.00"> </text>
<polyline fill="none" stroke="black" points="14,-63.5 140,-63.5 "/>
<text text-anchor="start" x="22" y="-51.5" font-family="Helvetica,sans-Serif" font-size="10.00">+ reciprocal_expression()</text>
<text text-anchor="start" x="22" y="-40.5" font-family="Helvetica,sans-Serif" font-size="10.00">+ reciprocal_expression()</text>
<text text-anchor="start" x="22" y="-29.5" font-family="Helvetica,sans-Serif" font-size="10.00">+ GetValue()</text>
<text text-anchor="start" x="22" y="-18.5" font-family="Helvetica,sans-Serif" font-size="10.00">+ GetDerivative()</text>
<text text-anchor="start" x="22" y="-7.5" font-family="Helvetica,sans-Serif" font-size="10.00">+ GetDerivative()</text>
</g>
<!-- Node2 -->
<g id="node2" class="node"><title>Node2</title>
<g id="a_node2"><a xlink:href="class_i_n_m_o_s_t_1_1shell__expression.html" target="_top" xlink:title="{INMOST::shell_expression\l\&lt; reciprocal_expression\&lt; A \&gt; \&gt;\n||+ shell_expression()\l+ shell_expression()\l+ GetValue()\l+ GetDerivative()\l+ GetDerivative()\l+ operator reciprocal\l_expression\&lt; A \&gt; &amp;()\l+ operator const reciprocal\l_expression\&lt; A \&gt; &amp;()\l}">
<polygon fill="none" stroke="black" points="0,-150.5 0,-306.5 154,-306.5 154,-150.5 0,-150.5"/>
<text text-anchor="start" x="8" y="-294.5" font-family="Helvetica,sans-Serif" font-size="10.00">INMOST::shell_expression</text>
<text text-anchor="middle" x="77" y="-283.5" font-family="Helvetica,sans-Serif" font-size="10.00">&lt; reciprocal_expression&lt; A &gt; &gt;</text>
<polyline fill="none" stroke="black" points="0,-276.5 154,-276.5 "/>
<text text-anchor="middle" x="77" y="-264.5" font-family="Helvetica,sans-Serif" font-size="10.00"> </text>
<polyline fill="none" stroke="black" points="0,-257.5 154,-257.5 "/>
<text text-anchor="start" x="8" y="-245.5" font-family="Helvetica,sans-Serif" font-size="10.00">+ shell_expression()</text>
<text text-anchor="start" x="8" y="-234.5" font-family="Helvetica,sans-Serif" font-size="10.00">+ shell_expression()</text>
<text text-anchor="start" x="8" y="-223.5" font-family="Helvetica,sans-Serif" font-size="10.00">+ GetValue()</text>
<text text-anchor="start" x="8" y="-212.5" font-family="Helvetica,sans-Serif" font-size="10.00">+ GetDerivative()</text>
<text text-anchor="start" x="8" y="-201.5" font-family="Helvetica,sans-Serif" font-size="10.00">+ GetDerivative()</text>
<text text-anchor="start" x="8" y="-190.5" font-family="Helvetica,sans-Serif" font-size="10.00">+ operator reciprocal</text>
<text text-anchor="start" x="8" y="-179.5" font-family="Helvetica,sans-Serif" font-size="10.00">_expression&lt; A &gt; &amp;()</text>
<text text-anchor="start" x="8" y="-168.5" font-family="Helvetica,sans-Serif" font-size="10.00">+ operator const reciprocal</text>
<text text-anchor="start" x="8" y="-157.5" font-family="Helvetica,sans-Serif" font-size="10.00">_expression&lt; A &gt; &amp;()</text>
</a>
</g>
</g>
<!-- Node2&#45;&gt;Node1 -->
<g id="edge1" class="edge"><title>Node2&#45;&gt;Node1</title>
<path fill="none" stroke="midnightblue" d="M77,-140.348C77,-131.024 77,-121.735 77,-112.929"/>
<polygon fill="none" stroke="midnightblue" points="73.5001,-140.458 77,-150.458 80.5001,-140.458 73.5001,-140.458"/>
</g>
<!-- Node3 -->
<g id="node3" class="node"><title>Node3</title>
<g id="a_node3"><a xlink:href="class_i_n_m_o_s_t_1_1basic__expression.html" target="_top" xlink:title="{INMOST::basic_expression\n||+ basic_expression()\l+ basic_expression()\l+ GetValue()\l+ GetDerivative()\l+ GetDerivative()\l}">
<polygon fill="none" stroke="black" points="23.5,-537.5 23.5,-638.5 158.5,-638.5 158.5,-537.5 23.5,-537.5"/>
<text text-anchor="middle" x="91" y="-626.5" font-family="Helvetica,sans-Serif" font-size="10.00">INMOST::basic_expression</text>
<polyline fill="none" stroke="black" points="23.5,-619.5 158.5,-619.5 "/>
<text text-anchor="middle" x="91" y="-607.5" font-family="Helvetica,sans-Serif" font-size="10.00"> </text>
<polyline fill="none" stroke="black" points="23.5,-600.5 158.5,-600.5 "/>
<text text-anchor="start" x="31.5" y="-588.5" font-family="Helvetica,sans-Serif" font-size="10.00">+ basic_expression()</text>
<text text-anchor="start" x="31.5" y="-577.5" font-family="Helvetica,sans-Serif" font-size="10.00">+ basic_expression()</text>
<text text-anchor="start" x="31.5" y="-566.5" font-family="Helvetica,sans-Serif" font-size="10.00">+ GetValue()</text>
<text text-anchor="start" x="31.5" y="-555.5" font-family="Helvetica,sans-Serif" font-size="10.00">+ GetDerivative()</text>
<text text-anchor="start" x="31.5" y="-544.5" font-family="Helvetica,sans-Serif" font-size="10.00">+ GetDerivative()</text>
</a>
</g>
</g>
<!-- Node3&#45;&gt;Node2 -->
<g id="edge2" class="edge"><title>Node3&#45;&gt;Node2</title>
<path fill="none" stroke="midnightblue" d="M82.5282,-527.242C81.5025,-518.133 80.6051,-508.828 80,-500 75.5363,-434.872 75.0355,-360.721 75.51,-306.547"/>
<polygon fill="none" stroke="midnightblue" points="79.0803,-527.889 83.7321,-537.408 86.0317,-527.066 79.0803,-527.889"/>
</g>
<!-- Node4 -->
<g id="node4" class="node"><title>Node4</title>
<g id="a_node4"><a xlink:href="class_i_n_m_o_s_t_1_1shell__expression.html" target="_top" xlink:title="{INMOST::shell_expression\l\&lt; Derived \&gt;\n||+ shell_expression()\l+ shell_expression()\l+ GetValue()\l+ GetDerivative()\l+ GetDerivative()\l+ operator Derived &amp;()\l+ operator const Derived &amp;()\l}">
<polygon fill="none" stroke="black" points="89,-365.5 89,-499.5 227,-499.5 227,-365.5 89,-365.5"/>
<text text-anchor="start" x="97" y="-487.5" font-family="Helvetica,sans-Serif" font-size="10.00">INMOST::shell_expression</text>
<text text-anchor="middle" x="158" y="-476.5" font-family="Helvetica,sans-Serif" font-size="10.00">&lt; Derived &gt;</text>
<polyline fill="none" stroke="black" points="89,-469.5 227,-469.5 "/>
<text text-anchor="middle" x="158" y="-457.5" font-family="Helvetica,sans-Serif" font-size="10.00"> </text>
<polyline fill="none" stroke="black" points="89,-450.5 227,-450.5 "/>
<text text-anchor="start" x="97" y="-438.5" font-family="Helvetica,sans-Serif" font-size="10.00">+ shell_expression()</text>
<text text-anchor="start" x="97" y="-427.5" font-family="Helvetica,sans-Serif" font-size="10.00">+ shell_expression()</text>
<text text-anchor="start" x="97" y="-416.5" font-family="Helvetica,sans-Serif" font-size="10.00">+ GetValue()</text>
<text text-anchor="start" x="97" y="-405.5" font-family="Helvetica,sans-Serif" font-size="10.00">+ GetDerivative()</text>
<text text-anchor="start" x="97" y="-394.5" font-family="Helvetica,sans-Serif" font-size="10.00">+ GetDerivative()</text>
<text text-anchor="start" x="97" y="-383.5" font-family="Helvetica,sans-Serif" font-size="10.00">+ operator Derived &amp;()</text>
<text text-anchor="start" x="97" y="-372.5" font-family="Helvetica,sans-Serif" font-size="10.00">+ operator const Derived &amp;()</text>
</a>
</g>
</g>
<!-- Node3&#45;&gt;Node4 -->
<g id="edge4" class="edge"><title>Node3&#45;&gt;Node4</title>
<path fill="none" stroke="midnightblue" d="M116.879,-527.711C120.902,-518.494 125.079,-508.923 129.163,-499.568"/>
<polygon fill="none" stroke="midnightblue" points="113.546,-526.598 112.753,-537.163 119.961,-529.398 113.546,-526.598"/>
</g>
<!-- Node4&#45;&gt;Node2 -->
<g id="edge3" class="edge"><title>Node4&#45;&gt;Node2</title>
<path fill="none" stroke="orange" d="M127.722,-355.993C121.262,-339.882 114.431,-322.846 107.946,-306.674"/>
<polygon fill="orange" stroke="orange" points="124.507,-357.379 131.478,-365.358 131.004,-354.773 124.507,-357.379"/>
<text text-anchor="start" x="122" y="-339" font-family="Helvetica,sans-Serif" font-size="10.00"> &lt; reciprocal_expression</text>
<text text-anchor="middle" x="175.5" y="-328" font-family="Helvetica,sans-Serif" font-size="10.00">&lt; A &gt; &gt;</text>
</g>
</g>
</svg>
