<?xml version="1.0" encoding="UTF-8" standalone="no"?>
<!DOCTYPE svg PUBLIC "-//W3C//DTD SVG 1.1//EN"
 "http://www.w3.org/Graphics/SVG/1.1/DTD/svg11.dtd">
<!-- Generated by graphviz version 2.38.0 (20140413.2041)
 -->
<!-- Title: INMOST::dynamic_variable::Variable Pages: 1 -->
<svg width="697pt" height="294pt"
 viewBox="0.00 0.00 697.00 294.00" xmlns="http://www.w3.org/2000/svg" xmlns:xlink="http://www.w3.org/1999/xlink">
<g id="graph0" class="graph" transform="scale(1 1) rotate(0) translate(4 290)">
<title>INMOST::dynamic_variable::Variable</title>
<!-- Node1 -->
<g id="node1" class="node"><title>Node1</title>
<polygon fill="#bfbfbf" stroke="black" points="0,-109 0,-139 134,-139 134,-109 0,-109"/>
<text text-anchor="start" x="8" y="-127" font-family="Helvetica,sans-Serif" font-size="10.00">INMOST::dynamic_variable</text>
<text text-anchor="middle" x="67" y="-116" font-family="Helvetica,sans-Serif" font-size="10.00">::Variable</text>
</g>
<!-- Node2 -->
<g id="node2" class="node"><title>Node2</title>
<g id="a_node2"><a xlink:href="class_i_n_m_o_s_t_1_1_storage.html#ad256a6f5101df9f507e359cdddef3a66" target="_top" xlink:title="INMOST::Storage::GetMarker">
<polygon fill="none" stroke="black" points="170,-190.5 170,-209.5 315,-209.5 315,-190.5 170,-190.5"/>
<text text-anchor="middle" x="242.5" y="-197.5" font-family="Helvetica,sans-Serif" font-size="10.00">INMOST::Storage::GetMarker</text>
</a>
</g>
</g>
<!-- Node1&#45;&gt;Node2 -->
<g id="edge1" class="edge"><title>Node1&#45;&gt;Node2</title>
<path fill="none" stroke="midnightblue" d="M102.278,-139.015C133.645,-152.755 179.674,-172.918 210.101,-186.246"/>
<polygon fill="midnightblue" stroke="midnightblue" points="208.83,-189.51 219.394,-190.317 211.639,-183.098 208.83,-189.51"/>
</g>
<!-- Node10 -->
<g id="node10" class="node"><title>Node10</title>
<g id="a_node10"><a xlink:href="class_i_n_m_o_s_t_1_1_storage.html#ac2b245b3c0e50e23a0eb0b2332ca4ae4" target="_top" xlink:title="INMOST::Storage::Real">
<polygon fill="none" stroke="black" points="183,-114.5 183,-133.5 302,-133.5 302,-114.5 183,-114.5"/>
<text text-anchor="middle" x="242.5" y="-121.5" font-family="Helvetica,sans-Serif" font-size="10.00">INMOST::Storage::Real</text>
</a>
</g>
</g>
<!-- Node1&#45;&gt;Node10 -->
<g id="edge10" class="edge"><title>Node1&#45;&gt;Node10</title>
<path fill="none" stroke="midnightblue" d="M134.088,-124C146.783,-124 160.104,-124 172.877,-124"/>
<polygon fill="midnightblue" stroke="midnightblue" points="172.98,-127.5 182.98,-124 172.98,-120.5 172.98,-127.5"/>
</g>
<!-- Node12 -->
<g id="node12" class="node"><title>Node12</title>
<g id="a_node12"><a xlink:href="class_i_n_m_o_s_t_1_1_storage.html#a494c65f9a4fab2831e47ad2f8fe44f5b" target="_top" xlink:title="INMOST::Storage::Integer">
<polygon fill="none" stroke="black" points="178.5,-57.5 178.5,-76.5 306.5,-76.5 306.5,-57.5 178.5,-57.5"/>
<text text-anchor="middle" x="242.5" y="-64.5" font-family="Helvetica,sans-Serif" font-size="10.00">INMOST::Storage::Integer</text>
</a>
</g>
</g>
<!-- Node1&#45;&gt;Node12 -->
<g id="edge14" class="edge"><title>Node1&#45;&gt;Node12</title>
<path fill="none" stroke="midnightblue" d="M114.039,-108.875C141.724,-99.7794 176.563,-88.3338 202.818,-79.7083"/>
<polygon fill="midnightblue" stroke="midnightblue" points="204.019,-82.9977 212.427,-76.5513 201.834,-76.3474 204.019,-82.9977"/>
</g>
<!-- Node3 -->
<g id="node3" class="node"><title>Node3</title>
<g id="a_node3"><a xlink:href="class_i_n_m_o_s_t_1_1_storage.html#a59da31b96c2b4e09e260f0deb4dae4d9" target="_top" xlink:title="INMOST::Storage::isValid">
<polygon fill="none" stroke="black" points="359.5,-228.5 359.5,-247.5 487.5,-247.5 487.5,-228.5 359.5,-228.5"/>
<text text-anchor="middle" x="423.5" y="-235.5" font-family="Helvetica,sans-Serif" font-size="10.00">INMOST::Storage::isValid</text>
</a>
</g>
</g>
<!-- Node2&#45;&gt;Node3 -->
<g id="edge2" class="edge"><title>Node2&#45;&gt;Node3</title>
<path fill="none" stroke="midnightblue" d="M288.669,-209.589C312.716,-214.694 342.474,-221.011 367.819,-226.392"/>
<polygon fill="midnightblue" stroke="midnightblue" points="367.147,-229.827 377.656,-228.48 368.6,-222.98 367.147,-229.827"/>
</g>
<!-- Node5 -->
<g id="node5" class="node"><title>Node5</title>
<g id="a_node5"><a xlink:href="class_i_n_m_o_s_t_1_1_storage.html#a20d218fc89f75ca8534707b4f697173e" target="_top" xlink:title="INMOST::Storage::GetMeshLink">
<polygon fill="none" stroke="black" points="532,-133.5 532,-152.5 689,-152.5 689,-133.5 532,-133.5"/>
<text text-anchor="middle" x="610.5" y="-140.5" font-family="Helvetica,sans-Serif" font-size="10.00">INMOST::Storage::GetMeshLink</text>
</a>
</g>
</g>
<!-- Node2&#45;&gt;Node5 -->
<g id="edge6" class="edge"><title>Node2&#45;&gt;Node5</title>
<path fill="none" stroke="midnightblue" d="M315.16,-199.321C366.06,-197.697 435.778,-193.15 496,-181 524.035,-175.344 554.732,-164.786 577.125,-156.231"/>
<polygon fill="midnightblue" stroke="midnightblue" points="578.436,-159.477 586.485,-152.588 575.896,-152.954 578.436,-159.477"/>
</g>
<!-- Node7 -->
<g id="node7" class="node"><title>Node7</title>
<g id="a_node7"><a xlink:href="class_i_n_m_o_s_t_1_1_mesh.html#a2c8a00522e2b06a0b59e25cae119a237" target="_top" xlink:title="INMOST::Mesh::GetMarker">
<polygon fill="none" stroke="black" points="356,-266.5 356,-285.5 491,-285.5 491,-266.5 356,-266.5"/>
<text text-anchor="middle" x="423.5" y="-273.5" font-family="Helvetica,sans-Serif" font-size="10.00">INMOST::Mesh::GetMarker</text>
</a>
</g>
</g>
<!-- Node2&#45;&gt;Node7 -->
<g id="edge7" class="edge"><title>Node2&#45;&gt;Node7</title>
<path fill="none" stroke="midnightblue" d="M258.99,-209.669C279.415,-222.073 316.779,-243.584 351,-257 357.186,-259.425 363.792,-261.646 370.396,-263.647"/>
<polygon fill="midnightblue" stroke="midnightblue" points="369.441,-267.014 380.019,-266.417 371.378,-260.287 369.441,-267.014"/>
</g>
<!-- Node9 -->
<g id="node9" class="node"><title>Node9</title>
<g id="a_node9"><a xlink:href="class_i_n_m_o_s_t_1_1_storage.html#ac79e3f3664b2ff21892f37bce0caa0e0" target="_top" xlink:title="INMOST::Storage::GetHandle">
<polygon fill="none" stroke="black" points="351,-152.5 351,-171.5 496,-171.5 496,-152.5 351,-152.5"/>
<text text-anchor="middle" x="423.5" y="-159.5" font-family="Helvetica,sans-Serif" font-size="10.00">INMOST::Storage::GetHandle</text>
</a>
</g>
</g>
<!-- Node2&#45;&gt;Node9 -->
<g id="edge9" class="edge"><title>Node2&#45;&gt;Node9</title>
<path fill="none" stroke="midnightblue" d="M288.669,-190.411C312.716,-185.306 342.474,-178.989 367.819,-173.608"/>
<polygon fill="midnightblue" stroke="midnightblue" points="368.6,-177.02 377.656,-171.52 367.147,-170.173 368.6,-177.02"/>
</g>
<!-- Node4 -->
<g id="node4" class="node"><title>Node4</title>
<g id="a_node4"><a xlink:href="namespace_i_n_m_o_s_t.html#a115b3e54c3b7be04ffec9b69c058df18" target="_top" xlink:title="INMOST::InvalidHandle">
<polygon fill="none" stroke="black" points="552.5,-190.5 552.5,-209.5 668.5,-209.5 668.5,-190.5 552.5,-190.5"/>
<text text-anchor="middle" x="610.5" y="-197.5" font-family="Helvetica,sans-Serif" font-size="10.00">INMOST::InvalidHandle</text>
</a>
</g>
</g>
<!-- Node3&#45;&gt;Node4 -->
<g id="edge3" class="edge"><title>Node3&#45;&gt;Node4</title>
<path fill="none" stroke="midnightblue" d="M471.183,-228.411C496.146,-223.284 527.064,-216.933 553.334,-211.537"/>
<polygon fill="midnightblue" stroke="midnightblue" points="554.061,-214.961 563.152,-209.52 552.653,-208.104 554.061,-214.961"/>
</g>
<!-- Node3&#45;&gt;Node5 -->
<g id="edge4" class="edge"><title>Node3&#45;&gt;Node5</title>
<path fill="none" stroke="midnightblue" d="M462.529,-228.486C473.736,-224.836 485.737,-220.053 496,-214 514.695,-202.973 514.073,-193.236 532,-181 545.677,-171.665 561.986,-163.309 576.107,-156.826"/>
<polygon fill="midnightblue" stroke="midnightblue" points="577.767,-159.918 585.474,-152.648 574.915,-153.525 577.767,-159.918"/>
</g>
<!-- Node6 -->
<g id="node6" class="node"><title>Node6</title>
<g id="a_node6"><a xlink:href="class_i_n_m_o_s_t_1_1_mesh.html#a05701da4bd3ed8ca69bbcca256c2b0e2" target="_top" xlink:title="INMOST::Mesh::isValidElement">
<polygon fill="none" stroke="black" points="533,-228.5 533,-247.5 688,-247.5 688,-228.5 533,-228.5"/>
<text text-anchor="middle" x="610.5" y="-235.5" font-family="Helvetica,sans-Serif" font-size="10.00">INMOST::Mesh::isValidElement</text>
</a>
</g>
</g>
<!-- Node3&#45;&gt;Node6 -->
<g id="edge5" class="edge"><title>Node3&#45;&gt;Node6</title>
<path fill="none" stroke="midnightblue" d="M487.649,-238C498.902,-238 510.802,-238 522.581,-238"/>
<polygon fill="midnightblue" stroke="midnightblue" points="522.881,-241.5 532.881,-238 522.881,-234.5 522.881,-241.5"/>
</g>
<!-- Node8 -->
<g id="node8" class="node"><title>Node8</title>
<g id="a_node8"><a xlink:href="class_i_n_m_o_s_t_1_1_mesh.html#ad7d9049c7e0f028e334d3fac70acdc6c" target="_top" xlink:title="INMOST::Mesh::MarkersTag">
<polygon fill="none" stroke="black" points="540.5,-266.5 540.5,-285.5 680.5,-285.5 680.5,-266.5 540.5,-266.5"/>
<text text-anchor="middle" x="610.5" y="-273.5" font-family="Helvetica,sans-Serif" font-size="10.00">INMOST::Mesh::MarkersTag</text>
</a>
</g>
</g>
<!-- Node7&#45;&gt;Node8 -->
<g id="edge8" class="edge"><title>Node7&#45;&gt;Node8</title>
<path fill="none" stroke="midnightblue" d="M491.028,-276C503.697,-276 517.074,-276 530.097,-276"/>
<polygon fill="midnightblue" stroke="midnightblue" points="530.446,-279.5 540.446,-276 530.446,-272.5 530.446,-279.5"/>
</g>
<!-- Node10&#45;&gt;Node5 -->
<g id="edge11" class="edge"><title>Node10&#45;&gt;Node5</title>
<path fill="none" stroke="midnightblue" d="M302.304,-127.053C361.503,-130.126 453.532,-134.903 521.439,-138.429"/>
<polygon fill="midnightblue" stroke="midnightblue" points="521.531,-141.938 531.699,-138.961 521.894,-134.947 521.531,-141.938"/>
</g>
<!-- Node10&#45;&gt;Node9 -->
<g id="edge13" class="edge"><title>Node10&#45;&gt;Node9</title>
<path fill="none" stroke="midnightblue" d="M288.669,-133.589C312.716,-138.694 342.474,-145.011 367.819,-150.392"/>
<polygon fill="midnightblue" stroke="midnightblue" points="367.147,-153.827 377.656,-152.48 368.6,-146.98 367.147,-153.827"/>
</g>
<!-- Node11 -->
<g id="node11" class="node"><title>Node11</title>
<g id="a_node11"><a xlink:href="class_i_n_m_o_s_t_1_1_mesh.html#afa084c637bc9f6850ed77fbb7778d404" target="_top" xlink:title="INMOST::Mesh::Real">
<polygon fill="none" stroke="black" points="369,-76.5 369,-95.5 478,-95.5 478,-76.5 369,-76.5"/>
<text text-anchor="middle" x="423.5" y="-83.5" font-family="Helvetica,sans-Serif" font-size="10.00">INMOST::Mesh::Real</text>
</a>
</g>
</g>
<!-- Node10&#45;&gt;Node11 -->
<g id="edge12" class="edge"><title>Node10&#45;&gt;Node11</title>
<path fill="none" stroke="midnightblue" d="M288.669,-114.411C312.716,-109.306 342.474,-102.989 367.819,-97.6082"/>
<polygon fill="midnightblue" stroke="midnightblue" points="368.6,-101.02 377.656,-95.5201 367.147,-94.1731 368.6,-101.02"/>
</g>
<!-- Node12&#45;&gt;Node5 -->
<g id="edge15" class="edge"><title>Node12&#45;&gt;Node5</title>
<path fill="none" stroke="midnightblue" d="M302.324,-57.499C354.424,-51.2953 431.932,-47.5308 496,-67 534.259,-78.6263 571.359,-107.908 592.228,-126.544"/>
<polygon fill="midnightblue" stroke="midnightblue" points="589.907,-129.164 599.646,-133.336 594.635,-124.002 589.907,-129.164"/>
</g>
<!-- Node12&#45;&gt;Node9 -->
<g id="edge17" class="edge"><title>Node12&#45;&gt;Node9</title>
<path fill="none" stroke="midnightblue" d="M261.649,-76.6319C293.224,-93.3897 358.421,-127.992 395.382,-147.608"/>
<polygon fill="midnightblue" stroke="midnightblue" points="394.096,-150.887 404.57,-152.484 397.377,-144.704 394.096,-150.887"/>
</g>
<!-- Node13 -->
<g id="node13" class="node"><title>Node13</title>
<g id="a_node13"><a xlink:href="class_i_n_m_o_s_t_1_1_mesh.html#aa9d44832b3e826a2b61c8e91c5457fbf" target="_top" xlink:title="INMOST::Mesh::Integer">
<polygon fill="none" stroke="black" points="364,-0.5 364,-19.5 483,-19.5 483,-0.5 364,-0.5"/>
<text text-anchor="middle" x="423.5" y="-7.5" font-family="Helvetica,sans-Serif" font-size="10.00">INMOST::Mesh::Integer</text>
</a>
</g>
</g>
<!-- Node12&#45;&gt;Node13 -->
<g id="edge16" class="edge"><title>Node12&#45;&gt;Node13</title>
<path fill="none" stroke="midnightblue" d="M273.461,-57.4595C303.405,-47.924 349.624,-33.2064 382.649,-22.6901"/>
<polygon fill="midnightblue" stroke="midnightblue" points="383.975,-25.9409 392.442,-19.5716 381.851,-19.2709 383.975,-25.9409"/>
</g>
</g>
</svg>
