<?xml version="1.0" encoding="UTF-8" standalone="no"?>
<!DOCTYPE svg PUBLIC "-//W3C//DTD SVG 1.1//EN"
 "http://www.w3.org/Graphics/SVG/1.1/DTD/svg11.dtd">
<!-- Generated by graphviz version 2.38.0 (20140413.2041)
 -->
<!-- Title: INMOST::Storage::RemPrivateMarker Pages: 1 -->
<svg width="531pt" height="192pt"
 viewBox="0.00 0.00 531.00 192.00" xmlns="http://www.w3.org/2000/svg" xmlns:xlink="http://www.w3.org/1999/xlink">
<g id="graph0" class="graph" transform="scale(1 1) rotate(0) translate(4 188)">
<title>INMOST::Storage::RemPrivateMarker</title>
<!-- Node1 -->
<g id="node1" class="node"><title>Node1</title>
<polygon fill="#bfbfbf" stroke="black" points="0,-61 0,-91 149,-91 149,-61 0,-61"/>
<text text-anchor="start" x="8" y="-79" font-family="Helvetica,sans-Serif" font-size="10.00">INMOST::Storage::RemPrivate</text>
<text text-anchor="middle" x="74.5" y="-68" font-family="Helvetica,sans-Serif" font-size="10.00">Marker</text>
</g>
<!-- Node2 -->
<g id="node2" class="node"><title>Node2</title>
<g id="a_node2"><a xlink:href="class_i_n_m_o_s_t_1_1_storage.html#a59da31b96c2b4e09e260f0deb4dae4d9" target="_top" xlink:title="INMOST::Storage::isValid">
<polygon fill="none" stroke="black" points="193.5,-126.5 193.5,-145.5 321.5,-145.5 321.5,-126.5 193.5,-126.5"/>
<text text-anchor="middle" x="257.5" y="-133.5" font-family="Helvetica,sans-Serif" font-size="10.00">INMOST::Storage::isValid</text>
</a>
</g>
</g>
<!-- Node1&#45;&gt;Node2 -->
<g id="edge1" class="edge"><title>Node1&#45;&gt;Node2</title>
<path fill="none" stroke="midnightblue" d="M121.174,-91.1405C151.152,-101.078 189.909,-113.926 218.258,-123.323"/>
<polygon fill="midnightblue" stroke="midnightblue" points="217.227,-126.668 227.82,-126.493 219.429,-120.024 217.227,-126.668"/>
</g>
<!-- Node4 -->
<g id="node4" class="node"><title>Node4</title>
<g id="a_node4"><a xlink:href="class_i_n_m_o_s_t_1_1_storage.html#a20d218fc89f75ca8534707b4f697173e" target="_top" xlink:title="INMOST::Storage::GetMeshLink">
<polygon fill="none" stroke="black" points="366,-88.5 366,-107.5 523,-107.5 523,-88.5 366,-88.5"/>
<text text-anchor="middle" x="444.5" y="-95.5" font-family="Helvetica,sans-Serif" font-size="10.00">INMOST::Storage::GetMeshLink</text>
</a>
</g>
</g>
<!-- Node1&#45;&gt;Node4 -->
<g id="edge5" class="edge"><title>Node1&#45;&gt;Node4</title>
<path fill="none" stroke="midnightblue" d="M149.086,-80.3992C208.593,-83.9566 292.55,-88.9758 355.59,-92.7445"/>
<polygon fill="midnightblue" stroke="midnightblue" points="355.725,-96.2587 365.916,-93.3618 356.143,-89.2712 355.725,-96.2587"/>
</g>
<!-- Node6 -->
<g id="node6" class="node"><title>Node6</title>
<g id="a_node6"><a xlink:href="class_i_n_m_o_s_t_1_1_mesh.html#a9a5e1885988a4ac1e0beb326422da8e6" target="_top" xlink:title="INMOST::Mesh::RemPrivate\lMarker">
<polygon fill="none" stroke="black" points="188,-39 188,-69 327,-69 327,-39 188,-39"/>
<text text-anchor="start" x="196" y="-57" font-family="Helvetica,sans-Serif" font-size="10.00">INMOST::Mesh::RemPrivate</text>
<text text-anchor="middle" x="257.5" y="-46" font-family="Helvetica,sans-Serif" font-size="10.00">Marker</text>
</a>
</g>
</g>
<!-- Node1&#45;&gt;Node6 -->
<g id="edge6" class="edge"><title>Node1&#45;&gt;Node6</title>
<path fill="none" stroke="midnightblue" d="M149.12,-67.0518C158.535,-65.9073 168.204,-64.7321 177.697,-63.5782"/>
<polygon fill="midnightblue" stroke="midnightblue" points="178.406,-67.018 187.91,-62.3369 177.561,-60.0691 178.406,-67.018"/>
</g>
<!-- Node7 -->
<g id="node7" class="node"><title>Node7</title>
<g id="a_node7"><a xlink:href="class_i_n_m_o_s_t_1_1_storage.html#ac79e3f3664b2ff21892f37bce0caa0e0" target="_top" xlink:title="INMOST::Storage::GetHandle">
<polygon fill="none" stroke="black" points="185,-0.5 185,-19.5 330,-19.5 330,-0.5 185,-0.5"/>
<text text-anchor="middle" x="257.5" y="-7.5" font-family="Helvetica,sans-Serif" font-size="10.00">INMOST::Storage::GetHandle</text>
</a>
</g>
</g>
<!-- Node1&#45;&gt;Node7 -->
<g id="edge7" class="edge"><title>Node1&#45;&gt;Node7</title>
<path fill="none" stroke="midnightblue" d="M107.119,-60.9728C128.735,-51.0632 158.211,-38.2534 185,-29 191.927,-26.6071 199.319,-24.337 206.624,-22.2538"/>
<polygon fill="midnightblue" stroke="midnightblue" points="207.77,-25.5684 216.479,-19.5349 205.908,-18.8204 207.77,-25.5684"/>
</g>
<!-- Node3 -->
<g id="node3" class="node"><title>Node3</title>
<g id="a_node3"><a xlink:href="namespace_i_n_m_o_s_t.html#a115b3e54c3b7be04ffec9b69c058df18" target="_top" xlink:title="INMOST::InvalidHandle">
<polygon fill="none" stroke="black" points="386.5,-164.5 386.5,-183.5 502.5,-183.5 502.5,-164.5 386.5,-164.5"/>
<text text-anchor="middle" x="444.5" y="-171.5" font-family="Helvetica,sans-Serif" font-size="10.00">INMOST::InvalidHandle</text>
</a>
</g>
</g>
<!-- Node2&#45;&gt;Node3 -->
<g id="edge2" class="edge"><title>Node2&#45;&gt;Node3</title>
<path fill="none" stroke="midnightblue" d="M305.183,-145.589C330.146,-150.716 361.064,-157.067 387.334,-162.463"/>
<polygon fill="midnightblue" stroke="midnightblue" points="386.653,-165.896 397.152,-164.48 388.061,-159.039 386.653,-165.896"/>
</g>
<!-- Node2&#45;&gt;Node4 -->
<g id="edge3" class="edge"><title>Node2&#45;&gt;Node4</title>
<path fill="none" stroke="midnightblue" d="M305.183,-126.411C330.146,-121.284 361.064,-114.933 387.334,-109.537"/>
<polygon fill="midnightblue" stroke="midnightblue" points="388.061,-112.961 397.152,-107.52 386.653,-106.104 388.061,-112.961"/>
</g>
<!-- Node5 -->
<g id="node5" class="node"><title>Node5</title>
<g id="a_node5"><a xlink:href="class_i_n_m_o_s_t_1_1_mesh.html#a05701da4bd3ed8ca69bbcca256c2b0e2" target="_top" xlink:title="INMOST::Mesh::isValidElement">
<polygon fill="none" stroke="black" points="367,-126.5 367,-145.5 522,-145.5 522,-126.5 367,-126.5"/>
<text text-anchor="middle" x="444.5" y="-133.5" font-family="Helvetica,sans-Serif" font-size="10.00">INMOST::Mesh::isValidElement</text>
</a>
</g>
</g>
<!-- Node2&#45;&gt;Node5 -->
<g id="edge4" class="edge"><title>Node2&#45;&gt;Node5</title>
<path fill="none" stroke="midnightblue" d="M321.649,-136C332.902,-136 344.802,-136 356.581,-136"/>
<polygon fill="midnightblue" stroke="midnightblue" points="356.881,-139.5 366.881,-136 356.881,-132.5 356.881,-139.5"/>
</g>
</g>
</svg>
