<?xml version="1.0" encoding="UTF-8" standalone="no"?>
<!DOCTYPE svg PUBLIC "-//W3C//DTD SVG 1.1//EN"
 "http://www.w3.org/Graphics/SVG/1.1/DTD/svg11.dtd">
<!-- Generated by graphviz version 2.38.0 (20140413.2041)
 -->
<!-- Title: INMOST::dynarray::back Pages: 1 -->
<svg width="314pt" height="176pt"
 viewBox="0.00 0.00 314.00 175.50" xmlns="http://www.w3.org/2000/svg" xmlns:xlink="http://www.w3.org/1999/xlink">
<g id="graph0" class="graph" transform="scale(1 1) rotate(0) translate(4 171.5)">
<title>INMOST::dynarray::back</title>
<!-- Node1 -->
<g id="node1" class="node"><title>Node1</title>
<polygon fill="#bfbfbf" stroke="black" points="0,-79 0,-98 124,-98 124,-79 0,-79"/>
<text text-anchor="middle" x="62" y="-86" font-family="Helvetica,sans-Serif" font-size="10.00">INMOST::dynarray::back</text>
</g>
<!-- Node2 -->
<g id="node2" class="node"><title>Node2</title>
<g id="a_node2"><a xlink:href="class_i_n_m_o_s_t_1_1tiny__map.html#a37e9010b0f4a05d6f24016fa4eed4cad" target="_top" xlink:title="INMOST::tiny_map::operator[]">
<polygon fill="none" stroke="black" points="160,-148 160,-167 306,-167 306,-148 160,-148"/>
<text text-anchor="middle" x="233" y="-155" font-family="Helvetica,sans-Serif" font-size="10.00">INMOST::tiny_map::operator[]</text>
</a>
</g>
</g>
<!-- Node1&#45;&gt;Node2 -->
<g id="edge1" class="edge"><title>Node1&#45;&gt;Node2</title>
<path fill="none" stroke="midnightblue" d="M87.681,-103.131C106.883,-114.039 134.468,-128.686 160,-138.5 169.412,-142.118 179.773,-145.295 189.631,-147.964"/>
<polygon fill="midnightblue" stroke="midnightblue" points="89.3858,-100.074 78.9738,-98.1144 85.8913,-106.139 89.3858,-100.074"/>
</g>
<!-- Node3 -->
<g id="node3" class="node"><title>Node3</title>
<g id="a_node3"><a xlink:href="class_i_n_m_o_s_t_1_1_element_array.html#aed750c66768bf759bbae15266ab2c2bd" target="_top" xlink:title="INMOST::ElementArray\l::back">
<polygon fill="none" stroke="black" points="173.5,-98.5 173.5,-128.5 292.5,-128.5 292.5,-98.5 173.5,-98.5"/>
<text text-anchor="start" x="181.5" y="-116.5" font-family="Helvetica,sans-Serif" font-size="10.00">INMOST::ElementArray</text>
<text text-anchor="middle" x="233" y="-105.5" font-family="Helvetica,sans-Serif" font-size="10.00">::back</text>
</a>
</g>
</g>
<!-- Node1&#45;&gt;Node3 -->
<g id="edge2" class="edge"><title>Node1&#45;&gt;Node3</title>
<path fill="none" stroke="midnightblue" d="M133.938,-98.9938C147.06,-100.935 160.629,-102.942 173.337,-104.822"/>
<polygon fill="midnightblue" stroke="midnightblue" points="134.417,-95.5267 124.013,-97.5256 133.393,-102.451 134.417,-95.5267"/>
</g>
<!-- Node4 -->
<g id="node4" class="node"><title>Node4</title>
<g id="a_node4"><a xlink:href="class_i_n_m_o_s_t_1_1_element_array.html#afb508658d2215aa9f9168a65f491d4b8" target="_top" xlink:title="INMOST::ElementArray\l::atback">
<polygon fill="none" stroke="black" points="173.5,-49.5 173.5,-79.5 292.5,-79.5 292.5,-49.5 173.5,-49.5"/>
<text text-anchor="start" x="181.5" y="-67.5" font-family="Helvetica,sans-Serif" font-size="10.00">INMOST::ElementArray</text>
<text text-anchor="middle" x="233" y="-56.5" font-family="Helvetica,sans-Serif" font-size="10.00">::atback</text>
</a>
</g>
</g>
<!-- Node1&#45;&gt;Node4 -->
<g id="edge3" class="edge"><title>Node1&#45;&gt;Node4</title>
<path fill="none" stroke="midnightblue" d="M133.938,-78.426C147.06,-76.5625 160.629,-74.6355 173.337,-72.8309"/>
<polygon fill="midnightblue" stroke="midnightblue" points="133.421,-74.9641 124.013,-79.8354 134.406,-81.8946 133.421,-74.9641"/>
</g>
<!-- Node5 -->
<g id="node5" class="node"><title>Node5</title>
<g id="a_node5"><a xlink:href="class_i_n_m_o_s_t_1_1_sparse_1_1_row.html#a83a6d4d1d39d80fa77ab3d588937eea9" target="_top" xlink:title="The operator [] used to fill the sparse matrix row, but not to access individual elements of the row...">
<polygon fill="none" stroke="black" points="175.5,-0.5 175.5,-30.5 290.5,-30.5 290.5,-0.5 175.5,-0.5"/>
<text text-anchor="start" x="183.5" y="-18.5" font-family="Helvetica,sans-Serif" font-size="10.00">INMOST::Sparse::Row</text>
<text text-anchor="middle" x="233" y="-7.5" font-family="Helvetica,sans-Serif" font-size="10.00">::operator[]</text>
</a>
</g>
</g>
<!-- Node1&#45;&gt;Node5 -->
<g id="edge4" class="edge"><title>Node1&#45;&gt;Node5</title>
<path fill="none" stroke="midnightblue" d="M89.6336,-74.1919C108.89,-64.1266 135.688,-50.689 160,-40.5 168.299,-37.0222 177.269,-33.628 185.968,-30.5185"/>
<polygon fill="midnightblue" stroke="midnightblue" points="87.7803,-71.2123 80.5673,-78.9728 91.0454,-77.4042 87.7803,-71.2123"/>
</g>
</g>
</svg>
