<?xml version="1.0" encoding="UTF-8" standalone="no"?>
<!DOCTYPE svg PUBLIC "-//W3C//DTD SVG 1.1//EN"
 "http://www.w3.org/Graphics/SVG/1.1/DTD/svg11.dtd">
<!-- Generated by graphviz version 2.38.0 (20140413.2041)
 -->
<!-- Title: INMOST::Sparse::Vector::GetInterval Pages: 1 -->
<svg width="278pt" height="88pt"
 viewBox="0.00 0.00 278.00 88.00" xmlns="http://www.w3.org/2000/svg" xmlns:xlink="http://www.w3.org/1999/xlink">
<g id="graph0" class="graph" transform="scale(1 1) rotate(0) translate(4 84)">
<title>INMOST::Sparse::Vector::GetInterval</title>
<!-- Node1 -->
<g id="node1" class="node"><title>Node1</title>
<polygon fill="#bfbfbf" stroke="black" points="0,-24.5 0,-54.5 125,-54.5 125,-24.5 0,-24.5"/>
<text text-anchor="start" x="8" y="-42.5" font-family="Helvetica,sans-Serif" font-size="10.00">INMOST::Sparse::Vector</text>
<text text-anchor="middle" x="62.5" y="-31.5" font-family="Helvetica,sans-Serif" font-size="10.00">::GetInterval</text>
</g>
<!-- Node2 -->
<g id="node2" class="node"><title>Node2</title>
<g id="a_node2"><a xlink:href="class_i_n_m_o_s_t_1_1interval.html#ad1ffbb7787c09652d54d050f7956a1d3" target="_top" xlink:title="INMOST::interval::get\l_interval_beg">
<polygon fill="none" stroke="black" points="161,-49.5 161,-79.5 270,-79.5 270,-49.5 161,-49.5"/>
<text text-anchor="start" x="169" y="-67.5" font-family="Helvetica,sans-Serif" font-size="10.00">INMOST::interval::get</text>
<text text-anchor="middle" x="215.5" y="-56.5" font-family="Helvetica,sans-Serif" font-size="10.00">_interval_beg</text>
</a>
</g>
</g>
<!-- Node1&#45;&gt;Node2 -->
<g id="edge1" class="edge"><title>Node1&#45;&gt;Node2</title>
<path fill="none" stroke="midnightblue" d="M125.353,-49.7406C133.691,-51.1211 142.259,-52.5396 150.631,-53.9257"/>
<polygon fill="midnightblue" stroke="midnightblue" points="150.281,-57.4152 160.718,-55.5957 151.424,-50.5093 150.281,-57.4152"/>
</g>
<!-- Node3 -->
<g id="node3" class="node"><title>Node3</title>
<g id="a_node3"><a xlink:href="class_i_n_m_o_s_t_1_1interval.html#a7c810c9ad896ffe792d64c37d7bcc074" target="_top" xlink:title="INMOST::interval::get\l_interval_end">
<polygon fill="none" stroke="black" points="161,-0.5 161,-30.5 270,-30.5 270,-0.5 161,-0.5"/>
<text text-anchor="start" x="169" y="-18.5" font-family="Helvetica,sans-Serif" font-size="10.00">INMOST::interval::get</text>
<text text-anchor="middle" x="215.5" y="-7.5" font-family="Helvetica,sans-Serif" font-size="10.00">_interval_end</text>
</a>
</g>
</g>
<!-- Node1&#45;&gt;Node3 -->
<g id="edge2" class="edge"><title>Node1&#45;&gt;Node3</title>
<path fill="none" stroke="midnightblue" d="M125.353,-29.669C133.691,-28.3438 142.259,-26.982 150.631,-25.6513"/>
<polygon fill="midnightblue" stroke="midnightblue" points="151.392,-29.0745 160.718,-24.0481 150.293,-22.1613 151.392,-29.0745"/>
</g>
</g>
</svg>
