<?xml version="1.0" encoding="UTF-8" standalone="no"?>
<!DOCTYPE svg PUBLIC "-//W3C//DTD SVG 1.1//EN"
 "http://www.w3.org/Graphics/SVG/1.1/DTD/svg11.dtd">
<!-- Generated by graphviz version 2.38.0 (20140413.2041)
 -->
<!-- Title: INMOST::expr::expr Pages: 1 -->
<svg width="272pt" height="218pt"
 viewBox="0.00 0.00 272.00 218.00" xmlns="http://www.w3.org/2000/svg" xmlns:xlink="http://www.w3.org/1999/xlink">
<g id="graph0" class="graph" transform="scale(1 1) rotate(0) translate(4 214)">
<title>INMOST::expr::expr</title>
<!-- Node1 -->
<g id="node1" class="node"><title>Node1</title>
<polygon fill="#bfbfbf" stroke="black" points="0,-95.5 0,-114.5 103,-114.5 103,-95.5 0,-95.5"/>
<text text-anchor="middle" x="51.5" y="-102.5" font-family="Helvetica,sans-Serif" font-size="10.00">INMOST::expr::expr</text>
</g>
<!-- Node2 -->
<g id="node2" class="node"><title>Node2</title>
<g id="a_node2"><a xlink:href="class_i_n_m_o_s_t_1_1expr.html#a74a3aa228671a0b271e8377995212871" target="_top" xlink:title="INMOST::expr::expr">
<polygon fill="none" stroke="black" points="150,-190.5 150,-209.5 253,-209.5 253,-190.5 150,-190.5"/>
<text text-anchor="middle" x="201.5" y="-197.5" font-family="Helvetica,sans-Serif" font-size="10.00">INMOST::expr::expr</text>
</a>
</g>
</g>
<!-- Node1&#45;&gt;Node2 -->
<g id="edge1" class="edge"><title>Node1&#45;&gt;Node2</title>
<path fill="none" stroke="midnightblue" d="M67.8817,-122.231C84.0425,-139.37 110.967,-165.31 139,-181 145.729,-184.766 153.298,-187.882 160.766,-190.425"/>
<polygon fill="midnightblue" stroke="midnightblue" points="70.2063,-119.589 60.8552,-114.608 65.0593,-124.333 70.2063,-119.589"/>
</g>
<!-- Node3 -->
<g id="node3" class="node"><title>Node3</title>
<g id="a_node3"><a xlink:href="class_i_n_m_o_s_t_1_1expr.html#a0d5ca60f969708f0076d96e5d0de9289" target="_top" xlink:title="INMOST::expr::operator=">
<polygon fill="none" stroke="black" points="139,-152.5 139,-171.5 264,-171.5 264,-152.5 139,-152.5"/>
<text text-anchor="middle" x="201.5" y="-159.5" font-family="Helvetica,sans-Serif" font-size="10.00">INMOST::expr::operator=</text>
</a>
</g>
</g>
<!-- Node1&#45;&gt;Node3 -->
<g id="edge2" class="edge"><title>Node1&#45;&gt;Node3</title>
<path fill="none" stroke="midnightblue" d="M81.6924,-118.82C98.3007,-126.43 119.599,-135.769 139,-143 148.005,-146.357 157.901,-149.602 167.072,-152.433"/>
<polygon fill="midnightblue" stroke="midnightblue" points="83.0507,-115.592 72.5055,-114.568 80.1106,-121.945 83.0507,-115.592"/>
</g>
<!-- Node4 -->
<g id="node4" class="node"><title>Node4</title>
<g id="a_node4"><a xlink:href="class_i_n_m_o_s_t_1_1expr.html#aa715007c278b396f273aa41c1e8570cc" target="_top" xlink:title="INMOST::expr::operator+">
<polygon fill="none" stroke="black" points="139,-114.5 139,-133.5 264,-133.5 264,-114.5 139,-114.5"/>
<text text-anchor="middle" x="201.5" y="-121.5" font-family="Helvetica,sans-Serif" font-size="10.00">INMOST::expr::operator+</text>
</a>
</g>
</g>
<!-- Node1&#45;&gt;Node4 -->
<g id="edge3" class="edge"><title>Node1&#45;&gt;Node4</title>
<path fill="none" stroke="midnightblue" d="M112.943,-112.76C121.52,-113.861 130.348,-114.994 138.945,-116.098"/>
<polygon fill="midnightblue" stroke="midnightblue" points="113.384,-109.287 103.019,-111.486 112.492,-116.231 113.384,-109.287"/>
</g>
<!-- Node5 -->
<g id="node5" class="node"><title>Node5</title>
<g id="a_node5"><a xlink:href="class_i_n_m_o_s_t_1_1expr.html#a07df50248f0d109c9bdeb98e892b2ebe" target="_top" xlink:title="INMOST::expr::operator&#45;">
<polygon fill="none" stroke="black" points="140.5,-76.5 140.5,-95.5 262.5,-95.5 262.5,-76.5 140.5,-76.5"/>
<text text-anchor="middle" x="201.5" y="-83.5" font-family="Helvetica,sans-Serif" font-size="10.00">INMOST::expr::operator&#45;</text>
</a>
</g>
</g>
<!-- Node1&#45;&gt;Node5 -->
<g id="edge4" class="edge"><title>Node1&#45;&gt;Node5</title>
<path fill="none" stroke="midnightblue" d="M113.018,-97.2308C122.003,-96.0773 131.263,-94.8885 140.244,-93.7356"/>
<polygon fill="midnightblue" stroke="midnightblue" points="112.492,-93.7695 103.019,-98.5144 113.384,-100.713 112.492,-93.7695"/>
</g>
<!-- Node6 -->
<g id="node6" class="node"><title>Node6</title>
<g id="a_node6"><a xlink:href="class_i_n_m_o_s_t_1_1expr.html#a2b20cd2457a3ca57610c9ad464ab4bb7" target="_top" xlink:title="INMOST::expr::operator*">
<polygon fill="none" stroke="black" points="140,-38.5 140,-57.5 263,-57.5 263,-38.5 140,-38.5"/>
<text text-anchor="middle" x="201.5" y="-45.5" font-family="Helvetica,sans-Serif" font-size="10.00">INMOST::expr::operator*</text>
</a>
</g>
</g>
<!-- Node1&#45;&gt;Node6 -->
<g id="edge5" class="edge"><title>Node1&#45;&gt;Node6</title>
<path fill="none" stroke="midnightblue" d="M81.6924,-91.1799C98.3007,-83.57 119.599,-74.2313 139,-67 148.005,-63.6434 157.901,-60.3978 167.072,-57.5674"/>
<polygon fill="midnightblue" stroke="midnightblue" points="80.1106,-88.0553 72.5055,-95.4317 83.0507,-94.4079 80.1106,-88.0553"/>
</g>
<!-- Node7 -->
<g id="node7" class="node"><title>Node7</title>
<g id="a_node7"><a xlink:href="class_i_n_m_o_s_t_1_1expr.html#a5baed82f717d699d1b2d0df6cfcbbb02" target="_top" xlink:title="INMOST::expr::operator/">
<polygon fill="none" stroke="black" points="140.5,-0.5 140.5,-19.5 262.5,-19.5 262.5,-0.5 140.5,-0.5"/>
<text text-anchor="middle" x="201.5" y="-7.5" font-family="Helvetica,sans-Serif" font-size="10.00">INMOST::expr::operator/</text>
</a>
</g>
</g>
<!-- Node1&#45;&gt;Node7 -->
<g id="edge6" class="edge"><title>Node1&#45;&gt;Node7</title>
<path fill="none" stroke="midnightblue" d="M67.8817,-87.7688C84.0425,-70.6303 110.967,-44.69 139,-29 145.729,-25.2341 153.298,-22.1179 160.766,-19.5748"/>
<polygon fill="midnightblue" stroke="midnightblue" points="65.0593,-85.6667 60.8552,-95.3918 70.2063,-90.4111 65.0593,-85.6667"/>
</g>
</g>
</svg>
