<?xml version="1.0" encoding="UTF-8" standalone="no"?>
<!DOCTYPE svg PUBLIC "-//W3C//DTD SVG 1.1//EN"
 "http://www.w3.org/Graphics/SVG/1.1/DTD/svg11.dtd">
<!-- Generated by graphviz version 2.38.0 (20140413.2041)
 -->
<!-- Title: INMOST::Storage::getAsElement Pages: 1 -->
<svg width="772pt" height="104pt"
 viewBox="0.00 0.00 772.00 104.00" xmlns="http://www.w3.org/2000/svg" xmlns:xlink="http://www.w3.org/1999/xlink">
<g id="graph0" class="graph" transform="scale(1 1) rotate(0) translate(4 100)">
<title>INMOST::Storage::getAsElement</title>
<!-- Node1 -->
<g id="node1" class="node"><title>Node1</title>
<polygon fill="#bfbfbf" stroke="black" points="0,-38.5 0,-57.5 161,-57.5 161,-38.5 0,-38.5"/>
<text text-anchor="middle" x="80.5" y="-45.5" font-family="Helvetica,sans-Serif" font-size="10.00">INMOST::Storage::getAsElement</text>
</g>
<!-- Node2 -->
<g id="node2" class="node"><title>Node2</title>
<g id="a_node2"><a xlink:href="class_i_n_m_o_s_t_1_1_storage.html#ae6928532b6665a12831d13293c4c7b31" target="_top" xlink:title="INMOST::Storage::GetElementType">
<polygon fill="none" stroke="black" points="197,-76.5 197,-95.5 369,-95.5 369,-76.5 197,-76.5"/>
<text text-anchor="middle" x="283" y="-83.5" font-family="Helvetica,sans-Serif" font-size="10.00">INMOST::Storage::GetElementType</text>
</a>
</g>
</g>
<!-- Node1&#45;&gt;Node2 -->
<g id="edge1" class="edge"><title>Node1&#45;&gt;Node2</title>
<path fill="none" stroke="midnightblue" d="M131.836,-57.54C159.126,-62.7122 193.042,-69.1401 221.733,-74.5778"/>
<polygon fill="midnightblue" stroke="midnightblue" points="221.167,-78.0327 231.643,-76.4561 222.47,-71.1551 221.167,-78.0327"/>
</g>
<!-- Node5 -->
<g id="node5" class="node"><title>Node5</title>
<g id="a_node5"><a xlink:href="class_i_n_m_o_s_t_1_1_storage.html#a20d218fc89f75ca8534707b4f697173e" target="_top" xlink:title="INMOST::Storage::GetMeshLink">
<polygon fill="none" stroke="black" points="204.5,-38.5 204.5,-57.5 361.5,-57.5 361.5,-38.5 204.5,-38.5"/>
<text text-anchor="middle" x="283" y="-45.5" font-family="Helvetica,sans-Serif" font-size="10.00">INMOST::Storage::GetMeshLink</text>
</a>
</g>
</g>
<!-- Node1&#45;&gt;Node5 -->
<g id="edge4" class="edge"><title>Node1&#45;&gt;Node5</title>
<path fill="none" stroke="midnightblue" d="M161.031,-48C171.913,-48 183.136,-48 194.155,-48"/>
<polygon fill="midnightblue" stroke="midnightblue" points="194.202,-51.5001 204.202,-48 194.202,-44.5001 194.202,-51.5001"/>
</g>
<!-- Node6 -->
<g id="node6" class="node"><title>Node6</title>
<g id="a_node6"><a xlink:href="class_i_n_m_o_s_t_1_1_storage.html#ac79e3f3664b2ff21892f37bce0caa0e0" target="_top" xlink:title="INMOST::Storage::GetHandle">
<polygon fill="none" stroke="black" points="210.5,-0.5 210.5,-19.5 355.5,-19.5 355.5,-0.5 210.5,-0.5"/>
<text text-anchor="middle" x="283" y="-7.5" font-family="Helvetica,sans-Serif" font-size="10.00">INMOST::Storage::GetHandle</text>
</a>
</g>
</g>
<!-- Node1&#45;&gt;Node6 -->
<g id="edge5" class="edge"><title>Node1&#45;&gt;Node6</title>
<path fill="none" stroke="midnightblue" d="M131.836,-38.46C159.126,-33.2878 193.042,-26.8599 221.733,-21.4222"/>
<polygon fill="midnightblue" stroke="midnightblue" points="222.47,-24.8449 231.643,-19.5439 221.167,-17.9673 222.47,-24.8449"/>
</g>
<!-- Node3 -->
<g id="node3" class="node"><title>Node3</title>
<g id="a_node3"><a xlink:href="namespace_i_n_m_o_s_t.html#ad6fc386c976a00725d44392f3e211bf2" target="_top" xlink:title="INMOST::GetHandleElementType">
<polygon fill="none" stroke="black" points="405,-76.5 405,-95.5 567,-95.5 567,-76.5 405,-76.5"/>
<text text-anchor="middle" x="486" y="-83.5" font-family="Helvetica,sans-Serif" font-size="10.00">INMOST::GetHandleElementType</text>
</a>
</g>
</g>
<!-- Node2&#45;&gt;Node3 -->
<g id="edge2" class="edge"><title>Node2&#45;&gt;Node3</title>
<path fill="none" stroke="midnightblue" d="M369.242,-86C377.61,-86 386.122,-86 394.539,-86"/>
<polygon fill="midnightblue" stroke="midnightblue" points="394.743,-89.5001 404.743,-86 394.743,-82.5001 394.743,-89.5001"/>
</g>
<!-- Node4 -->
<g id="node4" class="node"><title>Node4</title>
<g id="a_node4"><a xlink:href="namespace_i_n_m_o_s_t.html#a6659a95d611050914b2761dd17256928" target="_top" xlink:title="INMOST::GetHandleElementNum">
<polygon fill="none" stroke="black" points="603,-76.5 603,-95.5 764,-95.5 764,-76.5 603,-76.5"/>
<text text-anchor="middle" x="683.5" y="-83.5" font-family="Helvetica,sans-Serif" font-size="10.00">INMOST::GetHandleElementNum</text>
</a>
</g>
</g>
<!-- Node3&#45;&gt;Node4 -->
<g id="edge3" class="edge"><title>Node3&#45;&gt;Node4</title>
<path fill="none" stroke="midnightblue" d="M567.081,-86C575.57,-86 584.243,-86 592.831,-86"/>
<polygon fill="midnightblue" stroke="midnightblue" points="592.859,-89.5001 602.859,-86 592.859,-82.5001 592.859,-89.5001"/>
</g>
</g>
</svg>
