<?xml version="1.0" encoding="UTF-8" standalone="no"?>
<!DOCTYPE svg PUBLIC "-//W3C//DTD SVG 1.1//EN"
 "http://www.w3.org/Graphics/SVG/1.1/DTD/svg11.dtd">
<!-- Generated by graphviz version 2.38.0 (20140413.2041)
 -->
<!-- Title: INMOST::Matrix::Resize Pages: 1 -->
<svg width="279pt" height="66pt"
 viewBox="0.00 0.00 279.00 66.00" xmlns="http://www.w3.org/2000/svg" xmlns:xlink="http://www.w3.org/1999/xlink">
<g id="graph0" class="graph" transform="scale(1 1) rotate(0) translate(4 62)">
<title>INMOST::Matrix::Resize</title>
<!-- Node1 -->
<g id="node1" class="node"><title>Node1</title>
<polygon fill="#bfbfbf" stroke="black" points="0,-19.5 0,-38.5 122,-38.5 122,-19.5 0,-19.5"/>
<text text-anchor="middle" x="61" y="-26.5" font-family="Helvetica,sans-Serif" font-size="10.00">INMOST::Matrix::Resize</text>
</g>
<!-- Node2 -->
<g id="node2" class="node"><title>Node2</title>
<g id="a_node2"><a xlink:href="class_i_n_m_o_s_t_1_1array.html#a860b9f961e94311be30e44861f9bcf66" target="_top" xlink:title="INMOST::array::size">
<polygon fill="none" stroke="black" points="162,-38.5 162,-57.5 267,-57.5 267,-38.5 162,-38.5"/>
<text text-anchor="middle" x="214.5" y="-45.5" font-family="Helvetica,sans-Serif" font-size="10.00">INMOST::array::size</text>
</a>
</g>
</g>
<!-- Node1&#45;&gt;Node2 -->
<g id="edge1" class="edge"><title>Node1&#45;&gt;Node2</title>
<path fill="none" stroke="midnightblue" d="M122.312,-36.5639C131.988,-37.7774 142.016,-39.035 151.726,-40.2527"/>
<polygon fill="midnightblue" stroke="midnightblue" points="151.344,-43.7322 161.702,-41.5038 152.215,-36.7866 151.344,-43.7322"/>
</g>
<!-- Node3 -->
<g id="node3" class="node"><title>Node3</title>
<g id="a_node3"><a xlink:href="class_i_n_m_o_s_t_1_1array.html#a0b730a136da5c87b007b22a9a9161e73" target="_top" xlink:title="INMOST::array::resize">
<polygon fill="none" stroke="black" points="158,-0.5 158,-19.5 271,-19.5 271,-0.5 158,-0.5"/>
<text text-anchor="middle" x="214.5" y="-7.5" font-family="Helvetica,sans-Serif" font-size="10.00">INMOST::array::resize</text>
</a>
</g>
</g>
<!-- Node1&#45;&gt;Node3 -->
<g id="edge2" class="edge"><title>Node1&#45;&gt;Node3</title>
<path fill="none" stroke="midnightblue" d="M122.312,-21.4361C130.642,-20.3914 139.233,-19.314 147.657,-18.2575"/>
<polygon fill="midnightblue" stroke="midnightblue" points="148.335,-21.7001 157.821,-16.9828 147.464,-14.7545 148.335,-21.7001"/>
</g>
</g>
</svg>
