<?xml version="1.0" encoding="UTF-8" standalone="no"?>
<!DOCTYPE svg PUBLIC "-//W3C//DTD SVG 1.1//EN"
 "http://www.w3.org/Graphics/SVG/1.1/DTD/svg11.dtd">
<!-- Generated by graphviz version 2.38.0 (20140413.2041)
 -->
<!-- Title: INMOST::Mesh::MarkersTag Pages: 1 -->
<svg width="714pt" height="345pt"
 viewBox="0.00 0.00 714.00 345.00" xmlns="http://www.w3.org/2000/svg" xmlns:xlink="http://www.w3.org/1999/xlink">
<g id="graph0" class="graph" transform="scale(1 1) rotate(0) translate(4 341)">
<title>INMOST::Mesh::MarkersTag</title>
<!-- Node1 -->
<g id="node1" class="node"><title>Node1</title>
<polygon fill="#bfbfbf" stroke="black" points="0,-134 0,-153 140,-153 140,-134 0,-134"/>
<text text-anchor="middle" x="70" y="-141" font-family="Helvetica,sans-Serif" font-size="10.00">INMOST::Mesh::MarkersTag</text>
</g>
<!-- Node2 -->
<g id="node2" class="node"><title>Node2</title>
<g id="a_node2"><a xlink:href="class_i_n_m_o_s_t_1_1_mesh.html#a2c8a00522e2b06a0b59e25cae119a237" target="_top" xlink:title="INMOST::Mesh::GetMarker">
<polygon fill="none" stroke="black" points="178.5,-153 178.5,-172 313.5,-172 313.5,-153 178.5,-153"/>
<text text-anchor="middle" x="246" y="-160" font-family="Helvetica,sans-Serif" font-size="10.00">INMOST::Mesh::GetMarker</text>
</a>
</g>
</g>
<!-- Node1&#45;&gt;Node2 -->
<g id="edge1" class="edge"><title>Node1&#45;&gt;Node2</title>
<path fill="none" stroke="midnightblue" d="M150.166,-152.145C159.581,-153.173 169.119,-154.214 178.335,-155.22"/>
<polygon fill="midnightblue" stroke="midnightblue" points="150.34,-148.643 140.019,-151.037 149.58,-155.601 150.34,-148.643"/>
</g>
<!-- Node11 -->
<g id="node11" class="node"><title>Node11</title>
<g id="a_node11"><a xlink:href="class_i_n_m_o_s_t_1_1_mesh.html#aa758ff129bf79eff3c446946e276006c" target="_top" xlink:title="INMOST::Mesh::RemMarker">
<polygon fill="none" stroke="black" points="176,-115 176,-134 316,-134 316,-115 176,-115"/>
<text text-anchor="middle" x="246" y="-122" font-family="Helvetica,sans-Serif" font-size="10.00">INMOST::Mesh::RemMarker</text>
</a>
</g>
</g>
<!-- Node1&#45;&gt;Node11 -->
<g id="edge10" class="edge"><title>Node1&#45;&gt;Node11</title>
<path fill="none" stroke="midnightblue" d="M150.035,-134.87C158.625,-133.932 167.319,-132.982 175.779,-132.059"/>
<polygon fill="midnightblue" stroke="midnightblue" points="149.58,-131.398 140.019,-135.963 150.34,-138.357 149.58,-131.398"/>
</g>
<!-- Node3 -->
<g id="node3" class="node"><title>Node3</title>
<g id="a_node3"><a xlink:href="class_i_n_m_o_s_t_1_1_storage.html#ad256a6f5101df9f507e359cdddef3a66" target="_top" xlink:title="INMOST::Storage::GetMarker">
<polygon fill="none" stroke="black" points="361,-153 361,-172 506,-172 506,-153 361,-153"/>
<text text-anchor="middle" x="433.5" y="-160" font-family="Helvetica,sans-Serif" font-size="10.00">INMOST::Storage::GetMarker</text>
</a>
</g>
</g>
<!-- Node2&#45;&gt;Node3 -->
<g id="edge2" class="edge"><title>Node2&#45;&gt;Node3</title>
<path fill="none" stroke="midnightblue" d="M323.856,-162.5C336.065,-162.5 348.654,-162.5 360.741,-162.5"/>
<polygon fill="midnightblue" stroke="midnightblue" points="323.708,-159 313.708,-162.5 323.708,-166 323.708,-159"/>
</g>
<!-- Node4 -->
<g id="node4" class="node"><title>Node4</title>
<g id="a_node4"><a xlink:href="class_i_n_m_o_s_t_1_1_automatizator.html#a3da0c47982b82640337e87375abe7314" target="_top" xlink:title="INMOST::Automatizator\l::isDynamicValid">
<polygon fill="none" stroke="black" points="568.5,-306.5 568.5,-336.5 688.5,-336.5 688.5,-306.5 568.5,-306.5"/>
<text text-anchor="start" x="576.5" y="-324.5" font-family="Helvetica,sans-Serif" font-size="10.00">INMOST::Automatizator</text>
<text text-anchor="middle" x="628.5" y="-313.5" font-family="Helvetica,sans-Serif" font-size="10.00">::isDynamicValid</text>
</a>
</g>
</g>
<!-- Node3&#45;&gt;Node4 -->
<g id="edge3" class="edge"><title>Node3&#45;&gt;Node4</title>
<path fill="none" stroke="midnightblue" d="M445.612,-181.02C463.962,-210.052 503.351,-266.185 551,-297.5 556.351,-301.017 562.249,-304.044 568.324,-306.645"/>
<polygon fill="midnightblue" stroke="midnightblue" points="448.45,-178.954 440.214,-172.289 442.496,-182.635 448.45,-178.954"/>
</g>
<!-- Node5 -->
<g id="node5" class="node"><title>Node5</title>
<g id="a_node5"><a xlink:href="class_i_n_m_o_s_t_1_1_automatizator.html#a6ae69d02eb607b39c5000c39882c484d" target="_top" xlink:title="INMOST::Automatizator\l::isStaticValid">
<polygon fill="none" stroke="black" points="568.5,-257.5 568.5,-287.5 688.5,-287.5 688.5,-257.5 568.5,-257.5"/>
<text text-anchor="start" x="576.5" y="-275.5" font-family="Helvetica,sans-Serif" font-size="10.00">INMOST::Automatizator</text>
<text text-anchor="middle" x="628.5" y="-264.5" font-family="Helvetica,sans-Serif" font-size="10.00">::isStaticValid</text>
</a>
</g>
</g>
<!-- Node3&#45;&gt;Node5 -->
<g id="edge4" class="edge"><title>Node3&#45;&gt;Node5</title>
<path fill="none" stroke="midnightblue" d="M452.874,-178.773C474.868,-197.544 513.452,-228.281 551,-247.5 558.214,-251.193 566.086,-254.495 573.947,-257.395"/>
<polygon fill="midnightblue" stroke="midnightblue" points="455.146,-176.111 445.294,-172.214 450.566,-181.404 455.146,-176.111"/>
</g>
<!-- Node6 -->
<g id="node6" class="node"><title>Node6</title>
<g id="a_node6"><a xlink:href="class_i_n_m_o_s_t_1_1enhanced__multivar__expression.html#aa7a9b5c6c18e890d941c0abaf36fc9ac" target="_top" xlink:title="INMOST::enhanced_multivar\l_expression::enhanced_multivar\l_expression">
<polygon fill="none" stroke="black" points="551,-197 551,-238 706,-238 706,-197 551,-197"/>
<text text-anchor="start" x="559" y="-226" font-family="Helvetica,sans-Serif" font-size="10.00">INMOST::enhanced_multivar</text>
<text text-anchor="start" x="559" y="-215" font-family="Helvetica,sans-Serif" font-size="10.00">_expression::enhanced_multivar</text>
<text text-anchor="middle" x="628.5" y="-204" font-family="Helvetica,sans-Serif" font-size="10.00">_expression</text>
</a>
</g>
</g>
<!-- Node3&#45;&gt;Node6 -->
<g id="edge5" class="edge"><title>Node3&#45;&gt;Node6</title>
<path fill="none" stroke="midnightblue" d="M477.866,-174.858C500.741,-181.377 529.404,-189.545 555.505,-196.983"/>
<polygon fill="midnightblue" stroke="midnightblue" points="478.694,-171.455 468.118,-172.08 476.776,-178.187 478.694,-171.455"/>
</g>
<!-- Node7 -->
<g id="node7" class="node"><title>Node7</title>
<g id="a_node7"><a xlink:href="class_i_n_m_o_s_t_1_1dynamic__variable.html#a41483a4546777613637e523f4f57ec81" target="_top" xlink:title="INMOST::dynamic_variable\l::Index">
<polygon fill="none" stroke="black" points="561.5,-147.5 561.5,-177.5 695.5,-177.5 695.5,-147.5 561.5,-147.5"/>
<text text-anchor="start" x="569.5" y="-165.5" font-family="Helvetica,sans-Serif" font-size="10.00">INMOST::dynamic_variable</text>
<text text-anchor="middle" x="628.5" y="-154.5" font-family="Helvetica,sans-Serif" font-size="10.00">::Index</text>
</a>
</g>
</g>
<!-- Node3&#45;&gt;Node7 -->
<g id="edge6" class="edge"><title>Node3&#45;&gt;Node7</title>
<path fill="none" stroke="midnightblue" d="M516.404,-162.5C531.438,-162.5 546.956,-162.5 561.452,-162.5"/>
<polygon fill="midnightblue" stroke="midnightblue" points="516.092,-159 506.092,-162.5 516.092,-166 516.092,-159"/>
</g>
<!-- Node8 -->
<g id="node8" class="node"><title>Node8</title>
<g id="a_node8"><a xlink:href="class_i_n_m_o_s_t_1_1dynamic__variable.html#a432e3db3a15b60eebc084cfd8dcfb28e" target="_top" xlink:title="INMOST::dynamic_variable\l::Variable">
<polygon fill="none" stroke="black" points="561.5,-98.5 561.5,-128.5 695.5,-128.5 695.5,-98.5 561.5,-98.5"/>
<text text-anchor="start" x="569.5" y="-116.5" font-family="Helvetica,sans-Serif" font-size="10.00">INMOST::dynamic_variable</text>
<text text-anchor="middle" x="628.5" y="-105.5" font-family="Helvetica,sans-Serif" font-size="10.00">::Variable</text>
</a>
</g>
</g>
<!-- Node3&#45;&gt;Node8 -->
<g id="edge7" class="edge"><title>Node3&#45;&gt;Node8</title>
<path fill="none" stroke="midnightblue" d="M485.854,-150.613C495.548,-148.303 505.594,-145.864 515,-143.5 533.722,-138.795 554.132,-133.426 572.364,-128.542"/>
<polygon fill="midnightblue" stroke="midnightblue" points="484.846,-147.254 475.922,-152.965 486.459,-154.066 484.846,-147.254"/>
</g>
<!-- Node9 -->
<g id="node9" class="node"><title>Node9</title>
<g id="a_node9"><a xlink:href="class_i_n_m_o_s_t_1_1dynamic__variable.html#af98d84e841029239fe4b098025ef0801" target="_top" xlink:title="INMOST::dynamic_variable\l::operator[]">
<polygon fill="none" stroke="black" points="561.5,-49.5 561.5,-79.5 695.5,-79.5 695.5,-49.5 561.5,-49.5"/>
<text text-anchor="start" x="569.5" y="-67.5" font-family="Helvetica,sans-Serif" font-size="10.00">INMOST::dynamic_variable</text>
<text text-anchor="middle" x="628.5" y="-56.5" font-family="Helvetica,sans-Serif" font-size="10.00">::operator[]</text>
</a>
</g>
</g>
<!-- Node3&#45;&gt;Node9 -->
<g id="edge8" class="edge"><title>Node3&#45;&gt;Node9</title>
<path fill="none" stroke="midnightblue" d="M505.966,-148.891C509.119,-147.288 512.151,-145.498 515,-143.5 538.921,-126.727 527.7,-106.125 551,-88.5 555.551,-85.057 560.607,-82.1013 565.889,-79.565"/>
<polygon fill="midnightblue" stroke="midnightblue" points="504.542,-145.694 496.807,-152.934 507.368,-152.098 504.542,-145.694"/>
</g>
<!-- Node10 -->
<g id="node10" class="node"><title>Node10</title>
<g id="a_node10"><a xlink:href="class_i_n_m_o_s_t_1_1dynamic__variable.html#a144f4624248335fd4b690f3416720007" target="_top" xlink:title="INMOST::dynamic_variable\l::isUnknown">
<polygon fill="none" stroke="black" points="561.5,-0.5 561.5,-30.5 695.5,-30.5 695.5,-0.5 561.5,-0.5"/>
<text text-anchor="start" x="569.5" y="-18.5" font-family="Helvetica,sans-Serif" font-size="10.00">INMOST::dynamic_variable</text>
<text text-anchor="middle" x="628.5" y="-7.5" font-family="Helvetica,sans-Serif" font-size="10.00">::isUnknown</text>
</a>
</g>
</g>
<!-- Node3&#45;&gt;Node10 -->
<g id="edge9" class="edge"><title>Node3&#45;&gt;Node10</title>
<path fill="none" stroke="midnightblue" d="M509.512,-147.836C511.432,-146.506 513.268,-145.064 515,-143.5 551.296,-110.712 515.911,-73.5774 551,-39.5 554.495,-36.1058 558.464,-33.1912 562.713,-30.6883"/>
<polygon fill="midnightblue" stroke="midnightblue" points="507.527,-144.94 500.615,-152.97 511.026,-151.003 507.527,-144.94"/>
</g>
<!-- Node12 -->
<g id="node12" class="node"><title>Node12</title>
<g id="a_node12"><a xlink:href="class_i_n_m_o_s_t_1_1_mesh.html#a14f8614996be1f7dd81825a447e9f4e8" target="_top" xlink:title="INMOST::Mesh::RemMarkerArray">
<polygon fill="none" stroke="black" points="352,-115 352,-134 515,-134 515,-115 352,-115"/>
<text text-anchor="middle" x="433.5" y="-122" font-family="Helvetica,sans-Serif" font-size="10.00">INMOST::Mesh::RemMarkerArray</text>
</a>
</g>
</g>
<!-- Node11&#45;&gt;Node12 -->
<g id="edge11" class="edge"><title>Node11&#45;&gt;Node12</title>
<path fill="none" stroke="midnightblue" d="M326.282,-124.5C334.728,-124.5 343.327,-124.5 351.79,-124.5"/>
<polygon fill="midnightblue" stroke="midnightblue" points="326.073,-121 316.073,-124.5 326.073,-128 326.073,-121"/>
</g>
<!-- Node13 -->
<g id="node13" class="node"><title>Node13</title>
<g id="a_node13"><a xlink:href="class_i_n_m_o_s_t_1_1_storage.html#aeae593e88e3269f8590742a9e95d1813" target="_top" xlink:title="INMOST::Storage::RemMarker">
<polygon fill="none" stroke="black" points="359,-77 359,-96 508,-96 508,-77 359,-77"/>
<text text-anchor="middle" x="433.5" y="-84" font-family="Helvetica,sans-Serif" font-size="10.00">INMOST::Storage::RemMarker</text>
</a>
</g>
</g>
<!-- Node11&#45;&gt;Node13 -->
<g id="edge12" class="edge"><title>Node11&#45;&gt;Node13</title>
<path fill="none" stroke="midnightblue" d="M303.673,-112.89C330.055,-107.486 361.051,-101.136 386.027,-96.0201"/>
<polygon fill="midnightblue" stroke="midnightblue" points="302.904,-109.475 293.809,-114.911 304.308,-116.333 302.904,-109.475"/>
</g>
</g>
</svg>
