<?xml version="1.0" encoding="UTF-8" standalone="no"?>
<!DOCTYPE svg PUBLIC "-//W3C//DTD SVG 1.1//EN"
 "http://www.w3.org/Graphics/SVG/1.1/DTD/svg11.dtd">
<!-- Generated by graphviz version 2.38.0 (20140413.2041)
 -->
<!-- Title: INMOST::Mesh::NumberOfFaces Pages: 1 -->
<svg width="558pt" height="28pt"
 viewBox="0.00 0.00 558.00 28.00" xmlns="http://www.w3.org/2000/svg" xmlns:xlink="http://www.w3.org/1999/xlink">
<g id="graph0" class="graph" transform="scale(1 1) rotate(0) translate(4 24)">
<title>INMOST::Mesh::NumberOfFaces</title>
<!-- Node1 -->
<g id="node1" class="node"><title>Node1</title>
<polygon fill="#bfbfbf" stroke="black" points="0,-0.5 0,-19.5 160,-19.5 160,-0.5 0,-0.5"/>
<text text-anchor="middle" x="80" y="-7.5" font-family="Helvetica,sans-Serif" font-size="10.00">INMOST::Mesh::NumberOfFaces</text>
</g>
<!-- Node2 -->
<g id="node2" class="node"><title>Node2</title>
<g id="a_node2"><a xlink:href="class_i_n_m_o_s_t_1_1_mesh.html#a7aee6d7f5b7432dc34bc7319a9e1e8f4" target="_top" xlink:title="INMOST::Mesh::NumberOfElements">
<polygon fill="none" stroke="black" points="196,-0.5 196,-19.5 370,-19.5 370,-0.5 196,-0.5"/>
<text text-anchor="middle" x="283" y="-7.5" font-family="Helvetica,sans-Serif" font-size="10.00">INMOST::Mesh::NumberOfElements</text>
</a>
</g>
</g>
<!-- Node1&#45;&gt;Node2 -->
<g id="edge1" class="edge"><title>Node1&#45;&gt;Node2</title>
<path fill="none" stroke="midnightblue" d="M170.432,-10C178.916,-10 187.506,-10 195.958,-10"/>
<polygon fill="midnightblue" stroke="midnightblue" points="170.152,-6.5001 160.152,-10 170.152,-13.5001 170.152,-6.5001"/>
</g>
<!-- Node3 -->
<g id="node3" class="node"><title>Node3</title>
<g id="a_node3"><a xlink:href="class_i_n_m_o_s_t_1_1_mesh.html#a8f8e4c3631d8448e738f26cfc99e6871" target="_top" xlink:title="INMOST::Mesh::NumberOfAll">
<polygon fill="none" stroke="black" points="406,-0.5 406,-19.5 550,-19.5 550,-0.5 406,-0.5"/>
<text text-anchor="middle" x="478" y="-7.5" font-family="Helvetica,sans-Serif" font-size="10.00">INMOST::Mesh::NumberOfAll</text>
</a>
</g>
</g>
<!-- Node2&#45;&gt;Node3 -->
<g id="edge2" class="edge"><title>Node2&#45;&gt;Node3</title>
<path fill="none" stroke="midnightblue" d="M380.185,-10C388.828,-10 397.474,-10 405.847,-10"/>
<polygon fill="midnightblue" stroke="midnightblue" points="380.058,-6.5001 370.058,-10 380.058,-13.5001 380.058,-6.5001"/>
</g>
</g>
</svg>
