<?xml version="1.0" encoding="UTF-8" standalone="no"?>
<!DOCTYPE svg PUBLIC "-//W3C//DTD SVG 1.1//EN"
 "http://www.w3.org/Graphics/SVG/1.1/DTD/svg11.dtd">
<!-- Generated by graphviz version 2.38.0 (20140413.2041)
 -->
<!-- Title: INMOST::interval::shift_interval Pages: 1 -->
<svg width="351pt" height="149pt"
 viewBox="0.00 0.00 351.00 148.50" xmlns="http://www.w3.org/2000/svg" xmlns:xlink="http://www.w3.org/1999/xlink">
<g id="graph0" class="graph" transform="scale(1 1) rotate(0) translate(4 144.5)">
<title>INMOST::interval::shift_interval</title>
<!-- Node1 -->
<g id="node1" class="node"><title>Node1</title>
<polygon fill="#bfbfbf" stroke="black" points="0,-49.5 0,-79.5 113,-79.5 113,-49.5 0,-49.5"/>
<text text-anchor="start" x="8" y="-67.5" font-family="Helvetica,sans-Serif" font-size="10.00">INMOST::interval::shift</text>
<text text-anchor="middle" x="56.5" y="-56.5" font-family="Helvetica,sans-Serif" font-size="10.00">_interval</text>
</g>
<!-- Node2 -->
<g id="node2" class="node"><title>Node2</title>
<g id="a_node2"><a xlink:href="class_i_n_m_o_s_t_1_1interval.html#a680a00e59fdf7a99b16de9de31af60fb" target="_top" xlink:title="INMOST::interval\&lt; INMOST\l_DATA_ENUM_TYPE, INMOST\l_DATA_REAL_TYPE \&gt;::set_interval_beg">
<polygon fill="none" stroke="black" points="149,-99 149,-140 343,-140 343,-99 149,-99"/>
<text text-anchor="start" x="157" y="-128" font-family="Helvetica,sans-Serif" font-size="10.00">INMOST::interval&lt; INMOST</text>
<text text-anchor="start" x="157" y="-117" font-family="Helvetica,sans-Serif" font-size="10.00">_DATA_ENUM_TYPE, INMOST</text>
<text text-anchor="middle" x="246" y="-106" font-family="Helvetica,sans-Serif" font-size="10.00">_DATA_REAL_TYPE &gt;::set_interval_beg</text>
</a>
</g>
</g>
<!-- Node1&#45;&gt;Node2 -->
<g id="edge1" class="edge"><title>Node1&#45;&gt;Node2</title>
<path fill="none" stroke="midnightblue" d="M118.52,-82.3991C136.508,-87.6757 156.335,-93.4916 174.849,-98.9223"/>
<polygon fill="midnightblue" stroke="midnightblue" points="119.316,-78.9853 108.735,-79.529 117.346,-85.7023 119.316,-78.9853"/>
</g>
<!-- Node3 -->
<g id="node3" class="node"><title>Node3</title>
<g id="a_node3"><a xlink:href="class_i_n_m_o_s_t_1_1_sparse_1_1_vector.html#a6510f622ffd121be082afb2dd09a6f23" target="_top" xlink:title="INMOST::Sparse::Vector\l::ShiftInterval">
<polygon fill="none" stroke="black" points="183.5,-49.5 183.5,-79.5 308.5,-79.5 308.5,-49.5 183.5,-49.5"/>
<text text-anchor="start" x="191.5" y="-67.5" font-family="Helvetica,sans-Serif" font-size="10.00">INMOST::Sparse::Vector</text>
<text text-anchor="middle" x="246" y="-56.5" font-family="Helvetica,sans-Serif" font-size="10.00">::ShiftInterval</text>
</a>
</g>
</g>
<!-- Node1&#45;&gt;Node3 -->
<g id="edge2" class="edge"><title>Node1&#45;&gt;Node3</title>
<path fill="none" stroke="midnightblue" d="M123.257,-64.5C142.746,-64.5 164.01,-64.5 183.236,-64.5"/>
<polygon fill="midnightblue" stroke="midnightblue" points="123.249,-61.0001 113.249,-64.5 123.248,-68.0001 123.249,-61.0001"/>
</g>
<!-- Node4 -->
<g id="node4" class="node"><title>Node4</title>
<g id="a_node4"><a xlink:href="class_i_n_m_o_s_t_1_1_sparse_1_1_matrix.html#ac8ac8e9e19c2f05a2240ed29c20aab53" target="_top" xlink:title="INMOST::Sparse::Matrix\l::ShiftInterval">
<polygon fill="none" stroke="black" points="184.5,-0.5 184.5,-30.5 307.5,-30.5 307.5,-0.5 184.5,-0.5"/>
<text text-anchor="start" x="192.5" y="-18.5" font-family="Helvetica,sans-Serif" font-size="10.00">INMOST::Sparse::Matrix</text>
<text text-anchor="middle" x="246" y="-7.5" font-family="Helvetica,sans-Serif" font-size="10.00">::ShiftInterval</text>
</a>
</g>
</g>
<!-- Node1&#45;&gt;Node4 -->
<g id="edge3" class="edge"><title>Node1&#45;&gt;Node4</title>
<path fill="none" stroke="midnightblue" d="M122.953,-47.317C131.71,-45.0226 140.573,-42.7026 149,-40.5 161.331,-37.2774 174.554,-33.8289 187.124,-30.5544"/>
<polygon fill="midnightblue" stroke="midnightblue" points="121.927,-43.9677 113.141,-49.8889 123.702,-50.739 121.927,-43.9677"/>
</g>
</g>
</svg>
