<?xml version="1.0" encoding="UTF-8" standalone="no"?>
<!DOCTYPE svg PUBLIC "-//W3C//DTD SVG 1.1//EN"
 "http://www.w3.org/Graphics/SVG/1.1/DTD/svg11.dtd">
<!-- Generated by graphviz version 2.38.0 (20140413.2041)
 -->
<!-- Title: INMOST::chunk_array::inner_resize Pages: 1 -->
<svg width="297pt" height="416pt"
 viewBox="0.00 0.00 297.00 416.00" xmlns="http://www.w3.org/2000/svg" xmlns:xlink="http://www.w3.org/1999/xlink">
<g id="graph0" class="graph" transform="scale(1 1) rotate(0) translate(4 412)">
<title>INMOST::chunk_array::inner_resize</title>
<!-- Node1 -->
<g id="node1" class="node"><title>Node1</title>
<polygon fill="#bfbfbf" stroke="black" points="0,-188.5 0,-218.5 113,-218.5 113,-188.5 0,-188.5"/>
<text text-anchor="start" x="8" y="-206.5" font-family="Helvetica,sans-Serif" font-size="10.00">INMOST::chunk_array</text>
<text text-anchor="middle" x="56.5" y="-195.5" font-family="Helvetica,sans-Serif" font-size="10.00">::inner_resize</text>
</g>
<!-- Node2 -->
<g id="node2" class="node"><title>Node2</title>
<g id="a_node2"><a xlink:href="class_i_n_m_o_s_t_1_1chunk__array.html#a08f24768977d6a77da4c28a921f39c81" target="_top" xlink:title="INMOST::chunk_array\l\&lt; INMOST_DATA_INTEGER\l_TYPE, chunk_bits_elems\l \&gt;::chunk_array">
<polygon fill="none" stroke="black" points="149,-355.5 149,-407.5 289,-407.5 289,-355.5 149,-355.5"/>
<text text-anchor="start" x="157" y="-395.5" font-family="Helvetica,sans-Serif" font-size="10.00">INMOST::chunk_array</text>
<text text-anchor="start" x="157" y="-384.5" font-family="Helvetica,sans-Serif" font-size="10.00">&lt; INMOST_DATA_INTEGER</text>
<text text-anchor="start" x="157" y="-373.5" font-family="Helvetica,sans-Serif" font-size="10.00">_TYPE, chunk_bits_elems</text>
<text text-anchor="middle" x="219" y="-362.5" font-family="Helvetica,sans-Serif" font-size="10.00"> &gt;::chunk_array</text>
</a>
</g>
</g>
<!-- Node1&#45;&gt;Node2 -->
<g id="edge1" class="edge"><title>Node1&#45;&gt;Node2</title>
<path fill="none" stroke="midnightblue" d="M68.1322,-227.925C82.6151,-258.856 111.137,-312.239 149,-346.5 152.486,-349.654 156.308,-352.6 160.31,-355.336"/>
<polygon fill="midnightblue" stroke="midnightblue" points="71.2679,-226.366 63.9293,-218.725 64.9008,-229.275 71.2679,-226.366"/>
</g>
<!-- Node3 -->
<g id="node3" class="node"><title>Node3</title>
<g id="a_node3"><a xlink:href="class_i_n_m_o_s_t_1_1chunk__array.html#a678532359245fd5d0d5008f405054b9c" target="_top" xlink:title="INMOST::chunk_array\l\&lt; INMOST_DATA_INTEGER\l_TYPE, chunk_bits_elems\l \&gt;::operator=">
<polygon fill="none" stroke="black" points="149,-284.5 149,-336.5 289,-336.5 289,-284.5 149,-284.5"/>
<text text-anchor="start" x="157" y="-324.5" font-family="Helvetica,sans-Serif" font-size="10.00">INMOST::chunk_array</text>
<text text-anchor="start" x="157" y="-313.5" font-family="Helvetica,sans-Serif" font-size="10.00">&lt; INMOST_DATA_INTEGER</text>
<text text-anchor="start" x="157" y="-302.5" font-family="Helvetica,sans-Serif" font-size="10.00">_TYPE, chunk_bits_elems</text>
<text text-anchor="middle" x="219" y="-291.5" font-family="Helvetica,sans-Serif" font-size="10.00"> &gt;::operator=</text>
</a>
</g>
</g>
<!-- Node1&#45;&gt;Node3 -->
<g id="edge2" class="edge"><title>Node1&#45;&gt;Node3</title>
<path fill="none" stroke="midnightblue" d="M82.2883,-225.198C100.154,-240.279 125.21,-260.317 149,-275.5 153.755,-278.535 158.808,-281.516 163.932,-284.38"/>
<polygon fill="midnightblue" stroke="midnightblue" points="84.4955,-222.481 74.6162,-218.653 79.9524,-227.806 84.4955,-222.481"/>
</g>
<!-- Node4 -->
<g id="node4" class="node"><title>Node4</title>
<g id="a_node4"><a xlink:href="class_i_n_m_o_s_t_1_1chunk__array.html#a0bffae66818379747397f3315e32d388" target="_top" xlink:title="INMOST::chunk_array\l\&lt; INMOST_DATA_INTEGER\l_TYPE, chunk_bits_elems\l \&gt;::pop_back">
<polygon fill="none" stroke="black" points="149,-213.5 149,-265.5 289,-265.5 289,-213.5 149,-213.5"/>
<text text-anchor="start" x="157" y="-253.5" font-family="Helvetica,sans-Serif" font-size="10.00">INMOST::chunk_array</text>
<text text-anchor="start" x="157" y="-242.5" font-family="Helvetica,sans-Serif" font-size="10.00">&lt; INMOST_DATA_INTEGER</text>
<text text-anchor="start" x="157" y="-231.5" font-family="Helvetica,sans-Serif" font-size="10.00">_TYPE, chunk_bits_elems</text>
<text text-anchor="middle" x="219" y="-220.5" font-family="Helvetica,sans-Serif" font-size="10.00"> &gt;::pop_back</text>
</a>
</g>
</g>
<!-- Node1&#45;&gt;Node4 -->
<g id="edge3" class="edge"><title>Node1&#45;&gt;Node4</title>
<path fill="none" stroke="midnightblue" d="M123.039,-218.2C131.544,-220.108 140.276,-222.067 148.837,-223.987"/>
<polygon fill="midnightblue" stroke="midnightblue" points="123.708,-214.764 113.185,-215.99 122.176,-221.594 123.708,-214.764"/>
</g>
<!-- Node5 -->
<g id="node5" class="node"><title>Node5</title>
<g id="a_node5"><a xlink:href="class_i_n_m_o_s_t_1_1chunk__array.html#acb8f27d91eb6cdf0f57ef5b26b8c0aab" target="_top" xlink:title="INMOST::chunk_array\l\&lt; INMOST_DATA_INTEGER\l_TYPE, chunk_bits_elems\l \&gt;::push_back">
<polygon fill="none" stroke="black" points="149,-142.5 149,-194.5 289,-194.5 289,-142.5 149,-142.5"/>
<text text-anchor="start" x="157" y="-182.5" font-family="Helvetica,sans-Serif" font-size="10.00">INMOST::chunk_array</text>
<text text-anchor="start" x="157" y="-171.5" font-family="Helvetica,sans-Serif" font-size="10.00">&lt; INMOST_DATA_INTEGER</text>
<text text-anchor="start" x="157" y="-160.5" font-family="Helvetica,sans-Serif" font-size="10.00">_TYPE, chunk_bits_elems</text>
<text text-anchor="middle" x="219" y="-149.5" font-family="Helvetica,sans-Serif" font-size="10.00"> &gt;::push_back</text>
</a>
</g>
</g>
<!-- Node1&#45;&gt;Node5 -->
<g id="edge4" class="edge"><title>Node1&#45;&gt;Node5</title>
<path fill="none" stroke="midnightblue" d="M123.039,-189.208C131.544,-187.353 140.276,-185.449 148.837,-183.582"/>
<polygon fill="midnightblue" stroke="midnightblue" points="122.209,-185.807 113.185,-191.357 123.701,-192.646 122.209,-185.807"/>
</g>
<!-- Node6 -->
<g id="node6" class="node"><title>Node6</title>
<g id="a_node6"><a xlink:href="class_i_n_m_o_s_t_1_1chunk__array.html#a3f6a94c216a88c9c75b7bacf224d6845" target="_top" xlink:title="INMOST::chunk_array\l\&lt; INMOST_DATA_INTEGER\l_TYPE, chunk_bits_elems\l \&gt;::resize">
<polygon fill="none" stroke="black" points="149,-71.5 149,-123.5 289,-123.5 289,-71.5 149,-71.5"/>
<text text-anchor="start" x="157" y="-111.5" font-family="Helvetica,sans-Serif" font-size="10.00">INMOST::chunk_array</text>
<text text-anchor="start" x="157" y="-100.5" font-family="Helvetica,sans-Serif" font-size="10.00">&lt; INMOST_DATA_INTEGER</text>
<text text-anchor="start" x="157" y="-89.5" font-family="Helvetica,sans-Serif" font-size="10.00">_TYPE, chunk_bits_elems</text>
<text text-anchor="middle" x="219" y="-78.5" font-family="Helvetica,sans-Serif" font-size="10.00"> &gt;::resize</text>
</a>
</g>
</g>
<!-- Node1&#45;&gt;Node6 -->
<g id="edge5" class="edge"><title>Node1&#45;&gt;Node6</title>
<path fill="none" stroke="midnightblue" d="M83.5901,-181.611C101.435,-167.13 125.947,-148.178 149,-133.5 154.243,-130.162 159.829,-126.861 165.467,-123.692"/>
<polygon fill="midnightblue" stroke="midnightblue" points="80.9166,-179.277 75.4008,-188.323 85.3537,-184.691 80.9166,-179.277"/>
</g>
<!-- Node7 -->
<g id="node7" class="node"><title>Node7</title>
<g id="a_node7"><a xlink:href="class_i_n_m_o_s_t_1_1chunk__array.html#a0aadae81d8334f37bfcb18052447d3f6" target="_top" xlink:title="INMOST::chunk_array\l\&lt; INMOST_DATA_INTEGER\l_TYPE, chunk_bits_elems\l \&gt;::erase">
<polygon fill="none" stroke="black" points="149,-0.5 149,-52.5 289,-52.5 289,-0.5 149,-0.5"/>
<text text-anchor="start" x="157" y="-40.5" font-family="Helvetica,sans-Serif" font-size="10.00">INMOST::chunk_array</text>
<text text-anchor="start" x="157" y="-29.5" font-family="Helvetica,sans-Serif" font-size="10.00">&lt; INMOST_DATA_INTEGER</text>
<text text-anchor="start" x="157" y="-18.5" font-family="Helvetica,sans-Serif" font-size="10.00">_TYPE, chunk_bits_elems</text>
<text text-anchor="middle" x="219" y="-7.5" font-family="Helvetica,sans-Serif" font-size="10.00"> &gt;::erase</text>
</a>
</g>
</g>
<!-- Node1&#45;&gt;Node7 -->
<g id="edge6" class="edge"><title>Node1&#45;&gt;Node7</title>
<path fill="none" stroke="midnightblue" d="M68.5065,-179.013C83.212,-148.522 111.793,-96.3394 149,-62.5 152.898,-58.9545 157.21,-55.6538 161.719,-52.6055"/>
<polygon fill="midnightblue" stroke="midnightblue" points="65.3215,-177.561 64.2262,-188.099 71.654,-180.544 65.3215,-177.561"/>
</g>
</g>
</svg>
