<?xml version="1.0" encoding="UTF-8" standalone="no"?>
<!DOCTYPE svg PUBLIC "-//W3C//DTD SVG 1.1//EN"
 "http://www.w3.org/Graphics/SVG/1.1/DTD/svg11.dtd">
<!-- Generated by graphviz version 2.38.0 (20140413.2041)
 -->
<!-- Title: INMOST::sin_expression::sin_expression Pages: 1 -->
<svg width="201pt" height="66pt"
 viewBox="0.00 0.00 201.00 66.00" xmlns="http://www.w3.org/2000/svg" xmlns:xlink="http://www.w3.org/1999/xlink">
<g id="graph0" class="graph" transform="scale(1 1) rotate(0) translate(4 62)">
<title>INMOST::sin_expression::sin_expression</title>
<!-- Node1 -->
<g id="node1" class="node"><title>Node1</title>
<polygon fill="#bfbfbf" stroke="black" points="0,-14 0,-44 125,-44 125,-14 0,-14"/>
<text text-anchor="start" x="8" y="-32" font-family="Helvetica,sans-Serif" font-size="10.00">INMOST::sin_expression</text>
<text text-anchor="middle" x="62.5" y="-21" font-family="Helvetica,sans-Serif" font-size="10.00">::sin_expression</text>
</g>
<!-- Node2 -->
<g id="node2" class="node"><title>Node2</title>
<g id="a_node2"><a xlink:href="inmost__expression_8h.html#acef6948e27e092e2a8bb2aeda45595b0" target="_top" xlink:title="cos">
<polygon fill="none" stroke="black" points="161,-38.5 161,-57.5 193,-57.5 193,-38.5 161,-38.5"/>
<text text-anchor="middle" x="177" y="-45.5" font-family="Helvetica,sans-Serif" font-size="10.00">cos</text>
</a>
</g>
</g>
<!-- Node1&#45;&gt;Node2 -->
<g id="edge1" class="edge"><title>Node1&#45;&gt;Node2</title>
<path fill="none" stroke="midnightblue" d="M125.017,-39.3895C134.082,-40.9205 142.963,-42.4204 150.707,-43.7283"/>
<polygon fill="midnightblue" stroke="midnightblue" points="150.355,-47.2184 160.799,-45.4326 151.521,-40.3161 150.355,-47.2184"/>
</g>
<!-- Node3 -->
<g id="node3" class="node"><title>Node3</title>
<g id="a_node3"><a xlink:href="inmost__expression_8h.html#a737fb4f3f217848c95b76908220f8562" target="_top" xlink:title="sin">
<polygon fill="none" stroke="black" points="162.5,-0.5 162.5,-19.5 191.5,-19.5 191.5,-0.5 162.5,-0.5"/>
<text text-anchor="middle" x="177" y="-7.5" font-family="Helvetica,sans-Serif" font-size="10.00">sin</text>
</a>
</g>
</g>
<!-- Node1&#45;&gt;Node3 -->
<g id="edge2" class="edge"><title>Node1&#45;&gt;Node3</title>
<path fill="none" stroke="midnightblue" d="M125.017,-18.6105C134.609,-16.9905 143.996,-15.4052 152.047,-14.0454"/>
<polygon fill="midnightblue" stroke="midnightblue" points="152.815,-17.4653 162.092,-12.3488 151.649,-10.5631 152.815,-17.4653"/>
</g>
</g>
</svg>
