<?xml version="1.0" encoding="UTF-8" standalone="no"?>
<!DOCTYPE svg PUBLIC "-//W3C//DTD SVG 1.1//EN"
 "http://www.w3.org/Graphics/SVG/1.1/DTD/svg11.dtd">
<!-- Generated by graphviz version 2.38.0 (20140413.2041)
 -->
<!-- Title: INMOST::Storage::SetPrivateMarker Pages: 1 -->
<svg width="525pt" height="192pt"
 viewBox="0.00 0.00 525.00 192.00" xmlns="http://www.w3.org/2000/svg" xmlns:xlink="http://www.w3.org/1999/xlink">
<g id="graph0" class="graph" transform="scale(1 1) rotate(0) translate(4 188)">
<title>INMOST::Storage::SetPrivateMarker</title>
<!-- Node1 -->
<g id="node1" class="node"><title>Node1</title>
<polygon fill="#bfbfbf" stroke="black" points="0,-61 0,-91 143,-91 143,-61 0,-61"/>
<text text-anchor="start" x="8" y="-79" font-family="Helvetica,sans-Serif" font-size="10.00">INMOST::Storage::SetPrivate</text>
<text text-anchor="middle" x="71.5" y="-68" font-family="Helvetica,sans-Serif" font-size="10.00">Marker</text>
</g>
<!-- Node2 -->
<g id="node2" class="node"><title>Node2</title>
<g id="a_node2"><a xlink:href="class_i_n_m_o_s_t_1_1_storage.html#a59da31b96c2b4e09e260f0deb4dae4d9" target="_top" xlink:title="INMOST::Storage::isValid">
<polygon fill="none" stroke="black" points="187.5,-126.5 187.5,-145.5 315.5,-145.5 315.5,-126.5 187.5,-126.5"/>
<text text-anchor="middle" x="251.5" y="-133.5" font-family="Helvetica,sans-Serif" font-size="10.00">INMOST::Storage::isValid</text>
</a>
</g>
</g>
<!-- Node1&#45;&gt;Node2 -->
<g id="edge1" class="edge"><title>Node1&#45;&gt;Node2</title>
<path fill="none" stroke="midnightblue" d="M117.056,-91.0845C136.13,-97.5361 158.654,-105.147 179,-112 189.831,-115.648 201.587,-119.599 212.379,-123.221"/>
<polygon fill="midnightblue" stroke="midnightblue" points="211.371,-126.574 221.965,-126.437 213.598,-119.938 211.371,-126.574"/>
</g>
<!-- Node4 -->
<g id="node4" class="node"><title>Node4</title>
<g id="a_node4"><a xlink:href="class_i_n_m_o_s_t_1_1_storage.html#a20d218fc89f75ca8534707b4f697173e" target="_top" xlink:title="INMOST::Storage::GetMeshLink">
<polygon fill="none" stroke="black" points="360,-88.5 360,-107.5 517,-107.5 517,-88.5 360,-88.5"/>
<text text-anchor="middle" x="438.5" y="-95.5" font-family="Helvetica,sans-Serif" font-size="10.00">INMOST::Storage::GetMeshLink</text>
</a>
</g>
</g>
<!-- Node1&#45;&gt;Node4 -->
<g id="edge5" class="edge"><title>Node1&#45;&gt;Node4</title>
<path fill="none" stroke="midnightblue" d="M143.308,-80.2679C202.222,-83.8189 286.368,-88.8907 349.587,-92.7011"/>
<polygon fill="midnightblue" stroke="midnightblue" points="349.75,-96.2172 359.943,-93.3253 350.172,-89.2299 349.75,-96.2172"/>
</g>
<!-- Node6 -->
<g id="node6" class="node"><title>Node6</title>
<g id="a_node6"><a xlink:href="class_i_n_m_o_s_t_1_1_mesh.html#a3be4fb19b5b9511a2b9d6c5c595997b4" target="_top" xlink:title="INMOST::Mesh::SetPrivate\lMarker">
<polygon fill="none" stroke="black" points="184.5,-39 184.5,-69 318.5,-69 318.5,-39 184.5,-39"/>
<text text-anchor="start" x="192.5" y="-57" font-family="Helvetica,sans-Serif" font-size="10.00">INMOST::Mesh::SetPrivate</text>
<text text-anchor="middle" x="251.5" y="-46" font-family="Helvetica,sans-Serif" font-size="10.00">Marker</text>
</a>
</g>
</g>
<!-- Node1&#45;&gt;Node6 -->
<g id="edge6" class="edge"><title>Node1&#45;&gt;Node6</title>
<path fill="none" stroke="midnightblue" d="M143.106,-67.2734C153.298,-66.0138 163.826,-64.7125 174.124,-63.4398"/>
<polygon fill="midnightblue" stroke="midnightblue" points="174.829,-66.8793 184.324,-62.179 173.97,-59.9322 174.829,-66.8793"/>
</g>
<!-- Node7 -->
<g id="node7" class="node"><title>Node7</title>
<g id="a_node7"><a xlink:href="class_i_n_m_o_s_t_1_1_storage.html#ac79e3f3664b2ff21892f37bce0caa0e0" target="_top" xlink:title="INMOST::Storage::GetHandle">
<polygon fill="none" stroke="black" points="179,-0.5 179,-19.5 324,-19.5 324,-0.5 179,-0.5"/>
<text text-anchor="middle" x="251.5" y="-7.5" font-family="Helvetica,sans-Serif" font-size="10.00">INMOST::Storage::GetHandle</text>
</a>
</g>
</g>
<!-- Node1&#45;&gt;Node7 -->
<g id="edge7" class="edge"><title>Node1&#45;&gt;Node7</title>
<path fill="none" stroke="midnightblue" d="M103.208,-60.9205C124.212,-50.9881 152.876,-38.1727 179,-29 185.832,-26.6012 193.122,-24.3375 200.338,-22.2657"/>
<polygon fill="midnightblue" stroke="midnightblue" points="201.379,-25.6092 210.081,-19.5649 199.509,-18.8635 201.379,-25.6092"/>
</g>
<!-- Node3 -->
<g id="node3" class="node"><title>Node3</title>
<g id="a_node3"><a xlink:href="namespace_i_n_m_o_s_t.html#a115b3e54c3b7be04ffec9b69c058df18" target="_top" xlink:title="INMOST::InvalidHandle">
<polygon fill="none" stroke="black" points="380.5,-164.5 380.5,-183.5 496.5,-183.5 496.5,-164.5 380.5,-164.5"/>
<text text-anchor="middle" x="438.5" y="-171.5" font-family="Helvetica,sans-Serif" font-size="10.00">INMOST::InvalidHandle</text>
</a>
</g>
</g>
<!-- Node2&#45;&gt;Node3 -->
<g id="edge2" class="edge"><title>Node2&#45;&gt;Node3</title>
<path fill="none" stroke="midnightblue" d="M299.183,-145.589C324.146,-150.716 355.064,-157.067 381.334,-162.463"/>
<polygon fill="midnightblue" stroke="midnightblue" points="380.653,-165.896 391.152,-164.48 382.061,-159.039 380.653,-165.896"/>
</g>
<!-- Node2&#45;&gt;Node4 -->
<g id="edge3" class="edge"><title>Node2&#45;&gt;Node4</title>
<path fill="none" stroke="midnightblue" d="M299.183,-126.411C324.146,-121.284 355.064,-114.933 381.334,-109.537"/>
<polygon fill="midnightblue" stroke="midnightblue" points="382.061,-112.961 391.152,-107.52 380.653,-106.104 382.061,-112.961"/>
</g>
<!-- Node5 -->
<g id="node5" class="node"><title>Node5</title>
<g id="a_node5"><a xlink:href="class_i_n_m_o_s_t_1_1_mesh.html#a05701da4bd3ed8ca69bbcca256c2b0e2" target="_top" xlink:title="INMOST::Mesh::isValidElement">
<polygon fill="none" stroke="black" points="361,-126.5 361,-145.5 516,-145.5 516,-126.5 361,-126.5"/>
<text text-anchor="middle" x="438.5" y="-133.5" font-family="Helvetica,sans-Serif" font-size="10.00">INMOST::Mesh::isValidElement</text>
</a>
</g>
</g>
<!-- Node2&#45;&gt;Node5 -->
<g id="edge4" class="edge"><title>Node2&#45;&gt;Node5</title>
<path fill="none" stroke="midnightblue" d="M315.649,-136C326.902,-136 338.802,-136 350.581,-136"/>
<polygon fill="midnightblue" stroke="midnightblue" points="350.881,-139.5 360.881,-136 350.881,-132.5 350.881,-139.5"/>
</g>
</g>
</svg>
