<?xml version="1.0" encoding="UTF-8" standalone="no"?>
<!DOCTYPE svg PUBLIC "-//W3C//DTD SVG 1.1//EN"
 "http://www.w3.org/Graphics/SVG/1.1/DTD/svg11.dtd">
<!-- Generated by graphviz version 2.38.0 (20140413.2041)
 -->
<!-- Title: INMOST::Storage::IntegerArrayDV Pages: 1 -->
<svg width="329pt" height="104pt"
 viewBox="0.00 0.00 329.00 104.00" xmlns="http://www.w3.org/2000/svg" xmlns:xlink="http://www.w3.org/1999/xlink">
<g id="graph0" class="graph" transform="scale(1 1) rotate(0) translate(4 100)">
<title>INMOST::Storage::IntegerArrayDV</title>
<!-- Node1 -->
<g id="node1" class="node"><title>Node1</title>
<polygon fill="#bfbfbf" stroke="black" points="0,-33 0,-63 128,-63 128,-33 0,-33"/>
<text text-anchor="start" x="8" y="-51" font-family="Helvetica,sans-Serif" font-size="10.00">INMOST::Storage::Integer</text>
<text text-anchor="middle" x="64" y="-40" font-family="Helvetica,sans-Serif" font-size="10.00">ArrayDV</text>
</g>
<!-- Node2 -->
<g id="node2" class="node"><title>Node2</title>
<g id="a_node2"><a xlink:href="class_i_n_m_o_s_t_1_1_storage.html#a20d218fc89f75ca8534707b4f697173e" target="_top" xlink:title="INMOST::Storage::GetMeshLink">
<polygon fill="none" stroke="black" points="164,-76.5 164,-95.5 321,-95.5 321,-76.5 164,-76.5"/>
<text text-anchor="middle" x="242.5" y="-83.5" font-family="Helvetica,sans-Serif" font-size="10.00">INMOST::Storage::GetMeshLink</text>
</a>
</g>
</g>
<!-- Node1&#45;&gt;Node2 -->
<g id="edge1" class="edge"><title>Node1&#45;&gt;Node2</title>
<path fill="none" stroke="midnightblue" d="M128.222,-61.6115C147.591,-65.7815 168.712,-70.329 187.414,-74.3554"/>
<polygon fill="midnightblue" stroke="midnightblue" points="186.726,-77.7873 197.238,-76.4706 188.199,-70.9441 186.726,-77.7873"/>
</g>
<!-- Node3 -->
<g id="node3" class="node"><title>Node3</title>
<g id="a_node3"><a xlink:href="class_i_n_m_o_s_t_1_1_mesh.html#ad74aed700689551567039dfddfbf5971" target="_top" xlink:title="INMOST::Mesh::IntegerArrayDV">
<polygon fill="none" stroke="black" points="165,-38.5 165,-57.5 320,-57.5 320,-38.5 165,-38.5"/>
<text text-anchor="middle" x="242.5" y="-45.5" font-family="Helvetica,sans-Serif" font-size="10.00">INMOST::Mesh::IntegerArrayDV</text>
</a>
</g>
</g>
<!-- Node1&#45;&gt;Node3 -->
<g id="edge2" class="edge"><title>Node1&#45;&gt;Node3</title>
<path fill="none" stroke="midnightblue" d="M128.222,-48C136.846,-48 145.818,-48 154.769,-48"/>
<polygon fill="midnightblue" stroke="midnightblue" points="154.847,-51.5001 164.847,-48 154.847,-44.5001 154.847,-51.5001"/>
</g>
<!-- Node4 -->
<g id="node4" class="node"><title>Node4</title>
<g id="a_node4"><a xlink:href="class_i_n_m_o_s_t_1_1_storage.html#ac79e3f3664b2ff21892f37bce0caa0e0" target="_top" xlink:title="INMOST::Storage::GetHandle">
<polygon fill="none" stroke="black" points="170,-0.5 170,-19.5 315,-19.5 315,-0.5 170,-0.5"/>
<text text-anchor="middle" x="242.5" y="-7.5" font-family="Helvetica,sans-Serif" font-size="10.00">INMOST::Storage::GetHandle</text>
</a>
</g>
</g>
<!-- Node1&#45;&gt;Node4 -->
<g id="edge3" class="edge"><title>Node1&#45;&gt;Node4</title>
<path fill="none" stroke="midnightblue" d="M128.222,-34.3885C147.591,-30.2185 168.712,-25.671 187.414,-21.6446"/>
<polygon fill="midnightblue" stroke="midnightblue" points="188.199,-25.0559 197.238,-19.5294 186.726,-18.2127 188.199,-25.0559"/>
</g>
</g>
</svg>
