<?xml version="1.0" encoding="UTF-8" standalone="no"?>
<!DOCTYPE svg PUBLIC "-//W3C//DTD SVG 1.1//EN"
 "http://www.w3.org/Graphics/SVG/1.1/DTD/svg11.dtd">
<!-- Generated by graphviz version 2.38.0 (20140413.2041)
 -->
<!-- Title: INMOST::Matrix::Resize Pages: 1 -->
<svg width="279pt" height="46pt"
 viewBox="0.00 0.00 279.00 46.00" xmlns="http://www.w3.org/2000/svg" xmlns:xlink="http://www.w3.org/1999/xlink">
<g id="graph0" class="graph" transform="scale(1 1) rotate(0) translate(4 42)">
<title>INMOST::Matrix::Resize</title>
<!-- Node1 -->
<g id="node1" class="node"><title>Node1</title>
<polygon fill="#bfbfbf" stroke="black" points="0,-0.5 0,-19.5 122,-19.5 122,-0.5 0,-0.5"/>
<text text-anchor="middle" x="61" y="-7.5" font-family="Helvetica,sans-Serif" font-size="10.00">INMOST::Matrix::Resize</text>
</g>
<!-- Node2 -->
<g id="node2" class="node"><title>Node2</title>
<g id="a_node2"><a xlink:href="class_i_n_m_o_s_t_1_1_matrix.html#adf8bb731b7c0899039b99f2399d938c6" target="_top" xlink:title="INMOST::Matrix::SVD">
<polygon fill="none" stroke="black" points="158,-0.5 158,-19.5 271,-19.5 271,-0.5 158,-0.5"/>
<text text-anchor="middle" x="214.5" y="-7.5" font-family="Helvetica,sans-Serif" font-size="10.00">INMOST::Matrix::SVD</text>
</a>
</g>
</g>
<!-- Node1&#45;&gt;Node2 -->
<g id="edge1" class="edge"><title>Node1&#45;&gt;Node2</title>
<path fill="none" stroke="midnightblue" d="M132.574,-10C141.045,-10 149.603,-10 157.821,-10"/>
<polygon fill="midnightblue" stroke="midnightblue" points="132.312,-6.5001 122.312,-10 132.312,-13.5001 132.312,-6.5001"/>
</g>
<!-- Node2&#45;&gt;Node2 -->
<g id="edge2" class="edge"><title>Node2&#45;&gt;Node2</title>
<path fill="none" stroke="midnightblue" d="M186.128,-28.6539C187.314,-33.9368 196.771,-38 214.5,-38 241.516,-38 249.325,-28.5653 237.928,-19.7571"/>
<polygon fill="midnightblue" stroke="midnightblue" points="189.274,-30.1981 191.072,-19.7571 183.155,-26.7974 189.274,-30.1981"/>
</g>
</g>
</svg>
