<?xml version="1.0" encoding="UTF-8" standalone="no"?>
<!DOCTYPE svg PUBLIC "-//W3C//DTD SVG 1.1//EN"
 "http://www.w3.org/Graphics/SVG/1.1/DTD/svg11.dtd">
<!-- Generated by graphviz version 2.38.0 (20140413.2041)
 -->
<!-- Title: INMOST::Matrix::operator/ Pages: 1 -->
<svg width="611pt" height="161pt"
 viewBox="0.00 0.00 611.00 161.00" xmlns="http://www.w3.org/2000/svg" xmlns:xlink="http://www.w3.org/1999/xlink">
<g id="graph0" class="graph" transform="scale(1 1) rotate(0) translate(4 157)">
<title>INMOST::Matrix::operator/</title>
<!-- Node1 -->
<g id="node1" class="node"><title>Node1</title>
<polygon fill="#bfbfbf" stroke="black" points="0,-38.5 0,-57.5 131,-57.5 131,-38.5 0,-38.5"/>
<text text-anchor="middle" x="65.5" y="-45.5" font-family="Helvetica,sans-Serif" font-size="10.00">INMOST::Matrix::operator/</text>
</g>
<!-- Node2 -->
<g id="node2" class="node"><title>Node2</title>
<g id="a_node2"><a xlink:href="class_i_n_m_o_s_t_1_1_matrix.html#ab621083d1f37df018feec6163618c1cd" target="_top" xlink:title="INMOST::Matrix::Invert">
<polygon fill="none" stroke="black" points="167.5,-76.5 167.5,-95.5 282.5,-95.5 282.5,-76.5 167.5,-76.5"/>
<text text-anchor="middle" x="225" y="-83.5" font-family="Helvetica,sans-Serif" font-size="10.00">INMOST::Matrix::Invert</text>
</a>
</g>
</g>
<!-- Node1&#45;&gt;Node2 -->
<g id="edge1" class="edge"><title>Node1&#45;&gt;Node2</title>
<path fill="none" stroke="midnightblue" d="M106.244,-57.589C127.028,-62.6035 152.661,-68.7881 174.699,-74.1053"/>
<polygon fill="midnightblue" stroke="midnightblue" points="174,-77.5368 184.542,-76.4799 175.642,-70.7321 174,-77.5368"/>
</g>
<!-- Node8 -->
<g id="node8" class="node"><title>Node8</title>
<g id="a_node8"><a xlink:href="class_i_n_m_o_s_t_1_1_matrix.html#aa126cf210a88f76f04b4b32bf87f7c0e" target="_top" xlink:title="INMOST::Matrix::Cols">
<polygon fill="none" stroke="black" points="169,-38.5 169,-57.5 281,-57.5 281,-38.5 169,-38.5"/>
<text text-anchor="middle" x="225" y="-45.5" font-family="Helvetica,sans-Serif" font-size="10.00">INMOST::Matrix::Cols</text>
</a>
</g>
</g>
<!-- Node1&#45;&gt;Node8 -->
<g id="edge7" class="edge"><title>Node1&#45;&gt;Node8</title>
<path fill="none" stroke="midnightblue" d="M131.016,-48C140.151,-48 149.55,-48 158.7,-48"/>
<polygon fill="midnightblue" stroke="midnightblue" points="158.897,-51.5001 168.897,-48 158.897,-44.5001 158.897,-51.5001"/>
</g>
<!-- Node9 -->
<g id="node9" class="node"><title>Node9</title>
<g id="a_node9"><a xlink:href="class_i_n_m_o_s_t_1_1_matrix.html#a1dc49d3efb949ed175e576db8cf3acac" target="_top" xlink:title="INMOST::Matrix::Rows">
<polygon fill="none" stroke="black" points="167,-0.5 167,-19.5 283,-19.5 283,-0.5 167,-0.5"/>
<text text-anchor="middle" x="225" y="-7.5" font-family="Helvetica,sans-Serif" font-size="10.00">INMOST::Matrix::Rows</text>
</a>
</g>
</g>
<!-- Node1&#45;&gt;Node9 -->
<g id="edge8" class="edge"><title>Node1&#45;&gt;Node9</title>
<path fill="none" stroke="midnightblue" d="M106.244,-38.411C127.028,-33.3965 152.661,-27.2119 174.699,-21.8947"/>
<polygon fill="midnightblue" stroke="midnightblue" points="175.642,-25.2679 184.542,-19.5201 174,-18.4632 175.642,-25.2679"/>
</g>
<!-- Node3 -->
<g id="node3" class="node"><title>Node3</title>
<g id="a_node3"><a xlink:href="class_i_n_m_o_s_t_1_1_matrix.html#a4f07143c40649637fa99f186bf0cbcc8" target="_top" xlink:title="INMOST::Matrix::Matrix">
<polygon fill="none" stroke="black" points="328,-133.5 328,-152.5 447,-152.5 447,-133.5 328,-133.5"/>
<text text-anchor="middle" x="387.5" y="-140.5" font-family="Helvetica,sans-Serif" font-size="10.00">INMOST::Matrix::Matrix</text>
</a>
</g>
</g>
<!-- Node2&#45;&gt;Node3 -->
<g id="edge2" class="edge"><title>Node2&#45;&gt;Node3</title>
<path fill="none" stroke="midnightblue" d="M247.532,-95.6126C266.213,-103.755 294.094,-115.437 319,-124 325.807,-126.34 333.07,-128.613 340.216,-130.725"/>
<polygon fill="midnightblue" stroke="midnightblue" points="339.255,-134.09 349.833,-133.495 341.193,-127.364 339.255,-134.09"/>
</g>
<!-- Node4 -->
<g id="node4" class="node"><title>Node4</title>
<g id="a_node4"><a xlink:href="class_i_n_m_o_s_t_1_1_matrix.html#acce10c229905d942edf020e7b89ebed1" target="_top" xlink:title="INMOST::Matrix::Transpose">
<polygon fill="none" stroke="black" points="319,-95.5 319,-114.5 456,-114.5 456,-95.5 319,-95.5"/>
<text text-anchor="middle" x="387.5" y="-102.5" font-family="Helvetica,sans-Serif" font-size="10.00">INMOST::Matrix::Transpose</text>
</a>
</g>
</g>
<!-- Node2&#45;&gt;Node4 -->
<g id="edge3" class="edge"><title>Node2&#45;&gt;Node4</title>
<path fill="none" stroke="midnightblue" d="M282.586,-92.6987C291.111,-93.7078 300.027,-94.7633 308.899,-95.8136"/>
<polygon fill="midnightblue" stroke="midnightblue" points="308.533,-99.2946 318.875,-96.9946 309.356,-92.3432 308.533,-99.2946"/>
</g>
<!-- Node5 -->
<g id="node5" class="node"><title>Node5</title>
<g id="a_node5"><a xlink:href="class_i_n_m_o_s_t_1_1_matrix.html#abca452418b15fa0b7c74f3299c59e9e1" target="_top" xlink:title="INMOST::Matrix::Unit">
<polygon fill="none" stroke="black" points="332.5,-57.5 332.5,-76.5 442.5,-76.5 442.5,-57.5 332.5,-57.5"/>
<text text-anchor="middle" x="387.5" y="-64.5" font-family="Helvetica,sans-Serif" font-size="10.00">INMOST::Matrix::Unit</text>
</a>
</g>
</g>
<!-- Node2&#45;&gt;Node5 -->
<g id="edge4" class="edge"><title>Node2&#45;&gt;Node5</title>
<path fill="none" stroke="midnightblue" d="M282.586,-79.3013C295.334,-77.7923 308.956,-76.1797 322,-74.6355"/>
<polygon fill="midnightblue" stroke="midnightblue" points="322.791,-78.0665 332.31,-73.415 321.968,-71.115 322.791,-78.0665"/>
</g>
<!-- Node7 -->
<g id="node7" class="node"><title>Node7</title>
<g id="a_node7"><a xlink:href="inmost__variable_8h.html#aaa87a9d57f31044c99fd1b9eb371356f" target="_top" xlink:title="fabs">
<polygon fill="none" stroke="black" points="370,-19.5 370,-38.5 405,-38.5 405,-19.5 370,-19.5"/>
<text text-anchor="middle" x="387.5" y="-26.5" font-family="Helvetica,sans-Serif" font-size="10.00">fabs</text>
</a>
</g>
</g>
<!-- Node2&#45;&gt;Node7 -->
<g id="edge6" class="edge"><title>Node2&#45;&gt;Node7</title>
<path fill="none" stroke="midnightblue" d="M257.704,-76.4556C266.035,-73.6707 274.942,-70.4419 283,-67 299.637,-59.8934 302.199,-54.7106 319,-48 332.161,-42.7435 347.309,-38.3389 359.917,-35.0983"/>
<polygon fill="midnightblue" stroke="midnightblue" points="360.94,-38.4509 369.81,-32.6568 359.262,-31.6548 360.94,-38.4509"/>
</g>
<!-- Node6 -->
<g id="node6" class="node"><title>Node6</title>
<g id="a_node6"><a xlink:href="class_i_n_m_o_s_t_1_1_matrix.html#a1bfdbdc75434fa1fd4d02057e10d704a" target="_top" xlink:title="INMOST::Matrix::Zero">
<polygon fill="none" stroke="black" points="492,-57.5 492,-76.5 603,-76.5 603,-57.5 492,-57.5"/>
<text text-anchor="middle" x="547.5" y="-64.5" font-family="Helvetica,sans-Serif" font-size="10.00">INMOST::Matrix::Zero</text>
</a>
</g>
</g>
<!-- Node5&#45;&gt;Node6 -->
<g id="edge5" class="edge"><title>Node5&#45;&gt;Node6</title>
<path fill="none" stroke="midnightblue" d="M442.875,-67C455.342,-67 468.718,-67 481.58,-67"/>
<polygon fill="midnightblue" stroke="midnightblue" points="481.757,-70.5001 491.757,-67 481.757,-63.5001 481.757,-70.5001"/>
</g>
</g>
</svg>
