<?xml version="1.0" encoding="UTF-8" standalone="no"?>
<!DOCTYPE svg PUBLIC "-//W3C//DTD SVG 1.1//EN"
 "http://www.w3.org/Graphics/SVG/1.1/DTD/svg11.dtd">
<!-- Generated by graphviz version 2.38.0 (20140413.2041)
 -->
<!-- Title: INMOST::Mesh::BulkDF Pages: 1 -->
<svg width="338pt" height="116pt"
 viewBox="0.00 0.00 338.00 116.00" xmlns="http://www.w3.org/2000/svg" xmlns:xlink="http://www.w3.org/1999/xlink">
<g id="graph0" class="graph" transform="scale(1 1) rotate(0) translate(4 112)">
<title>INMOST::Mesh::BulkDF</title>
<!-- Node1 -->
<g id="node1" class="node"><title>Node1</title>
<polygon fill="#bfbfbf" stroke="black" points="0,-44.5 0,-63.5 122,-63.5 122,-44.5 0,-44.5"/>
<text text-anchor="middle" x="61" y="-51.5" font-family="Helvetica,sans-Serif" font-size="10.00">INMOST::Mesh::BulkDF</text>
</g>
<!-- Node2 -->
<g id="node2" class="node"><title>Node2</title>
<g id="a_node2"><a xlink:href="class_i_n_m_o_s_t_1_1_mesh.html#a666201ee66a5a0f871d17781055b06ac" target="_top" xlink:title="INMOST::Mesh::SetStatus">
<polygon fill="none" stroke="black" points="177.5,-88.5 177.5,-107.5 310.5,-107.5 310.5,-88.5 177.5,-88.5"/>
<text text-anchor="middle" x="244" y="-95.5" font-family="Helvetica,sans-Serif" font-size="10.00">INMOST::Mesh::SetStatus</text>
</a>
</g>
</g>
<!-- Node1&#45;&gt;Node2 -->
<g id="edge1" class="edge"><title>Node1&#45;&gt;Node2</title>
<path fill="none" stroke="midnightblue" d="M107.607,-66.2236C123.522,-70.397 141.522,-75.014 158,-79 171.228,-82.1997 185.66,-85.4979 198.816,-88.4299"/>
<polygon fill="midnightblue" stroke="midnightblue" points="108.048,-62.7205 97.4863,-63.5562 106.264,-69.4893 108.048,-62.7205"/>
</g>
<!-- Node3 -->
<g id="node3" class="node"><title>Node3</title>
<g id="a_node3"><a xlink:href="class_i_n_m_o_s_t_1_1_mesh_1_1_bulk_d_f_comparator.html#a714397aff2fb2191ad02921b22fca995" target="_top" xlink:title="INMOST::Mesh::BulkDFComparator\l::operator()">
<polygon fill="none" stroke="black" points="158,-39 158,-69 330,-69 330,-39 158,-39"/>
<text text-anchor="start" x="166" y="-57" font-family="Helvetica,sans-Serif" font-size="10.00">INMOST::Mesh::BulkDFComparator</text>
<text text-anchor="middle" x="244" y="-46" font-family="Helvetica,sans-Serif" font-size="10.00">::operator()</text>
</a>
</g>
</g>
<!-- Node1&#45;&gt;Node3 -->
<g id="edge2" class="edge"><title>Node1&#45;&gt;Node3</title>
<path fill="none" stroke="midnightblue" d="M132.18,-54C140.628,-54 149.326,-54 157.957,-54"/>
<polygon fill="midnightblue" stroke="midnightblue" points="132.019,-50.5001 122.019,-54 132.019,-57.5001 132.019,-50.5001"/>
</g>
<!-- Node4 -->
<g id="node4" class="node"><title>Node4</title>
<g id="a_node4"><a xlink:href="class_i_n_m_o_s_t_1_1_storage.html#a0a6cfb0f778bd8d0cd65e6d699c2f62d" target="_top" xlink:title="INMOST::Storage::BulkDF">
<polygon fill="none" stroke="black" points="178.5,-0.5 178.5,-19.5 309.5,-19.5 309.5,-0.5 178.5,-0.5"/>
<text text-anchor="middle" x="244" y="-7.5" font-family="Helvetica,sans-Serif" font-size="10.00">INMOST::Storage::BulkDF</text>
</a>
</g>
</g>
<!-- Node1&#45;&gt;Node4 -->
<g id="edge3" class="edge"><title>Node1&#45;&gt;Node4</title>
<path fill="none" stroke="midnightblue" d="M109.657,-41.947C125.072,-38.0854 142.25,-33.8214 158,-30 172.291,-26.5326 187.955,-22.8215 201.9,-19.5491"/>
<polygon fill="midnightblue" stroke="midnightblue" points="108.661,-38.5883 99.8143,-44.4177 110.366,-45.3776 108.661,-38.5883"/>
</g>
</g>
</svg>
