<?xml version="1.0" encoding="UTF-8" standalone="no"?>
<!DOCTYPE svg PUBLIC "-//W3C//DTD SVG 1.1//EN"
 "http://www.w3.org/Graphics/SVG/1.1/DTD/svg11.dtd">
<!-- Generated by graphviz version 2.38.0 (20140413.2041)
 -->
<!-- Title: INMOST::Matrix::operator+ Pages: 1 -->
<svg width="294pt" height="66pt"
 viewBox="0.00 0.00 294.00 66.00" xmlns="http://www.w3.org/2000/svg" xmlns:xlink="http://www.w3.org/1999/xlink">
<g id="graph0" class="graph" transform="scale(1 1) rotate(0) translate(4 62)">
<title>INMOST::Matrix::operator+</title>
<!-- Node1 -->
<g id="node1" class="node"><title>Node1</title>
<polygon fill="#bfbfbf" stroke="black" points="0,-19.5 0,-38.5 134,-38.5 134,-19.5 0,-19.5"/>
<text text-anchor="middle" x="67" y="-26.5" font-family="Helvetica,sans-Serif" font-size="10.00">INMOST::Matrix::operator+</text>
</g>
<!-- Node2 -->
<g id="node2" class="node"><title>Node2</title>
<g id="a_node2"><a xlink:href="class_i_n_m_o_s_t_1_1_matrix.html#a1dc49d3efb949ed175e576db8cf3acac" target="_top" xlink:title="INMOST::Matrix::Rows">
<polygon fill="none" stroke="black" points="170,-38.5 170,-57.5 286,-57.5 286,-38.5 170,-38.5"/>
<text text-anchor="middle" x="228" y="-45.5" font-family="Helvetica,sans-Serif" font-size="10.00">INMOST::Matrix::Rows</text>
</a>
</g>
</g>
<!-- Node1&#45;&gt;Node2 -->
<g id="edge1" class="edge"><title>Node1&#45;&gt;Node2</title>
<path fill="none" stroke="midnightblue" d="M134.049,-36.8926C142.481,-37.9002 151.12,-38.9326 159.573,-39.9427"/>
<polygon fill="midnightblue" stroke="midnightblue" points="159.42,-43.4493 169.765,-41.1606 160.251,-36.4987 159.42,-43.4493"/>
</g>
<!-- Node3 -->
<g id="node3" class="node"><title>Node3</title>
<g id="a_node3"><a xlink:href="class_i_n_m_o_s_t_1_1_matrix.html#aa126cf210a88f76f04b4b32bf87f7c0e" target="_top" xlink:title="INMOST::Matrix::Cols">
<polygon fill="none" stroke="black" points="172,-0.5 172,-19.5 284,-19.5 284,-0.5 172,-0.5"/>
<text text-anchor="middle" x="228" y="-7.5" font-family="Helvetica,sans-Serif" font-size="10.00">INMOST::Matrix::Cols</text>
</a>
</g>
</g>
<!-- Node1&#45;&gt;Node3 -->
<g id="edge2" class="edge"><title>Node1&#45;&gt;Node3</title>
<path fill="none" stroke="midnightblue" d="M134.049,-21.1074C143.1,-20.0258 152.39,-18.9156 161.432,-17.8351"/>
<polygon fill="midnightblue" stroke="midnightblue" points="161.996,-21.2928 171.51,-16.6309 161.165,-14.3422 161.996,-21.2928"/>
</g>
</g>
</svg>
