<?xml version="1.0" encoding="UTF-8" standalone="no"?>
<!DOCTYPE svg PUBLIC "-//W3C//DTD SVG 1.1//EN"
 "http://www.w3.org/Graphics/SVG/1.1/DTD/svg11.dtd">
<!-- Generated by graphviz version 2.38.0 (20140413.2041)
 -->
<!-- Title: INMOST::Sparse::RowMerger::PushRow Pages: 1 -->
<svg width="334pt" height="235pt"
 viewBox="0.00 0.00 334.00 235.00" xmlns="http://www.w3.org/2000/svg" xmlns:xlink="http://www.w3.org/1999/xlink">
<g id="graph0" class="graph" transform="scale(1 1) rotate(0) translate(4 231)">
<title>INMOST::Sparse::RowMerger::PushRow</title>
<!-- Node1 -->
<g id="node1" class="node"><title>Node1</title>
<polygon fill="#bfbfbf" stroke="black" points="0,-98.5 0,-128.5 145,-128.5 145,-98.5 0,-98.5"/>
<text text-anchor="start" x="8" y="-116.5" font-family="Helvetica,sans-Serif" font-size="10.00">INMOST::Sparse::RowMerger</text>
<text text-anchor="middle" x="72.5" y="-105.5" font-family="Helvetica,sans-Serif" font-size="10.00">::PushRow</text>
</g>
<!-- Node2 -->
<g id="node2" class="node"><title>Node2</title>
<g id="a_node2"><a xlink:href="class_i_n_m_o_s_t_1_1_sparse_1_1_row_merger.html#abb1106be94a034a035f9d0dd6ba34016" target="_top" xlink:title="INMOST::Sparse::RowMerger\l::Merge">
<polygon fill="none" stroke="black" points="181,-196.5 181,-226.5 326,-226.5 326,-196.5 181,-196.5"/>
<text text-anchor="start" x="189" y="-214.5" font-family="Helvetica,sans-Serif" font-size="10.00">INMOST::Sparse::RowMerger</text>
<text text-anchor="middle" x="253.5" y="-203.5" font-family="Helvetica,sans-Serif" font-size="10.00">::Merge</text>
</a>
</g>
</g>
<!-- Node1&#45;&gt;Node2 -->
<g id="edge1" class="edge"><title>Node1&#45;&gt;Node2</title>
<path fill="none" stroke="midnightblue" d="M100.021,-134.884C121.018,-151.02 151.607,-172.814 181,-187.5 187.559,-190.777 194.67,-193.769 201.778,-196.444"/>
<polygon fill="midnightblue" stroke="midnightblue" points="101.956,-131.954 91.9161,-128.57 97.6537,-137.477 101.956,-131.954"/>
</g>
<!-- Node3 -->
<g id="node3" class="node"><title>Node3</title>
<g id="a_node3"><a xlink:href="class_i_n_m_o_s_t_1_1enhanced__multivar__expression.html#a41816d1b5eb3737263f2c6e93f6eb5a3" target="_top" xlink:title="INMOST::enhanced_multivar\l_expression::operator+=">
<polygon fill="none" stroke="black" points="183.5,-147.5 183.5,-177.5 323.5,-177.5 323.5,-147.5 183.5,-147.5"/>
<text text-anchor="start" x="191.5" y="-165.5" font-family="Helvetica,sans-Serif" font-size="10.00">INMOST::enhanced_multivar</text>
<text text-anchor="middle" x="253.5" y="-154.5" font-family="Helvetica,sans-Serif" font-size="10.00">_expression::operator+=</text>
</a>
</g>
</g>
<!-- Node1&#45;&gt;Node3 -->
<g id="edge2" class="edge"><title>Node1&#45;&gt;Node3</title>
<path fill="none" stroke="midnightblue" d="M138.336,-131.248C157.736,-136.559 178.813,-142.329 197.516,-147.448"/>
<polygon fill="midnightblue" stroke="midnightblue" points="139.236,-127.866 128.666,-128.601 137.388,-134.618 139.236,-127.866"/>
</g>
<!-- Node4 -->
<g id="node4" class="node"><title>Node4</title>
<g id="a_node4"><a xlink:href="class_i_n_m_o_s_t_1_1enhanced__multivar__expression.html#ac8e90e11bf754d4cc9c200711aeea4f7" target="_top" xlink:title="INMOST::enhanced_multivar\l_expression::operator&#45;=">
<polygon fill="none" stroke="black" points="183.5,-98.5 183.5,-128.5 323.5,-128.5 323.5,-98.5 183.5,-98.5"/>
<text text-anchor="start" x="191.5" y="-116.5" font-family="Helvetica,sans-Serif" font-size="10.00">INMOST::enhanced_multivar</text>
<text text-anchor="middle" x="253.5" y="-105.5" font-family="Helvetica,sans-Serif" font-size="10.00">_expression::operator&#45;=</text>
</a>
</g>
</g>
<!-- Node1&#45;&gt;Node4 -->
<g id="edge3" class="edge"><title>Node1&#45;&gt;Node4</title>
<path fill="none" stroke="midnightblue" d="M155.191,-113.5C164.628,-113.5 174.181,-113.5 183.427,-113.5"/>
<polygon fill="midnightblue" stroke="midnightblue" points="155.017,-110 145.017,-113.5 155.017,-117 155.017,-110"/>
</g>
<!-- Node5 -->
<g id="node5" class="node"><title>Node5</title>
<g id="a_node5"><a xlink:href="class_i_n_m_o_s_t_1_1enhanced__multivar__expression.html#a97c2fa6cfb8896e0b16d71db17c22d81" target="_top" xlink:title="INMOST::enhanced_multivar\l_expression::operator*=">
<polygon fill="none" stroke="black" points="183.5,-49.5 183.5,-79.5 323.5,-79.5 323.5,-49.5 183.5,-49.5"/>
<text text-anchor="start" x="191.5" y="-67.5" font-family="Helvetica,sans-Serif" font-size="10.00">INMOST::enhanced_multivar</text>
<text text-anchor="middle" x="253.5" y="-56.5" font-family="Helvetica,sans-Serif" font-size="10.00">_expression::operator*=</text>
</a>
</g>
</g>
<!-- Node1&#45;&gt;Node5 -->
<g id="edge4" class="edge"><title>Node1&#45;&gt;Node5</title>
<path fill="none" stroke="midnightblue" d="M138.336,-95.7515C157.736,-90.4409 178.813,-84.6712 197.516,-79.5516"/>
<polygon fill="midnightblue" stroke="midnightblue" points="137.388,-92.3824 128.666,-98.3986 139.236,-99.134 137.388,-92.3824"/>
</g>
<!-- Node6 -->
<g id="node6" class="node"><title>Node6</title>
<g id="a_node6"><a xlink:href="class_i_n_m_o_s_t_1_1enhanced__multivar__expression.html#a17b17b1df743295e60b688d2cf0c8382" target="_top" xlink:title="INMOST::enhanced_multivar\l_expression::operator/=">
<polygon fill="none" stroke="black" points="183.5,-0.5 183.5,-30.5 323.5,-30.5 323.5,-0.5 183.5,-0.5"/>
<text text-anchor="start" x="191.5" y="-18.5" font-family="Helvetica,sans-Serif" font-size="10.00">INMOST::enhanced_multivar</text>
<text text-anchor="middle" x="253.5" y="-7.5" font-family="Helvetica,sans-Serif" font-size="10.00">_expression::operator/=</text>
</a>
</g>
</g>
<!-- Node1&#45;&gt;Node6 -->
<g id="edge5" class="edge"><title>Node1&#45;&gt;Node6</title>
<path fill="none" stroke="midnightblue" d="M100.502,-92.2435C121.539,-76.4225 151.956,-55.1238 181,-40.5 188.165,-36.8925 195.974,-33.5848 203.715,-30.6388"/>
<polygon fill="midnightblue" stroke="midnightblue" points="98.2025,-89.595 92.3687,-98.4391 102.444,-95.1633 98.2025,-89.595"/>
</g>
</g>
</svg>
