<?xml version="1.0" encoding="UTF-8" standalone="no"?>
<!DOCTYPE svg PUBLIC "-//W3C//DTD SVG 1.1//EN"
 "http://www.w3.org/Graphics/SVG/1.1/DTD/svg11.dtd">
<!-- Generated by graphviz version 2.38.0 (20140413.2041)
 -->
<!-- Title: INMOST::dynarray::size Pages: 1 -->
<svg width="506pt" height="918pt"
 viewBox="0.00 0.00 506.00 917.50" xmlns="http://www.w3.org/2000/svg" xmlns:xlink="http://www.w3.org/1999/xlink">
<g id="graph0" class="graph" transform="scale(1 1) rotate(0) translate(4 913.5)">
<title>INMOST::dynarray::size</title>
<!-- Node1 -->
<g id="node1" class="node"><title>Node1</title>
<polygon fill="#bfbfbf" stroke="black" points="0,-524.5 0,-543.5 121,-543.5 121,-524.5 0,-524.5"/>
<text text-anchor="middle" x="60.5" y="-531.5" font-family="Helvetica,sans-Serif" font-size="10.00">INMOST::dynarray::size</text>
</g>
<!-- Node2 -->
<g id="node2" class="node"><title>Node2</title>
<g id="a_node2"><a xlink:href="class_i_n_m_o_s_t_1_1dynarray.html#a0a3590691daed34bb97984b79154b78f" target="_top" xlink:title="INMOST::dynarray\&lt; stencil\l_kind_domain, 128 \&gt;::reserve">
<polygon fill="none" stroke="black" points="162.5,-857 162.5,-887 306.5,-887 306.5,-857 162.5,-857"/>
<text text-anchor="start" x="170.5" y="-875" font-family="Helvetica,sans-Serif" font-size="10.00">INMOST::dynarray&lt; stencil</text>
<text text-anchor="middle" x="234.5" y="-864" font-family="Helvetica,sans-Serif" font-size="10.00">_kind_domain, 128 &gt;::reserve</text>
</a>
</g>
</g>
<!-- Node1&#45;&gt;Node2 -->
<g id="edge1" class="edge"><title>Node1&#45;&gt;Node2</title>
<path fill="none" stroke="midnightblue" d="M61.5026,-553.581C62.598,-608.167 73.2991,-763.563 157,-848 160.43,-851.46 164.352,-854.422 168.567,-856.959"/>
<polygon fill="midnightblue" stroke="midnightblue" points="65.0019,-553.485 61.3918,-543.524 58.0023,-553.562 65.0019,-553.485"/>
</g>
<!-- Node3 -->
<g id="node3" class="node"><title>Node3</title>
<g id="a_node3"><a xlink:href="class_i_n_m_o_s_t_1_1dynarray.html#a0ae96b516a5c63da204201596ea69d7b" target="_top" xlink:title="INMOST::dynarray\&lt; stencil\l_kind_domain, 128 \&gt;::dynarray">
<polygon fill="none" stroke="black" points="159,-808 159,-838 310,-838 310,-808 159,-808"/>
<text text-anchor="start" x="167" y="-826" font-family="Helvetica,sans-Serif" font-size="10.00">INMOST::dynarray&lt; stencil</text>
<text text-anchor="middle" x="234.5" y="-815" font-family="Helvetica,sans-Serif" font-size="10.00">_kind_domain, 128 &gt;::dynarray</text>
</a>
</g>
</g>
<!-- Node1&#45;&gt;Node3 -->
<g id="edge2" class="edge"><title>Node1&#45;&gt;Node3</title>
<path fill="none" stroke="midnightblue" d="M62.799,-553.716C67.081,-602.503 84.9477,-729.904 157,-799 160.617,-802.468 164.729,-805.436 169.126,-807.975"/>
<polygon fill="midnightblue" stroke="midnightblue" points="66.2748,-553.267 62.0101,-543.569 59.2958,-553.81 66.2748,-553.267"/>
</g>
<!-- Node4 -->
<g id="node4" class="node"><title>Node4</title>
<g id="a_node4"><a xlink:href="class_i_n_m_o_s_t_1_1dynarray.html#af236023ba2ed328081499a6a297e16b9" target="_top" xlink:title="INMOST::dynarray\&lt; stencil\l_kind_domain, 128 \&gt;::operator=">
<polygon fill="none" stroke="black" points="157,-759 157,-789 312,-789 312,-759 157,-759"/>
<text text-anchor="start" x="165" y="-777" font-family="Helvetica,sans-Serif" font-size="10.00">INMOST::dynarray&lt; stencil</text>
<text text-anchor="middle" x="234.5" y="-766" font-family="Helvetica,sans-Serif" font-size="10.00">_kind_domain, 128 &gt;::operator=</text>
</a>
</g>
</g>
<!-- Node1&#45;&gt;Node4 -->
<g id="edge3" class="edge"><title>Node1&#45;&gt;Node4</title>
<path fill="none" stroke="midnightblue" d="M64.6298,-553.728C72.3727,-595.993 96.3778,-695.83 157,-750 160.84,-753.432 165.169,-756.373 169.764,-758.893"/>
<polygon fill="midnightblue" stroke="midnightblue" points="68.0752,-553.111 62.9291,-543.85 61.1767,-554.299 68.0752,-553.111"/>
</g>
<!-- Node5 -->
<g id="node5" class="node"><title>Node5</title>
<g id="a_node5"><a xlink:href="class_i_n_m_o_s_t_1_1dynarray.html#aef8d483671a044ba927c1a523ca4d7d0" target="_top" xlink:title="INMOST::dynarray\&lt; stencil\l_kind_domain, 128 \&gt;::resize">
<polygon fill="none" stroke="black" points="164.5,-710 164.5,-740 304.5,-740 304.5,-710 164.5,-710"/>
<text text-anchor="start" x="172.5" y="-728" font-family="Helvetica,sans-Serif" font-size="10.00">INMOST::dynarray&lt; stencil</text>
<text text-anchor="middle" x="234.5" y="-717" font-family="Helvetica,sans-Serif" font-size="10.00">_kind_domain, 128 &gt;::resize</text>
</a>
</g>
</g>
<!-- Node1&#45;&gt;Node5 -->
<g id="edge4" class="edge"><title>Node1&#45;&gt;Node5</title>
<path fill="none" stroke="midnightblue" d="M67.3408,-553.427C78.7851,-588.192 107.461,-661.131 157,-701 161.229,-704.404 165.945,-707.327 170.902,-709.838"/>
<polygon fill="midnightblue" stroke="midnightblue" points="70.5768,-552.051 64.2261,-543.571 63.9022,-554.16 70.5768,-552.051"/>
</g>
<!-- Node6 -->
<g id="node6" class="node"><title>Node6</title>
<g id="a_node6"><a xlink:href="class_i_n_m_o_s_t_1_1dynarray.html#ad5d601bfb5aa35e838bda1a92ca8d5c3" target="_top" xlink:title="INMOST::dynarray\&lt; stencil\l_kind_domain, 128 \&gt;::move">
<polygon fill="none" stroke="black" points="166.5,-661 166.5,-691 302.5,-691 302.5,-661 166.5,-661"/>
<text text-anchor="start" x="174.5" y="-679" font-family="Helvetica,sans-Serif" font-size="10.00">INMOST::dynarray&lt; stencil</text>
<text text-anchor="middle" x="234.5" y="-668" font-family="Helvetica,sans-Serif" font-size="10.00">_kind_domain, 128 &gt;::move</text>
</a>
</g>
</g>
<!-- Node1&#45;&gt;Node6 -->
<g id="edge5" class="edge"><title>Node1&#45;&gt;Node6</title>
<path fill="none" stroke="midnightblue" d="M71.6047,-552.353C86.8019,-578.289 117.965,-625.455 157,-652 162.065,-655.444 167.648,-658.413 173.422,-660.969"/>
<polygon fill="midnightblue" stroke="midnightblue" points="74.573,-550.493 66.5788,-543.54 68.4922,-553.961 74.573,-550.493"/>
</g>
<!-- Node7 -->
<g id="node7" class="node"><title>Node7</title>
<g id="a_node7"><a xlink:href="class_i_n_m_o_s_t_1_1dynarray.html#afd0641c7c6186d19759a1146d84f1a13" target="_top" xlink:title="INMOST::dynarray\&lt; stencil\l_kind_domain, 128 \&gt;::swap">
<polygon fill="none" stroke="black" points="166.5,-612 166.5,-642 302.5,-642 302.5,-612 166.5,-612"/>
<text text-anchor="start" x="174.5" y="-630" font-family="Helvetica,sans-Serif" font-size="10.00">INMOST::dynarray&lt; stencil</text>
<text text-anchor="middle" x="234.5" y="-619" font-family="Helvetica,sans-Serif" font-size="10.00">_kind_domain, 128 &gt;::swap</text>
</a>
</g>
</g>
<!-- Node1&#45;&gt;Node7 -->
<g id="edge6" class="edge"><title>Node1&#45;&gt;Node7</title>
<path fill="none" stroke="midnightblue" d="M80.4591,-550.151C98.9719,-565.257 128.45,-587.594 157,-602 164.36,-605.714 172.391,-609.044 180.392,-611.969"/>
<polygon fill="midnightblue" stroke="midnightblue" points="82.4669,-547.269 72.5357,-543.578 77.9975,-552.656 82.4669,-547.269"/>
</g>
<!-- Node8 -->
<g id="node8" class="node"><title>Node8</title>
<g id="a_node8"><a xlink:href="class_i_n_m_o_s_t_1_1dynarray.html#aa239ed559f7103c1825f5e8bd4f30101" target="_top" xlink:title="INMOST::dynarray\&lt; stencil\l_kind_domain, 128 \&gt;::insert">
<polygon fill="none" stroke="black" points="166,-563 166,-593 303,-593 303,-563 166,-563"/>
<text text-anchor="start" x="174" y="-581" font-family="Helvetica,sans-Serif" font-size="10.00">INMOST::dynarray&lt; stencil</text>
<text text-anchor="middle" x="234.5" y="-570" font-family="Helvetica,sans-Serif" font-size="10.00">_kind_domain, 128 &gt;::insert</text>
</a>
</g>
</g>
<!-- Node1&#45;&gt;Node8 -->
<g id="edge7" class="edge"><title>Node1&#45;&gt;Node8</title>
<path fill="none" stroke="midnightblue" d="M108.511,-546.026C128.913,-551.245 153.029,-557.414 174.608,-562.935"/>
<polygon fill="midnightblue" stroke="midnightblue" points="109.377,-542.635 98.8214,-543.547 107.642,-549.417 109.377,-542.635"/>
</g>
<!-- Node9 -->
<g id="node9" class="node"><title>Node9</title>
<g id="a_node9"><a xlink:href="class_i_n_m_o_s_t_1_1tiny__map.html#a7f7c06610425325c79228d0e2590ac72" target="_top" xlink:title="INMOST::tiny_map::size">
<polygon fill="none" stroke="black" points="173,-524.5 173,-543.5 296,-543.5 296,-524.5 173,-524.5"/>
<text text-anchor="middle" x="234.5" y="-531.5" font-family="Helvetica,sans-Serif" font-size="10.00">INMOST::tiny_map::size</text>
</a>
</g>
</g>
<!-- Node1&#45;&gt;Node9 -->
<g id="edge8" class="edge"><title>Node1&#45;&gt;Node9</title>
<path fill="none" stroke="midnightblue" d="M131.501,-534C145.18,-534 159.418,-534 172.765,-534"/>
<polygon fill="midnightblue" stroke="midnightblue" points="131.175,-530.5 121.175,-534 131.175,-537.5 131.175,-530.5"/>
</g>
<!-- Node10 -->
<g id="node10" class="node"><title>Node10</title>
<g id="a_node10"><a xlink:href="class_i_n_m_o_s_t_1_1_automatizator.html#a3ae68e40f3f6ca6eb1b19adfcecb29a2" target="_top" xlink:title="INMOST::Automatizator\l::GetTableSize">
<polygon fill="none" stroke="black" points="174.5,-475 174.5,-505 294.5,-505 294.5,-475 174.5,-475"/>
<text text-anchor="start" x="182.5" y="-493" font-family="Helvetica,sans-Serif" font-size="10.00">INMOST::Automatizator</text>
<text text-anchor="middle" x="234.5" y="-482" font-family="Helvetica,sans-Serif" font-size="10.00">::GetTableSize</text>
</a>
</g>
</g>
<!-- Node1&#45;&gt;Node10 -->
<g id="edge9" class="edge"><title>Node1&#45;&gt;Node10</title>
<path fill="none" stroke="midnightblue" d="M108.511,-521.974C128.913,-516.755 153.029,-510.586 174.608,-505.065"/>
<polygon fill="midnightblue" stroke="midnightblue" points="107.642,-518.583 98.8214,-524.453 109.377,-525.365 107.642,-518.583"/>
</g>
<!-- Node11 -->
<g id="node11" class="node"><title>Node11</title>
<g id="a_node11"><a xlink:href="class_i_n_m_o_s_t_1_1_element_array.html#a6b8d74b3b5dcd00aedb27579d274e078" target="_top" xlink:title="INMOST::ElementArray\l::size">
<polygon fill="none" stroke="black" points="175,-426 175,-456 294,-456 294,-426 175,-426"/>
<text text-anchor="start" x="183" y="-444" font-family="Helvetica,sans-Serif" font-size="10.00">INMOST::ElementArray</text>
<text text-anchor="middle" x="234.5" y="-433" font-family="Helvetica,sans-Serif" font-size="10.00">::size</text>
</a>
</g>
</g>
<!-- Node1&#45;&gt;Node11 -->
<g id="edge10" class="edge"><title>Node1&#45;&gt;Node11</title>
<path fill="none" stroke="midnightblue" d="M79.8268,-517.979C98.2432,-502.577 127.984,-479.551 157,-465 163.595,-461.693 170.737,-458.726 177.919,-456.101"/>
<polygon fill="midnightblue" stroke="midnightblue" points="77.5553,-515.316 72.2054,-524.461 82.0904,-520.648 77.5553,-515.316"/>
</g>
<!-- Node26 -->
<g id="node26" class="node"><title>Node26</title>
<g id="a_node26"><a xlink:href="class_i_n_m_o_s_t_1_1_sparse_1_1_row.html#a83a6d4d1d39d80fa77ab3d588937eea9" target="_top" xlink:title="The operator [] used to fill the sparse matrix row, but not to access individual elements of the row...">
<polygon fill="none" stroke="black" points="177,-377 177,-407 292,-407 292,-377 177,-377"/>
<text text-anchor="start" x="185" y="-395" font-family="Helvetica,sans-Serif" font-size="10.00">INMOST::Sparse::Row</text>
<text text-anchor="middle" x="234.5" y="-384" font-family="Helvetica,sans-Serif" font-size="10.00">::operator[]</text>
</a>
</g>
</g>
<!-- Node1&#45;&gt;Node26 -->
<g id="edge39" class="edge"><title>Node1&#45;&gt;Node26</title>
<path fill="none" stroke="midnightblue" d="M71.6047,-515.647C86.8019,-489.711 117.965,-442.545 157,-416 163.1,-411.852 169.954,-408.392 176.987,-405.514"/>
<polygon fill="midnightblue" stroke="midnightblue" points="68.4922,-514.039 66.5788,-524.46 74.573,-517.507 68.4922,-514.039"/>
</g>
<!-- Node27 -->
<g id="node27" class="node"><title>Node27</title>
<g id="a_node27"><a xlink:href="class_i_n_m_o_s_t_1_1_sparse_1_1_row.html#a60dfa0d9c727a3da846bddbae8a2ee11" target="_top" xlink:title="The size of the sparse row, i.e. the total number of nonzero elements. ">
<polygon fill="none" stroke="black" points="177,-328 177,-358 292,-358 292,-328 177,-328"/>
<text text-anchor="start" x="185" y="-346" font-family="Helvetica,sans-Serif" font-size="10.00">INMOST::Sparse::Row</text>
<text text-anchor="middle" x="234.5" y="-335" font-family="Helvetica,sans-Serif" font-size="10.00">::Size</text>
</a>
</g>
</g>
<!-- Node1&#45;&gt;Node27 -->
<g id="edge40" class="edge"><title>Node1&#45;&gt;Node27</title>
<path fill="none" stroke="midnightblue" d="M67.3408,-514.573C78.7851,-479.808 107.461,-406.869 157,-367 162.856,-362.287 169.645,-358.495 176.713,-355.444"/>
<polygon fill="midnightblue" stroke="midnightblue" points="63.9022,-513.84 64.2261,-524.429 70.5768,-515.949 63.9022,-513.84"/>
</g>
<!-- Node28 -->
<g id="node28" class="node"><title>Node28</title>
<g id="a_node28"><a xlink:href="class_i_n_m_o_s_t_1_1_sparse_1_1_row.html#ae3504eb157c7912d0c81e47a6e21f2c5" target="_top" xlink:title="INMOST::Sparse::Row\l::GetIndex">
<polygon fill="none" stroke="black" points="177,-279 177,-309 292,-309 292,-279 177,-279"/>
<text text-anchor="start" x="185" y="-297" font-family="Helvetica,sans-Serif" font-size="10.00">INMOST::Sparse::Row</text>
<text text-anchor="middle" x="234.5" y="-286" font-family="Helvetica,sans-Serif" font-size="10.00">::GetIndex</text>
</a>
</g>
</g>
<!-- Node1&#45;&gt;Node28 -->
<g id="edge41" class="edge"><title>Node1&#45;&gt;Node28</title>
<path fill="none" stroke="midnightblue" d="M64.6298,-514.272C72.3727,-472.007 96.3778,-372.17 157,-318 162.709,-312.899 169.495,-308.882 176.634,-305.719"/>
<polygon fill="midnightblue" stroke="midnightblue" points="61.1767,-513.701 62.9291,-524.15 68.0752,-514.889 61.1767,-513.701"/>
</g>
<!-- Node29 -->
<g id="node29" class="node"><title>Node29</title>
<g id="a_node29"><a xlink:href="class_i_n_m_o_s_t_1_1_sparse_1_1_row.html#a5649581ac8d1e0c9249333c57e28c931" target="_top" xlink:title="INMOST::Sparse::Row\l::GetValue">
<polygon fill="none" stroke="black" points="177,-230 177,-260 292,-260 292,-230 177,-230"/>
<text text-anchor="start" x="185" y="-248" font-family="Helvetica,sans-Serif" font-size="10.00">INMOST::Sparse::Row</text>
<text text-anchor="middle" x="234.5" y="-237" font-family="Helvetica,sans-Serif" font-size="10.00">::GetValue</text>
</a>
</g>
</g>
<!-- Node1&#45;&gt;Node29 -->
<g id="edge42" class="edge"><title>Node1&#45;&gt;Node29</title>
<path fill="none" stroke="midnightblue" d="M62.799,-514.284C67.081,-465.497 84.9477,-338.096 157,-269 162.626,-263.605 169.451,-259.422 176.682,-256.178"/>
<polygon fill="midnightblue" stroke="midnightblue" points="59.2958,-514.19 62.0101,-524.431 66.2748,-514.733 59.2958,-514.19"/>
</g>
<!-- Node30 -->
<g id="node30" class="node"><title>Node30</title>
<g id="a_node30"><a xlink:href="class_i_n_m_o_s_t_1_1stencil__variable.html#ad96bb49e7c2f1fc00cd02947490beae4" target="_top" xlink:title="INMOST::stencil_variable\l::operator[]">
<polygon fill="none" stroke="black" points="172,-181 172,-211 297,-211 297,-181 172,-181"/>
<text text-anchor="start" x="180" y="-199" font-family="Helvetica,sans-Serif" font-size="10.00">INMOST::stencil_variable</text>
<text text-anchor="middle" x="234.5" y="-188" font-family="Helvetica,sans-Serif" font-size="10.00">::operator[]</text>
</a>
</g>
</g>
<!-- Node1&#45;&gt;Node30 -->
<g id="edge43" class="edge"><title>Node1&#45;&gt;Node30</title>
<path fill="none" stroke="midnightblue" d="M61.5026,-514.419C62.598,-459.833 73.2991,-304.437 157,-220 161.312,-215.65 166.401,-212.087 171.874,-209.168"/>
<polygon fill="midnightblue" stroke="midnightblue" points="58.0023,-514.438 61.3918,-524.476 65.0019,-514.515 58.0023,-514.438"/>
</g>
<!-- Node12 -->
<g id="node12" class="node"><title>Node12</title>
<g id="a_node12"><a xlink:href="class_i_n_m_o_s_t_1_1_element_array.html#a271d7b4bff4a170cae01aa440351a565" target="_top" xlink:title="INMOST::ElementArray\l::Unite">
<polygon fill="none" stroke="black" points="363.5,-861 363.5,-891 482.5,-891 482.5,-861 363.5,-861"/>
<text text-anchor="start" x="371.5" y="-879" font-family="Helvetica,sans-Serif" font-size="10.00">INMOST::ElementArray</text>
<text text-anchor="middle" x="423" y="-868" font-family="Helvetica,sans-Serif" font-size="10.00">::Unite</text>
</a>
</g>
</g>
<!-- Node11&#45;&gt;Node12 -->
<g id="edge11" class="edge"><title>Node11&#45;&gt;Node12</title>
<path fill="none" stroke="midnightblue" d="M302.641,-456.268C306.123,-458.761 309.293,-461.651 312,-465 366.295,-532.172 294.029,-784.567 348,-852 352.135,-857.167 357.399,-861.235 363.207,-864.436"/>
<polygon fill="midnightblue" stroke="midnightblue" points="304.407,-453.246 294.024,-451.141 300.829,-459.262 304.407,-453.246"/>
</g>
<!-- Node13 -->
<g id="node13" class="node"><title>Node13</title>
<g id="a_node13"><a xlink:href="class_i_n_m_o_s_t_1_1_element_array.html#aa714a1586fa8c427240190940cc77d5a" target="_top" xlink:title="INMOST::ElementArray\l::Subtract">
<polygon fill="none" stroke="black" points="363.5,-794 363.5,-824 482.5,-824 482.5,-794 363.5,-794"/>
<text text-anchor="start" x="371.5" y="-812" font-family="Helvetica,sans-Serif" font-size="10.00">INMOST::ElementArray</text>
<text text-anchor="middle" x="423" y="-801" font-family="Helvetica,sans-Serif" font-size="10.00">::Subtract</text>
</a>
</g>
</g>
<!-- Node11&#45;&gt;Node13 -->
<g id="edge13" class="edge"><title>Node11&#45;&gt;Node13</title>
<path fill="none" stroke="midnightblue" d="M303.042,-456.669C306.356,-459.069 309.385,-461.828 312,-465 403.036,-575.434 257.496,-674.13 348,-785 352.185,-790.127 357.479,-794.17 363.304,-797.357"/>
<polygon fill="midnightblue" stroke="midnightblue" points="304.669,-453.563 294.294,-451.413 301.064,-459.563 304.669,-453.563"/>
</g>
<!-- Node14 -->
<g id="node14" class="node"><title>Node14</title>
<g id="a_node14"><a xlink:href="class_i_n_m_o_s_t_1_1_element_array.html#a237ae0b4fb711b1b0a36041fe97ef1b3" target="_top" xlink:title="INMOST::ElementArray\l::Intersect">
<polygon fill="none" stroke="black" points="363.5,-727 363.5,-757 482.5,-757 482.5,-727 363.5,-727"/>
<text text-anchor="start" x="371.5" y="-745" font-family="Helvetica,sans-Serif" font-size="10.00">INMOST::ElementArray</text>
<text text-anchor="middle" x="423" y="-734" font-family="Helvetica,sans-Serif" font-size="10.00">::Intersect</text>
</a>
</g>
</g>
<!-- Node11&#45;&gt;Node14 -->
<g id="edge15" class="edge"><title>Node11&#45;&gt;Node14</title>
<path fill="none" stroke="midnightblue" d="M302.934,-456.76C306.274,-459.137 309.339,-461.867 312,-465 385.521,-551.57 274.896,-631.077 348,-718 352.26,-723.065 357.6,-727.07 363.451,-730.236"/>
<polygon fill="midnightblue" stroke="midnightblue" points="304.523,-453.633 294.136,-451.546 300.954,-459.655 304.523,-453.633"/>
</g>
<!-- Node15 -->
<g id="node15" class="node"><title>Node15</title>
<g id="a_node15"><a xlink:href="class_i_n_m_o_s_t_1_1_element_set.html#a2b27cedaf22cb5e20e36bcb480c9e50c" target="_top" xlink:title="Put multiple handles without checking. ">
<polygon fill="none" stroke="black" points="368,-660 368,-690 478,-690 478,-660 368,-660"/>
<text text-anchor="start" x="376" y="-678" font-family="Helvetica,sans-Serif" font-size="10.00">INMOST::ElementSet</text>
<text text-anchor="middle" x="423" y="-667" font-family="Helvetica,sans-Serif" font-size="10.00">::PutElements</text>
</a>
</g>
</g>
<!-- Node11&#45;&gt;Node15 -->
<g id="edge17" class="edge"><title>Node11&#45;&gt;Node15</title>
<path fill="none" stroke="midnightblue" d="M302.94,-457.048C306.253,-459.356 309.313,-461.991 312,-465 368.088,-527.801 292.215,-587.93 348,-651 353.369,-657.07 360.286,-661.613 367.731,-665.011"/>
<polygon fill="midnightblue" stroke="midnightblue" points="304.649,-453.993 294.251,-451.96 301.112,-460.033 304.649,-453.993"/>
</g>
<!-- Node16 -->
<g id="node16" class="node"><title>Node16</title>
<g id="a_node16"><a xlink:href="class_i_n_m_o_s_t_1_1_element_set.html#aba2a21178003aa2a9908ca3c090d7cb8" target="_top" xlink:title="Add multiple elements with checking of the existance of duplicate. ">
<polygon fill="none" stroke="black" points="368,-593 368,-623 478,-623 478,-593 368,-593"/>
<text text-anchor="start" x="376" y="-611" font-family="Helvetica,sans-Serif" font-size="10.00">INMOST::ElementSet</text>
<text text-anchor="middle" x="423" y="-600" font-family="Helvetica,sans-Serif" font-size="10.00">::AddElements</text>
</a>
</g>
</g>
<!-- Node11&#45;&gt;Node16 -->
<g id="edge19" class="edge"><title>Node11&#45;&gt;Node16</title>
<path fill="none" stroke="midnightblue" d="M303.054,-457.705C306.277,-459.85 309.292,-462.27 312,-465 350.618,-503.924 309.808,-543.658 348,-583 353.573,-588.741 360.507,-593.163 367.88,-596.57"/>
<polygon fill="midnightblue" stroke="midnightblue" points="304.529,-454.518 294.101,-452.643 301.084,-460.612 304.529,-454.518"/>
</g>
<!-- Node17 -->
<g id="node17" class="node"><title>Node17</title>
<g id="a_node17"><a xlink:href="class_i_n_m_o_s_t_1_1_element_set.html#a119169cdf12afbca790ba53169e74af0" target="_top" xlink:title="Remove multiple elements from the set. ">
<polygon fill="none" stroke="black" points="368,-526 368,-556 478,-556 478,-526 368,-526"/>
<text text-anchor="start" x="376" y="-544" font-family="Helvetica,sans-Serif" font-size="10.00">INMOST::ElementSet</text>
<text text-anchor="middle" x="423" y="-533" font-family="Helvetica,sans-Serif" font-size="10.00">::RemoveElements</text>
</a>
</g>
</g>
<!-- Node11&#45;&gt;Node17 -->
<g id="edge21" class="edge"><title>Node11&#45;&gt;Node17</title>
<path fill="none" stroke="midnightblue" d="M303.458,-459.557C306.435,-461.221 309.301,-463.032 312,-465 334.418,-481.347 325.762,-499.409 348,-516 353.978,-520.46 360.803,-524.157 367.835,-527.214"/>
<polygon fill="midnightblue" stroke="midnightblue" points="304.762,-456.297 294.249,-454.989 301.652,-462.568 304.762,-456.297"/>
</g>
<!-- Node18 -->
<g id="node18" class="node"><title>Node18</title>
<g id="a_node18"><a xlink:href="class_i_n_m_o_s_t_1_1_element_set.html#ab1ef60891bc6e6e8c095065843b51217" target="_top" xlink:title="Compute and return union with elements. ">
<polygon fill="none" stroke="black" points="368,-459 368,-489 478,-489 478,-459 368,-459"/>
<text text-anchor="start" x="376" y="-477" font-family="Helvetica,sans-Serif" font-size="10.00">INMOST::ElementSet</text>
<text text-anchor="middle" x="423" y="-466" font-family="Helvetica,sans-Serif" font-size="10.00">::Union</text>
</a>
</g>
</g>
<!-- Node11&#45;&gt;Node18 -->
<g id="edge23" class="edge"><title>Node11&#45;&gt;Node18</title>
<path fill="none" stroke="midnightblue" d="M304.106,-453.139C325.167,-456.866 348.035,-460.912 367.977,-464.441"/>
<polygon fill="midnightblue" stroke="midnightblue" points="304.711,-449.692 294.254,-451.396 303.491,-456.585 304.711,-449.692"/>
</g>
<!-- Node19 -->
<g id="node19" class="node"><title>Node19</title>
<g id="a_node19"><a xlink:href="class_i_n_m_o_s_t_1_1_element_set.html#af038e8851f02e9c4ae488a3ed1530bd7" target="_top" xlink:title="Compute and return difference with elements. ">
<polygon fill="none" stroke="black" points="368,-392 368,-422 478,-422 478,-392 368,-392"/>
<text text-anchor="start" x="376" y="-410" font-family="Helvetica,sans-Serif" font-size="10.00">INMOST::ElementSet</text>
<text text-anchor="middle" x="423" y="-399" font-family="Helvetica,sans-Serif" font-size="10.00">::Difference</text>
</a>
</g>
</g>
<!-- Node11&#45;&gt;Node19 -->
<g id="edge25" class="edge"><title>Node11&#45;&gt;Node19</title>
<path fill="none" stroke="midnightblue" d="M304.106,-428.493C325.167,-424.653 348.035,-420.484 367.977,-416.849"/>
<polygon fill="midnightblue" stroke="midnightblue" points="303.464,-425.052 294.254,-430.289 304.719,-431.939 303.464,-425.052"/>
</g>
<!-- Node20 -->
<g id="node20" class="node"><title>Node20</title>
<g id="a_node20"><a xlink:href="class_i_n_m_o_s_t_1_1_element_set.html#a9991abefdf4ecfdf35ee2d52eea650f1" target="_top" xlink:title="Compute and return intersection with elements. ">
<polygon fill="none" stroke="black" points="368,-325 368,-355 478,-355 478,-325 368,-325"/>
<text text-anchor="start" x="376" y="-343" font-family="Helvetica,sans-Serif" font-size="10.00">INMOST::ElementSet</text>
<text text-anchor="middle" x="423" y="-332" font-family="Helvetica,sans-Serif" font-size="10.00">::Intersection</text>
</a>
</g>
</g>
<!-- Node11&#45;&gt;Node20 -->
<g id="edge27" class="edge"><title>Node11&#45;&gt;Node20</title>
<path fill="none" stroke="midnightblue" d="M300.744,-421.923C304.635,-420.1 308.419,-418.129 312,-416 330.918,-404.754 330.302,-395.082 348,-382 361.542,-371.99 377.698,-362.566 391.454,-355.192"/>
<polygon fill="midnightblue" stroke="midnightblue" points="299.306,-418.732 291.513,-425.909 302.081,-425.158 299.306,-418.732"/>
</g>
<!-- Node21 -->
<g id="node21" class="node"><title>Node21</title>
<g id="a_node21"><a xlink:href="class_i_n_m_o_s_t_1_1_element_set.html#af22386930e063d805c1961222e202b24" target="_top" xlink:title="Compute and store union with elements. ">
<polygon fill="none" stroke="black" points="368,-258 368,-288 478,-288 478,-258 368,-258"/>
<text text-anchor="start" x="376" y="-276" font-family="Helvetica,sans-Serif" font-size="10.00">INMOST::ElementSet</text>
<text text-anchor="middle" x="423" y="-265" font-family="Helvetica,sans-Serif" font-size="10.00">::Unite</text>
</a>
</g>
</g>
<!-- Node11&#45;&gt;Node21 -->
<g id="edge29" class="edge"><title>Node11&#45;&gt;Node21</title>
<path fill="none" stroke="midnightblue" d="M303.105,-423.116C306.293,-421.003 309.288,-418.641 312,-416 346.141,-382.753 317.355,-351.495 348,-315 357.499,-303.687 370.869,-294.804 383.635,-288.178"/>
<polygon fill="midnightblue" stroke="midnightblue" points="301.235,-420.153 294.28,-428.145 304.701,-426.235 301.235,-420.153"/>
</g>
<!-- Node22 -->
<g id="node22" class="node"><title>Node22</title>
<g id="a_node22"><a xlink:href="class_i_n_m_o_s_t_1_1_element_set.html#aa4a51ad66c30dbc1d55618a25901599e" target="_top" xlink:title="Compute and store difference with elements. ">
<polygon fill="none" stroke="black" points="368,-191 368,-221 478,-221 478,-191 368,-191"/>
<text text-anchor="start" x="376" y="-209" font-family="Helvetica,sans-Serif" font-size="10.00">INMOST::ElementSet</text>
<text text-anchor="middle" x="423" y="-198" font-family="Helvetica,sans-Serif" font-size="10.00">::Subtract</text>
</a>
</g>
</g>
<!-- Node11&#45;&gt;Node22 -->
<g id="edge31" class="edge"><title>Node11&#45;&gt;Node22</title>
<path fill="none" stroke="midnightblue" d="M302.887,-423.989C306.213,-421.658 309.29,-419.01 312,-416 363.095,-359.251 302.837,-309.575 348,-248 356.475,-236.446 369.151,-227.617 381.629,-221.108"/>
<polygon fill="midnightblue" stroke="midnightblue" points="300.992,-421.044 294.174,-429.153 304.561,-427.066 300.992,-421.044"/>
</g>
<!-- Node23 -->
<g id="node23" class="node"><title>Node23</title>
<g id="a_node23"><a xlink:href="class_i_n_m_o_s_t_1_1_element_set.html#a361a4f92a43b559c554554cf7492670a" target="_top" xlink:title="Compute and store intersection with elements. ">
<polygon fill="none" stroke="black" points="368,-124 368,-154 478,-154 478,-124 368,-124"/>
<text text-anchor="start" x="376" y="-142" font-family="Helvetica,sans-Serif" font-size="10.00">INMOST::ElementSet</text>
<text text-anchor="middle" x="423" y="-131" font-family="Helvetica,sans-Serif" font-size="10.00">::Intersect</text>
</a>
</g>
</g>
<!-- Node11&#45;&gt;Node23 -->
<g id="edge33" class="edge"><title>Node11&#45;&gt;Node23</title>
<path fill="none" stroke="midnightblue" d="M302.914,-424.309C306.26,-421.9 309.331,-419.147 312,-416 380.35,-335.422 288.052,-268.011 348,-181 356.046,-169.322 368.464,-160.496 380.843,-154.026"/>
<polygon fill="midnightblue" stroke="midnightblue" points="300.867,-421.456 294.108,-429.615 304.48,-427.452 300.867,-421.456"/>
</g>
<!-- Node24 -->
<g id="node24" class="node"><title>Node24</title>
<g id="a_node24"><a xlink:href="class_i_n_m_o_s_t_1_1_mesh.html#a0ac883e455fe795e9a7db3cc8c99ac26" target="_top" xlink:title="INMOST::Mesh::RemoveGhost\lElements">
<polygon fill="none" stroke="black" points="348,-57 348,-87 498,-87 498,-57 348,-57"/>
<text text-anchor="start" x="356" y="-75" font-family="Helvetica,sans-Serif" font-size="10.00">INMOST::Mesh::RemoveGhost</text>
<text text-anchor="middle" x="423" y="-64" font-family="Helvetica,sans-Serif" font-size="10.00">Elements</text>
</a>
</g>
</g>
<!-- Node11&#45;&gt;Node24 -->
<g id="edge35" class="edge"><title>Node11&#45;&gt;Node24</title>
<path fill="none" stroke="midnightblue" d="M303.038,-424.412C306.353,-421.978 309.384,-419.191 312,-416 397.707,-311.473 273.177,-226.575 348,-114 355.768,-102.312 367.961,-93.5154 380.226,-87.0731"/>
<polygon fill="midnightblue" stroke="midnightblue" points="300.992,-421.561 294.289,-429.766 304.645,-427.532 300.992,-421.561"/>
</g>
<!-- Node25 -->
<g id="node25" class="node"><title>Node25</title>
<g id="a_node25"><a xlink:href="class_i_n_m_o_s_t_1_1_mesh.html#a92e7888589b79355fa273ad67c8c9bb5" target="_top" xlink:title="INMOST::Mesh::Enumerate">
<polygon fill="none" stroke="black" points="354.5,-0.5 354.5,-19.5 491.5,-19.5 491.5,-0.5 354.5,-0.5"/>
<text text-anchor="middle" x="423" y="-7.5" font-family="Helvetica,sans-Serif" font-size="10.00">INMOST::Mesh::Enumerate</text>
</a>
</g>
</g>
<!-- Node11&#45;&gt;Node25 -->
<g id="edge37" class="edge"><title>Node11&#45;&gt;Node25</title>
<path fill="none" stroke="midnightblue" d="M302.646,-424.825C306.127,-422.294 309.295,-419.372 312,-416 363.555,-351.735 301.33,-114.896 348,-47 357.031,-33.861 372.143,-25.1598 386.364,-19.5183"/>
<polygon fill="midnightblue" stroke="midnightblue" points="300.765,-421.873 294.031,-430.052 304.396,-427.858 300.765,-421.873"/>
</g>
<!-- Node12&#45;&gt;Node12 -->
<g id="edge12" class="edge"><title>Node12&#45;&gt;Node12</title>
<path fill="none" stroke="midnightblue" d="M389.595,-901.458C393.741,-906.179 404.876,-909.5 423,-909.5 452.742,-909.5 463.663,-900.557 455.763,-891.159"/>
<polygon fill="midnightblue" stroke="midnightblue" points="393.108,-901.358 390.237,-891.159 386.121,-900.922 393.108,-901.358"/>
</g>
<!-- Node13&#45;&gt;Node13 -->
<g id="edge14" class="edge"><title>Node13&#45;&gt;Node13</title>
<path fill="none" stroke="midnightblue" d="M389.595,-834.458C393.741,-839.179 404.876,-842.5 423,-842.5 452.742,-842.5 463.663,-833.557 455.763,-824.159"/>
<polygon fill="midnightblue" stroke="midnightblue" points="393.108,-834.358 390.237,-824.159 386.121,-833.922 393.108,-834.358"/>
</g>
<!-- Node14&#45;&gt;Node14 -->
<g id="edge16" class="edge"><title>Node14&#45;&gt;Node14</title>
<path fill="none" stroke="midnightblue" d="M389.595,-767.458C393.741,-772.179 404.876,-775.5 423,-775.5 452.742,-775.5 463.663,-766.557 455.763,-757.159"/>
<polygon fill="midnightblue" stroke="midnightblue" points="393.108,-767.358 390.237,-757.159 386.121,-766.922 393.108,-767.358"/>
</g>
<!-- Node15&#45;&gt;Node15 -->
<g id="edge18" class="edge"><title>Node15&#45;&gt;Node15</title>
<path fill="none" stroke="midnightblue" d="M389.595,-700.458C393.741,-705.179 404.876,-708.5 423,-708.5 452.742,-708.5 463.663,-699.557 455.763,-690.159"/>
<polygon fill="midnightblue" stroke="midnightblue" points="393.108,-700.358 390.237,-690.159 386.121,-699.922 393.108,-700.358"/>
</g>
<!-- Node16&#45;&gt;Node16 -->
<g id="edge20" class="edge"><title>Node16&#45;&gt;Node16</title>
<path fill="none" stroke="midnightblue" d="M389.595,-633.458C393.741,-638.179 404.876,-641.5 423,-641.5 452.742,-641.5 463.663,-632.557 455.763,-623.159"/>
<polygon fill="midnightblue" stroke="midnightblue" points="393.108,-633.358 390.237,-623.159 386.121,-632.922 393.108,-633.358"/>
</g>
<!-- Node17&#45;&gt;Node17 -->
<g id="edge22" class="edge"><title>Node17&#45;&gt;Node17</title>
<path fill="none" stroke="midnightblue" d="M389.595,-566.458C393.741,-571.179 404.876,-574.5 423,-574.5 452.742,-574.5 463.663,-565.557 455.763,-556.159"/>
<polygon fill="midnightblue" stroke="midnightblue" points="393.108,-566.358 390.237,-556.159 386.121,-565.922 393.108,-566.358"/>
</g>
<!-- Node18&#45;&gt;Node18 -->
<g id="edge24" class="edge"><title>Node18&#45;&gt;Node18</title>
<path fill="none" stroke="midnightblue" d="M389.595,-499.458C393.741,-504.179 404.876,-507.5 423,-507.5 452.742,-507.5 463.663,-498.557 455.763,-489.159"/>
<polygon fill="midnightblue" stroke="midnightblue" points="393.108,-499.358 390.237,-489.159 386.121,-498.922 393.108,-499.358"/>
</g>
<!-- Node19&#45;&gt;Node19 -->
<g id="edge26" class="edge"><title>Node19&#45;&gt;Node19</title>
<path fill="none" stroke="midnightblue" d="M389.595,-432.458C393.741,-437.179 404.876,-440.5 423,-440.5 452.742,-440.5 463.663,-431.557 455.763,-422.159"/>
<polygon fill="midnightblue" stroke="midnightblue" points="393.108,-432.358 390.237,-422.159 386.121,-431.922 393.108,-432.358"/>
</g>
<!-- Node20&#45;&gt;Node20 -->
<g id="edge28" class="edge"><title>Node20&#45;&gt;Node20</title>
<path fill="none" stroke="midnightblue" d="M389.595,-365.458C393.741,-370.179 404.876,-373.5 423,-373.5 452.742,-373.5 463.663,-364.557 455.763,-355.159"/>
<polygon fill="midnightblue" stroke="midnightblue" points="393.108,-365.358 390.237,-355.159 386.121,-364.922 393.108,-365.358"/>
</g>
<!-- Node21&#45;&gt;Node21 -->
<g id="edge30" class="edge"><title>Node21&#45;&gt;Node21</title>
<path fill="none" stroke="midnightblue" d="M389.595,-298.458C393.741,-303.179 404.876,-306.5 423,-306.5 452.742,-306.5 463.663,-297.557 455.763,-288.159"/>
<polygon fill="midnightblue" stroke="midnightblue" points="393.108,-298.358 390.237,-288.159 386.121,-297.922 393.108,-298.358"/>
</g>
<!-- Node22&#45;&gt;Node22 -->
<g id="edge32" class="edge"><title>Node22&#45;&gt;Node22</title>
<path fill="none" stroke="midnightblue" d="M389.595,-231.458C393.741,-236.179 404.876,-239.5 423,-239.5 452.742,-239.5 463.663,-230.557 455.763,-221.159"/>
<polygon fill="midnightblue" stroke="midnightblue" points="393.108,-231.358 390.237,-221.159 386.121,-230.922 393.108,-231.358"/>
</g>
<!-- Node23&#45;&gt;Node23 -->
<g id="edge34" class="edge"><title>Node23&#45;&gt;Node23</title>
<path fill="none" stroke="midnightblue" d="M389.595,-164.458C393.741,-169.179 404.876,-172.5 423,-172.5 452.742,-172.5 463.663,-163.557 455.763,-154.159"/>
<polygon fill="midnightblue" stroke="midnightblue" points="393.108,-164.358 390.237,-154.159 386.121,-163.922 393.108,-164.358"/>
</g>
<!-- Node24&#45;&gt;Node24 -->
<g id="edge36" class="edge"><title>Node24&#45;&gt;Node24</title>
<path fill="none" stroke="midnightblue" d="M389.595,-97.4579C393.741,-102.179 404.876,-105.5 423,-105.5 452.742,-105.5 463.663,-96.5566 455.763,-87.159"/>
<polygon fill="midnightblue" stroke="midnightblue" points="393.108,-97.3575 390.237,-87.159 386.121,-96.9217 393.108,-97.3575"/>
</g>
<!-- Node25&#45;&gt;Node25 -->
<g id="edge38" class="edge"><title>Node25&#45;&gt;Node25</title>
<path fill="none" stroke="midnightblue" d="M387.768,-27.8913C388.284,-33.5406 400.028,-38 423,-38 456.414,-38 466.073,-28.5653 451.976,-19.7571"/>
<polygon fill="midnightblue" stroke="midnightblue" points="390.702,-29.8176 394.024,-19.7571 385.153,-25.5501 390.702,-29.8176"/>
</g>
</g>
</svg>
