<?xml version="1.0" encoding="UTF-8" standalone="no"?>
<!DOCTYPE svg PUBLIC "-//W3C//DTD SVG 1.1//EN"
 "http://www.w3.org/Graphics/SVG/1.1/DTD/svg11.dtd">
<!-- Generated by graphviz version 2.38.0 (20140413.2041)
 -->
<!-- Title: INMOST::pow_expression::pow_expression Pages: 1 -->
<svg width="207pt" height="66pt"
 viewBox="0.00 0.00 207.00 66.00" xmlns="http://www.w3.org/2000/svg" xmlns:xlink="http://www.w3.org/1999/xlink">
<g id="graph0" class="graph" transform="scale(1 1) rotate(0) translate(4 62)">
<title>INMOST::pow_expression::pow_expression</title>
<!-- Node1 -->
<g id="node1" class="node"><title>Node1</title>
<polygon fill="#bfbfbf" stroke="black" points="0,-14 0,-44 129,-44 129,-14 0,-14"/>
<text text-anchor="start" x="8" y="-32" font-family="Helvetica,sans-Serif" font-size="10.00">INMOST::pow_expression</text>
<text text-anchor="middle" x="64.5" y="-21" font-family="Helvetica,sans-Serif" font-size="10.00">::pow_expression</text>
</g>
<!-- Node2 -->
<g id="node2" class="node"><title>Node2</title>
<g id="a_node2"><a xlink:href="inmost__expression_8h.html#a0a5c804987ffe34c9e49d7b9d2999337" target="_top" xlink:title="pow">
<polygon fill="none" stroke="black" points="165,-38.5 165,-57.5 199,-57.5 199,-38.5 165,-38.5"/>
<text text-anchor="middle" x="182" y="-45.5" font-family="Helvetica,sans-Serif" font-size="10.00">pow</text>
</a>
</g>
</g>
<!-- Node1&#45;&gt;Node2 -->
<g id="edge1" class="edge"><title>Node1&#45;&gt;Node2</title>
<path fill="none" stroke="midnightblue" d="M129.331,-39.5003C138.267,-40.9703 147.007,-42.408 154.681,-43.6705"/>
<polygon fill="midnightblue" stroke="midnightblue" points="154.295,-47.154 164.731,-45.3237 155.432,-40.2468 154.295,-47.154"/>
</g>
<!-- Node3 -->
<g id="node3" class="node"><title>Node3</title>
<g id="a_node3"><a xlink:href="inmost__expression_8h.html#a1a2e970d937edaaa99d5e0128609061d" target="_top" xlink:title="log">
<polygon fill="none" stroke="black" points="167.5,-0.5 167.5,-19.5 196.5,-19.5 196.5,-0.5 167.5,-0.5"/>
<text text-anchor="middle" x="182" y="-7.5" font-family="Helvetica,sans-Serif" font-size="10.00">log</text>
</a>
</g>
</g>
<!-- Node1&#45;&gt;Node3 -->
<g id="edge2" class="edge"><title>Node1&#45;&gt;Node3</title>
<path fill="none" stroke="midnightblue" d="M129.331,-18.4997C139.343,-16.8527 149.108,-15.2462 157.406,-13.8813"/>
<polygon fill="midnightblue" stroke="midnightblue" points="158.066,-17.3199 167.365,-12.243 156.929,-10.4127 158.066,-17.3199"/>
</g>
</g>
</svg>
