<?xml version="1.0" encoding="UTF-8" standalone="no"?>
<!DOCTYPE svg PUBLIC "-//W3C//DTD SVG 1.1//EN"
 "http://www.w3.org/Graphics/SVG/1.1/DTD/svg11.dtd">
<!-- Generated by graphviz version 2.38.0 (20140413.2041)
 -->
<!-- Title: INMOST::dynamic_variable::Index Pages: 1 -->
<svg width="697pt" height="256pt"
 viewBox="0.00 0.00 697.00 256.00" xmlns="http://www.w3.org/2000/svg" xmlns:xlink="http://www.w3.org/1999/xlink">
<g id="graph0" class="graph" transform="scale(1 1) rotate(0) translate(4 252)">
<title>INMOST::dynamic_variable::Index</title>
<!-- Node1 -->
<g id="node1" class="node"><title>Node1</title>
<polygon fill="#bfbfbf" stroke="black" points="0,-90 0,-120 134,-120 134,-90 0,-90"/>
<text text-anchor="start" x="8" y="-108" font-family="Helvetica,sans-Serif" font-size="10.00">INMOST::dynamic_variable</text>
<text text-anchor="middle" x="67" y="-97" font-family="Helvetica,sans-Serif" font-size="10.00">::Index</text>
</g>
<!-- Node2 -->
<g id="node2" class="node"><title>Node2</title>
<g id="a_node2"><a xlink:href="class_i_n_m_o_s_t_1_1_storage.html#ad256a6f5101df9f507e359cdddef3a66" target="_top" xlink:title="INMOST::Storage::GetMarker">
<polygon fill="none" stroke="black" points="170,-114.5 170,-133.5 315,-133.5 315,-114.5 170,-114.5"/>
<text text-anchor="middle" x="242.5" y="-121.5" font-family="Helvetica,sans-Serif" font-size="10.00">INMOST::Storage::GetMarker</text>
</a>
</g>
</g>
<!-- Node1&#45;&gt;Node2 -->
<g id="edge1" class="edge"><title>Node1&#45;&gt;Node2</title>
<path fill="none" stroke="midnightblue" d="M134.088,-112.237C142.485,-113.157 151.157,-114.106 159.762,-115.049"/>
<polygon fill="midnightblue" stroke="midnightblue" points="159.492,-118.54 169.814,-116.15 160.254,-111.582 159.492,-118.54"/>
</g>
<!-- Node10 -->
<g id="node10" class="node"><title>Node10</title>
<g id="a_node10"><a xlink:href="class_i_n_m_o_s_t_1_1_storage.html#a494c65f9a4fab2831e47ad2f8fe44f5b" target="_top" xlink:title="INMOST::Storage::Integer">
<polygon fill="none" stroke="black" points="178.5,-57.5 178.5,-76.5 306.5,-76.5 306.5,-57.5 178.5,-57.5"/>
<text text-anchor="middle" x="242.5" y="-64.5" font-family="Helvetica,sans-Serif" font-size="10.00">INMOST::Storage::Integer</text>
</a>
</g>
</g>
<!-- Node1&#45;&gt;Node10 -->
<g id="edge10" class="edge"><title>Node1&#45;&gt;Node10</title>
<path fill="none" stroke="midnightblue" d="M134.088,-90.5254C151.94,-86.6155 171.031,-82.4342 188.092,-78.6974"/>
<polygon fill="midnightblue" stroke="midnightblue" points="188.859,-82.1125 197.879,-76.5539 187.361,-75.2745 188.859,-82.1125"/>
</g>
<!-- Node3 -->
<g id="node3" class="node"><title>Node3</title>
<g id="a_node3"><a xlink:href="class_i_n_m_o_s_t_1_1_storage.html#a59da31b96c2b4e09e260f0deb4dae4d9" target="_top" xlink:title="INMOST::Storage::isValid">
<polygon fill="none" stroke="black" points="359.5,-190.5 359.5,-209.5 487.5,-209.5 487.5,-190.5 359.5,-190.5"/>
<text text-anchor="middle" x="423.5" y="-197.5" font-family="Helvetica,sans-Serif" font-size="10.00">INMOST::Storage::isValid</text>
</a>
</g>
</g>
<!-- Node2&#45;&gt;Node3 -->
<g id="edge2" class="edge"><title>Node2&#45;&gt;Node3</title>
<path fill="none" stroke="midnightblue" d="M261.442,-133.547C282.531,-144.564 318.749,-162.849 351,-176 360.73,-179.968 371.386,-183.806 381.431,-187.207"/>
<polygon fill="midnightblue" stroke="midnightblue" points="380.622,-190.626 391.216,-190.45 382.824,-183.981 380.622,-190.626"/>
</g>
<!-- Node5 -->
<g id="node5" class="node"><title>Node5</title>
<g id="a_node5"><a xlink:href="class_i_n_m_o_s_t_1_1_storage.html#a20d218fc89f75ca8534707b4f697173e" target="_top" xlink:title="INMOST::Storage::GetMeshLink">
<polygon fill="none" stroke="black" points="532,-152.5 532,-171.5 689,-171.5 689,-152.5 532,-152.5"/>
<text text-anchor="middle" x="610.5" y="-159.5" font-family="Helvetica,sans-Serif" font-size="10.00">INMOST::Storage::GetMeshLink</text>
</a>
</g>
</g>
<!-- Node2&#45;&gt;Node5 -->
<g id="edge6" class="edge"><title>Node2&#45;&gt;Node5</title>
<path fill="none" stroke="midnightblue" d="M291.237,-133.51C309.826,-136.931 331.347,-140.547 351,-143 407.605,-150.064 471.536,-154.791 521.658,-157.763"/>
<polygon fill="midnightblue" stroke="midnightblue" points="521.628,-161.267 531.814,-158.353 522.033,-154.279 521.628,-161.267"/>
</g>
<!-- Node7 -->
<g id="node7" class="node"><title>Node7</title>
<g id="a_node7"><a xlink:href="class_i_n_m_o_s_t_1_1_mesh.html#a2c8a00522e2b06a0b59e25cae119a237" target="_top" xlink:title="INMOST::Mesh::GetMarker">
<polygon fill="none" stroke="black" points="356,-114.5 356,-133.5 491,-133.5 491,-114.5 356,-114.5"/>
<text text-anchor="middle" x="423.5" y="-121.5" font-family="Helvetica,sans-Serif" font-size="10.00">INMOST::Mesh::GetMarker</text>
</a>
</g>
</g>
<!-- Node2&#45;&gt;Node7 -->
<g id="edge7" class="edge"><title>Node2&#45;&gt;Node7</title>
<path fill="none" stroke="midnightblue" d="M315.017,-124C325.096,-124 335.492,-124 345.666,-124"/>
<polygon fill="midnightblue" stroke="midnightblue" points="345.745,-127.5 355.745,-124 345.745,-120.5 345.745,-127.5"/>
</g>
<!-- Node9 -->
<g id="node9" class="node"><title>Node9</title>
<g id="a_node9"><a xlink:href="class_i_n_m_o_s_t_1_1_storage.html#ac79e3f3664b2ff21892f37bce0caa0e0" target="_top" xlink:title="INMOST::Storage::GetHandle">
<polygon fill="none" stroke="black" points="351,-76.5 351,-95.5 496,-95.5 496,-76.5 351,-76.5"/>
<text text-anchor="middle" x="423.5" y="-83.5" font-family="Helvetica,sans-Serif" font-size="10.00">INMOST::Storage::GetHandle</text>
</a>
</g>
</g>
<!-- Node2&#45;&gt;Node9 -->
<g id="edge9" class="edge"><title>Node2&#45;&gt;Node9</title>
<path fill="none" stroke="midnightblue" d="M288.669,-114.411C312.716,-109.306 342.474,-102.989 367.819,-97.6082"/>
<polygon fill="midnightblue" stroke="midnightblue" points="368.6,-101.02 377.656,-95.5201 367.147,-94.1731 368.6,-101.02"/>
</g>
<!-- Node4 -->
<g id="node4" class="node"><title>Node4</title>
<g id="a_node4"><a xlink:href="namespace_i_n_m_o_s_t.html#a115b3e54c3b7be04ffec9b69c058df18" target="_top" xlink:title="INMOST::InvalidHandle">
<polygon fill="none" stroke="black" points="552.5,-228.5 552.5,-247.5 668.5,-247.5 668.5,-228.5 552.5,-228.5"/>
<text text-anchor="middle" x="610.5" y="-235.5" font-family="Helvetica,sans-Serif" font-size="10.00">INMOST::InvalidHandle</text>
</a>
</g>
</g>
<!-- Node3&#45;&gt;Node4 -->
<g id="edge3" class="edge"><title>Node3&#45;&gt;Node4</title>
<path fill="none" stroke="midnightblue" d="M471.183,-209.589C496.146,-214.716 527.064,-221.067 553.334,-226.463"/>
<polygon fill="midnightblue" stroke="midnightblue" points="552.653,-229.896 563.152,-228.48 554.061,-223.039 552.653,-229.896"/>
</g>
<!-- Node3&#45;&gt;Node5 -->
<g id="edge4" class="edge"><title>Node3&#45;&gt;Node5</title>
<path fill="none" stroke="midnightblue" d="M471.183,-190.411C496.146,-185.284 527.064,-178.933 553.334,-173.537"/>
<polygon fill="midnightblue" stroke="midnightblue" points="554.061,-176.961 563.152,-171.52 552.653,-170.104 554.061,-176.961"/>
</g>
<!-- Node6 -->
<g id="node6" class="node"><title>Node6</title>
<g id="a_node6"><a xlink:href="class_i_n_m_o_s_t_1_1_mesh.html#a05701da4bd3ed8ca69bbcca256c2b0e2" target="_top" xlink:title="INMOST::Mesh::isValidElement">
<polygon fill="none" stroke="black" points="533,-190.5 533,-209.5 688,-209.5 688,-190.5 533,-190.5"/>
<text text-anchor="middle" x="610.5" y="-197.5" font-family="Helvetica,sans-Serif" font-size="10.00">INMOST::Mesh::isValidElement</text>
</a>
</g>
</g>
<!-- Node3&#45;&gt;Node6 -->
<g id="edge5" class="edge"><title>Node3&#45;&gt;Node6</title>
<path fill="none" stroke="midnightblue" d="M487.649,-200C498.902,-200 510.802,-200 522.581,-200"/>
<polygon fill="midnightblue" stroke="midnightblue" points="522.881,-203.5 532.881,-200 522.881,-196.5 522.881,-203.5"/>
</g>
<!-- Node8 -->
<g id="node8" class="node"><title>Node8</title>
<g id="a_node8"><a xlink:href="class_i_n_m_o_s_t_1_1_mesh.html#ad7d9049c7e0f028e334d3fac70acdc6c" target="_top" xlink:title="INMOST::Mesh::MarkersTag">
<polygon fill="none" stroke="black" points="540.5,-114.5 540.5,-133.5 680.5,-133.5 680.5,-114.5 540.5,-114.5"/>
<text text-anchor="middle" x="610.5" y="-121.5" font-family="Helvetica,sans-Serif" font-size="10.00">INMOST::Mesh::MarkersTag</text>
</a>
</g>
</g>
<!-- Node7&#45;&gt;Node8 -->
<g id="edge8" class="edge"><title>Node7&#45;&gt;Node8</title>
<path fill="none" stroke="midnightblue" d="M491.028,-124C503.697,-124 517.074,-124 530.097,-124"/>
<polygon fill="midnightblue" stroke="midnightblue" points="530.446,-127.5 540.446,-124 530.446,-120.5 530.446,-127.5"/>
</g>
<!-- Node10&#45;&gt;Node5 -->
<g id="edge11" class="edge"><title>Node10&#45;&gt;Node5</title>
<path fill="none" stroke="midnightblue" d="M273.545,-57.4463C323.929,-43.3697 426.73,-23.164 496,-67 527.583,-86.9866 503.042,-119.37 532,-143 534.066,-144.686 536.26,-146.226 538.55,-147.632"/>
<polygon fill="midnightblue" stroke="midnightblue" points="537.308,-150.93 547.798,-152.419 540.526,-144.714 537.308,-150.93"/>
</g>
<!-- Node10&#45;&gt;Node9 -->
<g id="edge13" class="edge"><title>Node10&#45;&gt;Node9</title>
<path fill="none" stroke="midnightblue" d="M306.609,-73.6987C317.663,-74.8721 329.308,-76.1081 340.781,-77.3259"/>
<polygon fill="midnightblue" stroke="midnightblue" points="340.486,-80.8142 350.8,-78.3894 341.225,-73.8533 340.486,-80.8142"/>
</g>
<!-- Node11 -->
<g id="node11" class="node"><title>Node11</title>
<g id="a_node11"><a xlink:href="class_i_n_m_o_s_t_1_1_mesh.html#aa9d44832b3e826a2b61c8e91c5457fbf" target="_top" xlink:title="INMOST::Mesh::Integer">
<polygon fill="none" stroke="black" points="364,-0.5 364,-19.5 483,-19.5 483,-0.5 364,-0.5"/>
<text text-anchor="middle" x="423.5" y="-7.5" font-family="Helvetica,sans-Serif" font-size="10.00">INMOST::Mesh::Integer</text>
</a>
</g>
</g>
<!-- Node10&#45;&gt;Node11 -->
<g id="edge12" class="edge"><title>Node10&#45;&gt;Node11</title>
<path fill="none" stroke="midnightblue" d="M273.461,-57.4595C303.405,-47.924 349.624,-33.2064 382.649,-22.6901"/>
<polygon fill="midnightblue" stroke="midnightblue" points="383.975,-25.9409 392.442,-19.5716 381.851,-19.2709 383.975,-25.9409"/>
</g>
</g>
</svg>
