<?xml version="1.0" encoding="UTF-8" standalone="no"?>
<!DOCTYPE svg PUBLIC "-//W3C//DTD SVG 1.1//EN"
 "http://www.w3.org/Graphics/SVG/1.1/DTD/svg11.dtd">
<!-- Generated by graphviz version 2.38.0 (20140413.2041)
 -->
<!-- Title: INMOST::ElementArray::Unite Pages: 1 -->
<svg width="440pt" height="88pt"
 viewBox="0.00 0.00 440.00 88.00" xmlns="http://www.w3.org/2000/svg" xmlns:xlink="http://www.w3.org/1999/xlink">
<g id="graph0" class="graph" transform="scale(1 1) rotate(0) translate(4 84)">
<title>INMOST::ElementArray::Unite</title>
<!-- Node1 -->
<g id="node1" class="node"><title>Node1</title>
<polygon fill="#bfbfbf" stroke="black" points="0,-24.5 0,-54.5 119,-54.5 119,-24.5 0,-24.5"/>
<text text-anchor="start" x="8" y="-42.5" font-family="Helvetica,sans-Serif" font-size="10.00">INMOST::ElementArray</text>
<text text-anchor="middle" x="59.5" y="-31.5" font-family="Helvetica,sans-Serif" font-size="10.00">::Unite</text>
</g>
<!-- Node1&#45;&gt;Node1 -->
<g id="edge1" class="edge"><title>Node1&#45;&gt;Node1</title>
<path fill="none" stroke="midnightblue" d="M32.6623,-54.659C26.1908,-64.0566 35.1367,-73 59.5,-73 74.3464,-73 83.4677,-69.679 86.8639,-64.9579"/>
<polygon fill="midnightblue" stroke="midnightblue" points="90.3435,-64.4673 86.3377,-54.659 83.3527,-64.8246 90.3435,-64.4673"/>
</g>
<!-- Node2 -->
<g id="node2" class="node"><title>Node2</title>
<g id="a_node2"><a xlink:href="class_i_n_m_o_s_t_1_1_element_array.html#afd94fb30e65569ec6ccce11b9c881c1e" target="_top" xlink:title="INMOST::ElementArray\l::data">
<polygon fill="none" stroke="black" points="155,-49.5 155,-79.5 274,-79.5 274,-49.5 155,-49.5"/>
<text text-anchor="start" x="163" y="-67.5" font-family="Helvetica,sans-Serif" font-size="10.00">INMOST::ElementArray</text>
<text text-anchor="middle" x="214.5" y="-56.5" font-family="Helvetica,sans-Serif" font-size="10.00">::data</text>
</a>
</g>
</g>
<!-- Node1&#45;&gt;Node2 -->
<g id="edge2" class="edge"><title>Node1&#45;&gt;Node2</title>
<path fill="none" stroke="midnightblue" d="M119.216,-49.0942C127.635,-50.4698 136.359,-51.8952 144.947,-53.2986"/>
<polygon fill="midnightblue" stroke="midnightblue" points="144.507,-56.773 154.941,-54.9315 145.636,-49.8646 144.507,-56.773"/>
</g>
<!-- Node4 -->
<g id="node4" class="node"><title>Node4</title>
<g id="a_node4"><a xlink:href="class_i_n_m_o_s_t_1_1_element_array.html#a6b8d74b3b5dcd00aedb27579d274e078" target="_top" xlink:title="INMOST::ElementArray\l::size">
<polygon fill="none" stroke="black" points="155,-0.5 155,-30.5 274,-30.5 274,-0.5 155,-0.5"/>
<text text-anchor="start" x="163" y="-18.5" font-family="Helvetica,sans-Serif" font-size="10.00">INMOST::ElementArray</text>
<text text-anchor="middle" x="214.5" y="-7.5" font-family="Helvetica,sans-Serif" font-size="10.00">::size</text>
</a>
</g>
</g>
<!-- Node1&#45;&gt;Node4 -->
<g id="edge4" class="edge"><title>Node1&#45;&gt;Node4</title>
<path fill="none" stroke="midnightblue" d="M119.216,-30.2896C127.635,-28.969 136.359,-27.6006 144.947,-26.2534"/>
<polygon fill="midnightblue" stroke="midnightblue" points="145.604,-29.6932 154.941,-24.6857 144.519,-22.7778 145.604,-29.6932"/>
</g>
<!-- Node3 -->
<g id="node3" class="node"><title>Node3</title>
<g id="a_node3"><a xlink:href="class_i_n_m_o_s_t_1_1dynarray.html#a161fcf0715c0f07ea1d4a1cb2e2ca74d" target="_top" xlink:title="INMOST::dynarray::data">
<polygon fill="none" stroke="black" points="310,-55 310,-74 432,-74 432,-55 310,-55"/>
<text text-anchor="middle" x="371" y="-62" font-family="Helvetica,sans-Serif" font-size="10.00">INMOST::dynarray::data</text>
</a>
</g>
</g>
<!-- Node2&#45;&gt;Node3 -->
<g id="edge3" class="edge"><title>Node2&#45;&gt;Node3</title>
<path fill="none" stroke="midnightblue" d="M274.351,-64.5C282.596,-64.5 291.138,-64.5 299.571,-64.5"/>
<polygon fill="midnightblue" stroke="midnightblue" points="299.775,-68.0001 309.775,-64.5 299.775,-61.0001 299.775,-68.0001"/>
</g>
<!-- Node5 -->
<g id="node5" class="node"><title>Node5</title>
<g id="a_node5"><a xlink:href="class_i_n_m_o_s_t_1_1dynarray.html#aeddec63b957a8a61e89f14d28fa1a2eb" target="_top" xlink:title="INMOST::dynarray::size">
<polygon fill="none" stroke="black" points="310.5,-6 310.5,-25 431.5,-25 431.5,-6 310.5,-6"/>
<text text-anchor="middle" x="371" y="-13" font-family="Helvetica,sans-Serif" font-size="10.00">INMOST::dynarray::size</text>
</a>
</g>
</g>
<!-- Node4&#45;&gt;Node5 -->
<g id="edge5" class="edge"><title>Node4&#45;&gt;Node5</title>
<path fill="none" stroke="midnightblue" d="M274.351,-15.5C282.809,-15.5 291.58,-15.5 300.225,-15.5"/>
<polygon fill="midnightblue" stroke="midnightblue" points="300.289,-19.0001 310.289,-15.5 300.289,-12.0001 300.289,-19.0001"/>
</g>
</g>
</svg>
