<?xml version="1.0" encoding="UTF-8" standalone="no"?>
<!DOCTYPE svg PUBLIC "-//W3C//DTD SVG 1.1//EN"
 "http://www.w3.org/Graphics/SVG/1.1/DTD/svg11.dtd">
<!-- Generated by graphviz version 2.38.0 (20140413.2041)
 -->
<!-- Title: INMOST::Storage::HaveData Pages: 1 -->
<svg width="522pt" height="180pt"
 viewBox="0.00 0.00 522.00 180.00" xmlns="http://www.w3.org/2000/svg" xmlns:xlink="http://www.w3.org/1999/xlink">
<g id="graph0" class="graph" transform="scale(1 1) rotate(0) translate(4 176)">
<title>INMOST::Storage::HaveData</title>
<!-- Node1 -->
<g id="node1" class="node"><title>Node1</title>
<polygon fill="#bfbfbf" stroke="black" points="0,-57.5 0,-76.5 140,-76.5 140,-57.5 0,-57.5"/>
<text text-anchor="middle" x="70" y="-64.5" font-family="Helvetica,sans-Serif" font-size="10.00">INMOST::Storage::HaveData</text>
</g>
<!-- Node2 -->
<g id="node2" class="node"><title>Node2</title>
<g id="a_node2"><a xlink:href="class_i_n_m_o_s_t_1_1_storage.html#a59da31b96c2b4e09e260f0deb4dae4d9" target="_top" xlink:title="INMOST::Storage::isValid">
<polygon fill="none" stroke="black" points="184.5,-114.5 184.5,-133.5 312.5,-133.5 312.5,-114.5 184.5,-114.5"/>
<text text-anchor="middle" x="248.5" y="-121.5" font-family="Helvetica,sans-Serif" font-size="10.00">INMOST::Storage::isValid</text>
</a>
</g>
</g>
<!-- Node1&#45;&gt;Node2 -->
<g id="edge1" class="edge"><title>Node1&#45;&gt;Node2</title>
<path fill="none" stroke="midnightblue" d="M100.542,-76.5405C130.069,-86.076 175.642,-100.794 208.205,-111.31"/>
<polygon fill="midnightblue" stroke="midnightblue" points="207.27,-114.686 217.861,-114.428 209.421,-108.024 207.27,-114.686"/>
</g>
<!-- Node4 -->
<g id="node4" class="node"><title>Node4</title>
<g id="a_node4"><a xlink:href="class_i_n_m_o_s_t_1_1_storage.html#a20d218fc89f75ca8534707b4f697173e" target="_top" xlink:title="INMOST::Storage::GetMeshLink">
<polygon fill="none" stroke="black" points="357,-76.5 357,-95.5 514,-95.5 514,-76.5 357,-76.5"/>
<text text-anchor="middle" x="435.5" y="-83.5" font-family="Helvetica,sans-Serif" font-size="10.00">INMOST::Storage::GetMeshLink</text>
</a>
</g>
</g>
<!-- Node1&#45;&gt;Node4 -->
<g id="edge5" class="edge"><title>Node1&#45;&gt;Node4</title>
<path fill="none" stroke="midnightblue" d="M140.227,-70.6185C198.886,-73.6845 283.325,-78.0981 346.721,-81.4118"/>
<polygon fill="midnightblue" stroke="midnightblue" points="346.539,-84.907 356.708,-81.9339 346.905,-77.9166 346.539,-84.907"/>
</g>
<!-- Node6 -->
<g id="node6" class="node"><title>Node6</title>
<g id="a_node6"><a xlink:href="class_i_n_m_o_s_t_1_1_mesh.html#a14fe30c96eba52f03de5780503116af1" target="_top" xlink:title="INMOST::Mesh::HaveData">
<polygon fill="none" stroke="black" points="183,-38.5 183,-57.5 314,-57.5 314,-38.5 183,-38.5"/>
<text text-anchor="middle" x="248.5" y="-45.5" font-family="Helvetica,sans-Serif" font-size="10.00">INMOST::Mesh::HaveData</text>
</a>
</g>
</g>
<!-- Node1&#45;&gt;Node6 -->
<g id="edge6" class="edge"><title>Node1&#45;&gt;Node6</title>
<path fill="none" stroke="midnightblue" d="M140.251,-59.5452C150.863,-58.4028 161.86,-57.219 172.588,-56.0642"/>
<polygon fill="midnightblue" stroke="midnightblue" points="173.201,-59.5185 182.769,-54.9682 172.452,-52.5587 173.201,-59.5185"/>
</g>
<!-- Node7 -->
<g id="node7" class="node"><title>Node7</title>
<g id="a_node7"><a xlink:href="class_i_n_m_o_s_t_1_1_storage.html#ac79e3f3664b2ff21892f37bce0caa0e0" target="_top" xlink:title="INMOST::Storage::GetHandle">
<polygon fill="none" stroke="black" points="176,-0.5 176,-19.5 321,-19.5 321,-0.5 176,-0.5"/>
<text text-anchor="middle" x="248.5" y="-7.5" font-family="Helvetica,sans-Serif" font-size="10.00">INMOST::Storage::GetHandle</text>
</a>
</g>
</g>
<!-- Node1&#45;&gt;Node7 -->
<g id="edge7" class="edge"><title>Node1&#45;&gt;Node7</title>
<path fill="none" stroke="midnightblue" d="M95.4033,-57.4811C116.553,-49.3971 148.065,-37.7483 176,-29 183.498,-26.652 191.495,-24.3412 199.325,-22.184"/>
<polygon fill="midnightblue" stroke="midnightblue" points="200.361,-25.5294 209.103,-19.5423 198.536,-18.7717 200.361,-25.5294"/>
</g>
<!-- Node3 -->
<g id="node3" class="node"><title>Node3</title>
<g id="a_node3"><a xlink:href="namespace_i_n_m_o_s_t.html#a115b3e54c3b7be04ffec9b69c058df18" target="_top" xlink:title="INMOST::InvalidHandle">
<polygon fill="none" stroke="black" points="377.5,-152.5 377.5,-171.5 493.5,-171.5 493.5,-152.5 377.5,-152.5"/>
<text text-anchor="middle" x="435.5" y="-159.5" font-family="Helvetica,sans-Serif" font-size="10.00">INMOST::InvalidHandle</text>
</a>
</g>
</g>
<!-- Node2&#45;&gt;Node3 -->
<g id="edge2" class="edge"><title>Node2&#45;&gt;Node3</title>
<path fill="none" stroke="midnightblue" d="M296.183,-133.589C321.146,-138.716 352.064,-145.067 378.334,-150.463"/>
<polygon fill="midnightblue" stroke="midnightblue" points="377.653,-153.896 388.152,-152.48 379.061,-147.039 377.653,-153.896"/>
</g>
<!-- Node2&#45;&gt;Node4 -->
<g id="edge3" class="edge"><title>Node2&#45;&gt;Node4</title>
<path fill="none" stroke="midnightblue" d="M296.183,-114.411C321.146,-109.284 352.064,-102.933 378.334,-97.5368"/>
<polygon fill="midnightblue" stroke="midnightblue" points="379.061,-100.961 388.152,-95.5201 377.653,-94.1038 379.061,-100.961"/>
</g>
<!-- Node5 -->
<g id="node5" class="node"><title>Node5</title>
<g id="a_node5"><a xlink:href="class_i_n_m_o_s_t_1_1_mesh.html#a05701da4bd3ed8ca69bbcca256c2b0e2" target="_top" xlink:title="INMOST::Mesh::isValidElement">
<polygon fill="none" stroke="black" points="358,-114.5 358,-133.5 513,-133.5 513,-114.5 358,-114.5"/>
<text text-anchor="middle" x="435.5" y="-121.5" font-family="Helvetica,sans-Serif" font-size="10.00">INMOST::Mesh::isValidElement</text>
</a>
</g>
</g>
<!-- Node2&#45;&gt;Node5 -->
<g id="edge4" class="edge"><title>Node2&#45;&gt;Node5</title>
<path fill="none" stroke="midnightblue" d="M312.649,-124C323.902,-124 335.802,-124 347.581,-124"/>
<polygon fill="midnightblue" stroke="midnightblue" points="347.881,-127.5 357.881,-124 347.881,-120.5 347.881,-127.5"/>
</g>
</g>
</svg>
