<?xml version="1.0" encoding="UTF-8" standalone="no"?>
<!DOCTYPE svg PUBLIC "-//W3C//DTD SVG 1.1//EN"
 "http://www.w3.org/Graphics/SVG/1.1/DTD/svg11.dtd">
<!-- Generated by graphviz version 2.38.0 (20140413.2041)
 -->
<!-- Title: INMOST::chunk_bulk_array::chunk_bulk_array Pages: 1 -->
<svg width="279pt" height="88pt"
 viewBox="0.00 0.00 279.00 88.00" xmlns="http://www.w3.org/2000/svg" xmlns:xlink="http://www.w3.org/1999/xlink">
<g id="graph0" class="graph" transform="scale(1 1) rotate(0) translate(4 84)">
<title>INMOST::chunk_bulk_array::chunk_bulk_array</title>
<!-- Node1 -->
<g id="node1" class="node"><title>Node1</title>
<polygon fill="#bfbfbf" stroke="black" points="0,-24.5 0,-54.5 126,-54.5 126,-24.5 0,-24.5"/>
<text text-anchor="start" x="8" y="-42.5" font-family="Helvetica,sans-Serif" font-size="10.00">INMOST::chunk_bulk</text>
<text text-anchor="middle" x="63" y="-31.5" font-family="Helvetica,sans-Serif" font-size="10.00">_array::chunk_bulk_array</text>
</g>
<!-- Node2 -->
<g id="node2" class="node"><title>Node2</title>
<g id="a_node2"><a xlink:href="class_i_n_m_o_s_t_1_1chunk__bulk__array.html#a374c54c79398708ef5368fe94bb3458f" target="_top" xlink:title="INMOST::chunk_bulk\l_array::inner_resize">
<polygon fill="none" stroke="black" points="162,-49.5 162,-79.5 271,-79.5 271,-49.5 162,-49.5"/>
<text text-anchor="start" x="170" y="-67.5" font-family="Helvetica,sans-Serif" font-size="10.00">INMOST::chunk_bulk</text>
<text text-anchor="middle" x="216.5" y="-56.5" font-family="Helvetica,sans-Serif" font-size="10.00">_array::inner_resize</text>
</a>
</g>
</g>
<!-- Node1&#45;&gt;Node2 -->
<g id="edge1" class="edge"><title>Node1&#45;&gt;Node2</title>
<path fill="none" stroke="midnightblue" d="M126.058,-49.7406C134.424,-51.1211 143.02,-52.5396 151.42,-53.9257"/>
<polygon fill="midnightblue" stroke="midnightblue" points="151.104,-57.4208 161.54,-55.5957 152.243,-50.5142 151.104,-57.4208"/>
</g>
<!-- Node3 -->
<g id="node3" class="node"><title>Node3</title>
<g id="a_node3"><a xlink:href="class_i_n_m_o_s_t_1_1chunk__bulk__array.html#a1db6577988aaaf54b3840b98ff3c1b48" target="_top" xlink:title="INMOST::chunk_bulk\l_array::size">
<polygon fill="none" stroke="black" points="162,-0.5 162,-30.5 271,-30.5 271,-0.5 162,-0.5"/>
<text text-anchor="start" x="170" y="-18.5" font-family="Helvetica,sans-Serif" font-size="10.00">INMOST::chunk_bulk</text>
<text text-anchor="middle" x="216.5" y="-7.5" font-family="Helvetica,sans-Serif" font-size="10.00">_array::size</text>
</a>
</g>
</g>
<!-- Node1&#45;&gt;Node3 -->
<g id="edge2" class="edge"><title>Node1&#45;&gt;Node3</title>
<path fill="none" stroke="midnightblue" d="M126.058,-29.669C134.424,-28.3438 143.02,-26.982 151.42,-25.6513"/>
<polygon fill="midnightblue" stroke="midnightblue" points="152.211,-29.0697 161.54,-24.0481 151.116,-22.1559 152.211,-29.0697"/>
</g>
</g>
</svg>
