<?xml version="1.0" encoding="UTF-8" standalone="no"?>
<!DOCTYPE svg PUBLIC "-//W3C//DTD SVG 1.1//EN"
 "http://www.w3.org/Graphics/SVG/1.1/DTD/svg11.dtd">
<!-- Generated by graphviz version 2.38.0 (20140413.2041)
 -->
<!-- Title: INMOST::Mesh::SetStatus Pages: 1 -->
<svg width="313pt" height="66pt"
 viewBox="0.00 0.00 313.00 66.00" xmlns="http://www.w3.org/2000/svg" xmlns:xlink="http://www.w3.org/1999/xlink">
<g id="graph0" class="graph" transform="scale(1 1) rotate(0) translate(4 62)">
<title>INMOST::Mesh::SetStatus</title>
<!-- Node1 -->
<g id="node1" class="node"><title>Node1</title>
<polygon fill="#bfbfbf" stroke="black" points="0,-19.5 0,-38.5 133,-38.5 133,-19.5 0,-19.5"/>
<text text-anchor="middle" x="66.5" y="-26.5" font-family="Helvetica,sans-Serif" font-size="10.00">INMOST::Mesh::SetStatus</text>
</g>
<!-- Node2 -->
<g id="node2" class="node"><title>Node2</title>
<g id="a_node2"><a xlink:href="class_i_n_m_o_s_t_1_1_mesh.html#a88229181252531147051badf5a05e263" target="_top" xlink:title="INMOST::Mesh::BulkDF">
<polygon fill="none" stroke="black" points="176,-38.5 176,-57.5 298,-57.5 298,-38.5 176,-38.5"/>
<text text-anchor="middle" x="237" y="-45.5" font-family="Helvetica,sans-Serif" font-size="10.00">INMOST::Mesh::BulkDF</text>
</a>
</g>
</g>
<!-- Node1&#45;&gt;Node2 -->
<g id="edge1" class="edge"><title>Node1&#45;&gt;Node2</title>
<path fill="none" stroke="midnightblue" d="M133.129,-36.4003C143.773,-37.6005 154.834,-38.8478 165.587,-40.0602"/>
<polygon fill="midnightblue" stroke="midnightblue" points="165.448,-43.5667 175.777,-41.2093 166.232,-36.6108 165.448,-43.5667"/>
</g>
<!-- Node3 -->
<g id="node3" class="node"><title>Node3</title>
<g id="a_node3"><a xlink:href="class_i_n_m_o_s_t_1_1_mesh.html#a12f64ee311bb980ea6ec98a62d8c107c" target="_top" xlink:title="INMOST::Mesh::SharedTag">
<polygon fill="none" stroke="black" points="169,-0.5 169,-19.5 305,-19.5 305,-0.5 169,-0.5"/>
<text text-anchor="middle" x="237" y="-7.5" font-family="Helvetica,sans-Serif" font-size="10.00">INMOST::Mesh::SharedTag</text>
</a>
</g>
</g>
<!-- Node1&#45;&gt;Node3 -->
<g id="edge2" class="edge"><title>Node1&#45;&gt;Node3</title>
<path fill="none" stroke="midnightblue" d="M133.129,-21.5997C141.564,-20.6486 150.261,-19.6679 158.859,-18.6984"/>
<polygon fill="midnightblue" stroke="midnightblue" points="159.339,-22.1665 168.884,-17.568 158.555,-15.2106 159.339,-22.1665"/>
</g>
</g>
</svg>
