<?xml version="1.0" encoding="UTF-8" standalone="no"?>
<!DOCTYPE svg PUBLIC "-//W3C//DTD SVG 1.1//EN"
 "http://www.w3.org/Graphics/SVG/1.1/DTD/svg11.dtd">
<!-- Generated by graphviz version 2.38.0 (20140413.2041)
 -->
<!-- Title: INMOST::chunk_array::const_iterator::const_iterator Pages: 1 -->
<svg width="292pt" height="186pt"
 viewBox="0.00 0.00 292.00 186.00" xmlns="http://www.w3.org/2000/svg" xmlns:xlink="http://www.w3.org/1999/xlink">
<g id="graph0" class="graph" transform="scale(1 1) rotate(0) translate(4 182)">
<title>INMOST::chunk_array::const_iterator::const_iterator</title>
<!-- Node1 -->
<g id="node1" class="node"><title>Node1</title>
<polygon fill="#bfbfbf" stroke="black" points="0,-68 0,-109 113,-109 113,-68 0,-68"/>
<text text-anchor="start" x="8" y="-97" font-family="Helvetica,sans-Serif" font-size="10.00">INMOST::chunk_array</text>
<text text-anchor="start" x="8" y="-86" font-family="Helvetica,sans-Serif" font-size="10.00">::const_iterator::const</text>
<text text-anchor="middle" x="56.5" y="-75" font-family="Helvetica,sans-Serif" font-size="10.00">_iterator</text>
</g>
<!-- Node2 -->
<g id="node2" class="node"><title>Node2</title>
<g id="a_node2"><a xlink:href="class_i_n_m_o_s_t_1_1chunk__array_1_1const__iterator.html#a1bfa6ab1822512e92c4793942a968233" target="_top" xlink:title="INMOST::chunk_array\l::const_iterator::operator&#45;">
<polygon fill="none" stroke="black" points="153.5,-147.5 153.5,-177.5 279.5,-177.5 279.5,-147.5 153.5,-147.5"/>
<text text-anchor="start" x="161.5" y="-165.5" font-family="Helvetica,sans-Serif" font-size="10.00">INMOST::chunk_array</text>
<text text-anchor="middle" x="216.5" y="-154.5" font-family="Helvetica,sans-Serif" font-size="10.00">::const_iterator::operator&#45;</text>
</a>
</g>
</g>
<!-- Node1&#45;&gt;Node2 -->
<g id="edge1" class="edge"><title>Node1&#45;&gt;Node2</title>
<path fill="none" stroke="midnightblue" d="M101.068,-114.087C116.014,-122.383 133.008,-131.296 149,-138.5 155.938,-141.625 163.417,-144.645 170.766,-147.426"/>
<polygon fill="midnightblue" stroke="midnightblue" points="102.486,-110.869 92.0534,-109.021 99.0567,-116.971 102.486,-110.869"/>
</g>
<!-- Node3 -->
<g id="node3" class="node"><title>Node3</title>
<g id="a_node3"><a xlink:href="class_i_n_m_o_s_t_1_1chunk__array_1_1const__iterator.html#abbee5208a9c379c9c6271051b1672f64" target="_top" xlink:title="INMOST::chunk_array\l::const_iterator::operator+">
<polygon fill="none" stroke="black" points="152,-98.5 152,-128.5 281,-128.5 281,-98.5 152,-98.5"/>
<text text-anchor="start" x="160" y="-116.5" font-family="Helvetica,sans-Serif" font-size="10.00">INMOST::chunk_array</text>
<text text-anchor="middle" x="216.5" y="-105.5" font-family="Helvetica,sans-Serif" font-size="10.00">::const_iterator::operator+</text>
</a>
</g>
</g>
<!-- Node1&#45;&gt;Node3 -->
<g id="edge2" class="edge"><title>Node1&#45;&gt;Node3</title>
<path fill="none" stroke="midnightblue" d="M123.343,-98.9181C132.803,-100.415 142.523,-101.953 151.939,-103.443"/>
<polygon fill="midnightblue" stroke="midnightblue" points="123.629,-95.42 113.205,-97.3141 122.535,-102.334 123.629,-95.42"/>
</g>
<!-- Node4 -->
<g id="node4" class="node"><title>Node4</title>
<g id="a_node4"><a xlink:href="class_i_n_m_o_s_t_1_1chunk__array_1_1const__iterator.html#a1ef2db0379a8113054b96aeb25ff25cb" target="_top" xlink:title="INMOST::chunk_array\l::const_iterator::operator++">
<polygon fill="none" stroke="black" points="149,-49.5 149,-79.5 284,-79.5 284,-49.5 149,-49.5"/>
<text text-anchor="start" x="157" y="-67.5" font-family="Helvetica,sans-Serif" font-size="10.00">INMOST::chunk_array</text>
<text text-anchor="middle" x="216.5" y="-56.5" font-family="Helvetica,sans-Serif" font-size="10.00">::const_iterator::operator++</text>
</a>
</g>
</g>
<!-- Node1&#45;&gt;Node4 -->
<g id="edge3" class="edge"><title>Node1&#45;&gt;Node4</title>
<path fill="none" stroke="midnightblue" d="M123.099,-78.5357C131.632,-77.2395 140.38,-75.9107 148.928,-74.6121"/>
<polygon fill="midnightblue" stroke="midnightblue" points="122.566,-75.0763 113.205,-80.0385 123.617,-81.997 122.566,-75.0763"/>
</g>
<!-- Node5 -->
<g id="node5" class="node"><title>Node5</title>
<g id="a_node5"><a xlink:href="class_i_n_m_o_s_t_1_1chunk__array_1_1const__iterator.html#a0206dc11cf90c969447d0af1bfd33c13" target="_top" xlink:title="INMOST::chunk_array\l::const_iterator::operator&#45;&#45;">
<polygon fill="none" stroke="black" points="152,-0.5 152,-30.5 281,-30.5 281,-0.5 152,-0.5"/>
<text text-anchor="start" x="160" y="-18.5" font-family="Helvetica,sans-Serif" font-size="10.00">INMOST::chunk_array</text>
<text text-anchor="middle" x="216.5" y="-7.5" font-family="Helvetica,sans-Serif" font-size="10.00">::const_iterator::operator&#45;&#45;</text>
</a>
</g>
</g>
<!-- Node1&#45;&gt;Node5 -->
<g id="edge4" class="edge"><title>Node1&#45;&gt;Node5</title>
<path fill="none" stroke="midnightblue" d="M103.559,-62.9215C117.931,-55.3256 133.961,-47.2408 149,-40.5 156.654,-37.0696 164.933,-33.6977 172.966,-30.5953"/>
<polygon fill="midnightblue" stroke="midnightblue" points="101.552,-60.025 94.3806,-67.8235 104.85,-66.1996 101.552,-60.025"/>
</g>
</g>
</svg>
