<?xml version="1.0" encoding="UTF-8" standalone="no"?>
<!DOCTYPE svg PUBLIC "-//W3C//DTD SVG 1.1//EN"
 "http://www.w3.org/Graphics/SVG/1.1/DTD/svg11.dtd">
<!-- Generated by graphviz version 2.38.0 (20140413.2041)
 -->
<!-- Title: INMOST::chunk_array::end Pages: 1 -->
<svg width="318pt" height="100pt"
 viewBox="0.00 0.00 318.00 99.50" xmlns="http://www.w3.org/2000/svg" xmlns:xlink="http://www.w3.org/1999/xlink">
<g id="graph0" class="graph" transform="scale(1 1) rotate(0) translate(4 95.5)">
<title>INMOST::chunk_array::end</title>
<!-- Node1 -->
<g id="node1" class="node"><title>Node1</title>
<polygon fill="#bfbfbf" stroke="black" points="0,-27.5 0,-46.5 134,-46.5 134,-27.5 0,-27.5"/>
<text text-anchor="middle" x="67" y="-34.5" font-family="Helvetica,sans-Serif" font-size="10.00">INMOST::chunk_array::end</text>
</g>
<!-- Node2 -->
<g id="node2" class="node"><title>Node2</title>
<g id="a_node2"><a xlink:href="class_i_n_m_o_s_t_1_1chunk__array.html#a0aadae81d8334f37bfcb18052447d3f6" target="_top" xlink:title="INMOST::chunk_array\l\&lt; INMOST_DATA_INTEGER\l_TYPE, chunk_bits_elems\l \&gt;::erase">
<polygon fill="none" stroke="black" points="170,-39 170,-91 310,-91 310,-39 170,-39"/>
<text text-anchor="start" x="178" y="-79" font-family="Helvetica,sans-Serif" font-size="10.00">INMOST::chunk_array</text>
<text text-anchor="start" x="178" y="-68" font-family="Helvetica,sans-Serif" font-size="10.00">&lt; INMOST_DATA_INTEGER</text>
<text text-anchor="start" x="178" y="-57" font-family="Helvetica,sans-Serif" font-size="10.00">_TYPE, chunk_bits_elems</text>
<text text-anchor="middle" x="240" y="-46" font-family="Helvetica,sans-Serif" font-size="10.00"> &gt;::erase</text>
</a>
</g>
</g>
<!-- Node1&#45;&gt;Node2 -->
<g id="edge1" class="edge"><title>Node1&#45;&gt;Node2</title>
<path fill="none" stroke="midnightblue" d="M136.391,-48.1986C147.449,-50.0092 158.905,-51.8851 169.978,-53.6982"/>
<polygon fill="midnightblue" stroke="midnightblue" points="136.804,-44.7197 126.37,-46.5577 135.673,-51.6277 136.804,-44.7197"/>
</g>
<!-- Node3 -->
<g id="node3" class="node"><title>Node3</title>
<g id="a_node3"><a xlink:href="class_i_n_m_o_s_t_1_1_mesh.html#ae69466c97ab50182ba143df2a76d5d9f" target="_top" xlink:title="INMOST::Mesh::EndTag">
<polygon fill="none" stroke="black" points="179,-0.5 179,-19.5 301,-19.5 301,-0.5 179,-0.5"/>
<text text-anchor="middle" x="240" y="-7.5" font-family="Helvetica,sans-Serif" font-size="10.00">INMOST::Mesh::EndTag</text>
</a>
</g>
</g>
<!-- Node1&#45;&gt;Node3 -->
<g id="edge2" class="edge"><title>Node1&#45;&gt;Node3</title>
<path fill="none" stroke="midnightblue" d="M138.454,-25.8757C151.909,-23.7512 165.877,-21.5458 178.968,-19.4787"/>
<polygon fill="midnightblue" stroke="midnightblue" points="137.62,-22.4639 128.288,-27.4808 138.712,-29.3783 137.62,-22.4639"/>
</g>
</g>
</svg>
