<?xml version="1.0" encoding="UTF-8" standalone="no"?>
<!DOCTYPE svg PUBLIC "-//W3C//DTD SVG 1.1//EN"
 "http://www.w3.org/Graphics/SVG/1.1/DTD/svg11.dtd">
<!-- Generated by graphviz version 2.38.0 (20140413.2041)
 -->
<!-- Title: INMOST::Mesh::base_iterator::operator* Pages: 1 -->
<svg width="437pt" height="66pt"
 viewBox="0.00 0.00 437.00 66.00" xmlns="http://www.w3.org/2000/svg" xmlns:xlink="http://www.w3.org/1999/xlink">
<g id="graph0" class="graph" transform="scale(1 1) rotate(0) translate(4 62)">
<title>INMOST::Mesh::base_iterator::operator*</title>
<!-- Node1 -->
<g id="node1" class="node"><title>Node1</title>
<polygon fill="#bfbfbf" stroke="black" points="0,-14 0,-44 110,-44 110,-14 0,-14"/>
<text text-anchor="start" x="8" y="-32" font-family="Helvetica,sans-Serif" font-size="10.00">INMOST::Mesh::base</text>
<text text-anchor="middle" x="55" y="-21" font-family="Helvetica,sans-Serif" font-size="10.00">_iterator::operator*</text>
</g>
<!-- Node2 -->
<g id="node2" class="node"><title>Node2</title>
<g id="a_node2"><a xlink:href="namespace_i_n_m_o_s_t.html#a0a1e057f5c33c6194342ac1f5535e66b" target="_top" xlink:title="INMOST::ComposeHandle">
<polygon fill="none" stroke="black" points="146,-19.5 146,-38.5 277,-38.5 277,-19.5 146,-19.5"/>
<text text-anchor="middle" x="211.5" y="-26.5" font-family="Helvetica,sans-Serif" font-size="10.00">INMOST::ComposeHandle</text>
</a>
</g>
</g>
<!-- Node1&#45;&gt;Node2 -->
<g id="edge1" class="edge"><title>Node1&#45;&gt;Node2</title>
<path fill="none" stroke="midnightblue" d="M110.037,-29C118.355,-29 127.069,-29 135.742,-29"/>
<polygon fill="midnightblue" stroke="midnightblue" points="135.877,-32.5001 145.877,-29 135.877,-25.5001 135.877,-32.5001"/>
</g>
<!-- Node3 -->
<g id="node3" class="node"><title>Node3</title>
<g id="a_node3"><a xlink:href="namespace_i_n_m_o_s_t.html#a115b3e54c3b7be04ffec9b69c058df18" target="_top" xlink:title="INMOST::InvalidHandle">
<polygon fill="none" stroke="black" points="313,-38.5 313,-57.5 429,-57.5 429,-38.5 313,-38.5"/>
<text text-anchor="middle" x="371" y="-45.5" font-family="Helvetica,sans-Serif" font-size="10.00">INMOST::InvalidHandle</text>
</a>
</g>
</g>
<!-- Node2&#45;&gt;Node3 -->
<g id="edge2" class="edge"><title>Node2&#45;&gt;Node3</title>
<path fill="none" stroke="midnightblue" d="M277.016,-36.7828C285.564,-37.8141 294.344,-38.8732 302.934,-39.9095"/>
<polygon fill="midnightblue" stroke="midnightblue" points="302.559,-43.3895 312.906,-41.1124 303.397,-36.4399 302.559,-43.3895"/>
</g>
<!-- Node4 -->
<g id="node4" class="node"><title>Node4</title>
<g id="a_node4"><a xlink:href="namespace_i_n_m_o_s_t.html#abfa34d6393c75e4cb6bbfbc1ded4f99a" target="_top" xlink:title="INMOST::ElementNum">
<polygon fill="none" stroke="black" points="313,-0.5 313,-19.5 429,-19.5 429,-0.5 313,-0.5"/>
<text text-anchor="middle" x="371" y="-7.5" font-family="Helvetica,sans-Serif" font-size="10.00">INMOST::ElementNum</text>
</a>
</g>
</g>
<!-- Node2&#45;&gt;Node4 -->
<g id="edge3" class="edge"><title>Node2&#45;&gt;Node4</title>
<path fill="none" stroke="midnightblue" d="M277.016,-21.2172C285.564,-20.1859 294.344,-19.1268 302.934,-18.0905"/>
<polygon fill="midnightblue" stroke="midnightblue" points="303.397,-21.5601 312.906,-16.8876 302.559,-14.6105 303.397,-21.5601"/>
</g>
</g>
</svg>
