<?xml version="1.0" encoding="UTF-8" standalone="no"?>
<!DOCTYPE svg PUBLIC "-//W3C//DTD SVG 1.1//EN"
 "http://www.w3.org/Graphics/SVG/1.1/DTD/svg11.dtd">
<!-- Generated by graphviz version 2.38.0 (20140413.2041)
 -->
<!-- Title: INMOST::shell::push_back Pages: 1 -->
<svg width="319pt" height="88pt"
 viewBox="0.00 0.00 319.00 88.00" xmlns="http://www.w3.org/2000/svg" xmlns:xlink="http://www.w3.org/1999/xlink">
<g id="graph0" class="graph" transform="scale(1 1) rotate(0) translate(4 84)">
<title>INMOST::shell::push_back</title>
<!-- Node1 -->
<g id="node1" class="node"><title>Node1</title>
<polygon fill="#bfbfbf" stroke="black" points="0,-30 0,-49 133,-49 133,-30 0,-30"/>
<text text-anchor="middle" x="66.5" y="-37" font-family="Helvetica,sans-Serif" font-size="10.00">INMOST::shell::push_back</text>
</g>
<!-- Node2 -->
<g id="node2" class="node"><title>Node2</title>
<g id="a_node2"><a xlink:href="class_i_n_m_o_s_t_1_1_storage_1_1reference__array.html#aff2da30cdc5284d11aea62b37964f34f" target="_top" xlink:title="INMOST::Storage::reference\l_array::push_back">
<polygon fill="none" stroke="black" points="170.5,-49.5 170.5,-79.5 309.5,-79.5 309.5,-49.5 170.5,-49.5"/>
<text text-anchor="start" x="178.5" y="-67.5" font-family="Helvetica,sans-Serif" font-size="10.00">INMOST::Storage::reference</text>
<text text-anchor="middle" x="240" y="-56.5" font-family="Helvetica,sans-Serif" font-size="10.00">_array::push_back</text>
</a>
</g>
</g>
<!-- Node1&#45;&gt;Node2 -->
<g id="edge1" class="edge"><title>Node1&#45;&gt;Node2</title>
<path fill="none" stroke="midnightblue" d="M142.738,-50.4676C151.951,-51.8106 161.328,-53.1775 170.435,-54.5051"/>
<polygon fill="midnightblue" stroke="midnightblue" points="143.226,-47.0019 132.826,-49.0227 142.217,-53.9287 143.226,-47.0019"/>
</g>
<!-- Node3 -->
<g id="node3" class="node"><title>Node3</title>
<g id="a_node3"><a xlink:href="class_i_n_m_o_s_t_1_1_storage_1_1remote__reference__array.html#a1020a51ef21932e0e73425b0ee096252" target="_top" xlink:title="INMOST::Storage::remote\l_reference_array::push_back">
<polygon fill="none" stroke="black" points="169,-0.5 169,-30.5 311,-30.5 311,-0.5 169,-0.5"/>
<text text-anchor="start" x="177" y="-18.5" font-family="Helvetica,sans-Serif" font-size="10.00">INMOST::Storage::remote</text>
<text text-anchor="middle" x="240" y="-7.5" font-family="Helvetica,sans-Serif" font-size="10.00">_reference_array::push_back</text>
</a>
</g>
</g>
<!-- Node1&#45;&gt;Node3 -->
<g id="edge2" class="edge"><title>Node1&#45;&gt;Node3</title>
<path fill="none" stroke="midnightblue" d="M143.221,-28.9034C151.729,-27.7128 160.37,-26.5036 168.804,-25.3234"/>
<polygon fill="midnightblue" stroke="midnightblue" points="142.734,-25.4374 133.316,-30.2896 143.704,-32.3698 142.734,-25.4374"/>
</g>
</g>
</svg>
