<?xml version="1.0" encoding="UTF-8" standalone="no"?>
<!DOCTYPE svg PUBLIC "-//W3C//DTD SVG 1.1//EN"
 "http://www.w3.org/Graphics/SVG/1.1/DTD/svg11.dtd">
<!-- Generated by graphviz version 2.38.0 (20140413.2041)
 -->
<!-- Title: INMOST::multivar_expression::check_nans Pages: 1 -->
<svg width="489pt" height="78pt"
 viewBox="0.00 0.00 489.00 77.50" xmlns="http://www.w3.org/2000/svg" xmlns:xlink="http://www.w3.org/1999/xlink">
<g id="graph0" class="graph" transform="scale(1 1) rotate(0) translate(4 73.5)">
<title>INMOST::multivar_expression::check_nans</title>
<!-- Node1 -->
<g id="node1" class="node"><title>Node1</title>
<polygon fill="#bfbfbf" stroke="black" points="0,-17 0,-47 145,-47 145,-17 0,-17"/>
<text text-anchor="start" x="8" y="-35" font-family="Helvetica,sans-Serif" font-size="10.00">INMOST::multivar_expression</text>
<text text-anchor="middle" x="72.5" y="-24" font-family="Helvetica,sans-Serif" font-size="10.00">::check_nans</text>
</g>
<!-- Node2 -->
<g id="node2" class="node"><title>Node2</title>
<g id="a_node2"><a xlink:href="class_i_n_m_o_s_t_1_1_sparse_1_1_row.html#ae151ff1b4c953a41174aaf5a4261fafa" target="_top" xlink:title="INMOST::Sparse::Row\l::Begin">
<polygon fill="none" stroke="black" points="192.5,-39 192.5,-69 307.5,-69 307.5,-39 192.5,-39"/>
<text text-anchor="start" x="200.5" y="-57" font-family="Helvetica,sans-Serif" font-size="10.00">INMOST::Sparse::Row</text>
<text text-anchor="middle" x="250" y="-46" font-family="Helvetica,sans-Serif" font-size="10.00">::Begin</text>
</a>
</g>
</g>
<!-- Node1&#45;&gt;Node2 -->
<g id="edge1" class="edge"><title>Node1&#45;&gt;Node2</title>
<path fill="none" stroke="midnightblue" d="M145.136,-40.98C157.428,-42.5208 170.156,-44.1165 182.312,-45.6402"/>
<polygon fill="midnightblue" stroke="midnightblue" points="182.008,-49.1294 192.366,-46.9005 182.879,-42.1838 182.008,-49.1294"/>
</g>
<!-- Node4 -->
<g id="node4" class="node"><title>Node4</title>
<g id="a_node4"><a xlink:href="class_i_n_m_o_s_t_1_1_sparse_1_1_row.html#a8f933f39bae05075356ab209eafcc47a" target="_top" xlink:title="INMOST::Sparse::Row::End">
<polygon fill="none" stroke="black" points="181,-0.5 181,-19.5 319,-19.5 319,-0.5 181,-0.5"/>
<text text-anchor="middle" x="250" y="-7.5" font-family="Helvetica,sans-Serif" font-size="10.00">INMOST::Sparse::Row::End</text>
</a>
</g>
</g>
<!-- Node1&#45;&gt;Node4 -->
<g id="edge3" class="edge"><title>Node1&#45;&gt;Node4</title>
<path fill="none" stroke="midnightblue" d="M145.136,-23.02C153.651,-21.9526 162.376,-20.8588 170.975,-19.7809"/>
<polygon fill="midnightblue" stroke="midnightblue" points="171.505,-23.242 180.992,-18.5253 170.634,-16.2964 171.505,-23.242"/>
</g>
<!-- Node3 -->
<g id="node3" class="node"><title>Node3</title>
<g id="a_node3"><a xlink:href="class_i_n_m_o_s_t_1_1dynarray.html#a95d4cabcea41ee216d2ccd310d04cd61" target="_top" xlink:title="INMOST::dynarray::begin">
<polygon fill="none" stroke="black" points="355,-44.5 355,-63.5 481,-63.5 481,-44.5 355,-44.5"/>
<text text-anchor="middle" x="418" y="-51.5" font-family="Helvetica,sans-Serif" font-size="10.00">INMOST::dynarray::begin</text>
</a>
</g>
</g>
<!-- Node2&#45;&gt;Node3 -->
<g id="edge2" class="edge"><title>Node2&#45;&gt;Node3</title>
<path fill="none" stroke="midnightblue" d="M307.663,-54C319.551,-54 332.242,-54 344.613,-54"/>
<polygon fill="midnightblue" stroke="midnightblue" points="344.906,-57.5001 354.906,-54 344.906,-50.5001 344.906,-57.5001"/>
</g>
<!-- Node5 -->
<g id="node5" class="node"><title>Node5</title>
<g id="a_node5"><a xlink:href="class_i_n_m_o_s_t_1_1dynarray.html#ad3e9af27a79aa4c5a57635546091a33d" target="_top" xlink:title="INMOST::dynarray::end">
<polygon fill="none" stroke="black" points="358.5,-0.5 358.5,-19.5 477.5,-19.5 477.5,-0.5 358.5,-0.5"/>
<text text-anchor="middle" x="418" y="-7.5" font-family="Helvetica,sans-Serif" font-size="10.00">INMOST::dynarray::end</text>
</a>
</g>
</g>
<!-- Node4&#45;&gt;Node5 -->
<g id="edge4" class="edge"><title>Node4&#45;&gt;Node5</title>
<path fill="none" stroke="midnightblue" d="M319.477,-10C328.987,-10 338.76,-10 348.274,-10"/>
<polygon fill="midnightblue" stroke="midnightblue" points="348.473,-13.5001 358.473,-10 348.473,-6.5001 348.473,-13.5001"/>
</g>
</g>
</svg>
