<?xml version="1.0" encoding="UTF-8" standalone="no"?>
<!DOCTYPE svg PUBLIC "-//W3C//DTD SVG 1.1//EN"
 "http://www.w3.org/Graphics/SVG/1.1/DTD/svg11.dtd">
<!-- Generated by graphviz version 2.38.0 (20140413.2041)
 -->
<!-- Title: INMOST::ternary_custom_variable&lt; Expr, A, B, C &gt; Pages: 1 -->
<svg width="305pt" height="939pt"
 viewBox="0.00 0.00 304.50 939.00" xmlns="http://www.w3.org/2000/svg" xmlns:xlink="http://www.w3.org/1999/xlink">
<g id="graph0" class="graph" transform="scale(1 1) rotate(0) translate(4 935)">
<title>INMOST::ternary_custom_variable&lt; Expr, A, B, C &gt;</title>
<!-- Node1 -->
<g id="node1" class="node"><title>Node1</title>
<polygon fill="#bfbfbf" stroke="black" points="43,-0.5 43,-156.5 180,-156.5 180,-0.5 43,-0.5"/>
<text text-anchor="start" x="51" y="-144.5" font-family="Helvetica,sans-Serif" font-size="10.00">INMOST::ternary_custom</text>
<text text-anchor="middle" x="111.5" y="-133.5" font-family="Helvetica,sans-Serif" font-size="10.00">_variable&lt; Expr, A, B, C &gt;</text>
<polyline fill="none" stroke="black" points="43,-126.5 180,-126.5 "/>
<text text-anchor="middle" x="111.5" y="-114.5" font-family="Helvetica,sans-Serif" font-size="10.00"> </text>
<polyline fill="none" stroke="black" points="43,-107.5 180,-107.5 "/>
<text text-anchor="start" x="51" y="-95.5" font-family="Helvetica,sans-Serif" font-size="10.00">+ ternary_custom_variable()</text>
<text text-anchor="start" x="51" y="-84.5" font-family="Helvetica,sans-Serif" font-size="10.00">+ ternary_custom_variable()</text>
<text text-anchor="start" x="51" y="-73.5" font-family="Helvetica,sans-Serif" font-size="10.00">+ operator=()</text>
<text text-anchor="start" x="51" y="-62.5" font-family="Helvetica,sans-Serif" font-size="10.00">+ Value()</text>
<text text-anchor="start" x="51" y="-51.5" font-family="Helvetica,sans-Serif" font-size="10.00">+ Variable()</text>
<text text-anchor="start" x="51" y="-40.5" font-family="Helvetica,sans-Serif" font-size="10.00">+ Variable()</text>
<text text-anchor="start" x="51" y="-29.5" font-family="Helvetica,sans-Serif" font-size="10.00">+ operator[]()</text>
<text text-anchor="start" x="51" y="-18.5" font-family="Helvetica,sans-Serif" font-size="10.00">+ GetVariation()</text>
<text text-anchor="start" x="51" y="-7.5" font-family="Helvetica,sans-Serif" font-size="10.00">+ GetVariation()</text>
</g>
<!-- Node2 -->
<g id="node2" class="node"><title>Node2</title>
<g id="a_node2"><a xlink:href="class_i_n_m_o_s_t_1_1shell__dynamic__variable.html" target="_top" xlink:title="{INMOST::shell_dynamic\l_variable\&lt; ternary_pool\l_expression\&lt; Expr, A::Var,\l B::Var, C::Var \&gt;, ternary\l_custom_variable\&lt; Expr, A,\l B, C \&gt; \&gt;\n||+ Value()\l+ operator()()\l+ operator()()\l+ operator[]()\l+ GetVariation()\l+ GetVariation()\l}">
<polygon fill="none" stroke="black" points="43,-194.5 43,-361.5 180,-361.5 180,-194.5 43,-194.5"/>
<text text-anchor="start" x="51" y="-349.5" font-family="Helvetica,sans-Serif" font-size="10.00">INMOST::shell_dynamic</text>
<text text-anchor="start" x="51" y="-338.5" font-family="Helvetica,sans-Serif" font-size="10.00">_variable&lt; ternary_pool</text>
<text text-anchor="start" x="51" y="-327.5" font-family="Helvetica,sans-Serif" font-size="10.00">_expression&lt; Expr, A::Var,</text>
<text text-anchor="start" x="51" y="-316.5" font-family="Helvetica,sans-Serif" font-size="10.00"> B::Var, C::Var &gt;, ternary</text>
<text text-anchor="start" x="51" y="-305.5" font-family="Helvetica,sans-Serif" font-size="10.00">_custom_variable&lt; Expr, A,</text>
<text text-anchor="middle" x="111.5" y="-294.5" font-family="Helvetica,sans-Serif" font-size="10.00"> B, C &gt; &gt;</text>
<polyline fill="none" stroke="black" points="43,-287.5 180,-287.5 "/>
<text text-anchor="middle" x="111.5" y="-275.5" font-family="Helvetica,sans-Serif" font-size="10.00"> </text>
<polyline fill="none" stroke="black" points="43,-268.5 180,-268.5 "/>
<text text-anchor="start" x="51" y="-256.5" font-family="Helvetica,sans-Serif" font-size="10.00">+ Value()</text>
<text text-anchor="start" x="51" y="-245.5" font-family="Helvetica,sans-Serif" font-size="10.00">+ operator()()</text>
<text text-anchor="start" x="51" y="-234.5" font-family="Helvetica,sans-Serif" font-size="10.00">+ operator()()</text>
<text text-anchor="start" x="51" y="-223.5" font-family="Helvetica,sans-Serif" font-size="10.00">+ operator[]()</text>
<text text-anchor="start" x="51" y="-212.5" font-family="Helvetica,sans-Serif" font-size="10.00">+ GetVariation()</text>
<text text-anchor="start" x="51" y="-201.5" font-family="Helvetica,sans-Serif" font-size="10.00">+ GetVariation()</text>
</a>
</g>
</g>
<!-- Node2&#45;&gt;Node1 -->
<g id="edge1" class="edge"><title>Node2&#45;&gt;Node1</title>
<path fill="none" stroke="midnightblue" d="M111.5,-184.092C111.5,-174.935 111.5,-165.71 111.5,-156.734"/>
<polygon fill="none" stroke="midnightblue" points="108,-184.387 111.5,-194.387 115,-184.387 108,-184.387"/>
</g>
<!-- Node3 -->
<g id="node3" class="node"><title>Node3</title>
<g id="a_node3"><a xlink:href="class_i_n_m_o_s_t_1_1basic__dynamic__variable.html" target="_top" xlink:title="{INMOST::basic_dynamic\l_variable\&lt; ternary_pool\l_expression\&lt; Expr, A::Var,\l B::Var, C::Var \&gt; \&gt;\n||+ Value()\l+ Variable()\l+ Variable()\l+ operator[]()\l+ GetVariation()\l+ GetVariation()\l}">
<polygon fill="none" stroke="black" points="0,-442.5 0,-587.5 135,-587.5 135,-442.5 0,-442.5"/>
<text text-anchor="start" x="8" y="-575.5" font-family="Helvetica,sans-Serif" font-size="10.00">INMOST::basic_dynamic</text>
<text text-anchor="start" x="8" y="-564.5" font-family="Helvetica,sans-Serif" font-size="10.00">_variable&lt; ternary_pool</text>
<text text-anchor="start" x="8" y="-553.5" font-family="Helvetica,sans-Serif" font-size="10.00">_expression&lt; Expr, A::Var,</text>
<text text-anchor="middle" x="67.5" y="-542.5" font-family="Helvetica,sans-Serif" font-size="10.00"> B::Var, C::Var &gt; &gt;</text>
<polyline fill="none" stroke="black" points="0,-535.5 135,-535.5 "/>
<text text-anchor="middle" x="67.5" y="-523.5" font-family="Helvetica,sans-Serif" font-size="10.00"> </text>
<polyline fill="none" stroke="black" points="0,-516.5 135,-516.5 "/>
<text text-anchor="start" x="8" y="-504.5" font-family="Helvetica,sans-Serif" font-size="10.00">+ Value()</text>
<text text-anchor="start" x="8" y="-493.5" font-family="Helvetica,sans-Serif" font-size="10.00">+ Variable()</text>
<text text-anchor="start" x="8" y="-482.5" font-family="Helvetica,sans-Serif" font-size="10.00">+ Variable()</text>
<text text-anchor="start" x="8" y="-471.5" font-family="Helvetica,sans-Serif" font-size="10.00">+ operator[]()</text>
<text text-anchor="start" x="8" y="-460.5" font-family="Helvetica,sans-Serif" font-size="10.00">+ GetVariation()</text>
<text text-anchor="start" x="8" y="-449.5" font-family="Helvetica,sans-Serif" font-size="10.00">+ GetVariation()</text>
</a>
</g>
</g>
<!-- Node3&#45;&gt;Node2 -->
<g id="edge2" class="edge"><title>Node3&#45;&gt;Node2</title>
<path fill="none" stroke="midnightblue" d="M82.807,-432.247C87.0716,-409.47 91.7069,-384.713 95.9834,-361.873"/>
<polygon fill="none" stroke="midnightblue" points="79.3408,-431.742 80.9405,-442.215 86.2212,-433.03 79.3408,-431.742"/>
</g>
<!-- Node4 -->
<g id="node4" class="node"><title>Node4</title>
<g id="a_node4"><a xlink:href="class_i_n_m_o_s_t_1_1abstract__dynamic__variable.html" target="_top" xlink:title="{INMOST::abstract_dynamic\l_variable\n||+ Value()\l+ Variable()\l+ Variable()\l+ GetVariation()\l+ GetVariation()\l}">
<polygon fill="none" stroke="black" points="9,-818.5 9,-930.5 146,-930.5 146,-818.5 9,-818.5"/>
<text text-anchor="start" x="17" y="-918.5" font-family="Helvetica,sans-Serif" font-size="10.00">INMOST::abstract_dynamic</text>
<text text-anchor="middle" x="77.5" y="-907.5" font-family="Helvetica,sans-Serif" font-size="10.00">_variable</text>
<polyline fill="none" stroke="black" points="9,-900.5 146,-900.5 "/>
<text text-anchor="middle" x="77.5" y="-888.5" font-family="Helvetica,sans-Serif" font-size="10.00"> </text>
<polyline fill="none" stroke="black" points="9,-881.5 146,-881.5 "/>
<text text-anchor="start" x="17" y="-869.5" font-family="Helvetica,sans-Serif" font-size="10.00">+ Value()</text>
<text text-anchor="start" x="17" y="-858.5" font-family="Helvetica,sans-Serif" font-size="10.00">+ Variable()</text>
<text text-anchor="start" x="17" y="-847.5" font-family="Helvetica,sans-Serif" font-size="10.00">+ Variable()</text>
<text text-anchor="start" x="17" y="-836.5" font-family="Helvetica,sans-Serif" font-size="10.00">+ GetVariation()</text>
<text text-anchor="start" x="17" y="-825.5" font-family="Helvetica,sans-Serif" font-size="10.00">+ GetVariation()</text>
</a>
</g>
</g>
<!-- Node4&#45;&gt;Node3 -->
<g id="edge3" class="edge"><title>Node4&#45;&gt;Node3</title>
<path fill="none" stroke="midnightblue" d="M69.5469,-808.126C68.6988,-799.028 67.9737,-789.789 67.5,-781 63.9778,-715.65 64.3699,-641.103 65.4138,-587.758"/>
<polygon fill="none" stroke="midnightblue" points="66.0863,-808.699 70.5498,-818.308 73.0526,-808.013 66.0863,-808.699"/>
</g>
<!-- Node5 -->
<g id="node5" class="node"><title>Node5</title>
<g id="a_node5"><a xlink:href="class_i_n_m_o_s_t_1_1basic__dynamic__variable.html" target="_top" xlink:title="{INMOST::basic_dynamic\l_variable\&lt; VariableType \&gt;\n||+ Value()\l+ Variable()\l+ Variable()\l+ operator[]()\l+ GetVariation()\l+ GetVariation()\l}">
<polygon fill="none" stroke="black" points="76.5,-657.5 76.5,-780.5 204.5,-780.5 204.5,-657.5 76.5,-657.5"/>
<text text-anchor="start" x="84.5" y="-768.5" font-family="Helvetica,sans-Serif" font-size="10.00">INMOST::basic_dynamic</text>
<text text-anchor="middle" x="140.5" y="-757.5" font-family="Helvetica,sans-Serif" font-size="10.00">_variable&lt; VariableType &gt;</text>
<polyline fill="none" stroke="black" points="76.5,-750.5 204.5,-750.5 "/>
<text text-anchor="middle" x="140.5" y="-738.5" font-family="Helvetica,sans-Serif" font-size="10.00"> </text>
<polyline fill="none" stroke="black" points="76.5,-731.5 204.5,-731.5 "/>
<text text-anchor="start" x="84.5" y="-719.5" font-family="Helvetica,sans-Serif" font-size="10.00">+ Value()</text>
<text text-anchor="start" x="84.5" y="-708.5" font-family="Helvetica,sans-Serif" font-size="10.00">+ Variable()</text>
<text text-anchor="start" x="84.5" y="-697.5" font-family="Helvetica,sans-Serif" font-size="10.00">+ Variable()</text>
<text text-anchor="start" x="84.5" y="-686.5" font-family="Helvetica,sans-Serif" font-size="10.00">+ operator[]()</text>
<text text-anchor="start" x="84.5" y="-675.5" font-family="Helvetica,sans-Serif" font-size="10.00">+ GetVariation()</text>
<text text-anchor="start" x="84.5" y="-664.5" font-family="Helvetica,sans-Serif" font-size="10.00">+ GetVariation()</text>
</a>
</g>
</g>
<!-- Node4&#45;&gt;Node5 -->
<g id="edge5" class="edge"><title>Node4&#45;&gt;Node5</title>
<path fill="none" stroke="midnightblue" d="M104.049,-808.812C107.897,-799.438 111.845,-789.818 115.657,-780.53"/>
<polygon fill="none" stroke="midnightblue" points="100.803,-807.503 100.244,-818.083 107.279,-810.161 100.803,-807.503"/>
</g>
<!-- Node5&#45;&gt;Node3 -->
<g id="edge4" class="edge"><title>Node5&#45;&gt;Node3</title>
<path fill="none" stroke="orange" d="M86.5882,-648.203C85.0951,-645.157 83.7224,-642.084 82.5,-639 76.1593,-623.001 72.3167,-604.989 70.03,-587.786"/>
<polygon fill="orange" stroke="orange" points="83.6099,-650.057 91.3982,-657.239 89.7891,-646.767 83.6099,-650.057"/>
<text text-anchor="start" x="82.5" y="-631" font-family="Helvetica,sans-Serif" font-size="10.00"> &lt; ternary_pool_expression</text>
<text text-anchor="start" x="82.5" y="-620" font-family="Helvetica,sans-Serif" font-size="10.00">&lt; Expr, A::Var, B::Var,</text>
<text text-anchor="middle" x="141.5" y="-609" font-family="Helvetica,sans-Serif" font-size="10.00"> C::Var &gt; &gt;</text>
</g>
<!-- Node6 -->
<g id="node6" class="node"><title>Node6</title>
<g id="a_node6"><a xlink:href="class_i_n_m_o_s_t_1_1shell__dynamic__variable.html" target="_top" xlink:title="{INMOST::shell_dynamic\l_variable\&lt; VariableType,\l Derived \&gt;\n||+ Value()\l+ operator()()\l+ operator()()\l+ operator[]()\l+ GetVariation()\l+ GetVariation()\l}">
<polygon fill="none" stroke="black" points="153.5,-448 153.5,-582 275.5,-582 275.5,-448 153.5,-448"/>
<text text-anchor="start" x="161.5" y="-570" font-family="Helvetica,sans-Serif" font-size="10.00">INMOST::shell_dynamic</text>
<text text-anchor="start" x="161.5" y="-559" font-family="Helvetica,sans-Serif" font-size="10.00">_variable&lt; VariableType,</text>
<text text-anchor="middle" x="214.5" y="-548" font-family="Helvetica,sans-Serif" font-size="10.00"> Derived &gt;</text>
<polyline fill="none" stroke="black" points="153.5,-541 275.5,-541 "/>
<text text-anchor="middle" x="214.5" y="-529" font-family="Helvetica,sans-Serif" font-size="10.00"> </text>
<polyline fill="none" stroke="black" points="153.5,-522 275.5,-522 "/>
<text text-anchor="start" x="161.5" y="-510" font-family="Helvetica,sans-Serif" font-size="10.00">+ Value()</text>
<text text-anchor="start" x="161.5" y="-499" font-family="Helvetica,sans-Serif" font-size="10.00">+ operator()()</text>
<text text-anchor="start" x="161.5" y="-488" font-family="Helvetica,sans-Serif" font-size="10.00">+ operator()()</text>
<text text-anchor="start" x="161.5" y="-477" font-family="Helvetica,sans-Serif" font-size="10.00">+ operator[]()</text>
<text text-anchor="start" x="161.5" y="-466" font-family="Helvetica,sans-Serif" font-size="10.00">+ GetVariation()</text>
<text text-anchor="start" x="161.5" y="-455" font-family="Helvetica,sans-Serif" font-size="10.00">+ GetVariation()</text>
</a>
</g>
</g>
<!-- Node5&#45;&gt;Node6 -->
<g id="edge7" class="edge"><title>Node5&#45;&gt;Node6</title>
<path fill="none" stroke="midnightblue" d="M196.163,-648.574C197.754,-645.411 199.211,-642.214 200.5,-639 207.621,-621.247 211.482,-600.971 213.49,-582.073"/>
<polygon fill="none" stroke="midnightblue" points="193.076,-646.925 191.357,-657.38 199.22,-650.279 193.076,-646.925"/>
</g>
<!-- Node6&#45;&gt;Node2 -->
<g id="edge6" class="edge"><title>Node6&#45;&gt;Node2</title>
<path fill="none" stroke="orange" d="M181.481,-438.666C170.734,-414.146 158.749,-386.802 147.777,-361.768"/>
<polygon fill="orange" stroke="orange" points="178.315,-440.16 185.535,-447.914 184.726,-437.35 178.315,-440.16"/>
<text text-anchor="start" x="172.5" y="-416" font-family="Helvetica,sans-Serif" font-size="10.00"> &lt; ternary_pool_expression</text>
<text text-anchor="start" x="172.5" y="-405" font-family="Helvetica,sans-Serif" font-size="10.00">&lt; Expr, A::Var, B::Var,</text>
<text text-anchor="start" x="172.5" y="-394" font-family="Helvetica,sans-Serif" font-size="10.00"> C::Var &gt;, ternary_custom</text>
<text text-anchor="middle" x="234.5" y="-383" font-family="Helvetica,sans-Serif" font-size="10.00">_variable&lt; Expr, A, B, C &gt; &gt;</text>
</g>
</g>
</svg>
