<?xml version="1.0" encoding="UTF-8" standalone="no"?>
<!DOCTYPE svg PUBLIC "-//W3C//DTD SVG 1.1//EN"
 "http://www.w3.org/Graphics/SVG/1.1/DTD/svg11.dtd">
<!-- Generated by graphviz version 2.38.0 (20140413.2041)
 -->
<!-- Title: INMOST::Sparse::Matrix::GetInterval Pages: 1 -->
<svg width="276pt" height="88pt"
 viewBox="0.00 0.00 276.00 88.00" xmlns="http://www.w3.org/2000/svg" xmlns:xlink="http://www.w3.org/1999/xlink">
<g id="graph0" class="graph" transform="scale(1 1) rotate(0) translate(4 84)">
<title>INMOST::Sparse::Matrix::GetInterval</title>
<!-- Node1 -->
<g id="node1" class="node"><title>Node1</title>
<polygon fill="#bfbfbf" stroke="black" points="0,-24.5 0,-54.5 123,-54.5 123,-24.5 0,-24.5"/>
<text text-anchor="start" x="8" y="-42.5" font-family="Helvetica,sans-Serif" font-size="10.00">INMOST::Sparse::Matrix</text>
<text text-anchor="middle" x="61.5" y="-31.5" font-family="Helvetica,sans-Serif" font-size="10.00">::GetInterval</text>
</g>
<!-- Node2 -->
<g id="node2" class="node"><title>Node2</title>
<g id="a_node2"><a xlink:href="class_i_n_m_o_s_t_1_1interval.html#ad1ffbb7787c09652d54d050f7956a1d3" target="_top" xlink:title="INMOST::interval::get\l_interval_beg">
<polygon fill="none" stroke="black" points="159,-49.5 159,-79.5 268,-79.5 268,-49.5 159,-49.5"/>
<text text-anchor="start" x="167" y="-67.5" font-family="Helvetica,sans-Serif" font-size="10.00">INMOST::interval::get</text>
<text text-anchor="middle" x="213.5" y="-56.5" font-family="Helvetica,sans-Serif" font-size="10.00">_interval_beg</text>
</a>
</g>
</g>
<!-- Node1&#45;&gt;Node2 -->
<g id="edge1" class="edge"><title>Node1&#45;&gt;Node2</title>
<path fill="none" stroke="midnightblue" d="M123.078,-49.5964C131.611,-51.0185 140.402,-52.4837 148.988,-53.9146"/>
<polygon fill="midnightblue" stroke="midnightblue" points="148.504,-57.3823 158.944,-55.574 149.655,-50.4775 148.504,-57.3823"/>
</g>
<!-- Node3 -->
<g id="node3" class="node"><title>Node3</title>
<g id="a_node3"><a xlink:href="class_i_n_m_o_s_t_1_1interval.html#a7c810c9ad896ffe792d64c37d7bcc074" target="_top" xlink:title="INMOST::interval::get\l_interval_end">
<polygon fill="none" stroke="black" points="159,-0.5 159,-30.5 268,-30.5 268,-0.5 159,-0.5"/>
<text text-anchor="start" x="167" y="-18.5" font-family="Helvetica,sans-Serif" font-size="10.00">INMOST::interval::get</text>
<text text-anchor="middle" x="213.5" y="-7.5" font-family="Helvetica,sans-Serif" font-size="10.00">_interval_end</text>
</a>
</g>
</g>
<!-- Node1&#45;&gt;Node3 -->
<g id="edge2" class="edge"><title>Node1&#45;&gt;Node3</title>
<path fill="none" stroke="midnightblue" d="M123.078,-29.8075C131.611,-28.4423 140.402,-27.0357 148.988,-25.662"/>
<polygon fill="midnightblue" stroke="midnightblue" points="149.622,-29.105 158.944,-24.069 148.516,-22.1929 149.622,-29.105"/>
</g>
</g>
</svg>
