<?xml version="1.0" encoding="UTF-8" standalone="no"?>
<!DOCTYPE svg PUBLIC "-//W3C//DTD SVG 1.1//EN"
 "http://www.w3.org/Graphics/SVG/1.1/DTD/svg11.dtd">
<!-- Generated by graphviz version 2.38.0 (20140413.2041)
 -->
<!-- Title: INMOST::cos_expression&lt; A &gt; Pages: 1 -->
<svg width="241pt" height="625pt"
 viewBox="0.00 0.00 241.00 625.00" xmlns="http://www.w3.org/2000/svg" xmlns:xlink="http://www.w3.org/1999/xlink">
<g id="graph0" class="graph" transform="scale(1 1) rotate(0) translate(4 621)">
<title>INMOST::cos_expression&lt; A &gt;</title>
<!-- Node1 -->
<g id="node1" class="node"><title>Node1</title>
<polygon fill="#bfbfbf" stroke="black" points="0,-0.5 0,-101.5 152,-101.5 152,-0.5 0,-0.5"/>
<text text-anchor="middle" x="76" y="-89.5" font-family="Helvetica,sans-Serif" font-size="10.00">INMOST::cos_expression&lt; A &gt;</text>
<polyline fill="none" stroke="black" points="0,-82.5 152,-82.5 "/>
<text text-anchor="middle" x="76" y="-70.5" font-family="Helvetica,sans-Serif" font-size="10.00"> </text>
<polyline fill="none" stroke="black" points="0,-63.5 152,-63.5 "/>
<text text-anchor="start" x="8" y="-51.5" font-family="Helvetica,sans-Serif" font-size="10.00">+ cos_expression()</text>
<text text-anchor="start" x="8" y="-40.5" font-family="Helvetica,sans-Serif" font-size="10.00">+ cos_expression()</text>
<text text-anchor="start" x="8" y="-29.5" font-family="Helvetica,sans-Serif" font-size="10.00">+ GetValue()</text>
<text text-anchor="start" x="8" y="-18.5" font-family="Helvetica,sans-Serif" font-size="10.00">+ GetDerivative()</text>
<text text-anchor="start" x="8" y="-7.5" font-family="Helvetica,sans-Serif" font-size="10.00">+ GetDerivative()</text>
</g>
<!-- Node2 -->
<g id="node2" class="node"><title>Node2</title>
<g id="a_node2"><a xlink:href="class_i_n_m_o_s_t_1_1shell__expression.html" target="_top" xlink:title="{INMOST::shell_expression\l\&lt; cos_expression\&lt; A \&gt; \&gt;\n||+ shell_expression()\l+ shell_expression()\l+ GetValue()\l+ GetDerivative()\l+ GetDerivative()\l+ operator cos_expression\l\&lt; A \&gt; &amp;()\l+ operator const cos\l_expression\&lt; A \&gt; &amp;()\l}">
<polygon fill="none" stroke="black" points="10,-139.5 10,-295.5 142,-295.5 142,-139.5 10,-139.5"/>
<text text-anchor="start" x="18" y="-283.5" font-family="Helvetica,sans-Serif" font-size="10.00">INMOST::shell_expression</text>
<text text-anchor="middle" x="76" y="-272.5" font-family="Helvetica,sans-Serif" font-size="10.00">&lt; cos_expression&lt; A &gt; &gt;</text>
<polyline fill="none" stroke="black" points="10,-265.5 142,-265.5 "/>
<text text-anchor="middle" x="76" y="-253.5" font-family="Helvetica,sans-Serif" font-size="10.00"> </text>
<polyline fill="none" stroke="black" points="10,-246.5 142,-246.5 "/>
<text text-anchor="start" x="18" y="-234.5" font-family="Helvetica,sans-Serif" font-size="10.00">+ shell_expression()</text>
<text text-anchor="start" x="18" y="-223.5" font-family="Helvetica,sans-Serif" font-size="10.00">+ shell_expression()</text>
<text text-anchor="start" x="18" y="-212.5" font-family="Helvetica,sans-Serif" font-size="10.00">+ GetValue()</text>
<text text-anchor="start" x="18" y="-201.5" font-family="Helvetica,sans-Serif" font-size="10.00">+ GetDerivative()</text>
<text text-anchor="start" x="18" y="-190.5" font-family="Helvetica,sans-Serif" font-size="10.00">+ GetDerivative()</text>
<text text-anchor="start" x="18" y="-179.5" font-family="Helvetica,sans-Serif" font-size="10.00">+ operator cos_expression</text>
<text text-anchor="start" x="18" y="-168.5" font-family="Helvetica,sans-Serif" font-size="10.00">&lt; A &gt; &amp;()</text>
<text text-anchor="start" x="18" y="-157.5" font-family="Helvetica,sans-Serif" font-size="10.00">+ operator const cos</text>
<text text-anchor="start" x="18" y="-146.5" font-family="Helvetica,sans-Serif" font-size="10.00">_expression&lt; A &gt; &amp;()</text>
</a>
</g>
</g>
<!-- Node2&#45;&gt;Node1 -->
<g id="edge1" class="edge"><title>Node2&#45;&gt;Node1</title>
<path fill="none" stroke="midnightblue" d="M76,-128.964C76,-119.664 76,-110.456 76,-101.816"/>
<polygon fill="none" stroke="midnightblue" points="72.5001,-129.067 76,-139.067 79.5001,-129.067 72.5001,-129.067"/>
</g>
<!-- Node3 -->
<g id="node3" class="node"><title>Node3</title>
<g id="a_node3"><a xlink:href="class_i_n_m_o_s_t_1_1basic__expression.html" target="_top" xlink:title="{INMOST::basic_expression\n||+ basic_expression()\l+ basic_expression()\l+ GetValue()\l+ GetDerivative()\l+ GetDerivative()\l}">
<polygon fill="none" stroke="black" points="22.5,-515.5 22.5,-616.5 157.5,-616.5 157.5,-515.5 22.5,-515.5"/>
<text text-anchor="middle" x="90" y="-604.5" font-family="Helvetica,sans-Serif" font-size="10.00">INMOST::basic_expression</text>
<polyline fill="none" stroke="black" points="22.5,-597.5 157.5,-597.5 "/>
<text text-anchor="middle" x="90" y="-585.5" font-family="Helvetica,sans-Serif" font-size="10.00"> </text>
<polyline fill="none" stroke="black" points="22.5,-578.5 157.5,-578.5 "/>
<text text-anchor="start" x="30.5" y="-566.5" font-family="Helvetica,sans-Serif" font-size="10.00">+ basic_expression()</text>
<text text-anchor="start" x="30.5" y="-555.5" font-family="Helvetica,sans-Serif" font-size="10.00">+ basic_expression()</text>
<text text-anchor="start" x="30.5" y="-544.5" font-family="Helvetica,sans-Serif" font-size="10.00">+ GetValue()</text>
<text text-anchor="start" x="30.5" y="-533.5" font-family="Helvetica,sans-Serif" font-size="10.00">+ GetDerivative()</text>
<text text-anchor="start" x="30.5" y="-522.5" font-family="Helvetica,sans-Serif" font-size="10.00">+ GetDerivative()</text>
</a>
</g>
</g>
<!-- Node3&#45;&gt;Node2 -->
<g id="edge2" class="edge"><title>Node3&#45;&gt;Node2</title>
<path fill="none" stroke="midnightblue" d="M81.5319,-505.242C80.5057,-496.133 79.6072,-486.828 79,-478 74.7881,-416.757 74.2098,-347.197 74.5904,-295.521"/>
<polygon fill="none" stroke="midnightblue" points="78.084,-505.889 82.7362,-515.408 85.0354,-505.065 78.084,-505.889"/>
</g>
<!-- Node4 -->
<g id="node4" class="node"><title>Node4</title>
<g id="a_node4"><a xlink:href="class_i_n_m_o_s_t_1_1shell__expression.html" target="_top" xlink:title="{INMOST::shell_expression\l\&lt; Derived \&gt;\n||+ shell_expression()\l+ shell_expression()\l+ GetValue()\l+ GetDerivative()\l+ GetDerivative()\l+ operator Derived &amp;()\l+ operator const Derived &amp;()\l}">
<polygon fill="none" stroke="black" points="88,-343.5 88,-477.5 226,-477.5 226,-343.5 88,-343.5"/>
<text text-anchor="start" x="96" y="-465.5" font-family="Helvetica,sans-Serif" font-size="10.00">INMOST::shell_expression</text>
<text text-anchor="middle" x="157" y="-454.5" font-family="Helvetica,sans-Serif" font-size="10.00">&lt; Derived &gt;</text>
<polyline fill="none" stroke="black" points="88,-447.5 226,-447.5 "/>
<text text-anchor="middle" x="157" y="-435.5" font-family="Helvetica,sans-Serif" font-size="10.00"> </text>
<polyline fill="none" stroke="black" points="88,-428.5 226,-428.5 "/>
<text text-anchor="start" x="96" y="-416.5" font-family="Helvetica,sans-Serif" font-size="10.00">+ shell_expression()</text>
<text text-anchor="start" x="96" y="-405.5" font-family="Helvetica,sans-Serif" font-size="10.00">+ shell_expression()</text>
<text text-anchor="start" x="96" y="-394.5" font-family="Helvetica,sans-Serif" font-size="10.00">+ GetValue()</text>
<text text-anchor="start" x="96" y="-383.5" font-family="Helvetica,sans-Serif" font-size="10.00">+ GetDerivative()</text>
<text text-anchor="start" x="96" y="-372.5" font-family="Helvetica,sans-Serif" font-size="10.00">+ GetDerivative()</text>
<text text-anchor="start" x="96" y="-361.5" font-family="Helvetica,sans-Serif" font-size="10.00">+ operator Derived &amp;()</text>
<text text-anchor="start" x="96" y="-350.5" font-family="Helvetica,sans-Serif" font-size="10.00">+ operator const Derived &amp;()</text>
</a>
</g>
</g>
<!-- Node3&#45;&gt;Node4 -->
<g id="edge4" class="edge"><title>Node3&#45;&gt;Node4</title>
<path fill="none" stroke="midnightblue" d="M115.879,-505.711C119.902,-496.494 124.079,-486.923 128.163,-477.568"/>
<polygon fill="none" stroke="midnightblue" points="112.546,-504.598 111.753,-515.163 118.961,-507.398 112.546,-504.598"/>
</g>
<!-- Node4&#45;&gt;Node2 -->
<g id="edge3" class="edge"><title>Node4&#45;&gt;Node2</title>
<path fill="none" stroke="orange" d="M124.892,-333.788C119.594,-321.296 114.096,-308.332 108.783,-295.802"/>
<polygon fill="orange" stroke="orange" points="121.771,-335.394 128.897,-343.234 128.215,-332.661 121.771,-335.394"/>
<text text-anchor="middle" x="175.5" y="-317" font-family="Helvetica,sans-Serif" font-size="10.00"> &lt; cos_expression&lt; A &gt; &gt;</text>
</g>
</g>
</svg>
