<?xml version="1.0" encoding="UTF-8" standalone="no"?>
<!DOCTYPE svg PUBLIC "-//W3C//DTD SVG 1.1//EN"
 "http://www.w3.org/Graphics/SVG/1.1/DTD/svg11.dtd">
<!-- Generated by graphviz version 2.38.0 (20140413.2041)
 -->
<!-- Title: INMOST::unary_const_pool::get_op Pages: 1 -->
<svg width="312pt" height="88pt"
 viewBox="0.00 0.00 312.00 88.00" xmlns="http://www.w3.org/2000/svg" xmlns:xlink="http://www.w3.org/1999/xlink">
<g id="graph0" class="graph" transform="scale(1 1) rotate(0) translate(4 84)">
<title>INMOST::unary_const_pool::get_op</title>
<!-- Node1 -->
<g id="node1" class="node"><title>Node1</title>
<polygon fill="#bfbfbf" stroke="black" points="0,-24.5 0,-54.5 113,-54.5 113,-24.5 0,-24.5"/>
<text text-anchor="start" x="8" y="-42.5" font-family="Helvetica,sans-Serif" font-size="10.00">INMOST::unary_const</text>
<text text-anchor="middle" x="56.5" y="-31.5" font-family="Helvetica,sans-Serif" font-size="10.00">_pool::get_op</text>
</g>
<!-- Node2 -->
<g id="node2" class="node"><title>Node2</title>
<g id="a_node2"><a xlink:href="class_i_n_m_o_s_t_1_1unary__const__pool__expression.html#abcd75c642c05d798325640c4b4a95951" target="_top" xlink:title="INMOST::unary_const\l_pool_expression::GetValue">
<polygon fill="none" stroke="black" points="157,-49.5 157,-79.5 296,-79.5 296,-49.5 157,-49.5"/>
<text text-anchor="start" x="165" y="-67.5" font-family="Helvetica,sans-Serif" font-size="10.00">INMOST::unary_const</text>
<text text-anchor="middle" x="226.5" y="-56.5" font-family="Helvetica,sans-Serif" font-size="10.00">_pool_expression::GetValue</text>
</a>
</g>
</g>
<!-- Node1&#45;&gt;Node2 -->
<g id="edge1" class="edge"><title>Node1&#45;&gt;Node2</title>
<path fill="none" stroke="midnightblue" d="M123.409,-49.3079C134.421,-50.9466 145.868,-52.65 156.945,-54.2983"/>
<polygon fill="midnightblue" stroke="midnightblue" points="123.848,-45.8347 113.442,-47.8246 122.817,-52.7585 123.848,-45.8347"/>
</g>
<!-- Node3 -->
<g id="node3" class="node"><title>Node3</title>
<g id="a_node3"><a xlink:href="class_i_n_m_o_s_t_1_1unary__const__pool__expression.html#a13134ceee4b7c9b7b18821fe6bd8318e" target="_top" xlink:title="INMOST::unary_const\l_pool_expression::GetDerivative">
<polygon fill="none" stroke="black" points="149,-0.5 149,-30.5 304,-30.5 304,-0.5 149,-0.5"/>
<text text-anchor="start" x="157" y="-18.5" font-family="Helvetica,sans-Serif" font-size="10.00">INMOST::unary_const</text>
<text text-anchor="middle" x="226.5" y="-7.5" font-family="Helvetica,sans-Serif" font-size="10.00">_pool_expression::GetDerivative</text>
</a>
</g>
</g>
<!-- Node1&#45;&gt;Node3 -->
<g id="edge2" class="edge"><title>Node1&#45;&gt;Node3</title>
<path fill="none" stroke="midnightblue" d="M123.462,-30.0768C131.798,-28.8861 140.382,-27.6598 148.865,-26.4479"/>
<polygon fill="midnightblue" stroke="midnightblue" points="122.846,-26.6292 113.442,-31.5083 123.836,-33.5589 122.846,-26.6292"/>
</g>
</g>
</svg>
