<?xml version="1.0" encoding="UTF-8" standalone="no"?>
<!DOCTYPE svg PUBLIC "-//W3C//DTD SVG 1.1//EN"
 "http://www.w3.org/Graphics/SVG/1.1/DTD/svg11.dtd">
<!-- Generated by graphviz version 2.38.0 (20140413.2041)
 -->
<!-- Title: INMOST::dynarray::reserve Pages: 1 -->
<svg width="339pt" height="186pt"
 viewBox="0.00 0.00 339.00 186.00" xmlns="http://www.w3.org/2000/svg" xmlns:xlink="http://www.w3.org/1999/xlink">
<g id="graph0" class="graph" transform="scale(1 1) rotate(0) translate(4 182)">
<title>INMOST::dynarray::reserve</title>
<!-- Node1 -->
<g id="node1" class="node"><title>Node1</title>
<polygon fill="#bfbfbf" stroke="black" points="0,-79 0,-98 134,-98 134,-79 0,-79"/>
<text text-anchor="middle" x="67" y="-86" font-family="Helvetica,sans-Serif" font-size="10.00">INMOST::dynarray::reserve</text>
</g>
<!-- Node2 -->
<g id="node2" class="node"><title>Node2</title>
<g id="a_node2"><a xlink:href="class_i_n_m_o_s_t_1_1dynarray.html#accbf4d646f6337f58160ceca6e6f084d" target="_top" xlink:title="INMOST::dynarray\&lt; stencil\l_kind_domain, 128 \&gt;::push_back">
<polygon fill="none" stroke="black" points="170,-147.5 170,-177.5 331,-177.5 331,-147.5 170,-147.5"/>
<text text-anchor="start" x="178" y="-165.5" font-family="Helvetica,sans-Serif" font-size="10.00">INMOST::dynarray&lt; stencil</text>
<text text-anchor="middle" x="250.5" y="-154.5" font-family="Helvetica,sans-Serif" font-size="10.00">_kind_domain, 128 &gt;::push_back</text>
</a>
</g>
</g>
<!-- Node1&#45;&gt;Node2 -->
<g id="edge1" class="edge"><title>Node1&#45;&gt;Node2</title>
<path fill="none" stroke="midnightblue" d="M94.2393,-102.834C114.532,-113.556 143.538,-128.1 170,-138.5 178.051,-141.664 186.695,-144.664 195.212,-147.402"/>
<polygon fill="midnightblue" stroke="midnightblue" points="95.768,-99.683 85.2983,-98.0595 92.4704,-105.858 95.768,-99.683"/>
</g>
<!-- Node3 -->
<g id="node3" class="node"><title>Node3</title>
<g id="a_node3"><a xlink:href="class_i_n_m_o_s_t_1_1dynarray.html#aef8d483671a044ba927c1a523ca4d7d0" target="_top" xlink:title="INMOST::dynarray\&lt; stencil\l_kind_domain, 128 \&gt;::resize">
<polygon fill="none" stroke="black" points="180.5,-98.5 180.5,-128.5 320.5,-128.5 320.5,-98.5 180.5,-98.5"/>
<text text-anchor="start" x="188.5" y="-116.5" font-family="Helvetica,sans-Serif" font-size="10.00">INMOST::dynarray&lt; stencil</text>
<text text-anchor="middle" x="250.5" y="-105.5" font-family="Helvetica,sans-Serif" font-size="10.00">_kind_domain, 128 &gt;::resize</text>
</a>
</g>
</g>
<!-- Node1&#45;&gt;Node3 -->
<g id="edge2" class="edge"><title>Node1&#45;&gt;Node3</title>
<path fill="none" stroke="midnightblue" d="M144.072,-98.9783C156.14,-100.64 168.563,-102.352 180.457,-103.99"/>
<polygon fill="midnightblue" stroke="midnightblue" points="144.423,-95.4936 134.039,-97.5963 143.468,-102.428 144.423,-95.4936"/>
</g>
<!-- Node4 -->
<g id="node4" class="node"><title>Node4</title>
<g id="a_node4"><a xlink:href="class_i_n_m_o_s_t_1_1dynarray.html#adaff52d9f33cf95c559cca1eb0ba7f79" target="_top" xlink:title="INMOST::dynarray\&lt; stencil\l_kind_domain, 128 \&gt;::insert">
<polygon fill="none" stroke="black" points="182,-49.5 182,-79.5 319,-79.5 319,-49.5 182,-49.5"/>
<text text-anchor="start" x="190" y="-67.5" font-family="Helvetica,sans-Serif" font-size="10.00">INMOST::dynarray&lt; stencil</text>
<text text-anchor="middle" x="250.5" y="-56.5" font-family="Helvetica,sans-Serif" font-size="10.00">_kind_domain, 128 &gt;::insert</text>
</a>
</g>
</g>
<!-- Node1&#45;&gt;Node4 -->
<g id="edge3" class="edge"><title>Node1&#45;&gt;Node4</title>
<path fill="none" stroke="midnightblue" d="M144.038,-78.4453C156.635,-76.7797 169.619,-75.0627 181.987,-73.4274"/>
<polygon fill="midnightblue" stroke="midnightblue" points="143.494,-74.9868 134.039,-79.7676 144.412,-81.9264 143.494,-74.9868"/>
</g>
<!-- Node5 -->
<g id="node5" class="node"><title>Node5</title>
<g id="a_node5"><a xlink:href="class_i_n_m_o_s_t_1_1_element_array.html#a309071bdde14a07135b70d394e4f8291" target="_top" xlink:title="INMOST::ElementArray\l::reserve">
<polygon fill="none" stroke="black" points="191,-0.5 191,-30.5 310,-30.5 310,-0.5 191,-0.5"/>
<text text-anchor="start" x="199" y="-18.5" font-family="Helvetica,sans-Serif" font-size="10.00">INMOST::ElementArray</text>
<text text-anchor="middle" x="250.5" y="-7.5" font-family="Helvetica,sans-Serif" font-size="10.00">::reserve</text>
</a>
</g>
</g>
<!-- Node1&#45;&gt;Node5 -->
<g id="edge4" class="edge"><title>Node1&#45;&gt;Node5</title>
<path fill="none" stroke="midnightblue" d="M95.4465,-74.3446C115.73,-64.19 144.189,-50.5781 170,-40.5 178.895,-37.0268 188.488,-33.6828 197.827,-30.6322"/>
<polygon fill="midnightblue" stroke="midnightblue" points="93.8146,-71.2476 86.4675,-78.8812 96.9714,-77.4955 93.8146,-71.2476"/>
</g>
</g>
</svg>
