<?xml version="1.0" encoding="UTF-8" standalone="no"?>
<!DOCTYPE svg PUBLIC "-//W3C//DTD SVG 1.1//EN"
 "http://www.w3.org/Graphics/SVG/1.1/DTD/svg11.dtd">
<!-- Generated by graphviz version 2.38.0 (20140413.2041)
 -->
<!-- Title: INMOST::enhanced_multivar_expression::enhanced_multivar_expression Pages: 1 -->
<svg width="500pt" height="78pt"
 viewBox="0.00 0.00 500.00 77.50" xmlns="http://www.w3.org/2000/svg" xmlns:xlink="http://www.w3.org/1999/xlink">
<g id="graph0" class="graph" transform="scale(1 1) rotate(0) translate(4 73.5)">
<title>INMOST::enhanced_multivar_expression::enhanced_multivar_expression</title>
<!-- Node1 -->
<g id="node1" class="node"><title>Node1</title>
<polygon fill="#bfbfbf" stroke="black" points="0,-17 0,-58 155,-58 155,-17 0,-17"/>
<text text-anchor="start" x="8" y="-46" font-family="Helvetica,sans-Serif" font-size="10.00">INMOST::enhanced_multivar</text>
<text text-anchor="start" x="8" y="-35" font-family="Helvetica,sans-Serif" font-size="10.00">_expression::enhanced_multivar</text>
<text text-anchor="middle" x="77.5" y="-24" font-family="Helvetica,sans-Serif" font-size="10.00">_expression</text>
</g>
<!-- Node2 -->
<g id="node2" class="node"><title>Node2</title>
<g id="a_node2"><a xlink:href="class_i_n_m_o_s_t_1_1_sparse_1_1_row.html#aefe7d07de8417241a0e222313e9fa9e0" target="_top" xlink:title="INMOST::Sparse::Row\l::Push">
<polygon fill="none" stroke="black" points="191,-22.5 191,-52.5 306,-52.5 306,-22.5 191,-22.5"/>
<text text-anchor="start" x="199" y="-40.5" font-family="Helvetica,sans-Serif" font-size="10.00">INMOST::Sparse::Row</text>
<text text-anchor="middle" x="248.5" y="-29.5" font-family="Helvetica,sans-Serif" font-size="10.00">::Push</text>
</a>
</g>
</g>
<!-- Node1&#45;&gt;Node2 -->
<g id="edge1" class="edge"><title>Node1&#45;&gt;Node2</title>
<path fill="none" stroke="midnightblue" d="M155.088,-37.5C163.657,-37.5 172.335,-37.5 180.765,-37.5"/>
<polygon fill="midnightblue" stroke="midnightblue" points="180.902,-41.0001 190.902,-37.5 180.902,-34.0001 180.902,-41.0001"/>
</g>
<!-- Node3 -->
<g id="node3" class="node"><title>Node3</title>
<g id="a_node3"><a xlink:href="class_i_n_m_o_s_t_1_1dynarray.html#accbf4d646f6337f58160ceca6e6f084d" target="_top" xlink:title="INMOST::dynarray::push_back">
<polygon fill="none" stroke="black" points="342,-50 342,-69 492,-69 492,-50 342,-50"/>
<text text-anchor="middle" x="417" y="-57" font-family="Helvetica,sans-Serif" font-size="10.00">INMOST::dynarray::push_back</text>
</a>
</g>
</g>
<!-- Node2&#45;&gt;Node3 -->
<g id="edge2" class="edge"><title>Node2&#45;&gt;Node3</title>
<path fill="none" stroke="midnightblue" d="M306.334,-45.0096C315.19,-46.1797 324.49,-47.4086 333.773,-48.6352"/>
<polygon fill="midnightblue" stroke="midnightblue" points="333.446,-52.1223 343.818,-49.9624 334.363,-45.1826 333.446,-52.1223"/>
</g>
<!-- Node4 -->
<g id="node4" class="node"><title>Node4</title>
<g id="a_node4"><a xlink:href="class_i_n_m_o_s_t_1_1_sparse_1_1_row.html#a1eee98cfe1a435352df39dd68a438ca7" target="_top" xlink:title="INMOST::Sparse::Row\l::make_entry">
<polygon fill="none" stroke="black" points="359.5,-0.5 359.5,-30.5 474.5,-30.5 474.5,-0.5 359.5,-0.5"/>
<text text-anchor="start" x="367.5" y="-18.5" font-family="Helvetica,sans-Serif" font-size="10.00">INMOST::Sparse::Row</text>
<text text-anchor="middle" x="417" y="-7.5" font-family="Helvetica,sans-Serif" font-size="10.00">::make_entry</text>
</a>
</g>
</g>
<!-- Node2&#45;&gt;Node4 -->
<g id="edge3" class="edge"><title>Node2&#45;&gt;Node4</title>
<path fill="none" stroke="midnightblue" d="M306.334,-29.9904C320.131,-28.1674 335.008,-26.2017 349.218,-24.3241"/>
<polygon fill="midnightblue" stroke="midnightblue" points="349.967,-27.7556 359.422,-22.9758 349.05,-20.816 349.967,-27.7556"/>
</g>
</g>
</svg>
