<?xml version="1.0" encoding="UTF-8" standalone="no"?>
<!DOCTYPE svg PUBLIC "-//W3C//DTD SVG 1.1//EN"
 "http://www.w3.org/Graphics/SVG/1.1/DTD/svg11.dtd">
<!-- Generated by graphviz version 2.38.0 (20140413.2041)
 -->
<!-- Title: INMOST::Element::operator= Pages: 1 -->
<svg width="316pt" height="192pt"
 viewBox="0.00 0.00 316.00 191.50" xmlns="http://www.w3.org/2000/svg" xmlns:xlink="http://www.w3.org/1999/xlink">
<g id="graph0" class="graph" transform="scale(1 1) rotate(0) translate(4 187.5)">
<title>INMOST::Element::operator=</title>
<!-- Node1 -->
<g id="node1" class="node"><title>Node1</title>
<polygon fill="#bfbfbf" stroke="black" points="0,-88 0,-107 143,-107 143,-88 0,-88"/>
<text text-anchor="middle" x="71.5" y="-95" font-family="Helvetica,sans-Serif" font-size="10.00">INMOST::Element::operator=</text>
</g>
<!-- Node2 -->
<g id="node2" class="node"><title>Node2</title>
<g id="a_node2"><a xlink:href="class_i_n_m_o_s_t_1_1_node.html#a66f15cc56dd523d7e445bf2daa4619c3" target="_top" xlink:title="INMOST::Node::operator=">
<polygon fill="none" stroke="black" points="179,-164 179,-183 308,-183 308,-164 179,-164"/>
<text text-anchor="middle" x="243.5" y="-171" font-family="Helvetica,sans-Serif" font-size="10.00">INMOST::Node::operator=</text>
</a>
</g>
</g>
<!-- Node1&#45;&gt;Node2 -->
<g id="edge1" class="edge"><title>Node1&#45;&gt;Node2</title>
<path fill="none" stroke="midnightblue" d="M96.5377,-112.168C117.692,-124.634 149.614,-142.384 179,-154.5 187.617,-158.053 197.138,-161.26 206.129,-163.984"/>
<polygon fill="midnightblue" stroke="midnightblue" points="98.2787,-109.131 87.8971,-107.017 94.6942,-115.144 98.2787,-109.131"/>
</g>
<!-- Node3 -->
<g id="node3" class="node"><title>Node3</title>
<g id="a_node3"><a xlink:href="class_i_n_m_o_s_t_1_1_edge.html#a94ce93c2543797423d9505bce0ba77a8" target="_top" xlink:title="INMOST::Edge::operator=">
<polygon fill="none" stroke="black" points="179,-126 179,-145 308,-145 308,-126 179,-126"/>
<text text-anchor="middle" x="243.5" y="-133" font-family="Helvetica,sans-Serif" font-size="10.00">INMOST::Edge::operator=</text>
</a>
</g>
</g>
<!-- Node1&#45;&gt;Node3 -->
<g id="edge2" class="edge"><title>Node1&#45;&gt;Node3</title>
<path fill="none" stroke="midnightblue" d="M125.398,-109.324C149.365,-114.682 177.324,-120.931 199.91,-125.98"/>
<polygon fill="midnightblue" stroke="midnightblue" points="125.921,-105.855 115.398,-107.089 124.394,-112.686 125.921,-105.855"/>
</g>
<!-- Node4 -->
<g id="node4" class="node"><title>Node4</title>
<g id="a_node4"><a xlink:href="class_i_n_m_o_s_t_1_1_face.html#a6a6f3c1fbe976e4190b65ef840761963" target="_top" xlink:title="INMOST::Face::operator=">
<polygon fill="none" stroke="black" points="179.5,-88 179.5,-107 307.5,-107 307.5,-88 179.5,-88"/>
<text text-anchor="middle" x="243.5" y="-95" font-family="Helvetica,sans-Serif" font-size="10.00">INMOST::Face::operator=</text>
</a>
</g>
</g>
<!-- Node1&#45;&gt;Node4 -->
<g id="edge3" class="edge"><title>Node1&#45;&gt;Node4</title>
<path fill="none" stroke="midnightblue" d="M153.35,-97.5C162.109,-97.5 170.926,-97.5 179.429,-97.5"/>
<polygon fill="midnightblue" stroke="midnightblue" points="153.118,-94.0001 143.118,-97.5 153.118,-101 153.118,-94.0001"/>
</g>
<!-- Node5 -->
<g id="node5" class="node"><title>Node5</title>
<g id="a_node5"><a xlink:href="class_i_n_m_o_s_t_1_1_cell.html#a42506f458c54cc177a56444d88b01770" target="_top" xlink:title="Assignment operator. ">
<polygon fill="none" stroke="black" points="182,-50 182,-69 305,-69 305,-50 182,-50"/>
<text text-anchor="middle" x="243.5" y="-57" font-family="Helvetica,sans-Serif" font-size="10.00">INMOST::Cell::operator=</text>
</a>
</g>
</g>
<!-- Node1&#45;&gt;Node5 -->
<g id="edge4" class="edge"><title>Node1&#45;&gt;Node5</title>
<path fill="none" stroke="midnightblue" d="M125.398,-85.6757C149.365,-80.3184 177.324,-74.0689 199.91,-69.0201"/>
<polygon fill="midnightblue" stroke="midnightblue" points="124.394,-82.3138 115.398,-87.911 125.921,-89.1452 124.394,-82.3138"/>
</g>
<!-- Node6 -->
<g id="node6" class="node"><title>Node6</title>
<g id="a_node6"><a xlink:href="class_i_n_m_o_s_t_1_1_element_set.html#af5b35094511b79311211b22afd395662" target="_top" xlink:title="INMOST::ElementSet\l::operator=">
<polygon fill="none" stroke="black" points="188.5,-0.5 188.5,-30.5 298.5,-30.5 298.5,-0.5 188.5,-0.5"/>
<text text-anchor="start" x="196.5" y="-18.5" font-family="Helvetica,sans-Serif" font-size="10.00">INMOST::ElementSet</text>
<text text-anchor="middle" x="243.5" y="-7.5" font-family="Helvetica,sans-Serif" font-size="10.00">::operator=</text>
</a>
</g>
</g>
<!-- Node1&#45;&gt;Node6 -->
<g id="edge5" class="edge"><title>Node1&#45;&gt;Node6</title>
<path fill="none" stroke="midnightblue" d="M97.9181,-82.8154C119.233,-70.7653 150.648,-53.6142 179,-40.5 186.42,-37.068 194.453,-33.6699 202.23,-30.5367"/>
<polygon fill="midnightblue" stroke="midnightblue" points="96.1206,-79.8112 89.1618,-87.8003 99.5838,-85.8945 96.1206,-79.8112"/>
</g>
</g>
</svg>
