<?xml version="1.0" encoding="UTF-8" standalone="no"?>
<!DOCTYPE svg PUBLIC "-//W3C//DTD SVG 1.1//EN"
 "http://www.w3.org/Graphics/SVG/1.1/DTD/svg11.dtd">
<!-- Generated by graphviz version 2.38.0 (20140413.2041)
 -->
<!-- Title: INMOST::Matrix::Invert Pages: 1 -->
<svg width="443pt" height="142pt"
 viewBox="0.00 0.00 443.00 142.00" xmlns="http://www.w3.org/2000/svg" xmlns:xlink="http://www.w3.org/1999/xlink">
<g id="graph0" class="graph" transform="scale(1 1) rotate(0) translate(4 138)">
<title>INMOST::Matrix::Invert</title>
<!-- Node1 -->
<g id="node1" class="node"><title>Node1</title>
<polygon fill="#bfbfbf" stroke="black" points="0,-57.5 0,-76.5 115,-76.5 115,-57.5 0,-57.5"/>
<text text-anchor="middle" x="57.5" y="-64.5" font-family="Helvetica,sans-Serif" font-size="10.00">INMOST::Matrix::Invert</text>
</g>
<!-- Node2 -->
<g id="node2" class="node"><title>Node2</title>
<g id="a_node2"><a xlink:href="class_i_n_m_o_s_t_1_1_matrix.html#a4f07143c40649637fa99f186bf0cbcc8" target="_top" xlink:title="INMOST::Matrix::Matrix">
<polygon fill="none" stroke="black" points="160,-114.5 160,-133.5 279,-133.5 279,-114.5 160,-114.5"/>
<text text-anchor="middle" x="219.5" y="-121.5" font-family="Helvetica,sans-Serif" font-size="10.00">INMOST::Matrix::Matrix</text>
</a>
</g>
</g>
<!-- Node1&#45;&gt;Node2 -->
<g id="edge1" class="edge"><title>Node1&#45;&gt;Node2</title>
<path fill="none" stroke="midnightblue" d="M79.9106,-76.6206C98.4878,-84.7682 126.217,-96.4533 151,-105 157.573,-107.267 164.572,-109.468 171.481,-111.519"/>
<polygon fill="midnightblue" stroke="midnightblue" points="170.899,-114.994 181.477,-114.409 172.843,-108.27 170.899,-114.994"/>
</g>
<!-- Node3 -->
<g id="node3" class="node"><title>Node3</title>
<g id="a_node3"><a xlink:href="class_i_n_m_o_s_t_1_1_matrix.html#acce10c229905d942edf020e7b89ebed1" target="_top" xlink:title="INMOST::Matrix::Transpose">
<polygon fill="none" stroke="black" points="151,-76.5 151,-95.5 288,-95.5 288,-76.5 151,-76.5"/>
<text text-anchor="middle" x="219.5" y="-83.5" font-family="Helvetica,sans-Serif" font-size="10.00">INMOST::Matrix::Transpose</text>
</a>
</g>
</g>
<!-- Node1&#45;&gt;Node3 -->
<g id="edge2" class="edge"><title>Node1&#45;&gt;Node3</title>
<path fill="none" stroke="midnightblue" d="M115.361,-73.7522C123.624,-74.7335 132.248,-75.7576 140.836,-76.7774"/>
<polygon fill="midnightblue" stroke="midnightblue" points="140.535,-80.2661 150.878,-77.9698 141.36,-73.3149 140.535,-80.2661"/>
</g>
<!-- Node4 -->
<g id="node4" class="node"><title>Node4</title>
<g id="a_node4"><a xlink:href="class_i_n_m_o_s_t_1_1_matrix.html#abca452418b15fa0b7c74f3299c59e9e1" target="_top" xlink:title="INMOST::Matrix::Unit">
<polygon fill="none" stroke="black" points="164.5,-38.5 164.5,-57.5 274.5,-57.5 274.5,-38.5 164.5,-38.5"/>
<text text-anchor="middle" x="219.5" y="-45.5" font-family="Helvetica,sans-Serif" font-size="10.00">INMOST::Matrix::Unit</text>
</a>
</g>
</g>
<!-- Node1&#45;&gt;Node4 -->
<g id="edge3" class="edge"><title>Node1&#45;&gt;Node4</title>
<path fill="none" stroke="midnightblue" d="M115.361,-60.2478C127.905,-58.7581 141.281,-57.1698 154.1,-55.6475"/>
<polygon fill="midnightblue" stroke="midnightblue" points="154.718,-59.0988 164.235,-54.4439 153.892,-52.1476 154.718,-59.0988"/>
</g>
<!-- Node6 -->
<g id="node6" class="node"><title>Node6</title>
<g id="a_node6"><a xlink:href="inmost__variable_8h.html#aaa87a9d57f31044c99fd1b9eb371356f" target="_top" xlink:title="fabs">
<polygon fill="none" stroke="black" points="202,-0.5 202,-19.5 237,-19.5 237,-0.5 202,-0.5"/>
<text text-anchor="middle" x="219.5" y="-7.5" font-family="Helvetica,sans-Serif" font-size="10.00">fabs</text>
</a>
</g>
</g>
<!-- Node1&#45;&gt;Node6 -->
<g id="edge5" class="edge"><title>Node1&#45;&gt;Node6</title>
<path fill="none" stroke="midnightblue" d="M79.9106,-57.3794C98.4878,-49.2318 126.217,-37.5467 151,-29 164.397,-24.3799 179.567,-20.0329 192.128,-16.6659"/>
<polygon fill="midnightblue" stroke="midnightblue" points="193.184,-20.0072 201.969,-14.0837 191.408,-13.2365 193.184,-20.0072"/>
</g>
<!-- Node5 -->
<g id="node5" class="node"><title>Node5</title>
<g id="a_node5"><a xlink:href="class_i_n_m_o_s_t_1_1_matrix.html#a1bfdbdc75434fa1fd4d02057e10d704a" target="_top" xlink:title="INMOST::Matrix::Zero">
<polygon fill="none" stroke="black" points="324,-38.5 324,-57.5 435,-57.5 435,-38.5 324,-38.5"/>
<text text-anchor="middle" x="379.5" y="-45.5" font-family="Helvetica,sans-Serif" font-size="10.00">INMOST::Matrix::Zero</text>
</a>
</g>
</g>
<!-- Node4&#45;&gt;Node5 -->
<g id="edge4" class="edge"><title>Node4&#45;&gt;Node5</title>
<path fill="none" stroke="midnightblue" d="M274.875,-48C287.342,-48 300.718,-48 313.58,-48"/>
<polygon fill="midnightblue" stroke="midnightblue" points="313.757,-51.5001 323.757,-48 313.757,-44.5001 313.757,-51.5001"/>
</g>
</g>
</svg>
