<?xml version="1.0" encoding="UTF-8" standalone="no"?>
<!DOCTYPE svg PUBLIC "-//W3C//DTD SVG 1.1//EN"
 "http://www.w3.org/Graphics/SVG/1.1/DTD/svg11.dtd">
<!-- Generated by graphviz version 2.38.0 (20140413.2041)
 -->
<!-- Title: INMOST::ElementSet::RemoveElements Pages: 1 -->
<svg width="431pt" height="88pt"
 viewBox="0.00 0.00 431.00 88.00" xmlns="http://www.w3.org/2000/svg" xmlns:xlink="http://www.w3.org/1999/xlink">
<g id="graph0" class="graph" transform="scale(1 1) rotate(0) translate(4 84)">
<title>INMOST::ElementSet::RemoveElements</title>
<!-- Node1 -->
<g id="node1" class="node"><title>Node1</title>
<polygon fill="#bfbfbf" stroke="black" points="0,-24.5 0,-54.5 110,-54.5 110,-24.5 0,-24.5"/>
<text text-anchor="start" x="8" y="-42.5" font-family="Helvetica,sans-Serif" font-size="10.00">INMOST::ElementSet</text>
<text text-anchor="middle" x="55" y="-31.5" font-family="Helvetica,sans-Serif" font-size="10.00">::RemoveElements</text>
</g>
<!-- Node1&#45;&gt;Node1 -->
<g id="edge1" class="edge"><title>Node1&#45;&gt;Node1</title>
<path fill="none" stroke="midnightblue" d="M28.8594,-54.659C22.556,-64.0566 31.2695,-73 55,-73 69.4608,-73 78.3452,-69.679 81.6532,-64.9579"/>
<polygon fill="midnightblue" stroke="midnightblue" points="85.1335,-64.4726 81.1406,-54.659 78.1421,-64.8207 85.1335,-64.4726"/>
</g>
<!-- Node2 -->
<g id="node2" class="node"><title>Node2</title>
<g id="a_node2"><a xlink:href="class_i_n_m_o_s_t_1_1_element_array.html#afd94fb30e65569ec6ccce11b9c881c1e" target="_top" xlink:title="INMOST::ElementArray\l::data">
<polygon fill="none" stroke="black" points="146,-49.5 146,-79.5 265,-79.5 265,-49.5 146,-49.5"/>
<text text-anchor="start" x="154" y="-67.5" font-family="Helvetica,sans-Serif" font-size="10.00">INMOST::ElementArray</text>
<text text-anchor="middle" x="205.5" y="-56.5" font-family="Helvetica,sans-Serif" font-size="10.00">::data</text>
</a>
</g>
</g>
<!-- Node1&#45;&gt;Node2 -->
<g id="edge2" class="edge"><title>Node1&#45;&gt;Node2</title>
<path fill="none" stroke="midnightblue" d="M110.032,-48.5963C118.436,-50.0112 127.215,-51.489 135.89,-52.9495"/>
<polygon fill="midnightblue" stroke="midnightblue" points="135.556,-56.4424 145.998,-54.6512 136.718,-49.5395 135.556,-56.4424"/>
</g>
<!-- Node4 -->
<g id="node4" class="node"><title>Node4</title>
<g id="a_node4"><a xlink:href="class_i_n_m_o_s_t_1_1_element_array.html#a6b8d74b3b5dcd00aedb27579d274e078" target="_top" xlink:title="INMOST::ElementArray\l::size">
<polygon fill="none" stroke="black" points="146,-0.5 146,-30.5 265,-30.5 265,-0.5 146,-0.5"/>
<text text-anchor="start" x="154" y="-18.5" font-family="Helvetica,sans-Serif" font-size="10.00">INMOST::ElementArray</text>
<text text-anchor="middle" x="205.5" y="-7.5" font-family="Helvetica,sans-Serif" font-size="10.00">::size</text>
</a>
</g>
</g>
<!-- Node1&#45;&gt;Node4 -->
<g id="edge4" class="edge"><title>Node1&#45;&gt;Node4</title>
<path fill="none" stroke="midnightblue" d="M110.032,-30.7676C118.436,-29.4093 127.215,-27.9905 135.89,-26.5885"/>
<polygon fill="midnightblue" stroke="midnightblue" points="136.684,-30.0056 145.998,-24.9549 135.568,-23.0953 136.684,-30.0056"/>
</g>
<!-- Node3 -->
<g id="node3" class="node"><title>Node3</title>
<g id="a_node3"><a xlink:href="class_i_n_m_o_s_t_1_1dynarray.html#a161fcf0715c0f07ea1d4a1cb2e2ca74d" target="_top" xlink:title="INMOST::dynarray::data">
<polygon fill="none" stroke="black" points="301,-55 301,-74 423,-74 423,-55 301,-55"/>
<text text-anchor="middle" x="362" y="-62" font-family="Helvetica,sans-Serif" font-size="10.00">INMOST::dynarray::data</text>
</a>
</g>
</g>
<!-- Node2&#45;&gt;Node3 -->
<g id="edge3" class="edge"><title>Node2&#45;&gt;Node3</title>
<path fill="none" stroke="midnightblue" d="M265.351,-64.5C273.596,-64.5 282.138,-64.5 290.571,-64.5"/>
<polygon fill="midnightblue" stroke="midnightblue" points="290.775,-68.0001 300.775,-64.5 290.775,-61.0001 290.775,-68.0001"/>
</g>
<!-- Node5 -->
<g id="node5" class="node"><title>Node5</title>
<g id="a_node5"><a xlink:href="class_i_n_m_o_s_t_1_1dynarray.html#aeddec63b957a8a61e89f14d28fa1a2eb" target="_top" xlink:title="INMOST::dynarray::size">
<polygon fill="none" stroke="black" points="301.5,-6 301.5,-25 422.5,-25 422.5,-6 301.5,-6"/>
<text text-anchor="middle" x="362" y="-13" font-family="Helvetica,sans-Serif" font-size="10.00">INMOST::dynarray::size</text>
</a>
</g>
</g>
<!-- Node4&#45;&gt;Node5 -->
<g id="edge5" class="edge"><title>Node4&#45;&gt;Node5</title>
<path fill="none" stroke="midnightblue" d="M265.351,-15.5C273.809,-15.5 282.58,-15.5 291.225,-15.5"/>
<polygon fill="midnightblue" stroke="midnightblue" points="291.289,-19.0001 301.289,-15.5 291.289,-12.0001 291.289,-19.0001"/>
</g>
</g>
</svg>
