<?xml version="1.0" encoding="UTF-8" standalone="no"?>
<!DOCTYPE svg PUBLIC "-//W3C//DTD SVG 1.1//EN"
 "http://www.w3.org/Graphics/SVG/1.1/DTD/svg11.dtd">
<!-- Generated by graphviz version 2.38.0 (20140413.2041)
 -->
<!-- Title: INMOST::Sparse::Row::Push Pages: 1 -->
<svg width="309pt" height="78pt"
 viewBox="0.00 0.00 309.00 77.50" xmlns="http://www.w3.org/2000/svg" xmlns:xlink="http://www.w3.org/1999/xlink">
<g id="graph0" class="graph" transform="scale(1 1) rotate(0) translate(4 73.5)">
<title>INMOST::Sparse::Row::Push</title>
<!-- Node1 -->
<g id="node1" class="node"><title>Node1</title>
<polygon fill="#bfbfbf" stroke="black" points="0,-22.5 0,-52.5 115,-52.5 115,-22.5 0,-22.5"/>
<text text-anchor="start" x="8" y="-40.5" font-family="Helvetica,sans-Serif" font-size="10.00">INMOST::Sparse::Row</text>
<text text-anchor="middle" x="57.5" y="-29.5" font-family="Helvetica,sans-Serif" font-size="10.00">::Push</text>
</g>
<!-- Node2 -->
<g id="node2" class="node"><title>Node2</title>
<g id="a_node2"><a xlink:href="class_i_n_m_o_s_t_1_1dynarray.html#accbf4d646f6337f58160ceca6e6f084d" target="_top" xlink:title="INMOST::dynarray::push_back">
<polygon fill="none" stroke="black" points="151,-50 151,-69 301,-69 301,-50 151,-50"/>
<text text-anchor="middle" x="226" y="-57" font-family="Helvetica,sans-Serif" font-size="10.00">INMOST::dynarray::push_back</text>
</a>
</g>
</g>
<!-- Node1&#45;&gt;Node2 -->
<g id="edge1" class="edge"><title>Node1&#45;&gt;Node2</title>
<path fill="none" stroke="midnightblue" d="M115.334,-45.0096C124.19,-46.1797 133.49,-47.4086 142.773,-48.6352"/>
<polygon fill="midnightblue" stroke="midnightblue" points="142.446,-52.1223 152.818,-49.9624 143.363,-45.1826 142.446,-52.1223"/>
</g>
<!-- Node3 -->
<g id="node3" class="node"><title>Node3</title>
<g id="a_node3"><a xlink:href="class_i_n_m_o_s_t_1_1_sparse_1_1_row.html#a1eee98cfe1a435352df39dd68a438ca7" target="_top" xlink:title="INMOST::Sparse::Row\l::make_entry">
<polygon fill="none" stroke="black" points="168.5,-0.5 168.5,-30.5 283.5,-30.5 283.5,-0.5 168.5,-0.5"/>
<text text-anchor="start" x="176.5" y="-18.5" font-family="Helvetica,sans-Serif" font-size="10.00">INMOST::Sparse::Row</text>
<text text-anchor="middle" x="226" y="-7.5" font-family="Helvetica,sans-Serif" font-size="10.00">::make_entry</text>
</a>
</g>
</g>
<!-- Node1&#45;&gt;Node3 -->
<g id="edge2" class="edge"><title>Node1&#45;&gt;Node3</title>
<path fill="none" stroke="midnightblue" d="M115.334,-29.9904C129.131,-28.1674 144.008,-26.2017 158.218,-24.3241"/>
<polygon fill="midnightblue" stroke="midnightblue" points="158.967,-27.7556 168.422,-22.9758 158.05,-20.816 158.967,-27.7556"/>
</g>
</g>
</svg>
