<?xml version="1.0" encoding="UTF-8" standalone="no"?>
<!DOCTYPE svg PUBLIC "-//W3C//DTD SVG 1.1//EN"
 "http://www.w3.org/Graphics/SVG/1.1/DTD/svg11.dtd">
<!-- Generated by graphviz version 2.38.0 (20140413.2041)
 -->
<!-- Title: INMOST::dynarray::end Pages: 1 -->
<svg width="666pt" height="576pt"
 viewBox="0.00 0.00 666.00 576.00" xmlns="http://www.w3.org/2000/svg" xmlns:xlink="http://www.w3.org/1999/xlink">
<g id="graph0" class="graph" transform="scale(1 1) rotate(0) translate(4 572)">
<title>INMOST::dynarray::end</title>
<!-- Node1 -->
<g id="node1" class="node"><title>Node1</title>
<polygon fill="#bfbfbf" stroke="black" points="0,-401 0,-420 119,-420 119,-401 0,-401"/>
<text text-anchor="middle" x="59.5" y="-408" font-family="Helvetica,sans-Serif" font-size="10.00">INMOST::dynarray::end</text>
</g>
<!-- Node2 -->
<g id="node2" class="node"><title>Node2</title>
<g id="a_node2"><a xlink:href="class_i_n_m_o_s_t_1_1dynarray.html#a9064200f7747a6dec86833fef0ddd0a3" target="_top" xlink:title="INMOST::dynarray\&lt; stencil\l_kind_domain, 128 \&gt;::erase">
<polygon fill="none" stroke="black" points="159.5,-537.5 159.5,-567.5 296.5,-567.5 296.5,-537.5 159.5,-537.5"/>
<text text-anchor="start" x="167.5" y="-555.5" font-family="Helvetica,sans-Serif" font-size="10.00">INMOST::dynarray&lt; stencil</text>
<text text-anchor="middle" x="228" y="-544.5" font-family="Helvetica,sans-Serif" font-size="10.00">_kind_domain, 128 &gt;::erase</text>
</a>
</g>
</g>
<!-- Node1&#45;&gt;Node2 -->
<g id="edge1" class="edge"><title>Node1&#45;&gt;Node2</title>
<path fill="none" stroke="midnightblue" d="M71.9234,-428.856C87.8735,-453.178 118.948,-496.083 155,-522.5 162.974,-528.343 172.255,-533.293 181.449,-537.384"/>
<polygon fill="midnightblue" stroke="midnightblue" points="74.7391,-426.763 66.3948,-420.234 68.8466,-430.542 74.7391,-426.763"/>
</g>
<!-- Node3 -->
<g id="node3" class="node"><title>Node3</title>
<g id="a_node3"><a xlink:href="class_i_n_m_o_s_t_1_1tiny__map.html#a61d0445dcb41f190095a3d247120eb9a" target="_top" xlink:title="INMOST::tiny_map::find">
<polygon fill="none" stroke="black" points="349.5,-496 349.5,-515 469.5,-515 469.5,-496 349.5,-496"/>
<text text-anchor="middle" x="409.5" y="-503" font-family="Helvetica,sans-Serif" font-size="10.00">INMOST::tiny_map::find</text>
</a>
</g>
</g>
<!-- Node1&#45;&gt;Node3 -->
<g id="edge2" class="edge"><title>Node1&#45;&gt;Node3</title>
<path fill="none" stroke="midnightblue" d="M74.9863,-427.919C91.9471,-446.899 121.955,-476.314 155,-489.5 217.87,-514.587 296.486,-515.341 349.362,-511.924"/>
<polygon fill="midnightblue" stroke="midnightblue" points="77.5431,-425.525 68.3463,-420.265 72.2555,-430.112 77.5431,-425.525"/>
</g>
<!-- Node4 -->
<g id="node4" class="node"><title>Node4</title>
<g id="a_node4"><a xlink:href="class_i_n_m_o_s_t_1_1tiny__map.html#a9e28be9ec160309d4767d9274283b686" target="_top" xlink:title="INMOST::tiny_map::end">
<polygon fill="none" stroke="black" points="167.5,-461 167.5,-480 288.5,-480 288.5,-461 167.5,-461"/>
<text text-anchor="middle" x="228" y="-468" font-family="Helvetica,sans-Serif" font-size="10.00">INMOST::tiny_map::end</text>
</a>
</g>
</g>
<!-- Node1&#45;&gt;Node4 -->
<g id="edge3" class="edge"><title>Node1&#45;&gt;Node4</title>
<path fill="none" stroke="midnightblue" d="M89.1294,-424.27C107.64,-432.835 132.409,-443.669 155,-451.5 165.016,-454.972 176.003,-458.169 186.311,-460.911"/>
<polygon fill="midnightblue" stroke="midnightblue" points="90.6054,-421.097 80.0648,-420.027 87.6373,-427.437 90.6054,-421.097"/>
</g>
<!-- Node5 -->
<g id="node5" class="node"><title>Node5</title>
<g id="a_node5"><a xlink:href="class_i_n_m_o_s_t_1_1tiny__map.html#a37e9010b0f4a05d6f24016fa4eed4cad" target="_top" xlink:title="INMOST::tiny_map::operator[]">
<polygon fill="none" stroke="black" points="155,-423 155,-442 301,-442 301,-423 155,-423"/>
<text text-anchor="middle" x="228" y="-430" font-family="Helvetica,sans-Serif" font-size="10.00">INMOST::tiny_map::operator[]</text>
</a>
</g>
</g>
<!-- Node1&#45;&gt;Node5 -->
<g id="edge5" class="edge"><title>Node1&#45;&gt;Node5</title>
<path fill="none" stroke="midnightblue" d="M129.337,-419.596C137.748,-420.707 146.361,-421.845 154.819,-422.963"/>
<polygon fill="midnightblue" stroke="midnightblue" points="129.574,-416.097 119.202,-418.256 128.657,-423.036 129.574,-416.097"/>
</g>
<!-- Node6 -->
<g id="node6" class="node"><title>Node6</title>
<g id="a_node6"><a xlink:href="class_i_n_m_o_s_t_1_1stencil__expression.html#a465a06b000c610815d2162f685db71e4" target="_top" xlink:title="INMOST::stencil_expression\l::stencil_expression">
<polygon fill="none" stroke="black" points="158,-373.5 158,-403.5 298,-403.5 298,-373.5 158,-373.5"/>
<text text-anchor="start" x="166" y="-391.5" font-family="Helvetica,sans-Serif" font-size="10.00">INMOST::stencil_expression</text>
<text text-anchor="middle" x="228" y="-380.5" font-family="Helvetica,sans-Serif" font-size="10.00">::stencil_expression</text>
</a>
</g>
</g>
<!-- Node1&#45;&gt;Node6 -->
<g id="edge6" class="edge"><title>Node1&#45;&gt;Node6</title>
<path fill="none" stroke="midnightblue" d="M129.271,-401.413C138.665,-400.172 148.312,-398.897 157.714,-397.655"/>
<polygon fill="midnightblue" stroke="midnightblue" points="128.657,-397.964 119.202,-402.744 129.574,-404.903 128.657,-397.964"/>
</g>
<!-- Node7 -->
<g id="node7" class="node"><title>Node7</title>
<g id="a_node7"><a xlink:href="class_i_n_m_o_s_t_1_1stencil__expression.html#a76f6b1d09456d130ce31193b38d3952c" target="_top" xlink:title="INMOST::stencil_expression\l::GetDerivative">
<polygon fill="none" stroke="black" points="158,-324.5 158,-354.5 298,-354.5 298,-324.5 158,-324.5"/>
<text text-anchor="start" x="166" y="-342.5" font-family="Helvetica,sans-Serif" font-size="10.00">INMOST::stencil_expression</text>
<text text-anchor="middle" x="228" y="-331.5" font-family="Helvetica,sans-Serif" font-size="10.00">::GetDerivative</text>
</a>
</g>
</g>
<!-- Node1&#45;&gt;Node7 -->
<g id="edge7" class="edge"><title>Node1&#45;&gt;Node7</title>
<path fill="none" stroke="midnightblue" d="M87.7678,-396.158C106.435,-386.606 131.896,-374.094 155,-364.5 163.31,-361.049 172.285,-357.668 180.986,-354.562"/>
<polygon fill="midnightblue" stroke="midnightblue" points="85.9543,-393.155 78.6738,-400.852 89.1652,-399.375 85.9543,-393.155"/>
</g>
<!-- Node8 -->
<g id="node8" class="node"><title>Node8</title>
<g id="a_node8"><a xlink:href="class_i_n_m_o_s_t_1_1_element_array.html#a0944bdd27c959a51d37e20987f208e84" target="_top" xlink:title="INMOST::ElementArray::end">
<polygon fill="none" stroke="black" points="158,-286 158,-305 298,-305 298,-286 158,-286"/>
<text text-anchor="middle" x="228" y="-293" font-family="Helvetica,sans-Serif" font-size="10.00">INMOST::ElementArray::end</text>
</a>
</g>
</g>
<!-- Node1&#45;&gt;Node8 -->
<g id="edge8" class="edge"><title>Node1&#45;&gt;Node8</title>
<path fill="none" stroke="midnightblue" d="M73.5901,-392.539C90.1709,-371.074 120.742,-335.549 155,-315.5 162.39,-311.175 170.755,-307.751 179.101,-305.051"/>
<polygon fill="midnightblue" stroke="midnightblue" points="70.5942,-390.699 67.3707,-400.792 76.1844,-394.912 70.5942,-390.699"/>
</g>
<!-- Node9 -->
<g id="node9" class="node"><title>Node9</title>
<g id="a_node9"><a xlink:href="class_i_n_m_o_s_t_1_1_sparse_1_1_row.html#a8f933f39bae05075356ab209eafcc47a" target="_top" xlink:title="INMOST::Sparse::Row::End">
<polygon fill="none" stroke="black" points="159,-248 159,-267 297,-267 297,-248 159,-248"/>
<text text-anchor="middle" x="228" y="-255" font-family="Helvetica,sans-Serif" font-size="10.00">INMOST::Sparse::Row::End</text>
</a>
</g>
</g>
<!-- Node1&#45;&gt;Node9 -->
<g id="edge9" class="edge"><title>Node1&#45;&gt;Node9</title>
<path fill="none" stroke="midnightblue" d="M68.6303,-391.503C82.1592,-362.214 112.11,-306.304 155,-276.5 160.627,-272.59 167.01,-269.485 173.595,-267.018"/>
<polygon fill="midnightblue" stroke="midnightblue" points="65.275,-390.433 64.3954,-400.991 71.6672,-393.286 65.275,-390.433"/>
</g>
<!-- Node4&#45;&gt;Node3 -->
<g id="edge4" class="edge"><title>Node4&#45;&gt;Node3</title>
<path fill="none" stroke="midnightblue" d="M288.094,-482.022C311.23,-486.534 337.455,-491.647 359.51,-495.948"/>
<polygon fill="midnightblue" stroke="midnightblue" points="288.534,-478.542 278.049,-480.064 287.194,-485.413 288.534,-478.542"/>
</g>
<!-- Node10 -->
<g id="node10" class="node"><title>Node10</title>
<g id="a_node10"><a xlink:href="class_i_n_m_o_s_t_1_1multivar__expression.html#ae04c6994f03f6e11c92987e07388caa7" target="_top" xlink:title="INMOST::multivar_expression\l::GetDerivative">
<polygon fill="none" stroke="black" points="337,-441.5 337,-471.5 482,-471.5 482,-441.5 337,-441.5"/>
<text text-anchor="start" x="345" y="-459.5" font-family="Helvetica,sans-Serif" font-size="10.00">INMOST::multivar_expression</text>
<text text-anchor="middle" x="409.5" y="-448.5" font-family="Helvetica,sans-Serif" font-size="10.00">::GetDerivative</text>
</a>
</g>
</g>
<!-- Node9&#45;&gt;Node10 -->
<g id="edge10" class="edge"><title>Node9&#45;&gt;Node10</title>
<path fill="none" stroke="midnightblue" d="M296.972,-272.829C298.385,-273.97 299.732,-275.192 301,-276.5 350.523,-327.594 289.185,-379.804 337,-432.5 340.08,-435.894 343.654,-438.808 347.529,-441.311"/>
<polygon fill="midnightblue" stroke="midnightblue" points="298.534,-269.669 288.245,-267.14 294.711,-275.533 298.534,-269.669"/>
</g>
<!-- Node11 -->
<g id="node11" class="node"><title>Node11</title>
<g id="a_node11"><a xlink:href="class_i_n_m_o_s_t_1_1multivar__expression.html#aa8201a6a63329890bde0e8ddc37dc780" target="_top" xlink:title="INMOST::multivar_expression\l::operator*=">
<polygon fill="none" stroke="black" points="337,-392.5 337,-422.5 482,-422.5 482,-392.5 337,-392.5"/>
<text text-anchor="start" x="345" y="-410.5" font-family="Helvetica,sans-Serif" font-size="10.00">INMOST::multivar_expression</text>
<text text-anchor="middle" x="409.5" y="-399.5" font-family="Helvetica,sans-Serif" font-size="10.00">::operator*=</text>
</a>
</g>
</g>
<!-- Node9&#45;&gt;Node11 -->
<g id="edge11" class="edge"><title>Node9&#45;&gt;Node11</title>
<path fill="none" stroke="midnightblue" d="M295.616,-272.137C297.51,-273.47 299.313,-274.921 301,-276.5 337.64,-310.779 301.508,-348.033 337,-383.5 340.427,-386.925 344.357,-389.86 348.573,-392.378"/>
<polygon fill="midnightblue" stroke="midnightblue" points="297.209,-269.015 286.804,-267.014 293.69,-275.066 297.209,-269.015"/>
</g>
<!-- Node12 -->
<g id="node12" class="node"><title>Node12</title>
<g id="a_node12"><a xlink:href="class_i_n_m_o_s_t_1_1multivar__expression.html#ad1e7513f547145312c4da1ae5aff2c62" target="_top" xlink:title="INMOST::multivar_expression\l::operator/=">
<polygon fill="none" stroke="black" points="337,-343.5 337,-373.5 482,-373.5 482,-343.5 337,-343.5"/>
<text text-anchor="start" x="345" y="-361.5" font-family="Helvetica,sans-Serif" font-size="10.00">INMOST::multivar_expression</text>
<text text-anchor="middle" x="409.5" y="-350.5" font-family="Helvetica,sans-Serif" font-size="10.00">::operator/=</text>
</a>
</g>
</g>
<!-- Node9&#45;&gt;Node12 -->
<g id="edge12" class="edge"><title>Node9&#45;&gt;Node12</title>
<path fill="none" stroke="midnightblue" d="M292.997,-271.444C295.797,-272.959 298.482,-274.639 301,-276.5 325.396,-294.537 313.211,-315.67 337,-334.5 341.312,-337.913 346.134,-340.852 351.182,-343.381"/>
<polygon fill="midnightblue" stroke="midnightblue" points="294.28,-268.181 283.736,-267.144 291.332,-274.53 294.28,-268.181"/>
</g>
<!-- Node13 -->
<g id="node13" class="node"><title>Node13</title>
<g id="a_node13"><a xlink:href="class_i_n_m_o_s_t_1_1multivar__expression.html#a1c15ad7bf3f378471f911fc1e60f8a3b" target="_top" xlink:title="INMOST::multivar_expression\l::check_nans">
<polygon fill="none" stroke="black" points="337,-294.5 337,-324.5 482,-324.5 482,-294.5 337,-294.5"/>
<text text-anchor="start" x="345" y="-312.5" font-family="Helvetica,sans-Serif" font-size="10.00">INMOST::multivar_expression</text>
<text text-anchor="middle" x="409.5" y="-301.5" font-family="Helvetica,sans-Serif" font-size="10.00">::check_nans</text>
</a>
</g>
</g>
<!-- Node9&#45;&gt;Node13 -->
<g id="edge13" class="edge"><title>Node9&#45;&gt;Node13</title>
<path fill="none" stroke="midnightblue" d="M276.33,-269.702C284.57,-271.909 293.046,-274.231 301,-276.5 320.712,-282.124 342.339,-288.686 360.993,-294.471"/>
<polygon fill="midnightblue" stroke="midnightblue" points="277.01,-266.262 266.447,-267.079 275.214,-273.027 277.01,-266.262"/>
</g>
<!-- Node15 -->
<g id="node15" class="node"><title>Node15</title>
<g id="a_node15"><a xlink:href="class_i_n_m_o_s_t_1_1_sparse_1_1_row.html#ae9bef525df99c619d6d40896c27bc5db" target="_top" xlink:title="Set the vector entries by zeroes. ">
<polygon fill="none" stroke="black" points="352,-245.5 352,-275.5 467,-275.5 467,-245.5 352,-245.5"/>
<text text-anchor="start" x="360" y="-263.5" font-family="Helvetica,sans-Serif" font-size="10.00">INMOST::Sparse::Row</text>
<text text-anchor="middle" x="409.5" y="-252.5" font-family="Helvetica,sans-Serif" font-size="10.00">::Zero</text>
</a>
</g>
</g>
<!-- Node9&#45;&gt;Node15 -->
<g id="edge15" class="edge"><title>Node9&#45;&gt;Node15</title>
<path fill="none" stroke="midnightblue" d="M307.381,-258.81C322.334,-259.06 337.716,-259.317 351.829,-259.553"/>
<polygon fill="midnightblue" stroke="midnightblue" points="307.174,-255.306 297.117,-258.638 307.057,-262.305 307.174,-255.306"/>
</g>
<!-- Node16 -->
<g id="node16" class="node"><title>Node16</title>
<g id="a_node16"><a xlink:href="class_i_n_m_o_s_t_1_1_sparse_1_1_row.html#add923d14e340862a8b6e71a8d0704596" target="_top" xlink:title="INMOST::Sparse::Row\l::Print">
<polygon fill="none" stroke="black" points="352,-196.5 352,-226.5 467,-226.5 467,-196.5 352,-196.5"/>
<text text-anchor="start" x="360" y="-214.5" font-family="Helvetica,sans-Serif" font-size="10.00">INMOST::Sparse::Row</text>
<text text-anchor="middle" x="409.5" y="-203.5" font-family="Helvetica,sans-Serif" font-size="10.00">::Print</text>
</a>
</g>
</g>
<!-- Node9&#45;&gt;Node16 -->
<g id="edge16" class="edge"><title>Node9&#45;&gt;Node16</title>
<path fill="none" stroke="midnightblue" d="M276.145,-245.418C299.36,-239.469 327.527,-232.251 351.9,-226.005"/>
<polygon fill="midnightblue" stroke="midnightblue" points="275.011,-242.096 266.193,-247.969 276.748,-248.877 275.011,-242.096"/>
</g>
<!-- Node17 -->
<g id="node17" class="node"><title>Node17</title>
<g id="a_node17"><a xlink:href="class_i_n_m_o_s_t_1_1enhanced__multivar__expression.html#a458567eb465bc407ef959ec2d1150630" target="_top" xlink:title="INMOST::enhanced_multivar\l_expression::GetDerivative">
<polygon fill="none" stroke="black" points="339.5,-147.5 339.5,-177.5 479.5,-177.5 479.5,-147.5 339.5,-147.5"/>
<text text-anchor="start" x="347.5" y="-165.5" font-family="Helvetica,sans-Serif" font-size="10.00">INMOST::enhanced_multivar</text>
<text text-anchor="middle" x="409.5" y="-154.5" font-family="Helvetica,sans-Serif" font-size="10.00">_expression::GetDerivative</text>
</a>
</g>
</g>
<!-- Node9&#45;&gt;Node17 -->
<g id="edge17" class="edge"><title>Node9&#45;&gt;Node17</title>
<path fill="none" stroke="midnightblue" d="M249.502,-241.697C270.545,-226.049 304.689,-202.216 337,-186.5 343.712,-183.235 350.979,-180.235 358.222,-177.542"/>
<polygon fill="midnightblue" stroke="midnightblue" points="247.21,-239.041 241.329,-247.854 251.422,-244.632 247.21,-239.041"/>
</g>
<!-- Node19 -->
<g id="node19" class="node"><title>Node19</title>
<g id="a_node19"><a xlink:href="class_i_n_m_o_s_t_1_1enhanced__multivar__expression.html#a3b2f3e3370ce1626b30e837b517dffb3" target="_top" xlink:title="INMOST::enhanced_multivar\l_expression::operator*=">
<polygon fill="none" stroke="black" points="339.5,-98.5 339.5,-128.5 479.5,-128.5 479.5,-98.5 339.5,-98.5"/>
<text text-anchor="start" x="347.5" y="-116.5" font-family="Helvetica,sans-Serif" font-size="10.00">INMOST::enhanced_multivar</text>
<text text-anchor="middle" x="409.5" y="-105.5" font-family="Helvetica,sans-Serif" font-size="10.00">_expression::operator*=</text>
</a>
</g>
</g>
<!-- Node9&#45;&gt;Node19 -->
<g id="edge19" class="edge"><title>Node9&#45;&gt;Node19</title>
<path fill="none" stroke="midnightblue" d="M240.781,-239.331C258.603,-213.215 294.847,-165.173 337,-137.5 342.145,-134.123 347.81,-131.177 353.632,-128.617"/>
<polygon fill="midnightblue" stroke="midnightblue" points="237.713,-237.622 235.071,-247.882 243.535,-241.509 237.713,-237.622"/>
</g>
<!-- Node20 -->
<g id="node20" class="node"><title>Node20</title>
<g id="a_node20"><a xlink:href="class_i_n_m_o_s_t_1_1enhanced__multivar__expression.html#a6c1a779ec33e595aca0b7279ba36b59f" target="_top" xlink:title="INMOST::enhanced_multivar\l_expression::operator/=">
<polygon fill="none" stroke="black" points="339.5,-49.5 339.5,-79.5 479.5,-79.5 479.5,-49.5 339.5,-49.5"/>
<text text-anchor="start" x="347.5" y="-67.5" font-family="Helvetica,sans-Serif" font-size="10.00">INMOST::enhanced_multivar</text>
<text text-anchor="middle" x="409.5" y="-56.5" font-family="Helvetica,sans-Serif" font-size="10.00">_expression::operator/=</text>
</a>
</g>
</g>
<!-- Node9&#45;&gt;Node20 -->
<g id="edge20" class="edge"><title>Node9&#45;&gt;Node20</title>
<path fill="none" stroke="midnightblue" d="M236.166,-238.384C250.185,-203.531 284.524,-129.48 337,-88.5 341.334,-85.1152 346.171,-82.195 351.229,-79.6782"/>
<polygon fill="midnightblue" stroke="midnightblue" points="232.843,-237.273 232.47,-247.862 239.364,-239.817 232.843,-237.273"/>
</g>
<!-- Node21 -->
<g id="node21" class="node"><title>Node21</title>
<g id="a_node21"><a xlink:href="class_i_n_m_o_s_t_1_1enhanced__multivar__expression.html#aeb6a84957da4c24c21a594a26e8f2d54" target="_top" xlink:title="INMOST::enhanced_multivar\l_expression::check_nans">
<polygon fill="none" stroke="black" points="339.5,-0.5 339.5,-30.5 479.5,-30.5 479.5,-0.5 339.5,-0.5"/>
<text text-anchor="start" x="347.5" y="-18.5" font-family="Helvetica,sans-Serif" font-size="10.00">INMOST::enhanced_multivar</text>
<text text-anchor="middle" x="409.5" y="-7.5" font-family="Helvetica,sans-Serif" font-size="10.00">_expression::check_nans</text>
</a>
</g>
</g>
<!-- Node9&#45;&gt;Node21 -->
<g id="edge21" class="edge"><title>Node9&#45;&gt;Node21</title>
<path fill="none" stroke="midnightblue" d="M233.37,-237.648C243.752,-195.105 273.891,-94.5544 337,-39.5 340.947,-36.057 345.406,-33.1039 350.121,-30.5718"/>
<polygon fill="midnightblue" stroke="midnightblue" points="229.915,-237.055 231.051,-247.589 236.731,-238.646 229.915,-237.055"/>
</g>
<!-- Node14 -->
<g id="node14" class="node"><title>Node14</title>
<g id="a_node14"><a xlink:href="namespace_i_n_m_o_s_t.html#a974d31acc486b8730a2d83297381877a" target="_top" xlink:title="INMOST::check_nans">
<polygon fill="none" stroke="black" points="532,-300 532,-319 644,-319 644,-300 532,-300"/>
<text text-anchor="middle" x="588" y="-307" font-family="Helvetica,sans-Serif" font-size="10.00">INMOST::check_nans</text>
</a>
</g>
</g>
<!-- Node13&#45;&gt;Node14 -->
<g id="edge14" class="edge"><title>Node13&#45;&gt;Node14</title>
<path fill="none" stroke="midnightblue" d="M492.248,-309.5C505.682,-309.5 519.318,-309.5 531.902,-309.5"/>
<polygon fill="midnightblue" stroke="midnightblue" points="492.035,-306 482.035,-309.5 492.035,-313 492.035,-306"/>
</g>
<!-- Node18 -->
<g id="node18" class="node"><title>Node18</title>
<g id="a_node18"><a xlink:href="class_i_n_m_o_s_t_1_1enhanced__multivar__expression.html#a677fecf4942068b4c579c190b52dc409" target="_top" xlink:title="INMOST::enhanced_multivar\l_expression::GetDerivative">
<polygon fill="none" stroke="black" points="518,-147.5 518,-177.5 658,-177.5 658,-147.5 518,-147.5"/>
<text text-anchor="start" x="526" y="-165.5" font-family="Helvetica,sans-Serif" font-size="10.00">INMOST::enhanced_multivar</text>
<text text-anchor="middle" x="588" y="-154.5" font-family="Helvetica,sans-Serif" font-size="10.00">_expression::GetDerivative</text>
</a>
</g>
</g>
<!-- Node17&#45;&gt;Node18 -->
<g id="edge18" class="edge"><title>Node17&#45;&gt;Node18</title>
<path fill="none" stroke="midnightblue" d="M489.849,-162.5C499.223,-162.5 508.733,-162.5 517.949,-162.5"/>
<polygon fill="midnightblue" stroke="midnightblue" points="489.751,-159 479.751,-162.5 489.751,-166 489.751,-159"/>
</g>
<!-- Node22 -->
<g id="node22" class="node"><title>Node22</title>
<g id="a_node22"><a xlink:href="namespace_i_n_m_o_s_t.html#a22eaa3c4a301d2df158a997642f3e5d6" target="_top" xlink:title="INMOST::check_nans">
<polygon fill="none" stroke="black" points="532,-6 532,-25 644,-25 644,-6 532,-6"/>
<text text-anchor="middle" x="588" y="-13" font-family="Helvetica,sans-Serif" font-size="10.00">INMOST::check_nans</text>
</a>
</g>
</g>
<!-- Node21&#45;&gt;Node22 -->
<g id="edge22" class="edge"><title>Node21&#45;&gt;Node22</title>
<path fill="none" stroke="midnightblue" d="M489.976,-15.5C504.121,-15.5 518.57,-15.5 531.849,-15.5"/>
<polygon fill="midnightblue" stroke="midnightblue" points="489.751,-12.0001 479.751,-15.5 489.751,-19.0001 489.751,-12.0001"/>
</g>
</g>
</svg>
