<?xml version="1.0" encoding="UTF-8" standalone="no"?>
<!DOCTYPE svg PUBLIC "-//W3C//DTD SVG 1.1//EN"
 "http://www.w3.org/Graphics/SVG/1.1/DTD/svg11.dtd">
<!-- Generated by graphviz version 2.38.0 (20140413.2041)
 -->
<!-- Title: INMOST::Storage::GetElementType Pages: 1 -->
<svg width="575pt" height="28pt"
 viewBox="0.00 0.00 575.00 28.00" xmlns="http://www.w3.org/2000/svg" xmlns:xlink="http://www.w3.org/1999/xlink">
<g id="graph0" class="graph" transform="scale(1 1) rotate(0) translate(4 24)">
<title>INMOST::Storage::GetElementType</title>
<!-- Node1 -->
<g id="node1" class="node"><title>Node1</title>
<polygon fill="#bfbfbf" stroke="black" points="0,-0.5 0,-19.5 172,-19.5 172,-0.5 0,-0.5"/>
<text text-anchor="middle" x="86" y="-7.5" font-family="Helvetica,sans-Serif" font-size="10.00">INMOST::Storage::GetElementType</text>
</g>
<!-- Node2 -->
<g id="node2" class="node"><title>Node2</title>
<g id="a_node2"><a xlink:href="namespace_i_n_m_o_s_t.html#ad6fc386c976a00725d44392f3e211bf2" target="_top" xlink:title="INMOST::GetHandleElementType">
<polygon fill="none" stroke="black" points="208,-0.5 208,-19.5 370,-19.5 370,-0.5 208,-0.5"/>
<text text-anchor="middle" x="289" y="-7.5" font-family="Helvetica,sans-Serif" font-size="10.00">INMOST::GetHandleElementType</text>
</a>
</g>
</g>
<!-- Node1&#45;&gt;Node2 -->
<g id="edge1" class="edge"><title>Node1&#45;&gt;Node2</title>
<path fill="none" stroke="midnightblue" d="M172.242,-10C180.61,-10 189.122,-10 197.539,-10"/>
<polygon fill="midnightblue" stroke="midnightblue" points="197.743,-13.5001 207.743,-10 197.743,-6.5001 197.743,-13.5001"/>
</g>
<!-- Node3 -->
<g id="node3" class="node"><title>Node3</title>
<g id="a_node3"><a xlink:href="namespace_i_n_m_o_s_t.html#a6659a95d611050914b2761dd17256928" target="_top" xlink:title="INMOST::GetHandleElementNum">
<polygon fill="none" stroke="black" points="406,-0.5 406,-19.5 567,-19.5 567,-0.5 406,-0.5"/>
<text text-anchor="middle" x="486.5" y="-7.5" font-family="Helvetica,sans-Serif" font-size="10.00">INMOST::GetHandleElementNum</text>
</a>
</g>
</g>
<!-- Node2&#45;&gt;Node3 -->
<g id="edge2" class="edge"><title>Node2&#45;&gt;Node3</title>
<path fill="none" stroke="midnightblue" d="M370.081,-10C378.57,-10 387.243,-10 395.831,-10"/>
<polygon fill="midnightblue" stroke="midnightblue" points="395.859,-13.5001 405.859,-10 395.859,-6.5001 395.859,-13.5001"/>
</g>
</g>
</svg>
