<?xml version="1.0" encoding="UTF-8" standalone="no"?>
<!DOCTYPE svg PUBLIC "-//W3C//DTD SVG 1.1//EN"
 "http://www.w3.org/Graphics/SVG/1.1/DTD/svg11.dtd">
<!-- Generated by graphviz version 2.38.0 (20140413.2041)
 -->
<!-- Title: INMOST::array::end Pages: 1 -->
<svg width="277pt" height="88pt"
 viewBox="0.00 0.00 277.00 88.00" xmlns="http://www.w3.org/2000/svg" xmlns:xlink="http://www.w3.org/1999/xlink">
<g id="graph0" class="graph" transform="scale(1 1) rotate(0) translate(4 84)">
<title>INMOST::array::end</title>
<!-- Node1 -->
<g id="node1" class="node"><title>Node1</title>
<polygon fill="#bfbfbf" stroke="black" points="0,-30 0,-49 103,-49 103,-30 0,-30"/>
<text text-anchor="middle" x="51.5" y="-37" font-family="Helvetica,sans-Serif" font-size="10.00">INMOST::array::end</text>
</g>
<!-- Node2 -->
<g id="node2" class="node"><title>Node2</title>
<g id="a_node2"><a xlink:href="class_i_n_m_o_s_t_1_1array.html#a5fa642acf852ae09056cd86b66d095d5" target="_top" xlink:title="INMOST::array\&lt; reference\l \&gt;::erase">
<polygon fill="none" stroke="black" points="139,-49.5 139,-79.5 269,-79.5 269,-49.5 139,-49.5"/>
<text text-anchor="start" x="147" y="-67.5" font-family="Helvetica,sans-Serif" font-size="10.00">INMOST::array&lt; reference</text>
<text text-anchor="middle" x="204" y="-56.5" font-family="Helvetica,sans-Serif" font-size="10.00"> &gt;::erase</text>
</a>
</g>
</g>
<!-- Node1&#45;&gt;Node2 -->
<g id="edge1" class="edge"><title>Node1&#45;&gt;Node2</title>
<path fill="none" stroke="midnightblue" d="M112.938,-49.5396C121.505,-50.9626 130.338,-52.4298 138.969,-53.8636"/>
<polygon fill="midnightblue" stroke="midnightblue" points="113.471,-46.0803 103.033,-47.8942 112.324,-52.9856 113.471,-46.0803"/>
</g>
<!-- Node3 -->
<g id="node3" class="node"><title>Node3</title>
<g id="a_node3"><a xlink:href="class_i_n_m_o_s_t_1_1array.html#a2be0dbe1ac04b39cd707dd3950d28e09" target="_top" xlink:title="INMOST::array\&lt; reference\l \&gt;::insert">
<polygon fill="none" stroke="black" points="139,-0.5 139,-30.5 269,-30.5 269,-0.5 139,-0.5"/>
<text text-anchor="start" x="147" y="-18.5" font-family="Helvetica,sans-Serif" font-size="10.00">INMOST::array&lt; reference</text>
<text text-anchor="middle" x="204" y="-7.5" font-family="Helvetica,sans-Serif" font-size="10.00"> &gt;::insert</text>
</a>
</g>
</g>
<!-- Node1&#45;&gt;Node3 -->
<g id="edge2" class="edge"><title>Node1&#45;&gt;Node3</title>
<path fill="none" stroke="midnightblue" d="M112.938,-29.862C121.505,-28.4959 130.338,-27.0874 138.969,-25.7109"/>
<polygon fill="midnightblue" stroke="midnightblue" points="112.357,-26.4104 103.033,-31.4416 113.459,-33.323 112.357,-26.4104"/>
</g>
</g>
</svg>
