<?xml version="1.0" encoding="UTF-8" standalone="no"?>
<!DOCTYPE svg PUBLIC "-//W3C//DTD SVG 1.1//EN"
 "http://www.w3.org/Graphics/SVG/1.1/DTD/svg11.dtd">
<!-- Generated by graphviz version 2.38.0 (20140413.2041)
 -->
<!-- Title: INMOST::Storage::getAsCell Pages: 1 -->
<svg width="752pt" height="104pt"
 viewBox="0.00 0.00 752.00 104.00" xmlns="http://www.w3.org/2000/svg" xmlns:xlink="http://www.w3.org/1999/xlink">
<g id="graph0" class="graph" transform="scale(1 1) rotate(0) translate(4 100)">
<title>INMOST::Storage::getAsCell</title>
<!-- Node1 -->
<g id="node1" class="node"><title>Node1</title>
<polygon fill="#bfbfbf" stroke="black" points="0,-38.5 0,-57.5 141,-57.5 141,-38.5 0,-38.5"/>
<text text-anchor="middle" x="70.5" y="-45.5" font-family="Helvetica,sans-Serif" font-size="10.00">INMOST::Storage::getAsCell</text>
</g>
<!-- Node2 -->
<g id="node2" class="node"><title>Node2</title>
<g id="a_node2"><a xlink:href="class_i_n_m_o_s_t_1_1_storage.html#ae6928532b6665a12831d13293c4c7b31" target="_top" xlink:title="INMOST::Storage::GetElementType">
<polygon fill="none" stroke="black" points="177,-76.5 177,-95.5 349,-95.5 349,-76.5 177,-76.5"/>
<text text-anchor="middle" x="263" y="-83.5" font-family="Helvetica,sans-Serif" font-size="10.00">INMOST::Storage::GetElementType</text>
</a>
</g>
</g>
<!-- Node1&#45;&gt;Node2 -->
<g id="edge1" class="edge"><title>Node1&#45;&gt;Node2</title>
<path fill="none" stroke="midnightblue" d="M119.571,-57.589C145.276,-62.7165 177.113,-69.0672 204.164,-74.4632"/>
<polygon fill="midnightblue" stroke="midnightblue" points="203.783,-77.956 214.274,-76.4799 205.152,-71.0913 203.783,-77.956"/>
</g>
<!-- Node5 -->
<g id="node5" class="node"><title>Node5</title>
<g id="a_node5"><a xlink:href="class_i_n_m_o_s_t_1_1_storage.html#a20d218fc89f75ca8534707b4f697173e" target="_top" xlink:title="INMOST::Storage::GetMeshLink">
<polygon fill="none" stroke="black" points="184.5,-38.5 184.5,-57.5 341.5,-57.5 341.5,-38.5 184.5,-38.5"/>
<text text-anchor="middle" x="263" y="-45.5" font-family="Helvetica,sans-Serif" font-size="10.00">INMOST::Storage::GetMeshLink</text>
</a>
</g>
</g>
<!-- Node1&#45;&gt;Node5 -->
<g id="edge4" class="edge"><title>Node1&#45;&gt;Node5</title>
<path fill="none" stroke="midnightblue" d="M141.084,-48C151.825,-48 163.037,-48 174.116,-48"/>
<polygon fill="midnightblue" stroke="midnightblue" points="174.235,-51.5001 184.235,-48 174.235,-44.5001 174.235,-51.5001"/>
</g>
<!-- Node6 -->
<g id="node6" class="node"><title>Node6</title>
<g id="a_node6"><a xlink:href="class_i_n_m_o_s_t_1_1_storage.html#ac79e3f3664b2ff21892f37bce0caa0e0" target="_top" xlink:title="INMOST::Storage::GetHandle">
<polygon fill="none" stroke="black" points="190.5,-0.5 190.5,-19.5 335.5,-19.5 335.5,-0.5 190.5,-0.5"/>
<text text-anchor="middle" x="263" y="-7.5" font-family="Helvetica,sans-Serif" font-size="10.00">INMOST::Storage::GetHandle</text>
</a>
</g>
</g>
<!-- Node1&#45;&gt;Node6 -->
<g id="edge5" class="edge"><title>Node1&#45;&gt;Node6</title>
<path fill="none" stroke="midnightblue" d="M119.571,-38.411C145.276,-33.2835 177.113,-26.9328 204.164,-21.5368"/>
<polygon fill="midnightblue" stroke="midnightblue" points="205.152,-24.9087 214.274,-19.5201 203.783,-18.044 205.152,-24.9087"/>
</g>
<!-- Node3 -->
<g id="node3" class="node"><title>Node3</title>
<g id="a_node3"><a xlink:href="namespace_i_n_m_o_s_t.html#ad6fc386c976a00725d44392f3e211bf2" target="_top" xlink:title="INMOST::GetHandleElementType">
<polygon fill="none" stroke="black" points="385,-76.5 385,-95.5 547,-95.5 547,-76.5 385,-76.5"/>
<text text-anchor="middle" x="466" y="-83.5" font-family="Helvetica,sans-Serif" font-size="10.00">INMOST::GetHandleElementType</text>
</a>
</g>
</g>
<!-- Node2&#45;&gt;Node3 -->
<g id="edge2" class="edge"><title>Node2&#45;&gt;Node3</title>
<path fill="none" stroke="midnightblue" d="M349.242,-86C357.61,-86 366.122,-86 374.539,-86"/>
<polygon fill="midnightblue" stroke="midnightblue" points="374.743,-89.5001 384.743,-86 374.743,-82.5001 374.743,-89.5001"/>
</g>
<!-- Node4 -->
<g id="node4" class="node"><title>Node4</title>
<g id="a_node4"><a xlink:href="namespace_i_n_m_o_s_t.html#a6659a95d611050914b2761dd17256928" target="_top" xlink:title="INMOST::GetHandleElementNum">
<polygon fill="none" stroke="black" points="583,-76.5 583,-95.5 744,-95.5 744,-76.5 583,-76.5"/>
<text text-anchor="middle" x="663.5" y="-83.5" font-family="Helvetica,sans-Serif" font-size="10.00">INMOST::GetHandleElementNum</text>
</a>
</g>
</g>
<!-- Node3&#45;&gt;Node4 -->
<g id="edge3" class="edge"><title>Node3&#45;&gt;Node4</title>
<path fill="none" stroke="midnightblue" d="M547.081,-86C555.57,-86 564.243,-86 572.831,-86"/>
<polygon fill="midnightblue" stroke="midnightblue" points="572.859,-89.5001 582.859,-86 572.859,-82.5001 572.859,-89.5001"/>
</g>
</g>
</svg>
