<?xml version="1.0" encoding="UTF-8" standalone="no"?>
<!DOCTYPE svg PUBLIC "-//W3C//DTD SVG 1.1//EN"
 "http://www.w3.org/Graphics/SVG/1.1/DTD/svg11.dtd">
<!-- Generated by graphviz version 2.38.0 (20140413.2041)
 -->
<!-- Title: INMOST::shell_expression::GetValue Pages: 1 -->
<svg width="389pt" height="293pt"
 viewBox="0.00 0.00 389.00 293.00" xmlns="http://www.w3.org/2000/svg" xmlns:xlink="http://www.w3.org/1999/xlink">
<g id="graph0" class="graph" transform="scale(1 1) rotate(0) translate(4 289)">
<title>INMOST::shell_expression::GetValue</title>
<!-- Node1 -->
<g id="node1" class="node"><title>Node1</title>
<polygon fill="#bfbfbf" stroke="black" points="0,-109 0,-139 132,-139 132,-109 0,-109"/>
<text text-anchor="start" x="8" y="-127" font-family="Helvetica,sans-Serif" font-size="10.00">INMOST::shell_expression</text>
<text text-anchor="middle" x="66" y="-116" font-family="Helvetica,sans-Serif" font-size="10.00">::GetValue</text>
</g>
<!-- Node1&#45;&gt;Node1 -->
<g id="edge1" class="edge"><title>Node1&#45;&gt;Node1</title>
<path fill="none" stroke="midnightblue" d="M42.1898,-149.458C45.145,-154.179 53.0817,-157.5 66,-157.5 87.1992,-157.5 94.9833,-148.557 89.3523,-139.159"/>
<polygon fill="midnightblue" stroke="midnightblue" points="45.7,-149.305 42.6477,-139.159 38.7069,-148.994 45.7,-149.305"/>
</g>
<!-- Node2 -->
<g id="node2" class="node"><title>Node2</title>
<g id="a_node2"><a xlink:href="inmost__expression_8h.html#a8d817263643d76be460d1bb5f1c64408" target="_top" xlink:title="get_value">
<polygon fill="none" stroke="black" points="171.5,-228.5 171.5,-247.5 228.5,-247.5 228.5,-228.5 171.5,-228.5"/>
<text text-anchor="middle" x="200" y="-235.5" font-family="Helvetica,sans-Serif" font-size="10.00">get_value</text>
</a>
</g>
</g>
<!-- Node1&#45;&gt;Node2 -->
<g id="edge2" class="edge"><title>Node1&#45;&gt;Node2</title>
<path fill="none" stroke="midnightblue" d="M88.1837,-146.395C107.86,-166.577 138.485,-196.454 168,-219 172.314,-222.295 177.228,-225.521 181.852,-228.352"/>
<polygon fill="midnightblue" stroke="midnightblue" points="90.6692,-143.931 81.2039,-139.171 85.6349,-148.794 90.6692,-143.931"/>
</g>
<!-- Node5 -->
<g id="node5" class="node"><title>Node5</title>
<g id="a_node5"><a xlink:href="inmost__expression_8h.html#aa4eab5624135c2f51dc7fb38738740f9" target="_top" xlink:title="operator==">
<polygon fill="none" stroke="black" points="168,-190.5 168,-209.5 232,-209.5 232,-190.5 168,-190.5"/>
<text text-anchor="middle" x="200" y="-197.5" font-family="Helvetica,sans-Serif" font-size="10.00">operator==</text>
</a>
</g>
</g>
<!-- Node1&#45;&gt;Node5 -->
<g id="edge6" class="edge"><title>Node1&#45;&gt;Node5</title>
<path fill="none" stroke="midnightblue" d="M101.867,-144.075C127.798,-159.005 162.047,-178.724 182.182,-190.317"/>
<polygon fill="midnightblue" stroke="midnightblue" points="103.492,-140.972 93.079,-139.015 99.9988,-147.038 103.492,-140.972"/>
</g>
<!-- Node6 -->
<g id="node6" class="node"><title>Node6</title>
<g id="a_node6"><a xlink:href="inmost__expression_8h.html#acd0c133bbe7c95098b99cd4652deb36f" target="_top" xlink:title="operator!=">
<polygon fill="none" stroke="black" points="170,-152.5 170,-171.5 230,-171.5 230,-152.5 170,-152.5"/>
<text text-anchor="middle" x="200" y="-159.5" font-family="Helvetica,sans-Serif" font-size="10.00">operator!=</text>
</a>
</g>
</g>
<!-- Node1&#45;&gt;Node6 -->
<g id="edge7" class="edge"><title>Node1&#45;&gt;Node6</title>
<path fill="none" stroke="midnightblue" d="M129.005,-141.85C143.317,-145.97 157.881,-150.163 169.991,-153.649"/>
<polygon fill="midnightblue" stroke="midnightblue" points="129.748,-138.422 119.17,-139.019 127.811,-145.149 129.748,-138.422"/>
</g>
<!-- Node7 -->
<g id="node7" class="node"><title>Node7</title>
<g id="a_node7"><a xlink:href="inmost__expression_8h.html#a0d7498c45d9f38ef0c66f733610967b9" target="_top" xlink:title="operator\&lt;">
<polygon fill="none" stroke="black" points="171,-114.5 171,-133.5 229,-133.5 229,-114.5 171,-114.5"/>
<text text-anchor="middle" x="200" y="-121.5" font-family="Helvetica,sans-Serif" font-size="10.00">operator&lt;</text>
</a>
</g>
</g>
<!-- Node1&#45;&gt;Node7 -->
<g id="edge8" class="edge"><title>Node1&#45;&gt;Node7</title>
<path fill="none" stroke="midnightblue" d="M142.428,-124C152.566,-124 162.4,-124 170.948,-124"/>
<polygon fill="midnightblue" stroke="midnightblue" points="142.227,-120.5 132.227,-124 142.227,-127.5 142.227,-120.5"/>
</g>
<!-- Node8 -->
<g id="node8" class="node"><title>Node8</title>
<g id="a_node8"><a xlink:href="inmost__expression_8h.html#a4513dac6a5ac2ec939d801281e2f2876" target="_top" xlink:title="operator\&gt;">
<polygon fill="none" stroke="black" points="171,-76.5 171,-95.5 229,-95.5 229,-76.5 171,-76.5"/>
<text text-anchor="middle" x="200" y="-83.5" font-family="Helvetica,sans-Serif" font-size="10.00">operator&gt;</text>
</a>
</g>
</g>
<!-- Node1&#45;&gt;Node8 -->
<g id="edge9" class="edge"><title>Node1&#45;&gt;Node8</title>
<path fill="none" stroke="midnightblue" d="M129.17,-106.103C143.723,-101.913 158.525,-97.6519 170.733,-94.1374"/>
<polygon fill="midnightblue" stroke="midnightblue" points="127.811,-102.851 119.17,-108.981 129.748,-109.578 127.811,-102.851"/>
</g>
<!-- Node9 -->
<g id="node9" class="node"><title>Node9</title>
<g id="a_node9"><a xlink:href="inmost__expression_8h.html#a73b53feffe47acb4c16de484535d5f23" target="_top" xlink:title="operator\&lt;=">
<polygon fill="none" stroke="black" points="168,-38.5 168,-57.5 232,-57.5 232,-38.5 168,-38.5"/>
<text text-anchor="middle" x="200" y="-45.5" font-family="Helvetica,sans-Serif" font-size="10.00">operator&lt;=</text>
</a>
</g>
</g>
<!-- Node1&#45;&gt;Node9 -->
<g id="edge10" class="edge"><title>Node1&#45;&gt;Node9</title>
<path fill="none" stroke="midnightblue" d="M101.867,-103.925C127.798,-88.9948 162.047,-69.2761 182.182,-57.6833"/>
<polygon fill="midnightblue" stroke="midnightblue" points="99.9988,-100.962 93.079,-108.985 103.492,-107.028 99.9988,-100.962"/>
</g>
<!-- Node10 -->
<g id="node10" class="node"><title>Node10</title>
<g id="a_node10"><a xlink:href="inmost__expression_8h.html#a17a91d21f67a91101bc8bdd1153bcebe" target="_top" xlink:title="operator\&gt;=">
<polygon fill="none" stroke="black" points="168,-0.5 168,-19.5 232,-19.5 232,-0.5 168,-0.5"/>
<text text-anchor="middle" x="200" y="-7.5" font-family="Helvetica,sans-Serif" font-size="10.00">operator&gt;=</text>
</a>
</g>
</g>
<!-- Node1&#45;&gt;Node10 -->
<g id="edge11" class="edge"><title>Node1&#45;&gt;Node10</title>
<path fill="none" stroke="midnightblue" d="M88.1837,-101.605C107.86,-81.423 138.485,-51.5461 168,-29 172.314,-25.7046 177.228,-22.4791 181.852,-19.6484"/>
<polygon fill="midnightblue" stroke="midnightblue" points="85.6349,-99.2056 81.2039,-108.829 90.6692,-104.069 85.6349,-99.2056"/>
</g>
<!-- Node3 -->
<g id="node3" class="node"><title>Node3</title>
<g id="a_node3"><a xlink:href="class_i_n_m_o_s_t_1_1_matrix.html#adf8bb731b7c0899039b99f2399d938c6" target="_top" xlink:title="INMOST::Matrix::SVD">
<polygon fill="none" stroke="black" points="268,-247.5 268,-266.5 381,-266.5 381,-247.5 268,-247.5"/>
<text text-anchor="middle" x="324.5" y="-254.5" font-family="Helvetica,sans-Serif" font-size="10.00">INMOST::Matrix::SVD</text>
</a>
</g>
</g>
<!-- Node2&#45;&gt;Node3 -->
<g id="edge3" class="edge"><title>Node2&#45;&gt;Node3</title>
<path fill="none" stroke="midnightblue" d="M238.755,-243.856C247.936,-245.28 257.947,-246.833 267.767,-248.356"/>
<polygon fill="midnightblue" stroke="midnightblue" points="239.215,-240.386 228.797,-242.311 238.143,-247.303 239.215,-240.386"/>
</g>
<!-- Node4 -->
<g id="node4" class="node"><title>Node4</title>
<g id="a_node4"><a xlink:href="class_i_n_m_o_s_t_1_1_matrix.html#a86a44a488a56fb838c25d333baf1964b" target="_top" xlink:title="INMOST::Matrix::Print">
<polygon fill="none" stroke="black" points="268,-209.5 268,-228.5 381,-228.5 381,-209.5 268,-209.5"/>
<text text-anchor="middle" x="324.5" y="-216.5" font-family="Helvetica,sans-Serif" font-size="10.00">INMOST::Matrix::Print</text>
</a>
</g>
</g>
<!-- Node2&#45;&gt;Node4 -->
<g id="edge5" class="edge"><title>Node2&#45;&gt;Node4</title>
<path fill="none" stroke="midnightblue" d="M238.755,-232.144C247.936,-230.72 257.947,-229.167 267.767,-227.644"/>
<polygon fill="midnightblue" stroke="midnightblue" points="238.143,-228.697 228.797,-233.689 239.215,-235.614 238.143,-228.697"/>
</g>
<!-- Node3&#45;&gt;Node3 -->
<g id="edge4" class="edge"><title>Node3&#45;&gt;Node3</title>
<path fill="none" stroke="midnightblue" d="M301.435,-276.029C302.693,-281.128 310.381,-285 324.5,-285 346.539,-285 352.91,-275.565 343.612,-266.757"/>
<polygon fill="midnightblue" stroke="midnightblue" points="304.685,-277.329 305.388,-266.757 298.246,-274.583 304.685,-277.329"/>
</g>
</g>
</svg>
