<?xml version="1.0" encoding="UTF-8" standalone="no"?>
<!DOCTYPE svg PUBLIC "-//W3C//DTD SVG 1.1//EN"
 "http://www.w3.org/Graphics/SVG/1.1/DTD/svg11.dtd">
<!-- Generated by graphviz version 2.38.0 (20140413.2041)
 -->
<!-- Title: INMOST::Sparse::Row::Begin Pages: 1 -->
<svg width="480pt" height="480pt"
 viewBox="0.00 0.00 480.00 480.00" xmlns="http://www.w3.org/2000/svg" xmlns:xlink="http://www.w3.org/1999/xlink">
<g id="graph0" class="graph" transform="scale(1 1) rotate(0) translate(4 476)">
<title>INMOST::Sparse::Row::Begin</title>
<!-- Node1 -->
<g id="node1" class="node"><title>Node1</title>
<polygon fill="#bfbfbf" stroke="black" points="0,-220.5 0,-250.5 115,-250.5 115,-220.5 0,-220.5"/>
<text text-anchor="start" x="8" y="-238.5" font-family="Helvetica,sans-Serif" font-size="10.00">INMOST::Sparse::Row</text>
<text text-anchor="middle" x="57.5" y="-227.5" font-family="Helvetica,sans-Serif" font-size="10.00">::Begin</text>
</g>
<!-- Node2 -->
<g id="node2" class="node"><title>Node2</title>
<g id="a_node2"><a xlink:href="class_i_n_m_o_s_t_1_1multivar__expression.html#ae04c6994f03f6e11c92987e07388caa7" target="_top" xlink:title="INMOST::multivar_expression\l::GetDerivative">
<polygon fill="none" stroke="black" points="151,-441.5 151,-471.5 296,-471.5 296,-441.5 151,-441.5"/>
<text text-anchor="start" x="159" y="-459.5" font-family="Helvetica,sans-Serif" font-size="10.00">INMOST::multivar_expression</text>
<text text-anchor="middle" x="223.5" y="-448.5" font-family="Helvetica,sans-Serif" font-size="10.00">::GetDerivative</text>
</a>
</g>
</g>
<!-- Node1&#45;&gt;Node2 -->
<g id="edge1" class="edge"><title>Node1&#45;&gt;Node2</title>
<path fill="none" stroke="midnightblue" d="M63.5084,-260.34C73.1515,-301.864 98.1892,-385.445 151,-432.5 154.813,-435.897 159.123,-438.816 163.691,-441.324"/>
<polygon fill="midnightblue" stroke="midnightblue" points="66.9099,-259.511 61.332,-250.504 60.0752,-261.024 66.9099,-259.511"/>
</g>
<!-- Node3 -->
<g id="node3" class="node"><title>Node3</title>
<g id="a_node3"><a xlink:href="class_i_n_m_o_s_t_1_1multivar__expression.html#aa8201a6a63329890bde0e8ddc37dc780" target="_top" xlink:title="INMOST::multivar_expression\l::operator*=">
<polygon fill="none" stroke="black" points="151,-392.5 151,-422.5 296,-422.5 296,-392.5 151,-392.5"/>
<text text-anchor="start" x="159" y="-410.5" font-family="Helvetica,sans-Serif" font-size="10.00">INMOST::multivar_expression</text>
<text text-anchor="middle" x="223.5" y="-399.5" font-family="Helvetica,sans-Serif" font-size="10.00">::operator*=</text>
</a>
</g>
</g>
<!-- Node1&#45;&gt;Node3 -->
<g id="edge2" class="edge"><title>Node1&#45;&gt;Node3</title>
<path fill="none" stroke="midnightblue" d="M67.7316,-260.253C81.1733,-293.024 109.179,-350.502 151,-383.5 155.317,-386.907 160.143,-389.841 165.193,-392.367"/>
<polygon fill="midnightblue" stroke="midnightblue" points="70.973,-258.932 64.0285,-250.931 64.4674,-261.516 70.973,-258.932"/>
</g>
<!-- Node4 -->
<g id="node4" class="node"><title>Node4</title>
<g id="a_node4"><a xlink:href="class_i_n_m_o_s_t_1_1multivar__expression.html#ad1e7513f547145312c4da1ae5aff2c62" target="_top" xlink:title="INMOST::multivar_expression\l::operator/=">
<polygon fill="none" stroke="black" points="151,-343.5 151,-373.5 296,-373.5 296,-343.5 151,-343.5"/>
<text text-anchor="start" x="159" y="-361.5" font-family="Helvetica,sans-Serif" font-size="10.00">INMOST::multivar_expression</text>
<text text-anchor="middle" x="223.5" y="-350.5" font-family="Helvetica,sans-Serif" font-size="10.00">::operator/=</text>
</a>
</g>
</g>
<!-- Node1&#45;&gt;Node4 -->
<g id="edge3" class="edge"><title>Node1&#45;&gt;Node4</title>
<path fill="none" stroke="midnightblue" d="M75.0385,-259.067C91.8249,-281.386 119.738,-314.392 151,-334.5 156.286,-337.9 162.103,-340.869 168.067,-343.448"/>
<polygon fill="midnightblue" stroke="midnightblue" points="77.7033,-256.783 68.96,-250.8 72.0635,-260.93 77.7033,-256.783"/>
</g>
<!-- Node5 -->
<g id="node5" class="node"><title>Node5</title>
<g id="a_node5"><a xlink:href="class_i_n_m_o_s_t_1_1multivar__expression.html#a1c15ad7bf3f378471f911fc1e60f8a3b" target="_top" xlink:title="INMOST::multivar_expression\l::check_nans">
<polygon fill="none" stroke="black" points="151,-294.5 151,-324.5 296,-324.5 296,-294.5 151,-294.5"/>
<text text-anchor="start" x="159" y="-312.5" font-family="Helvetica,sans-Serif" font-size="10.00">INMOST::multivar_expression</text>
<text text-anchor="middle" x="223.5" y="-301.5" font-family="Helvetica,sans-Serif" font-size="10.00">::check_nans</text>
</a>
</g>
</g>
<!-- Node1&#45;&gt;Node5 -->
<g id="edge4" class="edge"><title>Node1&#45;&gt;Node5</title>
<path fill="none" stroke="midnightblue" d="M92.88,-255.913C110,-265.602 131.221,-276.91 151,-285.5 158.326,-288.682 166.221,-291.71 173.997,-294.477"/>
<polygon fill="midnightblue" stroke="midnightblue" points="94.2423,-252.66 83.8257,-250.724 90.7617,-258.733 94.2423,-252.66"/>
</g>
<!-- Node7 -->
<g id="node7" class="node"><title>Node7</title>
<g id="a_node7"><a xlink:href="class_i_n_m_o_s_t_1_1_sparse_1_1_row.html#ae9bef525df99c619d6d40896c27bc5db" target="_top" xlink:title="Set the vector entries by zeroes. ">
<polygon fill="none" stroke="black" points="166,-245.5 166,-275.5 281,-275.5 281,-245.5 166,-245.5"/>
<text text-anchor="start" x="174" y="-263.5" font-family="Helvetica,sans-Serif" font-size="10.00">INMOST::Sparse::Row</text>
<text text-anchor="middle" x="223.5" y="-252.5" font-family="Helvetica,sans-Serif" font-size="10.00">::Zero</text>
</a>
</g>
</g>
<!-- Node1&#45;&gt;Node7 -->
<g id="edge6" class="edge"><title>Node1&#45;&gt;Node7</title>
<path fill="none" stroke="midnightblue" d="M125.535,-245.719C138.965,-247.766 152.948,-249.898 165.979,-251.884"/>
<polygon fill="midnightblue" stroke="midnightblue" points="125.812,-242.221 115.399,-244.174 124.757,-249.141 125.812,-242.221"/>
</g>
<!-- Node8 -->
<g id="node8" class="node"><title>Node8</title>
<g id="a_node8"><a xlink:href="class_i_n_m_o_s_t_1_1_sparse_1_1_row.html#add923d14e340862a8b6e71a8d0704596" target="_top" xlink:title="INMOST::Sparse::Row\l::Print">
<polygon fill="none" stroke="black" points="166,-196.5 166,-226.5 281,-226.5 281,-196.5 166,-196.5"/>
<text text-anchor="start" x="174" y="-214.5" font-family="Helvetica,sans-Serif" font-size="10.00">INMOST::Sparse::Row</text>
<text text-anchor="middle" x="223.5" y="-203.5" font-family="Helvetica,sans-Serif" font-size="10.00">::Print</text>
</a>
</g>
</g>
<!-- Node1&#45;&gt;Node8 -->
<g id="edge7" class="edge"><title>Node1&#45;&gt;Node8</title>
<path fill="none" stroke="midnightblue" d="M125.535,-225.69C138.965,-223.725 152.948,-221.678 165.979,-219.771"/>
<polygon fill="midnightblue" stroke="midnightblue" points="124.787,-222.262 115.399,-227.173 125.8,-229.188 124.787,-222.262"/>
</g>
<!-- Node9 -->
<g id="node9" class="node"><title>Node9</title>
<g id="a_node9"><a xlink:href="class_i_n_m_o_s_t_1_1enhanced__multivar__expression.html#a458567eb465bc407ef959ec2d1150630" target="_top" xlink:title="INMOST::enhanced_multivar\l_expression::GetDerivative">
<polygon fill="none" stroke="black" points="153.5,-147.5 153.5,-177.5 293.5,-177.5 293.5,-147.5 153.5,-147.5"/>
<text text-anchor="start" x="161.5" y="-165.5" font-family="Helvetica,sans-Serif" font-size="10.00">INMOST::enhanced_multivar</text>
<text text-anchor="middle" x="223.5" y="-154.5" font-family="Helvetica,sans-Serif" font-size="10.00">_expression::GetDerivative</text>
</a>
</g>
</g>
<!-- Node1&#45;&gt;Node9 -->
<g id="edge8" class="edge"><title>Node1&#45;&gt;Node9</title>
<path fill="none" stroke="midnightblue" d="M94.1254,-215.502C111.078,-206.379 131.799,-195.789 151,-187.5 159.089,-184.008 167.842,-180.632 176.356,-177.549"/>
<polygon fill="midnightblue" stroke="midnightblue" points="92.2407,-212.543 85.1282,-220.395 95.5853,-218.692 92.2407,-212.543"/>
</g>
<!-- Node11 -->
<g id="node11" class="node"><title>Node11</title>
<g id="a_node11"><a xlink:href="class_i_n_m_o_s_t_1_1enhanced__multivar__expression.html#a3b2f3e3370ce1626b30e837b517dffb3" target="_top" xlink:title="INMOST::enhanced_multivar\l_expression::operator*=">
<polygon fill="none" stroke="black" points="153.5,-98.5 153.5,-128.5 293.5,-128.5 293.5,-98.5 153.5,-98.5"/>
<text text-anchor="start" x="161.5" y="-116.5" font-family="Helvetica,sans-Serif" font-size="10.00">INMOST::enhanced_multivar</text>
<text text-anchor="middle" x="223.5" y="-105.5" font-family="Helvetica,sans-Serif" font-size="10.00">_expression::operator*=</text>
</a>
</g>
</g>
<!-- Node1&#45;&gt;Node11 -->
<g id="edge10" class="edge"><title>Node1&#45;&gt;Node11</title>
<path fill="none" stroke="midnightblue" d="M75.4805,-212.142C92.4124,-190.354 120.269,-158.317 151,-138.5 156.857,-134.723 163.354,-131.438 169.974,-128.604"/>
<polygon fill="midnightblue" stroke="midnightblue" points="72.6014,-210.146 69.334,-220.224 78.1732,-214.383 72.6014,-210.146"/>
</g>
<!-- Node12 -->
<g id="node12" class="node"><title>Node12</title>
<g id="a_node12"><a xlink:href="class_i_n_m_o_s_t_1_1enhanced__multivar__expression.html#a6c1a779ec33e595aca0b7279ba36b59f" target="_top" xlink:title="INMOST::enhanced_multivar\l_expression::operator/=">
<polygon fill="none" stroke="black" points="153.5,-49.5 153.5,-79.5 293.5,-79.5 293.5,-49.5 153.5,-49.5"/>
<text text-anchor="start" x="161.5" y="-67.5" font-family="Helvetica,sans-Serif" font-size="10.00">INMOST::enhanced_multivar</text>
<text text-anchor="middle" x="223.5" y="-56.5" font-family="Helvetica,sans-Serif" font-size="10.00">_expression::operator/=</text>
</a>
</g>
</g>
<!-- Node1&#45;&gt;Node12 -->
<g id="edge11" class="edge"><title>Node1&#45;&gt;Node12</title>
<path fill="none" stroke="midnightblue" d="M67.9519,-210.492C81.5112,-177.873 109.512,-121.133 151,-88.5 155.322,-85.1001 160.151,-82.1697 165.204,-79.6464"/>
<polygon fill="midnightblue" stroke="midnightblue" points="64.5423,-209.59 64.0582,-220.173 71.0367,-212.202 64.5423,-209.59"/>
</g>
<!-- Node13 -->
<g id="node13" class="node"><title>Node13</title>
<g id="a_node13"><a xlink:href="class_i_n_m_o_s_t_1_1enhanced__multivar__expression.html#aeb6a84957da4c24c21a594a26e8f2d54" target="_top" xlink:title="INMOST::enhanced_multivar\l_expression::check_nans">
<polygon fill="none" stroke="black" points="153.5,-0.5 153.5,-30.5 293.5,-30.5 293.5,-0.5 153.5,-0.5"/>
<text text-anchor="start" x="161.5" y="-18.5" font-family="Helvetica,sans-Serif" font-size="10.00">INMOST::enhanced_multivar</text>
<text text-anchor="middle" x="223.5" y="-7.5" font-family="Helvetica,sans-Serif" font-size="10.00">_expression::check_nans</text>
</a>
</g>
</g>
<!-- Node1&#45;&gt;Node13 -->
<g id="edge12" class="edge"><title>Node1&#45;&gt;Node13</title>
<path fill="none" stroke="midnightblue" d="M63.6178,-210.479C73.3684,-169.06 98.4921,-86.193 151,-39.5 154.816,-36.1066 159.129,-33.1901 163.698,-30.684"/>
<polygon fill="midnightblue" stroke="midnightblue" points="60.1881,-209.779 61.413,-220.302 67.0182,-211.312 60.1881,-209.779"/>
</g>
<!-- Node6 -->
<g id="node6" class="node"><title>Node6</title>
<g id="a_node6"><a xlink:href="namespace_i_n_m_o_s_t.html#a974d31acc486b8730a2d83297381877a" target="_top" xlink:title="INMOST::check_nans">
<polygon fill="none" stroke="black" points="346,-300 346,-319 458,-319 458,-300 346,-300"/>
<text text-anchor="middle" x="402" y="-307" font-family="Helvetica,sans-Serif" font-size="10.00">INMOST::check_nans</text>
</a>
</g>
</g>
<!-- Node5&#45;&gt;Node6 -->
<g id="edge5" class="edge"><title>Node5&#45;&gt;Node6</title>
<path fill="none" stroke="midnightblue" d="M306.248,-309.5C319.682,-309.5 333.318,-309.5 345.902,-309.5"/>
<polygon fill="midnightblue" stroke="midnightblue" points="306.035,-306 296.035,-309.5 306.035,-313 306.035,-306"/>
</g>
<!-- Node10 -->
<g id="node10" class="node"><title>Node10</title>
<g id="a_node10"><a xlink:href="class_i_n_m_o_s_t_1_1enhanced__multivar__expression.html#a677fecf4942068b4c579c190b52dc409" target="_top" xlink:title="INMOST::enhanced_multivar\l_expression::GetDerivative">
<polygon fill="none" stroke="black" points="332,-147.5 332,-177.5 472,-177.5 472,-147.5 332,-147.5"/>
<text text-anchor="start" x="340" y="-165.5" font-family="Helvetica,sans-Serif" font-size="10.00">INMOST::enhanced_multivar</text>
<text text-anchor="middle" x="402" y="-154.5" font-family="Helvetica,sans-Serif" font-size="10.00">_expression::GetDerivative</text>
</a>
</g>
</g>
<!-- Node9&#45;&gt;Node10 -->
<g id="edge9" class="edge"><title>Node9&#45;&gt;Node10</title>
<path fill="none" stroke="midnightblue" d="M303.849,-162.5C313.223,-162.5 322.733,-162.5 331.949,-162.5"/>
<polygon fill="midnightblue" stroke="midnightblue" points="303.751,-159 293.751,-162.5 303.751,-166 303.751,-159"/>
</g>
<!-- Node14 -->
<g id="node14" class="node"><title>Node14</title>
<g id="a_node14"><a xlink:href="namespace_i_n_m_o_s_t.html#a22eaa3c4a301d2df158a997642f3e5d6" target="_top" xlink:title="INMOST::check_nans">
<polygon fill="none" stroke="black" points="346,-6 346,-25 458,-25 458,-6 346,-6"/>
<text text-anchor="middle" x="402" y="-13" font-family="Helvetica,sans-Serif" font-size="10.00">INMOST::check_nans</text>
</a>
</g>
</g>
<!-- Node13&#45;&gt;Node14 -->
<g id="edge13" class="edge"><title>Node13&#45;&gt;Node14</title>
<path fill="none" stroke="midnightblue" d="M303.976,-15.5C318.121,-15.5 332.57,-15.5 345.849,-15.5"/>
<polygon fill="midnightblue" stroke="midnightblue" points="303.751,-12.0001 293.751,-15.5 303.751,-19.0001 303.751,-12.0001"/>
</g>
</g>
</svg>
