<?xml version="1.0" encoding="UTF-8" standalone="no"?>
<!DOCTYPE svg PUBLIC "-//W3C//DTD SVG 1.1//EN"
 "http://www.w3.org/Graphics/SVG/1.1/DTD/svg11.dtd">
<!-- Generated by graphviz version 2.38.0 (20140413.2041)
 -->
<!-- Title: INMOST::Mesh::SetMarker Pages: 1 -->
<svg width="336pt" height="66pt"
 viewBox="0.00 0.00 336.00 66.00" xmlns="http://www.w3.org/2000/svg" xmlns:xlink="http://www.w3.org/1999/xlink">
<g id="graph0" class="graph" transform="scale(1 1) rotate(0) translate(4 62)">
<title>INMOST::Mesh::SetMarker</title>
<!-- Node1 -->
<g id="node1" class="node"><title>Node1</title>
<polygon fill="#bfbfbf" stroke="black" points="0,-19.5 0,-38.5 134,-38.5 134,-19.5 0,-19.5"/>
<text text-anchor="middle" x="67" y="-26.5" font-family="Helvetica,sans-Serif" font-size="10.00">INMOST::Mesh::SetMarker</text>
</g>
<!-- Node2 -->
<g id="node2" class="node"><title>Node2</title>
<g id="a_node2"><a xlink:href="class_i_n_m_o_s_t_1_1_mesh.html#a84ff5329978e77876ca6b1b3ed9b5c39" target="_top" xlink:title="INMOST::Mesh::SetMarkerArray">
<polygon fill="none" stroke="black" points="170,-38.5 170,-57.5 328,-57.5 328,-38.5 170,-38.5"/>
<text text-anchor="middle" x="249" y="-45.5" font-family="Helvetica,sans-Serif" font-size="10.00">INMOST::Mesh::SetMarkerArray</text>
</a>
</g>
</g>
<!-- Node1&#45;&gt;Node2 -->
<g id="edge1" class="edge"><title>Node1&#45;&gt;Node2</title>
<path fill="none" stroke="midnightblue" d="M144.22,-37.0455C152.681,-37.9386 161.309,-38.8493 169.794,-39.7449"/>
<polygon fill="midnightblue" stroke="midnightblue" points="144.315,-33.5362 134.003,-35.967 143.581,-40.4975 144.315,-33.5362"/>
</g>
<!-- Node3 -->
<g id="node3" class="node"><title>Node3</title>
<g id="a_node3"><a xlink:href="class_i_n_m_o_s_t_1_1_storage.html#a66b86d9ae28d429ff830735a63ecef4d" target="_top" xlink:title="INMOST::Storage::SetMarker">
<polygon fill="none" stroke="black" points="177,-0.5 177,-19.5 321,-19.5 321,-0.5 177,-0.5"/>
<text text-anchor="middle" x="249" y="-7.5" font-family="Helvetica,sans-Serif" font-size="10.00">INMOST::Storage::SetMarker</text>
</a>
</g>
</g>
<!-- Node1&#45;&gt;Node3 -->
<g id="edge2" class="edge"><title>Node1&#45;&gt;Node3</title>
<path fill="none" stroke="midnightblue" d="M144.261,-20.9502C155.069,-19.8094 166.147,-18.64 176.853,-17.5099"/>
<polygon fill="midnightblue" stroke="midnightblue" points="143.581,-17.5025 134.003,-22.033 144.315,-24.4638 143.581,-17.5025"/>
</g>
</g>
</svg>
