<?xml version="1.0" encoding="UTF-8" standalone="no"?>
<!DOCTYPE svg PUBLIC "-//W3C//DTD SVG 1.1//EN"
 "http://www.w3.org/Graphics/SVG/1.1/DTD/svg11.dtd">
<!-- Generated by graphviz version 2.38.0 (20140413.2041)
 -->
<!-- Title: INMOST::Mesh::LastLocalID Pages: 1 -->
<svg width="300pt" height="66pt"
 viewBox="0.00 0.00 300.00 66.00" xmlns="http://www.w3.org/2000/svg" xmlns:xlink="http://www.w3.org/1999/xlink">
<g id="graph0" class="graph" transform="scale(1 1) rotate(0) translate(4 62)">
<title>INMOST::Mesh::LastLocalID</title>
<!-- Node1 -->
<g id="node1" class="node"><title>Node1</title>
<polygon fill="#bfbfbf" stroke="black" points="0,-19.5 0,-38.5 140,-38.5 140,-19.5 0,-19.5"/>
<text text-anchor="middle" x="70" y="-26.5" font-family="Helvetica,sans-Serif" font-size="10.00">INMOST::Mesh::LastLocalID</text>
</g>
<!-- Node1&#45;&gt;Node1 -->
<g id="edge2" class="edge"><title>Node1&#45;&gt;Node1</title>
<path fill="none" stroke="midnightblue" d="M44.7228,-38.7571C32.4258,-47.5653 40.8516,-57 70,-57 89.5841,-57 99.8136,-52.741 100.689,-47.2746"/>
<polygon fill="midnightblue" stroke="midnightblue" points="103.594,-45.3207 95.2772,-38.7571 97.6856,-49.0745 103.594,-45.3207"/>
</g>
<!-- Node2 -->
<g id="node2" class="node"><title>Node2</title>
<g id="a_node2"><a xlink:href="namespace_i_n_m_o_s_t.html#a66b75096ead978424525d59fca979ce2" target="_top" xlink:title="INMOST::OneType">
<polygon fill="none" stroke="black" points="185,-38.5 185,-57.5 283,-57.5 283,-38.5 185,-38.5"/>
<text text-anchor="middle" x="234" y="-45.5" font-family="Helvetica,sans-Serif" font-size="10.00">INMOST::OneType</text>
</a>
</g>
</g>
<!-- Node1&#45;&gt;Node2 -->
<g id="edge1" class="edge"><title>Node1&#45;&gt;Node2</title>
<path fill="none" stroke="midnightblue" d="M140.172,-37.1128C151.629,-38.4565 163.408,-39.838 174.567,-41.1467"/>
<polygon fill="midnightblue" stroke="midnightblue" points="174.273,-44.6361 184.612,-42.3249 175.088,-37.6838 174.273,-44.6361"/>
</g>
<!-- Node3 -->
<g id="node3" class="node"><title>Node3</title>
<g id="a_node3"><a xlink:href="namespace_i_n_m_o_s_t.html#abfa34d6393c75e4cb6bbfbc1ded4f99a" target="_top" xlink:title="INMOST::ElementNum">
<polygon fill="none" stroke="black" points="176,-0.5 176,-19.5 292,-19.5 292,-0.5 176,-0.5"/>
<text text-anchor="middle" x="234" y="-7.5" font-family="Helvetica,sans-Serif" font-size="10.00">INMOST::ElementNum</text>
</a>
</g>
</g>
<!-- Node1&#45;&gt;Node3 -->
<g id="edge3" class="edge"><title>Node1&#45;&gt;Node3</title>
<path fill="none" stroke="midnightblue" d="M140.172,-20.8872C148.61,-19.8976 157.222,-18.8876 165.632,-17.9012"/>
<polygon fill="midnightblue" stroke="midnightblue" points="166.241,-21.3538 175.766,-16.7127 165.426,-14.4015 166.241,-21.3538"/>
</g>
</g>
</svg>
