<?xml version="1.0" encoding="UTF-8" standalone="no"?>
<!DOCTYPE svg PUBLIC "-//W3C//DTD SVG 1.1//EN"
 "http://www.w3.org/Graphics/SVG/1.1/DTD/svg11.dtd">
<!-- Generated by graphviz version 2.38.0 (20140413.2041)
 -->
<!-- Title: INMOST::Mesh::exchange_data Pages: 1 -->
<svg width="234pt" height="193pt"
 viewBox="0.00 0.00 234.00 193.00" xmlns="http://www.w3.org/2000/svg" xmlns:xlink="http://www.w3.org/1999/xlink">
<g id="graph0" class="graph" transform="scale(1 1) rotate(0) translate(4 189)">
<title>INMOST::Mesh::exchange_data</title>
<!-- Node1 -->
<g id="node1" class="node"><title>Node1</title>
<polygon fill="#bfbfbf" stroke="black" points="38.5,-0.5 38.5,-57.5 193.5,-57.5 193.5,-0.5 38.5,-0.5"/>
<text text-anchor="middle" x="116" y="-45.5" font-family="Helvetica,sans-Serif" font-size="10.00">INMOST::Mesh::exchange_data</text>
<polyline fill="none" stroke="black" points="38.5,-38.5 193.5,-38.5 "/>
<text text-anchor="middle" x="116" y="-26.5" font-family="Helvetica,sans-Serif" font-size="10.00"> </text>
<polyline fill="none" stroke="black" points="38.5,-19.5 193.5,-19.5 "/>
<text text-anchor="middle" x="116" y="-7.5" font-family="Helvetica,sans-Serif" font-size="10.00"> </text>
</g>
<!-- Node2 -->
<g id="node2" class="node"><title>Node2</title>
<polygon fill="none" stroke="#bfbfbf" points="0,-116.5 0,-184.5 110,-184.5 110,-116.5 0,-116.5"/>
<text text-anchor="start" x="8" y="-172.5" font-family="Helvetica,sans-Serif" font-size="10.00">vector&lt; INMOST_MPI</text>
<text text-anchor="middle" x="55" y="-161.5" font-family="Helvetica,sans-Serif" font-size="10.00">_Request &gt;</text>
<polyline fill="none" stroke="#bfbfbf" points="0,-154.5 110,-154.5 "/>
<text text-anchor="middle" x="55" y="-142.5" font-family="Helvetica,sans-Serif" font-size="10.00"> </text>
<polyline fill="none" stroke="#bfbfbf" points="0,-135.5 110,-135.5 "/>
<text text-anchor="middle" x="55" y="-123.5" font-family="Helvetica,sans-Serif" font-size="10.00"> </text>
</g>
<!-- Node2&#45;&gt;Node1 -->
<g id="edge1" class="edge"><title>Node2&#45;&gt;Node1</title>
<path fill="none" stroke="#404040" d="M71.9919,-116.213C79.5376,-101.43 88.4657,-83.9401 96.3015,-68.5896"/>
<polygon fill="none" stroke="#404040" points="96.3229,-68.5476 95.4882,-61.385 101.779,-57.8596 102.614,-65.0222 96.3229,-68.5476"/>
<text text-anchor="middle" x="118.5" y="-90" font-family="Helvetica,sans-Serif" font-size="10.00"> +send_reqs</text>
<text text-anchor="middle" x="118.5" y="-79" font-family="Helvetica,sans-Serif" font-size="10.00">+recv_reqs</text>
</g>
<!-- Node3 -->
<g id="node3" class="node"><title>Node3</title>
<polygon fill="none" stroke="#bfbfbf" points="128,-116.5 128,-184.5 226,-184.5 226,-116.5 128,-116.5"/>
<text text-anchor="start" x="136" y="-172.5" font-family="Helvetica,sans-Serif" font-size="10.00">vector&lt; proc_buffer</text>
<text text-anchor="middle" x="177" y="-161.5" font-family="Helvetica,sans-Serif" font-size="10.00">_type &gt;</text>
<polyline fill="none" stroke="#bfbfbf" points="128,-154.5 226,-154.5 "/>
<text text-anchor="middle" x="177" y="-142.5" font-family="Helvetica,sans-Serif" font-size="10.00"> </text>
<polyline fill="none" stroke="#bfbfbf" points="128,-135.5 226,-135.5 "/>
<text text-anchor="middle" x="177" y="-123.5" font-family="Helvetica,sans-Serif" font-size="10.00"> </text>
</g>
<!-- Node3&#45;&gt;Node1 -->
<g id="edge2" class="edge"><title>Node3&#45;&gt;Node1</title>
<path fill="none" stroke="#404040" d="M167.095,-116.434C162.64,-103.467 156.836,-88.6851 150,-76 148.557,-73.3227 146.973,-70.6277 145.302,-67.9574"/>
<polygon fill="none" stroke="#404040" points="145.223,-67.8393 138.559,-65.0826 138.541,-57.8715 145.205,-60.6282 145.223,-67.8393"/>
<text text-anchor="middle" x="191" y="-90" font-family="Helvetica,sans-Serif" font-size="10.00"> +send_buffers</text>
<text text-anchor="middle" x="191" y="-79" font-family="Helvetica,sans-Serif" font-size="10.00">+recv_buffers</text>
</g>
</g>
</svg>
