<?xml version="1.0" encoding="UTF-8" standalone="no"?>
<!DOCTYPE svg PUBLIC "-//W3C//DTD SVG 1.1//EN"
 "http://www.w3.org/Graphics/SVG/1.1/DTD/svg11.dtd">
<!-- Generated by graphviz version 2.38.0 (20140413.2041)
 -->
<!-- Title: INMOST::dynarray::push_back Pages: 1 -->
<svg width="531pt" height="208pt"
 viewBox="0.00 0.00 531.00 208.00" xmlns="http://www.w3.org/2000/svg" xmlns:xlink="http://www.w3.org/1999/xlink">
<g id="graph0" class="graph" transform="scale(1 1) rotate(0) translate(4 204)">
<title>INMOST::dynarray::push_back</title>
<!-- Node1 -->
<g id="node1" class="node"><title>Node1</title>
<polygon fill="#bfbfbf" stroke="black" points="0,-111.5 0,-130.5 150,-130.5 150,-111.5 0,-111.5"/>
<text text-anchor="middle" x="75" y="-118.5" font-family="Helvetica,sans-Serif" font-size="10.00">INMOST::dynarray::push_back</text>
</g>
<!-- Node2 -->
<g id="node2" class="node"><title>Node2</title>
<g id="a_node2"><a xlink:href="class_i_n_m_o_s_t_1_1tiny__map.html#a37e9010b0f4a05d6f24016fa4eed4cad" target="_top" xlink:title="INMOST::tiny_map::operator[]">
<polygon fill="none" stroke="black" points="186,-180.5 186,-199.5 332,-199.5 332,-180.5 186,-180.5"/>
<text text-anchor="middle" x="259" y="-187.5" font-family="Helvetica,sans-Serif" font-size="10.00">INMOST::tiny_map::operator[]</text>
</a>
</g>
</g>
<!-- Node1&#45;&gt;Node2 -->
<g id="edge1" class="edge"><title>Node1&#45;&gt;Node2</title>
<path fill="none" stroke="midnightblue" d="M103.733,-135.184C125.658,-146.009 157.254,-160.756 186,-171 195.864,-174.515 206.694,-177.708 216.891,-180.43"/>
<polygon fill="midnightblue" stroke="midnightblue" points="105.186,-131.998 94.6756,-130.664 102.06,-138.261 105.186,-131.998"/>
</g>
<!-- Node3 -->
<g id="node3" class="node"><title>Node3</title>
<g id="a_node3"><a xlink:href="class_i_n_m_o_s_t_1_1_element_array.html#a12e39ff84d7862daff58db1536fc47b9" target="_top" xlink:title="INMOST::ElementArray\l::push_back">
<polygon fill="none" stroke="black" points="199.5,-131 199.5,-161 318.5,-161 318.5,-131 199.5,-131"/>
<text text-anchor="start" x="207.5" y="-149" font-family="Helvetica,sans-Serif" font-size="10.00">INMOST::ElementArray</text>
<text text-anchor="middle" x="259" y="-138" font-family="Helvetica,sans-Serif" font-size="10.00">::push_back</text>
</a>
</g>
</g>
<!-- Node1&#45;&gt;Node3 -->
<g id="edge2" class="edge"><title>Node1&#45;&gt;Node3</title>
<path fill="none" stroke="midnightblue" d="M155.431,-131.911C170.151,-133.933 185.282,-136.011 199.248,-137.93"/>
<polygon fill="midnightblue" stroke="midnightblue" points="155.709,-128.416 145.326,-130.523 154.756,-135.351 155.709,-128.416"/>
</g>
<!-- Node4 -->
<g id="node4" class="node"><title>Node4</title>
<g id="a_node4"><a xlink:href="class_i_n_m_o_s_t_1_1_sparse_1_1_row.html#a83a6d4d1d39d80fa77ab3d588937eea9" target="_top" xlink:title="The operator [] used to fill the sparse matrix row, but not to access individual elements of the row...">
<polygon fill="none" stroke="black" points="201.5,-82 201.5,-112 316.5,-112 316.5,-82 201.5,-82"/>
<text text-anchor="start" x="209.5" y="-100" font-family="Helvetica,sans-Serif" font-size="10.00">INMOST::Sparse::Row</text>
<text text-anchor="middle" x="259" y="-89" font-family="Helvetica,sans-Serif" font-size="10.00">::operator[]</text>
</a>
</g>
</g>
<!-- Node1&#45;&gt;Node4 -->
<g id="edge3" class="edge"><title>Node1&#45;&gt;Node4</title>
<path fill="none" stroke="midnightblue" d="M158.215,-110.158C172.789,-108.237 187.666,-106.275 201.333,-104.473"/>
<polygon fill="midnightblue" stroke="midnightblue" points="157.649,-106.703 148.193,-111.48 158.564,-113.643 157.649,-106.703"/>
</g>
<!-- Node5 -->
<g id="node5" class="node"><title>Node5</title>
<g id="a_node5"><a xlink:href="class_i_n_m_o_s_t_1_1_sparse_1_1_row.html#aefe7d07de8417241a0e222313e9fa9e0" target="_top" xlink:title="INMOST::Sparse::Row\l::Push">
<polygon fill="none" stroke="black" points="201.5,-33 201.5,-63 316.5,-63 316.5,-33 201.5,-33"/>
<text text-anchor="start" x="209.5" y="-51" font-family="Helvetica,sans-Serif" font-size="10.00">INMOST::Sparse::Row</text>
<text text-anchor="middle" x="259" y="-40" font-family="Helvetica,sans-Serif" font-size="10.00">::Push</text>
</a>
</g>
</g>
<!-- Node1&#45;&gt;Node5 -->
<g id="edge4" class="edge"><title>Node1&#45;&gt;Node5</title>
<path fill="none" stroke="midnightblue" d="M105.625,-107.331C127.619,-97.3648 158.447,-83.7763 186,-73 194.626,-69.6262 203.918,-66.2282 212.867,-63.0715"/>
<polygon fill="midnightblue" stroke="midnightblue" points="104.13,-104.166 96.4808,-111.496 107.032,-110.536 104.13,-104.166"/>
</g>
<!-- Node6 -->
<g id="node6" class="node"><title>Node6</title>
<g id="a_node6"><a xlink:href="class_i_n_m_o_s_t_1_1multivar__expression.html#a4cc78b01ea5377add0e8a1eeadbd9282" target="_top" xlink:title="INMOST::multivar_expression\l::multivar_expression">
<polygon fill="none" stroke="black" points="373,-61 373,-91 518,-91 518,-61 373,-61"/>
<text text-anchor="start" x="381" y="-79" font-family="Helvetica,sans-Serif" font-size="10.00">INMOST::multivar_expression</text>
<text text-anchor="middle" x="445.5" y="-68" font-family="Helvetica,sans-Serif" font-size="10.00">::multivar_expression</text>
</a>
</g>
</g>
<!-- Node5&#45;&gt;Node6 -->
<g id="edge5" class="edge"><title>Node5&#45;&gt;Node6</title>
<path fill="none" stroke="midnightblue" d="M326.819,-58.1405C341.821,-60.4173 357.797,-62.8418 372.982,-65.1463"/>
<polygon fill="midnightblue" stroke="midnightblue" points="327.022,-54.6313 316.61,-56.5912 325.972,-61.5521 327.022,-54.6313"/>
</g>
<!-- Node7 -->
<g id="node7" class="node"><title>Node7</title>
<g id="a_node7"><a xlink:href="class_i_n_m_o_s_t_1_1enhanced__multivar__expression.html#a8335b26ac9e1fdcb252f3626052c0025" target="_top" xlink:title="INMOST::enhanced_multivar\l_expression::enhanced_multivar\l_expression">
<polygon fill="none" stroke="black" points="368,-0.5 368,-41.5 523,-41.5 523,-0.5 368,-0.5"/>
<text text-anchor="start" x="376" y="-29.5" font-family="Helvetica,sans-Serif" font-size="10.00">INMOST::enhanced_multivar</text>
<text text-anchor="start" x="376" y="-18.5" font-family="Helvetica,sans-Serif" font-size="10.00">_expression::enhanced_multivar</text>
<text text-anchor="middle" x="445.5" y="-7.5" font-family="Helvetica,sans-Serif" font-size="10.00">_expression</text>
</a>
</g>
</g>
<!-- Node5&#45;&gt;Node7 -->
<g id="edge6" class="edge"><title>Node5&#45;&gt;Node7</title>
<path fill="none" stroke="midnightblue" d="M326.68,-38.242C340.074,-36.2818 354.25,-34.2073 367.949,-32.2025"/>
<polygon fill="midnightblue" stroke="midnightblue" points="325.998,-34.8044 316.61,-39.7156 327.011,-41.7307 325.998,-34.8044"/>
</g>
</g>
</svg>
