<?xml version="1.0" encoding="UTF-8" standalone="no"?>
<!DOCTYPE svg PUBLIC "-//W3C//DTD SVG 1.1//EN"
 "http://www.w3.org/Graphics/SVG/1.1/DTD/svg11.dtd">
<!-- Generated by graphviz version 2.38.0 (20140413.2041)
 -->
<!-- Title: INMOST::Mesh::Destroy Pages: 1 -->
<svg width="312pt" height="46pt"
 viewBox="0.00 0.00 312.00 46.00" xmlns="http://www.w3.org/2000/svg" xmlns:xlink="http://www.w3.org/1999/xlink">
<g id="graph0" class="graph" transform="scale(1 1) rotate(0) translate(4 42)">
<title>INMOST::Mesh::Destroy</title>
<!-- Node1 -->
<g id="node1" class="node"><title>Node1</title>
<polygon fill="#bfbfbf" stroke="black" points="0,-0.5 0,-19.5 123,-19.5 123,-0.5 0,-0.5"/>
<text text-anchor="middle" x="61.5" y="-7.5" font-family="Helvetica,sans-Serif" font-size="10.00">INMOST::Mesh::Destroy</text>
</g>
<!-- Node1&#45;&gt;Node1 -->
<g id="edge1" class="edge"><title>Node1&#45;&gt;Node1</title>
<path fill="none" stroke="midnightblue" d="M35.2981,-19.7571C22.5512,-28.5653 31.2852,-38 61.5,-38 81.8006,-38 92.4044,-33.741 93.3114,-28.2746"/>
<polygon fill="midnightblue" stroke="midnightblue" points="96.1252,-26.1836 87.7019,-19.7571 90.2791,-30.0337 96.1252,-26.1836"/>
</g>
<!-- Node2 -->
<g id="node2" class="node"><title>Node2</title>
<g id="a_node2"><a xlink:href="class_i_n_m_o_s_t_1_1_storage.html#ac79e3f3664b2ff21892f37bce0caa0e0" target="_top" xlink:title="INMOST::Storage::GetHandle">
<polygon fill="none" stroke="black" points="159,-0.5 159,-19.5 304,-19.5 304,-0.5 159,-0.5"/>
<text text-anchor="middle" x="231.5" y="-7.5" font-family="Helvetica,sans-Serif" font-size="10.00">INMOST::Storage::GetHandle</text>
</a>
</g>
</g>
<!-- Node1&#45;&gt;Node2 -->
<g id="edge2" class="edge"><title>Node1&#45;&gt;Node2</title>
<path fill="none" stroke="midnightblue" d="M123.152,-10C131.461,-10 140.101,-10 148.71,-10"/>
<polygon fill="midnightblue" stroke="midnightblue" points="148.781,-13.5001 158.781,-10 148.781,-6.5001 148.781,-13.5001"/>
</g>
</g>
</svg>
