<?xml version="1.0" encoding="UTF-8" standalone="no"?>
<!DOCTYPE svg PUBLIC "-//W3C//DTD SVG 1.1//EN"
 "http://www.w3.org/Graphics/SVG/1.1/DTD/svg11.dtd">
<!-- Generated by graphviz version 2.38.0 (20140413.2041)
 -->
<!-- Title: INMOST::Storage::SetMarker Pages: 1 -->
<svg width="526pt" height="180pt"
 viewBox="0.00 0.00 526.00 180.00" xmlns="http://www.w3.org/2000/svg" xmlns:xlink="http://www.w3.org/1999/xlink">
<g id="graph0" class="graph" transform="scale(1 1) rotate(0) translate(4 176)">
<title>INMOST::Storage::SetMarker</title>
<!-- Node1 -->
<g id="node1" class="node"><title>Node1</title>
<polygon fill="#bfbfbf" stroke="black" points="0,-57.5 0,-76.5 144,-76.5 144,-57.5 0,-57.5"/>
<text text-anchor="middle" x="72" y="-64.5" font-family="Helvetica,sans-Serif" font-size="10.00">INMOST::Storage::SetMarker</text>
</g>
<!-- Node2 -->
<g id="node2" class="node"><title>Node2</title>
<g id="a_node2"><a xlink:href="class_i_n_m_o_s_t_1_1_storage.html#a59da31b96c2b4e09e260f0deb4dae4d9" target="_top" xlink:title="INMOST::Storage::isValid">
<polygon fill="none" stroke="black" points="188.5,-114.5 188.5,-133.5 316.5,-133.5 316.5,-114.5 188.5,-114.5"/>
<text text-anchor="middle" x="252.5" y="-121.5" font-family="Helvetica,sans-Serif" font-size="10.00">INMOST::Storage::isValid</text>
</a>
</g>
</g>
<!-- Node1&#45;&gt;Node2 -->
<g id="edge1" class="edge"><title>Node1&#45;&gt;Node2</title>
<path fill="none" stroke="midnightblue" d="M102.877,-76.5405C132.738,-86.076 178.827,-100.794 211.76,-111.31"/>
<polygon fill="midnightblue" stroke="midnightblue" points="210.935,-114.72 221.526,-114.428 213.064,-108.052 210.935,-114.72"/>
</g>
<!-- Node4 -->
<g id="node4" class="node"><title>Node4</title>
<g id="a_node4"><a xlink:href="class_i_n_m_o_s_t_1_1_storage.html#a20d218fc89f75ca8534707b4f697173e" target="_top" xlink:title="INMOST::Storage::GetMeshLink">
<polygon fill="none" stroke="black" points="361,-76.5 361,-95.5 518,-95.5 518,-76.5 361,-76.5"/>
<text text-anchor="middle" x="439.5" y="-83.5" font-family="Helvetica,sans-Serif" font-size="10.00">INMOST::Storage::GetMeshLink</text>
</a>
</g>
</g>
<!-- Node1&#45;&gt;Node4 -->
<g id="edge5" class="edge"><title>Node1&#45;&gt;Node4</title>
<path fill="none" stroke="midnightblue" d="M144.34,-70.7085C203.279,-73.7724 287.22,-78.1359 350.358,-81.4181"/>
<polygon fill="midnightblue" stroke="midnightblue" points="350.533,-84.9318 360.701,-81.9557 350.896,-77.9412 350.533,-84.9318"/>
</g>
<!-- Node6 -->
<g id="node6" class="node"><title>Node6</title>
<g id="a_node6"><a xlink:href="class_i_n_m_o_s_t_1_1_mesh.html#ab0eb79ff655477197ce21dedae4712d4" target="_top" xlink:title="INMOST::Mesh::SetMarker">
<polygon fill="none" stroke="black" points="185.5,-38.5 185.5,-57.5 319.5,-57.5 319.5,-38.5 185.5,-38.5"/>
<text text-anchor="middle" x="252.5" y="-45.5" font-family="Helvetica,sans-Serif" font-size="10.00">INMOST::Mesh::SetMarker</text>
</a>
</g>
</g>
<!-- Node1&#45;&gt;Node6 -->
<g id="edge6" class="edge"><title>Node1&#45;&gt;Node6</title>
<path fill="none" stroke="midnightblue" d="M144.061,-59.4361C154.269,-58.3495 164.809,-57.2276 175.115,-56.1306"/>
<polygon fill="midnightblue" stroke="midnightblue" points="175.749,-59.583 185.323,-55.0441 175.008,-52.6223 175.749,-59.583"/>
</g>
<!-- Node7 -->
<g id="node7" class="node"><title>Node7</title>
<g id="a_node7"><a xlink:href="class_i_n_m_o_s_t_1_1_storage.html#ac79e3f3664b2ff21892f37bce0caa0e0" target="_top" xlink:title="INMOST::Storage::GetHandle">
<polygon fill="none" stroke="black" points="180,-0.5 180,-19.5 325,-19.5 325,-0.5 180,-0.5"/>
<text text-anchor="middle" x="252.5" y="-7.5" font-family="Helvetica,sans-Serif" font-size="10.00">INMOST::Storage::GetHandle</text>
</a>
</g>
</g>
<!-- Node1&#45;&gt;Node7 -->
<g id="edge7" class="edge"><title>Node1&#45;&gt;Node7</title>
<path fill="none" stroke="midnightblue" d="M98.3154,-57.3519C119.874,-49.2942 151.755,-37.7522 180,-29 187.505,-26.6745 195.506,-24.3754 203.337,-22.223"/>
<polygon fill="midnightblue" stroke="midnightblue" points="204.373,-25.5687 213.116,-19.5841 202.549,-18.8105 204.373,-25.5687"/>
</g>
<!-- Node3 -->
<g id="node3" class="node"><title>Node3</title>
<g id="a_node3"><a xlink:href="namespace_i_n_m_o_s_t.html#a115b3e54c3b7be04ffec9b69c058df18" target="_top" xlink:title="INMOST::InvalidHandle">
<polygon fill="none" stroke="black" points="381.5,-152.5 381.5,-171.5 497.5,-171.5 497.5,-152.5 381.5,-152.5"/>
<text text-anchor="middle" x="439.5" y="-159.5" font-family="Helvetica,sans-Serif" font-size="10.00">INMOST::InvalidHandle</text>
</a>
</g>
</g>
<!-- Node2&#45;&gt;Node3 -->
<g id="edge2" class="edge"><title>Node2&#45;&gt;Node3</title>
<path fill="none" stroke="midnightblue" d="M300.183,-133.589C325.146,-138.716 356.064,-145.067 382.334,-150.463"/>
<polygon fill="midnightblue" stroke="midnightblue" points="381.653,-153.896 392.152,-152.48 383.061,-147.039 381.653,-153.896"/>
</g>
<!-- Node2&#45;&gt;Node4 -->
<g id="edge3" class="edge"><title>Node2&#45;&gt;Node4</title>
<path fill="none" stroke="midnightblue" d="M300.183,-114.411C325.146,-109.284 356.064,-102.933 382.334,-97.5368"/>
<polygon fill="midnightblue" stroke="midnightblue" points="383.061,-100.961 392.152,-95.5201 381.653,-94.1038 383.061,-100.961"/>
</g>
<!-- Node5 -->
<g id="node5" class="node"><title>Node5</title>
<g id="a_node5"><a xlink:href="class_i_n_m_o_s_t_1_1_mesh.html#a05701da4bd3ed8ca69bbcca256c2b0e2" target="_top" xlink:title="INMOST::Mesh::isValidElement">
<polygon fill="none" stroke="black" points="362,-114.5 362,-133.5 517,-133.5 517,-114.5 362,-114.5"/>
<text text-anchor="middle" x="439.5" y="-121.5" font-family="Helvetica,sans-Serif" font-size="10.00">INMOST::Mesh::isValidElement</text>
</a>
</g>
</g>
<!-- Node2&#45;&gt;Node5 -->
<g id="edge4" class="edge"><title>Node2&#45;&gt;Node5</title>
<path fill="none" stroke="midnightblue" d="M316.649,-124C327.902,-124 339.802,-124 351.581,-124"/>
<polygon fill="midnightblue" stroke="midnightblue" points="351.881,-127.5 361.881,-124 351.881,-120.5 351.881,-127.5"/>
</g>
</g>
</svg>
