<?xml version="1.0" encoding="UTF-8" standalone="no"?>
<!DOCTYPE svg PUBLIC "-//W3C//DTD SVG 1.1//EN"
 "http://www.w3.org/Graphics/SVG/1.1/DTD/svg11.dtd">
<!-- Generated by graphviz version 2.38.0 (20140413.2041)
 -->
<!-- Title: INMOST::Sparse::RowMerger::Merge Pages: 1 -->
<svg width="334pt" height="186pt"
 viewBox="0.00 0.00 334.00 186.00" xmlns="http://www.w3.org/2000/svg" xmlns:xlink="http://www.w3.org/1999/xlink">
<g id="graph0" class="graph" transform="scale(1 1) rotate(0) translate(4 182)">
<title>INMOST::Sparse::RowMerger::Merge</title>
<!-- Node1 -->
<g id="node1" class="node"><title>Node1</title>
<polygon fill="#bfbfbf" stroke="black" points="0,-73.5 0,-103.5 145,-103.5 145,-73.5 0,-73.5"/>
<text text-anchor="start" x="8" y="-91.5" font-family="Helvetica,sans-Serif" font-size="10.00">INMOST::Sparse::RowMerger</text>
<text text-anchor="middle" x="72.5" y="-80.5" font-family="Helvetica,sans-Serif" font-size="10.00">::Merge</text>
</g>
<!-- Node2 -->
<g id="node2" class="node"><title>Node2</title>
<g id="a_node2"><a xlink:href="class_i_n_m_o_s_t_1_1_sparse_1_1_row_merger.html#a16f262c7b5e1c03ca1aef57c5c8984dd" target="_top" xlink:title="INMOST::Sparse::RowMerger\l::PushRow">
<polygon fill="none" stroke="black" points="181,-147.5 181,-177.5 326,-177.5 326,-147.5 181,-147.5"/>
<text text-anchor="start" x="189" y="-165.5" font-family="Helvetica,sans-Serif" font-size="10.00">INMOST::Sparse::RowMerger</text>
<text text-anchor="middle" x="253.5" y="-154.5" font-family="Helvetica,sans-Serif" font-size="10.00">::PushRow</text>
</a>
</g>
</g>
<!-- Node1&#45;&gt;Node2 -->
<g id="edge1" class="edge"><title>Node1&#45;&gt;Node2</title>
<path fill="none" stroke="midnightblue" d="M103.686,-103.642C125.017,-114.069 154.426,-127.898 181,-138.5 185.743,-140.392 190.7,-142.265 195.697,-144.08"/>
<polygon fill="midnightblue" stroke="midnightblue" points="194.712,-147.444 205.307,-147.49 197.053,-140.847 194.712,-147.444"/>
</g>
<!-- Node3 -->
<g id="node3" class="node"><title>Node3</title>
<g id="a_node3"><a xlink:href="class_i_n_m_o_s_t_1_1_sparse_1_1_row_merger.html#a1ca4322ea16f7a9e4679f787a7b03951" target="_top" xlink:title="INMOST::Sparse::RowMerger\l::AddRow">
<polygon fill="none" stroke="black" points="181,-98.5 181,-128.5 326,-128.5 326,-98.5 181,-98.5"/>
<text text-anchor="start" x="189" y="-116.5" font-family="Helvetica,sans-Serif" font-size="10.00">INMOST::Sparse::RowMerger</text>
<text text-anchor="middle" x="253.5" y="-105.5" font-family="Helvetica,sans-Serif" font-size="10.00">::AddRow</text>
</a>
</g>
</g>
<!-- Node1&#45;&gt;Node3 -->
<g id="edge2" class="edge"><title>Node1&#45;&gt;Node3</title>
<path fill="none" stroke="midnightblue" d="M145.017,-98.4884C153.486,-99.6713 162.179,-100.885 170.776,-102.086"/>
<polygon fill="midnightblue" stroke="midnightblue" points="170.416,-105.57 180.804,-103.487 171.385,-98.637 170.416,-105.57"/>
</g>
<!-- Node4 -->
<g id="node4" class="node"><title>Node4</title>
<g id="a_node4"><a xlink:href="class_i_n_m_o_s_t_1_1_sparse_1_1_row_merger.html#ac89fd9b0b08606d13e7e57c93d8c5089" target="_top" xlink:title="INMOST::Sparse::RowMerger\l::RetriveRow">
<polygon fill="none" stroke="black" points="181,-49.5 181,-79.5 326,-79.5 326,-49.5 181,-49.5"/>
<text text-anchor="start" x="189" y="-67.5" font-family="Helvetica,sans-Serif" font-size="10.00">INMOST::Sparse::RowMerger</text>
<text text-anchor="middle" x="253.5" y="-56.5" font-family="Helvetica,sans-Serif" font-size="10.00">::RetriveRow</text>
</a>
</g>
</g>
<!-- Node1&#45;&gt;Node4 -->
<g id="edge3" class="edge"><title>Node1&#45;&gt;Node4</title>
<path fill="none" stroke="midnightblue" d="M145.017,-78.9111C153.486,-77.7756 162.179,-76.61 170.776,-75.4574"/>
<polygon fill="midnightblue" stroke="midnightblue" points="171.358,-78.9108 180.804,-74.1128 170.428,-71.9729 171.358,-78.9108"/>
</g>
<!-- Node5 -->
<g id="node5" class="node"><title>Node5</title>
<g id="a_node5"><a xlink:href="class_i_n_m_o_s_t_1_1_sparse_1_1_row_merger.html#ac3cceb3d381017712c7e8dc4c23b85a2" target="_top" xlink:title="Clear linked list. ">
<polygon fill="none" stroke="black" points="181,-0.5 181,-30.5 326,-30.5 326,-0.5 181,-0.5"/>
<text text-anchor="start" x="189" y="-18.5" font-family="Helvetica,sans-Serif" font-size="10.00">INMOST::Sparse::RowMerger</text>
<text text-anchor="middle" x="253.5" y="-7.5" font-family="Helvetica,sans-Serif" font-size="10.00">::Clear</text>
</a>
</g>
</g>
<!-- Node1&#45;&gt;Node5 -->
<g id="edge4" class="edge"><title>Node1&#45;&gt;Node5</title>
<path fill="none" stroke="midnightblue" d="M105.659,-73.2946C126.864,-63.4788 155.357,-50.6875 181,-40.5 186.48,-38.3228 192.235,-36.1412 197.999,-34.0236"/>
<polygon fill="midnightblue" stroke="midnightblue" points="199.446,-37.2221 207.662,-30.5323 197.068,-30.6386 199.446,-37.2221"/>
</g>
</g>
</svg>
