<?xml version="1.0" encoding="UTF-8" standalone="no"?>
<!DOCTYPE svg PUBLIC "-//W3C//DTD SVG 1.1//EN"
 "http://www.w3.org/Graphics/SVG/1.1/DTD/svg11.dtd">
<!-- Generated by graphviz version 2.38.0 (20140413.2041)
 -->
<!-- Title: INMOST::Mesh::NumberOfAll Pages: 1 -->
<svg width="708pt" height="167pt"
 viewBox="0.00 0.00 708.00 166.59" xmlns="http://www.w3.org/2000/svg" xmlns:xlink="http://www.w3.org/1999/xlink">
<g id="graph0" class="graph" transform="scale(1 1) rotate(0) translate(4 162.59)">
<title>INMOST::Mesh::NumberOfAll</title>
<!-- Node1 -->
<g id="node1" class="node"><title>Node1</title>
<polygon fill="#bfbfbf" stroke="black" points="0,-104.5 0,-123.5 144,-123.5 144,-104.5 0,-104.5"/>
<text text-anchor="middle" x="72" y="-111.5" font-family="Helvetica,sans-Serif" font-size="10.00">INMOST::Mesh::NumberOfAll</text>
</g>
<!-- Node2 -->
<g id="node2" class="node"><title>Node2</title>
<g id="a_node2"><a xlink:href="class_i_n_m_o_s_t_1_1_mesh.html#abeeaa462c78ce8a82e0e3e87c55e4455" target="_top" xlink:title="INMOST::Mesh::NumberOfSets">
<polygon fill="none" stroke="black" points="190.5,-133.5 190.5,-152.5 343.5,-152.5 343.5,-133.5 190.5,-133.5"/>
<text text-anchor="middle" x="267" y="-140.5" font-family="Helvetica,sans-Serif" font-size="10.00">INMOST::Mesh::NumberOfSets</text>
</a>
</g>
</g>
<!-- Node1&#45;&gt;Node2 -->
<g id="edge1" class="edge"><title>Node1&#45;&gt;Node2</title>
<path fill="none" stroke="midnightblue" d="M136.463,-123.536C154.354,-126.224 173.968,-129.171 192.4,-131.941"/>
<polygon fill="midnightblue" stroke="midnightblue" points="192.09,-135.434 202.499,-133.458 193.13,-128.511 192.09,-135.434"/>
</g>
<!-- Node4 -->
<g id="node4" class="node"><title>Node4</title>
<g id="a_node4"><a xlink:href="class_i_n_m_o_s_t_1_1_mesh.html#a7aee6d7f5b7432dc34bc7319a9e1e8f4" target="_top" xlink:title="INMOST::Mesh::NumberOfElements">
<polygon fill="none" stroke="black" points="180,-76.5 180,-95.5 354,-95.5 354,-76.5 180,-76.5"/>
<text text-anchor="middle" x="267" y="-83.5" font-family="Helvetica,sans-Serif" font-size="10.00">INMOST::Mesh::NumberOfElements</text>
</a>
</g>
</g>
<!-- Node1&#45;&gt;Node4 -->
<g id="edge3" class="edge"><title>Node1&#45;&gt;Node4</title>
<path fill="none" stroke="midnightblue" d="M138.61,-104.481C155.236,-102.069 173.229,-99.4589 190.31,-96.981"/>
<polygon fill="midnightblue" stroke="midnightblue" points="190.85,-100.439 200.243,-95.5398 189.844,-93.5119 190.85,-100.439"/>
</g>
<!-- Node3 -->
<g id="node3" class="node"><title>Node3</title>
<g id="a_node3"><a xlink:href="class_i_n_m_o_s_t_1_1chunk__array.html#a3133c45f74d39c2271889033147567c9" target="_top" xlink:title="INMOST::chunk_array\l::size">
<polygon fill="none" stroke="black" points="587,-71 587,-101 700,-101 700,-71 587,-71"/>
<text text-anchor="start" x="595" y="-89" font-family="Helvetica,sans-Serif" font-size="10.00">INMOST::chunk_array</text>
<text text-anchor="middle" x="643.5" y="-78" font-family="Helvetica,sans-Serif" font-size="10.00">::size</text>
</a>
</g>
</g>
<!-- Node2&#45;&gt;Node3 -->
<g id="edge2" class="edge"><title>Node2&#45;&gt;Node3</title>
<path fill="none" stroke="midnightblue" d="M328.961,-152.516C387.199,-159.405 476.836,-164.211 551,-143 575.433,-136.012 599.688,-120.402 617.081,-107.281"/>
<polygon fill="midnightblue" stroke="midnightblue" points="619.296,-109.993 625.039,-101.089 614.997,-104.468 619.296,-109.993"/>
</g>
<!-- Node5 -->
<g id="node5" class="node"><title>Node5</title>
<g id="a_node5"><a xlink:href="class_i_n_m_o_s_t_1_1_mesh.html#a245f0558fa7181cf6789db69c4005b33" target="_top" xlink:title="INMOST::Mesh::NumberOfCells">
<polygon fill="none" stroke="black" points="393,-114.5 393,-133.5 548,-133.5 548,-114.5 393,-114.5"/>
<text text-anchor="middle" x="470.5" y="-121.5" font-family="Helvetica,sans-Serif" font-size="10.00">INMOST::Mesh::NumberOfCells</text>
</a>
</g>
</g>
<!-- Node4&#45;&gt;Node5 -->
<g id="edge4" class="edge"><title>Node4&#45;&gt;Node5</title>
<path fill="none" stroke="midnightblue" d="M318.587,-95.54C346.013,-100.712 380.098,-107.14 408.932,-112.578"/>
<polygon fill="midnightblue" stroke="midnightblue" points="408.417,-116.042 418.892,-114.456 409.714,-109.163 408.417,-116.042"/>
</g>
<!-- Node6 -->
<g id="node6" class="node"><title>Node6</title>
<g id="a_node6"><a xlink:href="class_i_n_m_o_s_t_1_1_mesh.html#a67db1a1d141e8d7cb93ca1284777bb08" target="_top" xlink:title="INMOST::Mesh::NumberOfFaces">
<polygon fill="none" stroke="black" points="390.5,-76.5 390.5,-95.5 550.5,-95.5 550.5,-76.5 390.5,-76.5"/>
<text text-anchor="middle" x="470.5" y="-83.5" font-family="Helvetica,sans-Serif" font-size="10.00">INMOST::Mesh::NumberOfFaces</text>
</a>
</g>
</g>
<!-- Node4&#45;&gt;Node6 -->
<g id="edge6" class="edge"><title>Node4&#45;&gt;Node6</title>
<path fill="none" stroke="midnightblue" d="M354.039,-86C362.726,-86 371.563,-86 380.283,-86"/>
<polygon fill="midnightblue" stroke="midnightblue" points="380.45,-89.5001 390.45,-86 380.45,-82.5001 380.45,-89.5001"/>
</g>
<!-- Node7 -->
<g id="node7" class="node"><title>Node7</title>
<g id="a_node7"><a xlink:href="class_i_n_m_o_s_t_1_1_mesh.html#a404c19f0ddf24cd968de766cf130b371" target="_top" xlink:title="INMOST::Mesh::NumberOfEdges">
<polygon fill="none" stroke="black" points="390,-38.5 390,-57.5 551,-57.5 551,-38.5 390,-38.5"/>
<text text-anchor="middle" x="470.5" y="-45.5" font-family="Helvetica,sans-Serif" font-size="10.00">INMOST::Mesh::NumberOfEdges</text>
</a>
</g>
</g>
<!-- Node4&#45;&gt;Node7 -->
<g id="edge8" class="edge"><title>Node4&#45;&gt;Node7</title>
<path fill="none" stroke="midnightblue" d="M318.587,-76.46C346.013,-71.2878 380.098,-64.8599 408.932,-59.4222"/>
<polygon fill="midnightblue" stroke="midnightblue" points="409.714,-62.8365 418.892,-57.5439 408.417,-55.9578 409.714,-62.8365"/>
</g>
<!-- Node8 -->
<g id="node8" class="node"><title>Node8</title>
<g id="a_node8"><a xlink:href="class_i_n_m_o_s_t_1_1_mesh.html#a4562c5fd5341705ed706b3c4cfda80fe" target="_top" xlink:title="INMOST::Mesh::NumberOfNodes">
<polygon fill="none" stroke="black" points="390,-0.5 390,-19.5 551,-19.5 551,-0.5 390,-0.5"/>
<text text-anchor="middle" x="470.5" y="-7.5" font-family="Helvetica,sans-Serif" font-size="10.00">INMOST::Mesh::NumberOfNodes</text>
</a>
</g>
</g>
<!-- Node4&#45;&gt;Node8 -->
<g id="edge10" class="edge"><title>Node4&#45;&gt;Node8</title>
<path fill="none" stroke="midnightblue" d="M285.712,-76.3282C309.035,-63.9207 351.594,-42.4058 390,-29 397.254,-26.468 404.995,-24.1572 412.693,-22.0872"/>
<polygon fill="midnightblue" stroke="midnightblue" points="413.569,-25.4761 422.382,-19.5956 411.825,-18.6967 413.569,-25.4761"/>
</g>
<!-- Node5&#45;&gt;Node3 -->
<g id="edge5" class="edge"><title>Node5&#45;&gt;Node3</title>
<path fill="none" stroke="midnightblue" d="M514.651,-114.411C533.527,-110.216 556.088,-105.203 576.966,-100.563"/>
<polygon fill="midnightblue" stroke="midnightblue" points="577.735,-103.978 586.737,-98.3917 576.216,-97.1444 577.735,-103.978"/>
</g>
<!-- Node6&#45;&gt;Node3 -->
<g id="edge7" class="edge"><title>Node6&#45;&gt;Node3</title>
<path fill="none" stroke="midnightblue" d="M550.993,-86C559.55,-86 568.187,-86 576.56,-86"/>
<polygon fill="midnightblue" stroke="midnightblue" points="576.619,-89.5001 586.619,-86 576.619,-82.5001 576.619,-89.5001"/>
</g>
<!-- Node7&#45;&gt;Node3 -->
<g id="edge9" class="edge"><title>Node7&#45;&gt;Node3</title>
<path fill="none" stroke="midnightblue" d="M514.651,-57.589C533.527,-61.7837 556.088,-66.7972 576.966,-71.4368"/>
<polygon fill="midnightblue" stroke="midnightblue" points="576.216,-74.8556 586.737,-73.6083 577.735,-68.0223 576.216,-74.8556"/>
</g>
<!-- Node8&#45;&gt;Node3 -->
<g id="edge11" class="edge"><title>Node8&#45;&gt;Node3</title>
<path fill="none" stroke="midnightblue" d="M522.325,-19.5593C532.026,-22.1037 541.966,-25.2243 551,-29 573.352,-38.3412 596.492,-52.8081 613.91,-64.8295"/>
<polygon fill="midnightblue" stroke="midnightblue" points="612.271,-67.9561 622.462,-70.8529 616.302,-62.2331 612.271,-67.9561"/>
</g>
</g>
</svg>
