<?xml version="1.0" encoding="UTF-8" standalone="no"?>
<!DOCTYPE svg PUBLIC "-//W3C//DTD SVG 1.1//EN"
 "http://www.w3.org/Graphics/SVG/1.1/DTD/svg11.dtd">
<!-- Generated by graphviz version 2.38.0 (20140413.2041)
 -->
<!-- Title: INMOST::Storage::Integer Pages: 1 -->
<svg width="306pt" height="137pt"
 viewBox="0.00 0.00 306.00 137.00" xmlns="http://www.w3.org/2000/svg" xmlns:xlink="http://www.w3.org/1999/xlink">
<g id="graph0" class="graph" transform="scale(1 1) rotate(0) translate(4 133)">
<title>INMOST::Storage::Integer</title>
<!-- Node1 -->
<g id="node1" class="node"><title>Node1</title>
<polygon fill="#bfbfbf" stroke="black" points="0,-55 0,-74 128,-74 128,-55 0,-55"/>
<text text-anchor="middle" x="64" y="-62" font-family="Helvetica,sans-Serif" font-size="10.00">INMOST::Storage::Integer</text>
</g>
<!-- Node2 -->
<g id="node2" class="node"><title>Node2</title>
<g id="a_node2"><a xlink:href="class_i_n_m_o_s_t_1_1dynamic__variable.html#a41483a4546777613637e523f4f57ec81" target="_top" xlink:title="INMOST::dynamic_variable\l::Index">
<polygon fill="none" stroke="black" points="164,-98.5 164,-128.5 298,-128.5 298,-98.5 164,-98.5"/>
<text text-anchor="start" x="172" y="-116.5" font-family="Helvetica,sans-Serif" font-size="10.00">INMOST::dynamic_variable</text>
<text text-anchor="middle" x="231" y="-105.5" font-family="Helvetica,sans-Serif" font-size="10.00">::Index</text>
</a>
</g>
</g>
<!-- Node1&#45;&gt;Node2 -->
<g id="edge1" class="edge"><title>Node1&#45;&gt;Node2</title>
<path fill="none" stroke="midnightblue" d="M106.937,-76.9541C128.977,-83.4992 156.159,-91.5713 179.365,-98.463"/>
<polygon fill="midnightblue" stroke="midnightblue" points="107.788,-73.5557 97.2054,-74.064 105.795,-80.2661 107.788,-73.5557"/>
</g>
<!-- Node3 -->
<g id="node3" class="node"><title>Node3</title>
<g id="a_node3"><a xlink:href="class_i_n_m_o_s_t_1_1dynamic__variable.html#a432e3db3a15b60eebc084cfd8dcfb28e" target="_top" xlink:title="INMOST::dynamic_variable\l::Variable">
<polygon fill="none" stroke="black" points="164,-49.5 164,-79.5 298,-79.5 298,-49.5 164,-49.5"/>
<text text-anchor="start" x="172" y="-67.5" font-family="Helvetica,sans-Serif" font-size="10.00">INMOST::dynamic_variable</text>
<text text-anchor="middle" x="231" y="-56.5" font-family="Helvetica,sans-Serif" font-size="10.00">::Variable</text>
</a>
</g>
</g>
<!-- Node1&#45;&gt;Node3 -->
<g id="edge2" class="edge"><title>Node1&#45;&gt;Node3</title>
<path fill="none" stroke="midnightblue" d="M138.52,-64.5C146.952,-64.5 155.511,-64.5 163.839,-64.5"/>
<polygon fill="midnightblue" stroke="midnightblue" points="138.321,-61.0001 128.321,-64.5 138.321,-68.0001 138.321,-61.0001"/>
</g>
<!-- Node4 -->
<g id="node4" class="node"><title>Node4</title>
<g id="a_node4"><a xlink:href="class_i_n_m_o_s_t_1_1dynamic__variable.html#af98d84e841029239fe4b098025ef0801" target="_top" xlink:title="INMOST::dynamic_variable\l::operator[]">
<polygon fill="none" stroke="black" points="164,-0.5 164,-30.5 298,-30.5 298,-0.5 164,-0.5"/>
<text text-anchor="start" x="172" y="-18.5" font-family="Helvetica,sans-Serif" font-size="10.00">INMOST::dynamic_variable</text>
<text text-anchor="middle" x="231" y="-7.5" font-family="Helvetica,sans-Serif" font-size="10.00">::operator[]</text>
</a>
</g>
</g>
<!-- Node1&#45;&gt;Node4 -->
<g id="edge3" class="edge"><title>Node1&#45;&gt;Node4</title>
<path fill="none" stroke="midnightblue" d="M106.937,-52.0459C128.977,-45.5008 156.159,-37.4287 179.365,-30.537"/>
<polygon fill="midnightblue" stroke="midnightblue" points="105.795,-48.7339 97.2054,-54.936 107.788,-55.4443 105.795,-48.7339"/>
</g>
</g>
</svg>
