<?xml version="1.0" encoding="UTF-8" standalone="no"?>
<!DOCTYPE svg PUBLIC "-//W3C//DTD SVG 1.1//EN"
 "http://www.w3.org/Graphics/SVG/1.1/DTD/svg11.dtd">
<!-- Generated by graphviz version 2.38.0 (20140413.2041)
 -->
<!-- Title: INMOST::interval::begin Pages: 1 -->
<svg width="487pt" height="149pt"
 viewBox="0.00 0.00 487.00 148.50" xmlns="http://www.w3.org/2000/svg" xmlns:xlink="http://www.w3.org/1999/xlink">
<g id="graph0" class="graph" transform="scale(1 1) rotate(0) translate(4 144.5)">
<title>INMOST::interval::begin</title>
<!-- Node1 -->
<g id="node1" class="node"><title>Node1</title>
<polygon fill="#bfbfbf" stroke="black" points="0,-55 0,-74 119,-74 119,-55 0,-55"/>
<text text-anchor="middle" x="59.5" y="-62" font-family="Helvetica,sans-Serif" font-size="10.00">INMOST::interval::begin</text>
</g>
<!-- Node2 -->
<g id="node2" class="node"><title>Node2</title>
<g id="a_node2"><a xlink:href="class_i_n_m_o_s_t_1_1interval.html#adc2a3fe1bf2de30561cd9c2a2cb8f1c9" target="_top" xlink:title="INMOST::interval\&lt; INMOST\l_DATA_ENUM_TYPE, INMOST\l_DATA_REAL_TYPE \&gt;::operator=">
<polygon fill="none" stroke="black" points="155,-99 155,-140 320,-140 320,-99 155,-99"/>
<text text-anchor="start" x="163" y="-128" font-family="Helvetica,sans-Serif" font-size="10.00">INMOST::interval&lt; INMOST</text>
<text text-anchor="start" x="163" y="-117" font-family="Helvetica,sans-Serif" font-size="10.00">_DATA_ENUM_TYPE, INMOST</text>
<text text-anchor="middle" x="237.5" y="-106" font-family="Helvetica,sans-Serif" font-size="10.00">_DATA_REAL_TYPE &gt;::operator=</text>
</a>
</g>
</g>
<!-- Node1&#45;&gt;Node2 -->
<g id="edge1" class="edge"><title>Node1&#45;&gt;Node2</title>
<path fill="none" stroke="midnightblue" d="M100.891,-77.1222C121.609,-83.5967 147.365,-91.6452 170.847,-98.9834"/>
<polygon fill="midnightblue" stroke="midnightblue" points="101.746,-73.7224 91.1569,-74.0803 99.6577,-80.4038 101.746,-73.7224"/>
</g>
<!-- Node3 -->
<g id="node3" class="node"><title>Node3</title>
<g id="a_node3"><a xlink:href="class_i_n_m_o_s_t_1_1_sparse_1_1_vector.html#a6ffa77ace3f53e1420565147d1f79653" target="_top" xlink:title="INMOST::Sparse::Vector\l::Begin">
<polygon fill="none" stroke="black" points="175,-49.5 175,-79.5 300,-79.5 300,-49.5 175,-49.5"/>
<text text-anchor="start" x="183" y="-67.5" font-family="Helvetica,sans-Serif" font-size="10.00">INMOST::Sparse::Vector</text>
<text text-anchor="middle" x="237.5" y="-56.5" font-family="Helvetica,sans-Serif" font-size="10.00">::Begin</text>
</a>
</g>
</g>
<!-- Node1&#45;&gt;Node3 -->
<g id="edge2" class="edge"><title>Node1&#45;&gt;Node3</title>
<path fill="none" stroke="midnightblue" d="M129.344,-64.5C144.347,-64.5 160.131,-64.5 174.834,-64.5"/>
<polygon fill="midnightblue" stroke="midnightblue" points="129.105,-61.0001 119.105,-64.5 129.105,-68.0001 129.105,-61.0001"/>
</g>
<!-- Node4 -->
<g id="node4" class="node"><title>Node4</title>
<g id="a_node4"><a xlink:href="class_i_n_m_o_s_t_1_1_sparse_1_1_matrix.html#ae83ce491830ae9c4a64c6322cc67813a" target="_top" xlink:title="INMOST::Sparse::Matrix\l::Begin">
<polygon fill="none" stroke="black" points="176,-0.5 176,-30.5 299,-30.5 299,-0.5 176,-0.5"/>
<text text-anchor="start" x="184" y="-18.5" font-family="Helvetica,sans-Serif" font-size="10.00">INMOST::Sparse::Matrix</text>
<text text-anchor="middle" x="237.5" y="-7.5" font-family="Helvetica,sans-Serif" font-size="10.00">::Begin</text>
</a>
</g>
</g>
<!-- Node1&#45;&gt;Node4 -->
<g id="edge3" class="edge"><title>Node1&#45;&gt;Node4</title>
<path fill="none" stroke="midnightblue" d="M104.599,-52.2224C128.219,-45.6463 157.513,-37.4908 182.49,-30.537"/>
<polygon fill="midnightblue" stroke="midnightblue" points="103.547,-48.8821 94.8524,-54.936 105.425,-55.6256 103.547,-48.8821"/>
</g>
<!-- Node5 -->
<g id="node5" class="node"><title>Node5</title>
<g id="a_node5"><a xlink:href="class_i_n_m_o_s_t_1_1_sparse_1_1_matrix.html#aa7edfd754827dd34872233d39a3c8a47" target="_top" xlink:title="Clear all data of the matrix. ">
<polygon fill="none" stroke="black" points="356,-0.5 356,-30.5 479,-30.5 479,-0.5 356,-0.5"/>
<text text-anchor="start" x="364" y="-18.5" font-family="Helvetica,sans-Serif" font-size="10.00">INMOST::Sparse::Matrix</text>
<text text-anchor="middle" x="417.5" y="-7.5" font-family="Helvetica,sans-Serif" font-size="10.00">::Clear</text>
</a>
</g>
</g>
<!-- Node4&#45;&gt;Node5 -->
<g id="edge4" class="edge"><title>Node4&#45;&gt;Node5</title>
<path fill="none" stroke="midnightblue" d="M309.676,-15.5C324.924,-15.5 340.9,-15.5 355.712,-15.5"/>
<polygon fill="midnightblue" stroke="midnightblue" points="309.26,-12.0001 299.26,-15.5 309.26,-19.0001 309.26,-12.0001"/>
</g>
</g>
</svg>
