<?xml version="1.0" encoding="UTF-8" standalone="no"?>
<!DOCTYPE svg PUBLIC "-//W3C//DTD SVG 1.1//EN"
 "http://www.w3.org/Graphics/SVG/1.1/DTD/svg11.dtd">
<!-- Generated by graphviz version 2.38.0 (20140413.2041)
 -->
<!-- Title: INMOST::Automatizator::GetDynamicValue Pages: 1 -->
<svg width="499pt" height="116pt"
 viewBox="0.00 0.00 499.00 115.50" xmlns="http://www.w3.org/2000/svg" xmlns:xlink="http://www.w3.org/1999/xlink">
<g id="graph0" class="graph" transform="scale(1 1) rotate(0) translate(4 111.5)">
<title>INMOST::Automatizator::GetDynamicValue</title>
<!-- Node1 -->
<g id="node1" class="node"><title>Node1</title>
<polygon fill="#bfbfbf" stroke="black" points="0,-22.5 0,-52.5 120,-52.5 120,-22.5 0,-22.5"/>
<text text-anchor="start" x="8" y="-40.5" font-family="Helvetica,sans-Serif" font-size="10.00">INMOST::Automatizator</text>
<text text-anchor="middle" x="60" y="-29.5" font-family="Helvetica,sans-Serif" font-size="10.00">::GetDynamicValue</text>
</g>
<!-- Node2 -->
<g id="node2" class="node"><title>Node2</title>
<g id="a_node2"><a xlink:href="class_i_n_m_o_s_t_1_1_storage.html#a01988cd89c450bc589b9a49b37b4c71c" target="_top" xlink:title="INMOST::Storage::RealArray">
<polygon fill="none" stroke="black" points="156,-50 156,-69 298,-69 298,-50 156,-50"/>
<text text-anchor="middle" x="227" y="-57" font-family="Helvetica,sans-Serif" font-size="10.00">INMOST::Storage::RealArray</text>
</a>
</g>
</g>
<!-- Node1&#45;&gt;Node2 -->
<g id="edge1" class="edge"><title>Node1&#45;&gt;Node2</title>
<path fill="none" stroke="midnightblue" d="M120.103,-45.3804C128.411,-46.4881 137.064,-47.6418 145.685,-48.7913"/>
<polygon fill="midnightblue" stroke="midnightblue" points="145.393,-52.2833 155.768,-50.1358 146.318,-45.3447 145.393,-52.2833"/>
</g>
<!-- Node6 -->
<g id="node6" class="node"><title>Node6</title>
<g id="a_node6"><a xlink:href="class_i_n_m_o_s_t_1_1_automatizator.html#a7fc404b01b46043c1721319df44935c1" target="_top" xlink:title="INMOST::Automatizator\l::GetDynamicValueTag">
<polygon fill="none" stroke="black" points="167,-0.5 167,-30.5 287,-30.5 287,-0.5 167,-0.5"/>
<text text-anchor="start" x="175" y="-18.5" font-family="Helvetica,sans-Serif" font-size="10.00">INMOST::Automatizator</text>
<text text-anchor="middle" x="227" y="-7.5" font-family="Helvetica,sans-Serif" font-size="10.00">::GetDynamicValueTag</text>
</a>
</g>
</g>
<!-- Node1&#45;&gt;Node6 -->
<g id="edge5" class="edge"><title>Node1&#45;&gt;Node6</title>
<path fill="none" stroke="midnightblue" d="M120.103,-29.6196C131.951,-28.0399 144.5,-26.3666 156.658,-24.7455"/>
<polygon fill="midnightblue" stroke="midnightblue" points="157.306,-28.1903 166.755,-23.3993 156.38,-21.2517 157.306,-28.1903"/>
</g>
<!-- Node3 -->
<g id="node3" class="node"><title>Node3</title>
<g id="a_node3"><a xlink:href="class_i_n_m_o_s_t_1_1_storage.html#a20d218fc89f75ca8534707b4f697173e" target="_top" xlink:title="INMOST::Storage::GetMeshLink">
<polygon fill="none" stroke="black" points="334,-88 334,-107 491,-107 491,-88 334,-88"/>
<text text-anchor="middle" x="412.5" y="-95" font-family="Helvetica,sans-Serif" font-size="10.00">INMOST::Storage::GetMeshLink</text>
</a>
</g>
</g>
<!-- Node2&#45;&gt;Node3 -->
<g id="edge2" class="edge"><title>Node2&#45;&gt;Node3</title>
<path fill="none" stroke="midnightblue" d="M274.305,-69.089C298.956,-74.1939 329.463,-80.5113 355.445,-85.8918"/>
<polygon fill="midnightblue" stroke="midnightblue" points="355.026,-89.3793 365.528,-87.9799 356.446,-82.5248 355.026,-89.3793"/>
</g>
<!-- Node4 -->
<g id="node4" class="node"><title>Node4</title>
<g id="a_node4"><a xlink:href="class_i_n_m_o_s_t_1_1_mesh.html#a06bdd4e7c0d26750ca0aa40e03fc7d4c" target="_top" xlink:title="INMOST::Mesh::RealArray">
<polygon fill="none" stroke="black" points="346.5,-50 346.5,-69 478.5,-69 478.5,-50 346.5,-50"/>
<text text-anchor="middle" x="412.5" y="-57" font-family="Helvetica,sans-Serif" font-size="10.00">INMOST::Mesh::RealArray</text>
</a>
</g>
</g>
<!-- Node2&#45;&gt;Node4 -->
<g id="edge3" class="edge"><title>Node2&#45;&gt;Node4</title>
<path fill="none" stroke="midnightblue" d="M298.159,-59.5C310.49,-59.5 323.373,-59.5 335.845,-59.5"/>
<polygon fill="midnightblue" stroke="midnightblue" points="336.205,-63.0001 346.205,-59.5 336.205,-56.0001 336.205,-63.0001"/>
</g>
<!-- Node5 -->
<g id="node5" class="node"><title>Node5</title>
<g id="a_node5"><a xlink:href="class_i_n_m_o_s_t_1_1_storage.html#ac79e3f3664b2ff21892f37bce0caa0e0" target="_top" xlink:title="INMOST::Storage::GetHandle">
<polygon fill="none" stroke="black" points="340,-12 340,-31 485,-31 485,-12 340,-12"/>
<text text-anchor="middle" x="412.5" y="-19" font-family="Helvetica,sans-Serif" font-size="10.00">INMOST::Storage::GetHandle</text>
</a>
</g>
</g>
<!-- Node2&#45;&gt;Node5 -->
<g id="edge4" class="edge"><title>Node2&#45;&gt;Node5</title>
<path fill="none" stroke="midnightblue" d="M274.305,-49.911C298.956,-44.8061 329.463,-38.4887 355.445,-33.1082"/>
<polygon fill="midnightblue" stroke="midnightblue" points="356.446,-36.4752 365.528,-31.0201 355.026,-29.6207 356.446,-36.4752"/>
</g>
</g>
</svg>
