<?xml version="1.0" encoding="UTF-8" standalone="no"?>
<!DOCTYPE svg PUBLIC "-//W3C//DTD SVG 1.1//EN"
 "http://www.w3.org/Graphics/SVG/1.1/DTD/svg11.dtd">
<!-- Generated by graphviz version 2.38.0 (20140413.2041)
 -->
<!-- Title: INMOST::multivar_expression::operator*= Pages: 1 -->
<svg width="489pt" height="225pt"
 viewBox="0.00 0.00 489.00 225.00" xmlns="http://www.w3.org/2000/svg" xmlns:xlink="http://www.w3.org/1999/xlink">
<g id="graph0" class="graph" transform="scale(1 1) rotate(0) translate(4 221)">
<title>INMOST::multivar_expression::operator*=</title>
<!-- Node1 -->
<g id="node1" class="node"><title>Node1</title>
<polygon fill="#bfbfbf" stroke="black" points="0,-93.5 0,-123.5 145,-123.5 145,-93.5 0,-93.5"/>
<text text-anchor="start" x="8" y="-111.5" font-family="Helvetica,sans-Serif" font-size="10.00">INMOST::multivar_expression</text>
<text text-anchor="middle" x="72.5" y="-100.5" font-family="Helvetica,sans-Serif" font-size="10.00">::operator*=</text>
</g>
<!-- Node2 -->
<g id="node2" class="node"><title>Node2</title>
<g id="a_node2"><a xlink:href="class_i_n_m_o_s_t_1_1basic__expression.html#a80781d2a414c9af01e59a97aeae7151e" target="_top" xlink:title="INMOST::basic_expression\l::GetValue">
<polygon fill="none" stroke="black" points="182.5,-186.5 182.5,-216.5 317.5,-216.5 317.5,-186.5 182.5,-186.5"/>
<text text-anchor="start" x="190.5" y="-204.5" font-family="Helvetica,sans-Serif" font-size="10.00">INMOST::basic_expression</text>
<text text-anchor="middle" x="250" y="-193.5" font-family="Helvetica,sans-Serif" font-size="10.00">::GetValue</text>
</a>
</g>
</g>
<!-- Node1&#45;&gt;Node2 -->
<g id="edge1" class="edge"><title>Node1&#45;&gt;Node2</title>
<path fill="none" stroke="midnightblue" d="M94.067,-123.754C115.103,-138.853 149.126,-161.908 181,-177.5 184.567,-179.245 188.294,-180.926 192.087,-182.532"/>
<polygon fill="midnightblue" stroke="midnightblue" points="191.012,-185.872 201.595,-186.364 193.628,-179.38 191.012,-185.872"/>
</g>
<!-- Node3 -->
<g id="node3" class="node"><title>Node3</title>
<g id="a_node3"><a xlink:href="class_i_n_m_o_s_t_1_1_sparse_1_1_row.html#ae151ff1b4c953a41174aaf5a4261fafa" target="_top" xlink:title="INMOST::Sparse::Row\l::Begin">
<polygon fill="none" stroke="black" points="192.5,-137.5 192.5,-167.5 307.5,-167.5 307.5,-137.5 192.5,-137.5"/>
<text text-anchor="start" x="200.5" y="-155.5" font-family="Helvetica,sans-Serif" font-size="10.00">INMOST::Sparse::Row</text>
<text text-anchor="middle" x="250" y="-144.5" font-family="Helvetica,sans-Serif" font-size="10.00">::Begin</text>
</a>
</g>
</g>
<!-- Node1&#45;&gt;Node3 -->
<g id="edge2" class="edge"><title>Node1&#45;&gt;Node3</title>
<path fill="none" stroke="midnightblue" d="M133.406,-123.519C149.195,-127.478 166.325,-131.772 182.441,-135.813"/>
<polygon fill="midnightblue" stroke="midnightblue" points="181.772,-139.253 192.323,-138.29 183.474,-132.464 181.772,-139.253"/>
</g>
<!-- Node5 -->
<g id="node5" class="node"><title>Node5</title>
<g id="a_node5"><a xlink:href="class_i_n_m_o_s_t_1_1_sparse_1_1_row.html#a8f933f39bae05075356ab209eafcc47a" target="_top" xlink:title="INMOST::Sparse::Row::End">
<polygon fill="none" stroke="black" points="181,-99 181,-118 319,-118 319,-99 181,-99"/>
<text text-anchor="middle" x="250" y="-106" font-family="Helvetica,sans-Serif" font-size="10.00">INMOST::Sparse::Row::End</text>
</a>
</g>
</g>
<!-- Node1&#45;&gt;Node5 -->
<g id="edge4" class="edge"><title>Node1&#45;&gt;Node5</title>
<path fill="none" stroke="midnightblue" d="M145.136,-108.5C153.651,-108.5 162.376,-108.5 170.975,-108.5"/>
<polygon fill="midnightblue" stroke="midnightblue" points="170.992,-112 180.992,-108.5 170.992,-105 170.992,-112"/>
</g>
<!-- Node7 -->
<g id="node7" class="node"><title>Node7</title>
<g id="a_node7"><a xlink:href="class_i_n_m_o_s_t_1_1basic__expression.html#aa609f80b19e9d7cc70614aa667e04920" target="_top" xlink:title="INMOST::basic_expression\l::GetDerivative">
<polygon fill="none" stroke="black" points="182.5,-49.5 182.5,-79.5 317.5,-79.5 317.5,-49.5 182.5,-49.5"/>
<text text-anchor="start" x="190.5" y="-67.5" font-family="Helvetica,sans-Serif" font-size="10.00">INMOST::basic_expression</text>
<text text-anchor="middle" x="250" y="-56.5" font-family="Helvetica,sans-Serif" font-size="10.00">::GetDerivative</text>
</a>
</g>
</g>
<!-- Node1&#45;&gt;Node7 -->
<g id="edge6" class="edge"><title>Node1&#45;&gt;Node7</title>
<path fill="none" stroke="midnightblue" d="M133.406,-93.4808C148.15,-89.7844 164.063,-85.7947 179.228,-81.9926"/>
<polygon fill="midnightblue" stroke="midnightblue" points="180.217,-85.3531 189.066,-79.5262 178.515,-78.5632 180.217,-85.3531"/>
</g>
<!-- Node8 -->
<g id="node8" class="node"><title>Node8</title>
<g id="a_node8"><a xlink:href="class_i_n_m_o_s_t_1_1_sparse_1_1_row.html#a0b66913c8caa4da4ff2c8e200abecaba" target="_top" xlink:title="INMOST::Sparse::Row\l::Swap">
<polygon fill="none" stroke="black" points="192.5,-0.5 192.5,-30.5 307.5,-30.5 307.5,-0.5 192.5,-0.5"/>
<text text-anchor="start" x="200.5" y="-18.5" font-family="Helvetica,sans-Serif" font-size="10.00">INMOST::Sparse::Row</text>
<text text-anchor="middle" x="250" y="-7.5" font-family="Helvetica,sans-Serif" font-size="10.00">::Swap</text>
</a>
</g>
</g>
<!-- Node1&#45;&gt;Node8 -->
<g id="edge7" class="edge"><title>Node1&#45;&gt;Node8</title>
<path fill="none" stroke="midnightblue" d="M94.5416,-93.2992C115.666,-78.5007 149.508,-56.0305 181,-40.5 185.287,-38.3859 189.799,-36.3487 194.376,-34.4119"/>
<polygon fill="midnightblue" stroke="midnightblue" points="195.858,-37.5879 203.808,-30.5854 193.226,-31.1013 195.858,-37.5879"/>
</g>
<!-- Node4 -->
<g id="node4" class="node"><title>Node4</title>
<g id="a_node4"><a xlink:href="class_i_n_m_o_s_t_1_1dynarray.html#a95d4cabcea41ee216d2ccd310d04cd61" target="_top" xlink:title="INMOST::dynarray::begin">
<polygon fill="none" stroke="black" points="355,-143 355,-162 481,-162 481,-143 355,-143"/>
<text text-anchor="middle" x="418" y="-150" font-family="Helvetica,sans-Serif" font-size="10.00">INMOST::dynarray::begin</text>
</a>
</g>
</g>
<!-- Node3&#45;&gt;Node4 -->
<g id="edge3" class="edge"><title>Node3&#45;&gt;Node4</title>
<path fill="none" stroke="midnightblue" d="M307.663,-152.5C319.551,-152.5 332.242,-152.5 344.613,-152.5"/>
<polygon fill="midnightblue" stroke="midnightblue" points="344.906,-156 354.906,-152.5 344.906,-149 344.906,-156"/>
</g>
<!-- Node6 -->
<g id="node6" class="node"><title>Node6</title>
<g id="a_node6"><a xlink:href="class_i_n_m_o_s_t_1_1dynarray.html#ad3e9af27a79aa4c5a57635546091a33d" target="_top" xlink:title="INMOST::dynarray::end">
<polygon fill="none" stroke="black" points="358.5,-99 358.5,-118 477.5,-118 477.5,-99 358.5,-99"/>
<text text-anchor="middle" x="418" y="-106" font-family="Helvetica,sans-Serif" font-size="10.00">INMOST::dynarray::end</text>
</a>
</g>
</g>
<!-- Node5&#45;&gt;Node6 -->
<g id="edge5" class="edge"><title>Node5&#45;&gt;Node6</title>
<path fill="none" stroke="midnightblue" d="M319.477,-108.5C328.987,-108.5 338.76,-108.5 348.274,-108.5"/>
<polygon fill="midnightblue" stroke="midnightblue" points="348.473,-112 358.473,-108.5 348.473,-105 348.473,-112"/>
</g>
</g>
</svg>
