<?xml version="1.0" encoding="UTF-8" standalone="no"?>
<!DOCTYPE svg PUBLIC "-//W3C//DTD SVG 1.1//EN"
 "http://www.w3.org/Graphics/SVG/1.1/DTD/svg11.dtd">
<!-- Generated by graphviz version 2.38.0 (20140413.2041)
 -->
<!-- Title: INMOST::Mesh::RealArray Pages: 1 -->
<svg width="665pt" height="88pt"
 viewBox="0.00 0.00 665.00 88.00" xmlns="http://www.w3.org/2000/svg" xmlns:xlink="http://www.w3.org/1999/xlink">
<g id="graph0" class="graph" transform="scale(1 1) rotate(0) translate(4 84)">
<title>INMOST::Mesh::RealArray</title>
<!-- Node1 -->
<g id="node1" class="node"><title>Node1</title>
<polygon fill="#bfbfbf" stroke="black" points="0,-30 0,-49 132,-49 132,-30 0,-30"/>
<text text-anchor="middle" x="66" y="-37" font-family="Helvetica,sans-Serif" font-size="10.00">INMOST::Mesh::RealArray</text>
</g>
<!-- Node2 -->
<g id="node2" class="node"><title>Node2</title>
<g id="a_node2"><a xlink:href="class_i_n_m_o_s_t_1_1_storage.html#a01988cd89c450bc589b9a49b37b4c71c" target="_top" xlink:title="INMOST::Storage::RealArray">
<polygon fill="none" stroke="black" points="168,-30 168,-49 310,-49 310,-30 168,-30"/>
<text text-anchor="middle" x="239" y="-37" font-family="Helvetica,sans-Serif" font-size="10.00">INMOST::Storage::RealArray</text>
</a>
</g>
</g>
<!-- Node1&#45;&gt;Node2 -->
<g id="edge1" class="edge"><title>Node1&#45;&gt;Node2</title>
<path fill="none" stroke="midnightblue" d="M142.397,-39.5C150.884,-39.5 159.505,-39.5 167.92,-39.5"/>
<polygon fill="midnightblue" stroke="midnightblue" points="142.136,-36.0001 132.136,-39.5 142.136,-43.0001 142.136,-36.0001"/>
</g>
<!-- Node3 -->
<g id="node3" class="node"><title>Node3</title>
<g id="a_node3"><a xlink:href="class_i_n_m_o_s_t_1_1_automatizator.html#ab41dc204fbb52720b8dbb365f40ee0f3" target="_top" xlink:title="INMOST::Automatizator\l::GetDynamicValue">
<polygon fill="none" stroke="black" points="346,-49.5 346,-79.5 466,-79.5 466,-49.5 346,-49.5"/>
<text text-anchor="start" x="354" y="-67.5" font-family="Helvetica,sans-Serif" font-size="10.00">INMOST::Automatizator</text>
<text text-anchor="middle" x="406" y="-56.5" font-family="Helvetica,sans-Serif" font-size="10.00">::GetDynamicValue</text>
</a>
</g>
</g>
<!-- Node2&#45;&gt;Node3 -->
<g id="edge2" class="edge"><title>Node2&#45;&gt;Node3</title>
<path fill="none" stroke="midnightblue" d="M312.887,-50.5435C323.912,-52.2139 335.169,-53.9196 345.856,-55.5388"/>
<polygon fill="midnightblue" stroke="midnightblue" points="313.262,-47.0604 302.85,-49.0227 312.213,-53.9814 313.262,-47.0604"/>
</g>
<!-- Node5 -->
<g id="node5" class="node"><title>Node5</title>
<g id="a_node5"><a xlink:href="class_i_n_m_o_s_t_1_1_automatizator.html#a8d32c48035f0a83bd0ef783132d5da7a" target="_top" xlink:title="INMOST::Automatizator\l::GetStaticValue">
<polygon fill="none" stroke="black" points="346,-0.5 346,-30.5 466,-30.5 466,-0.5 346,-0.5"/>
<text text-anchor="start" x="354" y="-18.5" font-family="Helvetica,sans-Serif" font-size="10.00">INMOST::Automatizator</text>
<text text-anchor="middle" x="406" y="-7.5" font-family="Helvetica,sans-Serif" font-size="10.00">::GetStaticValue</text>
</a>
</g>
</g>
<!-- Node2&#45;&gt;Node5 -->
<g id="edge4" class="edge"><title>Node2&#45;&gt;Node5</title>
<path fill="none" stroke="midnightblue" d="M315.753,-28.4813C325.889,-27.0071 336.161,-25.513 345.952,-24.0888"/>
<polygon fill="midnightblue" stroke="midnightblue" points="315.079,-25.0426 305.686,-29.9456 316.086,-31.9697 315.079,-25.0426"/>
</g>
<!-- Node4 -->
<g id="node4" class="node"><title>Node4</title>
<g id="a_node4"><a xlink:href="class_i_n_m_o_s_t_1_1enhanced__multivar__expression.html#aa7a9b5c6c18e890d941c0abaf36fc9ac" target="_top" xlink:title="INMOST::enhanced_multivar\l_expression::enhanced_multivar\l_expression">
<polygon fill="none" stroke="black" points="502,-19 502,-60 657,-60 657,-19 502,-19"/>
<text text-anchor="start" x="510" y="-48" font-family="Helvetica,sans-Serif" font-size="10.00">INMOST::enhanced_multivar</text>
<text text-anchor="start" x="510" y="-37" font-family="Helvetica,sans-Serif" font-size="10.00">_expression::enhanced_multivar</text>
<text text-anchor="middle" x="579.5" y="-26" font-family="Helvetica,sans-Serif" font-size="10.00">_expression</text>
</a>
</g>
</g>
<!-- Node3&#45;&gt;Node4 -->
<g id="edge3" class="edge"><title>Node3&#45;&gt;Node4</title>
<path fill="none" stroke="midnightblue" d="M476.176,-54.4161C484.611,-53.1865 493.268,-51.9245 501.804,-50.6801"/>
<polygon fill="midnightblue" stroke="midnightblue" points="475.411,-50.9905 466.021,-55.8964 476.421,-57.9173 475.411,-50.9905"/>
</g>
<!-- Node5&#45;&gt;Node4 -->
<g id="edge5" class="edge"><title>Node5&#45;&gt;Node4</title>
<path fill="none" stroke="midnightblue" d="M476.176,-25.1806C484.611,-26.361 493.268,-27.5725 501.804,-28.7671"/>
<polygon fill="midnightblue" stroke="midnightblue" points="476.409,-21.6792 466.021,-23.7594 475.439,-28.6117 476.409,-21.6792"/>
</g>
</g>
</svg>
