<?xml version="1.0" encoding="UTF-8" standalone="no"?>
<!DOCTYPE svg PUBLIC "-//W3C//DTD SVG 1.1//EN"
 "http://www.w3.org/Graphics/SVG/1.1/DTD/svg11.dtd">
<!-- Generated by graphviz version 2.38.0 (20140413.2041)
 -->
<!-- Title: INMOST::Mesh::GlobalIDComparator::operator() Pages: 1 -->
<svg width="524pt" height="66pt"
 viewBox="0.00 0.00 524.00 66.00" xmlns="http://www.w3.org/2000/svg" xmlns:xlink="http://www.w3.org/1999/xlink">
<g id="graph0" class="graph" transform="scale(1 1) rotate(0) translate(4 62)">
<title>INMOST::Mesh::GlobalIDComparator::operator()</title>
<!-- Node1 -->
<g id="node1" class="node"><title>Node1</title>
<polygon fill="#bfbfbf" stroke="black" points="0,-14 0,-44 176,-44 176,-14 0,-14"/>
<text text-anchor="start" x="8" y="-32" font-family="Helvetica,sans-Serif" font-size="10.00">INMOST::Mesh::GlobalIDComparator</text>
<text text-anchor="middle" x="88" y="-21" font-family="Helvetica,sans-Serif" font-size="10.00">::operator()</text>
</g>
<!-- Node2 -->
<g id="node2" class="node"><title>Node2</title>
<g id="a_node2"><a xlink:href="namespace_i_n_m_o_s_t.html#a115b3e54c3b7be04ffec9b69c058df18" target="_top" xlink:title="INMOST::InvalidHandle">
<polygon fill="none" stroke="black" points="217,-38.5 217,-57.5 333,-57.5 333,-38.5 217,-38.5"/>
<text text-anchor="middle" x="275" y="-45.5" font-family="Helvetica,sans-Serif" font-size="10.00">INMOST::InvalidHandle</text>
</a>
</g>
</g>
<!-- Node1&#45;&gt;Node2 -->
<g id="edge1" class="edge"><title>Node1&#45;&gt;Node2</title>
<path fill="none" stroke="midnightblue" d="M176.083,-37.9436C186.377,-39.0009 196.761,-40.0674 206.723,-41.0904"/>
<polygon fill="midnightblue" stroke="midnightblue" points="206.624,-44.5986 216.929,-42.1387 207.339,-37.6352 206.624,-44.5986"/>
</g>
<!-- Node3 -->
<g id="node3" class="node"><title>Node3</title>
<g id="a_node3"><a xlink:href="class_i_n_m_o_s_t_1_1_mesh.html#ab9f84a185381a0096fc358e7e2ff5db7" target="_top" xlink:title="INMOST::Mesh::GlobalID">
<polygon fill="none" stroke="black" points="212,-0.5 212,-19.5 338,-19.5 338,-0.5 212,-0.5"/>
<text text-anchor="middle" x="275" y="-7.5" font-family="Helvetica,sans-Serif" font-size="10.00">INMOST::Mesh::GlobalID</text>
</a>
</g>
</g>
<!-- Node1&#45;&gt;Node3 -->
<g id="edge2" class="edge"><title>Node1&#45;&gt;Node3</title>
<path fill="none" stroke="midnightblue" d="M176.083,-20.0564C184.678,-19.1736 193.335,-18.2845 201.757,-17.4195"/>
<polygon fill="midnightblue" stroke="midnightblue" points="202.303,-20.882 211.893,-16.3785 201.588,-13.9186 202.303,-20.882"/>
</g>
<!-- Node4 -->
<g id="node4" class="node"><title>Node4</title>
<g id="a_node4"><a xlink:href="class_i_n_m_o_s_t_1_1_mesh.html#a6b425c08bb3751726402817023c52aef" target="_top" xlink:title="INMOST::Mesh::GlobalIDTag">
<polygon fill="none" stroke="black" points="374,-0.5 374,-19.5 516,-19.5 516,-0.5 374,-0.5"/>
<text text-anchor="middle" x="445" y="-7.5" font-family="Helvetica,sans-Serif" font-size="10.00">INMOST::Mesh::GlobalIDTag</text>
</a>
</g>
</g>
<!-- Node3&#45;&gt;Node4 -->
<g id="edge3" class="edge"><title>Node3&#45;&gt;Node4</title>
<path fill="none" stroke="midnightblue" d="M338.08,-10C346.477,-10 355.189,-10 363.847,-10"/>
<polygon fill="midnightblue" stroke="midnightblue" points="363.963,-13.5001 373.963,-10 363.963,-6.5001 363.963,-13.5001"/>
</g>
</g>
</svg>
