<?xml version="1.0" encoding="UTF-8" standalone="no"?>
<!DOCTYPE svg PUBLIC "-//W3C//DTD SVG 1.1//EN"
 "http://www.w3.org/Graphics/SVG/1.1/DTD/svg11.dtd">
<!-- Generated by graphviz version 2.38.0 (20140413.2041)
 -->
<!-- Title: INMOST::chunk_array::iterator::iterator Pages: 1 -->
<svg width="270pt" height="186pt"
 viewBox="0.00 0.00 270.00 186.00" xmlns="http://www.w3.org/2000/svg" xmlns:xlink="http://www.w3.org/1999/xlink">
<g id="graph0" class="graph" transform="scale(1 1) rotate(0) translate(4 182)">
<title>INMOST::chunk_array::iterator::iterator</title>
<!-- Node1 -->
<g id="node1" class="node"><title>Node1</title>
<polygon fill="#bfbfbf" stroke="black" points="0,-73.5 0,-103.5 113,-103.5 113,-73.5 0,-73.5"/>
<text text-anchor="start" x="8" y="-91.5" font-family="Helvetica,sans-Serif" font-size="10.00">INMOST::chunk_array</text>
<text text-anchor="middle" x="56.5" y="-80.5" font-family="Helvetica,sans-Serif" font-size="10.00">::iterator::iterator</text>
</g>
<!-- Node2 -->
<g id="node2" class="node"><title>Node2</title>
<g id="a_node2"><a xlink:href="class_i_n_m_o_s_t_1_1chunk__array_1_1iterator.html#a014fea03696c4f337ad106a7427d5da4" target="_top" xlink:title="INMOST::chunk_array\l::iterator::operator&#45;">
<polygon fill="none" stroke="black" points="149,-147.5 149,-177.5 262,-177.5 262,-147.5 149,-147.5"/>
<text text-anchor="start" x="157" y="-165.5" font-family="Helvetica,sans-Serif" font-size="10.00">INMOST::chunk_array</text>
<text text-anchor="middle" x="205.5" y="-154.5" font-family="Helvetica,sans-Serif" font-size="10.00">::iterator::operator&#45;</text>
</a>
</g>
</g>
<!-- Node1&#45;&gt;Node2 -->
<g id="edge1" class="edge"><title>Node1&#45;&gt;Node2</title>
<path fill="none" stroke="midnightblue" d="M92.5435,-108.634C109.418,-118.075 130.058,-129.253 149,-138.5 155.226,-141.539 161.931,-144.607 168.454,-147.486"/>
<polygon fill="midnightblue" stroke="midnightblue" points="94.0212,-105.449 83.5906,-103.591 90.5859,-111.548 94.0212,-105.449"/>
</g>
<!-- Node3 -->
<g id="node3" class="node"><title>Node3</title>
<g id="a_node3"><a xlink:href="class_i_n_m_o_s_t_1_1chunk__array_1_1iterator.html#a7575cb1c859c911d232184fba93e5c38" target="_top" xlink:title="INMOST::chunk_array\l::iterator::operator+">
<polygon fill="none" stroke="black" points="149,-98.5 149,-128.5 262,-128.5 262,-98.5 149,-98.5"/>
<text text-anchor="start" x="157" y="-116.5" font-family="Helvetica,sans-Serif" font-size="10.00">INMOST::chunk_array</text>
<text text-anchor="middle" x="205.5" y="-105.5" font-family="Helvetica,sans-Serif" font-size="10.00">::iterator::operator+</text>
</a>
</g>
</g>
<!-- Node1&#45;&gt;Node3 -->
<g id="edge2" class="edge"><title>Node1&#45;&gt;Node3</title>
<path fill="none" stroke="midnightblue" d="M123.078,-99.6526C131.681,-101.116 140.43,-102.604 148.847,-104.035"/>
<polygon fill="midnightblue" stroke="midnightblue" points="123.52,-96.1777 113.074,-97.9514 122.346,-103.079 123.52,-96.1777"/>
</g>
<!-- Node4 -->
<g id="node4" class="node"><title>Node4</title>
<g id="a_node4"><a xlink:href="class_i_n_m_o_s_t_1_1chunk__array_1_1iterator.html#a5ee75764cb3d976816b0becdb5154145" target="_top" xlink:title="INMOST::chunk_array\l::iterator::operator++">
<polygon fill="none" stroke="black" points="149,-49.5 149,-79.5 262,-79.5 262,-49.5 149,-49.5"/>
<text text-anchor="start" x="157" y="-67.5" font-family="Helvetica,sans-Serif" font-size="10.00">INMOST::chunk_array</text>
<text text-anchor="middle" x="205.5" y="-56.5" font-family="Helvetica,sans-Serif" font-size="10.00">::iterator::operator++</text>
</a>
</g>
</g>
<!-- Node1&#45;&gt;Node4 -->
<g id="edge3" class="edge"><title>Node1&#45;&gt;Node4</title>
<path fill="none" stroke="midnightblue" d="M123.078,-77.7935C131.681,-76.3889 140.43,-74.9604 148.847,-73.5862"/>
<polygon fill="midnightblue" stroke="midnightblue" points="122.38,-74.361 113.074,-79.4266 123.508,-81.2695 122.38,-74.361"/>
</g>
<!-- Node5 -->
<g id="node5" class="node"><title>Node5</title>
<g id="a_node5"><a xlink:href="class_i_n_m_o_s_t_1_1chunk__array_1_1iterator.html#af53ce3af9057e46799312a41643c88de" target="_top" xlink:title="INMOST::chunk_array\l::iterator::operator&#45;&#45;">
<polygon fill="none" stroke="black" points="149,-0.5 149,-30.5 262,-30.5 262,-0.5 149,-0.5"/>
<text text-anchor="start" x="157" y="-18.5" font-family="Helvetica,sans-Serif" font-size="10.00">INMOST::chunk_array</text>
<text text-anchor="middle" x="205.5" y="-7.5" font-family="Helvetica,sans-Serif" font-size="10.00">::iterator::operator&#45;&#45;</text>
</a>
</g>
</g>
<!-- Node1&#45;&gt;Node5 -->
<g id="edge4" class="edge"><title>Node1&#45;&gt;Node5</title>
<path fill="none" stroke="midnightblue" d="M94.1681,-68.6229C110.79,-59.7788 130.765,-49.3798 149,-40.5 155.841,-37.1687 163.224,-33.7337 170.303,-30.5168"/>
<polygon fill="midnightblue" stroke="midnightblue" points="92.4805,-65.5562 85.311,-73.3568 95.7802,-71.7298 92.4805,-65.5562"/>
</g>
</g>
</svg>
