<?xml version="1.0" encoding="UTF-8" standalone="no"?>
<!DOCTYPE svg PUBLIC "-//W3C//DTD SVG 1.1//EN"
 "http://www.w3.org/Graphics/SVG/1.1/DTD/svg11.dtd">
<!-- Generated by graphviz version 2.38.0 (20140413.2041)
 -->
<!-- Title: INMOST::dynarray::begin Pages: 1 -->
<svg width="673pt" height="668pt"
 viewBox="0.00 0.00 673.00 668.00" xmlns="http://www.w3.org/2000/svg" xmlns:xlink="http://www.w3.org/1999/xlink">
<g id="graph0" class="graph" transform="scale(1 1) rotate(0) translate(4 664)">
<title>INMOST::dynarray::begin</title>
<!-- Node1 -->
<g id="node1" class="node"><title>Node1</title>
<polygon fill="#bfbfbf" stroke="black" points="0,-446 0,-465 126,-465 126,-446 0,-446"/>
<text text-anchor="middle" x="63" y="-453" font-family="Helvetica,sans-Serif" font-size="10.00">INMOST::dynarray::begin</text>
</g>
<!-- Node2 -->
<g id="node2" class="node"><title>Node2</title>
<g id="a_node2"><a xlink:href="class_i_n_m_o_s_t_1_1dynarray.html#a9064200f7747a6dec86833fef0ddd0a3" target="_top" xlink:title="INMOST::dynarray\&lt; stencil\l_kind_domain, 128 \&gt;::erase">
<polygon fill="none" stroke="black" points="166.5,-629.5 166.5,-659.5 303.5,-659.5 303.5,-629.5 166.5,-629.5"/>
<text text-anchor="start" x="174.5" y="-647.5" font-family="Helvetica,sans-Serif" font-size="10.00">INMOST::dynarray&lt; stencil</text>
<text text-anchor="middle" x="235" y="-636.5" font-family="Helvetica,sans-Serif" font-size="10.00">_kind_domain, 128 &gt;::erase</text>
</a>
</g>
</g>
<!-- Node1&#45;&gt;Node2 -->
<g id="edge1" class="edge"><title>Node1&#45;&gt;Node2</title>
<path fill="none" stroke="midnightblue" d="M70.5364,-474.922C82.9779,-509.029 113.255,-579.824 162,-619.5 166.721,-623.342 172.07,-626.611 177.668,-629.388"/>
<polygon fill="midnightblue" stroke="midnightblue" points="73.7444,-473.494 67.1228,-465.223 67.1414,-475.818 73.7444,-473.494"/>
</g>
<!-- Node3 -->
<g id="node3" class="node"><title>Node3</title>
<g id="a_node3"><a xlink:href="class_i_n_m_o_s_t_1_1tiny__map.html#a61d0445dcb41f190095a3d247120eb9a" target="_top" xlink:title="INMOST::tiny_map::find">
<polygon fill="none" stroke="black" points="175,-591 175,-610 295,-610 295,-591 175,-591"/>
<text text-anchor="middle" x="235" y="-598" font-family="Helvetica,sans-Serif" font-size="10.00">INMOST::tiny_map::find</text>
</a>
</g>
</g>
<!-- Node1&#45;&gt;Node3 -->
<g id="edge2" class="edge"><title>Node1&#45;&gt;Node3</title>
<path fill="none" stroke="midnightblue" d="M73.3599,-474.171C88.2487,-501.92 119.991,-553.744 162,-581.5 167.825,-585.348 174.395,-588.419 181.139,-590.868"/>
<polygon fill="midnightblue" stroke="midnightblue" points="76.3728,-472.379 68.6493,-465.127 70.1644,-475.613 76.3728,-472.379"/>
</g>
<!-- Node4 -->
<g id="node4" class="node"><title>Node4</title>
<g id="a_node4"><a xlink:href="class_i_n_m_o_s_t_1_1tiny__map.html#a3206bc325f13dc58f13525bbcb55e009" target="_top" xlink:title="INMOST::tiny_map::begin">
<polygon fill="none" stroke="black" points="171,-553 171,-572 299,-572 299,-553 171,-553"/>
<text text-anchor="middle" x="235" y="-560" font-family="Helvetica,sans-Serif" font-size="10.00">INMOST::tiny_map::begin</text>
</a>
</g>
</g>
<!-- Node1&#45;&gt;Node4 -->
<g id="edge3" class="edge"><title>Node1&#45;&gt;Node4</title>
<path fill="none" stroke="midnightblue" d="M78.5181,-472.768C96.2227,-492.723 128.016,-525.161 162,-543.5 169.168,-547.368 177.168,-550.483 185.157,-552.981"/>
<polygon fill="midnightblue" stroke="midnightblue" points="81.025,-470.317 71.8277,-465.057 75.7379,-474.904 81.025,-470.317"/>
</g>
<!-- Node5 -->
<g id="node5" class="node"><title>Node5</title>
<g id="a_node5"><a xlink:href="class_i_n_m_o_s_t_1_1tiny__map.html#a37e9010b0f4a05d6f24016fa4eed4cad" target="_top" xlink:title="INMOST::tiny_map::operator[]">
<polygon fill="none" stroke="black" points="162,-515 162,-534 308,-534 308,-515 162,-515"/>
<text text-anchor="middle" x="235" y="-522" font-family="Helvetica,sans-Serif" font-size="10.00">INMOST::tiny_map::operator[]</text>
</a>
</g>
</g>
<!-- Node1&#45;&gt;Node5 -->
<g id="edge4" class="edge"><title>Node1&#45;&gt;Node5</title>
<path fill="none" stroke="midnightblue" d="M88.9551,-470.116C108.365,-481.016 136.239,-495.659 162,-505.5 171.42,-509.098 181.784,-512.268 191.642,-514.936"/>
<polygon fill="midnightblue" stroke="midnightblue" points="90.5745,-467.01 80.1527,-465.104 87.1106,-473.093 90.5745,-467.01"/>
</g>
<!-- Node6 -->
<g id="node6" class="node"><title>Node6</title>
<g id="a_node6"><a xlink:href="class_i_n_m_o_s_t_1_1stencil__expression.html#a465a06b000c610815d2162f685db71e4" target="_top" xlink:title="INMOST::stencil_expression\l::stencil_expression">
<polygon fill="none" stroke="black" points="165,-465.5 165,-495.5 305,-495.5 305,-465.5 165,-465.5"/>
<text text-anchor="start" x="173" y="-483.5" font-family="Helvetica,sans-Serif" font-size="10.00">INMOST::stencil_expression</text>
<text text-anchor="middle" x="235" y="-472.5" font-family="Helvetica,sans-Serif" font-size="10.00">::stencil_expression</text>
</a>
</g>
</g>
<!-- Node1&#45;&gt;Node6 -->
<g id="edge5" class="edge"><title>Node1&#45;&gt;Node6</title>
<path fill="none" stroke="midnightblue" d="M136.431,-466.152C145.831,-467.534 155.44,-468.947 164.786,-470.321"/>
<polygon fill="midnightblue" stroke="midnightblue" points="136.739,-462.659 126.336,-464.667 135.721,-469.585 136.739,-462.659"/>
</g>
<!-- Node7 -->
<g id="node7" class="node"><title>Node7</title>
<g id="a_node7"><a xlink:href="class_i_n_m_o_s_t_1_1stencil__expression.html#a76f6b1d09456d130ce31193b38d3952c" target="_top" xlink:title="INMOST::stencil_expression\l::GetDerivative">
<polygon fill="none" stroke="black" points="165,-416.5 165,-446.5 305,-446.5 305,-416.5 165,-416.5"/>
<text text-anchor="start" x="173" y="-434.5" font-family="Helvetica,sans-Serif" font-size="10.00">INMOST::stencil_expression</text>
<text text-anchor="middle" x="235" y="-423.5" font-family="Helvetica,sans-Serif" font-size="10.00">::GetDerivative</text>
</a>
</g>
</g>
<!-- Node1&#45;&gt;Node7 -->
<g id="edge6" class="edge"><title>Node1&#45;&gt;Node7</title>
<path fill="none" stroke="midnightblue" d="M136.431,-445.274C145.831,-443.947 155.44,-442.591 164.786,-441.271"/>
<polygon fill="midnightblue" stroke="midnightblue" points="135.749,-441.836 126.336,-446.7 136.728,-448.767 135.749,-441.836"/>
</g>
<!-- Node8 -->
<g id="node8" class="node"><title>Node8</title>
<g id="a_node8"><a xlink:href="class_i_n_m_o_s_t_1_1_element_array.html#ad359cc57cc4876553c7e993f028bc401" target="_top" xlink:title="INMOST::ElementArray\l::begin">
<polygon fill="none" stroke="black" points="175.5,-367.5 175.5,-397.5 294.5,-397.5 294.5,-367.5 175.5,-367.5"/>
<text text-anchor="start" x="183.5" y="-385.5" font-family="Helvetica,sans-Serif" font-size="10.00">INMOST::ElementArray</text>
<text text-anchor="middle" x="235" y="-374.5" font-family="Helvetica,sans-Serif" font-size="10.00">::begin</text>
</a>
</g>
</g>
<!-- Node1&#45;&gt;Node8 -->
<g id="edge7" class="edge"><title>Node1&#45;&gt;Node8</title>
<path fill="none" stroke="midnightblue" d="M90.6593,-441.351C110.142,-431.281 137.353,-417.77 162,-407.5 170.306,-404.039 179.279,-400.653 187.979,-397.546"/>
<polygon fill="midnightblue" stroke="midnightblue" points="89.0113,-438.263 81.7613,-445.988 92.2467,-444.47 89.0113,-438.263"/>
</g>
<!-- Node9 -->
<g id="node9" class="node"><title>Node9</title>
<g id="a_node9"><a xlink:href="class_i_n_m_o_s_t_1_1_sparse_1_1_row.html#ae3504eb157c7912d0c81e47a6e21f2c5" target="_top" xlink:title="INMOST::Sparse::Row\l::GetIndex">
<polygon fill="none" stroke="black" points="177.5,-318.5 177.5,-348.5 292.5,-348.5 292.5,-318.5 177.5,-318.5"/>
<text text-anchor="start" x="185.5" y="-336.5" font-family="Helvetica,sans-Serif" font-size="10.00">INMOST::Sparse::Row</text>
<text text-anchor="middle" x="235" y="-325.5" font-family="Helvetica,sans-Serif" font-size="10.00">::GetIndex</text>
</a>
</g>
</g>
<!-- Node1&#45;&gt;Node9 -->
<g id="edge8" class="edge"><title>Node1&#45;&gt;Node9</title>
<path fill="none" stroke="midnightblue" d="M77.6286,-437.826C95.0578,-416.318 127.179,-380.197 162,-358.5 168.064,-354.721 174.774,-351.424 181.587,-348.574"/>
<polygon fill="midnightblue" stroke="midnightblue" points="74.7688,-435.799 71.2926,-445.807 80.2514,-440.151 74.7688,-435.799"/>
</g>
<!-- Node10 -->
<g id="node10" class="node"><title>Node10</title>
<g id="a_node10"><a xlink:href="class_i_n_m_o_s_t_1_1_sparse_1_1_row.html#a5649581ac8d1e0c9249333c57e28c931" target="_top" xlink:title="INMOST::Sparse::Row\l::GetValue">
<polygon fill="none" stroke="black" points="177.5,-269.5 177.5,-299.5 292.5,-299.5 292.5,-269.5 177.5,-269.5"/>
<text text-anchor="start" x="185.5" y="-287.5" font-family="Helvetica,sans-Serif" font-size="10.00">INMOST::Sparse::Row</text>
<text text-anchor="middle" x="235" y="-276.5" font-family="Helvetica,sans-Serif" font-size="10.00">::GetValue</text>
</a>
</g>
</g>
<!-- Node1&#45;&gt;Node10 -->
<g id="edge9" class="edge"><title>Node1&#45;&gt;Node10</title>
<path fill="none" stroke="midnightblue" d="M71.8942,-436.488C85.6845,-405.52 117.041,-344.171 162,-309.5 167.03,-305.621 172.704,-302.318 178.605,-299.511"/>
<polygon fill="midnightblue" stroke="midnightblue" points="68.649,-435.174 67.8967,-445.742 75.0751,-437.95 68.649,-435.174"/>
</g>
<!-- Node11 -->
<g id="node11" class="node"><title>Node11</title>
<g id="a_node11"><a xlink:href="class_i_n_m_o_s_t_1_1_sparse_1_1_row.html#ae151ff1b4c953a41174aaf5a4261fafa" target="_top" xlink:title="INMOST::Sparse::Row\l::Begin">
<polygon fill="none" stroke="black" points="177.5,-220.5 177.5,-250.5 292.5,-250.5 292.5,-220.5 177.5,-220.5"/>
<text text-anchor="start" x="185.5" y="-238.5" font-family="Helvetica,sans-Serif" font-size="10.00">INMOST::Sparse::Row</text>
<text text-anchor="middle" x="235" y="-227.5" font-family="Helvetica,sans-Serif" font-size="10.00">::Begin</text>
</a>
</g>
</g>
<!-- Node1&#45;&gt;Node11 -->
<g id="edge10" class="edge"><title>Node1&#45;&gt;Node11</title>
<path fill="none" stroke="midnightblue" d="M68.5471,-435.971C78.605,-397.022 106.382,-309.246 162,-260.5 166.577,-256.488 171.835,-253.111 177.379,-250.27"/>
<polygon fill="midnightblue" stroke="midnightblue" points="65.1215,-435.244 66.1241,-445.792 71.9177,-436.921 65.1215,-435.244"/>
</g>
<!-- Node12 -->
<g id="node12" class="node"><title>Node12</title>
<g id="a_node12"><a xlink:href="class_i_n_m_o_s_t_1_1multivar__expression.html#ae04c6994f03f6e11c92987e07388caa7" target="_top" xlink:title="INMOST::multivar_expression\l::GetDerivative">
<polygon fill="none" stroke="black" points="344,-441.5 344,-471.5 489,-471.5 489,-441.5 344,-441.5"/>
<text text-anchor="start" x="352" y="-459.5" font-family="Helvetica,sans-Serif" font-size="10.00">INMOST::multivar_expression</text>
<text text-anchor="middle" x="416.5" y="-448.5" font-family="Helvetica,sans-Serif" font-size="10.00">::GetDerivative</text>
</a>
</g>
</g>
<!-- Node11&#45;&gt;Node12 -->
<g id="edge11" class="edge"><title>Node11&#45;&gt;Node12</title>
<path fill="none" stroke="midnightblue" d="M301.375,-254.26C303.766,-256.144 305.993,-258.218 308,-260.5 359.584,-319.141 292.113,-374.126 344,-432.5 347.045,-435.925 350.593,-438.863 354.451,-441.381"/>
<polygon fill="midnightblue" stroke="midnightblue" points="302.975,-251.123 292.697,-248.554 299.13,-256.972 302.975,-251.123"/>
</g>
<!-- Node13 -->
<g id="node13" class="node"><title>Node13</title>
<g id="a_node13"><a xlink:href="class_i_n_m_o_s_t_1_1multivar__expression.html#aa8201a6a63329890bde0e8ddc37dc780" target="_top" xlink:title="INMOST::multivar_expression\l::operator*=">
<polygon fill="none" stroke="black" points="344,-392.5 344,-422.5 489,-422.5 489,-392.5 344,-392.5"/>
<text text-anchor="start" x="352" y="-410.5" font-family="Helvetica,sans-Serif" font-size="10.00">INMOST::multivar_expression</text>
<text text-anchor="middle" x="416.5" y="-399.5" font-family="Helvetica,sans-Serif" font-size="10.00">::operator*=</text>
</a>
</g>
</g>
<!-- Node11&#45;&gt;Node13 -->
<g id="edge12" class="edge"><title>Node11&#45;&gt;Node13</title>
<path fill="none" stroke="midnightblue" d="M301.307,-254.572C303.7,-256.373 305.947,-258.343 308,-260.5 347.268,-301.761 304.519,-342.443 344,-383.5 347.267,-386.898 351.03,-389.814 355.083,-392.318"/>
<polygon fill="midnightblue" stroke="midnightblue" points="302.999,-251.5 292.684,-249.081 299.239,-257.405 302.999,-251.5"/>
</g>
<!-- Node14 -->
<g id="node14" class="node"><title>Node14</title>
<g id="a_node14"><a xlink:href="class_i_n_m_o_s_t_1_1multivar__expression.html#ad1e7513f547145312c4da1ae5aff2c62" target="_top" xlink:title="INMOST::multivar_expression\l::operator/=">
<polygon fill="none" stroke="black" points="344,-343.5 344,-373.5 489,-373.5 489,-343.5 344,-343.5"/>
<text text-anchor="start" x="352" y="-361.5" font-family="Helvetica,sans-Serif" font-size="10.00">INMOST::multivar_expression</text>
<text text-anchor="middle" x="416.5" y="-350.5" font-family="Helvetica,sans-Serif" font-size="10.00">::operator/=</text>
</a>
</g>
</g>
<!-- Node11&#45;&gt;Node14 -->
<g id="edge13" class="edge"><title>Node11&#45;&gt;Node14</title>
<path fill="none" stroke="midnightblue" d="M301.664,-255.558C303.886,-257.087 306.009,-258.732 308,-260.5 335.349,-284.784 316.526,-310.358 344,-334.5 347.934,-337.957 352.385,-340.92 357.094,-343.458"/>
<polygon fill="midnightblue" stroke="midnightblue" points="303.057,-252.314 292.673,-250.21 299.478,-258.33 303.057,-252.314"/>
</g>
<!-- Node15 -->
<g id="node15" class="node"><title>Node15</title>
<g id="a_node15"><a xlink:href="class_i_n_m_o_s_t_1_1multivar__expression.html#a1c15ad7bf3f378471f911fc1e60f8a3b" target="_top" xlink:title="INMOST::multivar_expression\l::check_nans">
<polygon fill="none" stroke="black" points="344,-294.5 344,-324.5 489,-324.5 489,-294.5 344,-294.5"/>
<text text-anchor="start" x="352" y="-312.5" font-family="Helvetica,sans-Serif" font-size="10.00">INMOST::multivar_expression</text>
<text text-anchor="middle" x="416.5" y="-301.5" font-family="Helvetica,sans-Serif" font-size="10.00">::check_nans</text>
</a>
</g>
</g>
<!-- Node11&#45;&gt;Node15 -->
<g id="edge14" class="edge"><title>Node11&#45;&gt;Node15</title>
<path fill="none" stroke="midnightblue" d="M294.639,-254.336C299.224,-256.268 303.728,-258.327 308,-260.5 325.362,-269.332 326.592,-276.758 344,-285.5 350.553,-288.791 357.66,-291.79 364.766,-294.469"/>
<polygon fill="midnightblue" stroke="midnightblue" points="295.746,-251.009 285.162,-250.548 293.149,-257.509 295.746,-251.009"/>
</g>
<!-- Node17 -->
<g id="node17" class="node"><title>Node17</title>
<g id="a_node17"><a xlink:href="class_i_n_m_o_s_t_1_1_sparse_1_1_row.html#ae9bef525df99c619d6d40896c27bc5db" target="_top" xlink:title="Set the vector entries by zeroes. ">
<polygon fill="none" stroke="black" points="359,-245.5 359,-275.5 474,-275.5 474,-245.5 359,-245.5"/>
<text text-anchor="start" x="367" y="-263.5" font-family="Helvetica,sans-Serif" font-size="10.00">INMOST::Sparse::Row</text>
<text text-anchor="middle" x="416.5" y="-252.5" font-family="Helvetica,sans-Serif" font-size="10.00">::Zero</text>
</a>
</g>
</g>
<!-- Node11&#45;&gt;Node17 -->
<g id="edge16" class="edge"><title>Node11&#45;&gt;Node17</title>
<path fill="none" stroke="midnightblue" d="M302.849,-244.81C321.24,-247.372 341.006,-250.125 358.767,-252.598"/>
<polygon fill="midnightblue" stroke="midnightblue" points="303.182,-241.323 292.795,-243.41 302.216,-248.256 303.182,-241.323"/>
</g>
<!-- Node18 -->
<g id="node18" class="node"><title>Node18</title>
<g id="a_node18"><a xlink:href="class_i_n_m_o_s_t_1_1_sparse_1_1_row.html#add923d14e340862a8b6e71a8d0704596" target="_top" xlink:title="INMOST::Sparse::Row\l::Print">
<polygon fill="none" stroke="black" points="359,-196.5 359,-226.5 474,-226.5 474,-196.5 359,-196.5"/>
<text text-anchor="start" x="367" y="-214.5" font-family="Helvetica,sans-Serif" font-size="10.00">INMOST::Sparse::Row</text>
<text text-anchor="middle" x="416.5" y="-203.5" font-family="Helvetica,sans-Serif" font-size="10.00">::Print</text>
</a>
</g>
</g>
<!-- Node11&#45;&gt;Node18 -->
<g id="edge17" class="edge"><title>Node11&#45;&gt;Node18</title>
<path fill="none" stroke="midnightblue" d="M302.849,-226.562C321.24,-224.103 341.006,-221.46 358.767,-219.086"/>
<polygon fill="midnightblue" stroke="midnightblue" points="302.243,-223.112 292.795,-227.906 303.171,-230.05 302.243,-223.112"/>
</g>
<!-- Node19 -->
<g id="node19" class="node"><title>Node19</title>
<g id="a_node19"><a xlink:href="class_i_n_m_o_s_t_1_1enhanced__multivar__expression.html#a458567eb465bc407ef959ec2d1150630" target="_top" xlink:title="INMOST::enhanced_multivar\l_expression::GetDerivative">
<polygon fill="none" stroke="black" points="346.5,-147.5 346.5,-177.5 486.5,-177.5 486.5,-147.5 346.5,-147.5"/>
<text text-anchor="start" x="354.5" y="-165.5" font-family="Helvetica,sans-Serif" font-size="10.00">INMOST::enhanced_multivar</text>
<text text-anchor="middle" x="416.5" y="-154.5" font-family="Helvetica,sans-Serif" font-size="10.00">_expression::GetDerivative</text>
</a>
</g>
</g>
<!-- Node11&#45;&gt;Node19 -->
<g id="edge18" class="edge"><title>Node11&#45;&gt;Node19</title>
<path fill="none" stroke="midnightblue" d="M277.439,-216.129C297.396,-207.046 321.769,-196.31 344,-187.5 352.558,-184.109 361.781,-180.703 370.667,-177.544"/>
<polygon fill="midnightblue" stroke="midnightblue" points="275.951,-212.961 268.316,-220.306 278.865,-219.326 275.951,-212.961"/>
</g>
<!-- Node21 -->
<g id="node21" class="node"><title>Node21</title>
<g id="a_node21"><a xlink:href="class_i_n_m_o_s_t_1_1enhanced__multivar__expression.html#a3b2f3e3370ce1626b30e837b517dffb3" target="_top" xlink:title="INMOST::enhanced_multivar\l_expression::operator*=">
<polygon fill="none" stroke="black" points="346.5,-98.5 346.5,-128.5 486.5,-128.5 486.5,-98.5 346.5,-98.5"/>
<text text-anchor="start" x="354.5" y="-116.5" font-family="Helvetica,sans-Serif" font-size="10.00">INMOST::enhanced_multivar</text>
<text text-anchor="middle" x="416.5" y="-105.5" font-family="Helvetica,sans-Serif" font-size="10.00">_expression::operator*=</text>
</a>
</g>
</g>
<!-- Node11&#45;&gt;Node21 -->
<g id="edge20" class="edge"><title>Node11&#45;&gt;Node21</title>
<path fill="none" stroke="midnightblue" d="M256.09,-212.868C276.397,-191.185 309.61,-158.838 344,-138.5 350.339,-134.751 357.325,-131.446 364.374,-128.571"/>
<polygon fill="midnightblue" stroke="midnightblue" points="253.416,-210.606 249.215,-220.332 258.564,-215.349 253.416,-210.606"/>
</g>
<!-- Node22 -->
<g id="node22" class="node"><title>Node22</title>
<g id="a_node22"><a xlink:href="class_i_n_m_o_s_t_1_1enhanced__multivar__expression.html#a6c1a779ec33e595aca0b7279ba36b59f" target="_top" xlink:title="INMOST::enhanced_multivar\l_expression::operator/=">
<polygon fill="none" stroke="black" points="346.5,-49.5 346.5,-79.5 486.5,-79.5 486.5,-49.5 346.5,-49.5"/>
<text text-anchor="start" x="354.5" y="-67.5" font-family="Helvetica,sans-Serif" font-size="10.00">INMOST::enhanced_multivar</text>
<text text-anchor="middle" x="416.5" y="-56.5" font-family="Helvetica,sans-Serif" font-size="10.00">_expression::operator/=</text>
</a>
</g>
</g>
<!-- Node11&#45;&gt;Node22 -->
<g id="edge21" class="edge"><title>Node11&#45;&gt;Node22</title>
<path fill="none" stroke="midnightblue" d="M247.914,-210.929C264.889,-178.396 299.028,-121.324 344,-88.5 348.654,-85.1034 353.82,-82.1654 359.185,-79.6287"/>
<polygon fill="midnightblue" stroke="midnightblue" points="244.62,-209.683 243.204,-220.183 250.859,-212.858 244.62,-209.683"/>
</g>
<!-- Node23 -->
<g id="node23" class="node"><title>Node23</title>
<g id="a_node23"><a xlink:href="class_i_n_m_o_s_t_1_1enhanced__multivar__expression.html#aeb6a84957da4c24c21a594a26e8f2d54" target="_top" xlink:title="INMOST::enhanced_multivar\l_expression::check_nans">
<polygon fill="none" stroke="black" points="346.5,-0.5 346.5,-30.5 486.5,-30.5 486.5,-0.5 346.5,-0.5"/>
<text text-anchor="start" x="354.5" y="-18.5" font-family="Helvetica,sans-Serif" font-size="10.00">INMOST::enhanced_multivar</text>
<text text-anchor="middle" x="416.5" y="-7.5" font-family="Helvetica,sans-Serif" font-size="10.00">_expression::check_nans</text>
</a>
</g>
</g>
<!-- Node11&#45;&gt;Node23 -->
<g id="edge22" class="edge"><title>Node11&#45;&gt;Node23</title>
<path fill="none" stroke="midnightblue" d="M243.122,-210.699C256.257,-169.303 288.181,-86.0891 344,-39.5 348.122,-36.06 352.757,-33.1063 357.636,-30.5713"/>
<polygon fill="midnightblue" stroke="midnightblue" points="239.772,-209.687 240.185,-220.274 246.464,-211.74 239.772,-209.687"/>
</g>
<!-- Node16 -->
<g id="node16" class="node"><title>Node16</title>
<g id="a_node16"><a xlink:href="namespace_i_n_m_o_s_t.html#a974d31acc486b8730a2d83297381877a" target="_top" xlink:title="INMOST::check_nans">
<polygon fill="none" stroke="black" points="539,-300 539,-319 651,-319 651,-300 539,-300"/>
<text text-anchor="middle" x="595" y="-307" font-family="Helvetica,sans-Serif" font-size="10.00">INMOST::check_nans</text>
</a>
</g>
</g>
<!-- Node15&#45;&gt;Node16 -->
<g id="edge15" class="edge"><title>Node15&#45;&gt;Node16</title>
<path fill="none" stroke="midnightblue" d="M499.248,-309.5C512.682,-309.5 526.318,-309.5 538.902,-309.5"/>
<polygon fill="midnightblue" stroke="midnightblue" points="499.035,-306 489.035,-309.5 499.035,-313 499.035,-306"/>
</g>
<!-- Node20 -->
<g id="node20" class="node"><title>Node20</title>
<g id="a_node20"><a xlink:href="class_i_n_m_o_s_t_1_1enhanced__multivar__expression.html#a677fecf4942068b4c579c190b52dc409" target="_top" xlink:title="INMOST::enhanced_multivar\l_expression::GetDerivative">
<polygon fill="none" stroke="black" points="525,-147.5 525,-177.5 665,-177.5 665,-147.5 525,-147.5"/>
<text text-anchor="start" x="533" y="-165.5" font-family="Helvetica,sans-Serif" font-size="10.00">INMOST::enhanced_multivar</text>
<text text-anchor="middle" x="595" y="-154.5" font-family="Helvetica,sans-Serif" font-size="10.00">_expression::GetDerivative</text>
</a>
</g>
</g>
<!-- Node19&#45;&gt;Node20 -->
<g id="edge19" class="edge"><title>Node19&#45;&gt;Node20</title>
<path fill="none" stroke="midnightblue" d="M496.849,-162.5C506.223,-162.5 515.733,-162.5 524.949,-162.5"/>
<polygon fill="midnightblue" stroke="midnightblue" points="496.751,-159 486.751,-162.5 496.751,-166 496.751,-159"/>
</g>
<!-- Node24 -->
<g id="node24" class="node"><title>Node24</title>
<g id="a_node24"><a xlink:href="namespace_i_n_m_o_s_t.html#a22eaa3c4a301d2df158a997642f3e5d6" target="_top" xlink:title="INMOST::check_nans">
<polygon fill="none" stroke="black" points="539,-6 539,-25 651,-25 651,-6 539,-6"/>
<text text-anchor="middle" x="595" y="-13" font-family="Helvetica,sans-Serif" font-size="10.00">INMOST::check_nans</text>
</a>
</g>
</g>
<!-- Node23&#45;&gt;Node24 -->
<g id="edge23" class="edge"><title>Node23&#45;&gt;Node24</title>
<path fill="none" stroke="midnightblue" d="M496.976,-15.5C511.121,-15.5 525.57,-15.5 538.849,-15.5"/>
<polygon fill="midnightblue" stroke="midnightblue" points="496.751,-12.0001 486.751,-15.5 496.751,-19.0001 496.751,-12.0001"/>
</g>
</g>
</svg>
