<?xml version="1.0" encoding="UTF-8" standalone="no"?>
<!DOCTYPE svg PUBLIC "-//W3C//DTD SVG 1.1//EN"
 "http://www.w3.org/Graphics/SVG/1.1/DTD/svg11.dtd">
<!-- Generated by graphviz version 2.38.0 (20140413.2041)
 -->
<!-- Title: INMOST::chunk_bulk_array::size Pages: 1 -->
<svg width="279pt" height="235pt"
 viewBox="0.00 0.00 279.00 235.00" xmlns="http://www.w3.org/2000/svg" xmlns:xlink="http://www.w3.org/1999/xlink">
<g id="graph0" class="graph" transform="scale(1 1) rotate(0) translate(4 231)">
<title>INMOST::chunk_bulk_array::size</title>
<!-- Node1 -->
<g id="node1" class="node"><title>Node1</title>
<polygon fill="#bfbfbf" stroke="black" points="0,-98.5 0,-128.5 109,-128.5 109,-98.5 0,-98.5"/>
<text text-anchor="start" x="8" y="-116.5" font-family="Helvetica,sans-Serif" font-size="10.00">INMOST::chunk_bulk</text>
<text text-anchor="middle" x="54.5" y="-105.5" font-family="Helvetica,sans-Serif" font-size="10.00">_array::size</text>
</g>
<!-- Node2 -->
<g id="node2" class="node"><title>Node2</title>
<g id="a_node2"><a xlink:href="class_i_n_m_o_s_t_1_1chunk__bulk__array.html#abf4dda4cfe854629746b58b0748c122f" target="_top" xlink:title="INMOST::chunk_bulk\l_array::operator[]">
<polygon fill="none" stroke="black" points="153.5,-196.5 153.5,-226.5 262.5,-226.5 262.5,-196.5 153.5,-196.5"/>
<text text-anchor="start" x="161.5" y="-214.5" font-family="Helvetica,sans-Serif" font-size="10.00">INMOST::chunk_bulk</text>
<text text-anchor="middle" x="208" y="-203.5" font-family="Helvetica,sans-Serif" font-size="10.00">_array::operator[]</text>
</a>
</g>
</g>
<!-- Node1&#45;&gt;Node2 -->
<g id="edge1" class="edge"><title>Node1&#45;&gt;Node2</title>
<path fill="none" stroke="midnightblue" d="M77.8494,-135.476C95.0844,-151.515 120.111,-172.914 145,-187.5 150.577,-190.768 156.68,-193.755 162.813,-196.427"/>
<polygon fill="midnightblue" stroke="midnightblue" points="80.1763,-132.859 70.5074,-128.528 75.3647,-137.943 80.1763,-132.859"/>
</g>
<!-- Node3 -->
<g id="node3" class="node"><title>Node3</title>
<g id="a_node3"><a xlink:href="class_i_n_m_o_s_t_1_1chunk__bulk__array.html#a4d54a4d63df3eaa96a7f52598e1c0f4b" target="_top" xlink:title="INMOST::chunk_bulk\l_array::at">
<polygon fill="none" stroke="black" points="153.5,-147.5 153.5,-177.5 262.5,-177.5 262.5,-147.5 153.5,-147.5"/>
<text text-anchor="start" x="161.5" y="-165.5" font-family="Helvetica,sans-Serif" font-size="10.00">INMOST::chunk_bulk</text>
<text text-anchor="middle" x="208" y="-154.5" font-family="Helvetica,sans-Serif" font-size="10.00">_array::at</text>
</a>
</g>
</g>
<!-- Node1&#45;&gt;Node3 -->
<g id="edge2" class="edge"><title>Node1&#45;&gt;Node3</title>
<path fill="none" stroke="midnightblue" d="M111.954,-131.759C127.933,-136.927 145.14,-142.492 160.463,-147.448"/>
<polygon fill="midnightblue" stroke="midnightblue" points="112.783,-128.349 102.191,-128.601 110.629,-135.009 112.783,-128.349"/>
</g>
<!-- Node4 -->
<g id="node4" class="node"><title>Node4</title>
<g id="a_node4"><a xlink:href="class_i_n_m_o_s_t_1_1chunk__bulk__array.html#a3e6541dc627b9e8648fc3e05d747a1cd" target="_top" xlink:title="INMOST::chunk_bulk\l_array::empty">
<polygon fill="none" stroke="black" points="153.5,-98.5 153.5,-128.5 262.5,-128.5 262.5,-98.5 153.5,-98.5"/>
<text text-anchor="start" x="161.5" y="-116.5" font-family="Helvetica,sans-Serif" font-size="10.00">INMOST::chunk_bulk</text>
<text text-anchor="middle" x="208" y="-105.5" font-family="Helvetica,sans-Serif" font-size="10.00">_array::empty</text>
</a>
</g>
</g>
<!-- Node1&#45;&gt;Node4 -->
<g id="edge3" class="edge"><title>Node1&#45;&gt;Node4</title>
<path fill="none" stroke="midnightblue" d="M119.544,-113.5C130.796,-113.5 142.401,-113.5 153.334,-113.5"/>
<polygon fill="midnightblue" stroke="midnightblue" points="119.34,-110 109.34,-113.5 119.34,-117 119.34,-110"/>
</g>
<!-- Node5 -->
<g id="node5" class="node"><title>Node5</title>
<g id="a_node5"><a xlink:href="class_i_n_m_o_s_t_1_1chunk__bulk__array.html#ae6ffef353732a7e98f50eac283173f92" target="_top" xlink:title="INMOST::chunk_bulk\l_array::chunk_bulk_array">
<polygon fill="none" stroke="black" points="145,-49.5 145,-79.5 271,-79.5 271,-49.5 145,-49.5"/>
<text text-anchor="start" x="153" y="-67.5" font-family="Helvetica,sans-Serif" font-size="10.00">INMOST::chunk_bulk</text>
<text text-anchor="middle" x="208" y="-56.5" font-family="Helvetica,sans-Serif" font-size="10.00">_array::chunk_bulk_array</text>
</a>
</g>
</g>
<!-- Node1&#45;&gt;Node5 -->
<g id="edge4" class="edge"><title>Node1&#45;&gt;Node5</title>
<path fill="none" stroke="midnightblue" d="M111.954,-95.2409C127.933,-90.0727 145.14,-84.5076 160.463,-79.5516"/>
<polygon fill="midnightblue" stroke="midnightblue" points="110.629,-91.991 102.191,-98.3986 112.783,-98.6513 110.629,-91.991"/>
</g>
<!-- Node6 -->
<g id="node6" class="node"><title>Node6</title>
<g id="a_node6"><a xlink:href="class_i_n_m_o_s_t_1_1chunk__bulk__array.html#a106e009c592d7e4ae6e34e8e72cd3e95" target="_top" xlink:title="INMOST::chunk_bulk\l_array::operator=">
<polygon fill="none" stroke="black" points="153.5,-0.5 153.5,-30.5 262.5,-30.5 262.5,-0.5 153.5,-0.5"/>
<text text-anchor="start" x="161.5" y="-18.5" font-family="Helvetica,sans-Serif" font-size="10.00">INMOST::chunk_bulk</text>
<text text-anchor="middle" x="208" y="-7.5" font-family="Helvetica,sans-Serif" font-size="10.00">_array::operator=</text>
</a>
</g>
</g>
<!-- Node1&#45;&gt;Node6 -->
<g id="edge5" class="edge"><title>Node1&#45;&gt;Node6</title>
<path fill="none" stroke="midnightblue" d="M78.2749,-91.6548C95.5547,-75.9264 120.45,-55.0082 145,-40.5 151.195,-36.8391 158.026,-33.4851 164.821,-30.504"/>
<polygon fill="midnightblue" stroke="midnightblue" points="75.8658,-89.1155 70.9,-98.4746 80.6184,-94.2549 75.8658,-89.1155"/>
</g>
</g>
</svg>
