<?xml version="1.0" encoding="UTF-8" standalone="no"?>
<!DOCTYPE svg PUBLIC "-//W3C//DTD SVG 1.1//EN"
 "http://www.w3.org/Graphics/SVG/1.1/DTD/svg11.dtd">
<!-- Generated by graphviz version 2.38.0 (20140413.2041)
 -->
<!-- Title: INMOST::multivar_expression::operator&#45;= Pages: 1 -->
<svg width="324pt" height="137pt"
 viewBox="0.00 0.00 324.00 137.00" xmlns="http://www.w3.org/2000/svg" xmlns:xlink="http://www.w3.org/1999/xlink">
<g id="graph0" class="graph" transform="scale(1 1) rotate(0) translate(4 133)">
<title>INMOST::multivar_expression::operator&#45;=</title>
<!-- Node1 -->
<g id="node1" class="node"><title>Node1</title>
<polygon fill="#bfbfbf" stroke="black" points="0,-49.5 0,-79.5 145,-79.5 145,-49.5 0,-49.5"/>
<text text-anchor="start" x="8" y="-67.5" font-family="Helvetica,sans-Serif" font-size="10.00">INMOST::multivar_expression</text>
<text text-anchor="middle" x="72.5" y="-56.5" font-family="Helvetica,sans-Serif" font-size="10.00">::operator&#45;=</text>
</g>
<!-- Node2 -->
<g id="node2" class="node"><title>Node2</title>
<g id="a_node2"><a xlink:href="class_i_n_m_o_s_t_1_1basic__expression.html#a80781d2a414c9af01e59a97aeae7151e" target="_top" xlink:title="INMOST::basic_expression\l::GetValue">
<polygon fill="none" stroke="black" points="181,-98.5 181,-128.5 316,-128.5 316,-98.5 181,-98.5"/>
<text text-anchor="start" x="189" y="-116.5" font-family="Helvetica,sans-Serif" font-size="10.00">INMOST::basic_expression</text>
<text text-anchor="middle" x="248.5" y="-105.5" font-family="Helvetica,sans-Serif" font-size="10.00">::GetValue</text>
</a>
</g>
</g>
<!-- Node1&#45;&gt;Node2 -->
<g id="edge1" class="edge"><title>Node1&#45;&gt;Node2</title>
<path fill="none" stroke="midnightblue" d="M127.126,-79.6014C145.237,-84.7019 165.624,-90.4429 184.4,-95.7305"/>
<polygon fill="midnightblue" stroke="midnightblue" points="183.477,-99.1067 194.052,-98.4484 185.375,-92.3687 183.477,-99.1067"/>
</g>
<!-- Node3 -->
<g id="node3" class="node"><title>Node3</title>
<g id="a_node3"><a xlink:href="class_i_n_m_o_s_t_1_1basic__expression.html#aa609f80b19e9d7cc70614aa667e04920" target="_top" xlink:title="INMOST::basic_expression\l::GetDerivative">
<polygon fill="none" stroke="black" points="181,-49.5 181,-79.5 316,-79.5 316,-49.5 181,-49.5"/>
<text text-anchor="start" x="189" y="-67.5" font-family="Helvetica,sans-Serif" font-size="10.00">INMOST::basic_expression</text>
<text text-anchor="middle" x="248.5" y="-56.5" font-family="Helvetica,sans-Serif" font-size="10.00">::GetDerivative</text>
</a>
</g>
</g>
<!-- Node1&#45;&gt;Node3 -->
<g id="edge2" class="edge"><title>Node1&#45;&gt;Node3</title>
<path fill="none" stroke="midnightblue" d="M145.026,-64.5C153.422,-64.5 162.017,-64.5 170.485,-64.5"/>
<polygon fill="midnightblue" stroke="midnightblue" points="170.728,-68.0001 180.728,-64.5 170.728,-61.0001 170.728,-68.0001"/>
</g>
<!-- Node4 -->
<g id="node4" class="node"><title>Node4</title>
<g id="a_node4"><a xlink:href="class_i_n_m_o_s_t_1_1_sparse_1_1_row.html#a0b66913c8caa4da4ff2c8e200abecaba" target="_top" xlink:title="INMOST::Sparse::Row\l::Swap">
<polygon fill="none" stroke="black" points="191,-0.5 191,-30.5 306,-30.5 306,-0.5 191,-0.5"/>
<text text-anchor="start" x="199" y="-18.5" font-family="Helvetica,sans-Serif" font-size="10.00">INMOST::Sparse::Row</text>
<text text-anchor="middle" x="248.5" y="-7.5" font-family="Helvetica,sans-Serif" font-size="10.00">::Swap</text>
</a>
</g>
</g>
<!-- Node1&#45;&gt;Node4 -->
<g id="edge3" class="edge"><title>Node1&#45;&gt;Node4</title>
<path fill="none" stroke="midnightblue" d="M127.126,-49.3986C145.237,-44.2981 165.624,-38.5571 184.4,-33.2695"/>
<polygon fill="midnightblue" stroke="midnightblue" points="185.375,-36.6313 194.052,-30.5516 183.477,-29.8933 185.375,-36.6313"/>
</g>
</g>
</svg>
