<?xml version="1.0" encoding="UTF-8" standalone="no"?>
<!DOCTYPE svg PUBLIC "-//W3C//DTD SVG 1.1//EN"
 "http://www.w3.org/Graphics/SVG/1.1/DTD/svg11.dtd">
<!-- Generated by graphviz version 2.38.0 (20140413.2041)
 -->
<!-- Title: INMOST::Matrix::SVD Pages: 1 -->
<svg width="462pt" height="376pt"
 viewBox="0.00 0.00 462.00 375.50" xmlns="http://www.w3.org/2000/svg" xmlns:xlink="http://www.w3.org/1999/xlink">
<g id="graph0" class="graph" transform="scale(1 1) rotate(0) translate(4 371.5)">
<title>INMOST::Matrix::SVD</title>
<!-- Node1 -->
<g id="node1" class="node"><title>Node1</title>
<polygon fill="#bfbfbf" stroke="black" points="0,-177 0,-196 113,-196 113,-177 0,-177"/>
<text text-anchor="middle" x="56.5" y="-184" font-family="Helvetica,sans-Serif" font-size="10.00">INMOST::Matrix::SVD</text>
</g>
<!-- Node1&#45;&gt;Node1 -->
<g id="edge2" class="edge"><title>Node1&#45;&gt;Node1</title>
<path fill="none" stroke="midnightblue" d="M31.8394,-196.257C19.8423,-205.065 28.0625,-214.5 56.5,-214.5 75.6064,-214.5 85.5865,-210.241 86.4401,-204.775"/>
<polygon fill="midnightblue" stroke="midnightblue" points="89.404,-202.913 81.1606,-196.257 83.4542,-206.601 89.404,-202.913"/>
</g>
<!-- Node2 -->
<g id="node2" class="node"><title>Node2</title>
<g id="a_node2"><a xlink:href="class_i_n_m_o_s_t_1_1_matrix.html#acce10c229905d942edf020e7b89ebed1" target="_top" xlink:title="INMOST::Matrix::Transpose">
<polygon fill="none" stroke="black" points="149,-348 149,-367 286,-367 286,-348 149,-348"/>
<text text-anchor="middle" x="217.5" y="-355" font-family="Helvetica,sans-Serif" font-size="10.00">INMOST::Matrix::Transpose</text>
</a>
</g>
</g>
<!-- Node1&#45;&gt;Node2 -->
<g id="edge1" class="edge"><title>Node1&#45;&gt;Node2</title>
<path fill="none" stroke="midnightblue" d="M60.4444,-196.041C69.2197,-222.853 97.8169,-299.457 149,-338.5 151.485,-340.396 154.15,-342.102 156.935,-343.638"/>
<polygon fill="midnightblue" stroke="midnightblue" points="155.621,-346.888 166.159,-347.988 158.607,-340.557 155.621,-346.888"/>
</g>
<!-- Node3 -->
<g id="node3" class="node"><title>Node3</title>
<g id="a_node3"><a xlink:href="class_i_n_m_o_s_t_1_1_matrix.html#a937c3a9682da457736dfa3b7a785d94c" target="_top" xlink:title="INMOST::Matrix::Swap">
<polygon fill="none" stroke="black" points="159.5,-310 159.5,-329 275.5,-329 275.5,-310 159.5,-310"/>
<text text-anchor="middle" x="217.5" y="-317" font-family="Helvetica,sans-Serif" font-size="10.00">INMOST::Matrix::Swap</text>
</a>
</g>
</g>
<!-- Node1&#45;&gt;Node3 -->
<g id="edge3" class="edge"><title>Node1&#45;&gt;Node3</title>
<path fill="none" stroke="midnightblue" d="M62.4643,-196.128C74.3122,-218.13 106.456,-272.357 149,-300.5 152.129,-302.57 155.482,-304.416 158.961,-306.064"/>
<polygon fill="midnightblue" stroke="midnightblue" points="157.815,-309.378 168.393,-309.975 160.497,-302.911 157.815,-309.378"/>
</g>
<!-- Node5 -->
<g id="node5" class="node"><title>Node5</title>
<g id="a_node5"><a xlink:href="class_i_n_m_o_s_t_1_1_matrix.html#a988d2894b8ca8489cf03dae3d5818a46" target="_top" xlink:title="INMOST::Matrix::Resize">
<polygon fill="none" stroke="black" points="156.5,-272 156.5,-291 278.5,-291 278.5,-272 156.5,-272"/>
<text text-anchor="middle" x="217.5" y="-279" font-family="Helvetica,sans-Serif" font-size="10.00">INMOST::Matrix::Resize</text>
</a>
</g>
</g>
<!-- Node1&#45;&gt;Node5 -->
<g id="edge5" class="edge"><title>Node1&#45;&gt;Node5</title>
<path fill="none" stroke="midnightblue" d="M66.408,-196.173C81.749,-212.266 114.815,-244.539 149,-262.5 153.287,-264.753 157.872,-266.764 162.559,-268.554"/>
<polygon fill="midnightblue" stroke="midnightblue" points="161.663,-271.948 172.258,-271.926 163.962,-265.337 161.663,-271.948"/>
</g>
<!-- Node8 -->
<g id="node8" class="node"><title>Node8</title>
<g id="a_node8"><a xlink:href="class_i_n_m_o_s_t_1_1_matrix.html#a1bfdbdc75434fa1fd4d02057e10d704a" target="_top" xlink:title="INMOST::Matrix::Zero">
<polygon fill="none" stroke="black" points="162,-234 162,-253 273,-253 273,-234 162,-234"/>
<text text-anchor="middle" x="217.5" y="-241" font-family="Helvetica,sans-Serif" font-size="10.00">INMOST::Matrix::Zero</text>
</a>
</g>
</g>
<!-- Node1&#45;&gt;Node8 -->
<g id="edge8" class="edge"><title>Node1&#45;&gt;Node8</title>
<path fill="none" stroke="midnightblue" d="M83.9154,-196.063C102.186,-202.668 127.06,-211.643 149,-219.5 159.011,-223.085 169.865,-226.953 179.881,-230.514"/>
<polygon fill="midnightblue" stroke="midnightblue" points="178.961,-233.901 189.556,-233.951 181.305,-227.305 178.961,-233.901"/>
</g>
<!-- Node9 -->
<g id="node9" class="node"><title>Node9</title>
<g id="a_node9"><a xlink:href="inmost__variable_8h.html#aaa87a9d57f31044c99fd1b9eb371356f" target="_top" xlink:title="fabs">
<polygon fill="none" stroke="black" points="370.5,-158 370.5,-177 405.5,-177 405.5,-158 370.5,-158"/>
<text text-anchor="middle" x="388" y="-165" font-family="Helvetica,sans-Serif" font-size="10.00">fabs</text>
</a>
</g>
</g>
<!-- Node1&#45;&gt;Node9 -->
<g id="edge9" class="edge"><title>Node1&#45;&gt;Node9</title>
<path fill="none" stroke="midnightblue" d="M113.041,-189.376C159.396,-191.087 227.147,-191.988 286,-186.5 311.567,-184.116 340.307,-178.408 360.573,-173.866"/>
<polygon fill="midnightblue" stroke="midnightblue" points="361.375,-177.273 370.336,-171.622 359.806,-170.451 361.375,-177.273"/>
</g>
<!-- Node10 -->
<g id="node10" class="node"><title>Node10</title>
<g id="a_node10"><a xlink:href="inmost__expression_8h.html#a8d817263643d76be460d1bb5f1c64408" target="_top" xlink:title="get_value">
<polygon fill="none" stroke="black" points="189,-6 189,-25 246,-25 246,-6 189,-6"/>
<text text-anchor="middle" x="217.5" y="-13" font-family="Helvetica,sans-Serif" font-size="10.00">get_value</text>
</a>
</g>
</g>
<!-- Node1&#45;&gt;Node10 -->
<g id="edge10" class="edge"><title>Node1&#45;&gt;Node10</title>
<path fill="none" stroke="midnightblue" d="M60.4444,-176.959C69.2197,-150.147 97.8169,-73.5434 149,-34.5 157.656,-27.8974 168.5,-23.5892 178.948,-20.7781"/>
<polygon fill="midnightblue" stroke="midnightblue" points="179.802,-24.1731 188.76,-18.5156 178.229,-17.3521 179.802,-24.1731"/>
</g>
<!-- Node12 -->
<g id="node12" class="node"><title>Node12</title>
<g id="a_node12"><a xlink:href="class_i_n_m_o_s_t_1_1_matrix.html#a577c235684527839a256c397dbc64536" target="_top" xlink:title="INMOST::Matrix::sign_func">
<polygon fill="none" stroke="black" points="150.5,-158 150.5,-177 284.5,-177 284.5,-158 150.5,-158"/>
<text text-anchor="middle" x="217.5" y="-165" font-family="Helvetica,sans-Serif" font-size="10.00">INMOST::Matrix::sign_func</text>
</a>
</g>
</g>
<!-- Node1&#45;&gt;Node12 -->
<g id="edge12" class="edge"><title>Node1&#45;&gt;Node12</title>
<path fill="none" stroke="midnightblue" d="M113.11,-179.855C121.829,-178.813 130.971,-177.72 140.059,-176.634"/>
<polygon fill="midnightblue" stroke="midnightblue" points="140.757,-180.076 150.271,-175.414 139.927,-173.125 140.757,-180.076"/>
</g>
<!-- Node13 -->
<g id="node13" class="node"><title>Node13</title>
<g id="a_node13"><a xlink:href="inmost__expression_8h.html#a9895440ef16c247ba332e9ab223ee9ea" target="_top" xlink:title="sqrt">
<polygon fill="none" stroke="black" points="371.5,-101 371.5,-120 404.5,-120 404.5,-101 371.5,-101"/>
<text text-anchor="middle" x="388" y="-108" font-family="Helvetica,sans-Serif" font-size="10.00">sqrt</text>
</a>
</g>
</g>
<!-- Node1&#45;&gt;Node13 -->
<g id="edge14" class="edge"><title>Node1&#45;&gt;Node13</title>
<path fill="none" stroke="midnightblue" d="M65.0262,-176.88C79.2275,-159.609 111.903,-123.897 149,-110.5 222.241,-84.0499 316.631,-96.5436 361.338,-104.977"/>
<polygon fill="midnightblue" stroke="midnightblue" points="360.854,-108.449 371.343,-106.956 362.212,-101.582 360.854,-108.449"/>
</g>
<!-- Node14 -->
<g id="node14" class="node"><title>Node14</title>
<g id="a_node14"><a xlink:href="class_i_n_m_o_s_t_1_1_matrix.html#a1447dd2cb4c38867b6644796834fe887" target="_top" xlink:title="INMOST::Matrix::max_func">
<polygon fill="none" stroke="black" points="150.5,-44 150.5,-63 284.5,-63 284.5,-44 150.5,-44"/>
<text text-anchor="middle" x="217.5" y="-51" font-family="Helvetica,sans-Serif" font-size="10.00">INMOST::Matrix::max_func</text>
</a>
</g>
</g>
<!-- Node1&#45;&gt;Node14 -->
<g id="edge15" class="edge"><title>Node1&#45;&gt;Node14</title>
<path fill="none" stroke="midnightblue" d="M63.0824,-176.866C75.7267,-155.854 108.617,-105.547 149,-77.5 155.04,-73.3052 161.89,-69.7679 168.855,-66.808"/>
<polygon fill="midnightblue" stroke="midnightblue" points="170.3,-70.0018 178.357,-63.1224 167.768,-63.4755 170.3,-70.0018"/>
</g>
<!-- Node15 -->
<g id="node15" class="node"><title>Node15</title>
<g id="a_node15"><a xlink:href="class_i_n_m_o_s_t_1_1_matrix.html#a1bf63fc308656d1066e9149911d762d2" target="_top" xlink:title="INMOST::Matrix::pythag">
<polygon fill="none" stroke="black" points="156.5,-120 156.5,-139 278.5,-139 278.5,-120 156.5,-120"/>
<text text-anchor="middle" x="217.5" y="-127" font-family="Helvetica,sans-Serif" font-size="10.00">INMOST::Matrix::pythag</text>
</a>
</g>
</g>
<!-- Node1&#45;&gt;Node15 -->
<g id="edge16" class="edge"><title>Node1&#45;&gt;Node15</title>
<path fill="none" stroke="midnightblue" d="M78.6677,-176.863C97.0369,-168.706 124.462,-157.015 149,-148.5 155.568,-146.221 162.565,-144.013 169.473,-141.958"/>
<polygon fill="midnightblue" stroke="midnightblue" points="170.835,-145.207 179.469,-139.066 168.89,-138.483 170.835,-145.207"/>
</g>
<!-- Node4 -->
<g id="node4" class="node"><title>Node4</title>
<g id="a_node4"><a xlink:href="class_i_n_m_o_s_t_1_1array.html#a4ec65eae69d6b4b639ba806c5d07ae7c" target="_top" xlink:title="INMOST::array::swap">
<polygon fill="none" stroke="black" points="333,-310 333,-329 443,-329 443,-310 333,-310"/>
<text text-anchor="middle" x="388" y="-317" font-family="Helvetica,sans-Serif" font-size="10.00">INMOST::array::swap</text>
</a>
</g>
</g>
<!-- Node3&#45;&gt;Node4 -->
<g id="edge4" class="edge"><title>Node3&#45;&gt;Node4</title>
<path fill="none" stroke="midnightblue" d="M275.546,-319.5C290.74,-319.5 307.257,-319.5 322.805,-319.5"/>
<polygon fill="midnightblue" stroke="midnightblue" points="322.86,-323 332.86,-319.5 322.86,-316 322.86,-323"/>
</g>
<!-- Node6 -->
<g id="node6" class="node"><title>Node6</title>
<g id="a_node6"><a xlink:href="class_i_n_m_o_s_t_1_1array.html#a860b9f961e94311be30e44861f9bcf66" target="_top" xlink:title="INMOST::array::size">
<polygon fill="none" stroke="black" points="335.5,-272 335.5,-291 440.5,-291 440.5,-272 335.5,-272"/>
<text text-anchor="middle" x="388" y="-279" font-family="Helvetica,sans-Serif" font-size="10.00">INMOST::array::size</text>
</a>
</g>
</g>
<!-- Node5&#45;&gt;Node6 -->
<g id="edge6" class="edge"><title>Node5&#45;&gt;Node6</title>
<path fill="none" stroke="midnightblue" d="M278.856,-281.5C293.895,-281.5 310.04,-281.5 325.149,-281.5"/>
<polygon fill="midnightblue" stroke="midnightblue" points="325.418,-285 335.418,-281.5 325.418,-278 325.418,-285"/>
</g>
<!-- Node7 -->
<g id="node7" class="node"><title>Node7</title>
<g id="a_node7"><a xlink:href="class_i_n_m_o_s_t_1_1array.html#a0b730a136da5c87b007b22a9a9161e73" target="_top" xlink:title="INMOST::array::resize">
<polygon fill="none" stroke="black" points="331.5,-234 331.5,-253 444.5,-253 444.5,-234 331.5,-234"/>
<text text-anchor="middle" x="388" y="-241" font-family="Helvetica,sans-Serif" font-size="10.00">INMOST::array::resize</text>
</a>
</g>
</g>
<!-- Node5&#45;&gt;Node7 -->
<g id="edge7" class="edge"><title>Node5&#45;&gt;Node7</title>
<path fill="none" stroke="midnightblue" d="M261.02,-271.911C283.455,-266.851 311.173,-260.6 334.893,-255.251"/>
<polygon fill="midnightblue" stroke="midnightblue" points="335.801,-258.634 344.786,-253.02 334.261,-251.806 335.801,-258.634"/>
</g>
<!-- Node11 -->
<g id="node11" class="node"><title>Node11</title>
<g id="a_node11"><a xlink:href="class_i_n_m_o_s_t_1_1shell__expression.html#af9d7c61264aa4b66000a2a5373049667" target="_top" xlink:title="INMOST::shell_expression\l::GetValue">
<polygon fill="none" stroke="black" points="322,-0.5 322,-30.5 454,-30.5 454,-0.5 322,-0.5"/>
<text text-anchor="start" x="330" y="-18.5" font-family="Helvetica,sans-Serif" font-size="10.00">INMOST::shell_expression</text>
<text text-anchor="middle" x="388" y="-7.5" font-family="Helvetica,sans-Serif" font-size="10.00">::GetValue</text>
</a>
</g>
</g>
<!-- Node10&#45;&gt;Node11 -->
<g id="edge11" class="edge"><title>Node10&#45;&gt;Node11</title>
<path fill="none" stroke="midnightblue" d="M246.324,-15.5C264.238,-15.5 288.45,-15.5 311.736,-15.5"/>
<polygon fill="midnightblue" stroke="midnightblue" points="311.989,-19.0001 321.989,-15.5 311.989,-12.0001 311.989,-19.0001"/>
</g>
<!-- Node12&#45;&gt;Node9 -->
<g id="edge13" class="edge"><title>Node12&#45;&gt;Node9</title>
<path fill="none" stroke="midnightblue" d="M284.612,-167.5C311.028,-167.5 339.941,-167.5 360.285,-167.5"/>
<polygon fill="midnightblue" stroke="midnightblue" points="360.36,-171 370.359,-167.5 360.359,-164 360.36,-171"/>
</g>
<!-- Node15&#45;&gt;Node9 -->
<g id="edge17" class="edge"><title>Node15&#45;&gt;Node9</title>
<path fill="none" stroke="midnightblue" d="M261.02,-139.089C292.349,-146.154 333.977,-155.542 360.636,-161.554"/>
<polygon fill="midnightblue" stroke="midnightblue" points="359.877,-164.971 370.402,-163.757 361.417,-158.142 359.877,-164.971"/>
</g>
<!-- Node15&#45;&gt;Node13 -->
<g id="edge18" class="edge"><title>Node15&#45;&gt;Node13</title>
<path fill="none" stroke="midnightblue" d="M278.856,-122.694C307.131,-119.506 339.319,-115.876 361.174,-113.412"/>
<polygon fill="midnightblue" stroke="midnightblue" points="361.753,-116.869 371.298,-112.271 360.969,-109.913 361.753,-116.869"/>
</g>
</g>
</svg>
