<?xml version="1.0" encoding="UTF-8" standalone="no"?>
<!DOCTYPE svg PUBLIC "-//W3C//DTD SVG 1.1//EN"
 "http://www.w3.org/Graphics/SVG/1.1/DTD/svg11.dtd">
<!-- Generated by graphviz version 2.38.0 (20140413.2041)
 -->
<!-- Title: INMOST::shell::end Pages: 1 -->
<svg width="273pt" height="88pt"
 viewBox="0.00 0.00 273.00 88.00" xmlns="http://www.w3.org/2000/svg" xmlns:xlink="http://www.w3.org/1999/xlink">
<g id="graph0" class="graph" transform="scale(1 1) rotate(0) translate(4 84)">
<title>INMOST::shell::end</title>
<!-- Node1 -->
<g id="node1" class="node"><title>Node1</title>
<polygon fill="#bfbfbf" stroke="black" points="0,-30 0,-49 101,-49 101,-30 0,-30"/>
<text text-anchor="middle" x="50.5" y="-37" font-family="Helvetica,sans-Serif" font-size="10.00">INMOST::shell::end</text>
</g>
<!-- Node2 -->
<g id="node2" class="node"><title>Node2</title>
<g id="a_node2"><a xlink:href="class_i_n_m_o_s_t_1_1shell.html#a201fae72cdcf92627896db2f6de293bb" target="_top" xlink:title="INMOST::shell\&lt; reference\l \&gt;::erase">
<polygon fill="none" stroke="black" points="137,-49.5 137,-79.5 265,-79.5 265,-49.5 137,-49.5"/>
<text text-anchor="start" x="145" y="-67.5" font-family="Helvetica,sans-Serif" font-size="10.00">INMOST::shell&lt; reference</text>
<text text-anchor="middle" x="201" y="-56.5" font-family="Helvetica,sans-Serif" font-size="10.00"> &gt;::erase</text>
</a>
</g>
</g>
<!-- Node1&#45;&gt;Node2 -->
<g id="edge1" class="edge"><title>Node1&#45;&gt;Node2</title>
<path fill="none" stroke="midnightblue" d="M111.411,-49.586C119.777,-50.9945 128.396,-52.4454 136.82,-53.8636"/>
<polygon fill="midnightblue" stroke="midnightblue" points="111.804,-46.103 101.361,-47.8942 110.642,-53.0058 111.804,-46.103"/>
</g>
<!-- Node3 -->
<g id="node3" class="node"><title>Node3</title>
<g id="a_node3"><a xlink:href="class_i_n_m_o_s_t_1_1shell.html#a1ee54f3650925ab3f031666fa31cf98d" target="_top" xlink:title="INMOST::shell\&lt; reference\l \&gt;::insert">
<polygon fill="none" stroke="black" points="137,-0.5 137,-30.5 265,-30.5 265,-0.5 137,-0.5"/>
<text text-anchor="start" x="145" y="-18.5" font-family="Helvetica,sans-Serif" font-size="10.00">INMOST::shell&lt; reference</text>
<text text-anchor="middle" x="201" y="-7.5" font-family="Helvetica,sans-Serif" font-size="10.00"> &gt;::insert</text>
</a>
</g>
</g>
<!-- Node1&#45;&gt;Node3 -->
<g id="edge2" class="edge"><title>Node1&#45;&gt;Node3</title>
<path fill="none" stroke="midnightblue" d="M111.411,-29.8174C119.777,-28.4653 128.396,-27.0724 136.82,-25.7109"/>
<polygon fill="midnightblue" stroke="midnightblue" points="110.675,-26.3909 101.361,-31.4416 111.792,-33.3012 110.675,-26.3909"/>
</g>
</g>
</svg>
