<?xml version="1.0" encoding="UTF-8" standalone="no"?>
<!DOCTYPE svg PUBLIC "-//W3C//DTD SVG 1.1//EN"
 "http://www.w3.org/Graphics/SVG/1.1/DTD/svg11.dtd">
<!-- Generated by graphviz version 2.38.0 (20140413.2041)
 -->
<!-- Title: INMOST::Storage::GetMarker Pages: 1 -->
<svg width="344pt" height="345pt"
 viewBox="0.00 0.00 344.00 345.00" xmlns="http://www.w3.org/2000/svg" xmlns:xlink="http://www.w3.org/1999/xlink">
<g id="graph0" class="graph" transform="scale(1 1) rotate(0) translate(4 341)">
<title>INMOST::Storage::GetMarker</title>
<!-- Node1 -->
<g id="node1" class="node"><title>Node1</title>
<polygon fill="#bfbfbf" stroke="black" points="0,-153 0,-172 145,-172 145,-153 0,-153"/>
<text text-anchor="middle" x="72.5" y="-160" font-family="Helvetica,sans-Serif" font-size="10.00">INMOST::Storage::GetMarker</text>
</g>
<!-- Node2 -->
<g id="node2" class="node"><title>Node2</title>
<g id="a_node2"><a xlink:href="class_i_n_m_o_s_t_1_1_automatizator.html#a3da0c47982b82640337e87375abe7314" target="_top" xlink:title="INMOST::Automatizator\l::isDynamicValid">
<polygon fill="none" stroke="black" points="198.5,-306.5 198.5,-336.5 318.5,-336.5 318.5,-306.5 198.5,-306.5"/>
<text text-anchor="start" x="206.5" y="-324.5" font-family="Helvetica,sans-Serif" font-size="10.00">INMOST::Automatizator</text>
<text text-anchor="middle" x="258.5" y="-313.5" font-family="Helvetica,sans-Serif" font-size="10.00">::isDynamicValid</text>
</a>
</g>
</g>
<!-- Node1&#45;&gt;Node2 -->
<g id="edge1" class="edge"><title>Node1&#45;&gt;Node2</title>
<path fill="none" stroke="midnightblue" d="M83.6059,-181.426C100.133,-210.599 135.691,-266.425 181,-297.5 186.28,-301.122 192.133,-304.216 198.182,-306.857"/>
<polygon fill="midnightblue" stroke="midnightblue" points="86.4664,-179.365 78.5688,-172.303 80.3384,-182.749 86.4664,-179.365"/>
</g>
<!-- Node3 -->
<g id="node3" class="node"><title>Node3</title>
<g id="a_node3"><a xlink:href="class_i_n_m_o_s_t_1_1_automatizator.html#a6ae69d02eb607b39c5000c39882c484d" target="_top" xlink:title="INMOST::Automatizator\l::isStaticValid">
<polygon fill="none" stroke="black" points="198.5,-257.5 198.5,-287.5 318.5,-287.5 318.5,-257.5 198.5,-257.5"/>
<text text-anchor="start" x="206.5" y="-275.5" font-family="Helvetica,sans-Serif" font-size="10.00">INMOST::Automatizator</text>
<text text-anchor="middle" x="258.5" y="-264.5" font-family="Helvetica,sans-Serif" font-size="10.00">::isStaticValid</text>
</a>
</g>
</g>
<!-- Node1&#45;&gt;Node3 -->
<g id="edge2" class="edge"><title>Node1&#45;&gt;Node3</title>
<path fill="none" stroke="midnightblue" d="M90.4353,-179.071C110.543,-197.948 145.805,-228.617 181,-247.5 188.018,-251.265 195.703,-254.593 203.411,-257.492"/>
<polygon fill="midnightblue" stroke="midnightblue" points="92.6779,-176.373 83.027,-172.001 87.8452,-181.437 92.6779,-176.373"/>
</g>
<!-- Node4 -->
<g id="node4" class="node"><title>Node4</title>
<g id="a_node4"><a xlink:href="class_i_n_m_o_s_t_1_1enhanced__multivar__expression.html#aa7a9b5c6c18e890d941c0abaf36fc9ac" target="_top" xlink:title="INMOST::enhanced_multivar\l_expression::enhanced_multivar\l_expression">
<polygon fill="none" stroke="black" points="181,-197 181,-238 336,-238 336,-197 181,-197"/>
<text text-anchor="start" x="189" y="-226" font-family="Helvetica,sans-Serif" font-size="10.00">INMOST::enhanced_multivar</text>
<text text-anchor="start" x="189" y="-215" font-family="Helvetica,sans-Serif" font-size="10.00">_expression::enhanced_multivar</text>
<text text-anchor="middle" x="258.5" y="-204" font-family="Helvetica,sans-Serif" font-size="10.00">_expression</text>
</a>
</g>
</g>
<!-- Node1&#45;&gt;Node4 -->
<g id="edge3" class="edge"><title>Node1&#45;&gt;Node4</title>
<path fill="none" stroke="midnightblue" d="M115.138,-174.946C136.897,-181.45 164.09,-189.579 188.863,-196.983"/>
<polygon fill="midnightblue" stroke="midnightblue" points="116.134,-171.591 105.55,-172.08 114.129,-178.298 116.134,-171.591"/>
</g>
<!-- Node5 -->
<g id="node5" class="node"><title>Node5</title>
<g id="a_node5"><a xlink:href="class_i_n_m_o_s_t_1_1dynamic__variable.html#a41483a4546777613637e523f4f57ec81" target="_top" xlink:title="INMOST::dynamic_variable\l::Index">
<polygon fill="none" stroke="black" points="191.5,-147.5 191.5,-177.5 325.5,-177.5 325.5,-147.5 191.5,-147.5"/>
<text text-anchor="start" x="199.5" y="-165.5" font-family="Helvetica,sans-Serif" font-size="10.00">INMOST::dynamic_variable</text>
<text text-anchor="middle" x="258.5" y="-154.5" font-family="Helvetica,sans-Serif" font-size="10.00">::Index</text>
</a>
</g>
</g>
<!-- Node1&#45;&gt;Node5 -->
<g id="edge4" class="edge"><title>Node1&#45;&gt;Node5</title>
<path fill="none" stroke="midnightblue" d="M155.259,-162.5C167.364,-162.5 179.708,-162.5 191.439,-162.5"/>
<polygon fill="midnightblue" stroke="midnightblue" points="155.166,-159 145.166,-162.5 155.166,-166 155.166,-159"/>
</g>
<!-- Node6 -->
<g id="node6" class="node"><title>Node6</title>
<g id="a_node6"><a xlink:href="class_i_n_m_o_s_t_1_1dynamic__variable.html#a432e3db3a15b60eebc084cfd8dcfb28e" target="_top" xlink:title="INMOST::dynamic_variable\l::Variable">
<polygon fill="none" stroke="black" points="191.5,-98.5 191.5,-128.5 325.5,-128.5 325.5,-98.5 191.5,-98.5"/>
<text text-anchor="start" x="199.5" y="-116.5" font-family="Helvetica,sans-Serif" font-size="10.00">INMOST::dynamic_variable</text>
<text text-anchor="middle" x="258.5" y="-105.5" font-family="Helvetica,sans-Serif" font-size="10.00">::Variable</text>
</a>
</g>
</g>
<!-- Node1&#45;&gt;Node6 -->
<g id="edge5" class="edge"><title>Node1&#45;&gt;Node6</title>
<path fill="none" stroke="midnightblue" d="M119.273,-150.31C144.024,-143.719 174.806,-135.522 201.035,-128.537"/>
<polygon fill="midnightblue" stroke="midnightblue" points="118.176,-146.98 109.414,-152.936 119.978,-153.745 118.176,-146.98"/>
</g>
<!-- Node7 -->
<g id="node7" class="node"><title>Node7</title>
<g id="a_node7"><a xlink:href="class_i_n_m_o_s_t_1_1dynamic__variable.html#af98d84e841029239fe4b098025ef0801" target="_top" xlink:title="INMOST::dynamic_variable\l::operator[]">
<polygon fill="none" stroke="black" points="191.5,-49.5 191.5,-79.5 325.5,-79.5 325.5,-49.5 191.5,-49.5"/>
<text text-anchor="start" x="199.5" y="-67.5" font-family="Helvetica,sans-Serif" font-size="10.00">INMOST::dynamic_variable</text>
<text text-anchor="middle" x="258.5" y="-56.5" font-family="Helvetica,sans-Serif" font-size="10.00">::operator[]</text>
</a>
</g>
</g>
<!-- Node1&#45;&gt;Node7 -->
<g id="edge6" class="edge"><title>Node1&#45;&gt;Node7</title>
<path fill="none" stroke="midnightblue" d="M93.4536,-146.413C114.281,-130.249 148.393,-105.501 181,-89.5 188.526,-85.8068 196.727,-82.4714 204.872,-79.5291"/>
<polygon fill="midnightblue" stroke="midnightblue" points="91.0773,-143.829 85.384,-152.764 95.4067,-149.33 91.0773,-143.829"/>
</g>
<!-- Node8 -->
<g id="node8" class="node"><title>Node8</title>
<g id="a_node8"><a xlink:href="class_i_n_m_o_s_t_1_1dynamic__variable.html#a144f4624248335fd4b690f3416720007" target="_top" xlink:title="INMOST::dynamic_variable\l::isUnknown">
<polygon fill="none" stroke="black" points="191.5,-0.5 191.5,-30.5 325.5,-30.5 325.5,-0.5 191.5,-0.5"/>
<text text-anchor="start" x="199.5" y="-18.5" font-family="Helvetica,sans-Serif" font-size="10.00">INMOST::dynamic_variable</text>
<text text-anchor="middle" x="258.5" y="-7.5" font-family="Helvetica,sans-Serif" font-size="10.00">::isUnknown</text>
</a>
</g>
</g>
<!-- Node1&#45;&gt;Node8 -->
<g id="edge7" class="edge"><title>Node1&#45;&gt;Node8</title>
<path fill="none" stroke="midnightblue" d="M85.1033,-143.973C102.69,-117.353 138.579,-68.4251 181,-40.5 186.835,-36.6587 193.31,-33.3642 199.95,-30.5495"/>
<polygon fill="midnightblue" stroke="midnightblue" points="81.9584,-142.391 79.4737,-152.69 87.8388,-146.188 81.9584,-142.391"/>
</g>
</g>
</svg>
