<?xml version="1.0" encoding="UTF-8" standalone="no"?>
<!DOCTYPE svg PUBLIC "-//W3C//DTD SVG 1.1//EN"
 "http://www.w3.org/Graphics/SVG/1.1/DTD/svg11.dtd">
<!-- Generated by graphviz version 2.38.0 (20140413.2041)
 -->
<!-- Title: INMOST::sparse_data::clear Pages: 1 -->
<svg width="291pt" height="78pt"
 viewBox="0.00 0.00 291.00 77.50" xmlns="http://www.w3.org/2000/svg" xmlns:xlink="http://www.w3.org/1999/xlink">
<g id="graph0" class="graph" transform="scale(1 1) rotate(0) translate(4 73.5)">
<title>INMOST::sparse_data::clear</title>
<!-- Node1 -->
<g id="node1" class="node"><title>Node1</title>
<polygon fill="#bfbfbf" stroke="black" points="0,-17 0,-47 113,-47 113,-17 0,-17"/>
<text text-anchor="start" x="8" y="-35" font-family="Helvetica,sans-Serif" font-size="10.00">INMOST::sparse_data</text>
<text text-anchor="middle" x="56.5" y="-24" font-family="Helvetica,sans-Serif" font-size="10.00">::clear</text>
</g>
<!-- Node2 -->
<g id="node2" class="node"><title>Node2</title>
<g id="a_node2"><a xlink:href="class_i_n_m_o_s_t_1_1sparse__data.html#ad7aab54e23fc3c4325772f7eb4791764" target="_top" xlink:title="INMOST::sparse_data\l::begin">
<polygon fill="none" stroke="black" points="159.5,-39 159.5,-69 272.5,-69 272.5,-39 159.5,-39"/>
<text text-anchor="start" x="167.5" y="-57" font-family="Helvetica,sans-Serif" font-size="10.00">INMOST::sparse_data</text>
<text text-anchor="middle" x="216" y="-46" font-family="Helvetica,sans-Serif" font-size="10.00">::begin</text>
</a>
</g>
</g>
<!-- Node1&#45;&gt;Node2 -->
<g id="edge1" class="edge"><title>Node1&#45;&gt;Node2</title>
<path fill="none" stroke="midnightblue" d="M113.029,-39.7564C124.791,-41.3994 137.313,-43.1484 149.408,-44.838"/>
<polygon fill="midnightblue" stroke="midnightblue" points="149.054,-48.3224 159.442,-46.2395 150.022,-41.3897 149.054,-48.3224"/>
</g>
<!-- Node3 -->
<g id="node3" class="node"><title>Node3</title>
<g id="a_node3"><a xlink:href="class_i_n_m_o_s_t_1_1sparse__data.html#a1a478f6976c25fbd618f8865d841e837" target="_top" xlink:title="INMOST::sparse_data::end">
<polygon fill="none" stroke="black" points="149,-0.5 149,-19.5 283,-19.5 283,-0.5 149,-0.5"/>
<text text-anchor="middle" x="216" y="-7.5" font-family="Helvetica,sans-Serif" font-size="10.00">INMOST::sparse_data::end</text>
</a>
</g>
</g>
<!-- Node1&#45;&gt;Node3 -->
<g id="edge2" class="edge"><title>Node1&#45;&gt;Node3</title>
<path fill="none" stroke="midnightblue" d="M113.029,-24.2436C121.368,-23.0788 130.088,-21.8607 138.768,-20.6483"/>
<polygon fill="midnightblue" stroke="midnightblue" points="139.493,-24.0811 148.913,-19.2312 138.525,-17.1484 139.493,-24.0811"/>
</g>
</g>
</svg>
