<?xml version="1.0" encoding="UTF-8" standalone="no"?>
<!DOCTYPE svg PUBLIC "-//W3C//DTD SVG 1.1//EN"
 "http://www.w3.org/Graphics/SVG/1.1/DTD/svg11.dtd">
<!-- Generated by graphviz version 2.38.0 (20140413.2041)
 -->
<!-- Title: INMOST.lib/Source/Headers/container.hpp Pages: 1 -->
<svg width="874pt" height="151pt"
 viewBox="0.00 0.00 874.00 151.00" xmlns="http://www.w3.org/2000/svg" xmlns:xlink="http://www.w3.org/1999/xlink">
<g id="graph0" class="graph" transform="scale(1 1) rotate(0) translate(4 147)">
<title>INMOST.lib/Source/Headers/container.hpp</title>
<!-- Node1 -->
<g id="node1" class="node"><title>Node1</title>
<polygon fill="#bfbfbf" stroke="black" points="455.5,-112.5 455.5,-142.5 594.5,-142.5 594.5,-112.5 455.5,-112.5"/>
<text text-anchor="start" x="463.5" y="-130.5" font-family="Helvetica,sans-Serif" font-size="10.00">INMOST.lib/Source/Headers</text>
<text text-anchor="middle" x="525" y="-119.5" font-family="Helvetica,sans-Serif" font-size="10.00">/container.hpp</text>
</g>
<!-- Node2 -->
<g id="node2" class="node"><title>Node2</title>
<polygon fill="none" stroke="#bfbfbf" points="0,-0.5 0,-19.5 48,-19.5 48,-0.5 0,-0.5"/>
<text text-anchor="middle" x="24" y="-7.5" font-family="Helvetica,sans-Serif" font-size="10.00">stdlib.h</text>
</g>
<!-- Node1&#45;&gt;Node2 -->
<g id="edge1" class="edge"><title>Node1&#45;&gt;Node2</title>
<path fill="none" stroke="midnightblue" d="M455.261,-116.722C396.628,-107.918 310.807,-93.6621 237,-76 172.737,-60.6216 99.3443,-36.8061 57.6545,-22.673"/>
<polygon fill="midnightblue" stroke="midnightblue" points="58.6061,-19.2997 48.0116,-19.3847 56.3468,-25.9251 58.6061,-19.2997"/>
</g>
<!-- Node3 -->
<g id="node3" class="node"><title>Node3</title>
<polygon fill="none" stroke="#bfbfbf" points="431.5,-56.5 431.5,-75.5 482.5,-75.5 482.5,-56.5 431.5,-56.5"/>
<text text-anchor="middle" x="457" y="-63.5" font-family="Helvetica,sans-Serif" font-size="10.00">stddef.h</text>
</g>
<!-- Node1&#45;&gt;Node3 -->
<g id="edge2" class="edge"><title>Node1&#45;&gt;Node3</title>
<path fill="none" stroke="midnightblue" d="M508.885,-112.399C498.596,-103.397 485.253,-91.7214 474.674,-82.4652"/>
<polygon fill="midnightblue" stroke="midnightblue" points="476.725,-79.6088 466.895,-75.6578 472.116,-84.8769 476.725,-79.6088"/>
</g>
<!-- Node4 -->
<g id="node4" class="node"><title>Node4</title>
<polygon fill="none" stroke="#bfbfbf" points="500.5,-56.5 500.5,-75.5 549.5,-75.5 549.5,-56.5 500.5,-56.5"/>
<text text-anchor="middle" x="525" y="-63.5" font-family="Helvetica,sans-Serif" font-size="10.00">string.h</text>
</g>
<!-- Node1&#45;&gt;Node4 -->
<g id="edge3" class="edge"><title>Node1&#45;&gt;Node4</title>
<path fill="none" stroke="midnightblue" d="M525,-112.399C525,-104.466 525,-94.458 525,-85.8583"/>
<polygon fill="midnightblue" stroke="midnightblue" points="528.5,-85.6577 525,-75.6578 521.5,-85.6578 528.5,-85.6577"/>
</g>
<!-- Node5 -->
<g id="node5" class="node"><title>Node5</title>
<polygon fill="none" stroke="#bfbfbf" points="568,-56.5 568,-75.5 620,-75.5 620,-56.5 568,-56.5"/>
<text text-anchor="middle" x="594" y="-63.5" font-family="Helvetica,sans-Serif" font-size="10.00">memory</text>
</g>
<!-- Node1&#45;&gt;Node5 -->
<g id="edge4" class="edge"><title>Node1&#45;&gt;Node5</title>
<path fill="none" stroke="midnightblue" d="M541.352,-112.399C551.895,-103.308 565.6,-91.4899 576.384,-82.1909"/>
<polygon fill="midnightblue" stroke="midnightblue" points="578.672,-84.8389 583.96,-75.6578 574.101,-79.5377 578.672,-84.8389"/>
</g>
<!-- Node6 -->
<g id="node6" class="node"><title>Node6</title>
<polygon fill="none" stroke="#bfbfbf" points="638,-56.5 638,-75.5 672,-75.5 672,-56.5 638,-56.5"/>
<text text-anchor="middle" x="655" y="-63.5" font-family="Helvetica,sans-Serif" font-size="10.00">new</text>
</g>
<!-- Node1&#45;&gt;Node6 -->
<g id="edge5" class="edge"><title>Node1&#45;&gt;Node6</title>
<path fill="none" stroke="midnightblue" d="M555.808,-112.399C577.976,-102.253 607.561,-88.7124 628.638,-79.0657"/>
<polygon fill="midnightblue" stroke="midnightblue" points="630.312,-82.1487 637.948,-74.8044 627.399,-75.7837 630.312,-82.1487"/>
</g>
<!-- Node7 -->
<g id="node7" class="node"><title>Node7</title>
<polygon fill="none" stroke="#bfbfbf" points="690.5,-56.5 690.5,-75.5 737.5,-75.5 737.5,-56.5 690.5,-56.5"/>
<text text-anchor="middle" x="714" y="-63.5" font-family="Helvetica,sans-Serif" font-size="10.00">iterator</text>
</g>
<!-- Node1&#45;&gt;Node7 -->
<g id="edge6" class="edge"><title>Node1&#45;&gt;Node7</title>
<path fill="none" stroke="midnightblue" d="M569.79,-112.399C603.724,-101.717 649.612,-87.2704 680.429,-77.5686"/>
<polygon fill="midnightblue" stroke="midnightblue" points="681.776,-80.8141 690.263,-74.4726 679.674,-74.1371 681.776,-80.8141"/>
</g>
<!-- Node8 -->
<g id="node8" class="node"><title>Node8</title>
<polygon fill="none" stroke="#bfbfbf" points="66,-0.5 66,-19.5 110,-19.5 110,-0.5 66,-0.5"/>
<text text-anchor="middle" x="88" y="-7.5" font-family="Helvetica,sans-Serif" font-size="10.00">cmath</text>
</g>
<!-- Node1&#45;&gt;Node8 -->
<g id="edge7" class="edge"><title>Node1&#45;&gt;Node8</title>
<path fill="none" stroke="midnightblue" d="M460.188,-112.461C416.929,-102.834 358.865,-89.4203 308,-76 240.584,-58.2128 162.49,-34.3559 119.849,-21.049"/>
<polygon fill="midnightblue" stroke="midnightblue" points="120.64,-17.629 110.051,-17.9819 118.548,-24.3094 120.64,-17.629"/>
</g>
<!-- Node9 -->
<g id="node9" class="node"><title>Node9</title>
<polygon fill="none" stroke="#bfbfbf" points="756,-56.5 756,-75.5 808,-75.5 808,-56.5 756,-56.5"/>
<text text-anchor="middle" x="782" y="-63.5" font-family="Helvetica,sans-Serif" font-size="10.00">assert.h</text>
</g>
<!-- Node1&#45;&gt;Node9 -->
<g id="edge8" class="edge"><title>Node1&#45;&gt;Node9</title>
<path fill="none" stroke="midnightblue" d="M588.747,-112.496C630.837,-103.134 687.447,-90.3262 745.874,-76.2272"/>
<polygon fill="midnightblue" stroke="midnightblue" points="746.751,-79.616 755.647,-73.8609 745.104,-72.8126 746.751,-79.616"/>
</g>
<!-- Node10 -->
<g id="node10" class="node"><title>Node10</title>
<polygon fill="none" stroke="#bfbfbf" points="826,-56.5 826,-75.5 866,-75.5 866,-56.5 826,-56.5"/>
<text text-anchor="middle" x="846" y="-63.5" font-family="Helvetica,sans-Serif" font-size="10.00">limits</text>
</g>
<!-- Node1&#45;&gt;Node10 -->
<g id="edge9" class="edge"><title>Node1&#45;&gt;Node10</title>
<path fill="none" stroke="midnightblue" d="M594.545,-117.066C651.709,-108.72 734.913,-95.2166 815.942,-76.0035"/>
<polygon fill="midnightblue" stroke="midnightblue" points="816.906,-79.3717 825.811,-73.6321 815.27,-72.5654 816.906,-79.3717"/>
</g>
<!-- Node11 -->
<g id="node11" class="node"><title>Node11</title>
<g id="a_node11"><a xlink:href="inmost__common_8h.html" target="_top" xlink:title="inmost_common.h">
<polygon fill="none" stroke="black" points="316.5,-56.5 316.5,-75.5 413.5,-75.5 413.5,-56.5 316.5,-56.5"/>
<text text-anchor="middle" x="365" y="-63.5" font-family="Helvetica,sans-Serif" font-size="10.00">inmost_common.h</text>
</a>
</g>
</g>
<!-- Node1&#45;&gt;Node11 -->
<g id="edge10" class="edge"><title>Node1&#45;&gt;Node11</title>
<path fill="none" stroke="midnightblue" d="M481.242,-112.399C452.99,-102.372 417.186,-89.028 392.754,-79.405"/>
<polygon fill="midnightblue" stroke="midnightblue" points="393.937,-76.109 383.352,-75.6578 391.346,-82.6116 393.937,-76.109"/>
</g>
<!-- Node11&#45;&gt;Node1 -->
<g id="edge24" class="edge"><title>Node11&#45;&gt;Node1</title>
<path fill="none" stroke="midnightblue" d="M392.958,-75.5709C417.974,-84.1786 454.776,-97.6992 483.236,-108.647"/>
<polygon fill="midnightblue" stroke="midnightblue" points="482.333,-112.05 492.922,-112.399 484.862,-105.523 482.333,-112.05"/>
</g>
<!-- Node11&#45;&gt;Node2 -->
<g id="edge21" class="edge"><title>Node11&#45;&gt;Node2</title>
<path fill="none" stroke="midnightblue" d="M316.402,-59.7451C257.459,-52.9633 154.95,-39.8616 58.0325,-19.9969"/>
<polygon fill="midnightblue" stroke="midnightblue" points="58.5718,-16.5342 48.0689,-17.9262 57.1475,-23.3878 58.5718,-16.5342"/>
</g>
<!-- Node11&#45;&gt;Node8 -->
<g id="edge18" class="edge"><title>Node11&#45;&gt;Node8</title>
<path fill="none" stroke="midnightblue" d="M316.154,-57.567C268.439,-49.9701 193.597,-37.1649 120.16,-20.0877"/>
<polygon fill="midnightblue" stroke="midnightblue" points="120.815,-16.6465 110.279,-17.7618 119.211,-23.4602 120.815,-16.6465"/>
</g>
<!-- Node12 -->
<g id="node12" class="node"><title>Node12</title>
<polygon fill="none" stroke="#bfbfbf" points="472.5,-0.5 472.5,-19.5 563.5,-19.5 563.5,-0.5 472.5,-0.5"/>
<text text-anchor="middle" x="518" y="-7.5" font-family="Helvetica,sans-Serif" font-size="10.00">inmost_options.h</text>
</g>
<!-- Node11&#45;&gt;Node12 -->
<g id="edge11" class="edge"><title>Node11&#45;&gt;Node12</title>
<path fill="none" stroke="midnightblue" d="M389.243,-56.4435C414.871,-47.3986 455.485,-33.064 484.238,-22.9158"/>
<polygon fill="midnightblue" stroke="midnightblue" points="485.605,-26.1452 493.87,-19.5164 483.275,-19.5442 485.605,-26.1452"/>
</g>
<!-- Node13 -->
<g id="node13" class="node"><title>Node13</title>
<polygon fill="none" stroke="#bfbfbf" points="581.5,-0.5 581.5,-19.5 622.5,-19.5 622.5,-0.5 581.5,-0.5"/>
<text text-anchor="middle" x="602" y="-7.5" font-family="Helvetica,sans-Serif" font-size="10.00">string</text>
</g>
<!-- Node11&#45;&gt;Node13 -->
<g id="edge12" class="edge"><title>Node11&#45;&gt;Node13</title>
<path fill="none" stroke="midnightblue" d="M409.902,-56.4711C450.063,-48.5775 510.709,-36.0079 571.683,-20.1835"/>
<polygon fill="midnightblue" stroke="midnightblue" points="572.685,-23.5394 581.469,-17.6161 570.908,-16.7685 572.685,-23.5394"/>
</g>
<!-- Node14 -->
<g id="node14" class="node"><title>Node14</title>
<polygon fill="none" stroke="#bfbfbf" points="641,-0.5 641,-19.5 683,-19.5 683,-0.5 641,-0.5"/>
<text text-anchor="middle" x="662" y="-7.5" font-family="Helvetica,sans-Serif" font-size="10.00">vector</text>
</g>
<!-- Node11&#45;&gt;Node14 -->
<g id="edge13" class="edge"><title>Node11&#45;&gt;Node14</title>
<path fill="none" stroke="midnightblue" d="M413.517,-57.1594C478.408,-46.6259 589.337,-28.4419 630.826,-19.905"/>
<polygon fill="midnightblue" stroke="midnightblue" points="631.765,-23.2825 640.783,-17.7214 630.265,-16.445 631.765,-23.2825"/>
</g>
<!-- Node15 -->
<g id="node15" class="node"><title>Node15</title>
<polygon fill="none" stroke="#bfbfbf" points="701,-0.5 701,-19.5 731,-19.5 731,-0.5 701,-0.5"/>
<text text-anchor="middle" x="716" y="-7.5" font-family="Helvetica,sans-Serif" font-size="10.00">set</text>
</g>
<!-- Node11&#45;&gt;Node15 -->
<g id="edge14" class="edge"><title>Node11&#45;&gt;Node15</title>
<path fill="none" stroke="midnightblue" d="M413.723,-57.3639C416.861,-56.8954 419.974,-56.4371 423,-56 539.234,-39.206 573.226,-48.8231 691.16,-19.6936"/>
<polygon fill="midnightblue" stroke="midnightblue" points="692.083,-23.0706 700.929,-17.2405 690.378,-16.2814 692.083,-23.0706"/>
</g>
<!-- Node16 -->
<g id="node16" class="node"><title>Node16</title>
<polygon fill="none" stroke="#bfbfbf" points="749.5,-0.5 749.5,-19.5 784.5,-19.5 784.5,-0.5 749.5,-0.5"/>
<text text-anchor="middle" x="767" y="-7.5" font-family="Helvetica,sans-Serif" font-size="10.00">map</text>
</g>
<!-- Node11&#45;&gt;Node16 -->
<g id="edge15" class="edge"><title>Node11&#45;&gt;Node16</title>
<path fill="none" stroke="midnightblue" d="M413.713,-57.2933C416.854,-56.8421 419.97,-56.4069 423,-56 560.376,-37.5488 599.784,-49.9976 739.628,-19.6063"/>
<polygon fill="midnightblue" stroke="midnightblue" points="740.419,-23.0161 749.429,-17.4427 738.91,-16.1807 740.419,-23.0161"/>
</g>
<!-- Node17 -->
<g id="node17" class="node"><title>Node17</title>
<polygon fill="none" stroke="#bfbfbf" points="802.5,-0.5 802.5,-19.5 831.5,-19.5 831.5,-0.5 802.5,-0.5"/>
<text text-anchor="middle" x="817" y="-7.5" font-family="Helvetica,sans-Serif" font-size="10.00">list</text>
</g>
<!-- Node11&#45;&gt;Node17 -->
<g id="edge16" class="edge"><title>Node11&#45;&gt;Node17</title>
<path fill="none" stroke="midnightblue" d="M413.706,-57.2353C416.848,-56.7983 419.967,-56.3822 423,-56 584.154,-35.6948 631.061,-57.6591 792.322,-19.8477"/>
<polygon fill="midnightblue" stroke="midnightblue" points="793.182,-23.2408 802.098,-17.5161 791.558,-16.4319 793.182,-23.2408"/>
</g>
<!-- Node18 -->
<g id="node18" class="node"><title>Node18</title>
<polygon fill="none" stroke="#bfbfbf" points="128,-0.5 128,-19.5 184,-19.5 184,-0.5 128,-0.5"/>
<text text-anchor="middle" x="156" y="-7.5" font-family="Helvetica,sans-Serif" font-size="10.00">algorithm</text>
</g>
<!-- Node11&#45;&gt;Node18 -->
<g id="edge17" class="edge"><title>Node11&#45;&gt;Node18</title>
<path fill="none" stroke="midnightblue" d="M331.883,-56.4435C294.4,-46.7589 233.445,-31.0098 194.041,-20.8287"/>
<polygon fill="midnightblue" stroke="midnightblue" points="194.827,-17.4171 184.27,-18.3042 193.076,-24.1945 194.827,-17.4171"/>
</g>
<!-- Node19 -->
<g id="node19" class="node"><title>Node19</title>
<polygon fill="none" stroke="#bfbfbf" points="202,-0.5 202,-19.5 256,-19.5 256,-0.5 202,-0.5"/>
<text text-anchor="middle" x="229" y="-7.5" font-family="Helvetica,sans-Serif" font-size="10.00">iostream</text>
</g>
<!-- Node11&#45;&gt;Node19 -->
<g id="edge19" class="edge"><title>Node11&#45;&gt;Node19</title>
<path fill="none" stroke="midnightblue" d="M343.45,-56.4435C320.969,-47.5171 285.512,-33.4387 260.02,-23.3168"/>
<polygon fill="midnightblue" stroke="midnightblue" points="261.035,-19.9539 250.449,-19.5164 258.451,-26.4598 261.035,-19.9539"/>
</g>
<!-- Node20 -->
<g id="node20" class="node"><title>Node20</title>
<polygon fill="none" stroke="#bfbfbf" points="274.5,-0.5 274.5,-19.5 323.5,-19.5 323.5,-0.5 274.5,-0.5"/>
<text text-anchor="middle" x="299" y="-7.5" font-family="Helvetica,sans-Serif" font-size="10.00">fstream</text>
</g>
<!-- Node11&#45;&gt;Node20 -->
<g id="edge20" class="edge"><title>Node11&#45;&gt;Node20</title>
<path fill="none" stroke="midnightblue" d="M354.396,-56.324C344.544,-48.2631 329.649,-36.0765 317.785,-26.3695"/>
<polygon fill="midnightblue" stroke="midnightblue" points="319.753,-23.4575 309.797,-19.8339 315.32,-28.8752 319.753,-23.4575"/>
</g>
<!-- Node21 -->
<g id="node21" class="node"><title>Node21</title>
<polygon fill="none" stroke="#bfbfbf" points="342,-0.5 342,-19.5 388,-19.5 388,-0.5 342,-0.5"/>
<text text-anchor="middle" x="365" y="-7.5" font-family="Helvetica,sans-Serif" font-size="10.00">stdio.h</text>
</g>
<!-- Node11&#45;&gt;Node21 -->
<g id="edge22" class="edge"><title>Node11&#45;&gt;Node21</title>
<path fill="none" stroke="midnightblue" d="M365,-56.083C365,-49.0059 365,-38.8611 365,-29.9865"/>
<polygon fill="midnightblue" stroke="midnightblue" points="368.5,-29.751 365,-19.7511 361.5,-29.7511 368.5,-29.751"/>
</g>
<!-- Node22 -->
<g id="node22" class="node"><title>Node22</title>
<polygon fill="none" stroke="#bfbfbf" points="406,-0.5 406,-19.5 454,-19.5 454,-0.5 406,-0.5"/>
<text text-anchor="middle" x="430" y="-7.5" font-family="Helvetica,sans-Serif" font-size="10.00">limits.h</text>
</g>
<!-- Node11&#45;&gt;Node22 -->
<g id="edge23" class="edge"><title>Node11&#45;&gt;Node22</title>
<path fill="none" stroke="midnightblue" d="M375.443,-56.324C385.146,-48.2631 399.815,-36.0765 411.5,-26.3695"/>
<polygon fill="midnightblue" stroke="midnightblue" points="413.911,-28.9163 419.367,-19.8339 409.438,-23.532 413.911,-28.9163"/>
</g>
</g>
</svg>
