<?xml version="1.0" encoding="UTF-8" standalone="no"?>
<!DOCTYPE svg PUBLIC "-//W3C//DTD SVG 1.1//EN"
 "http://www.w3.org/Graphics/SVG/1.1/DTD/svg11.dtd">
<!-- Generated by graphviz version 2.38.0 (20140413.2041)
 -->
<!-- Title: INMOST.lib/Source/Headers/container.hpp Pages: 1 -->
<svg width="736pt" height="642pt"
 viewBox="0.00 0.00 735.50 642.00" xmlns="http://www.w3.org/2000/svg" xmlns:xlink="http://www.w3.org/1999/xlink">
<g id="graph0" class="graph" transform="scale(1 1) rotate(0) translate(4 638)">
<title>INMOST.lib/Source/Headers/container.hpp</title>
<!-- Node1 -->
<g id="node1" class="node"><title>Node1</title>
<polygon fill="#bfbfbf" stroke="black" points="251.5,-603.5 251.5,-633.5 390.5,-633.5 390.5,-603.5 251.5,-603.5"/>
<text text-anchor="start" x="259.5" y="-621.5" font-family="Helvetica,sans-Serif" font-size="10.00">INMOST.lib/Source/Headers</text>
<text text-anchor="middle" x="321" y="-610.5" font-family="Helvetica,sans-Serif" font-size="10.00">/container.hpp</text>
</g>
<!-- Node2 -->
<g id="node2" class="node"><title>Node2</title>
<g id="a_node2"><a xlink:href="inmost__common_8h.html" target="_top" xlink:title="INMOST.lib/Source/Headers\l/inmost_common.h">
<polygon fill="none" stroke="black" points="251.5,-536.5 251.5,-566.5 390.5,-566.5 390.5,-536.5 251.5,-536.5"/>
<text text-anchor="start" x="259.5" y="-554.5" font-family="Helvetica,sans-Serif" font-size="10.00">INMOST.lib/Source/Headers</text>
<text text-anchor="middle" x="321" y="-543.5" font-family="Helvetica,sans-Serif" font-size="10.00">/inmost_common.h</text>
</a>
</g>
</g>
<!-- Node1&#45;&gt;Node2 -->
<g id="edge1" class="edge"><title>Node1&#45;&gt;Node2</title>
<path fill="none" stroke="midnightblue" d="M314.455,-593.403C314.005,-584.37 314.296,-574.408 315.325,-566.577"/>
<polygon fill="midnightblue" stroke="midnightblue" points="310.97,-593.736 315.322,-603.396 317.944,-593.131 310.97,-593.736"/>
</g>
<!-- Node2&#45;&gt;Node1 -->
<g id="edge2" class="edge"><title>Node2&#45;&gt;Node1</title>
<path fill="none" stroke="midnightblue" d="M327.544,-576.565C327.995,-585.596 327.706,-595.56 326.678,-603.396"/>
<polygon fill="midnightblue" stroke="midnightblue" points="331.028,-576.236 326.675,-566.577 324.055,-576.842 331.028,-576.236"/>
</g>
<!-- Node3 -->
<g id="node3" class="node"><title>Node3</title>
<g id="a_node3"><a xlink:href="inmost_8h.html" target="_top" xlink:title="INMOST.lib/Source/Headers\l/inmost.h">
<polygon fill="none" stroke="black" points="311.5,-67.5 311.5,-97.5 450.5,-97.5 450.5,-67.5 311.5,-67.5"/>
<text text-anchor="start" x="319.5" y="-85.5" font-family="Helvetica,sans-Serif" font-size="10.00">INMOST.lib/Source/Headers</text>
<text text-anchor="middle" x="381" y="-74.5" font-family="Helvetica,sans-Serif" font-size="10.00">/inmost.h</text>
</a>
</g>
</g>
<!-- Node2&#45;&gt;Node3 -->
<g id="edge3" class="edge"><title>Node2&#45;&gt;Node3</title>
<path fill="none" stroke="midnightblue" d="M241.457,-534.263C146.394,-512.523 0,-470.587 0,-418.5 0,-418.5 0,-418.5 0,-215.5 0,-150.397 201.127,-110.215 311.119,-93.108"/>
<polygon fill="midnightblue" stroke="midnightblue" points="240.823,-537.708 251.348,-536.495 242.363,-530.88 240.823,-537.708"/>
</g>
<!-- Node5 -->
<g id="node5" class="node"><title>Node5</title>
<g id="a_node5"><a xlink:href="inmost__mesh_8h.html" target="_top" xlink:title="INMOST.lib/Source/Headers\l/inmost_mesh.h">
<polygon fill="none" stroke="black" points="66.5,-268.5 66.5,-298.5 205.5,-298.5 205.5,-268.5 66.5,-268.5"/>
<text text-anchor="start" x="74.5" y="-286.5" font-family="Helvetica,sans-Serif" font-size="10.00">INMOST.lib/Source/Headers</text>
<text text-anchor="middle" x="136" y="-275.5" font-family="Helvetica,sans-Serif" font-size="10.00">/inmost_mesh.h</text>
</a>
</g>
</g>
<!-- Node2&#45;&gt;Node5 -->
<g id="edge6" class="edge"><title>Node2&#45;&gt;Node5</title>
<path fill="none" stroke="midnightblue" d="M261.181,-533.116C238.204,-524.972 212.383,-513.947 191,-500 120.455,-453.987 89.2312,-443.813 57,-366 51.7275,-353.271 50.3824,-347.084 57,-335 65.9913,-318.581 82.8465,-306.723 98.686,-298.641"/>
<polygon fill="midnightblue" stroke="midnightblue" points="260.238,-536.493 270.832,-536.43 262.511,-529.872 260.238,-536.493"/>
</g>
<!-- Node6 -->
<g id="node6" class="node"><title>Node6</title>
<g id="a_node6"><a xlink:href="inmost__variable_8h.html" target="_top" xlink:title="INMOST.lib/Source/Headers\l/inmost_variable.h">
<polygon fill="none" stroke="black" points="360.5,-134.5 360.5,-164.5 499.5,-164.5 499.5,-134.5 360.5,-134.5"/>
<text text-anchor="start" x="368.5" y="-152.5" font-family="Helvetica,sans-Serif" font-size="10.00">INMOST.lib/Source/Headers</text>
<text text-anchor="middle" x="430" y="-141.5" font-family="Helvetica,sans-Serif" font-size="10.00">/inmost_variable.h</text>
</a>
</g>
</g>
<!-- Node2&#45;&gt;Node6 -->
<g id="edge27" class="edge"><title>Node2&#45;&gt;Node6</title>
<path fill="none" stroke="midnightblue" d="M400.184,-536.943C423.653,-529.477 447.681,-517.91 465,-500 486.693,-477.567 481.279,-463.847 486,-433 494.188,-379.499 448.475,-214.442 434.173,-164.78"/>
<polygon fill="midnightblue" stroke="midnightblue" points="399.128,-533.606 390.534,-539.802 401.116,-540.317 399.128,-533.606"/>
</g>
<!-- Node7 -->
<g id="node7" class="node"><title>Node7</title>
<g id="a_node7"><a xlink:href="inmost__autodiff_8h.html" target="_top" xlink:title="INMOST.lib/Source/Headers\l/inmost_autodiff.h">
<polygon fill="none" stroke="black" points="164.5,-201.5 164.5,-231.5 303.5,-231.5 303.5,-201.5 164.5,-201.5"/>
<text text-anchor="start" x="172.5" y="-219.5" font-family="Helvetica,sans-Serif" font-size="10.00">INMOST.lib/Source/Headers</text>
<text text-anchor="middle" x="234" y="-208.5" font-family="Helvetica,sans-Serif" font-size="10.00">/inmost_autodiff.h</text>
</a>
</g>
</g>
<!-- Node2&#45;&gt;Node7 -->
<g id="edge28" class="edge"><title>Node2&#45;&gt;Node7</title>
<path fill="none" stroke="midnightblue" d="M295.807,-529.46C270.114,-505.5 234,-463.77 234,-418.5 234,-418.5 234,-418.5 234,-349.5 234,-306.646 234,-255.966 234,-231.759"/>
<polygon fill="midnightblue" stroke="midnightblue" points="293.626,-532.207 303.394,-536.31 298.317,-527.011 293.626,-532.207"/>
</g>
<!-- Node8 -->
<g id="node8" class="node"><title>Node8</title>
<g id="a_node8"><a xlink:href="inmost__data_8h.html" target="_top" xlink:title="INMOST.lib/Source/Headers\l/inmost_data.h">
<polygon fill="none" stroke="black" points="66.5,-335.5 66.5,-365.5 205.5,-365.5 205.5,-335.5 66.5,-335.5"/>
<text text-anchor="start" x="74.5" y="-353.5" font-family="Helvetica,sans-Serif" font-size="10.00">INMOST.lib/Source/Headers</text>
<text text-anchor="middle" x="136" y="-342.5" font-family="Helvetica,sans-Serif" font-size="10.00">/inmost_data.h</text>
</a>
</g>
</g>
<!-- Node2&#45;&gt;Node8 -->
<g id="edge12" class="edge"><title>Node2&#45;&gt;Node8</title>
<path fill="none" stroke="midnightblue" d="M270.237,-532.237C252.883,-524.25 234.27,-513.558 220,-500 177.913,-460.012 151.032,-394.207 140.744,-365.558"/>
<polygon fill="midnightblue" stroke="midnightblue" points="269.15,-535.582 279.714,-536.398 271.964,-529.173 269.15,-535.582"/>
</g>
<!-- Node9 -->
<g id="node9" class="node"><title>Node9</title>
<g id="a_node9"><a xlink:href="inmost__expression_8h.html" target="_top" xlink:title="INMOST.lib/Source/Headers\l/inmost_expression.h">
<polygon fill="none" stroke="black" points="338.5,-402.5 338.5,-432.5 477.5,-432.5 477.5,-402.5 338.5,-402.5"/>
<text text-anchor="start" x="346.5" y="-420.5" font-family="Helvetica,sans-Serif" font-size="10.00">INMOST.lib/Source/Headers</text>
<text text-anchor="middle" x="408" y="-409.5" font-family="Helvetica,sans-Serif" font-size="10.00">/inmost_expression.h</text>
</a>
</g>
</g>
<!-- Node2&#45;&gt;Node9 -->
<g id="edge14" class="edge"><title>Node2&#45;&gt;Node9</title>
<path fill="none" stroke="midnightblue" d="M400.34,-535.263C419,-527.782 436.717,-516.629 448,-500 462.956,-477.958 440.733,-449.5 423.901,-432.703"/>
<polygon fill="midnightblue" stroke="midnightblue" points="399.014,-532.021 390.829,-538.749 401.423,-538.594 399.014,-532.021"/>
</g>
<!-- Node10 -->
<g id="node10" class="node"><title>Node10</title>
<g id="a_node10"><a xlink:href="inmost__dense_8h.html" target="_top" xlink:title="INMOST.lib/Source/Headers\l/inmost_dense.h">
<polygon fill="none" stroke="black" points="496.5,-335.5 496.5,-365.5 635.5,-365.5 635.5,-335.5 496.5,-335.5"/>
<text text-anchor="start" x="504.5" y="-353.5" font-family="Helvetica,sans-Serif" font-size="10.00">INMOST.lib/Source/Headers</text>
<text text-anchor="middle" x="566" y="-342.5" font-family="Helvetica,sans-Serif" font-size="10.00">/inmost_dense.h</text>
</a>
</g>
</g>
<!-- Node2&#45;&gt;Node10 -->
<g id="edge25" class="edge"><title>Node2&#45;&gt;Node10</title>
<path fill="none" stroke="midnightblue" d="M400.968,-548.165C441.324,-542.942 488.307,-530.091 520,-500 558.559,-463.391 565.014,-395.187 565.941,-365.694"/>
<polygon fill="midnightblue" stroke="midnightblue" points="400.395,-544.708 390.864,-549.334 401.2,-551.661 400.395,-544.708"/>
</g>
<!-- Node11 -->
<g id="node11" class="node"><title>Node11</title>
<g id="a_node11"><a xlink:href="inmost__sparse_8h.html" target="_top" xlink:title="INMOST.lib/Source/Headers\l/inmost_sparse.h">
<polygon fill="none" stroke="black" points="300.5,-469.5 300.5,-499.5 439.5,-499.5 439.5,-469.5 300.5,-469.5"/>
<text text-anchor="start" x="308.5" y="-487.5" font-family="Helvetica,sans-Serif" font-size="10.00">INMOST.lib/Source/Headers</text>
<text text-anchor="middle" x="370" y="-476.5" font-family="Helvetica,sans-Serif" font-size="10.00">/inmost_sparse.h</text>
</a>
</g>
</g>
<!-- Node2&#45;&gt;Node11 -->
<g id="edge19" class="edge"><title>Node2&#45;&gt;Node11</title>
<path fill="none" stroke="midnightblue" d="M337.843,-528.157C344.988,-518.679 353.1,-507.919 359.388,-499.577"/>
<polygon fill="midnightblue" stroke="midnightblue" points="334.857,-526.304 331.632,-536.396 340.447,-530.518 334.857,-526.304"/>
</g>
<!-- Node12 -->
<g id="node12" class="node"><title>Node12</title>
<g id="a_node12"><a xlink:href="inmost__solver_8h.html" target="_top" xlink:title="INMOST.lib/Source/Headers\l/inmost_solver.h">
<polygon fill="none" stroke="black" points="262.5,-268.5 262.5,-298.5 401.5,-298.5 401.5,-268.5 262.5,-268.5"/>
<text text-anchor="start" x="270.5" y="-286.5" font-family="Helvetica,sans-Serif" font-size="10.00">INMOST.lib/Source/Headers</text>
<text text-anchor="middle" x="332" y="-275.5" font-family="Helvetica,sans-Serif" font-size="10.00">/inmost_solver.h</text>
</a>
</g>
</g>
<!-- Node2&#45;&gt;Node12 -->
<g id="edge26" class="edge"><title>Node2&#45;&gt;Node12</title>
<path fill="none" stroke="midnightblue" d="M304.145,-528.02C298.856,-519.666 293.697,-509.821 291,-500 270.476,-425.265 308.49,-333.173 324.945,-298.543"/>
<polygon fill="midnightblue" stroke="midnightblue" points="301.328,-530.102 309.825,-536.43 307.128,-526.184 301.328,-530.102"/>
</g>
<!-- Node13 -->
<g id="node13" class="node"><title>Node13</title>
<g id="a_node13"><a xlink:href="inmost__nonlinear_8h.html" target="_top" xlink:title="INMOST.lib/Source/Headers\l/inmost_nonlinear.h">
<polygon fill="none" stroke="black" points="588.5,-402.5 588.5,-432.5 727.5,-432.5 727.5,-402.5 588.5,-402.5"/>
<text text-anchor="start" x="596.5" y="-420.5" font-family="Helvetica,sans-Serif" font-size="10.00">INMOST.lib/Source/Headers</text>
<text text-anchor="middle" x="658" y="-409.5" font-family="Helvetica,sans-Serif" font-size="10.00">/inmost_nonlinear.h</text>
</a>
</g>
</g>
<!-- Node2&#45;&gt;Node13 -->
<g id="edge29" class="edge"><title>Node2&#45;&gt;Node13</title>
<path fill="none" stroke="midnightblue" d="M400.788,-545.205C451.259,-539.269 516.622,-526.683 569,-500 601.67,-483.357 631.263,-451.383 646.72,-432.816"/>
<polygon fill="midnightblue" stroke="midnightblue" points="400.13,-541.756 390.578,-546.339 400.903,-548.713 400.13,-541.756"/>
</g>
<!-- Node4 -->
<g id="node4" class="node"><title>Node4</title>
<g id="a_node4"><a xlink:href="inmost__partitioner_8h.html" target="_top" xlink:title="INMOST.lib/Source/Headers\l/inmost_partitioner.h">
<polygon fill="none" stroke="black" points="311.5,-0.5 311.5,-30.5 450.5,-30.5 450.5,-0.5 311.5,-0.5"/>
<text text-anchor="start" x="319.5" y="-18.5" font-family="Helvetica,sans-Serif" font-size="10.00">INMOST.lib/Source/Headers</text>
<text text-anchor="middle" x="381" y="-7.5" font-family="Helvetica,sans-Serif" font-size="10.00">/inmost_partitioner.h</text>
</a>
</g>
</g>
<!-- Node3&#45;&gt;Node4 -->
<g id="edge4" class="edge"><title>Node3&#45;&gt;Node4</title>
<path fill="none" stroke="midnightblue" d="M374.455,-57.4029C374.005,-48.3703 374.296,-38.4078 375.325,-30.5765"/>
<polygon fill="midnightblue" stroke="midnightblue" points="370.97,-57.7359 375.322,-67.396 377.944,-57.1309 370.97,-57.7359"/>
</g>
<!-- Node4&#45;&gt;Node3 -->
<g id="edge5" class="edge"><title>Node4&#45;&gt;Node3</title>
<path fill="none" stroke="midnightblue" d="M387.544,-40.5653C387.995,-49.5958 387.706,-59.5597 386.678,-67.396"/>
<polygon fill="midnightblue" stroke="midnightblue" points="391.028,-40.2355 386.675,-30.5765 384.055,-40.8422 391.028,-40.2355"/>
</g>
<!-- Node5&#45;&gt;Node3 -->
<g id="edge7" class="edge"><title>Node5&#45;&gt;Node3</title>
<path fill="none" stroke="midnightblue" d="M129.606,-258.382C126.461,-241.092 125.326,-217.957 136,-201 174.198,-140.318 253.408,-110.272 311.462,-95.8753"/>
<polygon fill="midnightblue" stroke="midnightblue" points="126.212,-259.244 131.737,-268.284 133.055,-257.771 126.212,-259.244"/>
</g>
<!-- Node5&#45;&gt;Node6 -->
<g id="edge8" class="edge"><title>Node5&#45;&gt;Node6</title>
<path fill="none" stroke="midnightblue" d="M135.012,-258.249C135.65,-239.957 139.691,-215.6 155,-201 183.849,-173.488 288.883,-160.491 360.466,-154.709"/>
<polygon fill="midnightblue" stroke="midnightblue" points="131.511,-258.444 134.977,-268.456 138.511,-258.468 131.511,-258.444"/>
</g>
<!-- Node5&#45;&gt;Node7 -->
<g id="edge10" class="edge"><title>Node5&#45;&gt;Node7</title>
<path fill="none" stroke="midnightblue" d="M165.802,-262.734C180.966,-252.676 199.045,-240.685 212.777,-231.577"/>
<polygon fill="midnightblue" stroke="midnightblue" points="163.664,-259.952 157.265,-268.396 167.533,-265.785 163.664,-259.952"/>
</g>
<!-- Node6&#45;&gt;Node3 -->
<g id="edge9" class="edge"><title>Node6&#45;&gt;Node3</title>
<path fill="none" stroke="midnightblue" d="M413.157,-126.157C406.012,-116.679 397.9,-105.919 391.612,-97.5765"/>
<polygon fill="midnightblue" stroke="midnightblue" points="410.553,-128.518 419.368,-134.396 416.143,-124.304 410.553,-128.518"/>
</g>
<!-- Node7&#45;&gt;Node6 -->
<g id="edge11" class="edge"><title>Node7&#45;&gt;Node6</title>
<path fill="none" stroke="midnightblue" d="M286.082,-198.228C317.788,-187.713 357.779,-174.451 387.554,-164.577"/>
<polygon fill="midnightblue" stroke="midnightblue" points="284.919,-194.926 276.529,-201.396 287.122,-201.57 284.919,-194.926"/>
</g>
<!-- Node8&#45;&gt;Node5 -->
<g id="edge13" class="edge"><title>Node8&#45;&gt;Node5</title>
<path fill="none" stroke="midnightblue" d="M136,-325.108C136,-316.154 136,-306.323 136,-298.577"/>
<polygon fill="midnightblue" stroke="midnightblue" points="132.5,-325.396 136,-335.396 139.5,-325.396 132.5,-325.396"/>
</g>
<!-- Node9&#45;&gt;Node6 -->
<g id="edge18" class="edge"><title>Node9&#45;&gt;Node6</title>
<path fill="none" stroke="midnightblue" d="M410.021,-392.065C414.528,-337.572 425.284,-207.521 428.838,-164.549"/>
<polygon fill="midnightblue" stroke="midnightblue" points="406.519,-391.944 409.183,-402.199 413.495,-392.521 406.519,-391.944"/>
</g>
<!-- Node9&#45;&gt;Node8 -->
<g id="edge15" class="edge"><title>Node9&#45;&gt;Node8</title>
<path fill="none" stroke="midnightblue" d="M339.45,-400.119C294.943,-389.483 237.53,-375.763 195.049,-365.611"/>
<polygon fill="midnightblue" stroke="midnightblue" points="338.775,-403.556 349.315,-402.476 340.402,-396.748 338.775,-403.556"/>
</g>
<!-- Node9&#45;&gt;Node10 -->
<g id="edge16" class="edge"><title>Node9&#45;&gt;Node10</title>
<path fill="none" stroke="midnightblue" d="M451.646,-398.544C476.929,-388.143 508.298,-375.238 531.783,-365.577"/>
<polygon fill="midnightblue" stroke="midnightblue" points="450.2,-395.355 442.284,-402.396 452.863,-401.828 450.2,-395.355"/>
</g>
<!-- Node10&#45;&gt;Node3 -->
<g id="edge17" class="edge"><title>Node10&#45;&gt;Node3</title>
<path fill="none" stroke="midnightblue" d="M566.192,-325.169C565.231,-281.463 557.07,-189.095 508,-134 492.456,-116.547 470.071,-105.048 448.412,-97.5057"/>
<polygon fill="midnightblue" stroke="midnightblue" points="562.695,-325.458 566.301,-335.42 569.694,-325.383 562.695,-325.458"/>
</g>
<!-- Node11&#45;&gt;Node9 -->
<g id="edge20" class="edge"><title>Node11&#45;&gt;Node9</title>
<path fill="none" stroke="midnightblue" d="M383.402,-460.576C388.859,-451.241 394.993,-440.748 399.771,-432.577"/>
<polygon fill="midnightblue" stroke="midnightblue" points="380.271,-458.997 378.245,-469.396 386.314,-462.529 380.271,-458.997"/>
</g>
<!-- Node11&#45;&gt;Node12 -->
<g id="edge21" class="edge"><title>Node11&#45;&gt;Node12</title>
<path fill="none" stroke="midnightblue" d="M347.095,-461.961C339.863,-453.683 332.778,-443.646 329,-433 312.357,-386.097 322.514,-325.511 328.521,-298.532"/>
<polygon fill="midnightblue" stroke="midnightblue" points="344.586,-464.402 353.969,-469.321 349.701,-459.624 344.586,-464.402"/>
</g>
<!-- Node12&#45;&gt;Node3 -->
<g id="edge22" class="edge"><title>Node12&#45;&gt;Node3</title>
<path fill="none" stroke="midnightblue" d="M332.118,-257.76C332.945,-227.707 336.592,-175.839 351,-134 355.516,-120.887 363.7,-107.454 370.381,-97.742"/>
<polygon fill="midnightblue" stroke="midnightblue" points="328.611,-258.08 331.922,-268.144 335.61,-258.212 328.611,-258.08"/>
</g>
<!-- Node12&#45;&gt;Node6 -->
<g id="edge24" class="edge"><title>Node12&#45;&gt;Node6</title>
<path fill="none" stroke="midnightblue" d="M348.564,-260.189C368.855,-232.859 402.617,-187.383 419.588,-164.525"/>
<polygon fill="midnightblue" stroke="midnightblue" points="345.639,-258.258 342.488,-268.374 351.259,-262.431 345.639,-258.258"/>
</g>
<!-- Node12&#45;&gt;Node7 -->
<g id="edge23" class="edge"><title>Node12&#45;&gt;Node7</title>
<path fill="none" stroke="midnightblue" d="M302.198,-262.734C287.034,-252.676 268.955,-240.685 255.223,-231.577"/>
<polygon fill="midnightblue" stroke="midnightblue" points="300.467,-265.785 310.735,-268.396 304.336,-259.952 300.467,-265.785"/>
</g>
<!-- Node13&#45;&gt;Node3 -->
<g id="edge30" class="edge"><title>Node13&#45;&gt;Node3</title>
<path fill="none" stroke="midnightblue" d="M659.78,-392.004C661.549,-365.514 664,-322.036 664,-284.5 664,-284.5 664,-284.5 664,-215.5 664,-121.575 534.386,-94.3227 450.592,-86.5184"/>
<polygon fill="midnightblue" stroke="midnightblue" points="656.27,-392.033 659.073,-402.25 663.253,-392.515 656.27,-392.033"/>
</g>
</g>
</svg>
