<?xml version="1.0" encoding="UTF-8" standalone="no"?>
<!DOCTYPE svg PUBLIC "-//W3C//DTD SVG 1.1//EN"
 "http://www.w3.org/Graphics/SVG/1.1/DTD/svg11.dtd">
<!-- Generated by graphviz version 2.38.0 (20140413.2041)
 -->
<!-- Title: Graphical Class Hierarchy Pages: 1 -->
<svg width="306pt" height="198pt"
 viewBox="0.00 0.00 306.00 198.00" xmlns="http://www.w3.org/2000/svg" xmlns:xlink="http://www.w3.org/1999/xlink">
<g id="graph0" class="graph" transform="scale(1 1) rotate(0) translate(4 194)">
<title>Graphical Class Hierarchy</title>
<!-- Node1 -->
<g id="node1" class="node"><title>Node1</title>
<g id="a_node1"><a xlink:href="class_i_n_m_o_s_t_1_1shell_1_1__iterator.html" target="_top" xlink:title="INMOST::shell\&lt; element\l \&gt;::_iterator\&lt; dtype \&gt;">
<polygon fill="none" stroke="black" points="0,-82.5 0,-112.5 123,-112.5 123,-82.5 0,-82.5"/>
<text text-anchor="start" x="8" y="-100.5" font-family="Helvetica,sans-Serif" font-size="10.00">INMOST::shell&lt; element</text>
<text text-anchor="middle" x="61.5" y="-89.5" font-family="Helvetica,sans-Serif" font-size="10.00"> &gt;::_iterator&lt; dtype &gt;</text>
</a>
</g>
</g>
<!-- Node2 -->
<g id="node2" class="node"><title>Node2</title>
<g id="a_node2"><a xlink:href="class_i_n_m_o_s_t_1_1_storage_1_1reference__array_1_1const__iterator.html" target="_top" xlink:title="INMOST::Storage::reference\l_array::const_iterator">
<polygon fill="none" stroke="black" points="159,-159.5 159,-189.5 298,-189.5 298,-159.5 159,-159.5"/>
<text text-anchor="start" x="167" y="-177.5" font-family="Helvetica,sans-Serif" font-size="10.00">INMOST::Storage::reference</text>
<text text-anchor="middle" x="228.5" y="-166.5" font-family="Helvetica,sans-Serif" font-size="10.00">_array::const_iterator</text>
</a>
</g>
</g>
<!-- Node1&#45;&gt;Node2 -->
<g id="edge1" class="edge"><title>Node1&#45;&gt;Node2</title>
<path fill="none" stroke="midnightblue" d="M96.357,-117.892C114.555,-128.389 137.595,-140.951 159,-150.5 166.02,-153.632 173.584,-156.634 181.033,-159.39"/>
<polygon fill="midnightblue" stroke="midnightblue" points="97.7178,-114.634 87.3166,-112.618 94.1904,-120.68 97.7178,-114.634"/>
</g>
<!-- Node3 -->
<g id="node3" class="node"><title>Node3</title>
<g id="a_node3"><a xlink:href="class_i_n_m_o_s_t_1_1_storage_1_1reference__array_1_1iterator.html" target="_top" xlink:title="INMOST::Storage::reference\l_array::iterator">
<polygon fill="none" stroke="black" points="159,-110.5 159,-140.5 298,-140.5 298,-110.5 159,-110.5"/>
<text text-anchor="start" x="167" y="-128.5" font-family="Helvetica,sans-Serif" font-size="10.00">INMOST::Storage::reference</text>
<text text-anchor="middle" x="228.5" y="-117.5" font-family="Helvetica,sans-Serif" font-size="10.00">_array::iterator</text>
</a>
</g>
</g>
<!-- Node1&#45;&gt;Node3 -->
<g id="edge2" class="edge"><title>Node1&#45;&gt;Node3</title>
<path fill="none" stroke="midnightblue" d="M132.986,-109.461C141.58,-110.92 150.351,-112.408 158.916,-113.861"/>
<polygon fill="midnightblue" stroke="midnightblue" points="133.448,-105.99 123.003,-107.767 132.276,-112.891 133.448,-105.99"/>
</g>
<!-- Node4 -->
<g id="node4" class="node"><title>Node4</title>
<g id="a_node4"><a xlink:href="class_i_n_m_o_s_t_1_1_storage_1_1remote__reference__array_1_1const__iterator.html" target="_top" xlink:title="INMOST::Storage::remote\l_reference_array::const\l_iterator">
<polygon fill="none" stroke="black" points="164,-50 164,-91 293,-91 293,-50 164,-50"/>
<text text-anchor="start" x="172" y="-79" font-family="Helvetica,sans-Serif" font-size="10.00">INMOST::Storage::remote</text>
<text text-anchor="start" x="172" y="-68" font-family="Helvetica,sans-Serif" font-size="10.00">_reference_array::const</text>
<text text-anchor="middle" x="228.5" y="-57" font-family="Helvetica,sans-Serif" font-size="10.00">_iterator</text>
</a>
</g>
</g>
<!-- Node1&#45;&gt;Node4 -->
<g id="edge3" class="edge"><title>Node1&#45;&gt;Node4</title>
<path fill="none" stroke="midnightblue" d="M133.136,-85.9413C143.377,-84.2656 153.866,-82.5492 163.956,-80.8982"/>
<polygon fill="midnightblue" stroke="midnightblue" points="132.306,-82.5305 123.003,-87.5995 133.437,-89.4386 132.306,-82.5305"/>
</g>
<!-- Node5 -->
<g id="node5" class="node"><title>Node5</title>
<g id="a_node5"><a xlink:href="class_i_n_m_o_s_t_1_1_storage_1_1remote__reference__array_1_1iterator.html" target="_top" xlink:title="INMOST::Storage::remote\l_reference_array::iterator">
<polygon fill="none" stroke="black" points="164,-0.5 164,-30.5 293,-30.5 293,-0.5 164,-0.5"/>
<text text-anchor="start" x="172" y="-18.5" font-family="Helvetica,sans-Serif" font-size="10.00">INMOST::Storage::remote</text>
<text text-anchor="middle" x="228.5" y="-7.5" font-family="Helvetica,sans-Serif" font-size="10.00">_reference_array::iterator</text>
</a>
</g>
</g>
<!-- Node1&#45;&gt;Node5 -->
<g id="edge4" class="edge"><title>Node1&#45;&gt;Node5</title>
<path fill="none" stroke="midnightblue" d="M93.8432,-76.9984C112.342,-65.408 136.476,-51.1515 159,-40.5 166.439,-36.9821 174.516,-33.6389 182.428,-30.6086"/>
<polygon fill="midnightblue" stroke="midnightblue" points="91.8195,-74.1372 85.2464,-82.4466 95.5666,-80.0499 91.8195,-74.1372"/>
</g>
</g>
</svg>
