<?xml version="1.0" encoding="UTF-8" standalone="no"?>
<!DOCTYPE svg PUBLIC "-//W3C//DTD SVG 1.1//EN"
 "http://www.w3.org/Graphics/SVG/1.1/DTD/svg11.dtd">
<!-- Generated by graphviz version 2.38.0 (20140413.2041)
 -->
<!-- Title: Graphical Class Hierarchy Pages: 1 -->
<svg width="312pt" height="209pt"
 viewBox="0.00 0.00 312.00 208.50" xmlns="http://www.w3.org/2000/svg" xmlns:xlink="http://www.w3.org/1999/xlink">
<g id="graph0" class="graph" transform="scale(1 1) rotate(0) translate(4 204.5)">
<title>Graphical Class Hierarchy</title>
<!-- Node1 -->
<g id="node1" class="node"><title>Node1</title>
<g id="a_node1"><a xlink:href="class_i_n_m_o_s_t_1_1shell_1_1__reverse__iterator.html" target="_top" xlink:title="INMOST::shell\&lt; element\l \&gt;::_reverse_iterator\l\&lt; dtype \&gt;">
<polygon fill="none" stroke="black" points="0,-87.5 0,-128.5 123,-128.5 123,-87.5 0,-87.5"/>
<text text-anchor="start" x="8" y="-116.5" font-family="Helvetica,sans-Serif" font-size="10.00">INMOST::shell&lt; element</text>
<text text-anchor="start" x="8" y="-105.5" font-family="Helvetica,sans-Serif" font-size="10.00"> &gt;::_reverse_iterator</text>
<text text-anchor="middle" x="61.5" y="-94.5" font-family="Helvetica,sans-Serif" font-size="10.00">&lt; dtype &gt;</text>
</a>
</g>
</g>
<!-- Node2 -->
<g id="node2" class="node"><title>Node2</title>
<g id="a_node2"><a xlink:href="class_i_n_m_o_s_t_1_1_storage_1_1reference__array_1_1const__reverse__iterator.html" target="_top" xlink:title="INMOST::Storage::reference\l_array::const_reverse_iterator">
<polygon fill="none" stroke="black" points="159,-170 159,-200 304,-200 304,-170 159,-170"/>
<text text-anchor="start" x="167" y="-188" font-family="Helvetica,sans-Serif" font-size="10.00">INMOST::Storage::reference</text>
<text text-anchor="middle" x="231.5" y="-177" font-family="Helvetica,sans-Serif" font-size="10.00">_array::const_reverse_iterator</text>
</a>
</g>
</g>
<!-- Node1&#45;&gt;Node2 -->
<g id="edge1" class="edge"><title>Node1&#45;&gt;Node2</title>
<path fill="none" stroke="midnightblue" d="M105.414,-133.714C121.848,-142.987 140.979,-153.102 159,-161 166.196,-164.154 173.946,-167.147 181.596,-169.883"/>
<polygon fill="midnightblue" stroke="midnightblue" points="107.004,-130.591 96.5847,-128.668 103.53,-136.669 107.004,-130.591"/>
</g>
<!-- Node3 -->
<g id="node3" class="node"><title>Node3</title>
<g id="a_node3"><a xlink:href="class_i_n_m_o_s_t_1_1_storage_1_1reference__array_1_1reverse__iterator.html" target="_top" xlink:title="INMOST::Storage::reference\l_array::reverse_iterator">
<polygon fill="none" stroke="black" points="162,-121 162,-151 301,-151 301,-121 162,-121"/>
<text text-anchor="start" x="170" y="-139" font-family="Helvetica,sans-Serif" font-size="10.00">INMOST::Storage::reference</text>
<text text-anchor="middle" x="231.5" y="-128" font-family="Helvetica,sans-Serif" font-size="10.00">_array::reverse_iterator</text>
</a>
</g>
</g>
<!-- Node1&#45;&gt;Node3 -->
<g id="edge2" class="edge"><title>Node1&#45;&gt;Node3</title>
<path fill="none" stroke="midnightblue" d="M133.023,-119.754C142.599,-121.35 152.415,-122.986 161.956,-124.576"/>
<polygon fill="midnightblue" stroke="midnightblue" points="133.591,-116.3 123.152,-118.109 132.44,-123.205 133.591,-116.3"/>
</g>
<!-- Node4 -->
<g id="node4" class="node"><title>Node4</title>
<g id="a_node4"><a xlink:href="class_i_n_m_o_s_t_1_1_storage_1_1remote__reference__array_1_1const__reverse__iterator.html" target="_top" xlink:title="INMOST::Storage::remote\l_reference_array::const\l_reverse_iterator">
<polygon fill="none" stroke="black" points="167,-60.5 167,-101.5 296,-101.5 296,-60.5 167,-60.5"/>
<text text-anchor="start" x="175" y="-89.5" font-family="Helvetica,sans-Serif" font-size="10.00">INMOST::Storage::remote</text>
<text text-anchor="start" x="175" y="-78.5" font-family="Helvetica,sans-Serif" font-size="10.00">_reference_array::const</text>
<text text-anchor="middle" x="231.5" y="-67.5" font-family="Helvetica,sans-Serif" font-size="10.00">_reverse_iterator</text>
</a>
</g>
</g>
<!-- Node1&#45;&gt;Node4 -->
<g id="edge3" class="edge"><title>Node1&#45;&gt;Node4</title>
<path fill="none" stroke="midnightblue" d="M133.267,-96.6268C144.403,-94.837 155.858,-92.996 166.822,-91.234"/>
<polygon fill="midnightblue" stroke="midnightblue" points="132.47,-93.2099 123.152,-98.2524 133.581,-100.121 132.47,-93.2099"/>
</g>
<!-- Node5 -->
<g id="node5" class="node"><title>Node5</title>
<g id="a_node5"><a xlink:href="class_i_n_m_o_s_t_1_1_storage_1_1remote__reference__array_1_1reverse__iterator.html" target="_top" xlink:title="INMOST::Storage::remote\l_reference_array::reverse\l_iterator">
<polygon fill="none" stroke="black" points="167,-0.5 167,-41.5 296,-41.5 296,-0.5 167,-0.5"/>
<text text-anchor="start" x="175" y="-29.5" font-family="Helvetica,sans-Serif" font-size="10.00">INMOST::Storage::remote</text>
<text text-anchor="start" x="175" y="-18.5" font-family="Helvetica,sans-Serif" font-size="10.00">_reference_array::reverse</text>
<text text-anchor="middle" x="231.5" y="-7.5" font-family="Helvetica,sans-Serif" font-size="10.00">_iterator</text>
</a>
</g>
</g>
<!-- Node1&#45;&gt;Node5 -->
<g id="edge4" class="edge"><title>Node1&#45;&gt;Node5</title>
<path fill="none" stroke="midnightblue" d="M103.469,-82.1299C120.373,-71.8981 140.343,-60.3695 159,-51 165.376,-47.7981 172.176,-44.6361 178.952,-41.6348"/>
<polygon fill="midnightblue" stroke="midnightblue" points="101.641,-79.1448 94.9313,-87.344 105.29,-85.1188 101.641,-79.1448"/>
</g>
</g>
</svg>
