<?xml version="1.0" encoding="UTF-8" standalone="no"?>
<!DOCTYPE svg PUBLIC "-//W3C//DTD SVG 1.1//EN"
 "http://www.w3.org/Graphics/SVG/1.1/DTD/svg11.dtd">
<!-- Generated by graphviz version 2.38.0 (20140413.2041)
 -->
<!-- Title: Graphical Class Hierarchy Pages: 1 -->
<svg width="715pt" height="510pt"
 viewBox="0.00 0.00 715.00 510.00" xmlns="http://www.w3.org/2000/svg" xmlns:xlink="http://www.w3.org/1999/xlink">
<g id="graph0" class="graph" transform="scale(1 1) rotate(0) translate(4 506)">
<title>Graphical Class Hierarchy</title>
<!-- Node1 -->
<g id="node1" class="node"><title>Node1</title>
<g id="a_node1"><a xlink:href="class_i_n_m_o_s_t_1_1abstract__dynamic__variable.html" target="_top" xlink:title="INMOST::abstract_dynamic\l_variable">
<polygon fill="none" stroke="black" points="0,-219 0,-249 137,-249 137,-219 0,-219"/>
<text text-anchor="start" x="8" y="-237" font-family="Helvetica,sans-Serif" font-size="10.00">INMOST::abstract_dynamic</text>
<text text-anchor="middle" x="68.5" y="-226" font-family="Helvetica,sans-Serif" font-size="10.00">_variable</text>
</a>
</g>
</g>
<!-- Node2 -->
<g id="node2" class="node"><title>Node2</title>
<g id="a_node2"><a xlink:href="class_i_n_m_o_s_t_1_1basic__dynamic__variable.html" target="_top" xlink:title="INMOST::basic_dynamic\l_variable\&lt; binary_pool\l_expression\&lt; Expr, A::Var,\l B::Var \&gt; \&gt;">
<polygon fill="none" stroke="black" points="177.5,-436 177.5,-488 312.5,-488 312.5,-436 177.5,-436"/>
<text text-anchor="start" x="185.5" y="-476" font-family="Helvetica,sans-Serif" font-size="10.00">INMOST::basic_dynamic</text>
<text text-anchor="start" x="185.5" y="-465" font-family="Helvetica,sans-Serif" font-size="10.00">_variable&lt; binary_pool</text>
<text text-anchor="start" x="185.5" y="-454" font-family="Helvetica,sans-Serif" font-size="10.00">_expression&lt; Expr, A::Var,</text>
<text text-anchor="middle" x="245" y="-443" font-family="Helvetica,sans-Serif" font-size="10.00"> B::Var &gt; &gt;</text>
</a>
</g>
</g>
<!-- Node1&#45;&gt;Node2 -->
<g id="edge1" class="edge"><title>Node1&#45;&gt;Node2</title>
<path fill="none" stroke="midnightblue" d="M78.5788,-258.852C93.4907,-296.992 126.253,-370.613 173,-419 179.008,-425.218 186.099,-430.884 193.437,-435.914"/>
<polygon fill="midnightblue" stroke="midnightblue" points="81.6866,-257.179 74.8494,-249.085 75.1472,-259.676 81.6866,-257.179"/>
</g>
<!-- Node5 -->
<g id="node5" class="node"><title>Node5</title>
<g id="a_node5"><a xlink:href="class_i_n_m_o_s_t_1_1basic__dynamic__variable.html" target="_top" xlink:title="INMOST::basic_dynamic\l_variable\&lt; stencil_expression\l\&lt; A::Var \&gt; \&gt;">
<polygon fill="none" stroke="black" points="173,-368.5 173,-409.5 317,-409.5 317,-368.5 173,-368.5"/>
<text text-anchor="start" x="181" y="-397.5" font-family="Helvetica,sans-Serif" font-size="10.00">INMOST::basic_dynamic</text>
<text text-anchor="start" x="181" y="-386.5" font-family="Helvetica,sans-Serif" font-size="10.00">_variable&lt; stencil_expression</text>
<text text-anchor="middle" x="245" y="-375.5" font-family="Helvetica,sans-Serif" font-size="10.00">&lt; A::Var &gt; &gt;</text>
</a>
</g>
</g>
<!-- Node1&#45;&gt;Node5 -->
<g id="edge4" class="edge"><title>Node1&#45;&gt;Node5</title>
<path fill="none" stroke="midnightblue" d="M86.8775,-257.059C106.116,-281.577 138.937,-320.53 173,-348 182.196,-355.416 192.893,-362.334 203.15,-368.296"/>
<polygon fill="midnightblue" stroke="midnightblue" points="89.5499,-254.794 80.6591,-249.032 84.0159,-259.081 89.5499,-254.794"/>
</g>
<!-- Node8 -->
<g id="node8" class="node"><title>Node8</title>
<g id="a_node8"><a xlink:href="class_i_n_m_o_s_t_1_1basic__dynamic__variable.html" target="_top" xlink:title="INMOST::basic_dynamic\l_variable\&lt; ternary_pool\l_expression\&lt; Expr, A::Var,\l B::Var, C::Var \&gt; \&gt;">
<polygon fill="none" stroke="black" points="177.5,-287 177.5,-339 312.5,-339 312.5,-287 177.5,-287"/>
<text text-anchor="start" x="185.5" y="-327" font-family="Helvetica,sans-Serif" font-size="10.00">INMOST::basic_dynamic</text>
<text text-anchor="start" x="185.5" y="-316" font-family="Helvetica,sans-Serif" font-size="10.00">_variable&lt; ternary_pool</text>
<text text-anchor="start" x="185.5" y="-305" font-family="Helvetica,sans-Serif" font-size="10.00">_expression&lt; Expr, A::Var,</text>
<text text-anchor="middle" x="245" y="-294" font-family="Helvetica,sans-Serif" font-size="10.00"> B::Var, C::Var &gt; &gt;</text>
</a>
</g>
</g>
<!-- Node1&#45;&gt;Node8 -->
<g id="edge7" class="edge"><title>Node1&#45;&gt;Node8</title>
<path fill="none" stroke="midnightblue" d="M111.978,-253.231C134.383,-263.374 162.191,-275.963 186.499,-286.968"/>
<polygon fill="midnightblue" stroke="midnightblue" points="113.286,-249.981 102.733,-249.045 110.399,-256.358 113.286,-249.981"/>
</g>
<!-- Node11 -->
<g id="node11" class="node"><title>Node11</title>
<g id="a_node11"><a xlink:href="class_i_n_m_o_s_t_1_1basic__dynamic__variable.html" target="_top" xlink:title="INMOST::basic_dynamic\l_variable\&lt; unary_const\l_pool_expression\&lt; Expr,\l A::Var \&gt; \&gt;">
<polygon fill="none" stroke="black" points="182.5,-208 182.5,-260 307.5,-260 307.5,-208 182.5,-208"/>
<text text-anchor="start" x="190.5" y="-248" font-family="Helvetica,sans-Serif" font-size="10.00">INMOST::basic_dynamic</text>
<text text-anchor="start" x="190.5" y="-237" font-family="Helvetica,sans-Serif" font-size="10.00">_variable&lt; unary_const</text>
<text text-anchor="start" x="190.5" y="-226" font-family="Helvetica,sans-Serif" font-size="10.00">_pool_expression&lt; Expr,</text>
<text text-anchor="middle" x="245" y="-215" font-family="Helvetica,sans-Serif" font-size="10.00"> A::Var &gt; &gt;</text>
</a>
</g>
</g>
<!-- Node1&#45;&gt;Node11 -->
<g id="edge10" class="edge"><title>Node1&#45;&gt;Node11</title>
<path fill="none" stroke="midnightblue" d="M147.647,-234C159.321,-234 171.215,-234 182.48,-234"/>
<polygon fill="midnightblue" stroke="midnightblue" points="147.466,-230.5 137.466,-234 147.466,-237.5 147.466,-230.5"/>
</g>
<!-- Node14 -->
<g id="node14" class="node"><title>Node14</title>
<g id="a_node14"><a xlink:href="class_i_n_m_o_s_t_1_1basic__dynamic__variable.html" target="_top" xlink:title="INMOST::basic_dynamic\l_variable\&lt; unary_pool\l_expression\&lt; Expr, A::\lVar \&gt; \&gt;">
<polygon fill="none" stroke="black" points="182.5,-133 182.5,-185 307.5,-185 307.5,-133 182.5,-133"/>
<text text-anchor="start" x="190.5" y="-173" font-family="Helvetica,sans-Serif" font-size="10.00">INMOST::basic_dynamic</text>
<text text-anchor="start" x="190.5" y="-162" font-family="Helvetica,sans-Serif" font-size="10.00">_variable&lt; unary_pool</text>
<text text-anchor="start" x="190.5" y="-151" font-family="Helvetica,sans-Serif" font-size="10.00">_expression&lt; Expr, A::</text>
<text text-anchor="middle" x="245" y="-140" font-family="Helvetica,sans-Serif" font-size="10.00">Var &gt; &gt;</text>
</a>
</g>
</g>
<!-- Node1&#45;&gt;Node14 -->
<g id="edge13" class="edge"><title>Node1&#45;&gt;Node14</title>
<path fill="none" stroke="midnightblue" d="M114.139,-214.814C135.161,-205.779 160.559,-194.863 183.297,-185.09"/>
<polygon fill="midnightblue" stroke="midnightblue" points="112.618,-211.658 104.813,-218.823 115.382,-218.089 112.618,-211.658"/>
</g>
<!-- Node17 -->
<g id="node17" class="node"><title>Node17</title>
<g id="a_node17"><a xlink:href="class_i_n_m_o_s_t_1_1basic__dynamic__variable.html" target="_top" xlink:title="INMOST::basic_dynamic\l_variable\&lt; var_expression \&gt;">
<polygon fill="none" stroke="black" points="176.5,-76 176.5,-106 313.5,-106 313.5,-76 176.5,-76"/>
<text text-anchor="start" x="184.5" y="-94" font-family="Helvetica,sans-Serif" font-size="10.00">INMOST::basic_dynamic</text>
<text text-anchor="middle" x="245" y="-83" font-family="Helvetica,sans-Serif" font-size="10.00">_variable&lt; var_expression &gt;</text>
</a>
</g>
</g>
<!-- Node1&#45;&gt;Node17 -->
<g id="edge16" class="edge"><title>Node1&#45;&gt;Node17</title>
<path fill="none" stroke="midnightblue" d="M86.4899,-210.916C105.4,-186.507 137.943,-148.128 173,-123 182.121,-116.462 192.791,-110.8 203.047,-106.133"/>
<polygon fill="midnightblue" stroke="midnightblue" points="83.6659,-208.847 80.3881,-218.922 89.2334,-213.09 83.6659,-208.847"/>
</g>
<!-- Node20 -->
<g id="node20" class="node"><title>Node20</title>
<g id="a_node20"><a xlink:href="class_i_n_m_o_s_t_1_1basic__dynamic__variable.html" target="_top" xlink:title="INMOST::basic_dynamic\l_variable\&lt; VariableType \&gt;">
<polygon fill="none" stroke="black" points="181,-11 181,-41 309,-41 309,-11 181,-11"/>
<text text-anchor="start" x="189" y="-29" font-family="Helvetica,sans-Serif" font-size="10.00">INMOST::basic_dynamic</text>
<text text-anchor="middle" x="245" y="-18" font-family="Helvetica,sans-Serif" font-size="10.00">_variable&lt; VariableType &gt;</text>
</a>
</g>
</g>
<!-- Node1&#45;&gt;Node20 -->
<g id="edge19" class="edge"><title>Node1&#45;&gt;Node20</title>
<path fill="none" stroke="midnightblue" d="M79.8821,-209.261C95.6985,-173.925 128.726,-108.576 173,-66 183.402,-55.9972 196.786,-47.6153 209.125,-41.1506"/>
<polygon fill="midnightblue" stroke="midnightblue" points="76.5115,-208.233 75.7071,-218.797 82.9239,-211.04 76.5115,-208.233"/>
</g>
<!-- Node3 -->
<g id="node3" class="node"><title>Node3</title>
<g id="a_node3"><a xlink:href="class_i_n_m_o_s_t_1_1shell__dynamic__variable.html" target="_top" xlink:title="INMOST::shell_dynamic\l_variable\&lt; binary_pool\l_expression\&lt; Expr, A::Var,\l B::Var \&gt;, binary_custom\l_variable\&lt; Expr, A, B \&gt; \&gt;">
<polygon fill="none" stroke="black" points="369.5,-438.5 369.5,-501.5 504.5,-501.5 504.5,-438.5 369.5,-438.5"/>
<text text-anchor="start" x="377.5" y="-489.5" font-family="Helvetica,sans-Serif" font-size="10.00">INMOST::shell_dynamic</text>
<text text-anchor="start" x="377.5" y="-478.5" font-family="Helvetica,sans-Serif" font-size="10.00">_variable&lt; binary_pool</text>
<text text-anchor="start" x="377.5" y="-467.5" font-family="Helvetica,sans-Serif" font-size="10.00">_expression&lt; Expr, A::Var,</text>
<text text-anchor="start" x="377.5" y="-456.5" font-family="Helvetica,sans-Serif" font-size="10.00"> B::Var &gt;, binary_custom</text>
<text text-anchor="middle" x="437" y="-445.5" font-family="Helvetica,sans-Serif" font-size="10.00">_variable&lt; Expr, A, B &gt; &gt;</text>
</a>
</g>
</g>
<!-- Node2&#45;&gt;Node3 -->
<g id="edge2" class="edge"><title>Node2&#45;&gt;Node3</title>
<path fill="none" stroke="midnightblue" d="M322.766,-465.232C338.229,-465.883 354.362,-466.563 369.441,-467.198"/>
<polygon fill="midnightblue" stroke="midnightblue" points="322.858,-461.733 312.72,-464.809 322.564,-468.727 322.858,-461.733"/>
</g>
<!-- Node4 -->
<g id="node4" class="node"><title>Node4</title>
<g id="a_node4"><a xlink:href="class_i_n_m_o_s_t_1_1binary__custom__variable.html" target="_top" xlink:title="INMOST::binary_custom\l_variable\&lt; Expr, A, B \&gt;">
<polygon fill="none" stroke="black" points="570.5,-455 570.5,-485 693.5,-485 693.5,-455 570.5,-455"/>
<text text-anchor="start" x="578.5" y="-473" font-family="Helvetica,sans-Serif" font-size="10.00">INMOST::binary_custom</text>
<text text-anchor="middle" x="632" y="-462" font-family="Helvetica,sans-Serif" font-size="10.00">_variable&lt; Expr, A, B &gt;</text>
</a>
</g>
</g>
<!-- Node3&#45;&gt;Node4 -->
<g id="edge3" class="edge"><title>Node3&#45;&gt;Node4</title>
<path fill="none" stroke="midnightblue" d="M514.84,-470C533.33,-470 552.825,-470 570.453,-470"/>
<polygon fill="midnightblue" stroke="midnightblue" points="514.69,-466.5 504.69,-470 514.69,-473.5 514.69,-466.5"/>
</g>
<!-- Node6 -->
<g id="node6" class="node"><title>Node6</title>
<g id="a_node6"><a xlink:href="class_i_n_m_o_s_t_1_1shell__dynamic__variable.html" target="_top" xlink:title="INMOST::shell_dynamic\l_variable\&lt; stencil_expression\l\&lt; A::Var \&gt;, stencil_variable\&lt; A \&gt; \&gt;">
<polygon fill="none" stroke="black" points="353,-378.5 353,-419.5 521,-419.5 521,-378.5 353,-378.5"/>
<text text-anchor="start" x="361" y="-407.5" font-family="Helvetica,sans-Serif" font-size="10.00">INMOST::shell_dynamic</text>
<text text-anchor="start" x="361" y="-396.5" font-family="Helvetica,sans-Serif" font-size="10.00">_variable&lt; stencil_expression</text>
<text text-anchor="middle" x="437" y="-385.5" font-family="Helvetica,sans-Serif" font-size="10.00">&lt; A::Var &gt;, stencil_variable&lt; A &gt; &gt;</text>
</a>
</g>
</g>
<!-- Node5&#45;&gt;Node6 -->
<g id="edge5" class="edge"><title>Node5&#45;&gt;Node6</title>
<path fill="none" stroke="midnightblue" d="M327.277,-393.278C335.762,-393.724 344.396,-394.179 352.901,-394.626"/>
<polygon fill="midnightblue" stroke="midnightblue" points="327.189,-389.768 317.019,-392.738 326.821,-396.759 327.189,-389.768"/>
</g>
<!-- Node7 -->
<g id="node7" class="node"><title>Node7</title>
<g id="a_node7"><a xlink:href="class_i_n_m_o_s_t_1_1stencil__variable.html" target="_top" xlink:title="INMOST::stencil_variable\&lt; A \&gt;">
<polygon fill="none" stroke="black" points="557,-389.5 557,-408.5 707,-408.5 707,-389.5 557,-389.5"/>
<text text-anchor="middle" x="632" y="-396.5" font-family="Helvetica,sans-Serif" font-size="10.00">INMOST::stencil_variable&lt; A &gt;</text>
</a>
</g>
</g>
<!-- Node6&#45;&gt;Node7 -->
<g id="edge6" class="edge"><title>Node6&#45;&gt;Node7</title>
<path fill="none" stroke="midnightblue" d="M531.283,-399C539.857,-399 548.465,-399 556.836,-399"/>
<polygon fill="midnightblue" stroke="midnightblue" points="531.25,-395.5 521.25,-399 531.25,-402.5 531.25,-395.5"/>
</g>
<!-- Node9 -->
<g id="node9" class="node"><title>Node9</title>
<g id="a_node9"><a xlink:href="class_i_n_m_o_s_t_1_1shell__dynamic__variable.html" target="_top" xlink:title="INMOST::shell_dynamic\l_variable\&lt; ternary_pool\l_expression\&lt; Expr, A::Var,\l B::Var, C::Var \&gt;, ternary\l_custom_variable\&lt; Expr, A,\l B, C \&gt; \&gt;">
<polygon fill="none" stroke="black" points="368.5,-285 368.5,-359 505.5,-359 505.5,-285 368.5,-285"/>
<text text-anchor="start" x="376.5" y="-347" font-family="Helvetica,sans-Serif" font-size="10.00">INMOST::shell_dynamic</text>
<text text-anchor="start" x="376.5" y="-336" font-family="Helvetica,sans-Serif" font-size="10.00">_variable&lt; ternary_pool</text>
<text text-anchor="start" x="376.5" y="-325" font-family="Helvetica,sans-Serif" font-size="10.00">_expression&lt; Expr, A::Var,</text>
<text text-anchor="start" x="376.5" y="-314" font-family="Helvetica,sans-Serif" font-size="10.00"> B::Var, C::Var &gt;, ternary</text>
<text text-anchor="start" x="376.5" y="-303" font-family="Helvetica,sans-Serif" font-size="10.00">_custom_variable&lt; Expr, A,</text>
<text text-anchor="middle" x="437" y="-292" font-family="Helvetica,sans-Serif" font-size="10.00"> B, C &gt; &gt;</text>
</a>
</g>
</g>
<!-- Node8&#45;&gt;Node9 -->
<g id="edge8" class="edge"><title>Node8&#45;&gt;Node9</title>
<path fill="none" stroke="midnightblue" d="M323.023,-316.648C338.079,-317.362 353.76,-318.104 368.478,-318.802"/>
<polygon fill="midnightblue" stroke="midnightblue" points="322.874,-313.138 312.72,-316.16 322.543,-320.13 322.874,-313.138"/>
</g>
<!-- Node10 -->
<g id="node10" class="node"><title>Node10</title>
<g id="a_node10"><a xlink:href="class_i_n_m_o_s_t_1_1ternary__custom__variable.html" target="_top" xlink:title="INMOST::ternary_custom\l_variable\&lt; Expr, A, B, C \&gt;">
<polygon fill="none" stroke="black" points="566.5,-307 566.5,-337 697.5,-337 697.5,-307 566.5,-307"/>
<text text-anchor="start" x="574.5" y="-325" font-family="Helvetica,sans-Serif" font-size="10.00">INMOST::ternary_custom</text>
<text text-anchor="middle" x="632" y="-314" font-family="Helvetica,sans-Serif" font-size="10.00">_variable&lt; Expr, A, B, C &gt;</text>
</a>
</g>
</g>
<!-- Node9&#45;&gt;Node10 -->
<g id="edge9" class="edge"><title>Node9&#45;&gt;Node10</title>
<path fill="none" stroke="midnightblue" d="M515.843,-322C532.644,-322 550.23,-322 566.457,-322"/>
<polygon fill="midnightblue" stroke="midnightblue" points="515.502,-318.5 505.502,-322 515.502,-325.5 515.502,-318.5"/>
</g>
<!-- Node12 -->
<g id="node12" class="node"><title>Node12</title>
<g id="a_node12"><a xlink:href="class_i_n_m_o_s_t_1_1shell__dynamic__variable.html" target="_top" xlink:title="INMOST::shell_dynamic\l_variable\&lt; unary_const\l_pool_expression\&lt; Expr,\l A::Var \&gt;, unary_const_custom\l_variable\&lt; Expr, A \&gt; \&gt;">
<polygon fill="none" stroke="black" points="360.5,-202.5 360.5,-265.5 513.5,-265.5 513.5,-202.5 360.5,-202.5"/>
<text text-anchor="start" x="368.5" y="-253.5" font-family="Helvetica,sans-Serif" font-size="10.00">INMOST::shell_dynamic</text>
<text text-anchor="start" x="368.5" y="-242.5" font-family="Helvetica,sans-Serif" font-size="10.00">_variable&lt; unary_const</text>
<text text-anchor="start" x="368.5" y="-231.5" font-family="Helvetica,sans-Serif" font-size="10.00">_pool_expression&lt; Expr,</text>
<text text-anchor="start" x="368.5" y="-220.5" font-family="Helvetica,sans-Serif" font-size="10.00"> A::Var &gt;, unary_const_custom</text>
<text text-anchor="middle" x="437" y="-209.5" font-family="Helvetica,sans-Serif" font-size="10.00">_variable&lt; Expr, A &gt; &gt;</text>
</a>
</g>
</g>
<!-- Node11&#45;&gt;Node12 -->
<g id="edge11" class="edge"><title>Node11&#45;&gt;Node12</title>
<path fill="none" stroke="midnightblue" d="M317.692,-234C331.63,-234 346.282,-234 360.343,-234"/>
<polygon fill="midnightblue" stroke="midnightblue" points="317.688,-230.5 307.688,-234 317.688,-237.5 317.688,-230.5"/>
</g>
<!-- Node13 -->
<g id="node13" class="node"><title>Node13</title>
<g id="a_node13"><a xlink:href="class_i_n_m_o_s_t_1_1unary__const__custom__variable.html" target="_top" xlink:title="INMOST::unary_const\l_custom_variable\&lt; Expr, A \&gt;">
<polygon fill="none" stroke="black" points="560.5,-219 560.5,-249 703.5,-249 703.5,-219 560.5,-219"/>
<text text-anchor="start" x="568.5" y="-237" font-family="Helvetica,sans-Serif" font-size="10.00">INMOST::unary_const</text>
<text text-anchor="middle" x="632" y="-226" font-family="Helvetica,sans-Serif" font-size="10.00">_custom_variable&lt; Expr, A &gt;</text>
</a>
</g>
</g>
<!-- Node12&#45;&gt;Node13 -->
<g id="edge12" class="edge"><title>Node12&#45;&gt;Node13</title>
<path fill="none" stroke="midnightblue" d="M523.862,-234C536.014,-234 548.394,-234 560.218,-234"/>
<polygon fill="midnightblue" stroke="midnightblue" points="523.725,-230.5 513.725,-234 523.725,-237.5 523.725,-230.5"/>
</g>
<!-- Node15 -->
<g id="node15" class="node"><title>Node15</title>
<g id="a_node15"><a xlink:href="class_i_n_m_o_s_t_1_1shell__dynamic__variable.html" target="_top" xlink:title="INMOST::shell_dynamic\l_variable\&lt; unary_pool\l_expression\&lt; Expr, A::\lVar \&gt;, unary_custom_variable\l\&lt; Expr, A \&gt; \&gt;">
<polygon fill="none" stroke="black" points="364,-120.5 364,-183.5 510,-183.5 510,-120.5 364,-120.5"/>
<text text-anchor="start" x="372" y="-171.5" font-family="Helvetica,sans-Serif" font-size="10.00">INMOST::shell_dynamic</text>
<text text-anchor="start" x="372" y="-160.5" font-family="Helvetica,sans-Serif" font-size="10.00">_variable&lt; unary_pool</text>
<text text-anchor="start" x="372" y="-149.5" font-family="Helvetica,sans-Serif" font-size="10.00">_expression&lt; Expr, A::</text>
<text text-anchor="start" x="372" y="-138.5" font-family="Helvetica,sans-Serif" font-size="10.00">Var &gt;, unary_custom_variable</text>
<text text-anchor="middle" x="437" y="-127.5" font-family="Helvetica,sans-Serif" font-size="10.00">&lt; Expr, A &gt; &gt;</text>
</a>
</g>
</g>
<!-- Node14&#45;&gt;Node15 -->
<g id="edge14" class="edge"><title>Node14&#45;&gt;Node15</title>
<path fill="none" stroke="midnightblue" d="M317.915,-156.351C332.904,-155.798 348.71,-155.216 363.713,-154.663"/>
<polygon fill="midnightblue" stroke="midnightblue" points="317.552,-152.861 307.688,-156.727 317.81,-159.857 317.552,-152.861"/>
</g>
<!-- Node16 -->
<g id="node16" class="node"><title>Node16</title>
<g id="a_node16"><a xlink:href="class_i_n_m_o_s_t_1_1unary__custom__variable.html" target="_top" xlink:title="INMOST::unary_custom\l_variable\&lt; Expr, A \&gt;">
<polygon fill="none" stroke="black" points="571.5,-137 571.5,-167 692.5,-167 692.5,-137 571.5,-137"/>
<text text-anchor="start" x="579.5" y="-155" font-family="Helvetica,sans-Serif" font-size="10.00">INMOST::unary_custom</text>
<text text-anchor="middle" x="632" y="-144" font-family="Helvetica,sans-Serif" font-size="10.00">_variable&lt; Expr, A &gt;</text>
</a>
</g>
</g>
<!-- Node15&#45;&gt;Node16 -->
<g id="edge15" class="edge"><title>Node15&#45;&gt;Node16</title>
<path fill="none" stroke="midnightblue" d="M520.153,-152C537.308,-152 555.082,-152 571.241,-152"/>
<polygon fill="midnightblue" stroke="midnightblue" points="520.141,-148.5 510.141,-152 520.14,-155.5 520.141,-148.5"/>
</g>
<!-- Node18 -->
<g id="node18" class="node"><title>Node18</title>
<g id="a_node18"><a xlink:href="class_i_n_m_o_s_t_1_1shell__dynamic__variable.html" target="_top" xlink:title="INMOST::shell_dynamic\l_variable\&lt; var_expression,\l dynamic_variable \&gt;">
<polygon fill="none" stroke="black" points="371.5,-60.5 371.5,-101.5 502.5,-101.5 502.5,-60.5 371.5,-60.5"/>
<text text-anchor="start" x="379.5" y="-89.5" font-family="Helvetica,sans-Serif" font-size="10.00">INMOST::shell_dynamic</text>
<text text-anchor="start" x="379.5" y="-78.5" font-family="Helvetica,sans-Serif" font-size="10.00">_variable&lt; var_expression,</text>
<text text-anchor="middle" x="437" y="-67.5" font-family="Helvetica,sans-Serif" font-size="10.00"> dynamic_variable &gt;</text>
</a>
</g>
</g>
<!-- Node17&#45;&gt;Node18 -->
<g id="edge17" class="edge"><title>Node17&#45;&gt;Node18</title>
<path fill="none" stroke="midnightblue" d="M323.774,-86.9066C339.548,-86.0764 355.978,-85.2117 371.244,-84.4082"/>
<polygon fill="midnightblue" stroke="midnightblue" points="323.324,-83.4254 313.522,-87.4462 323.692,-90.4157 323.324,-83.4254"/>
</g>
<!-- Node19 -->
<g id="node19" class="node"><title>Node19</title>
<g id="a_node19"><a xlink:href="class_i_n_m_o_s_t_1_1dynamic__variable.html" target="_top" xlink:title="INMOST::dynamic_variable">
<polygon fill="none" stroke="black" points="565,-71.5 565,-90.5 699,-90.5 699,-71.5 565,-71.5"/>
<text text-anchor="middle" x="632" y="-78.5" font-family="Helvetica,sans-Serif" font-size="10.00">INMOST::dynamic_variable</text>
</a>
</g>
</g>
<!-- Node18&#45;&gt;Node19 -->
<g id="edge18" class="edge"><title>Node18&#45;&gt;Node19</title>
<path fill="none" stroke="midnightblue" d="M512.554,-81C529.797,-81 548.026,-81 564.878,-81"/>
<polygon fill="midnightblue" stroke="midnightblue" points="512.535,-77.5001 502.535,-81 512.534,-84.5001 512.535,-77.5001"/>
</g>
<!-- Node21 -->
<g id="node21" class="node"><title>Node21</title>
<g id="a_node21"><a xlink:href="class_i_n_m_o_s_t_1_1shell__dynamic__variable.html" target="_top" xlink:title="INMOST::shell_dynamic\l_variable\&lt; VariableType,\l Derived \&gt;">
<polygon fill="none" stroke="black" points="376,-0.5 376,-41.5 498,-41.5 498,-0.5 376,-0.5"/>
<text text-anchor="start" x="384" y="-29.5" font-family="Helvetica,sans-Serif" font-size="10.00">INMOST::shell_dynamic</text>
<text text-anchor="start" x="384" y="-18.5" font-family="Helvetica,sans-Serif" font-size="10.00">_variable&lt; VariableType,</text>
<text text-anchor="middle" x="437" y="-7.5" font-family="Helvetica,sans-Serif" font-size="10.00"> Derived &gt;</text>
</a>
</g>
</g>
<!-- Node20&#45;&gt;Node21 -->
<g id="edge20" class="edge"><title>Node20&#45;&gt;Node21</title>
<path fill="none" stroke="midnightblue" d="M319.241,-24.0726C337.925,-23.5809 357.795,-23.058 375.746,-22.5856"/>
<polygon fill="midnightblue" stroke="midnightblue" points="318.908,-20.5801 309.003,-24.342 319.092,-27.5776 318.908,-20.5801"/>
</g>
</g>
</svg>
