<?xml version="1.0" encoding="UTF-8" standalone="no"?>
<!DOCTYPE svg PUBLIC "-//W3C//DTD SVG 1.1//EN"
 "http://www.w3.org/Graphics/SVG/1.1/DTD/svg11.dtd">
<!-- Generated by graphviz version 2.38.0 (20140413.2041)
 -->
<!-- Title: Graphical Class Hierarchy Pages: 1 -->
<svg width="398pt" height="180pt"
 viewBox="0.00 0.00 398.00 180.00" xmlns="http://www.w3.org/2000/svg" xmlns:xlink="http://www.w3.org/1999/xlink">
<g id="graph0" class="graph" transform="scale(1 1) rotate(0) translate(4 176)">
<title>Graphical Class Hierarchy</title>
<!-- Node1 -->
<g id="node1" class="node"><title>Node1</title>
<g id="a_node1"><a xlink:href="class_i_n_m_o_s_t_1_1_storage.html" target="_top" xlink:title="INMOST::Storage">
<polygon fill="none" stroke="black" points="10,-76.5 10,-95.5 103,-95.5 103,-76.5 10,-76.5"/>
<text text-anchor="middle" x="56.5" y="-83.5" font-family="Helvetica,sans-Serif" font-size="10.00">INMOST::Storage</text>
</a>
</g>
</g>
<!-- Node2 -->
<g id="node2" class="node"><title>Node2</title>
<g id="a_node2"><a xlink:href="class_i_n_m_o_s_t_1_1_element.html" target="_top" xlink:title="INMOST::Element">
<polygon fill="none" stroke="black" points="149,-76.5 149,-95.5 244,-95.5 244,-76.5 149,-76.5"/>
<text text-anchor="middle" x="196.5" y="-83.5" font-family="Helvetica,sans-Serif" font-size="10.00">INMOST::Element</text>
</a>
</g>
</g>
<!-- Node1&#45;&gt;Node2 -->
<g id="edge1" class="edge"><title>Node1&#45;&gt;Node2</title>
<path fill="none" stroke="midnightblue" d="M113.203,-86C124.931,-86 137.193,-86 148.561,-86"/>
<polygon fill="midnightblue" stroke="midnightblue" points="113.069,-82.5001 103.069,-86 113.069,-89.5001 113.069,-82.5001"/>
</g>
<!-- Node8 -->
<g id="node8" class="node"><title>Node8</title>
<g id="a_node8"><a xlink:href="class_i_n_m_o_s_t_1_1_mesh.html" target="_top" xlink:title="INMOST::Mesh">
<polygon fill="none" stroke="black" points="155,-38.5 155,-57.5 238,-57.5 238,-38.5 155,-38.5"/>
<text text-anchor="middle" x="196.5" y="-45.5" font-family="Helvetica,sans-Serif" font-size="10.00">INMOST::Mesh</text>
</a>
</g>
</g>
<!-- Node1&#45;&gt;Node8 -->
<g id="edge7" class="edge"><title>Node1&#45;&gt;Node8</title>
<path fill="none" stroke="midnightblue" d="M101.973,-73.7538C120.995,-68.516 142.875,-62.4909 160.688,-57.5859"/>
<polygon fill="midnightblue" stroke="midnightblue" points="101.035,-70.3817 92.3232,-76.411 102.894,-77.1305 101.035,-70.3817"/>
</g>
<!-- Node3 -->
<g id="node3" class="node"><title>Node3</title>
<g id="a_node3"><a xlink:href="class_i_n_m_o_s_t_1_1_cell.html" target="_top" xlink:title="An interface for elements of type CELL. ">
<polygon fill="none" stroke="black" points="297,-152.5 297,-171.5 373,-171.5 373,-152.5 297,-152.5"/>
<text text-anchor="middle" x="335" y="-159.5" font-family="Helvetica,sans-Serif" font-size="10.00">INMOST::Cell</text>
</a>
</g>
</g>
<!-- Node2&#45;&gt;Node3 -->
<g id="edge2" class="edge"><title>Node2&#45;&gt;Node3</title>
<path fill="none" stroke="midnightblue" d="M217.295,-101.927C233.443,-114.351 257.23,-131.392 280,-143 286.995,-146.566 294.815,-149.74 302.285,-152.425"/>
<polygon fill="midnightblue" stroke="midnightblue" points="219.196,-98.9707 209.164,-95.5634 214.882,-104.483 219.196,-98.9707"/>
</g>
<!-- Node4 -->
<g id="node4" class="node"><title>Node4</title>
<g id="a_node4"><a xlink:href="class_i_n_m_o_s_t_1_1_edge.html" target="_top" xlink:title="INMOST::Edge">
<polygon fill="none" stroke="black" points="294,-114.5 294,-133.5 376,-133.5 376,-114.5 294,-114.5"/>
<text text-anchor="middle" x="335" y="-121.5" font-family="Helvetica,sans-Serif" font-size="10.00">INMOST::Edge</text>
</a>
</g>
</g>
<!-- Node2&#45;&gt;Node4 -->
<g id="edge3" class="edge"><title>Node2&#45;&gt;Node4</title>
<path fill="none" stroke="midnightblue" d="M241.749,-98.3183C260.503,-103.539 282.028,-109.532 299.566,-114.414"/>
<polygon fill="midnightblue" stroke="midnightblue" points="242.517,-94.8992 231.945,-95.589 240.64,-101.643 242.517,-94.8992"/>
</g>
<!-- Node5 -->
<g id="node5" class="node"><title>Node5</title>
<g id="a_node5"><a xlink:href="class_i_n_m_o_s_t_1_1_element_set.html" target="_top" xlink:title="INMOST::ElementSet">
<polygon fill="none" stroke="black" points="280,-76.5 280,-95.5 390,-95.5 390,-76.5 280,-76.5"/>
<text text-anchor="middle" x="335" y="-83.5" font-family="Helvetica,sans-Serif" font-size="10.00">INMOST::ElementSet</text>
</a>
</g>
</g>
<!-- Node2&#45;&gt;Node5 -->
<g id="edge4" class="edge"><title>Node2&#45;&gt;Node5</title>
<path fill="none" stroke="midnightblue" d="M254.197,-86C262.607,-86 271.258,-86 279.62,-86"/>
<polygon fill="midnightblue" stroke="midnightblue" points="254.094,-82.5001 244.094,-86 254.094,-89.5001 254.094,-82.5001"/>
</g>
<!-- Node6 -->
<g id="node6" class="node"><title>Node6</title>
<g id="a_node6"><a xlink:href="class_i_n_m_o_s_t_1_1_face.html" target="_top" xlink:title="An interface for elements of type FACE. ">
<polygon fill="none" stroke="black" points="294.5,-38.5 294.5,-57.5 375.5,-57.5 375.5,-38.5 294.5,-38.5"/>
<text text-anchor="middle" x="335" y="-45.5" font-family="Helvetica,sans-Serif" font-size="10.00">INMOST::Face</text>
</a>
</g>
</g>
<!-- Node2&#45;&gt;Node6 -->
<g id="edge5" class="edge"><title>Node2&#45;&gt;Node6</title>
<path fill="none" stroke="midnightblue" d="M241.749,-73.6817C260.503,-68.4607 282.028,-62.4684 299.566,-57.5859"/>
<polygon fill="midnightblue" stroke="midnightblue" points="240.64,-70.3572 231.945,-76.411 242.517,-77.1008 240.64,-70.3572"/>
</g>
<!-- Node7 -->
<g id="node7" class="node"><title>Node7</title>
<g id="a_node7"><a xlink:href="class_i_n_m_o_s_t_1_1_node.html" target="_top" xlink:title="INMOST::Node">
<polygon fill="none" stroke="black" points="294,-0.5 294,-19.5 376,-19.5 376,-0.5 294,-0.5"/>
<text text-anchor="middle" x="335" y="-7.5" font-family="Helvetica,sans-Serif" font-size="10.00">INMOST::Node</text>
</a>
</g>
</g>
<!-- Node2&#45;&gt;Node7 -->
<g id="edge6" class="edge"><title>Node2&#45;&gt;Node7</title>
<path fill="none" stroke="midnightblue" d="M235.797,-71.9301C238.652,-70.4089 241.42,-68.7654 244,-67 263.199,-53.8608 260.481,-41.6593 280,-29 285.837,-25.2144 292.519,-22.0785 299.148,-19.52"/>
<polygon fill="midnightblue" stroke="midnightblue" points="234.025,-68.898 226.515,-76.3714 237.046,-75.2125 234.025,-68.898"/>
</g>
<!-- Node9 -->
<g id="node9" class="node"><title>Node9</title>
<g id="a_node9"><a xlink:href="class_i_n_m_o_s_t_1_1_tag_manager.html" target="_top" xlink:title="INMOST::TagManager">
<polygon fill="none" stroke="black" points="0,-38.5 0,-57.5 113,-57.5 113,-38.5 0,-38.5"/>
<text text-anchor="middle" x="56.5" y="-45.5" font-family="Helvetica,sans-Serif" font-size="10.00">INMOST::TagManager</text>
</a>
</g>
</g>
<!-- Node9&#45;&gt;Node8 -->
<g id="edge8" class="edge"><title>Node9&#45;&gt;Node8</title>
<path fill="none" stroke="midnightblue" d="M123.439,-48C134.152,-48 144.963,-48 154.837,-48"/>
<polygon fill="midnightblue" stroke="midnightblue" points="123.232,-44.5001 113.232,-48 123.232,-51.5001 123.232,-44.5001"/>
</g>
</g>
</svg>
