<?xml version="1.0" encoding="UTF-8" standalone="no"?>
<!DOCTYPE svg PUBLIC "-//W3C//DTD SVG 1.1//EN"
 "http://www.w3.org/Graphics/SVG/1.1/DTD/svg11.dtd">
<!-- Generated by graphviz version 2.38.0 (20140413.2041)
 -->
<!-- Title: operator* Pages: 1 -->
<svg width="234pt" height="198pt"
 viewBox="0.00 0.00 234.00 197.50" xmlns="http://www.w3.org/2000/svg" xmlns:xlink="http://www.w3.org/1999/xlink">
<g id="graph0" class="graph" transform="scale(1 1) rotate(0) translate(4 193.5)">
<title>operator*</title>
<!-- Node1 -->
<g id="node1" class="node"><title>Node1</title>
<polygon fill="#bfbfbf" stroke="black" points="0,-90.5 0,-109.5 56,-109.5 56,-90.5 0,-90.5"/>
<text text-anchor="middle" x="28" y="-97.5" font-family="Helvetica,sans-Serif" font-size="10.00">operator*</text>
</g>
<!-- Node2 -->
<g id="node2" class="node"><title>Node2</title>
<g id="a_node2"><a xlink:href="class_i_n_m_o_s_t_1_1_element_array_1_1iterator.html#afadc7da73e24f64fa4a14dbfe4c44f83" target="_top" xlink:title="INMOST::ElementArray\l::iterator::operator*">
<polygon fill="none" stroke="black" points="99.5,-159 99.5,-189 218.5,-189 218.5,-159 99.5,-159"/>
<text text-anchor="start" x="107.5" y="-177" font-family="Helvetica,sans-Serif" font-size="10.00">INMOST::ElementArray</text>
<text text-anchor="middle" x="159" y="-166" font-family="Helvetica,sans-Serif" font-size="10.00">::iterator::operator*</text>
</a>
</g>
</g>
<!-- Node1&#45;&gt;Node2 -->
<g id="edge1" class="edge"><title>Node1&#45;&gt;Node2</title>
<path fill="none" stroke="midnightblue" d="M46.4917,-116.433C58.5571,-127.101 75.3635,-140.698 92,-150 97.8531,-153.273 104.238,-156.247 110.655,-158.9"/>
<polygon fill="midnightblue" stroke="midnightblue" points="48.7169,-113.726 38.9566,-109.604 44.0163,-118.913 48.7169,-113.726"/>
</g>
<!-- Node3 -->
<g id="node3" class="node"><title>Node3</title>
<g id="a_node3"><a xlink:href="class_i_n_m_o_s_t_1_1_element_array_1_1reverse__iterator.html#a4aac2a4476ad6d4d07f6506ff765c899" target="_top" xlink:title="INMOST::ElementArray\l::reverse_iterator::operator*">
<polygon fill="none" stroke="black" points="92,-110 92,-140 226,-140 226,-110 92,-110"/>
<text text-anchor="start" x="100" y="-128" font-family="Helvetica,sans-Serif" font-size="10.00">INMOST::ElementArray</text>
<text text-anchor="middle" x="159" y="-117" font-family="Helvetica,sans-Serif" font-size="10.00">::reverse_iterator::operator*</text>
</a>
</g>
</g>
<!-- Node1&#45;&gt;Node3 -->
<g id="edge2" class="edge"><title>Node1&#45;&gt;Node3</title>
<path fill="none" stroke="midnightblue" d="M65.943,-107.159C74.106,-108.741 82.9942,-110.464 91.9227,-112.194"/>
<polygon fill="midnightblue" stroke="midnightblue" points="66.5259,-103.707 56.0426,-105.241 65.194,-110.58 66.5259,-103.707"/>
</g>
<!-- Node4 -->
<g id="node4" class="node"><title>Node4</title>
<g id="a_node4"><a xlink:href="class_i_n_m_o_s_t_1_1_element_array_1_1const__iterator.html#a9de46f6fd60eea5b0fee47b0a94e2e0c" target="_top" xlink:title="INMOST::ElementArray\l::const_iterator::operator*">
<polygon fill="none" stroke="black" points="95.5,-61 95.5,-91 222.5,-91 222.5,-61 95.5,-61"/>
<text text-anchor="start" x="103.5" y="-79" font-family="Helvetica,sans-Serif" font-size="10.00">INMOST::ElementArray</text>
<text text-anchor="middle" x="159" y="-68" font-family="Helvetica,sans-Serif" font-size="10.00">::const_iterator::operator*</text>
</a>
</g>
</g>
<!-- Node1&#45;&gt;Node4 -->
<g id="edge3" class="edge"><title>Node1&#45;&gt;Node4</title>
<path fill="none" stroke="midnightblue" d="M65.9925,-93.1177C75.1977,-91.4051 85.3227,-89.5214 95.3865,-87.649"/>
<polygon fill="midnightblue" stroke="midnightblue" points="65.2337,-89.6987 56.0426,-94.9688 66.5141,-96.5806 65.2337,-89.6987"/>
</g>
<!-- Node5 -->
<g id="node5" class="node"><title>Node5</title>
<g id="a_node5"><a xlink:href="class_i_n_m_o_s_t_1_1_element_array_1_1const__reverse__iterator.html#ab7c6d555cc57f6227e46ec3f24431667" target="_top" xlink:title="INMOST::ElementArray\l::const_reverse_iterator\l::operator*">
<polygon fill="none" stroke="black" points="99.5,-0.5 99.5,-41.5 218.5,-41.5 218.5,-0.5 99.5,-0.5"/>
<text text-anchor="start" x="107.5" y="-29.5" font-family="Helvetica,sans-Serif" font-size="10.00">INMOST::ElementArray</text>
<text text-anchor="start" x="107.5" y="-18.5" font-family="Helvetica,sans-Serif" font-size="10.00">::const_reverse_iterator</text>
<text text-anchor="middle" x="159" y="-7.5" font-family="Helvetica,sans-Serif" font-size="10.00">::operator*</text>
</a>
</g>
</g>
<!-- Node1&#45;&gt;Node5 -->
<g id="edge4" class="edge"><title>Node1&#45;&gt;Node5</title>
<path fill="none" stroke="midnightblue" d="M48.1086,-83.7416C60.2228,-73.8727 76.4836,-61.4088 92,-52 97.9536,-48.3899 104.395,-44.9001 110.841,-41.6456"/>
<polygon fill="midnightblue" stroke="midnightblue" points="45.5555,-81.3118 40.0903,-90.3883 50.0228,-86.701 45.5555,-81.3118"/>
</g>
</g>
</svg>
