<?xml version="1.0" encoding="UTF-8" standalone="no"?>
<!DOCTYPE svg PUBLIC "-//W3C//DTD SVG 1.1//EN"
 "http://www.w3.org/Graphics/SVG/1.1/DTD/svg11.dtd">
<!-- Generated by graphviz version 2.38.0 (20140413.2041)
 -->
<!-- Title: INMOST.lib/Source/Headers/inmost_sparse.h Pages: 1 -->
<svg width="925pt" height="207pt"
 viewBox="0.00 0.00 924.50 207.00" xmlns="http://www.w3.org/2000/svg" xmlns:xlink="http://www.w3.org/1999/xlink">
<g id="graph0" class="graph" transform="scale(1 1) rotate(0) translate(4 203)">
<title>INMOST.lib/Source/Headers/inmost_sparse.h</title>
<!-- Node1 -->
<g id="node1" class="node"><title>Node1</title>
<polygon fill="#bfbfbf" stroke="black" points="392,-168.5 392,-198.5 531,-198.5 531,-168.5 392,-168.5"/>
<text text-anchor="start" x="400" y="-186.5" font-family="Helvetica,sans-Serif" font-size="10.00">INMOST.lib/Source/Headers</text>
<text text-anchor="middle" x="461.5" y="-175.5" font-family="Helvetica,sans-Serif" font-size="10.00">/inmost_sparse.h</text>
</g>
<!-- Node2 -->
<g id="node2" class="node"><title>Node2</title>
<g id="a_node2"><a xlink:href="inmost__common_8h.html" target="_top" xlink:title="inmost_common.h">
<polygon fill="none" stroke="black" points="413,-112.5 413,-131.5 510,-131.5 510,-112.5 413,-112.5"/>
<text text-anchor="middle" x="461.5" y="-119.5" font-family="Helvetica,sans-Serif" font-size="10.00">inmost_common.h</text>
</a>
</g>
</g>
<!-- Node1&#45;&gt;Node2 -->
<g id="edge1" class="edge"><title>Node1&#45;&gt;Node2</title>
<path fill="none" stroke="midnightblue" d="M461.5,-168.399C461.5,-160.466 461.5,-150.458 461.5,-141.858"/>
<polygon fill="midnightblue" stroke="midnightblue" points="465,-141.658 461.5,-131.658 458,-141.658 465,-141.658"/>
</g>
<!-- Node3 -->
<g id="node3" class="node"><title>Node3</title>
<polygon fill="none" stroke="#bfbfbf" points="0,-56.5 0,-75.5 91,-75.5 91,-56.5 0,-56.5"/>
<text text-anchor="middle" x="45.5" y="-63.5" font-family="Helvetica,sans-Serif" font-size="10.00">inmost_options.h</text>
</g>
<!-- Node2&#45;&gt;Node3 -->
<g id="edge2" class="edge"><title>Node2&#45;&gt;Node3</title>
<path fill="none" stroke="midnightblue" d="M412.815,-115.597C345.201,-107.951 218.788,-93.138 101.385,-76.2279"/>
<polygon fill="midnightblue" stroke="midnightblue" points="101.543,-72.7143 91.1443,-74.7441 100.539,-79.6419 101.543,-72.7143"/>
</g>
<!-- Node4 -->
<g id="node4" class="node"><title>Node4</title>
<polygon fill="none" stroke="#bfbfbf" points="109,-56.5 109,-75.5 150,-75.5 150,-56.5 109,-56.5"/>
<text text-anchor="middle" x="129.5" y="-63.5" font-family="Helvetica,sans-Serif" font-size="10.00">string</text>
</g>
<!-- Node2&#45;&gt;Node4 -->
<g id="edge3" class="edge"><title>Node2&#45;&gt;Node4</title>
<path fill="none" stroke="midnightblue" d="M412.987,-115.945C354.987,-109.42 254.892,-96.6393 159.829,-75.7689"/>
<polygon fill="midnightblue" stroke="midnightblue" points="160.576,-72.3497 150.054,-73.59 159.053,-79.182 160.576,-72.3497"/>
</g>
<!-- Node5 -->
<g id="node5" class="node"><title>Node5</title>
<polygon fill="none" stroke="#bfbfbf" points="168.5,-56.5 168.5,-75.5 210.5,-75.5 210.5,-56.5 168.5,-56.5"/>
<text text-anchor="middle" x="189.5" y="-63.5" font-family="Helvetica,sans-Serif" font-size="10.00">vector</text>
</g>
<!-- Node2&#45;&gt;Node5 -->
<g id="edge4" class="edge"><title>Node2&#45;&gt;Node5</title>
<path fill="none" stroke="midnightblue" d="M412.964,-113.553C366.076,-106.006 292.895,-93.3033 220.879,-76.1293"/>
<polygon fill="midnightblue" stroke="midnightblue" points="221.27,-72.6232 210.728,-73.6764 219.626,-79.4273 221.27,-72.6232"/>
</g>
<!-- Node6 -->
<g id="node6" class="node"><title>Node6</title>
<polygon fill="none" stroke="#bfbfbf" points="228.5,-56.5 228.5,-75.5 258.5,-75.5 258.5,-56.5 228.5,-56.5"/>
<text text-anchor="middle" x="243.5" y="-63.5" font-family="Helvetica,sans-Serif" font-size="10.00">set</text>
</g>
<!-- Node2&#45;&gt;Node6 -->
<g id="edge5" class="edge"><title>Node2&#45;&gt;Node6</title>
<path fill="none" stroke="midnightblue" d="M417.149,-112.437C379.71,-104.823 324.578,-92.7126 268.392,-75.9691"/>
<polygon fill="midnightblue" stroke="midnightblue" points="269.218,-72.5625 258.633,-73.0166 267.191,-79.2626 269.218,-72.5625"/>
</g>
<!-- Node7 -->
<g id="node7" class="node"><title>Node7</title>
<polygon fill="none" stroke="#bfbfbf" points="277,-56.5 277,-75.5 312,-75.5 312,-56.5 277,-56.5"/>
<text text-anchor="middle" x="294.5" y="-63.5" font-family="Helvetica,sans-Serif" font-size="10.00">map</text>
</g>
<!-- Node2&#45;&gt;Node7 -->
<g id="edge6" class="edge"><title>Node2&#45;&gt;Node7</title>
<path fill="none" stroke="midnightblue" d="M434.142,-112.485C407.633,-104.187 366.06,-91.0507 321.868,-76.4049"/>
<polygon fill="midnightblue" stroke="midnightblue" points="322.696,-72.992 312.102,-73.158 320.487,-79.6345 322.696,-72.992"/>
</g>
<!-- Node8 -->
<g id="node8" class="node"><title>Node8</title>
<polygon fill="none" stroke="#bfbfbf" points="330,-56.5 330,-75.5 359,-75.5 359,-56.5 330,-56.5"/>
<text text-anchor="middle" x="344.5" y="-63.5" font-family="Helvetica,sans-Serif" font-size="10.00">list</text>
</g>
<!-- Node2&#45;&gt;Node8 -->
<g id="edge7" class="edge"><title>Node2&#45;&gt;Node8</title>
<path fill="none" stroke="midnightblue" d="M442.961,-112.444C422.845,-103.159 390.654,-88.3018 368.592,-78.1193"/>
<polygon fill="midnightblue" stroke="midnightblue" points="369.794,-74.8194 359.248,-73.8067 366.861,-81.1752 369.794,-74.8194"/>
</g>
<!-- Node9 -->
<g id="node9" class="node"><title>Node9</title>
<polygon fill="none" stroke="#bfbfbf" points="377.5,-56.5 377.5,-75.5 433.5,-75.5 433.5,-56.5 377.5,-56.5"/>
<text text-anchor="middle" x="405.5" y="-63.5" font-family="Helvetica,sans-Serif" font-size="10.00">algorithm</text>
</g>
<!-- Node2&#45;&gt;Node9 -->
<g id="edge8" class="edge"><title>Node2&#45;&gt;Node9</title>
<path fill="none" stroke="midnightblue" d="M452.503,-112.324C444.306,-104.42 431.994,-92.5482 422.028,-82.9377"/>
<polygon fill="midnightblue" stroke="midnightblue" points="424.289,-80.2558 414.661,-75.8339 419.43,-85.2947 424.289,-80.2558"/>
</g>
<!-- Node10 -->
<g id="node10" class="node"><title>Node10</title>
<polygon fill="none" stroke="#bfbfbf" points="353.5,-0.5 353.5,-19.5 397.5,-19.5 397.5,-0.5 353.5,-0.5"/>
<text text-anchor="middle" x="375.5" y="-7.5" font-family="Helvetica,sans-Serif" font-size="10.00">cmath</text>
</g>
<!-- Node2&#45;&gt;Node10 -->
<g id="edge9" class="edge"><title>Node2&#45;&gt;Node10</title>
<path fill="none" stroke="midnightblue" d="M460.823,-112.174C459.41,-98.8351 455.139,-73.2663 442.5,-56 432.682,-42.5875 417.577,-31.9427 404.192,-24.3806"/>
<polygon fill="midnightblue" stroke="midnightblue" points="405.759,-21.2498 395.287,-19.6417 402.471,-27.4293 405.759,-21.2498"/>
</g>
<!-- Node11 -->
<g id="node11" class="node"><title>Node11</title>
<polygon fill="none" stroke="#bfbfbf" points="621.5,-56.5 621.5,-75.5 675.5,-75.5 675.5,-56.5 621.5,-56.5"/>
<text text-anchor="middle" x="648.5" y="-63.5" font-family="Helvetica,sans-Serif" font-size="10.00">iostream</text>
</g>
<!-- Node2&#45;&gt;Node11 -->
<g id="edge10" class="edge"><title>Node2&#45;&gt;Node11</title>
<path fill="none" stroke="midnightblue" d="M491.131,-112.444C523.75,-103.024 576.235,-87.8679 611.525,-77.6774"/>
<polygon fill="midnightblue" stroke="midnightblue" points="612.8,-80.9521 621.437,-74.8151 610.858,-74.2269 612.8,-80.9521"/>
</g>
<!-- Node12 -->
<g id="node12" class="node"><title>Node12</title>
<polygon fill="none" stroke="#bfbfbf" points="694,-56.5 694,-75.5 743,-75.5 743,-56.5 694,-56.5"/>
<text text-anchor="middle" x="718.5" y="-63.5" font-family="Helvetica,sans-Serif" font-size="10.00">fstream</text>
</g>
<!-- Node2&#45;&gt;Node12 -->
<g id="edge11" class="edge"><title>Node2&#45;&gt;Node12</title>
<path fill="none" stroke="midnightblue" d="M507.8,-112.492C550.904,-104.383 617.153,-91.4466 683.823,-76.0477"/>
<polygon fill="midnightblue" stroke="midnightblue" points="684.714,-79.434 693.66,-73.7582 683.127,-72.6163 684.714,-79.434"/>
</g>
<!-- Node13 -->
<g id="node13" class="node"><title>Node13</title>
<polygon fill="none" stroke="#bfbfbf" points="415.5,-0.5 415.5,-19.5 463.5,-19.5 463.5,-0.5 415.5,-0.5"/>
<text text-anchor="middle" x="439.5" y="-7.5" font-family="Helvetica,sans-Serif" font-size="10.00">stdlib.h</text>
</g>
<!-- Node2&#45;&gt;Node13 -->
<g id="edge12" class="edge"><title>Node2&#45;&gt;Node13</title>
<path fill="none" stroke="midnightblue" d="M466.288,-112.399C472.662,-99.7767 482.378,-75.607 475.5,-56 471.715,-45.2094 464.133,-35.084 456.9,-27.1808"/>
<polygon fill="midnightblue" stroke="midnightblue" points="459.167,-24.4943 449.662,-19.8145 454.174,-29.4005 459.167,-24.4943"/>
</g>
<!-- Node14 -->
<g id="node14" class="node"><title>Node14</title>
<polygon fill="none" stroke="#bfbfbf" points="761.5,-56.5 761.5,-75.5 807.5,-75.5 807.5,-56.5 761.5,-56.5"/>
<text text-anchor="middle" x="784.5" y="-63.5" font-family="Helvetica,sans-Serif" font-size="10.00">stdio.h</text>
</g>
<!-- Node2&#45;&gt;Node14 -->
<g id="edge13" class="edge"><title>Node2&#45;&gt;Node14</title>
<path fill="none" stroke="midnightblue" d="M510.23,-115.292C566.254,-108.324 661.108,-95.2885 751.322,-76.0433"/>
<polygon fill="midnightblue" stroke="midnightblue" points="752.129,-79.4498 761.163,-73.9148 750.649,-72.608 752.129,-79.4498"/>
</g>
<!-- Node15 -->
<g id="node15" class="node"><title>Node15</title>
<polygon fill="none" stroke="#bfbfbf" points="825.5,-56.5 825.5,-75.5 873.5,-75.5 873.5,-56.5 825.5,-56.5"/>
<text text-anchor="middle" x="849.5" y="-63.5" font-family="Helvetica,sans-Serif" font-size="10.00">limits.h</text>
</g>
<!-- Node2&#45;&gt;Node15 -->
<g id="edge14" class="edge"><title>Node2&#45;&gt;Node15</title>
<path fill="none" stroke="midnightblue" d="M510.079,-117.016C576.832,-111.064 700.765,-98.3037 815.44,-75.9582"/>
<polygon fill="midnightblue" stroke="midnightblue" points="816.311,-79.3539 825.442,-73.9799 814.953,-72.4869 816.311,-79.3539"/>
</g>
<!-- Node16 -->
<g id="node16" class="node"><title>Node16</title>
<g id="a_node16"><a xlink:href="container_8hpp.html" target="_top" xlink:title="container.hpp">
<polygon fill="none" stroke="black" points="528,-56.5 528,-75.5 603,-75.5 603,-56.5 528,-56.5"/>
<text text-anchor="middle" x="565.5" y="-63.5" font-family="Helvetica,sans-Serif" font-size="10.00">container.hpp</text>
</a>
</g>
</g>
<!-- Node2&#45;&gt;Node16 -->
<g id="edge15" class="edge"><title>Node2&#45;&gt;Node16</title>
<path fill="none" stroke="midnightblue" d="M473.095,-112.324C488.033,-103.585 513.951,-89.9979 534.641,-79.9773"/>
<polygon fill="midnightblue" stroke="midnightblue" points="536.197,-83.1131 543.722,-75.6545 533.188,-76.7927 536.197,-83.1131"/>
</g>
<!-- Node16&#45;&gt;Node2 -->
<g id="edge25" class="edge"><title>Node16&#45;&gt;Node2</title>
<path fill="none" stroke="midnightblue" d="M554.178,-75.5164C539.248,-84.2697 513.049,-98.0073 492.207,-108.096"/>
<polygon fill="midnightblue" stroke="midnightblue" points="490.595,-104.987 483.068,-112.444 493.602,-111.308 490.595,-104.987"/>
</g>
<!-- Node16&#45;&gt;Node10 -->
<g id="edge22" class="edge"><title>Node16&#45;&gt;Node10</title>
<path fill="none" stroke="midnightblue" d="M535.001,-56.4342C504.919,-47.971 457.376,-34.5567 407.234,-20.197"/>
<polygon fill="midnightblue" stroke="midnightblue" points="408.087,-16.8009 397.51,-17.4099 406.159,-23.5299 408.087,-16.8009"/>
</g>
<!-- Node16&#45;&gt;Node13 -->
<g id="edge16" class="edge"><title>Node16&#45;&gt;Node13</title>
<path fill="none" stroke="midnightblue" d="M545.535,-56.4435C524.891,-47.5961 492.437,-33.6875 468.868,-23.5865"/>
<polygon fill="midnightblue" stroke="midnightblue" points="469.942,-20.2387 459.372,-19.5164 467.184,-26.6727 469.942,-20.2387"/>
</g>
<!-- Node17 -->
<g id="node17" class="node"><title>Node17</title>
<polygon fill="none" stroke="#bfbfbf" points="540,-0.5 540,-19.5 591,-19.5 591,-0.5 540,-0.5"/>
<text text-anchor="middle" x="565.5" y="-7.5" font-family="Helvetica,sans-Serif" font-size="10.00">stddef.h</text>
</g>
<!-- Node16&#45;&gt;Node17 -->
<g id="edge17" class="edge"><title>Node16&#45;&gt;Node17</title>
<path fill="none" stroke="midnightblue" d="M565.5,-56.083C565.5,-49.0059 565.5,-38.8611 565.5,-29.9865"/>
<polygon fill="midnightblue" stroke="midnightblue" points="569,-29.751 565.5,-19.7511 562,-29.7511 569,-29.751"/>
</g>
<!-- Node18 -->
<g id="node18" class="node"><title>Node18</title>
<polygon fill="none" stroke="#bfbfbf" points="609,-0.5 609,-19.5 658,-19.5 658,-0.5 609,-0.5"/>
<text text-anchor="middle" x="633.5" y="-7.5" font-family="Helvetica,sans-Serif" font-size="10.00">string.h</text>
</g>
<!-- Node16&#45;&gt;Node18 -->
<g id="edge18" class="edge"><title>Node16&#45;&gt;Node18</title>
<path fill="none" stroke="midnightblue" d="M576.425,-56.324C586.675,-48.1849 602.221,-35.8395 614.501,-26.0874"/>
<polygon fill="midnightblue" stroke="midnightblue" points="616.721,-28.7937 622.376,-19.8339 612.368,-23.3119 616.721,-28.7937"/>
</g>
<!-- Node19 -->
<g id="node19" class="node"><title>Node19</title>
<polygon fill="none" stroke="#bfbfbf" points="676.5,-0.5 676.5,-19.5 728.5,-19.5 728.5,-0.5 676.5,-0.5"/>
<text text-anchor="middle" x="702.5" y="-7.5" font-family="Helvetica,sans-Serif" font-size="10.00">memory</text>
</g>
<!-- Node16&#45;&gt;Node19 -->
<g id="edge19" class="edge"><title>Node16&#45;&gt;Node19</title>
<path fill="none" stroke="midnightblue" d="M587.208,-56.4435C609.855,-47.5171 645.572,-33.4387 671.252,-23.3168"/>
<polygon fill="midnightblue" stroke="midnightblue" points="672.874,-26.4397 680.894,-19.5164 670.307,-19.9273 672.874,-26.4397"/>
</g>
<!-- Node20 -->
<g id="node20" class="node"><title>Node20</title>
<polygon fill="none" stroke="#bfbfbf" points="746.5,-0.5 746.5,-19.5 780.5,-19.5 780.5,-0.5 746.5,-0.5"/>
<text text-anchor="middle" x="763.5" y="-7.5" font-family="Helvetica,sans-Serif" font-size="10.00">new</text>
</g>
<!-- Node16&#45;&gt;Node20 -->
<g id="edge20" class="edge"><title>Node16&#45;&gt;Node20</title>
<path fill="none" stroke="midnightblue" d="M601.302,-56.49C634.204,-48.4803 684.503,-35.7604 736.729,-20.0615"/>
<polygon fill="midnightblue" stroke="midnightblue" points="737.947,-23.3496 746.499,-17.096 735.914,-16.6514 737.947,-23.3496"/>
</g>
<!-- Node21 -->
<g id="node21" class="node"><title>Node21</title>
<polygon fill="none" stroke="#bfbfbf" points="799,-0.5 799,-19.5 846,-19.5 846,-0.5 799,-0.5"/>
<text text-anchor="middle" x="822.5" y="-7.5" font-family="Helvetica,sans-Serif" font-size="10.00">iterator</text>
</g>
<!-- Node16&#45;&gt;Node21 -->
<g id="edge21" class="edge"><title>Node16&#45;&gt;Node21</title>
<path fill="none" stroke="midnightblue" d="M603.367,-57.7166C653.886,-47.948 741.592,-30.7965 789.002,-19.9606"/>
<polygon fill="midnightblue" stroke="midnightblue" points="789.814,-23.3651 798.756,-17.6828 788.222,-16.5485 789.814,-23.3651"/>
</g>
<!-- Node22 -->
<g id="node22" class="node"><title>Node22</title>
<polygon fill="none" stroke="#bfbfbf" points="864.5,-0.5 864.5,-19.5 916.5,-19.5 916.5,-0.5 864.5,-0.5"/>
<text text-anchor="middle" x="890.5" y="-7.5" font-family="Helvetica,sans-Serif" font-size="10.00">assert.h</text>
</g>
<!-- Node16&#45;&gt;Node22 -->
<g id="edge23" class="edge"><title>Node16&#45;&gt;Node22</title>
<path fill="none" stroke="midnightblue" d="M603.185,-57.6391C606.333,-57.0681 609.469,-56.5144 612.5,-56 716.986,-38.2645 746.755,-41.4154 854.246,-20.0787"/>
<polygon fill="midnightblue" stroke="midnightblue" points="855.081,-23.481 864.195,-18.0787 853.701,-16.6183 855.081,-23.481"/>
</g>
<!-- Node23 -->
<g id="node23" class="node"><title>Node23</title>
<polygon fill="none" stroke="#bfbfbf" points="481.5,-0.5 481.5,-19.5 521.5,-19.5 521.5,-0.5 481.5,-0.5"/>
<text text-anchor="middle" x="501.5" y="-7.5" font-family="Helvetica,sans-Serif" font-size="10.00">limits</text>
</g>
<!-- Node16&#45;&gt;Node23 -->
<g id="edge24" class="edge"><title>Node16&#45;&gt;Node23</title>
<path fill="none" stroke="midnightblue" d="M555.217,-56.324C545.664,-48.2631 531.22,-36.0765 519.716,-26.3695"/>
<polygon fill="midnightblue" stroke="midnightblue" points="521.87,-23.6076 511.97,-19.8339 517.356,-28.9577 521.87,-23.6076"/>
</g>
</g>
</svg>
