<?xml version="1.0" encoding="UTF-8" standalone="no"?>
<!DOCTYPE svg PUBLIC "-//W3C//DTD SVG 1.1//EN"
 "http://www.w3.org/Graphics/SVG/1.1/DTD/svg11.dtd">
<!-- Generated by graphviz version 2.38.0 (20140413.2041)
 -->
<!-- Title: INMOST.lib/Source/Headers/inmost_autodiff.h Pages: 1 -->
<svg width="1082pt" height="431pt"
 viewBox="0.00 0.00 1081.50 431.00" xmlns="http://www.w3.org/2000/svg" xmlns:xlink="http://www.w3.org/1999/xlink">
<g id="graph0" class="graph" transform="scale(1 1) rotate(0) translate(4 427)">
<title>INMOST.lib/Source/Headers/inmost_autodiff.h</title>
<!-- Node1 -->
<g id="node1" class="node"><title>Node1</title>
<polygon fill="#bfbfbf" stroke="black" points="738,-392.5 738,-422.5 877,-422.5 877,-392.5 738,-392.5"/>
<text text-anchor="start" x="746" y="-410.5" font-family="Helvetica,sans-Serif" font-size="10.00">INMOST.lib/Source/Headers</text>
<text text-anchor="middle" x="807.5" y="-399.5" font-family="Helvetica,sans-Serif" font-size="10.00">/inmost_autodiff.h</text>
</g>
<!-- Node2 -->
<g id="node2" class="node"><title>Node2</title>
<g id="a_node2"><a xlink:href="inmost__common_8h.html" target="_top" xlink:title="inmost_common.h">
<polygon fill="none" stroke="black" points="538,-112.5 538,-131.5 635,-131.5 635,-112.5 538,-112.5"/>
<text text-anchor="middle" x="586.5" y="-119.5" font-family="Helvetica,sans-Serif" font-size="10.00">inmost_common.h</text>
</a>
</g>
</g>
<!-- Node1&#45;&gt;Node2 -->
<g id="edge1" class="edge"><title>Node1&#45;&gt;Node2</title>
<path fill="none" stroke="midnightblue" d="M737.76,-401.975C666.899,-393.145 567.5,-367.181 567.5,-291 567.5,-291 567.5,-291 567.5,-233 567.5,-200.489 575.659,-163.35 581.284,-141.61"/>
<polygon fill="midnightblue" stroke="midnightblue" points="584.718,-142.317 583.938,-131.751 577.959,-140.498 584.718,-142.317"/>
</g>
<!-- Node24 -->
<g id="node24" class="node"><title>Node24</title>
<g id="a_node24"><a xlink:href="inmost__mesh_8h.html" target="_top" xlink:title="inmost_mesh.h">
<polygon fill="none" stroke="black" points="658,-336.5 658,-355.5 741,-355.5 741,-336.5 658,-336.5"/>
<text text-anchor="middle" x="699.5" y="-343.5" font-family="Helvetica,sans-Serif" font-size="10.00">inmost_mesh.h</text>
</a>
</g>
</g>
<!-- Node1&#45;&gt;Node24 -->
<g id="edge26" class="edge"><title>Node1&#45;&gt;Node24</title>
<path fill="none" stroke="midnightblue" d="M781.906,-392.399C764.432,-382.773 741.412,-370.09 724.144,-360.577"/>
<polygon fill="midnightblue" stroke="midnightblue" points="725.663,-357.418 715.215,-355.658 722.285,-363.549 725.663,-357.418"/>
</g>
<!-- Node28 -->
<g id="node28" class="node"><title>Node28</title>
<polygon fill="none" stroke="#bfbfbf" points="757.5,-168.5 757.5,-187.5 809.5,-187.5 809.5,-168.5 757.5,-168.5"/>
<text text-anchor="middle" x="783.5" y="-175.5" font-family="Helvetica,sans-Serif" font-size="10.00">sstream</text>
</g>
<!-- Node1&#45;&gt;Node28 -->
<g id="edge39" class="edge"><title>Node1&#45;&gt;Node28</title>
<path fill="none" stroke="midnightblue" d="M805.999,-392.269C801.845,-352.895 790.197,-242.487 785.501,-197.965"/>
<polygon fill="midnightblue" stroke="midnightblue" points="788.972,-197.505 784.442,-187.927 782.01,-198.239 788.972,-197.505"/>
</g>
<!-- Node29 -->
<g id="node29" class="node"><title>Node29</title>
<g id="a_node29"><a xlink:href="inmost__solver_8h.html" target="_top" xlink:title="inmost_solver.h">
<polygon fill="none" stroke="black" points="835.5,-224.5 835.5,-243.5 919.5,-243.5 919.5,-224.5 835.5,-224.5"/>
<text text-anchor="middle" x="877.5" y="-231.5" font-family="Helvetica,sans-Serif" font-size="10.00">inmost_solver.h</text>
</a>
</g>
</g>
<!-- Node1&#45;&gt;Node29 -->
<g id="edge36" class="edge"><title>Node1&#45;&gt;Node29</title>
<path fill="none" stroke="midnightblue" d="M813.228,-392.465C825.839,-361.57 855.994,-287.69 870.051,-253.251"/>
<polygon fill="midnightblue" stroke="midnightblue" points="873.468,-254.141 874.006,-243.56 866.987,-251.496 873.468,-254.141"/>
</g>
<!-- Node30 -->
<g id="node30" class="node"><title>Node30</title>
<polygon fill="none" stroke="#bfbfbf" points="874,-336.5 874,-355.5 921,-355.5 921,-336.5 874,-336.5"/>
<text text-anchor="middle" x="897.5" y="-343.5" font-family="Helvetica,sans-Serif" font-size="10.00">math.h</text>
</g>
<!-- Node1&#45;&gt;Node30 -->
<g id="edge40" class="edge"><title>Node1&#45;&gt;Node30</title>
<path fill="none" stroke="midnightblue" d="M828.829,-392.399C842.985,-383.04 861.511,-370.792 875.753,-361.377"/>
<polygon fill="midnightblue" stroke="midnightblue" points="877.993,-364.092 884.404,-355.658 874.132,-358.253 877.993,-364.092"/>
</g>
<!-- Node3 -->
<g id="node3" class="node"><title>Node3</title>
<polygon fill="none" stroke="#bfbfbf" points="0,-56.5 0,-75.5 91,-75.5 91,-56.5 0,-56.5"/>
<text text-anchor="middle" x="45.5" y="-63.5" font-family="Helvetica,sans-Serif" font-size="10.00">inmost_options.h</text>
</g>
<!-- Node2&#45;&gt;Node3 -->
<g id="edge2" class="edge"><title>Node2&#45;&gt;Node3</title>
<path fill="none" stroke="midnightblue" d="M537.985,-117.696C452.056,-111.588 267.275,-97.2986 101.516,-76.181"/>
<polygon fill="midnightblue" stroke="midnightblue" points="101.495,-72.6496 91.1304,-74.8456 100.602,-79.5924 101.495,-72.6496"/>
</g>
<!-- Node4 -->
<g id="node4" class="node"><title>Node4</title>
<polygon fill="none" stroke="#bfbfbf" points="109,-56.5 109,-75.5 150,-75.5 150,-56.5 109,-56.5"/>
<text text-anchor="middle" x="129.5" y="-63.5" font-family="Helvetica,sans-Serif" font-size="10.00">string</text>
</g>
<!-- Node2&#45;&gt;Node4 -->
<g id="edge3" class="edge"><title>Node2&#45;&gt;Node4</title>
<path fill="none" stroke="midnightblue" d="M537.707,-118.82C459.798,-114.694 302.483,-103.725 160.243,-75.7523"/>
<polygon fill="midnightblue" stroke="midnightblue" points="160.521,-72.2387 150.029,-73.7088 159.148,-79.1027 160.521,-72.2387"/>
</g>
<!-- Node5 -->
<g id="node5" class="node"><title>Node5</title>
<polygon fill="none" stroke="#bfbfbf" points="168.5,-56.5 168.5,-75.5 210.5,-75.5 210.5,-56.5 168.5,-56.5"/>
<text text-anchor="middle" x="189.5" y="-63.5" font-family="Helvetica,sans-Serif" font-size="10.00">vector</text>
</g>
<!-- Node2&#45;&gt;Node5 -->
<g id="edge4" class="edge"><title>Node2&#45;&gt;Node5</title>
<path fill="none" stroke="midnightblue" d="M537.98,-117.682C469.263,-112.408 339.61,-100.336 220.693,-75.9295"/>
<polygon fill="midnightblue" stroke="midnightblue" points="221.195,-72.4589 210.691,-73.8418 219.765,-79.3113 221.195,-72.4589"/>
</g>
<!-- Node6 -->
<g id="node6" class="node"><title>Node6</title>
<polygon fill="none" stroke="#bfbfbf" points="228.5,-56.5 228.5,-75.5 258.5,-75.5 258.5,-56.5 228.5,-56.5"/>
<text text-anchor="middle" x="243.5" y="-63.5" font-family="Helvetica,sans-Serif" font-size="10.00">set</text>
</g>
<!-- Node2&#45;&gt;Node6 -->
<g id="edge5" class="edge"><title>Node2&#45;&gt;Node6</title>
<path fill="none" stroke="midnightblue" d="M537.762,-117.456C476.667,-112.283 368.773,-100.733 268.559,-75.763"/>
<polygon fill="midnightblue" stroke="midnightblue" points="269.129,-72.2968 258.575,-73.2237 267.404,-79.0808 269.129,-72.2968"/>
</g>
<!-- Node7 -->
<g id="node7" class="node"><title>Node7</title>
<polygon fill="none" stroke="#bfbfbf" points="277,-56.5 277,-75.5 312,-75.5 312,-56.5 277,-56.5"/>
<text text-anchor="middle" x="294.5" y="-63.5" font-family="Helvetica,sans-Serif" font-size="10.00">map</text>
</g>
<!-- Node2&#45;&gt;Node7 -->
<g id="edge6" class="edge"><title>Node2&#45;&gt;Node7</title>
<path fill="none" stroke="midnightblue" d="M537.943,-115.244C486.328,-108.58 402.259,-96.1691 321.794,-75.9981"/>
<polygon fill="midnightblue" stroke="midnightblue" points="322.557,-72.5806 312.002,-73.4996 320.826,-79.3633 322.557,-72.5806"/>
</g>
<!-- Node8 -->
<g id="node8" class="node"><title>Node8</title>
<polygon fill="none" stroke="#bfbfbf" points="330,-56.5 330,-75.5 359,-75.5 359,-56.5 330,-56.5"/>
<text text-anchor="middle" x="344.5" y="-63.5" font-family="Helvetica,sans-Serif" font-size="10.00">list</text>
</g>
<!-- Node2&#45;&gt;Node8 -->
<g id="edge7" class="edge"><title>Node2&#45;&gt;Node8</title>
<path fill="none" stroke="midnightblue" d="M537.918,-113.201C495.563,-105.902 432.402,-93.8203 368.884,-75.7218"/>
<polygon fill="midnightblue" stroke="midnightblue" points="369.681,-72.3089 359.102,-72.8869 367.732,-79.0322 369.681,-72.3089"/>
</g>
<!-- Node9 -->
<g id="node9" class="node"><title>Node9</title>
<polygon fill="none" stroke="#bfbfbf" points="377.5,-56.5 377.5,-75.5 433.5,-75.5 433.5,-56.5 377.5,-56.5"/>
<text text-anchor="middle" x="405.5" y="-63.5" font-family="Helvetica,sans-Serif" font-size="10.00">algorithm</text>
</g>
<!-- Node2&#45;&gt;Node9 -->
<g id="edge8" class="edge"><title>Node2&#45;&gt;Node9</title>
<path fill="none" stroke="midnightblue" d="M557.82,-112.444C526.882,-103.214 477.482,-88.4753 443.37,-78.2983"/>
<polygon fill="midnightblue" stroke="midnightblue" points="444.331,-74.9326 433.748,-75.4275 442.33,-81.6404 444.331,-74.9326"/>
</g>
<!-- Node10 -->
<g id="node10" class="node"><title>Node10</title>
<polygon fill="none" stroke="#bfbfbf" points="492.5,-0.5 492.5,-19.5 536.5,-19.5 536.5,-0.5 492.5,-0.5"/>
<text text-anchor="middle" x="514.5" y="-7.5" font-family="Helvetica,sans-Serif" font-size="10.00">cmath</text>
</g>
<!-- Node2&#45;&gt;Node10 -->
<g id="edge9" class="edge"><title>Node2&#45;&gt;Node10</title>
<path fill="none" stroke="midnightblue" d="M537.828,-112.778C516.462,-106.487 493.355,-95.4225 480.5,-76 469.924,-60.0203 483.526,-40.3697 496.538,-26.8839"/>
<polygon fill="midnightblue" stroke="midnightblue" points="499.183,-29.1954 503.944,-19.7305 494.32,-24.1606 499.183,-29.1954"/>
</g>
<!-- Node11 -->
<g id="node11" class="node"><title>Node11</title>
<polygon fill="none" stroke="#bfbfbf" points="489.5,-56.5 489.5,-75.5 543.5,-75.5 543.5,-56.5 489.5,-56.5"/>
<text text-anchor="middle" x="516.5" y="-63.5" font-family="Helvetica,sans-Serif" font-size="10.00">iostream</text>
</g>
<!-- Node2&#45;&gt;Node11 -->
<g id="edge10" class="edge"><title>Node2&#45;&gt;Node11</title>
<path fill="none" stroke="midnightblue" d="M575.253,-112.324C564.703,-104.185 548.699,-91.8395 536.058,-82.0874"/>
<polygon fill="midnightblue" stroke="midnightblue" points="538.007,-79.1707 527.951,-75.8339 533.731,-84.7132 538.007,-79.1707"/>
</g>
<!-- Node12 -->
<g id="node12" class="node"><title>Node12</title>
<polygon fill="none" stroke="#bfbfbf" points="562,-56.5 562,-75.5 611,-75.5 611,-56.5 562,-56.5"/>
<text text-anchor="middle" x="586.5" y="-63.5" font-family="Helvetica,sans-Serif" font-size="10.00">fstream</text>
</g>
<!-- Node2&#45;&gt;Node12 -->
<g id="edge11" class="edge"><title>Node2&#45;&gt;Node12</title>
<path fill="none" stroke="midnightblue" d="M586.5,-112.083C586.5,-105.006 586.5,-94.8611 586.5,-85.9865"/>
<polygon fill="midnightblue" stroke="midnightblue" points="590,-85.751 586.5,-75.7511 583,-85.7511 590,-85.751"/>
</g>
<!-- Node13 -->
<g id="node13" class="node"><title>Node13</title>
<polygon fill="none" stroke="#bfbfbf" points="572.5,-0.5 572.5,-19.5 620.5,-19.5 620.5,-0.5 572.5,-0.5"/>
<text text-anchor="middle" x="596.5" y="-7.5" font-family="Helvetica,sans-Serif" font-size="10.00">stdlib.h</text>
</g>
<!-- Node2&#45;&gt;Node13 -->
<g id="edge12" class="edge"><title>Node2&#45;&gt;Node13</title>
<path fill="none" stroke="midnightblue" d="M595.52,-112.34C603.572,-103.932 614.798,-90.3633 619.5,-76 624.834,-59.7053 616.999,-41.2964 609.062,-28.2401"/>
<polygon fill="midnightblue" stroke="midnightblue" points="611.897,-26.1824 603.451,-19.786 606.064,-30.0534 611.897,-26.1824"/>
</g>
<!-- Node14 -->
<g id="node14" class="node"><title>Node14</title>
<polygon fill="none" stroke="#bfbfbf" points="667.5,-56.5 667.5,-75.5 713.5,-75.5 713.5,-56.5 667.5,-56.5"/>
<text text-anchor="middle" x="690.5" y="-63.5" font-family="Helvetica,sans-Serif" font-size="10.00">stdio.h</text>
</g>
<!-- Node2&#45;&gt;Node14 -->
<g id="edge13" class="edge"><title>Node2&#45;&gt;Node14</title>
<path fill="none" stroke="midnightblue" d="M603.209,-112.324C619.812,-103.703 645.502,-90.3643 664.72,-80.3855"/>
<polygon fill="midnightblue" stroke="midnightblue" points="666.57,-83.3689 673.832,-75.6545 663.344,-77.1565 666.57,-83.3689"/>
</g>
<!-- Node15 -->
<g id="node15" class="node"><title>Node15</title>
<polygon fill="none" stroke="#bfbfbf" points="731.5,-56.5 731.5,-75.5 779.5,-75.5 779.5,-56.5 731.5,-56.5"/>
<text text-anchor="middle" x="755.5" y="-63.5" font-family="Helvetica,sans-Serif" font-size="10.00">limits.h</text>
</g>
<!-- Node2&#45;&gt;Node15 -->
<g id="edge14" class="edge"><title>Node2&#45;&gt;Node15</title>
<path fill="none" stroke="midnightblue" d="M613.279,-112.444C642.589,-103.078 689.648,-88.0415 721.533,-77.8532"/>
<polygon fill="midnightblue" stroke="midnightblue" points="722.851,-81.1067 731.311,-74.729 720.72,-74.4388 722.851,-81.1067"/>
</g>
<!-- Node16 -->
<g id="node16" class="node"><title>Node16</title>
<g id="a_node16"><a xlink:href="container_8hpp.html" target="_top" xlink:title="container.hpp">
<polygon fill="none" stroke="black" points="798,-56.5 798,-75.5 873,-75.5 873,-56.5 798,-56.5"/>
<text text-anchor="middle" x="835.5" y="-63.5" font-family="Helvetica,sans-Serif" font-size="10.00">container.hpp</text>
</a>
</g>
</g>
<!-- Node2&#45;&gt;Node16 -->
<g id="edge15" class="edge"><title>Node2&#45;&gt;Node16</title>
<path fill="none" stroke="midnightblue" d="M620.866,-112.444C664.275,-102.559 738.933,-86.3585 787.82,-76.2068"/>
<polygon fill="midnightblue" stroke="midnightblue" points="788.755,-79.5876 797.84,-74.1368 787.339,-72.7324 788.755,-79.5876"/>
</g>
<!-- Node16&#45;&gt;Node2 -->
<g id="edge25" class="edge"><title>Node16&#45;&gt;Node2</title>
<path fill="none" stroke="midnightblue" d="M801.31,-75.5164C759.933,-84.94 689.982,-100.141 641.13,-110.346"/>
<polygon fill="midnightblue" stroke="midnightblue" points="640.121,-106.98 631.044,-112.444 641.547,-113.834 640.121,-106.98"/>
</g>
<!-- Node16&#45;&gt;Node10 -->
<g id="edge22" class="edge"><title>Node16&#45;&gt;Node10</title>
<path fill="none" stroke="midnightblue" d="M797.809,-57.6776C794.662,-57.0981 791.528,-56.532 788.5,-56 688.756,-38.4747 663.309,-37.1486 563.5,-20 558.202,-19.0897 552.587,-18.0908 547.123,-17.1001"/>
<polygon fill="midnightblue" stroke="midnightblue" points="547.39,-13.5908 536.923,-15.2304 546.128,-20.4761 547.39,-13.5908"/>
</g>
<!-- Node16&#45;&gt;Node13 -->
<g id="edge16" class="edge"><title>Node16&#45;&gt;Node13</title>
<path fill="none" stroke="midnightblue" d="M797.776,-57.3639C758.387,-49.257 694.597,-35.7534 630.486,-20.1488"/>
<polygon fill="midnightblue" stroke="midnightblue" points="631.159,-16.7102 620.614,-17.7294 629.493,-23.509 631.159,-16.7102"/>
</g>
<!-- Node17 -->
<g id="node17" class="node"><title>Node17</title>
<polygon fill="none" stroke="#bfbfbf" points="639,-0.5 639,-19.5 690,-19.5 690,-0.5 639,-0.5"/>
<text text-anchor="middle" x="664.5" y="-7.5" font-family="Helvetica,sans-Serif" font-size="10.00">stddef.h</text>
</g>
<!-- Node16&#45;&gt;Node17 -->
<g id="edge17" class="edge"><title>Node16&#45;&gt;Node17</title>
<path fill="none" stroke="midnightblue" d="M808.405,-56.4435C779.087,-47.1854 732.221,-32.3854 699.984,-22.2054"/>
<polygon fill="midnightblue" stroke="midnightblue" points="700.662,-18.7493 690.072,-19.0755 698.554,-25.4244 700.662,-18.7493"/>
</g>
<!-- Node18 -->
<g id="node18" class="node"><title>Node18</title>
<polygon fill="none" stroke="#bfbfbf" points="708,-0.5 708,-19.5 757,-19.5 757,-0.5 708,-0.5"/>
<text text-anchor="middle" x="732.5" y="-7.5" font-family="Helvetica,sans-Serif" font-size="10.00">string.h</text>
</g>
<!-- Node16&#45;&gt;Node18 -->
<g id="edge18" class="edge"><title>Node16&#45;&gt;Node18</title>
<path fill="none" stroke="midnightblue" d="M818.951,-56.324C802.508,-47.7034 777.065,-34.3643 758.032,-24.3855"/>
<polygon fill="midnightblue" stroke="midnightblue" points="759.489,-21.198 749.008,-19.6545 756.239,-27.3977 759.489,-21.198"/>
</g>
<!-- Node19 -->
<g id="node19" class="node"><title>Node19</title>
<polygon fill="none" stroke="#bfbfbf" points="775.5,-0.5 775.5,-19.5 827.5,-19.5 827.5,-0.5 775.5,-0.5"/>
<text text-anchor="middle" x="801.5" y="-7.5" font-family="Helvetica,sans-Serif" font-size="10.00">memory</text>
</g>
<!-- Node16&#45;&gt;Node19 -->
<g id="edge19" class="edge"><title>Node16&#45;&gt;Node19</title>
<path fill="none" stroke="midnightblue" d="M829.886,-56.083C825.133,-48.5341 818.182,-37.4948 812.348,-28.2298"/>
<polygon fill="midnightblue" stroke="midnightblue" points="815.3,-26.3486 807.01,-19.7511 809.376,-30.0783 815.3,-26.3486"/>
</g>
<!-- Node20 -->
<g id="node20" class="node"><title>Node20</title>
<polygon fill="none" stroke="#bfbfbf" points="1039.5,-0.5 1039.5,-19.5 1073.5,-19.5 1073.5,-0.5 1039.5,-0.5"/>
<text text-anchor="middle" x="1056.5" y="-7.5" font-family="Helvetica,sans-Serif" font-size="10.00">new</text>
</g>
<!-- Node16&#45;&gt;Node20 -->
<g id="edge20" class="edge"><title>Node16&#45;&gt;Node20</title>
<path fill="none" stroke="midnightblue" d="M873.187,-57.546C910.604,-49.8714 969.754,-37.0046 1029.3,-20.1191"/>
<polygon fill="midnightblue" stroke="midnightblue" points="1030.6,-23.3874 1039.24,-17.2619 1028.66,-16.6596 1030.6,-23.3874"/>
</g>
<!-- Node21 -->
<g id="node21" class="node"><title>Node21</title>
<polygon fill="none" stroke="#bfbfbf" points="846,-0.5 846,-19.5 893,-19.5 893,-0.5 846,-0.5"/>
<text text-anchor="middle" x="869.5" y="-7.5" font-family="Helvetica,sans-Serif" font-size="10.00">iterator</text>
</g>
<!-- Node16&#45;&gt;Node21 -->
<g id="edge21" class="edge"><title>Node16&#45;&gt;Node21</title>
<path fill="none" stroke="midnightblue" d="M841.114,-56.083C845.867,-48.5341 852.818,-37.4948 858.652,-28.2298"/>
<polygon fill="midnightblue" stroke="midnightblue" points="861.624,-30.0783 863.99,-19.7511 855.7,-26.3486 861.624,-30.0783"/>
</g>
<!-- Node22 -->
<g id="node22" class="node"><title>Node22</title>
<polygon fill="none" stroke="#bfbfbf" points="911.5,-0.5 911.5,-19.5 963.5,-19.5 963.5,-0.5 911.5,-0.5"/>
<text text-anchor="middle" x="937.5" y="-7.5" font-family="Helvetica,sans-Serif" font-size="10.00">assert.h</text>
</g>
<!-- Node16&#45;&gt;Node22 -->
<g id="edge23" class="edge"><title>Node16&#45;&gt;Node22</title>
<path fill="none" stroke="midnightblue" d="M851.888,-56.324C868.171,-47.7034 893.367,-34.3643 912.216,-24.3855"/>
<polygon fill="midnightblue" stroke="midnightblue" points="913.952,-27.4267 921.153,-19.6545 910.677,-21.2402 913.952,-27.4267"/>
</g>
<!-- Node23 -->
<g id="node23" class="node"><title>Node23</title>
<polygon fill="none" stroke="#bfbfbf" points="981.5,-0.5 981.5,-19.5 1021.5,-19.5 1021.5,-0.5 981.5,-0.5"/>
<text text-anchor="middle" x="1001.5" y="-7.5" font-family="Helvetica,sans-Serif" font-size="10.00">limits</text>
</g>
<!-- Node16&#45;&gt;Node23 -->
<g id="edge24" class="edge"><title>Node16&#45;&gt;Node23</title>
<path fill="none" stroke="midnightblue" d="M861.803,-56.4435C891.536,-46.7713 939.864,-31.0503 971.165,-20.8679"/>
<polygon fill="midnightblue" stroke="midnightblue" points="972.649,-24.0657 981.076,-17.6439 970.484,-17.4091 972.649,-24.0657"/>
</g>
<!-- Node24&#45;&gt;Node2 -->
<g id="edge27" class="edge"><title>Node24&#45;&gt;Node2</title>
<path fill="none" stroke="midnightblue" d="M687.337,-336.247C676.608,-327.973 661.211,-314.668 651.5,-300 617.08,-248.01 597.897,-175.402 590.331,-141.637"/>
<polygon fill="midnightblue" stroke="midnightblue" points="593.731,-140.8 588.205,-131.761 586.888,-142.273 593.731,-140.8"/>
</g>
<!-- Node25 -->
<g id="node25" class="node"><title>Node25</title>
<g id="a_node25"><a xlink:href="inmost__data_8h.html" target="_top" xlink:title="inmost_data.h">
<polygon fill="none" stroke="black" points="660.5,-280.5 660.5,-299.5 738.5,-299.5 738.5,-280.5 660.5,-280.5"/>
<text text-anchor="middle" x="699.5" y="-287.5" font-family="Helvetica,sans-Serif" font-size="10.00">inmost_data.h</text>
</a>
</g>
</g>
<!-- Node24&#45;&gt;Node25 -->
<g id="edge28" class="edge"><title>Node24&#45;&gt;Node25</title>
<path fill="none" stroke="midnightblue" d="M699.5,-336.083C699.5,-329.006 699.5,-318.861 699.5,-309.986"/>
<polygon fill="midnightblue" stroke="midnightblue" points="703,-309.751 699.5,-299.751 696,-309.751 703,-309.751"/>
</g>
<!-- Node25&#45;&gt;Node2 -->
<g id="edge29" class="edge"><title>Node25&#45;&gt;Node2</title>
<path fill="none" stroke="midnightblue" d="M691.656,-280.391C683.821,-271.585 671.658,-257.342 662.5,-244 640.538,-212.002 640.567,-200.594 619.5,-168 613.321,-158.44 605.862,-148.176 599.6,-139.868"/>
<polygon fill="midnightblue" stroke="midnightblue" points="602.245,-137.565 593.392,-131.746 596.684,-141.817 602.245,-137.565"/>
</g>
<!-- Node26 -->
<g id="node26" class="node"><title>Node26</title>
<g id="a_node26"><a xlink:href="inmost__expression_8h.html" target="_top" xlink:title="inmost_expression.h">
<polygon fill="none" stroke="black" points="672,-224.5 672,-243.5 779,-243.5 779,-224.5 672,-224.5"/>
<text text-anchor="middle" x="725.5" y="-231.5" font-family="Helvetica,sans-Serif" font-size="10.00">inmost_expression.h</text>
</a>
</g>
</g>
<!-- Node25&#45;&gt;Node26 -->
<g id="edge30" class="edge"><title>Node25&#45;&gt;Node26</title>
<path fill="none" stroke="midnightblue" d="M703.793,-280.083C707.352,-272.691 712.522,-261.953 716.924,-252.811"/>
<polygon fill="midnightblue" stroke="midnightblue" points="720.102,-254.279 721.287,-243.751 713.795,-251.243 720.102,-254.279"/>
</g>
<!-- Node26&#45;&gt;Node2 -->
<g id="edge31" class="edge"><title>Node26&#45;&gt;Node2</title>
<path fill="none" stroke="midnightblue" d="M717.607,-224.437C705.403,-211.441 680.91,-186.315 657.5,-168 642.697,-156.419 624.819,-145.101 610.706,-136.713"/>
<polygon fill="midnightblue" stroke="midnightblue" points="612.445,-133.676 602.046,-131.65 608.912,-139.719 612.445,-133.676"/>
</g>
<!-- Node26&#45;&gt;Node20 -->
<g id="edge35" class="edge"><title>Node26&#45;&gt;Node20</title>
<path fill="none" stroke="midnightblue" d="M726.489,-224.398C728.451,-210.896 733.981,-184.563 748.5,-168 789.142,-121.637 962.929,-48.5695 1029.97,-21.5228"/>
<polygon fill="midnightblue" stroke="midnightblue" points="1031.44,-24.7037 1039.42,-17.7312 1028.84,-18.2072 1031.44,-24.7037"/>
</g>
<!-- Node27 -->
<g id="node27" class="node"><title>Node27</title>
<g id="a_node27"><a xlink:href="inmost__sparse_8h.html" target="_top" xlink:title="inmost_sparse.h">
<polygon fill="none" stroke="black" points="828,-168.5 828,-187.5 917,-187.5 917,-168.5 828,-168.5"/>
<text text-anchor="middle" x="872.5" y="-175.5" font-family="Helvetica,sans-Serif" font-size="10.00">inmost_sparse.h</text>
</a>
</g>
</g>
<!-- Node26&#45;&gt;Node27 -->
<g id="edge32" class="edge"><title>Node26&#45;&gt;Node27</title>
<path fill="none" stroke="midnightblue" d="M748.793,-224.444C773.307,-215.438 812.096,-201.189 839.7,-191.049"/>
<polygon fill="midnightblue" stroke="midnightblue" points="841.137,-194.25 849.316,-187.516 838.723,-187.679 841.137,-194.25"/>
</g>
<!-- Node26&#45;&gt;Node28 -->
<g id="edge34" class="edge"><title>Node26&#45;&gt;Node28</title>
<path fill="none" stroke="midnightblue" d="M734.819,-224.324C743.393,-216.341 756.312,-204.313 766.688,-194.653"/>
<polygon fill="midnightblue" stroke="midnightblue" points="769.078,-197.21 774.012,-187.834 764.308,-192.086 769.078,-197.21"/>
</g>
<!-- Node27&#45;&gt;Node2 -->
<g id="edge33" class="edge"><title>Node27&#45;&gt;Node2</title>
<path fill="none" stroke="midnightblue" d="M827.813,-168.563C777.631,-159.088 696.144,-143.702 641.942,-133.468"/>
<polygon fill="midnightblue" stroke="midnightblue" points="642.293,-129.973 631.818,-131.556 640.995,-136.851 642.293,-129.973"/>
</g>
<!-- Node29&#45;&gt;Node2 -->
<g id="edge37" class="edge"><title>Node29&#45;&gt;Node2</title>
<path fill="none" stroke="midnightblue" d="M891.754,-224.45C911.309,-211.684 942.231,-187.099 925.5,-168 907.353,-147.285 737.431,-132.959 645.275,-126.642"/>
<polygon fill="midnightblue" stroke="midnightblue" points="645.464,-123.147 635.251,-125.966 644.992,-130.131 645.464,-123.147"/>
</g>
<!-- Node29&#45;&gt;Node27 -->
<g id="edge38" class="edge"><title>Node29&#45;&gt;Node27</title>
<path fill="none" stroke="midnightblue" d="M876.674,-224.083C876.019,-217.006 875.08,-206.861 874.258,-197.986"/>
<polygon fill="midnightblue" stroke="midnightblue" points="877.717,-197.386 873.31,-187.751 870.747,-198.031 877.717,-197.386"/>
</g>
</g>
</svg>
