<?xml version="1.0" encoding="UTF-8" standalone="no"?>
<!DOCTYPE svg PUBLIC "-//W3C//DTD SVG 1.1//EN"
 "http://www.w3.org/Graphics/SVG/1.1/DTD/svg11.dtd">
<!-- Generated by graphviz version 2.38.0 (20140413.2041)
 -->
<!-- Title: INMOST.lib/Source/Headers/inmost_expression.h Pages: 1 -->
<svg width="990pt" height="263pt"
 viewBox="0.00 0.00 990.00 263.00" xmlns="http://www.w3.org/2000/svg" xmlns:xlink="http://www.w3.org/1999/xlink">
<g id="graph0" class="graph" transform="scale(1 1) rotate(0) translate(4 259)">
<title>INMOST.lib/Source/Headers/inmost_expression.h</title>
<!-- Node1 -->
<g id="node1" class="node"><title>Node1</title>
<polygon fill="#bfbfbf" stroke="black" points="753.5,-224.5 753.5,-254.5 892.5,-254.5 892.5,-224.5 753.5,-224.5"/>
<text text-anchor="start" x="761.5" y="-242.5" font-family="Helvetica,sans-Serif" font-size="10.00">INMOST.lib/Source/Headers</text>
<text text-anchor="middle" x="823" y="-231.5" font-family="Helvetica,sans-Serif" font-size="10.00">/inmost_expression.h</text>
</g>
<!-- Node2 -->
<g id="node2" class="node"><title>Node2</title>
<g id="a_node2"><a xlink:href="inmost__common_8h.html" target="_top" xlink:title="inmost_common.h">
<polygon fill="none" stroke="black" points="371.5,-112.5 371.5,-131.5 468.5,-131.5 468.5,-112.5 371.5,-112.5"/>
<text text-anchor="middle" x="420" y="-119.5" font-family="Helvetica,sans-Serif" font-size="10.00">inmost_common.h</text>
</a>
</g>
</g>
<!-- Node1&#45;&gt;Node2 -->
<g id="edge1" class="edge"><title>Node1&#45;&gt;Node2</title>
<path fill="none" stroke="midnightblue" d="M773.987,-224.453C693.249,-201.313 533.852,-155.63 459.688,-134.375"/>
<polygon fill="midnightblue" stroke="midnightblue" points="460.383,-130.933 449.806,-131.542 458.454,-137.662 460.383,-130.933"/>
</g>
<!-- Node20 -->
<g id="node20" class="node"><title>Node20</title>
<polygon fill="none" stroke="#bfbfbf" points="782,-0.5 782,-19.5 816,-19.5 816,-0.5 782,-0.5"/>
<text text-anchor="middle" x="799" y="-7.5" font-family="Helvetica,sans-Serif" font-size="10.00">new</text>
</g>
<!-- Node1&#45;&gt;Node20 -->
<g id="edge29" class="edge"><title>Node1&#45;&gt;Node20</title>
<path fill="none" stroke="midnightblue" d="M835.276,-224.338C861.37,-192.428 917.266,-113.231 883,-56 870.697,-35.4514 845.447,-23.7528 825.827,-17.4661"/>
<polygon fill="midnightblue" stroke="midnightblue" points="826.758,-14.092 816.179,-14.6536 824.799,-20.8123 826.758,-14.092"/>
</g>
<!-- Node24 -->
<g id="node24" class="node"><title>Node24</title>
<g id="a_node24"><a xlink:href="inmost__sparse_8h.html" target="_top" xlink:title="inmost_sparse.h">
<polygon fill="none" stroke="black" points="700.5,-168.5 700.5,-187.5 789.5,-187.5 789.5,-168.5 700.5,-168.5"/>
<text text-anchor="middle" x="745" y="-175.5" font-family="Helvetica,sans-Serif" font-size="10.00">inmost_sparse.h</text>
</a>
</g>
</g>
<!-- Node1&#45;&gt;Node24 -->
<g id="edge26" class="edge"><title>Node1&#45;&gt;Node24</title>
<path fill="none" stroke="midnightblue" d="M804.515,-224.399C792.48,-215.218 776.8,-203.258 764.557,-193.918"/>
<polygon fill="midnightblue" stroke="midnightblue" points="766.423,-190.94 756.35,-187.658 762.178,-196.506 766.423,-190.94"/>
</g>
<!-- Node25 -->
<g id="node25" class="node"><title>Node25</title>
<polygon fill="none" stroke="#bfbfbf" points="930,-168.5 930,-187.5 982,-187.5 982,-168.5 930,-168.5"/>
<text text-anchor="middle" x="956" y="-175.5" font-family="Helvetica,sans-Serif" font-size="10.00">sstream</text>
</g>
<!-- Node1&#45;&gt;Node25 -->
<g id="edge28" class="edge"><title>Node1&#45;&gt;Node25</title>
<path fill="none" stroke="midnightblue" d="M854.519,-224.399C876.635,-214.505 905.967,-201.383 927.406,-191.792"/>
<polygon fill="midnightblue" stroke="midnightblue" points="928.948,-194.936 936.647,-187.658 926.09,-188.547 928.948,-194.936"/>
</g>
<!-- Node3 -->
<g id="node3" class="node"><title>Node3</title>
<polygon fill="none" stroke="#bfbfbf" points="663.5,-56.5 663.5,-75.5 754.5,-75.5 754.5,-56.5 663.5,-56.5"/>
<text text-anchor="middle" x="709" y="-63.5" font-family="Helvetica,sans-Serif" font-size="10.00">inmost_options.h</text>
</g>
<!-- Node2&#45;&gt;Node3 -->
<g id="edge2" class="edge"><title>Node2&#45;&gt;Node3</title>
<path fill="none" stroke="midnightblue" d="M465.793,-112.444C516.737,-102.925 599.034,-87.5472 653.574,-77.3563"/>
<polygon fill="midnightblue" stroke="midnightblue" points="654.234,-80.7937 663.421,-75.5164 652.949,-73.9128 654.234,-80.7937"/>
</g>
<!-- Node4 -->
<g id="node4" class="node"><title>Node4</title>
<polygon fill="none" stroke="#bfbfbf" points="772.5,-56.5 772.5,-75.5 813.5,-75.5 813.5,-56.5 772.5,-56.5"/>
<text text-anchor="middle" x="793" y="-63.5" font-family="Helvetica,sans-Serif" font-size="10.00">string</text>
</g>
<!-- Node2&#45;&gt;Node4 -->
<g id="edge3" class="edge"><title>Node2&#45;&gt;Node4</title>
<path fill="none" stroke="midnightblue" d="M468.702,-117.098C533.618,-111.35 652.143,-98.9509 762.489,-75.767"/>
<polygon fill="midnightblue" stroke="midnightblue" points="763.408,-79.1498 772.456,-73.6383 761.946,-72.3042 763.408,-79.1498"/>
</g>
<!-- Node5 -->
<g id="node5" class="node"><title>Node5</title>
<polygon fill="none" stroke="#bfbfbf" points="832,-56.5 832,-75.5 874,-75.5 874,-56.5 832,-56.5"/>
<text text-anchor="middle" x="853" y="-63.5" font-family="Helvetica,sans-Serif" font-size="10.00">vector</text>
</g>
<!-- Node2&#45;&gt;Node5 -->
<g id="edge4" class="edge"><title>Node2&#45;&gt;Node5</title>
<path fill="none" stroke="midnightblue" d="M468.678,-118.246C544.701,-113.342 695.97,-101.156 822,-76 822.1,-75.9801 822.199,-75.9601 822.299,-75.9398"/>
<polygon fill="midnightblue" stroke="midnightblue" points="822.857,-79.405 831.773,-73.6816 821.234,-72.5958 822.857,-79.405"/>
</g>
<!-- Node6 -->
<g id="node6" class="node"><title>Node6</title>
<polygon fill="none" stroke="#bfbfbf" points="0,-56.5 0,-75.5 30,-75.5 30,-56.5 0,-56.5"/>
<text text-anchor="middle" x="15" y="-63.5" font-family="Helvetica,sans-Serif" font-size="10.00">set</text>
</g>
<!-- Node2&#45;&gt;Node6 -->
<g id="edge5" class="edge"><title>Node2&#45;&gt;Node6</title>
<path fill="none" stroke="midnightblue" d="M371.223,-119C300.032,-115.262 163.591,-105.002 40.0674,-75.7001"/>
<polygon fill="midnightblue" stroke="midnightblue" points="40.6047,-72.2291 30.0619,-73.2773 38.9573,-79.0325 40.6047,-72.2291"/>
</g>
<!-- Node7 -->
<g id="node7" class="node"><title>Node7</title>
<polygon fill="none" stroke="#bfbfbf" points="48.5,-56.5 48.5,-75.5 83.5,-75.5 83.5,-56.5 48.5,-56.5"/>
<text text-anchor="middle" x="66" y="-63.5" font-family="Helvetica,sans-Serif" font-size="10.00">map</text>
</g>
<!-- Node2&#45;&gt;Node7 -->
<g id="edge6" class="edge"><title>Node2&#45;&gt;Node7</title>
<path fill="none" stroke="midnightblue" d="M371.373,-117.34C308.862,-111.974 196.958,-100.138 93.7265,-76.0375"/>
<polygon fill="midnightblue" stroke="midnightblue" points="94.3041,-72.5772 83.7654,-73.6667 92.6833,-79.387 94.3041,-72.5772"/>
</g>
<!-- Node8 -->
<g id="node8" class="node"><title>Node8</title>
<polygon fill="none" stroke="#bfbfbf" points="101.5,-56.5 101.5,-75.5 130.5,-75.5 130.5,-56.5 101.5,-56.5"/>
<text text-anchor="middle" x="116" y="-63.5" font-family="Helvetica,sans-Serif" font-size="10.00">list</text>
</g>
<!-- Node2&#45;&gt;Node8 -->
<g id="edge7" class="edge"><title>Node2&#45;&gt;Node8</title>
<path fill="none" stroke="midnightblue" d="M371.329,-116.159C317.022,-110.099 226.55,-98.0388 140.258,-75.5643"/>
<polygon fill="midnightblue" stroke="midnightblue" points="141.136,-72.1764 130.573,-72.9927 139.339,-78.9419 141.136,-72.1764"/>
</g>
<!-- Node9 -->
<g id="node9" class="node"><title>Node9</title>
<polygon fill="none" stroke="#bfbfbf" points="149,-56.5 149,-75.5 205,-75.5 205,-56.5 149,-56.5"/>
<text text-anchor="middle" x="177" y="-63.5" font-family="Helvetica,sans-Serif" font-size="10.00">algorithm</text>
</g>
<!-- Node2&#45;&gt;Node9 -->
<g id="edge8" class="edge"><title>Node2&#45;&gt;Node9</title>
<path fill="none" stroke="midnightblue" d="M381.496,-112.444C335.931,-102.318 260.535,-85.5632 215.132,-75.4738"/>
<polygon fill="midnightblue" stroke="midnightblue" points="215.618,-71.9965 205.097,-73.2437 214.099,-78.8298 215.618,-71.9965"/>
</g>
<!-- Node10 -->
<g id="node10" class="node"><title>Node10</title>
<polygon fill="none" stroke="#bfbfbf" points="151,-0.5 151,-19.5 195,-19.5 195,-0.5 151,-0.5"/>
<text text-anchor="middle" x="173" y="-7.5" font-family="Helvetica,sans-Serif" font-size="10.00">cmath</text>
</g>
<!-- Node2&#45;&gt;Node10 -->
<g id="edge9" class="edge"><title>Node2&#45;&gt;Node10</title>
<path fill="none" stroke="midnightblue" d="M377.133,-112.428C345.452,-105.162 301.79,-93.1627 266,-76 237.761,-62.4584 208.729,-40.667 190.779,-26.0954"/>
<polygon fill="midnightblue" stroke="midnightblue" points="192.847,-23.264 182.91,-19.5898 188.387,-28.6591 192.847,-23.264"/>
</g>
<!-- Node11 -->
<g id="node11" class="node"><title>Node11</title>
<polygon fill="none" stroke="#bfbfbf" points="393,-56.5 393,-75.5 447,-75.5 447,-56.5 393,-56.5"/>
<text text-anchor="middle" x="420" y="-63.5" font-family="Helvetica,sans-Serif" font-size="10.00">iostream</text>
</g>
<!-- Node2&#45;&gt;Node11 -->
<g id="edge10" class="edge"><title>Node2&#45;&gt;Node11</title>
<path fill="none" stroke="midnightblue" d="M420,-112.083C420,-105.006 420,-94.8611 420,-85.9865"/>
<polygon fill="midnightblue" stroke="midnightblue" points="423.5,-85.751 420,-75.7511 416.5,-85.7511 423.5,-85.751"/>
</g>
<!-- Node12 -->
<g id="node12" class="node"><title>Node12</title>
<polygon fill="none" stroke="#bfbfbf" points="465.5,-56.5 465.5,-75.5 514.5,-75.5 514.5,-56.5 465.5,-56.5"/>
<text text-anchor="middle" x="490" y="-63.5" font-family="Helvetica,sans-Serif" font-size="10.00">fstream</text>
</g>
<!-- Node2&#45;&gt;Node12 -->
<g id="edge11" class="edge"><title>Node2&#45;&gt;Node12</title>
<path fill="none" stroke="midnightblue" d="M431.247,-112.324C441.797,-104.185 457.801,-91.8395 470.442,-82.0874"/>
<polygon fill="midnightblue" stroke="midnightblue" points="472.769,-84.7132 478.549,-75.8339 468.493,-79.1707 472.769,-84.7132"/>
</g>
<!-- Node13 -->
<g id="node13" class="node"><title>Node13</title>
<polygon fill="none" stroke="#bfbfbf" points="213,-0.5 213,-19.5 261,-19.5 261,-0.5 213,-0.5"/>
<text text-anchor="middle" x="237" y="-7.5" font-family="Helvetica,sans-Serif" font-size="10.00">stdlib.h</text>
</g>
<!-- Node2&#45;&gt;Node13 -->
<g id="edge12" class="edge"><title>Node2&#45;&gt;Node13</title>
<path fill="none" stroke="midnightblue" d="M377.139,-112.496C350.364,-105.718 316.134,-94.2653 290,-76 271.986,-63.41 256.79,-43.0703 247.351,-28.496"/>
<polygon fill="midnightblue" stroke="midnightblue" points="250.256,-26.5399 242.008,-19.8905 244.309,-30.2324 250.256,-26.5399"/>
</g>
<!-- Node14 -->
<g id="node14" class="node"><title>Node14</title>
<polygon fill="none" stroke="#bfbfbf" points="533,-56.5 533,-75.5 579,-75.5 579,-56.5 533,-56.5"/>
<text text-anchor="middle" x="556" y="-63.5" font-family="Helvetica,sans-Serif" font-size="10.00">stdio.h</text>
</g>
<!-- Node2&#45;&gt;Node14 -->
<g id="edge13" class="edge"><title>Node2&#45;&gt;Node14</title>
<path fill="none" stroke="midnightblue" d="M441.55,-112.444C464.031,-103.517 499.488,-89.4387 524.98,-79.3168"/>
<polygon fill="midnightblue" stroke="midnightblue" points="526.549,-82.4598 534.551,-75.5164 523.965,-75.9539 526.549,-82.4598"/>
</g>
<!-- Node15 -->
<g id="node15" class="node"><title>Node15</title>
<polygon fill="none" stroke="#bfbfbf" points="597,-56.5 597,-75.5 645,-75.5 645,-56.5 597,-56.5"/>
<text text-anchor="middle" x="621" y="-63.5" font-family="Helvetica,sans-Serif" font-size="10.00">limits.h</text>
</g>
<!-- Node2&#45;&gt;Node15 -->
<g id="edge14" class="edge"><title>Node2&#45;&gt;Node15</title>
<path fill="none" stroke="midnightblue" d="M451.906,-112.5C483.728,-104.012 534.269,-90.5038 586.988,-76.2652"/>
<polygon fill="midnightblue" stroke="midnightblue" points="588.112,-79.587 596.853,-73.5991 586.286,-72.8294 588.112,-79.587"/>
</g>
<!-- Node16 -->
<g id="node16" class="node"><title>Node16</title>
<g id="a_node16"><a xlink:href="container_8hpp.html" target="_top" xlink:title="container.hpp">
<polygon fill="none" stroke="black" points="299.5,-56.5 299.5,-75.5 374.5,-75.5 374.5,-56.5 299.5,-56.5"/>
<text text-anchor="middle" x="337" y="-63.5" font-family="Helvetica,sans-Serif" font-size="10.00">container.hpp</text>
</a>
</g>
</g>
<!-- Node2&#45;&gt;Node16 -->
<g id="edge15" class="edge"><title>Node2&#45;&gt;Node16</title>
<path fill="none" stroke="midnightblue" d="M401.55,-112.324C387.14,-104.107 367.592,-91.6017 353.662,-81.8069"/>
<polygon fill="midnightblue" stroke="midnightblue" points="355.579,-78.8734 345.429,-75.8339 351.468,-84.5393 355.579,-78.8734"/>
</g>
<!-- Node16&#45;&gt;Node2 -->
<g id="edge25" class="edge"><title>Node16&#45;&gt;Node2</title>
<path fill="none" stroke="midnightblue" d="M355.412,-75.6545C369.899,-83.9132 389.594,-96.5169 403.55,-106.342"/>
<polygon fill="midnightblue" stroke="midnightblue" points="401.633,-109.276 411.779,-112.324 405.748,-103.613 401.633,-109.276"/>
</g>
<!-- Node16&#45;&gt;Node10 -->
<g id="edge22" class="edge"><title>Node16&#45;&gt;Node10</title>
<path fill="none" stroke="midnightblue" d="M311.014,-56.4435C282.288,-46.985 235.995,-31.7421 205.044,-21.551"/>
<polygon fill="midnightblue" stroke="midnightblue" points="205.776,-18.1073 195.183,-18.3042 203.587,-24.7562 205.776,-18.1073"/>
</g>
<!-- Node16&#45;&gt;Node13 -->
<g id="edge16" class="edge"><title>Node16&#45;&gt;Node13</title>
<path fill="none" stroke="midnightblue" d="M320.933,-56.324C305.042,-47.7428 280.493,-34.486 262.042,-24.5224"/>
<polygon fill="midnightblue" stroke="midnightblue" points="263.489,-21.3264 253.027,-19.6545 260.163,-27.4857 263.489,-21.3264"/>
</g>
<!-- Node17 -->
<g id="node17" class="node"><title>Node17</title>
<polygon fill="none" stroke="#bfbfbf" points="473.5,-0.5 473.5,-19.5 524.5,-19.5 524.5,-0.5 473.5,-0.5"/>
<text text-anchor="middle" x="499" y="-7.5" font-family="Helvetica,sans-Serif" font-size="10.00">stddef.h</text>
</g>
<!-- Node16&#45;&gt;Node17 -->
<g id="edge17" class="edge"><title>Node16&#45;&gt;Node17</title>
<path fill="none" stroke="midnightblue" d="M362.669,-56.4435C389.923,-47.3591 433.184,-32.9388 463.651,-22.7831"/>
<polygon fill="midnightblue" stroke="midnightblue" points="465.071,-25.9992 473.451,-19.5164 462.857,-19.3584 465.071,-25.9992"/>
</g>
<!-- Node18 -->
<g id="node18" class="node"><title>Node18</title>
<polygon fill="none" stroke="#bfbfbf" points="542.5,-0.5 542.5,-19.5 591.5,-19.5 591.5,-0.5 542.5,-0.5"/>
<text text-anchor="middle" x="567" y="-7.5" font-family="Helvetica,sans-Serif" font-size="10.00">string.h</text>
</g>
<!-- Node16&#45;&gt;Node18 -->
<g id="edge18" class="edge"><title>Node16&#45;&gt;Node18</title>
<path fill="none" stroke="midnightblue" d="M374.662,-56.7414C412.181,-48.428 471.665,-35.0161 532.389,-20.0896"/>
<polygon fill="midnightblue" stroke="midnightblue" points="533.272,-23.4766 542.142,-17.6816 531.594,-16.6807 533.272,-23.4766"/>
</g>
<!-- Node19 -->
<g id="node19" class="node"><title>Node19</title>
<polygon fill="none" stroke="#bfbfbf" points="610,-0.5 610,-19.5 662,-19.5 662,-0.5 610,-0.5"/>
<text text-anchor="middle" x="636" y="-7.5" font-family="Helvetica,sans-Serif" font-size="10.00">memory</text>
</g>
<!-- Node16&#45;&gt;Node19 -->
<g id="edge19" class="edge"><title>Node16&#45;&gt;Node19</title>
<path fill="none" stroke="midnightblue" d="M374.695,-57.6991C377.841,-57.115 380.974,-56.5418 384,-56 476.713,-39.3996 503.036,-39.7743 599.803,-19.8856"/>
<polygon fill="midnightblue" stroke="midnightblue" points="600.629,-23.2888 609.71,-17.83 599.207,-16.4348 600.629,-23.2888"/>
</g>
<!-- Node16&#45;&gt;Node20 -->
<g id="edge20" class="edge"><title>Node16&#45;&gt;Node20</title>
<path fill="none" stroke="midnightblue" d="M374.664,-57.5089C377.817,-56.9667 380.96,-56.4551 384,-56 529.63,-34.1979 705.522,-18.6561 771.896,-13.1716"/>
<polygon fill="midnightblue" stroke="midnightblue" points="772.257,-16.6538 781.938,-12.3498 771.686,-9.67713 772.257,-16.6538"/>
</g>
<!-- Node21 -->
<g id="node21" class="node"><title>Node21</title>
<polygon fill="none" stroke="#bfbfbf" points="279.5,-0.5 279.5,-19.5 326.5,-19.5 326.5,-0.5 279.5,-0.5"/>
<text text-anchor="middle" x="303" y="-7.5" font-family="Helvetica,sans-Serif" font-size="10.00">iterator</text>
</g>
<!-- Node16&#45;&gt;Node21 -->
<g id="edge21" class="edge"><title>Node16&#45;&gt;Node21</title>
<path fill="none" stroke="midnightblue" d="M331.386,-56.083C326.633,-48.5341 319.682,-37.4948 313.848,-28.2298"/>
<polygon fill="midnightblue" stroke="midnightblue" points="316.8,-26.3486 308.51,-19.7511 310.876,-30.0783 316.8,-26.3486"/>
</g>
<!-- Node22 -->
<g id="node22" class="node"><title>Node22</title>
<polygon fill="none" stroke="#bfbfbf" points="345,-0.5 345,-19.5 397,-19.5 397,-0.5 345,-0.5"/>
<text text-anchor="middle" x="371" y="-7.5" font-family="Helvetica,sans-Serif" font-size="10.00">assert.h</text>
</g>
<!-- Node16&#45;&gt;Node22 -->
<g id="edge23" class="edge"><title>Node16&#45;&gt;Node22</title>
<path fill="none" stroke="midnightblue" d="M342.614,-56.083C347.367,-48.5341 354.318,-37.4948 360.152,-28.2298"/>
<polygon fill="midnightblue" stroke="midnightblue" points="363.124,-30.0783 365.49,-19.7511 357.2,-26.3486 363.124,-30.0783"/>
</g>
<!-- Node23 -->
<g id="node23" class="node"><title>Node23</title>
<polygon fill="none" stroke="#bfbfbf" points="415,-0.5 415,-19.5 455,-19.5 455,-0.5 415,-0.5"/>
<text text-anchor="middle" x="435" y="-7.5" font-family="Helvetica,sans-Serif" font-size="10.00">limits</text>
</g>
<!-- Node16&#45;&gt;Node23 -->
<g id="edge24" class="edge"><title>Node16&#45;&gt;Node23</title>
<path fill="none" stroke="midnightblue" d="M352.745,-56.324C368.319,-47.7428 392.377,-34.486 410.459,-24.5224"/>
<polygon fill="midnightblue" stroke="midnightblue" points="412.224,-27.546 419.294,-19.6545 408.846,-21.4152 412.224,-27.546"/>
</g>
<!-- Node24&#45;&gt;Node2 -->
<g id="edge27" class="edge"><title>Node24&#45;&gt;Node2</title>
<path fill="none" stroke="midnightblue" d="M700.492,-169.605C642.9,-160.036 542.409,-143.339 478.643,-132.744"/>
<polygon fill="midnightblue" stroke="midnightblue" points="479.175,-129.284 468.737,-131.098 478.028,-136.19 479.175,-129.284"/>
</g>
</g>
</svg>
