<?xml version="1.0" encoding="UTF-8" standalone="no"?>
<!DOCTYPE svg PUBLIC "-//W3C//DTD SVG 1.1//EN"
 "http://www.w3.org/Graphics/SVG/1.1/DTD/svg11.dtd">
<!-- Generated by graphviz version 2.38.0 (20140413.2041)
 -->
<!-- Title: log Pages: 1 -->
<svg width="231pt" height="137pt"
 viewBox="0.00 0.00 231.00 137.00" xmlns="http://www.w3.org/2000/svg" xmlns:xlink="http://www.w3.org/1999/xlink">
<g id="graph0" class="graph" transform="scale(1 1) rotate(0) translate(4 133)">
<title>log</title>
<!-- Node1 -->
<g id="node1" class="node"><title>Node1</title>
<polygon fill="#bfbfbf" stroke="black" points="0,-55 0,-74 29,-74 29,-55 0,-55"/>
<text text-anchor="middle" x="14.5" y="-62" font-family="Helvetica,sans-Serif" font-size="10.00">log</text>
</g>
<!-- Node2 -->
<g id="node2" class="node"><title>Node2</title>
<g id="a_node2"><a xlink:href="class_i_n_m_o_s_t_1_1log__expression.html#a3e9b9e70b4bdfce25b62bda68754d839" target="_top" xlink:title="INMOST::log_expression\l::log_expression">
<polygon fill="none" stroke="black" points="81.5,-98.5 81.5,-128.5 206.5,-128.5 206.5,-98.5 81.5,-98.5"/>
<text text-anchor="start" x="89.5" y="-116.5" font-family="Helvetica,sans-Serif" font-size="10.00">INMOST::log_expression</text>
<text text-anchor="middle" x="144" y="-105.5" font-family="Helvetica,sans-Serif" font-size="10.00">::log_expression</text>
</a>
</g>
</g>
<!-- Node1&#45;&gt;Node2 -->
<g id="edge1" class="edge"><title>Node1&#45;&gt;Node2</title>
<path fill="none" stroke="midnightblue" d="M38.1388,-76.9471C46.4449,-81.2419 56.0145,-85.8788 65,-89.5 72.8847,-92.6775 81.3582,-95.684 89.7112,-98.4249"/>
<polygon fill="midnightblue" stroke="midnightblue" points="39.5537,-73.7358 29.0791,-72.144 36.2748,-79.9204 39.5537,-73.7358"/>
</g>
<!-- Node3 -->
<g id="node3" class="node"><title>Node3</title>
<g id="a_node3"><a xlink:href="class_i_n_m_o_s_t_1_1pow__expression.html#ae3a68b27958e83ae9d06847c406ee92c" target="_top" xlink:title="INMOST::pow_expression\l::pow_expression">
<polygon fill="none" stroke="black" points="79.5,-49.5 79.5,-79.5 208.5,-79.5 208.5,-49.5 79.5,-49.5"/>
<text text-anchor="start" x="87.5" y="-67.5" font-family="Helvetica,sans-Serif" font-size="10.00">INMOST::pow_expression</text>
<text text-anchor="middle" x="144" y="-56.5" font-family="Helvetica,sans-Serif" font-size="10.00">::pow_expression</text>
</a>
</g>
</g>
<!-- Node1&#45;&gt;Node3 -->
<g id="edge2" class="edge"><title>Node1&#45;&gt;Node3</title>
<path fill="none" stroke="midnightblue" d="M39.497,-64.5C50.8943,-64.5 65.1126,-64.5 79.3259,-64.5"/>
<polygon fill="midnightblue" stroke="midnightblue" points="39.1448,-61.0001 29.1447,-64.5 39.1447,-68.0001 39.1448,-61.0001"/>
</g>
<!-- Node4 -->
<g id="node4" class="node"><title>Node4</title>
<g id="a_node4"><a xlink:href="class_i_n_m_o_s_t_1_1const__pow__expression.html#af464e498a674a91d2093e34c525d08ac" target="_top" xlink:title="INMOST::const_pow_expression\l::const_pow_expression">
<polygon fill="none" stroke="black" points="65,-0.5 65,-30.5 223,-30.5 223,-0.5 65,-0.5"/>
<text text-anchor="start" x="73" y="-18.5" font-family="Helvetica,sans-Serif" font-size="10.00">INMOST::const_pow_expression</text>
<text text-anchor="middle" x="144" y="-7.5" font-family="Helvetica,sans-Serif" font-size="10.00">::const_pow_expression</text>
</a>
</g>
</g>
<!-- Node1&#45;&gt;Node4 -->
<g id="edge3" class="edge"><title>Node1&#45;&gt;Node4</title>
<path fill="none" stroke="midnightblue" d="M38.2092,-52.6564C46.5223,-48.5438 56.0782,-44.0719 65,-40.5 73.713,-37.0117 83.1178,-33.6604 92.2786,-30.6073"/>
<polygon fill="midnightblue" stroke="midnightblue" points="36.4796,-49.6089 29.1337,-57.2436 39.6373,-55.8562 36.4796,-49.6089"/>
</g>
</g>
</svg>
