<?xml version="1.0" encoding="UTF-8" standalone="no"?>
<!DOCTYPE svg PUBLIC "-//W3C//DTD SVG 1.1//EN"
 "http://www.w3.org/Graphics/SVG/1.1/DTD/svg11.dtd">
<!-- Generated by graphviz version 2.38.0 (20140413.2041)
 -->
<!-- Title: INMOST.lib/Source/Headers/inmost_expression.h Pages: 1 -->
<svg width="417pt" height="441pt"
 viewBox="0.00 0.00 417.00 441.00" xmlns="http://www.w3.org/2000/svg" xmlns:xlink="http://www.w3.org/1999/xlink">
<g id="graph0" class="graph" transform="scale(1 1) rotate(0) translate(4 437)">
<title>INMOST.lib/Source/Headers/inmost_expression.h</title>
<!-- Node1 -->
<g id="node1" class="node"><title>Node1</title>
<polygon fill="#bfbfbf" stroke="black" points="172,-402.5 172,-432.5 311,-432.5 311,-402.5 172,-402.5"/>
<text text-anchor="start" x="180" y="-420.5" font-family="Helvetica,sans-Serif" font-size="10.00">INMOST.lib/Source/Headers</text>
<text text-anchor="middle" x="241.5" y="-409.5" font-family="Helvetica,sans-Serif" font-size="10.00">/inmost_expression.h</text>
</g>
<!-- Node2 -->
<g id="node2" class="node"><title>Node2</title>
<g id="a_node2"><a xlink:href="inmost__data_8h.html" target="_top" xlink:title="INMOST.lib/Source/Headers\l/inmost_data.h">
<polygon fill="none" stroke="black" points="25,-335.5 25,-365.5 164,-365.5 164,-335.5 25,-335.5"/>
<text text-anchor="start" x="33" y="-353.5" font-family="Helvetica,sans-Serif" font-size="10.00">INMOST.lib/Source/Headers</text>
<text text-anchor="middle" x="94.5" y="-342.5" font-family="Helvetica,sans-Serif" font-size="10.00">/inmost_data.h</text>
</a>
</g>
</g>
<!-- Node1&#45;&gt;Node2 -->
<g id="edge1" class="edge"><title>Node1&#45;&gt;Node2</title>
<path fill="none" stroke="midnightblue" d="M200.269,-398.269C176.856,-387.916 147.992,-375.153 126.335,-365.577"/>
<polygon fill="midnightblue" stroke="midnightblue" points="199.042,-401.553 209.603,-402.396 201.873,-395.151 199.042,-401.553"/>
</g>
<!-- Node6 -->
<g id="node6" class="node"><title>Node6</title>
<g id="a_node6"><a xlink:href="inmost__variable_8h.html" target="_top" xlink:title="INMOST.lib/Source/Headers\l/inmost_variable.h">
<polygon fill="none" stroke="black" points="74,-134.5 74,-164.5 213,-164.5 213,-134.5 74,-134.5"/>
<text text-anchor="start" x="82" y="-152.5" font-family="Helvetica,sans-Serif" font-size="10.00">INMOST.lib/Source/Headers</text>
<text text-anchor="middle" x="143.5" y="-141.5" font-family="Helvetica,sans-Serif" font-size="10.00">/inmost_variable.h</text>
</a>
</g>
</g>
<!-- Node1&#45;&gt;Node6 -->
<g id="edge12" class="edge"><title>Node1&#45;&gt;Node6</title>
<path fill="none" stroke="midnightblue" d="M245.661,-392.456C251.649,-350.3 258.287,-261.763 221.5,-201 211.642,-184.716 194.299,-172.714 178.467,-164.507"/>
<polygon fill="midnightblue" stroke="midnightblue" points="242.198,-391.947 244.141,-402.362 249.117,-393.008 242.198,-391.947"/>
</g>
<!-- Node8 -->
<g id="node8" class="node"><title>Node8</title>
<g id="a_node8"><a xlink:href="inmost__dense_8h.html" target="_top" xlink:title="INMOST.lib/Source/Headers\l/inmost_dense.h">
<polygon fill="none" stroke="black" points="270,-268.5 270,-298.5 409,-298.5 409,-268.5 270,-268.5"/>
<text text-anchor="start" x="278" y="-286.5" font-family="Helvetica,sans-Serif" font-size="10.00">INMOST.lib/Source/Headers</text>
<text text-anchor="middle" x="339.5" y="-275.5" font-family="Helvetica,sans-Serif" font-size="10.00">/inmost_dense.h</text>
</a>
</g>
</g>
<!-- Node1&#45;&gt;Node8 -->
<g id="edge10" class="edge"><title>Node1&#45;&gt;Node8</title>
<path fill="none" stroke="midnightblue" d="M258.064,-394.189C278.355,-366.859 312.117,-321.383 329.088,-298.525"/>
<polygon fill="midnightblue" stroke="midnightblue" points="255.139,-392.258 251.988,-402.374 260.759,-396.431 255.139,-392.258"/>
</g>
<!-- Node3 -->
<g id="node3" class="node"><title>Node3</title>
<g id="a_node3"><a xlink:href="inmost__mesh_8h.html" target="_top" xlink:title="INMOST.lib/Source/Headers\l/inmost_mesh.h">
<polygon fill="none" stroke="black" points="0,-268.5 0,-298.5 139,-298.5 139,-268.5 0,-268.5"/>
<text text-anchor="start" x="8" y="-286.5" font-family="Helvetica,sans-Serif" font-size="10.00">INMOST.lib/Source/Headers</text>
<text text-anchor="middle" x="69.5" y="-275.5" font-family="Helvetica,sans-Serif" font-size="10.00">/inmost_mesh.h</text>
</a>
</g>
</g>
<!-- Node2&#45;&gt;Node3 -->
<g id="edge2" class="edge"><title>Node2&#45;&gt;Node3</title>
<path fill="none" stroke="midnightblue" d="M85.4579,-325.991C81.9248,-316.804 77.9916,-306.578 74.914,-298.577"/>
<polygon fill="midnightblue" stroke="midnightblue" points="82.2188,-327.319 89.0754,-335.396 88.7522,-324.806 82.2188,-327.319"/>
</g>
<!-- Node4 -->
<g id="node4" class="node"><title>Node4</title>
<g id="a_node4"><a xlink:href="inmost_8h.html" target="_top" xlink:title="INMOST.lib/Source/Headers\l/inmost.h">
<polygon fill="none" stroke="black" points="74,-67.5 74,-97.5 213,-97.5 213,-67.5 74,-67.5"/>
<text text-anchor="start" x="82" y="-85.5" font-family="Helvetica,sans-Serif" font-size="10.00">INMOST.lib/Source/Headers</text>
<text text-anchor="middle" x="143.5" y="-74.5" font-family="Helvetica,sans-Serif" font-size="10.00">/inmost.h</text>
</a>
</g>
</g>
<!-- Node3&#45;&gt;Node4 -->
<g id="edge3" class="edge"><title>Node3&#45;&gt;Node4</title>
<path fill="none" stroke="midnightblue" d="M60.9729,-258.79C51.324,-227.49 39.9189,-171.923 64.5,-134 74.9475,-117.882 92.5483,-105.893 108.488,-97.6515"/>
<polygon fill="midnightblue" stroke="midnightblue" points="57.6859,-259.999 64.1233,-268.413 64.3385,-257.821 57.6859,-259.999"/>
</g>
<!-- Node3&#45;&gt;Node6 -->
<g id="edge6" class="edge"><title>Node3&#45;&gt;Node6</title>
<path fill="none" stroke="midnightblue" d="M61.5481,-258.471C57.3836,-241.404 54.9144,-218.504 64.5,-201 73.4913,-184.581 90.3465,-172.723 106.186,-164.641"/>
<polygon fill="midnightblue" stroke="midnightblue" points="58.2147,-259.547 64.2674,-268.243 64.9584,-257.671 58.2147,-259.547"/>
</g>
<!-- Node7 -->
<g id="node7" class="node"><title>Node7</title>
<g id="a_node7"><a xlink:href="inmost__autodiff_8h.html" target="_top" xlink:title="INMOST.lib/Source/Headers\l/inmost_autodiff.h">
<polygon fill="none" stroke="black" points="74,-201.5 74,-231.5 213,-231.5 213,-201.5 74,-201.5"/>
<text text-anchor="start" x="82" y="-219.5" font-family="Helvetica,sans-Serif" font-size="10.00">INMOST.lib/Source/Headers</text>
<text text-anchor="middle" x="143.5" y="-208.5" font-family="Helvetica,sans-Serif" font-size="10.00">/inmost_autodiff.h</text>
</a>
</g>
</g>
<!-- Node3&#45;&gt;Node7 -->
<g id="edge8" class="edge"><title>Node3&#45;&gt;Node7</title>
<path fill="none" stroke="midnightblue" d="M93.2964,-261.598C104.47,-251.783 117.493,-240.344 127.474,-231.577"/>
<polygon fill="midnightblue" stroke="midnightblue" points="90.7603,-259.167 85.5569,-268.396 95.3799,-264.426 90.7603,-259.167"/>
</g>
<!-- Node5 -->
<g id="node5" class="node"><title>Node5</title>
<g id="a_node5"><a xlink:href="inmost__partitioner_8h.html" target="_top" xlink:title="INMOST.lib/Source/Headers\l/inmost_partitioner.h">
<polygon fill="none" stroke="black" points="74,-0.5 74,-30.5 213,-30.5 213,-0.5 74,-0.5"/>
<text text-anchor="start" x="82" y="-18.5" font-family="Helvetica,sans-Serif" font-size="10.00">INMOST.lib/Source/Headers</text>
<text text-anchor="middle" x="143.5" y="-7.5" font-family="Helvetica,sans-Serif" font-size="10.00">/inmost_partitioner.h</text>
</a>
</g>
</g>
<!-- Node4&#45;&gt;Node5 -->
<g id="edge4" class="edge"><title>Node4&#45;&gt;Node5</title>
<path fill="none" stroke="midnightblue" d="M136.955,-57.4029C136.505,-48.3703 136.796,-38.4078 137.825,-30.5765"/>
<polygon fill="midnightblue" stroke="midnightblue" points="133.47,-57.7359 137.822,-67.396 140.444,-57.1309 133.47,-57.7359"/>
</g>
<!-- Node5&#45;&gt;Node4 -->
<g id="edge5" class="edge"><title>Node5&#45;&gt;Node4</title>
<path fill="none" stroke="midnightblue" d="M150.044,-40.5653C150.495,-49.5958 150.206,-59.5597 149.178,-67.396"/>
<polygon fill="midnightblue" stroke="midnightblue" points="153.528,-40.2355 149.175,-30.5765 146.555,-40.8422 153.528,-40.2355"/>
</g>
<!-- Node6&#45;&gt;Node4 -->
<g id="edge7" class="edge"><title>Node6&#45;&gt;Node4</title>
<path fill="none" stroke="midnightblue" d="M143.5,-124.108C143.5,-115.154 143.5,-105.323 143.5,-97.5765"/>
<polygon fill="midnightblue" stroke="midnightblue" points="140,-124.396 143.5,-134.396 147,-124.396 140,-124.396"/>
</g>
<!-- Node7&#45;&gt;Node6 -->
<g id="edge9" class="edge"><title>Node7&#45;&gt;Node6</title>
<path fill="none" stroke="midnightblue" d="M143.5,-191.108C143.5,-182.154 143.5,-172.323 143.5,-164.577"/>
<polygon fill="midnightblue" stroke="midnightblue" points="140,-191.396 143.5,-201.396 147,-191.396 140,-191.396"/>
</g>
<!-- Node8&#45;&gt;Node4 -->
<g id="edge11" class="edge"><title>Node8&#45;&gt;Node4</title>
<path fill="none" stroke="midnightblue" d="M324.905,-259.769C304.354,-228.893 264.556,-173.075 221.5,-134 205.851,-119.798 185.793,-106.907 169.936,-97.7043"/>
<polygon fill="midnightblue" stroke="midnightblue" points="321.994,-261.711 330.413,-268.143 327.842,-257.865 321.994,-261.711"/>
</g>
</g>
</svg>
