<?xml version="1.0" encoding="UTF-8" standalone="no"?>
<!DOCTYPE svg PUBLIC "-//W3C//DTD SVG 1.1//EN"
 "http://www.w3.org/Graphics/SVG/1.1/DTD/svg11.dtd">
<!-- Generated by graphviz version 2.38.0 (20140413.2041)
 -->
<!-- Title: pow Pages: 1 -->
<svg width="236pt" height="137pt"
 viewBox="0.00 0.00 236.00 137.00" xmlns="http://www.w3.org/2000/svg" xmlns:xlink="http://www.w3.org/1999/xlink">
<g id="graph0" class="graph" transform="scale(1 1) rotate(0) translate(4 133)">
<title>pow</title>
<!-- Node1 -->
<g id="node1" class="node"><title>Node1</title>
<polygon fill="#bfbfbf" stroke="black" points="0,-55 0,-74 34,-74 34,-55 0,-55"/>
<text text-anchor="middle" x="17" y="-62" font-family="Helvetica,sans-Serif" font-size="10.00">pow</text>
</g>
<!-- Node2 -->
<g id="node2" class="node"><title>Node2</title>
<g id="a_node2"><a xlink:href="class_i_n_m_o_s_t_1_1pow__expression.html#ae3a68b27958e83ae9d06847c406ee92c" target="_top" xlink:title="INMOST::pow_expression\l::pow_expression">
<polygon fill="none" stroke="black" points="84.5,-98.5 84.5,-128.5 213.5,-128.5 213.5,-98.5 84.5,-98.5"/>
<text text-anchor="start" x="92.5" y="-116.5" font-family="Helvetica,sans-Serif" font-size="10.00">INMOST::pow_expression</text>
<text text-anchor="middle" x="149" y="-105.5" font-family="Helvetica,sans-Serif" font-size="10.00">::pow_expression</text>
</a>
</g>
</g>
<!-- Node1&#45;&gt;Node2 -->
<g id="edge1" class="edge"><title>Node1&#45;&gt;Node2</title>
<path fill="none" stroke="midnightblue" d="M43.0788,-77.492C51.5138,-81.609 61.0549,-85.9963 70,-89.5 78.0473,-92.652 86.6882,-95.6646 95.183,-98.4252"/>
<polygon fill="midnightblue" stroke="midnightblue" points="44.6267,-74.3529 34.116,-73.02 41.5014,-80.6165 44.6267,-74.3529"/>
</g>
<!-- Node3 -->
<g id="node3" class="node"><title>Node3</title>
<g id="a_node3"><a xlink:href="class_i_n_m_o_s_t_1_1pow__const__expression.html#a9dcf6e34891d08bad9ae1ef549839e7d" target="_top" xlink:title="INMOST::pow_const_expression\l::pow_const_expression">
<polygon fill="none" stroke="black" points="70,-49.5 70,-79.5 228,-79.5 228,-49.5 70,-49.5"/>
<text text-anchor="start" x="78" y="-67.5" font-family="Helvetica,sans-Serif" font-size="10.00">INMOST::pow_const_expression</text>
<text text-anchor="middle" x="149" y="-56.5" font-family="Helvetica,sans-Serif" font-size="10.00">::pow_const_expression</text>
</a>
</g>
</g>
<!-- Node1&#45;&gt;Node3 -->
<g id="edge2" class="edge"><title>Node1&#45;&gt;Node3</title>
<path fill="none" stroke="midnightblue" d="M44.2126,-64.5C51.8867,-64.5 60.698,-64.5 69.8734,-64.5"/>
<polygon fill="midnightblue" stroke="midnightblue" points="44.2018,-61.0001 34.2017,-64.5 44.2017,-68.0001 44.2018,-61.0001"/>
</g>
<!-- Node4 -->
<g id="node4" class="node"><title>Node4</title>
<g id="a_node4"><a xlink:href="class_i_n_m_o_s_t_1_1const__pow__expression.html#af464e498a674a91d2093e34c525d08ac" target="_top" xlink:title="INMOST::const_pow_expression\l::const_pow_expression">
<polygon fill="none" stroke="black" points="70,-0.5 70,-30.5 228,-30.5 228,-0.5 70,-0.5"/>
<text text-anchor="start" x="78" y="-18.5" font-family="Helvetica,sans-Serif" font-size="10.00">INMOST::const_pow_expression</text>
<text text-anchor="middle" x="149" y="-7.5" font-family="Helvetica,sans-Serif" font-size="10.00">::const_pow_expression</text>
</a>
</g>
</g>
<!-- Node1&#45;&gt;Node4 -->
<g id="edge3" class="edge"><title>Node1&#45;&gt;Node4</title>
<path fill="none" stroke="midnightblue" d="M43.4206,-52.0132C51.7924,-48.1047 61.2094,-43.9226 70,-40.5 78.8784,-37.0433 88.4522,-33.6835 97.7493,-30.6067"/>
<polygon fill="midnightblue" stroke="midnightblue" points="41.6989,-48.9564 34.1732,-56.414 44.7069,-55.2772 41.6989,-48.9564"/>
</g>
</g>
</svg>
