<?xml version="1.0" encoding="UTF-8" standalone="no"?>
<!DOCTYPE svg PUBLIC "-//W3C//DTD SVG 1.1//EN"
 "http://www.w3.org/Graphics/SVG/1.1/DTD/svg11.dtd">
<!-- Generated by graphviz version 2.38.0 (20140413.2041)
 -->
<!-- Title: INMOST.lib/Source/Headers/inmost_variable.h Pages: 1 -->
<svg width="996pt" height="487pt"
 viewBox="0.00 0.00 996.00 487.00" xmlns="http://www.w3.org/2000/svg" xmlns:xlink="http://www.w3.org/1999/xlink">
<g id="graph0" class="graph" transform="scale(1 1) rotate(0) translate(4 483)">
<title>INMOST.lib/Source/Headers/inmost_variable.h</title>
<!-- Node1 -->
<g id="node1" class="node"><title>Node1</title>
<polygon fill="#bfbfbf" stroke="black" points="201.5,-448.5 201.5,-478.5 340.5,-478.5 340.5,-448.5 201.5,-448.5"/>
<text text-anchor="start" x="209.5" y="-466.5" font-family="Helvetica,sans-Serif" font-size="10.00">INMOST.lib/Source/Headers</text>
<text text-anchor="middle" x="271" y="-455.5" font-family="Helvetica,sans-Serif" font-size="10.00">/inmost_variable.h</text>
</g>
<!-- Node2 -->
<g id="node2" class="node"><title>Node2</title>
<g id="a_node2"><a xlink:href="inmost__common_8h.html" target="_top" xlink:title="inmost_common.h">
<polygon fill="none" stroke="black" points="356.5,-112.5 356.5,-131.5 453.5,-131.5 453.5,-112.5 356.5,-112.5"/>
<text text-anchor="middle" x="405" y="-119.5" font-family="Helvetica,sans-Serif" font-size="10.00">inmost_common.h</text>
</a>
</g>
</g>
<!-- Node1&#45;&gt;Node2 -->
<g id="edge1" class="edge"><title>Node1&#45;&gt;Node2</title>
<path fill="none" stroke="midnightblue" d="M340.674,-453.573C402.134,-441.333 482,-412.774 482,-347 482,-347 482,-347 482,-233 482,-192.93 447.285,-157.077 424.474,-137.844"/>
<polygon fill="midnightblue" stroke="midnightblue" points="426.666,-135.115 416.695,-131.532 422.255,-140.551 426.666,-135.115"/>
</g>
<!-- Node20 -->
<g id="node20" class="node"><title>Node20</title>
<polygon fill="none" stroke="#bfbfbf" points="21,-0.5 21,-19.5 55,-19.5 55,-0.5 21,-0.5"/>
<text text-anchor="middle" x="38" y="-7.5" font-family="Helvetica,sans-Serif" font-size="10.00">new</text>
</g>
<!-- Node1&#45;&gt;Node20 -->
<g id="edge47" class="edge"><title>Node1&#45;&gt;Node20</title>
<path fill="none" stroke="midnightblue" d="M201.211,-461.68C120.915,-456.61 0,-434.455 0,-347 0,-347 0,-347 0,-121 0,-86.8131 16.6005,-49.7639 27.8573,-28.5707"/>
<polygon fill="midnightblue" stroke="midnightblue" points="30.9473,-30.2151 32.7163,-19.769 24.8191,-26.832 30.9473,-30.2151"/>
</g>
<!-- Node24 -->
<g id="node24" class="node"><title>Node24</title>
<g id="a_node24"><a xlink:href="inmost__expression_8h.html" target="_top" xlink:title="inmost_expression.h">
<polygon fill="none" stroke="black" points="168.5,-224.5 168.5,-243.5 275.5,-243.5 275.5,-224.5 168.5,-224.5"/>
<text text-anchor="middle" x="222" y="-231.5" font-family="Helvetica,sans-Serif" font-size="10.00">inmost_expression.h</text>
</a>
</g>
</g>
<!-- Node1&#45;&gt;Node24 -->
<g id="edge26" class="edge"><title>Node1&#45;&gt;Node24</title>
<path fill="none" stroke="midnightblue" d="M267.935,-448.269C259.454,-408.895 235.674,-298.487 226.085,-253.965"/>
<polygon fill="midnightblue" stroke="midnightblue" points="229.45,-252.966 223.923,-243.927 222.607,-254.44 229.45,-252.966"/>
</g>
<!-- Node26 -->
<g id="node26" class="node"><title>Node26</title>
<polygon fill="none" stroke="#bfbfbf" points="288,-168.5 288,-187.5 340,-187.5 340,-168.5 288,-168.5"/>
<text text-anchor="middle" x="314" y="-175.5" font-family="Helvetica,sans-Serif" font-size="10.00">sstream</text>
</g>
<!-- Node1&#45;&gt;Node26 -->
<g id="edge46" class="edge"><title>Node1&#45;&gt;Node26</title>
<path fill="none" stroke="midnightblue" d="M331.993,-448.439C381.801,-432.916 444,-402.434 444,-347 444,-347 444,-347 444,-289 444,-239.123 387.544,-207.213 349.041,-191.25"/>
<polygon fill="midnightblue" stroke="midnightblue" points="350.27,-187.972 339.684,-187.534 347.686,-194.478 350.27,-187.972"/>
</g>
<!-- Node27 -->
<g id="node27" class="node"><title>Node27</title>
<g id="a_node27"><a xlink:href="inmost__mesh_8h.html" target="_top" xlink:title="inmost_mesh.h">
<polygon fill="none" stroke="black" points="299.5,-336.5 299.5,-355.5 382.5,-355.5 382.5,-336.5 299.5,-336.5"/>
<text text-anchor="middle" x="341" y="-343.5" font-family="Helvetica,sans-Serif" font-size="10.00">inmost_mesh.h</text>
</a>
</g>
</g>
<!-- Node1&#45;&gt;Node27 -->
<g id="edge32" class="edge"><title>Node1&#45;&gt;Node27</title>
<path fill="none" stroke="midnightblue" d="M279.583,-448.337C292.425,-427.149 316.61,-387.244 330.491,-364.34"/>
<polygon fill="midnightblue" stroke="midnightblue" points="333.556,-366.036 335.746,-355.669 327.57,-362.407 333.556,-366.036"/>
</g>
<!-- Node29 -->
<g id="node29" class="node"><title>Node29</title>
<g id="a_node29"><a xlink:href="inmost__autodiff_8h.html" target="_top" xlink:title="inmost_autodiff.h">
<polygon fill="none" stroke="black" points="148,-392.5 148,-411.5 238,-411.5 238,-392.5 148,-392.5"/>
<text text-anchor="middle" x="193" y="-399.5" font-family="Helvetica,sans-Serif" font-size="10.00">inmost_autodiff.h</text>
</a>
</g>
</g>
<!-- Node1&#45;&gt;Node29 -->
<g id="edge37" class="edge"><title>Node1&#45;&gt;Node29</title>
<path fill="none" stroke="midnightblue" d="M252.515,-448.399C240.48,-439.218 224.8,-427.258 212.557,-417.918"/>
<polygon fill="midnightblue" stroke="midnightblue" points="214.423,-414.94 204.35,-411.658 210.178,-420.506 214.423,-414.94"/>
</g>
<!-- Node30 -->
<g id="node30" class="node"><title>Node30</title>
<g id="a_node30"><a xlink:href="inmost__solver_8h.html" target="_top" xlink:title="inmost_solver.h">
<polygon fill="none" stroke="black" points="35,-280.5 35,-299.5 119,-299.5 119,-280.5 35,-280.5"/>
<text text-anchor="middle" x="77" y="-287.5" font-family="Helvetica,sans-Serif" font-size="10.00">inmost_solver.h</text>
</a>
</g>
</g>
<!-- Node1&#45;&gt;Node30 -->
<g id="edge45" class="edge"><title>Node1&#45;&gt;Node30</title>
<path fill="none" stroke="midnightblue" d="M218.587,-448.427C193.251,-440.176 163.174,-428.156 139,-412 110.509,-392.958 100.836,-386.891 86,-356 79.0643,-341.559 77.0327,-323.369 76.6102,-309.907"/>
<polygon fill="midnightblue" stroke="midnightblue" points="80.1102,-309.88 76.5614,-299.897 73.1102,-309.914 80.1102,-309.88"/>
</g>
<!-- Node3 -->
<g id="node3" class="node"><title>Node3</title>
<polygon fill="none" stroke="#bfbfbf" points="511.5,-56.5 511.5,-75.5 602.5,-75.5 602.5,-56.5 511.5,-56.5"/>
<text text-anchor="middle" x="557" y="-63.5" font-family="Helvetica,sans-Serif" font-size="10.00">inmost_options.h</text>
</g>
<!-- Node2&#45;&gt;Node3 -->
<g id="edge2" class="edge"><title>Node2&#45;&gt;Node3</title>
<path fill="none" stroke="midnightblue" d="M429.085,-112.444C454.545,-103.399 494.894,-89.064 523.459,-78.9158"/>
<polygon fill="midnightblue" stroke="midnightblue" points="524.777,-82.1622 533.028,-75.5164 522.433,-75.5661 524.777,-82.1622"/>
</g>
<!-- Node4 -->
<g id="node4" class="node"><title>Node4</title>
<polygon fill="none" stroke="#bfbfbf" points="620.5,-56.5 620.5,-75.5 661.5,-75.5 661.5,-56.5 620.5,-56.5"/>
<text text-anchor="middle" x="641" y="-63.5" font-family="Helvetica,sans-Serif" font-size="10.00">string</text>
</g>
<!-- Node2&#45;&gt;Node4 -->
<g id="edge3" class="edge"><title>Node2&#45;&gt;Node4</title>
<path fill="none" stroke="midnightblue" d="M449.684,-112.453C489.651,-104.547 550.004,-91.9692 610.723,-76.1757"/>
<polygon fill="midnightblue" stroke="midnightblue" points="611.687,-79.5413 620.469,-73.6135 609.907,-72.7714 611.687,-79.5413"/>
</g>
<!-- Node5 -->
<g id="node5" class="node"><title>Node5</title>
<polygon fill="none" stroke="#bfbfbf" points="680,-56.5 680,-75.5 722,-75.5 722,-56.5 680,-56.5"/>
<text text-anchor="middle" x="701" y="-63.5" font-family="Helvetica,sans-Serif" font-size="10.00">vector</text>
</g>
<!-- Node2&#45;&gt;Node5 -->
<g id="edge4" class="edge"><title>Node2&#45;&gt;Node5</title>
<path fill="none" stroke="midnightblue" d="M453.9,-114.581C505.44,-107.403 589.118,-94.5807 669.942,-76.0127"/>
<polygon fill="midnightblue" stroke="midnightblue" points="670.837,-79.3979 679.782,-73.7198 669.249,-72.5805 670.837,-79.3979"/>
</g>
<!-- Node6 -->
<g id="node6" class="node"><title>Node6</title>
<polygon fill="none" stroke="#bfbfbf" points="872,-56.5 872,-75.5 902,-75.5 902,-56.5 872,-56.5"/>
<text text-anchor="middle" x="887" y="-63.5" font-family="Helvetica,sans-Serif" font-size="10.00">set</text>
</g>
<!-- Node2&#45;&gt;Node6 -->
<g id="edge5" class="edge"><title>Node2&#45;&gt;Node6</title>
<path fill="none" stroke="midnightblue" d="M453.749,-119.381C537.269,-115.892 712.766,-105.435 858,-76 859.279,-75.7408 860.581,-75.4477 861.891,-75.1295"/>
<polygon fill="midnightblue" stroke="midnightblue" points="863.116,-78.4211 871.799,-72.3502 861.225,-71.6813 863.116,-78.4211"/>
</g>
<!-- Node7 -->
<g id="node7" class="node"><title>Node7</title>
<polygon fill="none" stroke="#bfbfbf" points="66.5,-56.5 66.5,-75.5 101.5,-75.5 101.5,-56.5 66.5,-56.5"/>
<text text-anchor="middle" x="84" y="-63.5" font-family="Helvetica,sans-Serif" font-size="10.00">map</text>
</g>
<!-- Node2&#45;&gt;Node7 -->
<g id="edge6" class="edge"><title>Node2&#45;&gt;Node7</title>
<path fill="none" stroke="midnightblue" d="M356.439,-116.332C299.605,-110.264 202.621,-98.0323 111.688,-76.0701"/>
<polygon fill="midnightblue" stroke="midnightblue" points="112.321,-72.6215 101.774,-73.6304 110.648,-79.4187 112.321,-72.6215"/>
</g>
<!-- Node8 -->
<g id="node8" class="node"><title>Node8</title>
<polygon fill="none" stroke="#bfbfbf" points="119.5,-56.5 119.5,-75.5 148.5,-75.5 148.5,-56.5 119.5,-56.5"/>
<text text-anchor="middle" x="134" y="-63.5" font-family="Helvetica,sans-Serif" font-size="10.00">list</text>
</g>
<!-- Node2&#45;&gt;Node8 -->
<g id="edge7" class="edge"><title>Node2&#45;&gt;Node8</title>
<path fill="none" stroke="midnightblue" d="M356.147,-114.727C308.057,-107.969 232.485,-95.7884 158.534,-75.6969"/>
<polygon fill="midnightblue" stroke="midnightblue" points="159.158,-72.2379 148.586,-72.9427 157.29,-78.9841 159.158,-72.2379"/>
</g>
<!-- Node9 -->
<g id="node9" class="node"><title>Node9</title>
<polygon fill="none" stroke="#bfbfbf" points="167,-56.5 167,-75.5 223,-75.5 223,-56.5 167,-56.5"/>
<text text-anchor="middle" x="195" y="-63.5" font-family="Helvetica,sans-Serif" font-size="10.00">algorithm</text>
</g>
<!-- Node2&#45;&gt;Node9 -->
<g id="edge8" class="edge"><title>Node2&#45;&gt;Node9</title>
<path fill="none" stroke="midnightblue" d="M371.725,-112.444C333.956,-102.731 272.47,-86.9208 232.888,-76.7426"/>
<polygon fill="midnightblue" stroke="midnightblue" points="233.636,-73.3211 223.079,-74.2203 231.892,-80.1005 233.636,-73.3211"/>
</g>
<!-- Node10 -->
<g id="node10" class="node"><title>Node10</title>
<polygon fill="none" stroke="#bfbfbf" points="944,-0.5 944,-19.5 988,-19.5 988,-0.5 944,-0.5"/>
<text text-anchor="middle" x="966" y="-7.5" font-family="Helvetica,sans-Serif" font-size="10.00">cmath</text>
</g>
<!-- Node2&#45;&gt;Node10 -->
<g id="edge9" class="edge"><title>Node2&#45;&gt;Node10</title>
<path fill="none" stroke="midnightblue" d="M453.724,-121.314C564.596,-121.293 832.227,-116.872 911,-76 931.236,-65.5006 947.051,-44.0623 956.427,-28.675"/>
<polygon fill="midnightblue" stroke="midnightblue" points="959.688,-30.0261 961.641,-19.6129 953.62,-26.5352 959.688,-30.0261"/>
</g>
<!-- Node11 -->
<g id="node11" class="node"><title>Node11</title>
<polygon fill="none" stroke="#bfbfbf" points="241,-56.5 241,-75.5 295,-75.5 295,-56.5 241,-56.5"/>
<text text-anchor="middle" x="268" y="-63.5" font-family="Helvetica,sans-Serif" font-size="10.00">iostream</text>
</g>
<!-- Node2&#45;&gt;Node11 -->
<g id="edge10" class="edge"><title>Node2&#45;&gt;Node11</title>
<path fill="none" stroke="midnightblue" d="M383.292,-112.444C360.645,-103.517 324.928,-89.4387 299.248,-79.3168"/>
<polygon fill="midnightblue" stroke="midnightblue" points="300.193,-75.9273 289.606,-75.5164 297.626,-82.4397 300.193,-75.9273"/>
</g>
<!-- Node12 -->
<g id="node12" class="node"><title>Node12</title>
<polygon fill="none" stroke="#bfbfbf" points="313.5,-56.5 313.5,-75.5 362.5,-75.5 362.5,-56.5 313.5,-56.5"/>
<text text-anchor="middle" x="338" y="-63.5" font-family="Helvetica,sans-Serif" font-size="10.00">fstream</text>
</g>
<!-- Node2&#45;&gt;Node12 -->
<g id="edge11" class="edge"><title>Node2&#45;&gt;Node12</title>
<path fill="none" stroke="midnightblue" d="M394.235,-112.324C384.234,-104.263 369.113,-92.0765 357.07,-82.3695"/>
<polygon fill="midnightblue" stroke="midnightblue" points="358.943,-79.3841 348.961,-75.8339 354.55,-84.8343 358.943,-79.3841"/>
</g>
<!-- Node13 -->
<g id="node13" class="node"><title>Node13</title>
<polygon fill="none" stroke="#bfbfbf" points="878,-0.5 878,-19.5 926,-19.5 926,-0.5 878,-0.5"/>
<text text-anchor="middle" x="902" y="-7.5" font-family="Helvetica,sans-Serif" font-size="10.00">stdlib.h</text>
</g>
<!-- Node2&#45;&gt;Node13 -->
<g id="edge12" class="edge"><title>Node2&#45;&gt;Node13</title>
<path fill="none" stroke="midnightblue" d="M453.608,-119.354C549.44,-115.531 759.169,-104.137 825,-76 850.517,-65.0936 873.975,-42.7469 888.129,-27.3248"/>
<polygon fill="midnightblue" stroke="midnightblue" points="890.975,-29.391 894.989,-19.5861 885.737,-24.7476 890.975,-29.391"/>
</g>
<!-- Node14 -->
<g id="node14" class="node"><title>Node14</title>
<polygon fill="none" stroke="#bfbfbf" points="381,-56.5 381,-75.5 427,-75.5 427,-56.5 381,-56.5"/>
<text text-anchor="middle" x="404" y="-63.5" font-family="Helvetica,sans-Serif" font-size="10.00">stdio.h</text>
</g>
<!-- Node2&#45;&gt;Node14 -->
<g id="edge13" class="edge"><title>Node2&#45;&gt;Node14</title>
<path fill="none" stroke="midnightblue" d="M404.835,-112.083C404.704,-105.006 404.516,-94.8611 404.352,-85.9865"/>
<polygon fill="midnightblue" stroke="midnightblue" points="407.847,-85.6845 404.162,-75.7511 400.848,-85.8142 407.847,-85.6845"/>
</g>
<!-- Node15 -->
<g id="node15" class="node"><title>Node15</title>
<polygon fill="none" stroke="#bfbfbf" points="445,-56.5 445,-75.5 493,-75.5 493,-56.5 445,-56.5"/>
<text text-anchor="middle" x="469" y="-63.5" font-family="Helvetica,sans-Serif" font-size="10.00">limits.h</text>
</g>
<!-- Node2&#45;&gt;Node15 -->
<g id="edge14" class="edge"><title>Node2&#45;&gt;Node15</title>
<path fill="none" stroke="midnightblue" d="M415.283,-112.324C424.836,-104.263 439.28,-92.0765 450.784,-82.3695"/>
<polygon fill="midnightblue" stroke="midnightblue" points="453.144,-84.9577 458.53,-75.8339 448.63,-79.6076 453.144,-84.9577"/>
</g>
<!-- Node16 -->
<g id="node16" class="node"><title>Node16</title>
<g id="a_node16"><a xlink:href="container_8hpp.html" target="_top" xlink:title="container.hpp">
<polygon fill="none" stroke="black" points="740.5,-56.5 740.5,-75.5 815.5,-75.5 815.5,-56.5 740.5,-56.5"/>
<text text-anchor="middle" x="778" y="-63.5" font-family="Helvetica,sans-Serif" font-size="10.00">container.hpp</text>
</a>
</g>
</g>
<!-- Node2&#45;&gt;Node16 -->
<g id="edge15" class="edge"><title>Node2&#45;&gt;Node16</title>
<path fill="none" stroke="midnightblue" d="M453.772,-114.268C516.161,-106.144 627.149,-91.617 722,-76 724.767,-75.5445 727.621,-75.0526 730.512,-74.542"/>
<polygon fill="midnightblue" stroke="midnightblue" points="731.189,-77.9764 740.41,-72.7586 729.947,-71.0873 731.189,-77.9764"/>
</g>
<!-- Node16&#45;&gt;Node2 -->
<g id="edge25" class="edge"><title>Node16&#45;&gt;Node2</title>
<path fill="none" stroke="midnightblue" d="M742.98,-75.5011C741.978,-75.6715 740.984,-75.838 740,-76 643.748,-91.8477 530.878,-106.573 463.7,-114.624"/>
<polygon fill="midnightblue" stroke="midnightblue" points="463.24,-111.153 453.724,-115.81 464.067,-118.104 463.24,-111.153"/>
</g>
<!-- Node16&#45;&gt;Node10 -->
<g id="edge22" class="edge"><title>Node16&#45;&gt;Node10</title>
<path fill="none" stroke="midnightblue" d="M807.815,-56.4872C837.489,-48.007 884.586,-34.529 934.339,-20.1841"/>
<polygon fill="midnightblue" stroke="midnightblue" points="935.349,-23.5354 943.987,-17.4008 933.409,-16.8096 935.349,-23.5354"/>
</g>
<!-- Node16&#45;&gt;Node13 -->
<g id="edge16" class="edge"><title>Node16&#45;&gt;Node13</title>
<path fill="none" stroke="midnightblue" d="M797.648,-56.4435C817.965,-47.5961 849.903,-33.6875 873.098,-23.5865"/>
<polygon fill="midnightblue" stroke="midnightblue" points="874.673,-26.7181 882.444,-19.5164 871.878,-20.3002 874.673,-26.7181"/>
</g>
<!-- Node17 -->
<g id="node17" class="node"><title>Node17</title>
<polygon fill="none" stroke="#bfbfbf" points="535.5,-0.5 535.5,-19.5 586.5,-19.5 586.5,-0.5 535.5,-0.5"/>
<text text-anchor="middle" x="561" y="-7.5" font-family="Helvetica,sans-Serif" font-size="10.00">stddef.h</text>
</g>
<!-- Node16&#45;&gt;Node17 -->
<g id="edge17" class="edge"><title>Node16&#45;&gt;Node17</title>
<path fill="none" stroke="midnightblue" d="M742.53,-56.4741C707.646,-48.0459 652.63,-34.6376 596.378,-20.3228"/>
<polygon fill="midnightblue" stroke="midnightblue" points="597.162,-16.9107 586.607,-17.8301 595.432,-23.6935 597.162,-16.9107"/>
</g>
<!-- Node18 -->
<g id="node18" class="node"><title>Node18</title>
<polygon fill="none" stroke="#bfbfbf" points="604.5,-0.5 604.5,-19.5 653.5,-19.5 653.5,-0.5 604.5,-0.5"/>
<text text-anchor="middle" x="629" y="-7.5" font-family="Helvetica,sans-Serif" font-size="10.00">string.h</text>
</g>
<!-- Node16&#45;&gt;Node18 -->
<g id="edge18" class="edge"><title>Node16&#45;&gt;Node18</title>
<path fill="none" stroke="midnightblue" d="M754.391,-56.4435C729.542,-47.4381 690.226,-33.1891 662.246,-23.049"/>
<polygon fill="midnightblue" stroke="midnightblue" points="663.093,-19.6332 652.499,-19.5164 660.708,-26.2144 663.093,-19.6332"/>
</g>
<!-- Node19 -->
<g id="node19" class="node"><title>Node19</title>
<polygon fill="none" stroke="#bfbfbf" points="672,-0.5 672,-19.5 724,-19.5 724,-0.5 672,-0.5"/>
<text text-anchor="middle" x="698" y="-7.5" font-family="Helvetica,sans-Serif" font-size="10.00">memory</text>
</g>
<!-- Node16&#45;&gt;Node19 -->
<g id="edge19" class="edge"><title>Node16&#45;&gt;Node19</title>
<path fill="none" stroke="midnightblue" d="M765.147,-56.324C752.784,-47.979 733.87,-35.2122 719.263,-25.3524"/>
<polygon fill="midnightblue" stroke="midnightblue" points="721.068,-22.3483 710.821,-19.6545 717.152,-28.1503 721.068,-22.3483"/>
</g>
<!-- Node16&#45;&gt;Node20 -->
<g id="edge20" class="edge"><title>Node16&#45;&gt;Node20</title>
<path fill="none" stroke="midnightblue" d="M740.356,-57.3646C737.199,-56.8543 734.049,-56.3894 731,-56 473.311,-23.0908 158.47,-13.7005 65.235,-11.552"/>
<polygon fill="midnightblue" stroke="midnightblue" points="65.2951,-8.05262 55.2199,-11.3299 65.1398,-15.0509 65.2951,-8.05262"/>
</g>
<!-- Node21 -->
<g id="node21" class="node"><title>Node21</title>
<polygon fill="none" stroke="#bfbfbf" points="742.5,-0.5 742.5,-19.5 789.5,-19.5 789.5,-0.5 742.5,-0.5"/>
<text text-anchor="middle" x="766" y="-7.5" font-family="Helvetica,sans-Serif" font-size="10.00">iterator</text>
</g>
<!-- Node16&#45;&gt;Node21 -->
<g id="edge21" class="edge"><title>Node16&#45;&gt;Node21</title>
<path fill="none" stroke="midnightblue" d="M776.018,-56.083C774.428,-48.9272 772.141,-38.6353 770.154,-29.6911"/>
<polygon fill="midnightblue" stroke="midnightblue" points="773.531,-28.7537 767.945,-19.7511 766.697,-30.2722 773.531,-28.7537"/>
</g>
<!-- Node22 -->
<g id="node22" class="node"><title>Node22</title>
<polygon fill="none" stroke="#bfbfbf" points="808,-0.5 808,-19.5 860,-19.5 860,-0.5 808,-0.5"/>
<text text-anchor="middle" x="834" y="-7.5" font-family="Helvetica,sans-Serif" font-size="10.00">assert.h</text>
</g>
<!-- Node16&#45;&gt;Node22 -->
<g id="edge23" class="edge"><title>Node16&#45;&gt;Node22</title>
<path fill="none" stroke="midnightblue" d="M786.997,-56.324C795.194,-48.4196 807.506,-36.5482 817.472,-26.9377"/>
<polygon fill="midnightblue" stroke="midnightblue" points="820.07,-29.2947 824.839,-19.8339 815.211,-24.2558 820.07,-29.2947"/>
</g>
<!-- Node23 -->
<g id="node23" class="node"><title>Node23</title>
<polygon fill="none" stroke="#bfbfbf" points="477,-0.5 477,-19.5 517,-19.5 517,-0.5 477,-0.5"/>
<text text-anchor="middle" x="497" y="-7.5" font-family="Helvetica,sans-Serif" font-size="10.00">limits</text>
</g>
<!-- Node16&#45;&gt;Node23 -->
<g id="edge24" class="edge"><title>Node16&#45;&gt;Node23</title>
<path fill="none" stroke="midnightblue" d="M740.3,-57.728C737.155,-57.1374 734.023,-56.5549 731,-56 643.124,-39.8714 617.637,-41.6079 527.057,-20.008"/>
<polygon fill="midnightblue" stroke="midnightblue" points="527.732,-16.5706 517.19,-17.6253 526.089,-23.375 527.732,-16.5706"/>
</g>
<!-- Node24&#45;&gt;Node2 -->
<g id="edge27" class="edge"><title>Node24&#45;&gt;Node2</title>
<path fill="none" stroke="midnightblue" d="M227.57,-224.151C236.706,-210.311 256.16,-183.524 279,-168 302.132,-152.278 331.379,-141.39 355.871,-134.267"/>
<polygon fill="midnightblue" stroke="midnightblue" points="356.998,-137.587 365.695,-131.535 355.122,-130.843 356.998,-137.587"/>
</g>
<!-- Node24&#45;&gt;Node20 -->
<g id="edge31" class="edge"><title>Node24&#45;&gt;Node20</title>
<path fill="none" stroke="midnightblue" d="M221.221,-224.128C219.646,-210.728 215.038,-185.081 202,-168 155.693,-107.332 102.878,-136.993 57,-76 46.9512,-62.6405 42.2037,-44.0693 39.9685,-30.1971"/>
<polygon fill="midnightblue" stroke="midnightblue" points="43.3852,-29.3303 38.6207,-19.8672 36.444,-30.236 43.3852,-29.3303"/>
</g>
<!-- Node25 -->
<g id="node25" class="node"><title>Node25</title>
<g id="a_node25"><a xlink:href="inmost__sparse_8h.html" target="_top" xlink:title="inmost_sparse.h">
<polygon fill="none" stroke="black" points="104.5,-168.5 104.5,-187.5 193.5,-187.5 193.5,-168.5 104.5,-168.5"/>
<text text-anchor="middle" x="149" y="-175.5" font-family="Helvetica,sans-Serif" font-size="10.00">inmost_sparse.h</text>
</a>
</g>
</g>
<!-- Node24&#45;&gt;Node25 -->
<g id="edge28" class="edge"><title>Node24&#45;&gt;Node25</title>
<path fill="none" stroke="midnightblue" d="M210.271,-224.324C199.163,-216.107 182.258,-203.602 169.017,-193.807"/>
<polygon fill="midnightblue" stroke="midnightblue" points="171.063,-190.967 160.942,-187.834 166.9,-196.595 171.063,-190.967"/>
</g>
<!-- Node24&#45;&gt;Node26 -->
<g id="edge30" class="edge"><title>Node24&#45;&gt;Node26</title>
<path fill="none" stroke="midnightblue" d="M236.781,-224.324C251.267,-215.822 273.573,-202.729 290.493,-192.797"/>
<polygon fill="midnightblue" stroke="midnightblue" points="292.403,-195.735 299.255,-187.655 288.859,-189.698 292.403,-195.735"/>
</g>
<!-- Node25&#45;&gt;Node2 -->
<g id="edge29" class="edge"><title>Node25&#45;&gt;Node2</title>
<path fill="none" stroke="midnightblue" d="M189.564,-168.444C234.316,-159.004 306.383,-143.802 354.695,-133.611"/>
<polygon fill="midnightblue" stroke="midnightblue" points="355.564,-137.005 364.626,-131.516 354.119,-130.156 355.564,-137.005"/>
</g>
<!-- Node27&#45;&gt;Node2 -->
<g id="edge33" class="edge"><title>Node27&#45;&gt;Node2</title>
<path fill="none" stroke="midnightblue" d="M353.959,-336.329C364.796,-328.295 379.631,-315.299 387,-300 412.419,-247.227 410.055,-175.51 407.122,-141.876"/>
<polygon fill="midnightblue" stroke="midnightblue" points="410.579,-141.265 406.106,-131.661 403.613,-141.958 410.579,-141.265"/>
</g>
<!-- Node28 -->
<g id="node28" class="node"><title>Node28</title>
<g id="a_node28"><a xlink:href="inmost__data_8h.html" target="_top" xlink:title="inmost_data.h">
<polygon fill="none" stroke="black" points="300,-280.5 300,-299.5 378,-299.5 378,-280.5 300,-280.5"/>
<text text-anchor="middle" x="339" y="-287.5" font-family="Helvetica,sans-Serif" font-size="10.00">inmost_data.h</text>
</a>
</g>
</g>
<!-- Node27&#45;&gt;Node28 -->
<g id="edge34" class="edge"><title>Node27&#45;&gt;Node28</title>
<path fill="none" stroke="midnightblue" d="M340.67,-336.083C340.408,-329.006 340.032,-318.861 339.703,-309.986"/>
<polygon fill="midnightblue" stroke="midnightblue" points="343.192,-309.615 339.324,-299.751 336.197,-309.874 343.192,-309.615"/>
</g>
<!-- Node28&#45;&gt;Node2 -->
<g id="edge35" class="edge"><title>Node28&#45;&gt;Node2</title>
<path fill="none" stroke="midnightblue" d="M342.548,-280.075C352.982,-253.832 383.711,-176.545 397.797,-141.117"/>
<polygon fill="midnightblue" stroke="midnightblue" points="401.151,-142.154 401.593,-131.568 394.646,-139.567 401.151,-142.154"/>
</g>
<!-- Node28&#45;&gt;Node24 -->
<g id="edge36" class="edge"><title>Node28&#45;&gt;Node24</title>
<path fill="none" stroke="midnightblue" d="M320.461,-280.444C301.377,-271.636 271.425,-257.812 249.564,-247.722"/>
<polygon fill="midnightblue" stroke="midnightblue" points="250.999,-244.529 240.452,-243.516 248.065,-250.885 250.999,-244.529"/>
</g>
<!-- Node29&#45;&gt;Node2 -->
<g id="edge38" class="edge"><title>Node29&#45;&gt;Node2</title>
<path fill="none" stroke="midnightblue" d="M189.668,-392.084C184.905,-379.48 175.755,-355.783 167,-336 134.125,-261.714 41.844,-229.429 95,-168 126.823,-131.224 265.489,-123.87 346.177,-122.778"/>
<polygon fill="midnightblue" stroke="midnightblue" points="346.237,-126.277 356.199,-122.67 346.162,-119.278 346.237,-126.277"/>
</g>
<!-- Node29&#45;&gt;Node26 -->
<g id="edge43" class="edge"><title>Node29&#45;&gt;Node26</title>
<path fill="none" stroke="midnightblue" d="M198.423,-392.308C212.999,-368.807 253.952,-301.879 284,-244 292.134,-228.333 300.476,-210.042 306.293,-196.862"/>
<polygon fill="midnightblue" stroke="midnightblue" points="309.571,-198.1 310.363,-187.535 303.155,-195.3 309.571,-198.1"/>
</g>
<!-- Node29&#45;&gt;Node27 -->
<g id="edge39" class="edge"><title>Node29&#45;&gt;Node27</title>
<path fill="none" stroke="midnightblue" d="M216.451,-392.444C241.133,-383.438 280.185,-369.189 307.977,-359.049"/>
<polygon fill="midnightblue" stroke="midnightblue" points="309.464,-362.232 317.659,-355.516 307.065,-355.656 309.464,-362.232"/>
</g>
<!-- Node29&#45;&gt;Node30 -->
<g id="edge40" class="edge"><title>Node29&#45;&gt;Node30</title>
<path fill="none" stroke="midnightblue" d="M162.838,-392.435C143.188,-385.475 118.27,-373.841 102,-356 90.1718,-343.029 83.7189,-323.864 80.3487,-309.702"/>
<polygon fill="midnightblue" stroke="midnightblue" points="83.7184,-308.714 78.263,-299.632 76.8638,-310.134 83.7184,-308.714"/>
</g>
<!-- Node31 -->
<g id="node31" class="node"><title>Node31</title>
<polygon fill="none" stroke="#bfbfbf" points="111.5,-336.5 111.5,-355.5 158.5,-355.5 158.5,-336.5 111.5,-336.5"/>
<text text-anchor="middle" x="135" y="-343.5" font-family="Helvetica,sans-Serif" font-size="10.00">math.h</text>
</g>
<!-- Node29&#45;&gt;Node31 -->
<g id="edge44" class="edge"><title>Node29&#45;&gt;Node31</title>
<path fill="none" stroke="midnightblue" d="M183.681,-392.324C175.107,-384.341 162.188,-372.313 151.812,-362.653"/>
<polygon fill="midnightblue" stroke="midnightblue" points="154.192,-360.086 144.488,-355.834 149.422,-365.21 154.192,-360.086"/>
</g>
<!-- Node30&#45;&gt;Node2 -->
<g id="edge41" class="edge"><title>Node30&#45;&gt;Node2</title>
<path fill="none" stroke="midnightblue" d="M72.0437,-280.39C60.2159,-258.588 33.3811,-200.619 62,-168 80.4211,-147.004 253.189,-132.76 346.259,-126.542"/>
<polygon fill="midnightblue" stroke="midnightblue" points="346.629,-130.026 356.378,-125.877 346.17,-123.041 346.629,-130.026"/>
</g>
<!-- Node30&#45;&gt;Node25 -->
<g id="edge42" class="edge"><title>Node30&#45;&gt;Node25</title>
<path fill="none" stroke="midnightblue" d="M82.6497,-280.368C94.5318,-262.215 122.294,-219.802 137.879,-195.99"/>
<polygon fill="midnightblue" stroke="midnightblue" points="140.828,-197.875 143.377,-187.591 134.971,-194.042 140.828,-197.875"/>
</g>
</g>
</svg>
