<?xml version="1.0" encoding="UTF-8" standalone="no"?>
<!DOCTYPE svg PUBLIC "-//W3C//DTD SVG 1.1//EN"
 "http://www.w3.org/Graphics/SVG/1.1/DTD/svg11.dtd">
<!-- Generated by graphviz version 2.38.0 (20140413.2041)
 -->
<!-- Title: INMOST.lib/Source/Headers/inmost_data.h Pages: 1 -->
<svg width="895pt" height="319pt"
 viewBox="0.00 0.00 895.42 319.00" xmlns="http://www.w3.org/2000/svg" xmlns:xlink="http://www.w3.org/1999/xlink">
<g id="graph0" class="graph" transform="scale(1 1) rotate(0) translate(4 315)">
<title>INMOST.lib/Source/Headers/inmost_data.h</title>
<!-- Node1 -->
<g id="node1" class="node"><title>Node1</title>
<polygon fill="#bfbfbf" stroke="black" points="335.5,-280.5 335.5,-310.5 474.5,-310.5 474.5,-280.5 335.5,-280.5"/>
<text text-anchor="start" x="343.5" y="-298.5" font-family="Helvetica,sans-Serif" font-size="10.00">INMOST.lib/Source/Headers</text>
<text text-anchor="middle" x="405" y="-287.5" font-family="Helvetica,sans-Serif" font-size="10.00">/inmost_data.h</text>
</g>
<!-- Node2 -->
<g id="node2" class="node"><title>Node2</title>
<g id="a_node2"><a xlink:href="inmost__common_8h.html" target="_top" xlink:title="inmost_common.h">
<polygon fill="none" stroke="black" points="329.5,-112.5 329.5,-131.5 426.5,-131.5 426.5,-112.5 329.5,-112.5"/>
<text text-anchor="middle" x="378" y="-119.5" font-family="Helvetica,sans-Serif" font-size="10.00">inmost_common.h</text>
</a>
</g>
</g>
<!-- Node1&#45;&gt;Node2 -->
<g id="edge1" class="edge"><title>Node1&#45;&gt;Node2</title>
<path fill="none" stroke="midnightblue" d="M399.139,-280.172C395.319,-270.2 390.581,-256.502 388,-244 380.638,-208.342 378.658,-165.715 378.149,-141.758"/>
<polygon fill="midnightblue" stroke="midnightblue" points="381.647,-141.557 378,-131.61 374.647,-141.66 381.647,-141.557"/>
</g>
<!-- Node24 -->
<g id="node24" class="node"><title>Node24</title>
<g id="a_node24"><a xlink:href="inmost__expression_8h.html" target="_top" xlink:title="inmost_expression.h">
<polygon fill="none" stroke="black" points="397.5,-224.5 397.5,-243.5 504.5,-243.5 504.5,-224.5 397.5,-224.5"/>
<text text-anchor="middle" x="451" y="-231.5" font-family="Helvetica,sans-Serif" font-size="10.00">inmost_expression.h</text>
</a>
</g>
</g>
<!-- Node1&#45;&gt;Node24 -->
<g id="edge26" class="edge"><title>Node1&#45;&gt;Node24</title>
<path fill="none" stroke="midnightblue" d="M415.901,-280.399C422.586,-271.753 431.176,-260.642 438.185,-251.576"/>
<polygon fill="midnightblue" stroke="midnightblue" points="440.959,-253.71 444.307,-243.658 435.421,-249.428 440.959,-253.71"/>
</g>
<!-- Node3 -->
<g id="node3" class="node"><title>Node3</title>
<polygon fill="none" stroke="#bfbfbf" points="663.5,-56.5 663.5,-75.5 754.5,-75.5 754.5,-56.5 663.5,-56.5"/>
<text text-anchor="middle" x="709" y="-63.5" font-family="Helvetica,sans-Serif" font-size="10.00">inmost_options.h</text>
</g>
<!-- Node2&#45;&gt;Node3 -->
<g id="edge2" class="edge"><title>Node2&#45;&gt;Node3</title>
<path fill="none" stroke="midnightblue" d="M426.861,-113.042C479.978,-104.389 567.653,-90.1014 653.47,-76.0858"/>
<polygon fill="midnightblue" stroke="midnightblue" points="654.077,-79.5332 663.382,-74.4669 652.948,-72.6247 654.077,-79.5332"/>
</g>
<!-- Node4 -->
<g id="node4" class="node"><title>Node4</title>
<polygon fill="none" stroke="#bfbfbf" points="772.5,-56.5 772.5,-75.5 813.5,-75.5 813.5,-56.5 772.5,-56.5"/>
<text text-anchor="middle" x="793" y="-63.5" font-family="Helvetica,sans-Serif" font-size="10.00">string</text>
</g>
<!-- Node2&#45;&gt;Node4 -->
<g id="edge3" class="edge"><title>Node2&#45;&gt;Node4</title>
<path fill="none" stroke="midnightblue" d="M426.754,-118.048C498.388,-113.11 636.322,-101.318 762.619,-75.7072"/>
<polygon fill="midnightblue" stroke="midnightblue" points="763.377,-79.1245 772.465,-73.6773 761.964,-72.2687 763.377,-79.1245"/>
</g>
<!-- Node5 -->
<g id="node5" class="node"><title>Node5</title>
<polygon fill="none" stroke="#bfbfbf" points="832,-56.5 832,-75.5 874,-75.5 874,-56.5 832,-56.5"/>
<text text-anchor="middle" x="853" y="-63.5" font-family="Helvetica,sans-Serif" font-size="10.00">vector</text>
</g>
<!-- Node2&#45;&gt;Node5 -->
<g id="edge4" class="edge"><title>Node2&#45;&gt;Node5</title>
<path fill="none" stroke="midnightblue" d="M426.71,-118.957C508.877,-114.868 679.962,-103.579 822,-76 822.1,-75.9806 822.2,-75.9611 822.3,-75.9414"/>
<polygon fill="midnightblue" stroke="midnightblue" points="822.846,-79.4084 831.779,-73.7115 821.243,-72.5944 822.846,-79.4084"/>
</g>
<!-- Node6 -->
<g id="node6" class="node"><title>Node6</title>
<polygon fill="none" stroke="#bfbfbf" points="0,-56.5 0,-75.5 30,-75.5 30,-56.5 0,-56.5"/>
<text text-anchor="middle" x="15" y="-63.5" font-family="Helvetica,sans-Serif" font-size="10.00">set</text>
</g>
<!-- Node2&#45;&gt;Node6 -->
<g id="edge5" class="edge"><title>Node2&#45;&gt;Node6</title>
<path fill="none" stroke="midnightblue" d="M329.353,-118.02C264.875,-113.309 147.631,-102.101 39.8058,-75.6774"/>
<polygon fill="midnightblue" stroke="midnightblue" points="40.6207,-72.2735 30.0703,-73.243 38.9226,-79.0644 40.6207,-72.2735"/>
</g>
<!-- Node7 -->
<g id="node7" class="node"><title>Node7</title>
<polygon fill="none" stroke="#bfbfbf" points="48.5,-56.5 48.5,-75.5 83.5,-75.5 83.5,-56.5 48.5,-56.5"/>
<text text-anchor="middle" x="66" y="-63.5" font-family="Helvetica,sans-Serif" font-size="10.00">map</text>
</g>
<!-- Node2&#45;&gt;Node7 -->
<g id="edge6" class="edge"><title>Node2&#45;&gt;Node7</title>
<path fill="none" stroke="midnightblue" d="M329.404,-116.012C274.148,-109.754 181.194,-97.4459 93.6029,-76.0624"/>
<polygon fill="midnightblue" stroke="midnightblue" points="94.3262,-72.6357 83.7771,-73.6191 92.637,-79.4288 94.3262,-72.6357"/>
</g>
<!-- Node8 -->
<g id="node8" class="node"><title>Node8</title>
<polygon fill="none" stroke="#bfbfbf" points="101.5,-56.5 101.5,-75.5 130.5,-75.5 130.5,-56.5 101.5,-56.5"/>
<text text-anchor="middle" x="116" y="-63.5" font-family="Helvetica,sans-Serif" font-size="10.00">list</text>
</g>
<!-- Node2&#45;&gt;Node8 -->
<g id="edge7" class="edge"><title>Node2&#45;&gt;Node8</title>
<path fill="none" stroke="midnightblue" d="M329.118,-114.274C282.784,-107.338 211.181,-95.1719 140.548,-75.72"/>
<polygon fill="midnightblue" stroke="midnightblue" points="141.164,-72.2579 130.591,-72.9267 139.274,-78.9977 141.164,-72.2579"/>
</g>
<!-- Node9 -->
<g id="node9" class="node"><title>Node9</title>
<polygon fill="none" stroke="#bfbfbf" points="149,-56.5 149,-75.5 205,-75.5 205,-56.5 149,-56.5"/>
<text text-anchor="middle" x="177" y="-63.5" font-family="Helvetica,sans-Serif" font-size="10.00">algorithm</text>
</g>
<!-- Node2&#45;&gt;Node9 -->
<g id="edge8" class="edge"><title>Node2&#45;&gt;Node9</title>
<path fill="none" stroke="midnightblue" d="M346.151,-112.444C310.484,-102.861 252.719,-87.3424 214.794,-77.1537"/>
<polygon fill="midnightblue" stroke="midnightblue" points="215.698,-73.7725 205.133,-74.558 213.882,-80.5328 215.698,-73.7725"/>
</g>
<!-- Node10 -->
<g id="node10" class="node"><title>Node10</title>
<polygon fill="none" stroke="#bfbfbf" points="151,-0.5 151,-19.5 195,-19.5 195,-0.5 151,-0.5"/>
<text text-anchor="middle" x="173" y="-7.5" font-family="Helvetica,sans-Serif" font-size="10.00">cmath</text>
</g>
<!-- Node2&#45;&gt;Node10 -->
<g id="edge9" class="edge"><title>Node2&#45;&gt;Node10</title>
<path fill="none" stroke="midnightblue" d="M352.149,-112.349C329.176,-104.237 294.995,-91.1153 267,-76 239.543,-61.1754 210.346,-40.0347 191.909,-25.9327"/>
<polygon fill="midnightblue" stroke="midnightblue" points="193.827,-22.9905 183.777,-19.6338 189.54,-28.5246 193.827,-22.9905"/>
</g>
<!-- Node11 -->
<g id="node11" class="node"><title>Node11</title>
<polygon fill="none" stroke="#bfbfbf" points="393,-56.5 393,-75.5 447,-75.5 447,-56.5 393,-56.5"/>
<text text-anchor="middle" x="420" y="-63.5" font-family="Helvetica,sans-Serif" font-size="10.00">iostream</text>
</g>
<!-- Node2&#45;&gt;Node11 -->
<g id="edge10" class="edge"><title>Node2&#45;&gt;Node11</title>
<path fill="none" stroke="midnightblue" d="M384.935,-112.083C390.929,-104.377 399.752,-93.0333 407.048,-83.6531"/>
<polygon fill="midnightblue" stroke="midnightblue" points="409.817,-85.7934 413.194,-75.7511 404.291,-81.4958 409.817,-85.7934"/>
</g>
<!-- Node12 -->
<g id="node12" class="node"><title>Node12</title>
<polygon fill="none" stroke="#bfbfbf" points="465.5,-56.5 465.5,-75.5 514.5,-75.5 514.5,-56.5 465.5,-56.5"/>
<text text-anchor="middle" x="490" y="-63.5" font-family="Helvetica,sans-Serif" font-size="10.00">fstream</text>
</g>
<!-- Node2&#45;&gt;Node12 -->
<g id="edge11" class="edge"><title>Node2&#45;&gt;Node12</title>
<path fill="none" stroke="midnightblue" d="M395.995,-112.324C414.038,-103.625 442.047,-90.1202 462.803,-80.113"/>
<polygon fill="midnightblue" stroke="midnightblue" points="464.562,-83.1502 472.05,-75.6545 461.522,-76.8449 464.562,-83.1502"/>
</g>
<!-- Node13 -->
<g id="node13" class="node"><title>Node13</title>
<polygon fill="none" stroke="#bfbfbf" points="213,-0.5 213,-19.5 261,-19.5 261,-0.5 213,-0.5"/>
<text text-anchor="middle" x="237" y="-7.5" font-family="Helvetica,sans-Serif" font-size="10.00">stdlib.h</text>
</g>
<!-- Node2&#45;&gt;Node13 -->
<g id="edge12" class="edge"><title>Node2&#45;&gt;Node13</title>
<path fill="none" stroke="midnightblue" d="M355.153,-112.41C336.434,-104.679 309.885,-92.0711 290,-76 272.907,-62.1855 257.546,-42.0653 247.816,-27.8773"/>
<polygon fill="midnightblue" stroke="midnightblue" points="250.724,-25.9284 242.274,-19.5363 244.893,-29.8024 250.724,-25.9284"/>
</g>
<!-- Node14 -->
<g id="node14" class="node"><title>Node14</title>
<polygon fill="none" stroke="#bfbfbf" points="533,-56.5 533,-75.5 579,-75.5 579,-56.5 533,-56.5"/>
<text text-anchor="middle" x="556" y="-63.5" font-family="Helvetica,sans-Serif" font-size="10.00">stdio.h</text>
</g>
<!-- Node2&#45;&gt;Node14 -->
<g id="edge13" class="edge"><title>Node2&#45;&gt;Node14</title>
<path fill="none" stroke="midnightblue" d="M406.205,-112.444C437.92,-102.822 489.366,-87.2147 522.944,-77.0283"/>
<polygon fill="midnightblue" stroke="midnightblue" points="524.196,-80.3061 532.749,-74.0537 522.163,-73.6076 524.196,-80.3061"/>
</g>
<!-- Node15 -->
<g id="node15" class="node"><title>Node15</title>
<polygon fill="none" stroke="#bfbfbf" points="597,-56.5 597,-75.5 645,-75.5 645,-56.5 597,-56.5"/>
<text text-anchor="middle" x="621" y="-63.5" font-family="Helvetica,sans-Serif" font-size="10.00">limits.h</text>
</g>
<!-- Node2&#45;&gt;Node15 -->
<g id="edge14" class="edge"><title>Node2&#45;&gt;Node15</title>
<path fill="none" stroke="midnightblue" d="M421.193,-112.47C461.598,-104.328 523.853,-91.3717 586.786,-76.195"/>
<polygon fill="midnightblue" stroke="midnightblue" points="587.998,-79.5024 596.889,-73.7405 586.346,-72.7003 587.998,-79.5024"/>
</g>
<!-- Node16 -->
<g id="node16" class="node"><title>Node16</title>
<g id="a_node16"><a xlink:href="container_8hpp.html" target="_top" xlink:title="container.hpp">
<polygon fill="none" stroke="black" points="299.5,-56.5 299.5,-75.5 374.5,-75.5 374.5,-56.5 299.5,-56.5"/>
<text text-anchor="middle" x="337" y="-63.5" font-family="Helvetica,sans-Serif" font-size="10.00">container.hpp</text>
</a>
</g>
</g>
<!-- Node2&#45;&gt;Node16 -->
<g id="edge15" class="edge"><title>Node2&#45;&gt;Node16</title>
<path fill="none" stroke="midnightblue" d="M366.063,-112.083C358.816,-104.613 350.149,-93.7244 343.936,-84.5199"/>
<polygon fill="midnightblue" stroke="midnightblue" points="346.75,-82.415 338.513,-75.7511 340.797,-86.097 346.75,-82.415"/>
</g>
<!-- Node16&#45;&gt;Node2 -->
<g id="edge25" class="edge"><title>Node16&#45;&gt;Node2</title>
<path fill="none" stroke="midnightblue" d="M348.775,-75.7511C356.078,-83.2484 364.859,-94.2747 371.121,-103.566"/>
<polygon fill="midnightblue" stroke="midnightblue" points="368.155,-105.424 376.396,-112.083 374.107,-101.738 368.155,-105.424"/>
</g>
<!-- Node16&#45;&gt;Node10 -->
<g id="edge22" class="edge"><title>Node16&#45;&gt;Node10</title>
<path fill="none" stroke="midnightblue" d="M311.014,-56.4435C282.288,-46.985 235.995,-31.7421 205.044,-21.551"/>
<polygon fill="midnightblue" stroke="midnightblue" points="205.776,-18.1073 195.183,-18.3042 203.587,-24.7562 205.776,-18.1073"/>
</g>
<!-- Node16&#45;&gt;Node13 -->
<g id="edge16" class="edge"><title>Node16&#45;&gt;Node13</title>
<path fill="none" stroke="midnightblue" d="M320.933,-56.324C305.042,-47.7428 280.493,-34.486 262.042,-24.5224"/>
<polygon fill="midnightblue" stroke="midnightblue" points="263.489,-21.3264 253.027,-19.6545 260.163,-27.4857 263.489,-21.3264"/>
</g>
<!-- Node17 -->
<g id="node17" class="node"><title>Node17</title>
<polygon fill="none" stroke="#bfbfbf" points="473.5,-0.5 473.5,-19.5 524.5,-19.5 524.5,-0.5 473.5,-0.5"/>
<text text-anchor="middle" x="499" y="-7.5" font-family="Helvetica,sans-Serif" font-size="10.00">stddef.h</text>
</g>
<!-- Node16&#45;&gt;Node17 -->
<g id="edge17" class="edge"><title>Node16&#45;&gt;Node17</title>
<path fill="none" stroke="midnightblue" d="M362.669,-56.4435C389.923,-47.3591 433.184,-32.9388 463.651,-22.7831"/>
<polygon fill="midnightblue" stroke="midnightblue" points="465.071,-25.9992 473.451,-19.5164 462.857,-19.3584 465.071,-25.9992"/>
</g>
<!-- Node18 -->
<g id="node18" class="node"><title>Node18</title>
<polygon fill="none" stroke="#bfbfbf" points="542.5,-0.5 542.5,-19.5 591.5,-19.5 591.5,-0.5 542.5,-0.5"/>
<text text-anchor="middle" x="567" y="-7.5" font-family="Helvetica,sans-Serif" font-size="10.00">string.h</text>
</g>
<!-- Node16&#45;&gt;Node18 -->
<g id="edge18" class="edge"><title>Node16&#45;&gt;Node18</title>
<path fill="none" stroke="midnightblue" d="M374.662,-56.7414C412.181,-48.428 471.665,-35.0161 532.389,-20.0896"/>
<polygon fill="midnightblue" stroke="midnightblue" points="533.272,-23.4766 542.142,-17.6816 531.594,-16.6807 533.272,-23.4766"/>
</g>
<!-- Node19 -->
<g id="node19" class="node"><title>Node19</title>
<polygon fill="none" stroke="#bfbfbf" points="610,-0.5 610,-19.5 662,-19.5 662,-0.5 610,-0.5"/>
<text text-anchor="middle" x="636" y="-7.5" font-family="Helvetica,sans-Serif" font-size="10.00">memory</text>
</g>
<!-- Node16&#45;&gt;Node19 -->
<g id="edge19" class="edge"><title>Node16&#45;&gt;Node19</title>
<path fill="none" stroke="midnightblue" d="M374.695,-57.6991C377.841,-57.115 380.974,-56.5418 384,-56 476.713,-39.3996 503.036,-39.7743 599.803,-19.8856"/>
<polygon fill="midnightblue" stroke="midnightblue" points="600.629,-23.2888 609.71,-17.83 599.207,-16.4348 600.629,-23.2888"/>
</g>
<!-- Node20 -->
<g id="node20" class="node"><title>Node20</title>
<polygon fill="none" stroke="#bfbfbf" points="782,-0.5 782,-19.5 816,-19.5 816,-0.5 782,-0.5"/>
<text text-anchor="middle" x="799" y="-7.5" font-family="Helvetica,sans-Serif" font-size="10.00">new</text>
</g>
<!-- Node16&#45;&gt;Node20 -->
<g id="edge20" class="edge"><title>Node16&#45;&gt;Node20</title>
<path fill="none" stroke="midnightblue" d="M374.664,-57.5089C377.817,-56.9667 380.96,-56.4551 384,-56 529.63,-34.1979 705.522,-18.6561 771.896,-13.1716"/>
<polygon fill="midnightblue" stroke="midnightblue" points="772.257,-16.6538 781.938,-12.3498 771.686,-9.67713 772.257,-16.6538"/>
</g>
<!-- Node21 -->
<g id="node21" class="node"><title>Node21</title>
<polygon fill="none" stroke="#bfbfbf" points="279.5,-0.5 279.5,-19.5 326.5,-19.5 326.5,-0.5 279.5,-0.5"/>
<text text-anchor="middle" x="303" y="-7.5" font-family="Helvetica,sans-Serif" font-size="10.00">iterator</text>
</g>
<!-- Node16&#45;&gt;Node21 -->
<g id="edge21" class="edge"><title>Node16&#45;&gt;Node21</title>
<path fill="none" stroke="midnightblue" d="M331.386,-56.083C326.633,-48.5341 319.682,-37.4948 313.848,-28.2298"/>
<polygon fill="midnightblue" stroke="midnightblue" points="316.8,-26.3486 308.51,-19.7511 310.876,-30.0783 316.8,-26.3486"/>
</g>
<!-- Node22 -->
<g id="node22" class="node"><title>Node22</title>
<polygon fill="none" stroke="#bfbfbf" points="345,-0.5 345,-19.5 397,-19.5 397,-0.5 345,-0.5"/>
<text text-anchor="middle" x="371" y="-7.5" font-family="Helvetica,sans-Serif" font-size="10.00">assert.h</text>
</g>
<!-- Node16&#45;&gt;Node22 -->
<g id="edge23" class="edge"><title>Node16&#45;&gt;Node22</title>
<path fill="none" stroke="midnightblue" d="M342.614,-56.083C347.367,-48.5341 354.318,-37.4948 360.152,-28.2298"/>
<polygon fill="midnightblue" stroke="midnightblue" points="363.124,-30.0783 365.49,-19.7511 357.2,-26.3486 363.124,-30.0783"/>
</g>
<!-- Node23 -->
<g id="node23" class="node"><title>Node23</title>
<polygon fill="none" stroke="#bfbfbf" points="415,-0.5 415,-19.5 455,-19.5 455,-0.5 415,-0.5"/>
<text text-anchor="middle" x="435" y="-7.5" font-family="Helvetica,sans-Serif" font-size="10.00">limits</text>
</g>
<!-- Node16&#45;&gt;Node23 -->
<g id="edge24" class="edge"><title>Node16&#45;&gt;Node23</title>
<path fill="none" stroke="midnightblue" d="M352.745,-56.324C368.319,-47.7428 392.377,-34.486 410.459,-24.5224"/>
<polygon fill="midnightblue" stroke="midnightblue" points="412.224,-27.546 419.294,-19.6545 408.846,-21.4152 412.224,-27.546"/>
</g>
<!-- Node24&#45;&gt;Node2 -->
<g id="edge27" class="edge"><title>Node24&#45;&gt;Node2</title>
<path fill="none" stroke="midnightblue" d="M443.671,-224.294C436.329,-215.414 424.877,-201.114 416,-188 405.49,-172.473 394.828,-153.939 387.484,-140.643"/>
<polygon fill="midnightblue" stroke="midnightblue" points="390.431,-138.738 382.572,-131.633 384.285,-142.088 390.431,-138.738"/>
</g>
<!-- Node24&#45;&gt;Node20 -->
<g id="edge31" class="edge"><title>Node24&#45;&gt;Node20</title>
<path fill="none" stroke="midnightblue" d="M504.86,-232.028C600.304,-227.024 797.137,-201.205 883,-76 900.896,-49.9042 857.056,-29.5872 826.205,-19.0272"/>
<polygon fill="midnightblue" stroke="midnightblue" points="826.941,-15.5861 816.348,-15.8258 824.778,-22.2438 826.941,-15.5861"/>
</g>
<!-- Node25 -->
<g id="node25" class="node"><title>Node25</title>
<g id="a_node25"><a xlink:href="inmost__sparse_8h.html" target="_top" xlink:title="inmost_sparse.h">
<polygon fill="none" stroke="black" points="495.5,-168.5 495.5,-187.5 584.5,-187.5 584.5,-168.5 495.5,-168.5"/>
<text text-anchor="middle" x="540" y="-175.5" font-family="Helvetica,sans-Serif" font-size="10.00">inmost_sparse.h</text>
</a>
</g>
</g>
<!-- Node24&#45;&gt;Node25 -->
<g id="edge28" class="edge"><title>Node24&#45;&gt;Node25</title>
<path fill="none" stroke="midnightblue" d="M465.299,-224.324C479.183,-215.9 500.492,-202.971 516.804,-193.074"/>
<polygon fill="midnightblue" stroke="midnightblue" points="519.002,-195.834 525.736,-187.655 515.371,-189.85 519.002,-195.834"/>
</g>
<!-- Node26 -->
<g id="node26" class="node"><title>Node26</title>
<polygon fill="none" stroke="#bfbfbf" points="425,-168.5 425,-187.5 477,-187.5 477,-168.5 425,-168.5"/>
<text text-anchor="middle" x="451" y="-175.5" font-family="Helvetica,sans-Serif" font-size="10.00">sstream</text>
</g>
<!-- Node24&#45;&gt;Node26 -->
<g id="edge30" class="edge"><title>Node24&#45;&gt;Node26</title>
<path fill="none" stroke="midnightblue" d="M451,-224.083C451,-217.006 451,-206.861 451,-197.986"/>
<polygon fill="midnightblue" stroke="midnightblue" points="454.5,-197.751 451,-187.751 447.5,-197.751 454.5,-197.751"/>
</g>
<!-- Node25&#45;&gt;Node2 -->
<g id="edge29" class="edge"><title>Node25&#45;&gt;Node2</title>
<path fill="none" stroke="midnightblue" d="M514.331,-168.444C487.077,-159.359 443.816,-144.939 413.349,-134.783"/>
<polygon fill="midnightblue" stroke="midnightblue" points="414.143,-131.358 403.549,-131.516 411.929,-137.999 414.143,-131.358"/>
</g>
</g>
</svg>
