<?xml version="1.0" encoding="UTF-8" standalone="no"?>
<!DOCTYPE svg PUBLIC "-//W3C//DTD SVG 1.1//EN"
 "http://www.w3.org/Graphics/SVG/1.1/DTD/svg11.dtd">
<!-- Generated by graphviz version 2.38.0 (20140413.2041)
 -->
<!-- Title: INMOST.lib/Source/Headers/inmost.h Pages: 1 -->
<svg width="1037pt" height="543pt"
 viewBox="0.00 0.00 1037.00 543.00" xmlns="http://www.w3.org/2000/svg" xmlns:xlink="http://www.w3.org/1999/xlink">
<g id="graph0" class="graph" transform="scale(1 1) rotate(0) translate(4 539)">
<title>INMOST.lib/Source/Headers/inmost.h</title>
<!-- Node1 -->
<g id="node1" class="node"><title>Node1</title>
<polygon fill="#bfbfbf" stroke="black" points="467.5,-504.5 467.5,-534.5 606.5,-534.5 606.5,-504.5 467.5,-504.5"/>
<text text-anchor="start" x="475.5" y="-522.5" font-family="Helvetica,sans-Serif" font-size="10.00">INMOST.lib/Source/Headers</text>
<text text-anchor="middle" x="537" y="-511.5" font-family="Helvetica,sans-Serif" font-size="10.00">/inmost.h</text>
</g>
<!-- Node2 -->
<g id="node2" class="node"><title>Node2</title>
<g id="a_node2"><a xlink:href="inmost__common_8h.html" target="_top" xlink:title="inmost_common.h">
<polygon fill="none" stroke="black" points="395.5,-112.5 395.5,-131.5 492.5,-131.5 492.5,-112.5 395.5,-112.5"/>
<text text-anchor="middle" x="444" y="-119.5" font-family="Helvetica,sans-Serif" font-size="10.00">inmost_common.h</text>
</a>
</g>
</g>
<!-- Node1&#45;&gt;Node2 -->
<g id="edge1" class="edge"><title>Node1&#45;&gt;Node2</title>
<path fill="none" stroke="midnightblue" d="M571.764,-504.454C609.059,-486.813 663,-452.706 663,-403 663,-403 663,-403 663,-233 663,-161.111 567.603,-136.2 502.733,-127.57"/>
<polygon fill="midnightblue" stroke="midnightblue" points="502.957,-124.071 492.603,-126.32 502.099,-131.019 502.957,-124.071"/>
</g>
<!-- Node24 -->
<g id="node24" class="node"><title>Node24</title>
<g id="a_node24"><a xlink:href="inmost__mesh_8h.html" target="_top" xlink:title="inmost_mesh.h">
<polygon fill="none" stroke="black" points="300.5,-336.5 300.5,-355.5 383.5,-355.5 383.5,-336.5 300.5,-336.5"/>
<text text-anchor="middle" x="342" y="-343.5" font-family="Helvetica,sans-Serif" font-size="10.00">inmost_mesh.h</text>
</a>
</g>
</g>
<!-- Node1&#45;&gt;Node24 -->
<g id="edge26" class="edge"><title>Node1&#45;&gt;Node24</title>
<path fill="none" stroke="midnightblue" d="M521.042,-504.465C484.849,-472.634 396.774,-395.173 359.318,-362.231"/>
<polygon fill="midnightblue" stroke="midnightblue" points="361.553,-359.536 351.733,-355.56 356.93,-364.792 361.553,-359.536"/>
</g>
<!-- Node29 -->
<g id="node29" class="node"><title>Node29</title>
<g id="a_node29"><a xlink:href="inmost__dense_8h.html" target="_top" xlink:title="inmost_dense.h">
<polygon fill="none" stroke="black" points="472,-280.5 472,-299.5 558,-299.5 558,-280.5 472,-280.5"/>
<text text-anchor="middle" x="515" y="-287.5" font-family="Helvetica,sans-Serif" font-size="10.00">inmost_dense.h</text>
</a>
</g>
</g>
<!-- Node1&#45;&gt;Node29 -->
<g id="edge36" class="edge"><title>Node1&#45;&gt;Node29</title>
<path fill="none" stroke="midnightblue" d="M535.624,-504.269C531.816,-464.895 521.139,-354.487 516.834,-309.965"/>
<polygon fill="midnightblue" stroke="midnightblue" points="520.31,-309.544 515.863,-299.927 513.342,-310.218 520.31,-309.544"/>
</g>
<!-- Node30 -->
<g id="node30" class="node"><title>Node30</title>
<g id="a_node30"><a xlink:href="inmost__solver_8h.html" target="_top" xlink:title="inmost_solver.h">
<polygon fill="none" stroke="black" points="402,-336.5 402,-355.5 486,-355.5 486,-336.5 402,-336.5"/>
<text text-anchor="middle" x="444" y="-343.5" font-family="Helvetica,sans-Serif" font-size="10.00">inmost_solver.h</text>
</a>
</g>
</g>
<!-- Node1&#45;&gt;Node30 -->
<g id="edge39" class="edge"><title>Node1&#45;&gt;Node30</title>
<path fill="none" stroke="midnightblue" d="M523.278,-504.349C514.407,-494.675 503.057,-481.251 495,-468 474.253,-433.879 458.019,-389.799 449.837,-365.366"/>
<polygon fill="midnightblue" stroke="midnightblue" points="453.088,-364.047 446.657,-355.628 446.434,-366.221 453.088,-364.047"/>
</g>
<!-- Node31 -->
<g id="node31" class="node"><title>Node31</title>
<g id="a_node31"><a xlink:href="inmost__partitioner_8h.html" target="_top" xlink:title="inmost_partitioner.h">
<polygon fill="none" stroke="black" points="691,-448.5 691,-467.5 793,-467.5 793,-448.5 691,-448.5"/>
<text text-anchor="middle" x="742" y="-455.5" font-family="Helvetica,sans-Serif" font-size="10.00">inmost_partitioner.h</text>
</a>
</g>
</g>
<!-- Node1&#45;&gt;Node31 -->
<g id="edge42" class="edge"><title>Node1&#45;&gt;Node31</title>
<path fill="none" stroke="midnightblue" d="M579.742,-504.399C614.29,-493.984 662.638,-479.991 697.617,-470.306"/>
<polygon fill="midnightblue" stroke="midnightblue" points="698.846,-473.598 707.559,-467.571 696.989,-466.848 698.846,-473.598"/>
</g>
<!-- Node32 -->
<g id="node32" class="node"><title>Node32</title>
<g id="a_node32"><a xlink:href="inmost__variable_8h.html" target="_top" xlink:title="inmost_variable.h">
<polygon fill="none" stroke="black" points="143,-448.5 143,-467.5 235,-467.5 235,-448.5 143,-448.5"/>
<text text-anchor="middle" x="189" y="-455.5" font-family="Helvetica,sans-Serif" font-size="10.00">inmost_variable.h</text>
</a>
</g>
</g>
<!-- Node1&#45;&gt;Node32 -->
<g id="edge44" class="edge"><title>Node1&#45;&gt;Node32</title>
<path fill="none" stroke="midnightblue" d="M467.413,-506.602C402.162,-495.446 305.824,-478.974 245.284,-468.623"/>
<polygon fill="midnightblue" stroke="midnightblue" points="245.597,-465.126 235.15,-466.891 244.417,-472.026 245.597,-465.126"/>
</g>
<!-- Node35 -->
<g id="node35" class="node"><title>Node35</title>
<g id="a_node35"><a xlink:href="inmost__nonlinear_8h.html" target="_top" xlink:title="inmost_nonlinear.h">
<polygon fill="none" stroke="black" points="537,-392.5 537,-411.5 635,-411.5 635,-392.5 537,-392.5"/>
<text text-anchor="middle" x="586" y="-399.5" font-family="Helvetica,sans-Serif" font-size="10.00">inmost_nonlinear.h</text>
</a>
</g>
</g>
<!-- Node1&#45;&gt;Node35 -->
<g id="edge57" class="edge"><title>Node1&#45;&gt;Node35</title>
<path fill="none" stroke="midnightblue" d="M543.008,-504.337C551.917,-483.338 568.625,-443.955 578.382,-420.958"/>
<polygon fill="midnightblue" stroke="midnightblue" points="581.639,-422.242 582.322,-411.669 575.194,-419.508 581.639,-422.242"/>
</g>
<!-- Node3 -->
<g id="node3" class="node"><title>Node3</title>
<polygon fill="none" stroke="#bfbfbf" points="770.5,-56.5 770.5,-75.5 861.5,-75.5 861.5,-56.5 770.5,-56.5"/>
<text text-anchor="middle" x="816" y="-63.5" font-family="Helvetica,sans-Serif" font-size="10.00">inmost_options.h</text>
</g>
<!-- Node2&#45;&gt;Node3 -->
<g id="edge2" class="edge"><title>Node2&#45;&gt;Node3</title>
<path fill="none" stroke="midnightblue" d="M492.652,-114.42C552.906,-106.197 658.962,-91.4891 760.288,-76.0807"/>
<polygon fill="midnightblue" stroke="midnightblue" points="761.035,-79.5073 770.393,-74.5392 759.98,-72.5873 761.035,-79.5073"/>
</g>
<!-- Node4 -->
<g id="node4" class="node"><title>Node4</title>
<polygon fill="none" stroke="#bfbfbf" points="879.5,-56.5 879.5,-75.5 920.5,-75.5 920.5,-56.5 879.5,-56.5"/>
<text text-anchor="middle" x="900" y="-63.5" font-family="Helvetica,sans-Serif" font-size="10.00">string</text>
</g>
<!-- Node2&#45;&gt;Node4 -->
<g id="edge3" class="edge"><title>Node2&#45;&gt;Node4</title>
<path fill="none" stroke="midnightblue" d="M492.678,-118.809C570.405,-114.669 727.352,-103.679 869.279,-75.7485"/>
<polygon fill="midnightblue" stroke="midnightblue" points="870.353,-79.1032 879.471,-73.7081 868.978,-72.2394 870.353,-79.1032"/>
</g>
<!-- Node5 -->
<g id="node5" class="node"><title>Node5</title>
<polygon fill="none" stroke="#bfbfbf" points="939,-56.5 939,-75.5 981,-75.5 981,-56.5 939,-56.5"/>
<text text-anchor="middle" x="960" y="-63.5" font-family="Helvetica,sans-Serif" font-size="10.00">vector</text>
</g>
<!-- Node2&#45;&gt;Node5 -->
<g id="edge4" class="edge"><title>Node2&#45;&gt;Node5</title>
<path fill="none" stroke="midnightblue" d="M492.612,-119.542C580.449,-116.234 771.147,-105.955 929,-76 929.1,-75.9811 929.2,-75.9619 929.3,-75.9426"/>
<polygon fill="midnightblue" stroke="midnightblue" points="929.837,-79.4112 938.784,-73.7359 928.251,-72.5933 929.837,-79.4112"/>
</g>
<!-- Node6 -->
<g id="node6" class="node"><title>Node6</title>
<polygon fill="none" stroke="#bfbfbf" points="999,-56.5 999,-75.5 1029,-75.5 1029,-56.5 999,-56.5"/>
<text text-anchor="middle" x="1014" y="-63.5" font-family="Helvetica,sans-Serif" font-size="10.00">set</text>
</g>
<!-- Node2&#45;&gt;Node6 -->
<g id="edge5" class="edge"><title>Node2&#45;&gt;Node6</title>
<path fill="none" stroke="midnightblue" d="M492.51,-121.462C586.972,-121.405 801.983,-116.584 988.95,-75.5965"/>
<polygon fill="midnightblue" stroke="midnightblue" points="989.961,-78.957 998.958,-73.3615 988.435,-72.1252 989.961,-78.957"/>
</g>
<!-- Node7 -->
<g id="node7" class="node"><title>Node7</title>
<polygon fill="none" stroke="#bfbfbf" points="155.5,-56.5 155.5,-75.5 190.5,-75.5 190.5,-56.5 155.5,-56.5"/>
<text text-anchor="middle" x="173" y="-63.5" font-family="Helvetica,sans-Serif" font-size="10.00">map</text>
</g>
<!-- Node2&#45;&gt;Node7 -->
<g id="edge6" class="edge"><title>Node2&#45;&gt;Node7</title>
<path fill="none" stroke="midnightblue" d="M395.176,-114.263C347.522,-107.191 272.88,-94.7964 200.275,-76.0315"/>
<polygon fill="midnightblue" stroke="midnightblue" points="201.072,-72.6221 190.511,-73.4653 199.293,-79.3922 201.072,-72.6221"/>
</g>
<!-- Node8 -->
<g id="node8" class="node"><title>Node8</title>
<polygon fill="none" stroke="#bfbfbf" points="208.5,-56.5 208.5,-75.5 237.5,-75.5 237.5,-56.5 208.5,-56.5"/>
<text text-anchor="middle" x="223" y="-63.5" font-family="Helvetica,sans-Serif" font-size="10.00">list</text>
</g>
<!-- Node2&#45;&gt;Node8 -->
<g id="edge7" class="edge"><title>Node2&#45;&gt;Node8</title>
<path fill="none" stroke="midnightblue" d="M398.562,-112.425C360.462,-104.831 304.524,-92.744 247.2,-75.7251"/>
<polygon fill="midnightblue" stroke="midnightblue" points="248.201,-72.3713 237.617,-72.8368 246.181,-79.0736 248.201,-72.3713"/>
</g>
<!-- Node9 -->
<g id="node9" class="node"><title>Node9</title>
<polygon fill="none" stroke="#bfbfbf" points="256,-56.5 256,-75.5 312,-75.5 312,-56.5 256,-56.5"/>
<text text-anchor="middle" x="284" y="-63.5" font-family="Helvetica,sans-Serif" font-size="10.00">algorithm</text>
</g>
<!-- Node2&#45;&gt;Node9 -->
<g id="edge8" class="edge"><title>Node2&#45;&gt;Node9</title>
<path fill="none" stroke="midnightblue" d="M418.648,-112.444C391.731,-103.359 349.004,-88.9388 318.913,-78.7831"/>
<polygon fill="midnightblue" stroke="midnightblue" points="319.828,-75.3981 309.234,-75.5164 317.59,-82.0305 319.828,-75.3981"/>
</g>
<!-- Node10 -->
<g id="node10" class="node"><title>Node10</title>
<polygon fill="none" stroke="#bfbfbf" points="256,-0.5 256,-19.5 300,-19.5 300,-0.5 256,-0.5"/>
<text text-anchor="middle" x="278" y="-7.5" font-family="Helvetica,sans-Serif" font-size="10.00">cmath</text>
</g>
<!-- Node2&#45;&gt;Node10 -->
<g id="edge9" class="edge"><title>Node2&#45;&gt;Node10</title>
<path fill="none" stroke="midnightblue" d="M430.961,-112.377C417.271,-103.322 395.118,-88.6662 376,-76 349.7,-58.5757 319.443,-38.5034 299.589,-25.3286"/>
<polygon fill="midnightblue" stroke="midnightblue" points="301.264,-22.2392 290.996,-19.626 297.393,-28.0718 301.264,-22.2392"/>
</g>
<!-- Node11 -->
<g id="node11" class="node"><title>Node11</title>
<polygon fill="none" stroke="#bfbfbf" points="500,-56.5 500,-75.5 554,-75.5 554,-56.5 500,-56.5"/>
<text text-anchor="middle" x="527" y="-63.5" font-family="Helvetica,sans-Serif" font-size="10.00">iostream</text>
</g>
<!-- Node2&#45;&gt;Node11 -->
<g id="edge10" class="edge"><title>Node2&#45;&gt;Node11</title>
<path fill="none" stroke="midnightblue" d="M457.335,-112.324C470.162,-103.979 489.785,-91.2122 504.94,-81.3524"/>
<polygon fill="midnightblue" stroke="midnightblue" points="507.224,-84.0417 513.698,-75.6545 503.407,-78.1742 507.224,-84.0417"/>
</g>
<!-- Node12 -->
<g id="node12" class="node"><title>Node12</title>
<polygon fill="none" stroke="#bfbfbf" points="572.5,-56.5 572.5,-75.5 621.5,-75.5 621.5,-56.5 572.5,-56.5"/>
<text text-anchor="middle" x="597" y="-63.5" font-family="Helvetica,sans-Serif" font-size="10.00">fstream</text>
</g>
<!-- Node2&#45;&gt;Node12 -->
<g id="edge11" class="edge"><title>Node2&#45;&gt;Node12</title>
<path fill="none" stroke="midnightblue" d="M468.243,-112.444C493.871,-103.399 534.485,-89.064 563.238,-78.9158"/>
<polygon fill="midnightblue" stroke="midnightblue" points="564.605,-82.1452 572.87,-75.5164 562.275,-75.5442 564.605,-82.1452"/>
</g>
<!-- Node13 -->
<g id="node13" class="node"><title>Node13</title>
<polygon fill="none" stroke="#bfbfbf" points="318,-0.5 318,-19.5 366,-19.5 366,-0.5 318,-0.5"/>
<text text-anchor="middle" x="342" y="-7.5" font-family="Helvetica,sans-Serif" font-size="10.00">stdlib.h</text>
</g>
<!-- Node2&#45;&gt;Node13 -->
<g id="edge12" class="edge"><title>Node2&#45;&gt;Node13</title>
<path fill="none" stroke="midnightblue" d="M434.353,-112.317C424.646,-103.453 409.382,-89.1671 397,-76 382.047,-60.0993 366.046,-40.917 355.18,-27.5285"/>
<polygon fill="midnightblue" stroke="midnightblue" points="357.842,-25.2535 348.844,-19.6597 352.39,-29.6437 357.842,-25.2535"/>
</g>
<!-- Node14 -->
<g id="node14" class="node"><title>Node14</title>
<polygon fill="none" stroke="#bfbfbf" points="640,-56.5 640,-75.5 686,-75.5 686,-56.5 640,-56.5"/>
<text text-anchor="middle" x="663" y="-63.5" font-family="Helvetica,sans-Serif" font-size="10.00">stdio.h</text>
</g>
<!-- Node2&#45;&gt;Node14 -->
<g id="edge13" class="edge"><title>Node2&#45;&gt;Node14</title>
<path fill="none" stroke="midnightblue" d="M480.781,-112.432C518.359,-103.601 578.358,-89.2861 630,-76 630.101,-75.9741 630.201,-75.9481 630.302,-75.9221"/>
<polygon fill="midnightblue" stroke="midnightblue" points="631.167,-79.3139 639.944,-73.3792 629.382,-72.5454 631.167,-79.3139"/>
</g>
<!-- Node15 -->
<g id="node15" class="node"><title>Node15</title>
<polygon fill="none" stroke="#bfbfbf" points="704,-56.5 704,-75.5 752,-75.5 752,-56.5 704,-56.5"/>
<text text-anchor="middle" x="728" y="-63.5" font-family="Helvetica,sans-Serif" font-size="10.00">limits.h</text>
</g>
<!-- Node2&#45;&gt;Node15 -->
<g id="edge14" class="edge"><title>Node2&#45;&gt;Node15</title>
<path fill="none" stroke="midnightblue" d="M492.845,-113.562C541.432,-105.868 618.295,-92.9049 693.758,-76.1191"/>
<polygon fill="midnightblue" stroke="midnightblue" points="694.923,-79.4445 703.911,-73.8351 693.387,-72.6152 694.923,-79.4445"/>
</g>
<!-- Node16 -->
<g id="node16" class="node"><title>Node16</title>
<g id="a_node16"><a xlink:href="container_8hpp.html" target="_top" xlink:title="container.hpp">
<polygon fill="none" stroke="black" points="406.5,-56.5 406.5,-75.5 481.5,-75.5 481.5,-56.5 406.5,-56.5"/>
<text text-anchor="middle" x="444" y="-63.5" font-family="Helvetica,sans-Serif" font-size="10.00">container.hpp</text>
</a>
</g>
</g>
<!-- Node2&#45;&gt;Node16 -->
<g id="edge15" class="edge"><title>Node2&#45;&gt;Node16</title>
<path fill="none" stroke="midnightblue" d="M438.834,-112.083C437.324,-104.927 436.894,-94.6353 437.542,-85.6911"/>
<polygon fill="midnightblue" stroke="midnightblue" points="441.015,-86.1262 438.869,-75.7511 434.077,-85.2002 441.015,-86.1262"/>
</g>
<!-- Node16&#45;&gt;Node2 -->
<g id="edge25" class="edge"><title>Node16&#45;&gt;Node2</title>
<path fill="none" stroke="midnightblue" d="M449.131,-75.7511C450.657,-82.8579 451.104,-93.1357 450.472,-102.101"/>
<polygon fill="midnightblue" stroke="midnightblue" points="446.993,-101.713 449.166,-112.083 453.934,-102.622 446.993,-101.713"/>
</g>
<!-- Node16&#45;&gt;Node10 -->
<g id="edge22" class="edge"><title>Node16&#45;&gt;Node10</title>
<path fill="none" stroke="midnightblue" d="M417.697,-56.4435C388.412,-46.9171 341.089,-31.5228 309.762,-21.3321"/>
<polygon fill="midnightblue" stroke="midnightblue" points="310.788,-17.9855 300.196,-18.2203 308.623,-24.6422 310.788,-17.9855"/>
</g>
<!-- Node16&#45;&gt;Node13 -->
<g id="edge16" class="edge"><title>Node16&#45;&gt;Node13</title>
<path fill="none" stroke="midnightblue" d="M427.612,-56.324C411.329,-47.7034 386.133,-34.3643 367.284,-24.3855"/>
<polygon fill="midnightblue" stroke="midnightblue" points="368.823,-21.2402 358.347,-19.6545 365.548,-27.4267 368.823,-21.2402"/>
</g>
<!-- Node17 -->
<g id="node17" class="node"><title>Node17</title>
<polygon fill="none" stroke="#bfbfbf" points="384.5,-0.5 384.5,-19.5 435.5,-19.5 435.5,-0.5 384.5,-0.5"/>
<text text-anchor="middle" x="410" y="-7.5" font-family="Helvetica,sans-Serif" font-size="10.00">stddef.h</text>
</g>
<!-- Node16&#45;&gt;Node17 -->
<g id="edge17" class="edge"><title>Node16&#45;&gt;Node17</title>
<path fill="none" stroke="midnightblue" d="M438.386,-56.083C433.633,-48.5341 426.682,-37.4948 420.848,-28.2298"/>
<polygon fill="midnightblue" stroke="midnightblue" points="423.8,-26.3486 415.51,-19.7511 417.876,-30.0783 423.8,-26.3486"/>
</g>
<!-- Node18 -->
<g id="node18" class="node"><title>Node18</title>
<polygon fill="none" stroke="#bfbfbf" points="453.5,-0.5 453.5,-19.5 502.5,-19.5 502.5,-0.5 453.5,-0.5"/>
<text text-anchor="middle" x="478" y="-7.5" font-family="Helvetica,sans-Serif" font-size="10.00">string.h</text>
</g>
<!-- Node16&#45;&gt;Node18 -->
<g id="edge18" class="edge"><title>Node16&#45;&gt;Node18</title>
<path fill="none" stroke="midnightblue" d="M449.614,-56.083C454.367,-48.5341 461.318,-37.4948 467.152,-28.2298"/>
<polygon fill="midnightblue" stroke="midnightblue" points="470.124,-30.0783 472.49,-19.7511 464.2,-26.3486 470.124,-30.0783"/>
</g>
<!-- Node19 -->
<g id="node19" class="node"><title>Node19</title>
<polygon fill="none" stroke="#bfbfbf" points="521,-0.5 521,-19.5 573,-19.5 573,-0.5 521,-0.5"/>
<text text-anchor="middle" x="547" y="-7.5" font-family="Helvetica,sans-Serif" font-size="10.00">memory</text>
</g>
<!-- Node16&#45;&gt;Node19 -->
<g id="edge19" class="edge"><title>Node16&#45;&gt;Node19</title>
<path fill="none" stroke="midnightblue" d="M460.549,-56.324C476.992,-47.7034 502.435,-34.3643 521.468,-24.3855"/>
<polygon fill="midnightblue" stroke="midnightblue" points="523.261,-27.3977 530.492,-19.6545 520.011,-21.198 523.261,-27.3977"/>
</g>
<!-- Node20 -->
<g id="node20" class="node"><title>Node20</title>
<polygon fill="none" stroke="#bfbfbf" points="110,-0.5 110,-19.5 144,-19.5 144,-0.5 110,-0.5"/>
<text text-anchor="middle" x="127" y="-7.5" font-family="Helvetica,sans-Serif" font-size="10.00">new</text>
</g>
<!-- Node16&#45;&gt;Node20 -->
<g id="edge20" class="edge"><title>Node16&#45;&gt;Node20</title>
<path fill="none" stroke="midnightblue" d="M406.391,-58.5934C341.68,-47.5701 210.779,-25.2715 154.137,-15.6227"/>
<polygon fill="midnightblue" stroke="midnightblue" points="154.594,-12.1503 144.149,-13.9212 153.419,-19.0509 154.594,-12.1503"/>
</g>
<!-- Node21 -->
<g id="node21" class="node"><title>Node21</title>
<polygon fill="none" stroke="#bfbfbf" points="591.5,-0.5 591.5,-19.5 638.5,-19.5 638.5,-0.5 591.5,-0.5"/>
<text text-anchor="middle" x="615" y="-7.5" font-family="Helvetica,sans-Serif" font-size="10.00">iterator</text>
</g>
<!-- Node16&#45;&gt;Node21 -->
<g id="edge21" class="edge"><title>Node16&#45;&gt;Node21</title>
<path fill="none" stroke="midnightblue" d="M471.095,-56.4435C501.008,-46.9976 549.189,-31.7826 581.46,-21.5916"/>
<polygon fill="midnightblue" stroke="midnightblue" points="582.854,-24.8219 591.335,-18.473 580.746,-18.1469 582.854,-24.8219"/>
</g>
<!-- Node22 -->
<g id="node22" class="node"><title>Node22</title>
<polygon fill="none" stroke="#bfbfbf" points="657,-0.5 657,-19.5 709,-19.5 709,-0.5 657,-0.5"/>
<text text-anchor="middle" x="683" y="-7.5" font-family="Helvetica,sans-Serif" font-size="10.00">assert.h</text>
</g>
<!-- Node16&#45;&gt;Node22 -->
<g id="edge23" class="edge"><title>Node16&#45;&gt;Node22</title>
<path fill="none" stroke="midnightblue" d="M481.857,-56.9257C520.689,-48.573 583.086,-34.9571 646.847,-19.9842"/>
<polygon fill="midnightblue" stroke="midnightblue" points="647.743,-23.3688 656.674,-17.6681 646.138,-16.5555 647.743,-23.3688"/>
</g>
<!-- Node23 -->
<g id="node23" class="node"><title>Node23</title>
<polygon fill="none" stroke="#bfbfbf" points="727,-0.5 727,-19.5 767,-19.5 767,-0.5 727,-0.5"/>
<text text-anchor="middle" x="747" y="-7.5" font-family="Helvetica,sans-Serif" font-size="10.00">limits</text>
</g>
<!-- Node16&#45;&gt;Node23 -->
<g id="edge24" class="edge"><title>Node16&#45;&gt;Node23</title>
<path fill="none" stroke="midnightblue" d="M481.691,-57.673C484.838,-57.0946 487.972,-56.5299 491,-56 588.476,-38.9422 616.766,-42.9198 716.901,-19.975"/>
<polygon fill="midnightblue" stroke="midnightblue" points="717.873,-23.3425 726.82,-17.6688 716.287,-16.5243 717.873,-23.3425"/>
</g>
<!-- Node24&#45;&gt;Node2 -->
<g id="edge27" class="edge"><title>Node24&#45;&gt;Node2</title>
<path fill="none" stroke="midnightblue" d="M345.999,-336.297C361.102,-303.425 414.874,-186.391 435.688,-141.09"/>
<polygon fill="midnightblue" stroke="midnightblue" points="438.924,-142.432 439.918,-131.884 432.563,-139.509 438.924,-142.432"/>
</g>
<!-- Node25 -->
<g id="node25" class="node"><title>Node25</title>
<g id="a_node25"><a xlink:href="inmost__data_8h.html" target="_top" xlink:title="inmost_data.h">
<polygon fill="none" stroke="black" points="224,-280.5 224,-299.5 302,-299.5 302,-280.5 224,-280.5"/>
<text text-anchor="middle" x="263" y="-287.5" font-family="Helvetica,sans-Serif" font-size="10.00">inmost_data.h</text>
</a>
</g>
</g>
<!-- Node24&#45;&gt;Node25 -->
<g id="edge28" class="edge"><title>Node24&#45;&gt;Node25</title>
<path fill="none" stroke="midnightblue" d="M329.307,-336.324C317.099,-327.979 298.422,-315.212 283.997,-305.352"/>
<polygon fill="midnightblue" stroke="midnightblue" points="285.892,-302.408 275.661,-299.655 281.942,-308.187 285.892,-302.408"/>
</g>
<!-- Node25&#45;&gt;Node2 -->
<g id="edge29" class="edge"><title>Node25&#45;&gt;Node2</title>
<path fill="none" stroke="midnightblue" d="M267.64,-280.3C279.481,-258.783 312.81,-202.33 354,-168 370.644,-154.128 392.287,-143.134 410.177,-135.487"/>
<polygon fill="midnightblue" stroke="midnightblue" points="411.755,-138.623 419.675,-131.585 409.095,-132.148 411.755,-138.623"/>
</g>
<!-- Node26 -->
<g id="node26" class="node"><title>Node26</title>
<g id="a_node26"><a xlink:href="inmost__expression_8h.html" target="_top" xlink:title="inmost_expression.h">
<polygon fill="none" stroke="black" points="156.5,-224.5 156.5,-243.5 263.5,-243.5 263.5,-224.5 156.5,-224.5"/>
<text text-anchor="middle" x="210" y="-231.5" font-family="Helvetica,sans-Serif" font-size="10.00">inmost_expression.h</text>
</a>
</g>
</g>
<!-- Node25&#45;&gt;Node26 -->
<g id="edge30" class="edge"><title>Node25&#45;&gt;Node26</title>
<path fill="none" stroke="midnightblue" d="M254.248,-280.083C246.53,-272.22 235.095,-260.569 225.783,-251.081"/>
<polygon fill="midnightblue" stroke="midnightblue" points="228.092,-248.436 218.589,-243.751 223.096,-253.34 228.092,-248.436"/>
</g>
<!-- Node26&#45;&gt;Node2 -->
<g id="edge31" class="edge"><title>Node26&#45;&gt;Node2</title>
<path fill="none" stroke="midnightblue" d="M205.484,-224.28C199.111,-210.616 189.657,-184.065 203,-168 225.702,-140.667 321.296,-129.846 385.051,-125.625"/>
<polygon fill="midnightblue" stroke="midnightblue" points="385.622,-129.096 395.384,-124.98 385.186,-122.11 385.622,-129.096"/>
</g>
<!-- Node26&#45;&gt;Node20 -->
<g id="edge35" class="edge"><title>Node26&#45;&gt;Node20</title>
<path fill="none" stroke="midnightblue" d="M206.07,-224.269C195.529,-200.673 166.074,-133.528 146,-76 140.553,-60.3898 135.357,-42.3159 131.78,-29.1952"/>
<polygon fill="midnightblue" stroke="midnightblue" points="135.152,-28.2571 129.186,-19.5018 128.39,-30.0667 135.152,-28.2571"/>
</g>
<!-- Node27 -->
<g id="node27" class="node"><title>Node27</title>
<g id="a_node27"><a xlink:href="inmost__sparse_8h.html" target="_top" xlink:title="inmost_sparse.h">
<polygon fill="none" stroke="black" points="212.5,-168.5 212.5,-187.5 301.5,-187.5 301.5,-168.5 212.5,-168.5"/>
<text text-anchor="middle" x="257" y="-175.5" font-family="Helvetica,sans-Serif" font-size="10.00">inmost_sparse.h</text>
</a>
</g>
</g>
<!-- Node26&#45;&gt;Node27 -->
<g id="edge32" class="edge"><title>Node26&#45;&gt;Node27</title>
<path fill="none" stroke="midnightblue" d="M217.761,-224.083C224.537,-216.298 234.543,-204.801 242.755,-195.367"/>
<polygon fill="midnightblue" stroke="midnightblue" points="245.458,-197.592 249.383,-187.751 240.178,-192.996 245.458,-197.592"/>
</g>
<!-- Node28 -->
<g id="node28" class="node"><title>Node28</title>
<polygon fill="none" stroke="#bfbfbf" points="66,-168.5 66,-187.5 118,-187.5 118,-168.5 66,-168.5"/>
<text text-anchor="middle" x="92" y="-175.5" font-family="Helvetica,sans-Serif" font-size="10.00">sstream</text>
</g>
<!-- Node26&#45;&gt;Node28 -->
<g id="edge34" class="edge"><title>Node26&#45;&gt;Node28</title>
<path fill="none" stroke="midnightblue" d="M191.303,-224.444C172.056,-215.636 141.848,-201.812 119.8,-191.722"/>
<polygon fill="midnightblue" stroke="midnightblue" points="121.16,-188.495 110.61,-187.516 118.247,-194.86 121.16,-188.495"/>
</g>
<!-- Node27&#45;&gt;Node2 -->
<g id="edge33" class="edge"><title>Node27&#45;&gt;Node2</title>
<path fill="none" stroke="midnightblue" d="M286.631,-168.444C318.5,-159.241 369.333,-144.562 404.564,-134.388"/>
<polygon fill="midnightblue" stroke="midnightblue" points="405.872,-137.653 414.508,-131.516 403.929,-130.928 405.872,-137.653"/>
</g>
<!-- Node29&#45;&gt;Node2 -->
<g id="edge37" class="edge"><title>Node29&#45;&gt;Node2</title>
<path fill="none" stroke="midnightblue" d="M511.183,-280.075C499.958,-253.832 466.902,-176.545 451.749,-141.117"/>
<polygon fill="midnightblue" stroke="midnightblue" points="454.815,-139.386 447.665,-131.568 448.379,-142.139 454.815,-139.386"/>
</g>
<!-- Node29&#45;&gt;Node26 -->
<g id="edge38" class="edge"><title>Node29&#45;&gt;Node26</title>
<path fill="none" stroke="midnightblue" d="M471.948,-281.378C418.628,-271.937 327.579,-255.817 268.104,-245.287"/>
<polygon fill="midnightblue" stroke="midnightblue" points="268.569,-241.815 258.112,-243.518 267.349,-248.708 268.569,-241.815"/>
</g>
<!-- Node30&#45;&gt;Node2 -->
<g id="edge40" class="edge"><title>Node30&#45;&gt;Node2</title>
<path fill="none" stroke="midnightblue" d="M444,-336.297C444,-303.633 444,-187.866 444,-141.957"/>
<polygon fill="midnightblue" stroke="midnightblue" points="447.5,-141.884 444,-131.884 440.5,-141.884 447.5,-141.884"/>
</g>
<!-- Node30&#45;&gt;Node27 -->
<g id="edge41" class="edge"><title>Node30&#45;&gt;Node27</title>
<path fill="none" stroke="midnightblue" d="M434.209,-336.309C404.167,-309.64 313.005,-228.716 274.482,-194.519"/>
<polygon fill="midnightblue" stroke="midnightblue" points="276.496,-191.626 266.694,-187.605 271.849,-196.861 276.496,-191.626"/>
</g>
<!-- Node31&#45;&gt;Node1 -->
<g id="edge43" class="edge"><title>Node31&#45;&gt;Node1</title>
<path fill="none" stroke="midnightblue" d="M717.589,-467.506C688.92,-476.391 640.518,-490.56 600.993,-501.71"/>
<polygon fill="midnightblue" stroke="midnightblue" points="599.833,-498.4 591.153,-504.475 601.727,-505.139 599.833,-498.4"/>
</g>
<!-- Node32&#45;&gt;Node2 -->
<g id="edge45" class="edge"><title>Node32&#45;&gt;Node2</title>
<path fill="none" stroke="midnightblue" d="M154.736,-448.44C110.184,-435.016 38,-404.408 38,-347 38,-347 38,-347 38,-233 38,-202.902 34.001,-187.414 57,-168 105.311,-127.218 289.427,-122.001 385.25,-122.154"/>
<polygon fill="midnightblue" stroke="midnightblue" points="385.349,-125.654 395.362,-122.191 385.375,-118.654 385.349,-125.654"/>
</g>
<!-- Node32&#45;&gt;Node20 -->
<g id="edge56" class="edge"><title>Node32&#45;&gt;Node20</title>
<path fill="none" stroke="midnightblue" d="M142.765,-450.614C86.8122,-439.981 0,-412.87 0,-347 0,-347 0,-347 0,-121 0,-68.4748 62.8359,-35.4172 100.11,-20.4281"/>
<polygon fill="midnightblue" stroke="midnightblue" points="101.792,-23.5315 109.872,-16.6784 99.2822,-16.997 101.792,-23.5315"/>
</g>
<!-- Node32&#45;&gt;Node24 -->
<g id="edge47" class="edge"><title>Node32&#45;&gt;Node24</title>
<path fill="none" stroke="midnightblue" d="M225.849,-448.486C249.315,-441.641 279.273,-430.117 301,-412 316.172,-399.349 327.509,-379.588 334.372,-365.174"/>
<polygon fill="midnightblue" stroke="midnightblue" points="337.676,-366.359 338.569,-355.802 331.288,-363.498 337.676,-366.359"/>
</g>
<!-- Node32&#45;&gt;Node26 -->
<g id="edge46" class="edge"><title>Node32&#45;&gt;Node26</title>
<path fill="none" stroke="midnightblue" d="M182.391,-448.282C168.219,-428.502 137.126,-378.627 149,-336 158.111,-303.292 180.995,-270.598 195.998,-251.612"/>
<polygon fill="midnightblue" stroke="midnightblue" points="198.857,-253.645 202.448,-243.677 193.424,-249.23 198.857,-253.645"/>
</g>
<!-- Node32&#45;&gt;Node28 -->
<g id="edge55" class="edge"><title>Node32&#45;&gt;Node28</title>
<path fill="none" stroke="midnightblue" d="M172.206,-448.318C143.961,-432.374 90,-395.559 90,-347 90,-347 90,-347 90,-289 90,-256.943 90.8596,-219.639 91.4518,-197.747"/>
<polygon fill="midnightblue" stroke="midnightblue" points="94.9557,-197.651 91.7385,-187.557 87.9585,-197.454 94.9557,-197.651"/>
</g>
<!-- Node32&#45;&gt;Node30 -->
<g id="edge54" class="edge"><title>Node32&#45;&gt;Node30</title>
<path fill="none" stroke="midnightblue" d="M219.592,-448.469C247.33,-440.344 289.093,-427.134 324,-412 359.119,-396.774 397.703,-374.879 421.393,-360.796"/>
<polygon fill="midnightblue" stroke="midnightblue" points="423.221,-363.781 429.996,-355.635 419.62,-357.778 423.221,-363.781"/>
</g>
<!-- Node33 -->
<g id="node33" class="node"><title>Node33</title>
<g id="a_node33"><a xlink:href="inmost__autodiff_8h.html" target="_top" xlink:title="inmost_autodiff.h">
<polygon fill="none" stroke="black" points="202,-392.5 202,-411.5 292,-411.5 292,-392.5 202,-392.5"/>
<text text-anchor="middle" x="247" y="-399.5" font-family="Helvetica,sans-Serif" font-size="10.00">inmost_autodiff.h</text>
</a>
</g>
</g>
<!-- Node32&#45;&gt;Node33 -->
<g id="edge48" class="edge"><title>Node32&#45;&gt;Node33</title>
<path fill="none" stroke="midnightblue" d="M198.319,-448.324C206.893,-440.341 219.812,-428.313 230.188,-418.653"/>
<polygon fill="midnightblue" stroke="midnightblue" points="232.578,-421.21 237.512,-411.834 227.808,-416.086 232.578,-421.21"/>
</g>
<!-- Node33&#45;&gt;Node2 -->
<g id="edge49" class="edge"><title>Node33&#45;&gt;Node2</title>
<path fill="none" stroke="midnightblue" d="M252.908,-392.121C261.289,-379.56 277.151,-355.914 291,-336 343.389,-260.668 357.201,-242.332 411,-168 417.758,-158.663 425.361,-148.286 431.565,-139.852"/>
<polygon fill="midnightblue" stroke="midnightblue" points="434.528,-141.731 437.642,-131.603 428.893,-137.579 434.528,-141.731"/>
</g>
<!-- Node33&#45;&gt;Node24 -->
<g id="edge50" class="edge"><title>Node33&#45;&gt;Node24</title>
<path fill="none" stroke="midnightblue" d="M262.263,-392.324C277.221,-383.822 300.255,-370.729 317.727,-360.797"/>
<polygon fill="midnightblue" stroke="midnightblue" points="319.81,-363.639 326.774,-355.655 316.351,-357.553 319.81,-363.639"/>
</g>
<!-- Node33&#45;&gt;Node28 -->
<g id="edge52" class="edge"><title>Node33&#45;&gt;Node28</title>
<path fill="none" stroke="midnightblue" d="M243.227,-392.302C237.559,-379.557 226.201,-355.238 214,-336 179.486,-281.579 130.431,-223.038 106.397,-195.327"/>
<polygon fill="midnightblue" stroke="midnightblue" points="108.999,-192.986 99.7854,-187.756 103.727,-197.59 108.999,-192.986"/>
</g>
<!-- Node33&#45;&gt;Node30 -->
<g id="edge51" class="edge"><title>Node33&#45;&gt;Node30</title>
<path fill="none" stroke="midnightblue" d="M278.215,-392.444C311.933,-383.201 365.8,-368.436 402.932,-358.257"/>
<polygon fill="midnightblue" stroke="midnightblue" points="404.212,-361.536 412.931,-355.516 402.361,-354.785 404.212,-361.536"/>
</g>
<!-- Node34 -->
<g id="node34" class="node"><title>Node34</title>
<polygon fill="none" stroke="#bfbfbf" points="158.5,-336.5 158.5,-355.5 205.5,-355.5 205.5,-336.5 158.5,-336.5"/>
<text text-anchor="middle" x="182" y="-343.5" font-family="Helvetica,sans-Serif" font-size="10.00">math.h</text>
</g>
<!-- Node33&#45;&gt;Node34 -->
<g id="edge53" class="edge"><title>Node33&#45;&gt;Node34</title>
<path fill="none" stroke="midnightblue" d="M236.557,-392.324C226.854,-384.263 212.185,-372.077 200.5,-362.369"/>
<polygon fill="midnightblue" stroke="midnightblue" points="202.562,-359.532 192.633,-355.834 198.089,-364.916 202.562,-359.532"/>
</g>
<!-- Node35&#45;&gt;Node2 -->
<g id="edge58" class="edge"><title>Node35&#45;&gt;Node2</title>
<path fill="none" stroke="midnightblue" d="M586,-392.442C586,-373.936 586,-328.813 586,-291 586,-291 586,-291 586,-233 586,-181.069 525.912,-150.154 483.911,-134.887"/>
<polygon fill="midnightblue" stroke="midnightblue" points="485.057,-131.58 474.463,-131.602 482.759,-138.192 485.057,-131.58"/>
</g>
</g>
</svg>
