<?xml version="1.0" encoding="UTF-8" standalone="no"?>
<!DOCTYPE svg PUBLIC "-//W3C//DTD SVG 1.1//EN"
 "http://www.w3.org/Graphics/SVG/1.1/DTD/svg11.dtd">
<!-- Generated by graphviz version 2.38.0 (20140413.2041)
 -->
<!-- Title: get_value Pages: 1 -->
<svg width="214pt" height="84pt"
 viewBox="0.00 0.00 214.00 84.00" xmlns="http://www.w3.org/2000/svg" xmlns:xlink="http://www.w3.org/1999/xlink">
<g id="graph0" class="graph" transform="scale(1 1) rotate(0) translate(4 80)">
<title>get_value</title>
<!-- Node1 -->
<g id="node1" class="node"><title>Node1</title>
<polygon fill="#bfbfbf" stroke="black" points="0,-19.5 0,-38.5 57,-38.5 57,-19.5 0,-19.5"/>
<text text-anchor="middle" x="28.5" y="-26.5" font-family="Helvetica,sans-Serif" font-size="10.00">get_value</text>
</g>
<!-- Node2 -->
<g id="node2" class="node"><title>Node2</title>
<g id="a_node2"><a xlink:href="class_i_n_m_o_s_t_1_1_matrix.html#adf8bb731b7c0899039b99f2399d938c6" target="_top" xlink:title="INMOST::Matrix::SVD">
<polygon fill="none" stroke="black" points="93,-38.5 93,-57.5 206,-57.5 206,-38.5 93,-38.5"/>
<text text-anchor="middle" x="149.5" y="-45.5" font-family="Helvetica,sans-Serif" font-size="10.00">INMOST::Matrix::SVD</text>
</a>
</g>
</g>
<!-- Node1&#45;&gt;Node2 -->
<g id="edge1" class="edge"><title>Node1&#45;&gt;Node2</title>
<path fill="none" stroke="midnightblue" d="M67.1,-35.0034C75.313,-36.3147 84.173,-37.7293 92.9196,-39.1258"/>
<polygon fill="midnightblue" stroke="midnightblue" points="67.5269,-31.5273 57.1001,-33.4067 66.4232,-38.4397 67.5269,-31.5273"/>
</g>
<!-- Node3 -->
<g id="node3" class="node"><title>Node3</title>
<g id="a_node3"><a xlink:href="class_i_n_m_o_s_t_1_1_matrix.html#a86a44a488a56fb838c25d333baf1964b" target="_top" xlink:title="INMOST::Matrix::Print">
<polygon fill="none" stroke="black" points="93,-0.5 93,-19.5 206,-19.5 206,-0.5 93,-0.5"/>
<text text-anchor="middle" x="149.5" y="-7.5" font-family="Helvetica,sans-Serif" font-size="10.00">INMOST::Matrix::Print</text>
</a>
</g>
</g>
<!-- Node1&#45;&gt;Node3 -->
<g id="edge3" class="edge"><title>Node1&#45;&gt;Node3</title>
<path fill="none" stroke="midnightblue" d="M67.1,-22.9966C75.313,-21.6853 84.173,-20.2707 92.9196,-18.8742"/>
<polygon fill="midnightblue" stroke="midnightblue" points="66.4232,-19.5603 57.1001,-24.5933 67.5269,-26.4727 66.4232,-19.5603"/>
</g>
<!-- Node2&#45;&gt;Node2 -->
<g id="edge2" class="edge"><title>Node2&#45;&gt;Node2</title>
<path fill="none" stroke="midnightblue" d="M127.179,-67.0292C128.396,-72.128 135.837,-76 149.5,-76 170.828,-76 176.993,-66.5653 167.995,-57.7571"/>
<polygon fill="midnightblue" stroke="midnightblue" points="130.426,-68.3361 131.005,-57.7571 123.955,-65.6661 130.426,-68.3361"/>
</g>
</g>
</svg>
