<?xml version="1.0" encoding="UTF-8" standalone="no"?>
<!DOCTYPE svg PUBLIC "-//W3C//DTD SVG 1.1//EN"
 "http://www.w3.org/Graphics/SVG/1.1/DTD/svg11.dtd">
<!-- Generated by graphviz version 2.38.0 (20140413.2041)
 -->
<!-- Title: fabs Pages: 1 -->
<svg width="393pt" height="268pt"
 viewBox="0.00 0.00 393.00 267.50" xmlns="http://www.w3.org/2000/svg" xmlns:xlink="http://www.w3.org/1999/xlink">
<g id="graph0" class="graph" transform="scale(1 1) rotate(0) translate(4 263.5)">
<title>fabs</title>
<!-- Node1 -->
<g id="node1" class="node"><title>Node1</title>
<polygon fill="#bfbfbf" stroke="black" points="0,-126 0,-145 35,-145 35,-126 0,-126"/>
<text text-anchor="middle" x="17.5" y="-133" font-family="Helvetica,sans-Serif" font-size="10.00">fabs</text>
</g>
<!-- Node2 -->
<g id="node2" class="node"><title>Node2</title>
<g id="a_node2"><a xlink:href="class_i_n_m_o_s_t_1_1_matrix.html#a577c235684527839a256c397dbc64536" target="_top" xlink:title="INMOST::Matrix::sign_func">
<polygon fill="none" stroke="black" points="77.5,-240 77.5,-259 211.5,-259 211.5,-240 77.5,-240"/>
<text text-anchor="middle" x="144.5" y="-247" font-family="Helvetica,sans-Serif" font-size="10.00">INMOST::Matrix::sign_func</text>
</a>
</g>
</g>
<!-- Node1&#45;&gt;Node2 -->
<g id="edge1" class="edge"><title>Node1&#45;&gt;Node2</title>
<path fill="none" stroke="midnightblue" d="M24.9885,-154.647C32.8257,-175.001 47.9054,-206.778 71,-225.5 78.7246,-231.762 88.1458,-236.415 97.6065,-239.864"/>
<polygon fill="midnightblue" stroke="midnightblue" points="28.2513,-153.378 21.5462,-145.175 21.6722,-155.769 28.2513,-153.378"/>
</g>
<!-- Node3 -->
<g id="node3" class="node"><title>Node3</title>
<g id="a_node3"><a xlink:href="class_i_n_m_o_s_t_1_1_matrix.html#adf8bb731b7c0899039b99f2399d938c6" target="_top" xlink:title="INMOST::Matrix::SVD">
<polygon fill="none" stroke="black" points="263,-202 263,-221 376,-221 376,-202 263,-202"/>
<text text-anchor="middle" x="319.5" y="-209" font-family="Helvetica,sans-Serif" font-size="10.00">INMOST::Matrix::SVD</text>
</a>
</g>
</g>
<!-- Node1&#45;&gt;Node3 -->
<g id="edge6" class="edge"><title>Node1&#45;&gt;Node3</title>
<path fill="none" stroke="midnightblue" d="M29.7235,-153.658C39.0107,-166.92 53.4927,-184.01 71,-192.5 131.684,-221.93 210.669,-222.478 262.9,-218.458"/>
<polygon fill="midnightblue" stroke="midnightblue" points="32.5892,-151.646 24.1504,-145.24 26.7524,-155.51 32.5892,-151.646"/>
</g>
<!-- Node4 -->
<g id="node4" class="node"><title>Node4</title>
<g id="a_node4"><a xlink:href="class_i_n_m_o_s_t_1_1_matrix.html#a1bf63fc308656d1066e9149911d762d2" target="_top" xlink:title="INMOST::Matrix::pythag">
<polygon fill="none" stroke="black" points="83.5,-164 83.5,-183 205.5,-183 205.5,-164 83.5,-164"/>
<text text-anchor="middle" x="144.5" y="-171" font-family="Helvetica,sans-Serif" font-size="10.00">INMOST::Matrix::pythag</text>
</a>
</g>
</g>
<!-- Node1&#45;&gt;Node4 -->
<g id="edge4" class="edge"><title>Node1&#45;&gt;Node4</title>
<path fill="none" stroke="midnightblue" d="M44.9353,-145.597C53.226,-148.621 62.4463,-151.837 71,-154.5 81.8088,-157.865 93.6442,-161.137 104.56,-163.991"/>
<polygon fill="midnightblue" stroke="midnightblue" points="45.9839,-142.253 35.3909,-142.056 43.5484,-148.816 45.9839,-142.253"/>
</g>
<!-- Node5 -->
<g id="node5" class="node"><title>Node5</title>
<g id="a_node5"><a xlink:href="class_i_n_m_o_s_t_1_1_matrix.html#ab621083d1f37df018feec6163618c1cd" target="_top" xlink:title="INMOST::Matrix::Invert">
<polygon fill="none" stroke="black" points="87,-126 87,-145 202,-145 202,-126 87,-126"/>
<text text-anchor="middle" x="144.5" y="-133" font-family="Helvetica,sans-Serif" font-size="10.00">INMOST::Matrix::Invert</text>
</a>
</g>
</g>
<!-- Node1&#45;&gt;Node5 -->
<g id="edge7" class="edge"><title>Node1&#45;&gt;Node5</title>
<path fill="none" stroke="midnightblue" d="M45.4213,-135.5C57.5836,-135.5 72.4411,-135.5 86.8767,-135.5"/>
<polygon fill="midnightblue" stroke="midnightblue" points="45.0991,-132 35.099,-135.5 45.099,-139 45.0991,-132"/>
</g>
<!-- Node7 -->
<g id="node7" class="node"><title>Node7</title>
<g id="a_node7"><a xlink:href="class_i_n_m_o_s_t_1_1_matrix.html#a86a44a488a56fb838c25d333baf1964b" target="_top" xlink:title="INMOST::Matrix::Print">
<polygon fill="none" stroke="black" points="88,-88 88,-107 201,-107 201,-88 88,-88"/>
<text text-anchor="middle" x="144.5" y="-95" font-family="Helvetica,sans-Serif" font-size="10.00">INMOST::Matrix::Print</text>
</a>
</g>
</g>
<!-- Node1&#45;&gt;Node7 -->
<g id="edge9" class="edge"><title>Node1&#45;&gt;Node7</title>
<path fill="none" stroke="midnightblue" d="M44.9353,-125.403C53.226,-122.379 62.4463,-119.163 71,-116.5 81.8088,-113.135 93.6442,-109.863 104.56,-107.009"/>
<polygon fill="midnightblue" stroke="midnightblue" points="43.5484,-122.184 35.3909,-128.944 45.9839,-128.747 43.5484,-122.184"/>
</g>
<!-- Node8 -->
<g id="node8" class="node"><title>Node8</title>
<g id="a_node8"><a xlink:href="class_i_n_m_o_s_t_1_1_matrix.html#af2e3465f55d9b01b86400e4813650ceb" target="_top" xlink:title="INMOST::Matrix::isSymmetric">
<polygon fill="none" stroke="black" points="71,-50 71,-69 218,-69 218,-50 71,-50"/>
<text text-anchor="middle" x="144.5" y="-57" font-family="Helvetica,sans-Serif" font-size="10.00">INMOST::Matrix::isSymmetric</text>
</a>
</g>
</g>
<!-- Node1&#45;&gt;Node8 -->
<g id="edge10" class="edge"><title>Node1&#45;&gt;Node8</title>
<path fill="none" stroke="midnightblue" d="M30.7962,-117.413C40.3412,-104.719 54.671,-88.3189 71,-78.5 77.4676,-74.6109 84.7261,-71.5088 92.085,-69.0366"/>
<polygon fill="midnightblue" stroke="midnightblue" points="27.7238,-115.691 24.7315,-125.855 33.4087,-119.776 27.7238,-115.691"/>
</g>
<!-- Node9 -->
<g id="node9" class="node"><title>Node9</title>
<g id="a_node9"><a xlink:href="class_i_n_m_o_s_t_1_1abs__expression.html#ad4ad11758a2ac4b31c9f2b8288021e4b" target="_top" xlink:title="INMOST::abs_expression\l::abs_expression">
<polygon fill="none" stroke="black" points="80.5,-0.5 80.5,-30.5 208.5,-30.5 208.5,-0.5 80.5,-0.5"/>
<text text-anchor="start" x="88.5" y="-18.5" font-family="Helvetica,sans-Serif" font-size="10.00">INMOST::abs_expression</text>
<text text-anchor="middle" x="144.5" y="-7.5" font-family="Helvetica,sans-Serif" font-size="10.00">::abs_expression</text>
</a>
</g>
</g>
<!-- Node1&#45;&gt;Node9 -->
<g id="edge11" class="edge"><title>Node1&#45;&gt;Node9</title>
<path fill="none" stroke="midnightblue" d="M24.4143,-116.309C31.9418,-94.9316 46.937,-60.7268 71,-40.5 75.5863,-36.6449 80.8004,-33.3726 86.2799,-30.5973"/>
<polygon fill="midnightblue" stroke="midnightblue" points="21.0539,-115.323 21.2307,-125.916 27.6986,-117.525 21.0539,-115.323"/>
</g>
<!-- Node2&#45;&gt;Node3 -->
<g id="edge2" class="edge"><title>Node2&#45;&gt;Node3</title>
<path fill="none" stroke="midnightblue" d="M199.005,-237.747C223.467,-232.374 252.071,-226.091 275.159,-221.02"/>
<polygon fill="midnightblue" stroke="midnightblue" points="198.171,-234.347 189.155,-239.911 199.673,-241.184 198.171,-234.347"/>
</g>
<!-- Node3&#45;&gt;Node3 -->
<g id="edge3" class="edge"><title>Node3&#45;&gt;Node3</title>
<path fill="none" stroke="midnightblue" d="M286.94,-229.775C287.868,-235.241 298.722,-239.5 319.5,-239.5 350.426,-239.5 359.365,-230.065 346.318,-221.257"/>
<polygon fill="midnightblue" stroke="midnightblue" points="289.994,-231.505 292.682,-221.257 284.19,-227.593 289.994,-231.505"/>
</g>
<!-- Node4&#45;&gt;Node3 -->
<g id="edge5" class="edge"><title>Node4&#45;&gt;Node3</title>
<path fill="none" stroke="midnightblue" d="M199.005,-185.253C223.467,-190.626 252.071,-196.909 275.159,-201.98"/>
<polygon fill="midnightblue" stroke="midnightblue" points="199.673,-181.816 189.155,-183.089 198.171,-188.653 199.673,-181.816"/>
</g>
<!-- Node6 -->
<g id="node6" class="node"><title>Node6</title>
<g id="a_node6"><a xlink:href="class_i_n_m_o_s_t_1_1_matrix.html#a308fc7a550c7de8c21b9ef17eecba603" target="_top" xlink:title="INMOST::Matrix::operator/">
<polygon fill="none" stroke="black" points="254,-126 254,-145 385,-145 385,-126 254,-126"/>
<text text-anchor="middle" x="319.5" y="-133" font-family="Helvetica,sans-Serif" font-size="10.00">INMOST::Matrix::operator/</text>
</a>
</g>
</g>
<!-- Node5&#45;&gt;Node6 -->
<g id="edge8" class="edge"><title>Node5&#45;&gt;Node6</title>
<path fill="none" stroke="midnightblue" d="M212.417,-135.5C226.053,-135.5 240.375,-135.5 253.927,-135.5"/>
<polygon fill="midnightblue" stroke="midnightblue" points="212.147,-132 202.147,-135.5 212.147,-139 212.147,-132"/>
</g>
</g>
</svg>
