<?xml version="1.0" encoding="UTF-8" standalone="no"?>
<!DOCTYPE svg PUBLIC "-//W3C//DTD SVG 1.1//EN"
 "http://www.w3.org/Graphics/SVG/1.1/DTD/svg11.dtd">
<!-- Generated by graphviz version 2.38.0 (20140413.2041)
 -->
<!-- Title: INMOST.lib/Source/Headers/inmost_sparse.h Pages: 1 -->
<svg width="487pt" height="508pt"
 viewBox="0.00 0.00 487.00 508.00" xmlns="http://www.w3.org/2000/svg" xmlns:xlink="http://www.w3.org/1999/xlink">
<g id="graph0" class="graph" transform="scale(1 1) rotate(0) translate(4 504)">
<title>INMOST.lib/Source/Headers/inmost_sparse.h</title>
<!-- Node1 -->
<g id="node1" class="node"><title>Node1</title>
<polygon fill="#bfbfbf" stroke="black" points="106,-469.5 106,-499.5 245,-499.5 245,-469.5 106,-469.5"/>
<text text-anchor="start" x="114" y="-487.5" font-family="Helvetica,sans-Serif" font-size="10.00">INMOST.lib/Source/Headers</text>
<text text-anchor="middle" x="175.5" y="-476.5" font-family="Helvetica,sans-Serif" font-size="10.00">/inmost_sparse.h</text>
</g>
<!-- Node2 -->
<g id="node2" class="node"><title>Node2</title>
<g id="a_node2"><a xlink:href="inmost__expression_8h.html" target="_top" xlink:title="INMOST.lib/Source/Headers\l/inmost_expression.h">
<polygon fill="none" stroke="black" points="174,-402.5 174,-432.5 313,-432.5 313,-402.5 174,-402.5"/>
<text text-anchor="start" x="182" y="-420.5" font-family="Helvetica,sans-Serif" font-size="10.00">INMOST.lib/Source/Headers</text>
<text text-anchor="middle" x="243.5" y="-409.5" font-family="Helvetica,sans-Serif" font-size="10.00">/inmost_expression.h</text>
</a>
</g>
</g>
<!-- Node1&#45;&gt;Node2 -->
<g id="edge1" class="edge"><title>Node1&#45;&gt;Node2</title>
<path fill="none" stroke="midnightblue" d="M197.666,-462.311C207.867,-452.561 219.691,-441.259 228.774,-432.577"/>
<polygon fill="midnightblue" stroke="midnightblue" points="195.065,-459.956 190.255,-469.396 199.902,-465.016 195.065,-459.956"/>
</g>
<!-- Node10 -->
<g id="node10" class="node"><title>Node10</title>
<g id="a_node10"><a xlink:href="inmost__solver_8h.html" target="_top" xlink:title="INMOST.lib/Source/Headers\l/inmost_solver.h">
<polygon fill="none" stroke="black" points="0,-268.5 0,-298.5 139,-298.5 139,-268.5 0,-268.5"/>
<text text-anchor="start" x="8" y="-286.5" font-family="Helvetica,sans-Serif" font-size="10.00">INMOST.lib/Source/Headers</text>
<text text-anchor="middle" x="69.5" y="-275.5" font-family="Helvetica,sans-Serif" font-size="10.00">/inmost_solver.h</text>
</a>
</g>
</g>
<!-- Node1&#45;&gt;Node10 -->
<g id="edge14" class="edge"><title>Node1&#45;&gt;Node10</title>
<path fill="none" stroke="midnightblue" d="M163.156,-460.326C141.003,-418.737 95.128,-332.613 77.0542,-298.682"/>
<polygon fill="midnightblue" stroke="midnightblue" points="160.086,-462.008 167.877,-469.188 166.265,-458.717 160.086,-462.008"/>
</g>
<!-- Node3 -->
<g id="node3" class="node"><title>Node3</title>
<g id="a_node3"><a xlink:href="inmost__data_8h.html" target="_top" xlink:title="INMOST.lib/Source/Headers\l/inmost_data.h">
<polygon fill="none" stroke="black" points="242,-335.5 242,-365.5 381,-365.5 381,-335.5 242,-335.5"/>
<text text-anchor="start" x="250" y="-353.5" font-family="Helvetica,sans-Serif" font-size="10.00">INMOST.lib/Source/Headers</text>
<text text-anchor="middle" x="311.5" y="-342.5" font-family="Helvetica,sans-Serif" font-size="10.00">/inmost_data.h</text>
</a>
</g>
</g>
<!-- Node2&#45;&gt;Node3 -->
<g id="edge2" class="edge"><title>Node2&#45;&gt;Node3</title>
<path fill="none" stroke="midnightblue" d="M265.666,-395.311C275.867,-385.561 287.691,-374.259 296.774,-365.577"/>
<polygon fill="midnightblue" stroke="midnightblue" points="263.065,-392.956 258.255,-402.396 267.902,-398.016 263.065,-392.956"/>
</g>
<!-- Node7 -->
<g id="node7" class="node"><title>Node7</title>
<g id="a_node7"><a xlink:href="inmost__variable_8h.html" target="_top" xlink:title="INMOST.lib/Source/Headers\l/inmost_variable.h">
<polygon fill="none" stroke="black" points="144,-134.5 144,-164.5 283,-164.5 283,-134.5 144,-134.5"/>
<text text-anchor="start" x="152" y="-152.5" font-family="Helvetica,sans-Serif" font-size="10.00">INMOST.lib/Source/Headers</text>
<text text-anchor="middle" x="213.5" y="-141.5" font-family="Helvetica,sans-Serif" font-size="10.00">/inmost_variable.h</text>
</a>
</g>
</g>
<!-- Node2&#45;&gt;Node7 -->
<g id="edge13" class="edge"><title>Node2&#45;&gt;Node7</title>
<path fill="none" stroke="midnightblue" d="M237.64,-392.581C235.764,-384.215 233.83,-374.732 232.5,-366 221.015,-290.627 215.797,-199.284 214.129,-164.694"/>
<polygon fill="midnightblue" stroke="midnightblue" points="234.259,-393.495 239.937,-402.44 241.077,-391.907 234.259,-393.495"/>
</g>
<!-- Node9 -->
<g id="node9" class="node"><title>Node9</title>
<g id="a_node9"><a xlink:href="inmost__dense_8h.html" target="_top" xlink:title="INMOST.lib/Source/Headers\l/inmost_dense.h">
<polygon fill="none" stroke="black" points="340,-201.5 340,-231.5 479,-231.5 479,-201.5 340,-201.5"/>
<text text-anchor="start" x="348" y="-219.5" font-family="Helvetica,sans-Serif" font-size="10.00">INMOST.lib/Source/Headers</text>
<text text-anchor="middle" x="409.5" y="-208.5" font-family="Helvetica,sans-Serif" font-size="10.00">/inmost_dense.h</text>
</a>
</g>
</g>
<!-- Node2&#45;&gt;Node9 -->
<g id="edge11" class="edge"><title>Node2&#45;&gt;Node9</title>
<path fill="none" stroke="midnightblue" d="M323.014,-405.68C347.788,-398.397 372.93,-386.248 389.5,-366 421.791,-326.541 416.36,-260.456 412.041,-231.646"/>
<polygon fill="midnightblue" stroke="midnightblue" points="321.931,-402.347 313.188,-408.331 323.754,-409.106 321.931,-402.347"/>
</g>
<!-- Node4 -->
<g id="node4" class="node"><title>Node4</title>
<g id="a_node4"><a xlink:href="inmost__mesh_8h.html" target="_top" xlink:title="INMOST.lib/Source/Headers\l/inmost_mesh.h">
<polygon fill="none" stroke="black" points="242,-268.5 242,-298.5 381,-298.5 381,-268.5 242,-268.5"/>
<text text-anchor="start" x="250" y="-286.5" font-family="Helvetica,sans-Serif" font-size="10.00">INMOST.lib/Source/Headers</text>
<text text-anchor="middle" x="311.5" y="-275.5" font-family="Helvetica,sans-Serif" font-size="10.00">/inmost_mesh.h</text>
</a>
</g>
</g>
<!-- Node3&#45;&gt;Node4 -->
<g id="edge3" class="edge"><title>Node3&#45;&gt;Node4</title>
<path fill="none" stroke="midnightblue" d="M311.5,-325.108C311.5,-316.154 311.5,-306.323 311.5,-298.577"/>
<polygon fill="midnightblue" stroke="midnightblue" points="308,-325.396 311.5,-335.396 315,-325.396 308,-325.396"/>
</g>
<!-- Node5 -->
<g id="node5" class="node"><title>Node5</title>
<g id="a_node5"><a xlink:href="inmost_8h.html" target="_top" xlink:title="INMOST.lib/Source/Headers\l/inmost.h">
<polygon fill="none" stroke="black" points="193,-67.5 193,-97.5 332,-97.5 332,-67.5 193,-67.5"/>
<text text-anchor="start" x="201" y="-85.5" font-family="Helvetica,sans-Serif" font-size="10.00">INMOST.lib/Source/Headers</text>
<text text-anchor="middle" x="262.5" y="-74.5" font-family="Helvetica,sans-Serif" font-size="10.00">/inmost.h</text>
</a>
</g>
</g>
<!-- Node4&#45;&gt;Node5 -->
<g id="edge4" class="edge"><title>Node4&#45;&gt;Node5</title>
<path fill="none" stroke="midnightblue" d="M311.068,-257.792C309.892,-227.771 305.75,-175.934 291.5,-134 287.076,-120.981 279.168,-107.543 272.726,-97.8043"/>
<polygon fill="midnightblue" stroke="midnightblue" points="307.581,-258.277 311.388,-268.164 314.578,-258.061 307.581,-258.277"/>
</g>
<!-- Node4&#45;&gt;Node7 -->
<g id="edge7" class="edge"><title>Node4&#45;&gt;Node7</title>
<path fill="none" stroke="midnightblue" d="M294.936,-260.189C274.645,-232.859 240.883,-187.383 223.912,-164.525"/>
<polygon fill="midnightblue" stroke="midnightblue" points="292.241,-262.431 301.012,-268.374 297.861,-258.258 292.241,-262.431"/>
</g>
<!-- Node8 -->
<g id="node8" class="node"><title>Node8</title>
<g id="a_node8"><a xlink:href="inmost__autodiff_8h.html" target="_top" xlink:title="INMOST.lib/Source/Headers\l/inmost_autodiff.h">
<polygon fill="none" stroke="black" points="52,-201.5 52,-231.5 191,-231.5 191,-201.5 52,-201.5"/>
<text text-anchor="start" x="60" y="-219.5" font-family="Helvetica,sans-Serif" font-size="10.00">INMOST.lib/Source/Headers</text>
<text text-anchor="middle" x="121.5" y="-208.5" font-family="Helvetica,sans-Serif" font-size="10.00">/inmost_autodiff.h</text>
</a>
</g>
</g>
<!-- Node4&#45;&gt;Node8 -->
<g id="edge9" class="edge"><title>Node4&#45;&gt;Node8</title>
<path fill="none" stroke="midnightblue" d="M260.614,-265.092C229.943,-254.599 191.386,-241.408 162.647,-231.577"/>
<polygon fill="midnightblue" stroke="midnightblue" points="259.678,-268.471 270.273,-268.396 261.944,-261.847 259.678,-268.471"/>
</g>
<!-- Node6 -->
<g id="node6" class="node"><title>Node6</title>
<g id="a_node6"><a xlink:href="inmost__partitioner_8h.html" target="_top" xlink:title="INMOST.lib/Source/Headers\l/inmost_partitioner.h">
<polygon fill="none" stroke="black" points="193,-0.5 193,-30.5 332,-30.5 332,-0.5 193,-0.5"/>
<text text-anchor="start" x="201" y="-18.5" font-family="Helvetica,sans-Serif" font-size="10.00">INMOST.lib/Source/Headers</text>
<text text-anchor="middle" x="262.5" y="-7.5" font-family="Helvetica,sans-Serif" font-size="10.00">/inmost_partitioner.h</text>
</a>
</g>
</g>
<!-- Node5&#45;&gt;Node6 -->
<g id="edge5" class="edge"><title>Node5&#45;&gt;Node6</title>
<path fill="none" stroke="midnightblue" d="M255.955,-57.4029C255.505,-48.3703 255.796,-38.4078 256.825,-30.5765"/>
<polygon fill="midnightblue" stroke="midnightblue" points="252.47,-57.7359 256.822,-67.396 259.444,-57.1309 252.47,-57.7359"/>
</g>
<!-- Node6&#45;&gt;Node5 -->
<g id="edge6" class="edge"><title>Node6&#45;&gt;Node5</title>
<path fill="none" stroke="midnightblue" d="M269.044,-40.5653C269.495,-49.5958 269.206,-59.5597 268.178,-67.396"/>
<polygon fill="midnightblue" stroke="midnightblue" points="272.528,-40.2355 268.175,-30.5765 265.555,-40.8422 272.528,-40.2355"/>
</g>
<!-- Node7&#45;&gt;Node5 -->
<g id="edge8" class="edge"><title>Node7&#45;&gt;Node5</title>
<path fill="none" stroke="midnightblue" d="M230.343,-126.157C237.488,-116.679 245.6,-105.919 251.888,-97.5765"/>
<polygon fill="midnightblue" stroke="midnightblue" points="227.357,-124.304 224.132,-134.396 232.947,-128.518 227.357,-124.304"/>
</g>
<!-- Node8&#45;&gt;Node7 -->
<g id="edge10" class="edge"><title>Node8&#45;&gt;Node7</title>
<path fill="none" stroke="midnightblue" d="M149.877,-195.451C164.03,-185.452 180.805,-173.6 193.576,-164.577"/>
<polygon fill="midnightblue" stroke="midnightblue" points="147.61,-192.767 141.463,-201.396 151.649,-198.484 147.61,-192.767"/>
</g>
<!-- Node9&#45;&gt;Node5 -->
<g id="edge12" class="edge"><title>Node9&#45;&gt;Node5</title>
<path fill="none" stroke="midnightblue" d="M388.515,-194.053C371.834,-177.275 347.697,-153.586 325.5,-134 310.995,-121.201 293.821,-107.526 281.071,-97.6391"/>
<polygon fill="midnightblue" stroke="midnightblue" points="386.099,-196.588 395.62,-201.236 391.076,-191.666 386.099,-196.588"/>
</g>
<!-- Node10&#45;&gt;Node5 -->
<g id="edge15" class="edge"><title>Node10&#45;&gt;Node5</title>
<path fill="none" stroke="midnightblue" d="M48.5529,-260.295C35.51,-243.657 23.0358,-220.499 33.5,-201 65.0894,-142.137 137.881,-111.952 192.979,-97.0247"/>
<polygon fill="midnightblue" stroke="midnightblue" points="46.1988,-262.934 55.3068,-268.347 51.562,-258.436 46.1988,-262.934"/>
</g>
<!-- Node10&#45;&gt;Node7 -->
<g id="edge17" class="edge"><title>Node10&#45;&gt;Node7</title>
<path fill="none" stroke="midnightblue" d="M51.5221,-259.807C40.0305,-242.363 29.5062,-218.386 42.5,-201 55.055,-184.201 102.226,-171.038 143.851,-162.367"/>
<polygon fill="midnightblue" stroke="midnightblue" points="48.87,-262.118 57.5002,-268.264 54.5861,-258.078 48.87,-262.118"/>
</g>
<!-- Node10&#45;&gt;Node8 -->
<g id="edge16" class="edge"><title>Node10&#45;&gt;Node8</title>
<path fill="none" stroke="midnightblue" d="M87.1422,-260.447C94.7811,-250.899 103.497,-240.004 110.239,-231.577"/>
<polygon fill="midnightblue" stroke="midnightblue" points="84.2972,-258.401 80.7832,-268.396 89.7633,-262.774 84.2972,-258.401"/>
</g>
</g>
</svg>
