<?xml version="1.0" encoding="UTF-8" standalone="no"?>
<!DOCTYPE svg PUBLIC "-//W3C//DTD SVG 1.1//EN"
 "http://www.w3.org/Graphics/SVG/1.1/DTD/svg11.dtd">
<!-- Generated by graphviz version 2.38.0 (20140413.2041)
 -->
<!-- Title: INMOST.lib/Source/Headers/inmost_solver.h Pages: 1 -->
<svg width="210pt" height="307pt"
 viewBox="0.00 0.00 210.46 307.00" xmlns="http://www.w3.org/2000/svg" xmlns:xlink="http://www.w3.org/1999/xlink">
<g id="graph0" class="graph" transform="scale(1 1) rotate(0) translate(4 303)">
<title>INMOST.lib/Source/Headers/inmost_solver.h</title>
<!-- Node1 -->
<g id="node1" class="node"><title>Node1</title>
<polygon fill="#bfbfbf" stroke="black" points="49,-268.5 49,-298.5 188,-298.5 188,-268.5 49,-268.5"/>
<text text-anchor="start" x="57" y="-286.5" font-family="Helvetica,sans-Serif" font-size="10.00">INMOST.lib/Source/Headers</text>
<text text-anchor="middle" x="118.5" y="-275.5" font-family="Helvetica,sans-Serif" font-size="10.00">/inmost_solver.h</text>
</g>
<!-- Node2 -->
<g id="node2" class="node"><title>Node2</title>
<g id="a_node2"><a xlink:href="inmost_8h.html" target="_top" xlink:title="INMOST.lib/Source/Headers\l/inmost.h">
<polygon fill="none" stroke="black" points="0,-67.5 0,-97.5 139,-97.5 139,-67.5 0,-67.5"/>
<text text-anchor="start" x="8" y="-85.5" font-family="Helvetica,sans-Serif" font-size="10.00">INMOST.lib/Source/Headers</text>
<text text-anchor="middle" x="69.5" y="-74.5" font-family="Helvetica,sans-Serif" font-size="10.00">/inmost.h</text>
</a>
</g>
</g>
<!-- Node1&#45;&gt;Node2 -->
<g id="edge1" class="edge"><title>Node1&#45;&gt;Node2</title>
<path fill="none" stroke="midnightblue" d="M72.2277,-263.41C59.3023,-255.67 46.8055,-245.34 39.5,-232 18.5797,-193.798 27.9655,-176 39.5,-134 43.1728,-120.626 51.41,-107.21 58.3255,-97.5702"/>
<polygon fill="midnightblue" stroke="midnightblue" points="70.7404,-266.587 81.186,-268.359 74.1257,-260.46 70.7404,-266.587"/>
</g>
<!-- Node4 -->
<g id="node4" class="node"><title>Node4</title>
<g id="a_node4"><a xlink:href="inmost__autodiff_8h.html" target="_top" xlink:title="INMOST.lib/Source/Headers\l/inmost_autodiff.h">
<polygon fill="none" stroke="black" points="49,-201.5 49,-231.5 188,-231.5 188,-201.5 49,-201.5"/>
<text text-anchor="start" x="57" y="-219.5" font-family="Helvetica,sans-Serif" font-size="10.00">INMOST.lib/Source/Headers</text>
<text text-anchor="middle" x="118.5" y="-208.5" font-family="Helvetica,sans-Serif" font-size="10.00">/inmost_autodiff.h</text>
</a>
</g>
</g>
<!-- Node1&#45;&gt;Node4 -->
<g id="edge4" class="edge"><title>Node1&#45;&gt;Node4</title>
<path fill="none" stroke="midnightblue" d="M118.5,-258.108C118.5,-249.154 118.5,-239.323 118.5,-231.577"/>
<polygon fill="midnightblue" stroke="midnightblue" points="115,-258.396 118.5,-268.396 122,-258.396 115,-258.396"/>
</g>
<!-- Node5 -->
<g id="node5" class="node"><title>Node5</title>
<g id="a_node5"><a xlink:href="inmost__variable_8h.html" target="_top" xlink:title="INMOST.lib/Source/Headers\l/inmost_variable.h">
<polygon fill="none" stroke="black" points="49,-134.5 49,-164.5 188,-164.5 188,-134.5 49,-134.5"/>
<text text-anchor="start" x="57" y="-152.5" font-family="Helvetica,sans-Serif" font-size="10.00">INMOST.lib/Source/Headers</text>
<text text-anchor="middle" x="118.5" y="-141.5" font-family="Helvetica,sans-Serif" font-size="10.00">/inmost_variable.h</text>
</a>
</g>
</g>
<!-- Node1&#45;&gt;Node5 -->
<g id="edge7" class="edge"><title>Node1&#45;&gt;Node5</title>
<path fill="none" stroke="midnightblue" d="M164.772,-263.41C177.698,-255.67 190.195,-245.34 197.5,-232 204.118,-219.916 204.118,-213.084 197.5,-201 188.509,-184.581 171.653,-172.723 155.814,-164.641"/>
<polygon fill="midnightblue" stroke="midnightblue" points="162.874,-260.46 155.814,-268.359 166.26,-266.587 162.874,-260.46"/>
</g>
<!-- Node3 -->
<g id="node3" class="node"><title>Node3</title>
<g id="a_node3"><a xlink:href="inmost__partitioner_8h.html" target="_top" xlink:title="INMOST.lib/Source/Headers\l/inmost_partitioner.h">
<polygon fill="none" stroke="black" points="0,-0.5 0,-30.5 139,-30.5 139,-0.5 0,-0.5"/>
<text text-anchor="start" x="8" y="-18.5" font-family="Helvetica,sans-Serif" font-size="10.00">INMOST.lib/Source/Headers</text>
<text text-anchor="middle" x="69.5" y="-7.5" font-family="Helvetica,sans-Serif" font-size="10.00">/inmost_partitioner.h</text>
</a>
</g>
</g>
<!-- Node2&#45;&gt;Node3 -->
<g id="edge2" class="edge"><title>Node2&#45;&gt;Node3</title>
<path fill="none" stroke="midnightblue" d="M62.9547,-57.4029C62.5055,-48.3703 62.7957,-38.4078 63.8252,-30.5765"/>
<polygon fill="midnightblue" stroke="midnightblue" points="59.4703,-57.7359 63.8216,-67.396 66.4441,-57.1309 59.4703,-57.7359"/>
</g>
<!-- Node3&#45;&gt;Node2 -->
<g id="edge3" class="edge"><title>Node3&#45;&gt;Node2</title>
<path fill="none" stroke="midnightblue" d="M76.0438,-40.5653C76.4947,-49.5958 76.2062,-59.5597 75.1784,-67.396"/>
<polygon fill="midnightblue" stroke="midnightblue" points="79.5284,-40.2355 75.1748,-30.5765 72.5547,-40.8422 79.5284,-40.2355"/>
</g>
<!-- Node4&#45;&gt;Node5 -->
<g id="edge5" class="edge"><title>Node4&#45;&gt;Node5</title>
<path fill="none" stroke="midnightblue" d="M118.5,-191.108C118.5,-182.154 118.5,-172.323 118.5,-164.577"/>
<polygon fill="midnightblue" stroke="midnightblue" points="115,-191.396 118.5,-201.396 122,-191.396 115,-191.396"/>
</g>
<!-- Node5&#45;&gt;Node2 -->
<g id="edge6" class="edge"><title>Node5&#45;&gt;Node2</title>
<path fill="none" stroke="midnightblue" d="M101.657,-126.157C94.5117,-116.679 86.4001,-105.919 80.1115,-97.5765"/>
<polygon fill="midnightblue" stroke="midnightblue" points="99.0532,-128.518 107.868,-134.396 104.643,-124.304 99.0532,-128.518"/>
</g>
</g>
</svg>
