<?xml version="1.0" encoding="UTF-8" standalone="no"?>
<!DOCTYPE svg PUBLIC "-//W3C//DTD SVG 1.1//EN"
 "http://www.w3.org/Graphics/SVG/1.1/DTD/svg11.dtd">
<!-- Generated by graphviz version 2.38.0 (20140413.2041)
 -->
<!-- Title: INMOST.lib/Source/Headers/inmost_mesh.h Pages: 1 -->
<svg width="245pt" height="307pt"
 viewBox="0.00 0.00 245.00 307.00" xmlns="http://www.w3.org/2000/svg" xmlns:xlink="http://www.w3.org/1999/xlink">
<g id="graph0" class="graph" transform="scale(1 1) rotate(0) translate(4 303)">
<title>INMOST.lib/Source/Headers/inmost_mesh.h</title>
<!-- Node1 -->
<g id="node1" class="node"><title>Node1</title>
<polygon fill="#bfbfbf" stroke="black" points="0,-268.5 0,-298.5 139,-298.5 139,-268.5 0,-268.5"/>
<text text-anchor="start" x="8" y="-286.5" font-family="Helvetica,sans-Serif" font-size="10.00">INMOST.lib/Source/Headers</text>
<text text-anchor="middle" x="69.5" y="-275.5" font-family="Helvetica,sans-Serif" font-size="10.00">/inmost_mesh.h</text>
</g>
<!-- Node2 -->
<g id="node2" class="node"><title>Node2</title>
<g id="a_node2"><a xlink:href="inmost_8h.html" target="_top" xlink:title="INMOST.lib/Source/Headers\l/inmost.h">
<polygon fill="none" stroke="black" points="11,-67.5 11,-97.5 150,-97.5 150,-67.5 11,-67.5"/>
<text text-anchor="start" x="19" y="-85.5" font-family="Helvetica,sans-Serif" font-size="10.00">INMOST.lib/Source/Headers</text>
<text text-anchor="middle" x="80.5" y="-74.5" font-family="Helvetica,sans-Serif" font-size="10.00">/inmost.h</text>
</a>
</g>
</g>
<!-- Node1&#45;&gt;Node2 -->
<g id="edge1" class="edge"><title>Node1&#45;&gt;Node2</title>
<path fill="none" stroke="midnightblue" d="M60.8398,-258.822C51.2709,-229.174 38.6782,-177.046 50.5,-134 54.1728,-120.626 62.41,-107.21 69.3255,-97.5702"/>
<polygon fill="midnightblue" stroke="midnightblue" points="57.5329,-259.969 64.0533,-268.32 64.1636,-257.725 57.5329,-259.969"/>
</g>
<!-- Node4 -->
<g id="node4" class="node"><title>Node4</title>
<g id="a_node4"><a xlink:href="inmost__variable_8h.html" target="_top" xlink:title="INMOST.lib/Source/Headers\l/inmost_variable.h">
<polygon fill="none" stroke="black" points="60,-134.5 60,-164.5 199,-164.5 199,-134.5 60,-134.5"/>
<text text-anchor="start" x="68" y="-152.5" font-family="Helvetica,sans-Serif" font-size="10.00">INMOST.lib/Source/Headers</text>
<text text-anchor="middle" x="129.5" y="-141.5" font-family="Helvetica,sans-Serif" font-size="10.00">/inmost_variable.h</text>
</a>
</g>
</g>
<!-- Node1&#45;&gt;Node4 -->
<g id="edge4" class="edge"><title>Node1&#45;&gt;Node4</title>
<path fill="none" stroke="midnightblue" d="M72.2319,-258.222C74.8037,-241.486 79.6397,-219.088 88.5,-201 95.1569,-187.41 106.078,-174.211 114.976,-164.717"/>
<polygon fill="midnightblue" stroke="midnightblue" points="68.7411,-257.917 70.8492,-268.299 75.6761,-258.868 68.7411,-257.917"/>
</g>
<!-- Node5 -->
<g id="node5" class="node"><title>Node5</title>
<g id="a_node5"><a xlink:href="inmost__autodiff_8h.html" target="_top" xlink:title="INMOST.lib/Source/Headers\l/inmost_autodiff.h">
<polygon fill="none" stroke="black" points="98,-201.5 98,-231.5 237,-231.5 237,-201.5 98,-201.5"/>
<text text-anchor="start" x="106" y="-219.5" font-family="Helvetica,sans-Serif" font-size="10.00">INMOST.lib/Source/Headers</text>
<text text-anchor="middle" x="167.5" y="-208.5" font-family="Helvetica,sans-Serif" font-size="10.00">/inmost_autodiff.h</text>
</a>
</g>
</g>
<!-- Node1&#45;&gt;Node5 -->
<g id="edge6" class="edge"><title>Node1&#45;&gt;Node5</title>
<path fill="none" stroke="midnightblue" d="M99.3016,-262.734C114.466,-252.676 132.545,-240.685 146.277,-231.577"/>
<polygon fill="midnightblue" stroke="midnightblue" points="97.1635,-259.952 90.7645,-268.396 101.033,-265.785 97.1635,-259.952"/>
</g>
<!-- Node3 -->
<g id="node3" class="node"><title>Node3</title>
<g id="a_node3"><a xlink:href="inmost__partitioner_8h.html" target="_top" xlink:title="INMOST.lib/Source/Headers\l/inmost_partitioner.h">
<polygon fill="none" stroke="black" points="11,-0.5 11,-30.5 150,-30.5 150,-0.5 11,-0.5"/>
<text text-anchor="start" x="19" y="-18.5" font-family="Helvetica,sans-Serif" font-size="10.00">INMOST.lib/Source/Headers</text>
<text text-anchor="middle" x="80.5" y="-7.5" font-family="Helvetica,sans-Serif" font-size="10.00">/inmost_partitioner.h</text>
</a>
</g>
</g>
<!-- Node2&#45;&gt;Node3 -->
<g id="edge2" class="edge"><title>Node2&#45;&gt;Node3</title>
<path fill="none" stroke="midnightblue" d="M73.9547,-57.4029C73.5055,-48.3703 73.7957,-38.4078 74.8252,-30.5765"/>
<polygon fill="midnightblue" stroke="midnightblue" points="70.4703,-57.7359 74.8216,-67.396 77.4441,-57.1309 70.4703,-57.7359"/>
</g>
<!-- Node3&#45;&gt;Node2 -->
<g id="edge3" class="edge"><title>Node3&#45;&gt;Node2</title>
<path fill="none" stroke="midnightblue" d="M87.0438,-40.5653C87.4947,-49.5958 87.2062,-59.5597 86.1784,-67.396"/>
<polygon fill="midnightblue" stroke="midnightblue" points="90.5284,-40.2355 86.1748,-30.5765 83.5547,-40.8422 90.5284,-40.2355"/>
</g>
<!-- Node4&#45;&gt;Node2 -->
<g id="edge5" class="edge"><title>Node4&#45;&gt;Node2</title>
<path fill="none" stroke="midnightblue" d="M112.657,-126.157C105.512,-116.679 97.4001,-105.919 91.1115,-97.5765"/>
<polygon fill="midnightblue" stroke="midnightblue" points="110.053,-128.518 118.868,-134.396 115.643,-124.304 110.053,-128.518"/>
</g>
<!-- Node5&#45;&gt;Node4 -->
<g id="edge7" class="edge"><title>Node5&#45;&gt;Node4</title>
<path fill="none" stroke="midnightblue" d="M154.098,-192.576C148.641,-183.241 142.507,-172.748 137.729,-164.577"/>
<polygon fill="midnightblue" stroke="midnightblue" points="151.186,-194.529 159.255,-201.396 157.229,-190.997 151.186,-194.529"/>
</g>
</g>
</svg>
