<?xml version="1.0" encoding="UTF-8" standalone="no"?>
<!DOCTYPE svg PUBLIC "-//W3C//DTD SVG 1.1//EN"
 "http://www.w3.org/Graphics/SVG/1.1/DTD/svg11.dtd">
<!-- Generated by graphviz version 2.38.0 (20140413.2041)
 -->
<!-- Title: sqrt Pages: 1 -->
<svg width="384pt" height="502pt"
 viewBox="0.00 0.00 384.00 502.00" xmlns="http://www.w3.org/2000/svg" xmlns:xlink="http://www.w3.org/1999/xlink">
<g id="graph0" class="graph" transform="scale(1 1) rotate(0) translate(4 498)">
<title>sqrt</title>
<!-- Node1 -->
<g id="node1" class="node"><title>Node1</title>
<polygon fill="#bfbfbf" stroke="black" points="0,-231.5 0,-250.5 33,-250.5 33,-231.5 0,-231.5"/>
<text text-anchor="middle" x="16.5" y="-238.5" font-family="Helvetica,sans-Serif" font-size="10.00">sqrt</text>
</g>
<!-- Node2 -->
<g id="node2" class="node"><title>Node2</title>
<g id="a_node2"><a xlink:href="class_i_n_m_o_s_t_1_1_matrix.html#a1bf63fc308656d1066e9149911d762d2" target="_top" xlink:title="INMOST::Matrix::pythag">
<polygon fill="none" stroke="black" points="87,-474.5 87,-493.5 209,-493.5 209,-474.5 87,-474.5"/>
<text text-anchor="middle" x="148" y="-481.5" font-family="Helvetica,sans-Serif" font-size="10.00">INMOST::Matrix::pythag</text>
</a>
</g>
</g>
<!-- Node1&#45;&gt;Node2 -->
<g id="edge1" class="edge"><title>Node1&#45;&gt;Node2</title>
<path fill="none" stroke="midnightblue" d="M19.6331,-260.739C25.2238,-308.948 41.7786,-430.875 69,-460 74.9014,-466.314 82.4191,-470.982 90.4478,-474.429"/>
<polygon fill="midnightblue" stroke="midnightblue" points="23.0945,-260.198 18.5001,-250.651 16.1382,-260.979 23.0945,-260.198"/>
</g>
<!-- Node3 -->
<g id="node3" class="node"><title>Node3</title>
<g id="a_node3"><a xlink:href="class_i_n_m_o_s_t_1_1_matrix.html#adf8bb731b7c0899039b99f2399d938c6" target="_top" xlink:title="INMOST::Matrix::SVD">
<polygon fill="none" stroke="black" points="263,-455.5 263,-474.5 376,-474.5 376,-455.5 263,-455.5"/>
<text text-anchor="middle" x="319.5" y="-462.5" font-family="Helvetica,sans-Serif" font-size="10.00">INMOST::Matrix::SVD</text>
</a>
</g>
</g>
<!-- Node1&#45;&gt;Node3 -->
<g id="edge4" class="edge"><title>Node1&#45;&gt;Node3</title>
<path fill="none" stroke="midnightblue" d="M20.2537,-260.859C26.6688,-304.124 43.9878,-404.8 69,-427 96.9359,-451.795 198.333,-460.418 262.946,-463.413"/>
<polygon fill="midnightblue" stroke="midnightblue" points="23.7173,-260.354 18.8285,-250.955 16.7887,-261.351 23.7173,-260.354"/>
</g>
<!-- Node4 -->
<g id="node4" class="node"><title>Node4</title>
<g id="a_node4"><a xlink:href="class_i_n_m_o_s_t_1_1_matrix.html#a0176cbd86da661c7c018497eedce4c82" target="_top" xlink:title="INMOST::Matrix::FrobeniusNorm">
<polygon fill="none" stroke="black" points="69,-398.5 69,-417.5 227,-417.5 227,-398.5 69,-398.5"/>
<text text-anchor="middle" x="148" y="-405.5" font-family="Helvetica,sans-Serif" font-size="10.00">INMOST::Matrix::FrobeniusNorm</text>
</a>
</g>
</g>
<!-- Node1&#45;&gt;Node4 -->
<g id="edge5" class="edge"><title>Node1&#45;&gt;Node4</title>
<path fill="none" stroke="midnightblue" d="M18.5785,-260.899C21.4127,-292.77 31.6952,-355.113 69,-389 73.2298,-392.842 78.1055,-395.941 83.3116,-398.436"/>
<polygon fill="midnightblue" stroke="midnightblue" points="22.0491,-260.366 17.835,-250.645 15.0674,-260.872 22.0491,-260.366"/>
</g>
<!-- Node5 -->
<g id="node5" class="node"><title>Node5</title>
<g id="a_node5"><a xlink:href="class_i_n_m_o_s_t_1_1sqrt__expression.html#adec167bcfe00ae3ad489f8fa6e206200" target="_top" xlink:title="INMOST::sqrt_expression\l::sqrt_expression">
<polygon fill="none" stroke="black" points="84,-349 84,-379 212,-379 212,-349 84,-349"/>
<text text-anchor="start" x="92" y="-367" font-family="Helvetica,sans-Serif" font-size="10.00">INMOST::sqrt_expression</text>
<text text-anchor="middle" x="148" y="-356" font-family="Helvetica,sans-Serif" font-size="10.00">::sqrt_expression</text>
</a>
</g>
</g>
<!-- Node1&#45;&gt;Node5 -->
<g id="edge6" class="edge"><title>Node1&#45;&gt;Node5</title>
<path fill="none" stroke="midnightblue" d="M22.6554,-260.491C29.5566,-282.849 43.9321,-319.107 69,-340 73.4623,-343.719 78.496,-346.863 83.8036,-349.519"/>
<polygon fill="midnightblue" stroke="midnightblue" points="25.9838,-259.4 19.8538,-250.759 19.257,-261.337 25.9838,-259.4"/>
</g>
<!-- Node6 -->
<g id="node6" class="node"><title>Node6</title>
<g id="a_node6"><a xlink:href="class_i_n_m_o_s_t_1_1soft__abs__expression.html#ad399c79309c13a1cd7d06de5f0b45d3d" target="_top" xlink:title="INMOST::soft_abs_expression\l::soft_abs_expression">
<polygon fill="none" stroke="black" points="73.5,-300 73.5,-330 222.5,-330 222.5,-300 73.5,-300"/>
<text text-anchor="start" x="81.5" y="-318" font-family="Helvetica,sans-Serif" font-size="10.00">INMOST::soft_abs_expression</text>
<text text-anchor="middle" x="148" y="-307" font-family="Helvetica,sans-Serif" font-size="10.00">::soft_abs_expression</text>
</a>
</g>
</g>
<!-- Node1&#45;&gt;Node6 -->
<g id="edge7" class="edge"><title>Node1&#45;&gt;Node6</title>
<path fill="none" stroke="midnightblue" d="M31.9591,-258.794C41.4826,-269.477 54.7851,-282.584 69,-291 74.7301,-294.393 80.9852,-297.348 87.3796,-299.913"/>
<polygon fill="midnightblue" stroke="midnightblue" points="34.3483,-256.203 25.1864,-250.882 29.0304,-260.755 34.3483,-256.203"/>
</g>
<!-- Node7 -->
<g id="node7" class="node"><title>Node7</title>
<g id="a_node7"><a xlink:href="class_i_n_m_o_s_t_1_1soft__sign__expression.html#a8555859ee7ed9ab64256a64395c254f9" target="_top" xlink:title="INMOST::soft_sign_expression\l::soft_sign_expression">
<polygon fill="none" stroke="black" points="72.5,-251 72.5,-281 223.5,-281 223.5,-251 72.5,-251"/>
<text text-anchor="start" x="80.5" y="-269" font-family="Helvetica,sans-Serif" font-size="10.00">INMOST::soft_sign_expression</text>
<text text-anchor="middle" x="148" y="-258" font-family="Helvetica,sans-Serif" font-size="10.00">::soft_sign_expression</text>
</a>
</g>
</g>
<!-- Node1&#45;&gt;Node7 -->
<g id="edge8" class="edge"><title>Node1&#45;&gt;Node7</title>
<path fill="none" stroke="midnightblue" d="M43.1909,-245.96C51.8343,-247.628 61.9603,-249.583 72.4373,-251.606"/>
<polygon fill="midnightblue" stroke="midnightblue" points="43.6029,-242.475 33.1207,-244.016 42.276,-249.348 43.6029,-242.475"/>
</g>
<!-- Node8 -->
<g id="node8" class="node"><title>Node8</title>
<g id="a_node8"><a xlink:href="class_i_n_m_o_s_t_1_1soft__max__expression.html#a37190040a12b0215b0b0d75f37fac248" target="_top" xlink:title="INMOST::soft_max_expression\l::soft_max_expression">
<polygon fill="none" stroke="black" points="72,-202 72,-232 224,-232 224,-202 72,-202"/>
<text text-anchor="start" x="80" y="-220" font-family="Helvetica,sans-Serif" font-size="10.00">INMOST::soft_max_expression</text>
<text text-anchor="middle" x="148" y="-209" font-family="Helvetica,sans-Serif" font-size="10.00">::soft_max_expression</text>
</a>
</g>
</g>
<!-- Node1&#45;&gt;Node8 -->
<g id="edge9" class="edge"><title>Node1&#45;&gt;Node8</title>
<path fill="none" stroke="midnightblue" d="M43.047,-236.265C51.5604,-234.688 61.5237,-232.841 71.8495,-230.928"/>
<polygon fill="midnightblue" stroke="midnightblue" points="42.3155,-232.841 33.1207,-238.105 43.5911,-239.724 42.3155,-232.841"/>
</g>
<!-- Node9 -->
<g id="node9" class="node"><title>Node9</title>
<g id="a_node9"><a xlink:href="class_i_n_m_o_s_t_1_1soft__min__expression.html#a9585afeb0aa05bbf8eefe022b64e28d5" target="_top" xlink:title="INMOST::soft_min_expression\l::soft_min_expression">
<polygon fill="none" stroke="black" points="73.5,-153 73.5,-183 222.5,-183 222.5,-153 73.5,-153"/>
<text text-anchor="start" x="81.5" y="-171" font-family="Helvetica,sans-Serif" font-size="10.00">INMOST::soft_min_expression</text>
<text text-anchor="middle" x="148" y="-160" font-family="Helvetica,sans-Serif" font-size="10.00">::soft_min_expression</text>
</a>
</g>
</g>
<!-- Node1&#45;&gt;Node9 -->
<g id="edge10" class="edge"><title>Node1&#45;&gt;Node9</title>
<path fill="none" stroke="midnightblue" d="M32.4685,-223.631C42.0283,-213.473 55.1887,-201.096 69,-193 75.502,-189.189 82.6549,-185.884 89.9107,-183.039"/>
<polygon fill="midnightblue" stroke="midnightblue" points="29.7514,-221.418 25.63,-231.178 34.9385,-226.118 29.7514,-221.418"/>
</g>
<!-- Node10 -->
<g id="node10" class="node"><title>Node10</title>
<g id="a_node10"><a xlink:href="inmost__expression_8h.html#ade5d1dee3fb2cff7471b879b992e3566" target="_top" xlink:title="soft_abs">
<polygon fill="none" stroke="black" points="121.5,-114.5 121.5,-133.5 174.5,-133.5 174.5,-114.5 121.5,-114.5"/>
<text text-anchor="middle" x="148" y="-121.5" font-family="Helvetica,sans-Serif" font-size="10.00">soft_abs</text>
</a>
</g>
</g>
<!-- Node1&#45;&gt;Node10 -->
<g id="edge11" class="edge"><title>Node1&#45;&gt;Node10</title>
<path fill="none" stroke="midnightblue" d="M22.5967,-221.69C29.4422,-199.581 43.7648,-163.864 69,-144 83.9394,-132.24 105.019,-127.331 121.499,-125.312"/>
<polygon fill="midnightblue" stroke="midnightblue" points="19.2271,-220.744 19.8217,-231.322 25.9535,-222.682 19.2271,-220.744"/>
</g>
<!-- Node11 -->
<g id="node11" class="node"><title>Node11</title>
<g id="a_node11"><a xlink:href="inmost__expression_8h.html#aeb746f57ecd8d863b01bb413e61a518a" target="_top" xlink:title="soft_sign">
<polygon fill="none" stroke="black" points="120,-76.5 120,-95.5 176,-95.5 176,-76.5 120,-76.5"/>
<text text-anchor="middle" x="148" y="-83.5" font-family="Helvetica,sans-Serif" font-size="10.00">soft_sign</text>
</a>
</g>
</g>
<!-- Node1&#45;&gt;Node11 -->
<g id="edge12" class="edge"><title>Node1&#45;&gt;Node11</title>
<path fill="none" stroke="midnightblue" d="M19.2507,-221.432C22.9829,-191.741 34.4464,-135.543 69,-105 82.8888,-92.7231 103.399,-88.0743 119.903,-86.4413"/>
<polygon fill="midnightblue" stroke="midnightblue" points="15.7678,-221.085 18.1668,-231.405 22.7269,-221.841 15.7678,-221.085"/>
</g>
<!-- Node12 -->
<g id="node12" class="node"><title>Node12</title>
<g id="a_node12"><a xlink:href="inmost__expression_8h.html#ad8b10ae506574631f472df2c913d50f3" target="_top" xlink:title="soft_max">
<polygon fill="none" stroke="black" points="120,-38.5 120,-57.5 176,-57.5 176,-38.5 120,-38.5"/>
<text text-anchor="middle" x="148" y="-45.5" font-family="Helvetica,sans-Serif" font-size="10.00">soft_max</text>
</a>
</g>
</g>
<!-- Node1&#45;&gt;Node12 -->
<g id="edge13" class="edge"><title>Node1&#45;&gt;Node12</title>
<path fill="none" stroke="midnightblue" d="M17.343,-221.238C18.1824,-185.168 25.3582,-108.561 69,-67 82.5247,-54.1201 103.262,-49.5181 119.955,-48.057"/>
<polygon fill="midnightblue" stroke="midnightblue" points="13.8415,-221.399 17.2549,-231.428 20.8413,-221.459 13.8415,-221.399"/>
</g>
<!-- Node13 -->
<g id="node13" class="node"><title>Node13</title>
<g id="a_node13"><a xlink:href="inmost__expression_8h.html#a1739c1efd4902f74971263fdabb4a6d1" target="_top" xlink:title="soft_min">
<polygon fill="none" stroke="black" points="121.5,-0.5 121.5,-19.5 174.5,-19.5 174.5,-0.5 121.5,-0.5"/>
<text text-anchor="middle" x="148" y="-7.5" font-family="Helvetica,sans-Serif" font-size="10.00">soft_min</text>
</a>
</g>
</g>
<!-- Node1&#45;&gt;Node13 -->
<g id="edge14" class="edge"><title>Node1&#45;&gt;Node13</title>
<path fill="none" stroke="midnightblue" d="M19.6936,-221.168C25.3252,-173.845 41.792,-56.2251 69,-29 82.5962,-15.3953 104.2,-10.937 121.227,-9.71747"/>
<polygon fill="midnightblue" stroke="midnightblue" points="16.1882,-221.016 18.5216,-231.35 23.1422,-221.816 16.1882,-221.016"/>
</g>
<!-- Node2&#45;&gt;Node3 -->
<g id="edge2" class="edge"><title>Node2&#45;&gt;Node3</title>
<path fill="none" stroke="midnightblue" d="M219.224,-476.128C233.819,-474.492 249.006,-472.79 262.985,-471.223"/>
<polygon fill="midnightblue" stroke="midnightblue" points="218.784,-472.656 209.237,-477.248 219.564,-479.612 218.784,-472.656"/>
</g>
<!-- Node3&#45;&gt;Node3 -->
<g id="edge3" class="edge"><title>Node3&#45;&gt;Node3</title>
<path fill="none" stroke="midnightblue" d="M287.689,-483.275C288.596,-488.741 299.199,-493 319.5,-493 349.715,-493 358.449,-483.565 345.702,-474.757"/>
<polygon fill="midnightblue" stroke="midnightblue" points="290.721,-485.034 293.298,-474.757 284.875,-481.184 290.721,-485.034"/>
</g>
</g>
</svg>
