<?xml version="1.0" encoding="UTF-8" standalone="no"?>
<!DOCTYPE svg PUBLIC "-//W3C//DTD SVG 1.1//EN"
 "http://www.w3.org/Graphics/SVG/1.1/DTD/svg11.dtd">
<!-- Generated by graphviz version 2.38.0 (20140413.2041)
 -->
<!-- Title: INMOST.lib/Source/Headers/inmost_common.h Pages: 1 -->
<svg width="925pt" height="151pt"
 viewBox="0.00 0.00 924.50 151.00" xmlns="http://www.w3.org/2000/svg" xmlns:xlink="http://www.w3.org/1999/xlink">
<g id="graph0" class="graph" transform="scale(1 1) rotate(0) translate(4 147)">
<title>INMOST.lib/Source/Headers/inmost_common.h</title>
<!-- Node1 -->
<g id="node1" class="node"><title>Node1</title>
<polygon fill="#bfbfbf" stroke="black" points="392,-112.5 392,-142.5 531,-142.5 531,-112.5 392,-112.5"/>
<text text-anchor="start" x="400" y="-130.5" font-family="Helvetica,sans-Serif" font-size="10.00">INMOST.lib/Source/Headers</text>
<text text-anchor="middle" x="461.5" y="-119.5" font-family="Helvetica,sans-Serif" font-size="10.00">/inmost_common.h</text>
</g>
<!-- Node2 -->
<g id="node2" class="node"><title>Node2</title>
<polygon fill="none" stroke="#bfbfbf" points="0,-56.5 0,-75.5 91,-75.5 91,-56.5 0,-56.5"/>
<text text-anchor="middle" x="45.5" y="-63.5" font-family="Helvetica,sans-Serif" font-size="10.00">inmost_options.h</text>
</g>
<!-- Node1&#45;&gt;Node2 -->
<g id="edge1" class="edge"><title>Node1&#45;&gt;Node2</title>
<path fill="none" stroke="midnightblue" d="M391.684,-117.32C320.932,-107.889 208.047,-92.4958 101.145,-76.2225"/>
<polygon fill="midnightblue" stroke="midnightblue" points="101.565,-72.7463 91.1515,-74.696 100.508,-79.666 101.565,-72.7463"/>
</g>
<!-- Node3 -->
<g id="node3" class="node"><title>Node3</title>
<polygon fill="none" stroke="#bfbfbf" points="109,-56.5 109,-75.5 150,-75.5 150,-56.5 109,-56.5"/>
<text text-anchor="middle" x="129.5" y="-63.5" font-family="Helvetica,sans-Serif" font-size="10.00">string</text>
</g>
<!-- Node1&#45;&gt;Node3 -->
<g id="edge2" class="edge"><title>Node1&#45;&gt;Node3</title>
<path fill="none" stroke="midnightblue" d="M391.74,-117.376C332.495,-109.047 245.107,-95.3984 159.905,-75.8298"/>
<polygon fill="midnightblue" stroke="midnightblue" points="160.598,-72.3978 150.065,-73.5409 159.012,-79.2158 160.598,-72.3978"/>
</g>
<!-- Node4 -->
<g id="node4" class="node"><title>Node4</title>
<polygon fill="none" stroke="#bfbfbf" points="168.5,-56.5 168.5,-75.5 210.5,-75.5 210.5,-56.5 168.5,-56.5"/>
<text text-anchor="middle" x="189.5" y="-63.5" font-family="Helvetica,sans-Serif" font-size="10.00">vector</text>
</g>
<!-- Node1&#45;&gt;Node4 -->
<g id="edge3" class="edge"><title>Node1&#45;&gt;Node4</title>
<path fill="none" stroke="midnightblue" d="M391.768,-113.593C345.592,-104.665 283.529,-91.9415 220.461,-76.0848"/>
<polygon fill="midnightblue" stroke="midnightblue" points="221.296,-72.6859 210.743,-73.6181 219.574,-79.4707 221.296,-72.6859"/>
</g>
<!-- Node5 -->
<g id="node5" class="node"><title>Node5</title>
<polygon fill="none" stroke="#bfbfbf" points="228.5,-56.5 228.5,-75.5 258.5,-75.5 258.5,-56.5 228.5,-56.5"/>
<text text-anchor="middle" x="243.5" y="-63.5" font-family="Helvetica,sans-Serif" font-size="10.00">set</text>
</g>
<!-- Node1&#45;&gt;Node5 -->
<g id="edge4" class="edge"><title>Node1&#45;&gt;Node5</title>
<path fill="none" stroke="midnightblue" d="M400.741,-112.408C364.597,-103.626 317.715,-91.5464 268.247,-76.0027"/>
<polygon fill="midnightblue" stroke="midnightblue" points="269.243,-72.6467 258.652,-72.9541 267.123,-79.318 269.243,-72.6467"/>
</g>
<!-- Node6 -->
<g id="node6" class="node"><title>Node6</title>
<polygon fill="none" stroke="#bfbfbf" points="277,-56.5 277,-75.5 312,-75.5 312,-56.5 277,-56.5"/>
<text text-anchor="middle" x="294.5" y="-63.5" font-family="Helvetica,sans-Serif" font-size="10.00">map</text>
</g>
<!-- Node1&#45;&gt;Node6 -->
<g id="edge5" class="edge"><title>Node1&#45;&gt;Node6</title>
<path fill="none" stroke="midnightblue" d="M421.923,-112.399C391.134,-101.429 349.205,-86.4907 321.996,-76.7964"/>
<polygon fill="midnightblue" stroke="midnightblue" points="322.937,-73.4163 312.342,-73.357 320.588,-80.0102 322.937,-73.4163"/>
</g>
<!-- Node7 -->
<g id="node7" class="node"><title>Node7</title>
<polygon fill="none" stroke="#bfbfbf" points="330,-56.5 330,-75.5 359,-75.5 359,-56.5 330,-56.5"/>
<text text-anchor="middle" x="344.5" y="-63.5" font-family="Helvetica,sans-Serif" font-size="10.00">list</text>
</g>
<!-- Node1&#45;&gt;Node7 -->
<g id="edge6" class="edge"><title>Node1&#45;&gt;Node7</title>
<path fill="none" stroke="midnightblue" d="M433.773,-112.399C413.862,-102.274 387.303,-88.7676 368.342,-79.1247"/>
<polygon fill="midnightblue" stroke="midnightblue" points="369.694,-75.8859 359.194,-74.4726 366.521,-82.1254 369.694,-75.8859"/>
</g>
<!-- Node8 -->
<g id="node8" class="node"><title>Node8</title>
<polygon fill="none" stroke="#bfbfbf" points="377.5,-56.5 377.5,-75.5 433.5,-75.5 433.5,-56.5 377.5,-56.5"/>
<text text-anchor="middle" x="405.5" y="-63.5" font-family="Helvetica,sans-Serif" font-size="10.00">algorithm</text>
</g>
<!-- Node1&#45;&gt;Node8 -->
<g id="edge7" class="edge"><title>Node1&#45;&gt;Node8</title>
<path fill="none" stroke="midnightblue" d="M448.229,-112.399C439.924,-103.575 429.201,-92.1827 420.576,-83.0178"/>
<polygon fill="midnightblue" stroke="midnightblue" points="423.051,-80.541 413.648,-75.6578 417.953,-85.3386 423.051,-80.541"/>
</g>
<!-- Node9 -->
<g id="node9" class="node"><title>Node9</title>
<polygon fill="none" stroke="#bfbfbf" points="353.5,-0.5 353.5,-19.5 397.5,-19.5 397.5,-0.5 353.5,-0.5"/>
<text text-anchor="middle" x="375.5" y="-7.5" font-family="Helvetica,sans-Serif" font-size="10.00">cmath</text>
</g>
<!-- Node1&#45;&gt;Node9 -->
<g id="edge8" class="edge"><title>Node1&#45;&gt;Node9</title>
<path fill="none" stroke="midnightblue" d="M460.591,-112.278C458.995,-97.083 454.601,-72.9041 442.5,-56 432.825,-42.4845 417.73,-31.8322 404.315,-24.2916"/>
<polygon fill="midnightblue" stroke="midnightblue" points="405.861,-21.1498 395.384,-19.5715 402.59,-27.3386 405.861,-21.1498"/>
</g>
<!-- Node10 -->
<g id="node10" class="node"><title>Node10</title>
<polygon fill="none" stroke="#bfbfbf" points="621.5,-56.5 621.5,-75.5 675.5,-75.5 675.5,-56.5 621.5,-56.5"/>
<text text-anchor="middle" x="648.5" y="-63.5" font-family="Helvetica,sans-Serif" font-size="10.00">iostream</text>
</g>
<!-- Node1&#45;&gt;Node10 -->
<g id="edge9" class="edge"><title>Node1&#45;&gt;Node10</title>
<path fill="none" stroke="midnightblue" d="M505.816,-112.399C538.129,-102.118 581.398,-88.3506 611.786,-78.6818"/>
<polygon fill="midnightblue" stroke="midnightblue" points="613.095,-81.9383 621.563,-75.5709 610.972,-75.2678 613.095,-81.9383"/>
</g>
<!-- Node11 -->
<g id="node11" class="node"><title>Node11</title>
<polygon fill="none" stroke="#bfbfbf" points="694,-56.5 694,-75.5 743,-75.5 743,-56.5 694,-56.5"/>
<text text-anchor="middle" x="718.5" y="-63.5" font-family="Helvetica,sans-Serif" font-size="10.00">fstream</text>
</g>
<!-- Node1&#45;&gt;Node11 -->
<g id="edge10" class="edge"><title>Node1&#45;&gt;Node11</title>
<path fill="none" stroke="midnightblue" d="M526.536,-112.421C568.744,-103.133 625.166,-90.4373 683.828,-76.0996"/>
<polygon fill="midnightblue" stroke="midnightblue" points="684.767,-79.4732 693.644,-73.6902 683.098,-72.6751 684.767,-79.4732"/>
</g>
<!-- Node12 -->
<g id="node12" class="node"><title>Node12</title>
<polygon fill="none" stroke="#bfbfbf" points="415.5,-0.5 415.5,-19.5 463.5,-19.5 463.5,-0.5 415.5,-0.5"/>
<text text-anchor="middle" x="439.5" y="-7.5" font-family="Helvetica,sans-Serif" font-size="10.00">stdlib.h</text>
</g>
<!-- Node1&#45;&gt;Node12 -->
<g id="edge11" class="edge"><title>Node1&#45;&gt;Node12</title>
<path fill="none" stroke="midnightblue" d="M468.6,-112.412C474.898,-97.9548 482.15,-74.958 475.5,-56 471.715,-45.2094 464.133,-35.084 456.9,-27.1808"/>
<polygon fill="midnightblue" stroke="midnightblue" points="459.167,-24.4943 449.662,-19.8145 454.174,-29.4005 459.167,-24.4943"/>
</g>
<!-- Node13 -->
<g id="node13" class="node"><title>Node13</title>
<polygon fill="none" stroke="#bfbfbf" points="761.5,-56.5 761.5,-75.5 807.5,-75.5 807.5,-56.5 761.5,-56.5"/>
<text text-anchor="middle" x="784.5" y="-63.5" font-family="Helvetica,sans-Serif" font-size="10.00">stdio.h</text>
</g>
<!-- Node1&#45;&gt;Node13 -->
<g id="edge12" class="edge"><title>Node1&#45;&gt;Node13</title>
<path fill="none" stroke="midnightblue" d="M531.277,-116.445C588.163,-107.776 670.735,-94.1277 751.643,-76.0048"/>
<polygon fill="midnightblue" stroke="midnightblue" points="752.52,-79.3949 761.5,-73.7725 750.974,-72.5678 752.52,-79.3949"/>
</g>
<!-- Node14 -->
<g id="node14" class="node"><title>Node14</title>
<polygon fill="none" stroke="#bfbfbf" points="825.5,-56.5 825.5,-75.5 873.5,-75.5 873.5,-56.5 825.5,-56.5"/>
<text text-anchor="middle" x="849.5" y="-63.5" font-family="Helvetica,sans-Serif" font-size="10.00">limits.h</text>
</g>
<!-- Node1&#45;&gt;Node14 -->
<g id="edge13" class="edge"><title>Node1&#45;&gt;Node14</title>
<path fill="none" stroke="midnightblue" d="M531.328,-119.178C600.994,-111.282 711.195,-97.1981 815.372,-76.0096"/>
<polygon fill="midnightblue" stroke="midnightblue" points="816.345,-79.3827 825.433,-73.9369 814.933,-72.5267 816.345,-79.3827"/>
</g>
<!-- Node15 -->
<g id="node15" class="node"><title>Node15</title>
<g id="a_node15"><a xlink:href="container_8hpp.html" target="_top" xlink:title="container.hpp">
<polygon fill="none" stroke="black" points="528,-56.5 528,-75.5 603,-75.5 603,-56.5 528,-56.5"/>
<text text-anchor="middle" x="565.5" y="-63.5" font-family="Helvetica,sans-Serif" font-size="10.00">container.hpp</text>
</a>
</g>
</g>
<!-- Node1&#45;&gt;Node15 -->
<g id="edge14" class="edge"><title>Node1&#45;&gt;Node15</title>
<path fill="none" stroke="midnightblue" d="M480.307,-112.399C496.041,-102.684 518.499,-89.8551 536.494,-80.3137"/>
<polygon fill="midnightblue" stroke="midnightblue" points="538.184,-83.3799 545.438,-75.6578 534.951,-77.1708 538.184,-83.3799"/>
</g>
<!-- Node15&#45;&gt;Node1 -->
<g id="edge24" class="edge"><title>Node15&#45;&gt;Node1</title>
<path fill="none" stroke="midnightblue" d="M555.296,-75.6578C542.554,-83.9715 520.584,-96.8101 501.042,-107.506"/>
<polygon fill="midnightblue" stroke="midnightblue" points="499.12,-104.566 491.986,-112.399 502.448,-110.724 499.12,-104.566"/>
</g>
<!-- Node15&#45;&gt;Node9 -->
<g id="edge21" class="edge"><title>Node15&#45;&gt;Node9</title>
<path fill="none" stroke="midnightblue" d="M535.001,-56.4342C504.919,-47.971 457.376,-34.5567 407.234,-20.197"/>
<polygon fill="midnightblue" stroke="midnightblue" points="408.087,-16.8009 397.51,-17.4099 406.159,-23.5299 408.087,-16.8009"/>
</g>
<!-- Node15&#45;&gt;Node12 -->
<g id="edge15" class="edge"><title>Node15&#45;&gt;Node12</title>
<path fill="none" stroke="midnightblue" d="M545.535,-56.4435C524.891,-47.5961 492.437,-33.6875 468.868,-23.5865"/>
<polygon fill="midnightblue" stroke="midnightblue" points="469.942,-20.2387 459.372,-19.5164 467.184,-26.6727 469.942,-20.2387"/>
</g>
<!-- Node16 -->
<g id="node16" class="node"><title>Node16</title>
<polygon fill="none" stroke="#bfbfbf" points="540,-0.5 540,-19.5 591,-19.5 591,-0.5 540,-0.5"/>
<text text-anchor="middle" x="565.5" y="-7.5" font-family="Helvetica,sans-Serif" font-size="10.00">stddef.h</text>
</g>
<!-- Node15&#45;&gt;Node16 -->
<g id="edge16" class="edge"><title>Node15&#45;&gt;Node16</title>
<path fill="none" stroke="midnightblue" d="M565.5,-56.083C565.5,-49.0059 565.5,-38.8611 565.5,-29.9865"/>
<polygon fill="midnightblue" stroke="midnightblue" points="569,-29.751 565.5,-19.7511 562,-29.7511 569,-29.751"/>
</g>
<!-- Node17 -->
<g id="node17" class="node"><title>Node17</title>
<polygon fill="none" stroke="#bfbfbf" points="609,-0.5 609,-19.5 658,-19.5 658,-0.5 609,-0.5"/>
<text text-anchor="middle" x="633.5" y="-7.5" font-family="Helvetica,sans-Serif" font-size="10.00">string.h</text>
</g>
<!-- Node15&#45;&gt;Node17 -->
<g id="edge17" class="edge"><title>Node15&#45;&gt;Node17</title>
<path fill="none" stroke="midnightblue" d="M576.425,-56.324C586.675,-48.1849 602.221,-35.8395 614.501,-26.0874"/>
<polygon fill="midnightblue" stroke="midnightblue" points="616.721,-28.7937 622.376,-19.8339 612.368,-23.3119 616.721,-28.7937"/>
</g>
<!-- Node18 -->
<g id="node18" class="node"><title>Node18</title>
<polygon fill="none" stroke="#bfbfbf" points="676.5,-0.5 676.5,-19.5 728.5,-19.5 728.5,-0.5 676.5,-0.5"/>
<text text-anchor="middle" x="702.5" y="-7.5" font-family="Helvetica,sans-Serif" font-size="10.00">memory</text>
</g>
<!-- Node15&#45;&gt;Node18 -->
<g id="edge18" class="edge"><title>Node15&#45;&gt;Node18</title>
<path fill="none" stroke="midnightblue" d="M587.208,-56.4435C609.855,-47.5171 645.572,-33.4387 671.252,-23.3168"/>
<polygon fill="midnightblue" stroke="midnightblue" points="672.874,-26.4397 680.894,-19.5164 670.307,-19.9273 672.874,-26.4397"/>
</g>
<!-- Node19 -->
<g id="node19" class="node"><title>Node19</title>
<polygon fill="none" stroke="#bfbfbf" points="746.5,-0.5 746.5,-19.5 780.5,-19.5 780.5,-0.5 746.5,-0.5"/>
<text text-anchor="middle" x="763.5" y="-7.5" font-family="Helvetica,sans-Serif" font-size="10.00">new</text>
</g>
<!-- Node15&#45;&gt;Node19 -->
<g id="edge19" class="edge"><title>Node15&#45;&gt;Node19</title>
<path fill="none" stroke="midnightblue" d="M601.302,-56.49C634.204,-48.4803 684.503,-35.7604 736.729,-20.0615"/>
<polygon fill="midnightblue" stroke="midnightblue" points="737.947,-23.3496 746.499,-17.096 735.914,-16.6514 737.947,-23.3496"/>
</g>
<!-- Node20 -->
<g id="node20" class="node"><title>Node20</title>
<polygon fill="none" stroke="#bfbfbf" points="799,-0.5 799,-19.5 846,-19.5 846,-0.5 799,-0.5"/>
<text text-anchor="middle" x="822.5" y="-7.5" font-family="Helvetica,sans-Serif" font-size="10.00">iterator</text>
</g>
<!-- Node15&#45;&gt;Node20 -->
<g id="edge20" class="edge"><title>Node15&#45;&gt;Node20</title>
<path fill="none" stroke="midnightblue" d="M603.367,-57.7166C653.886,-47.948 741.592,-30.7965 789.002,-19.9606"/>
<polygon fill="midnightblue" stroke="midnightblue" points="789.814,-23.3651 798.756,-17.6828 788.222,-16.5485 789.814,-23.3651"/>
</g>
<!-- Node21 -->
<g id="node21" class="node"><title>Node21</title>
<polygon fill="none" stroke="#bfbfbf" points="864.5,-0.5 864.5,-19.5 916.5,-19.5 916.5,-0.5 864.5,-0.5"/>
<text text-anchor="middle" x="890.5" y="-7.5" font-family="Helvetica,sans-Serif" font-size="10.00">assert.h</text>
</g>
<!-- Node15&#45;&gt;Node21 -->
<g id="edge22" class="edge"><title>Node15&#45;&gt;Node21</title>
<path fill="none" stroke="midnightblue" d="M603.185,-57.6391C606.333,-57.0681 609.469,-56.5144 612.5,-56 716.986,-38.2645 746.755,-41.4154 854.246,-20.0787"/>
<polygon fill="midnightblue" stroke="midnightblue" points="855.081,-23.481 864.195,-18.0787 853.701,-16.6183 855.081,-23.481"/>
</g>
<!-- Node22 -->
<g id="node22" class="node"><title>Node22</title>
<polygon fill="none" stroke="#bfbfbf" points="481.5,-0.5 481.5,-19.5 521.5,-19.5 521.5,-0.5 481.5,-0.5"/>
<text text-anchor="middle" x="501.5" y="-7.5" font-family="Helvetica,sans-Serif" font-size="10.00">limits</text>
</g>
<!-- Node15&#45;&gt;Node22 -->
<g id="edge23" class="edge"><title>Node15&#45;&gt;Node22</title>
<path fill="none" stroke="midnightblue" d="M555.217,-56.324C545.664,-48.2631 531.22,-36.0765 519.716,-26.3695"/>
<polygon fill="midnightblue" stroke="midnightblue" points="521.87,-23.6076 511.97,-19.8339 517.356,-28.9577 521.87,-23.6076"/>
</g>
</g>
</svg>
