<?xml version="1.0" encoding="UTF-8" standalone="no"?>
<!DOCTYPE svg PUBLIC "-//W3C//DTD SVG 1.1//EN"
 "http://www.w3.org/Graphics/SVG/1.1/DTD/svg11.dtd">
<!-- Generated by graphviz version 2.38.0 (20140413.2041)
 -->
<!-- Title: sin Pages: 1 -->
<svg width="201pt" height="88pt"
 viewBox="0.00 0.00 201.00 88.00" xmlns="http://www.w3.org/2000/svg" xmlns:xlink="http://www.w3.org/1999/xlink">
<g id="graph0" class="graph" transform="scale(1 1) rotate(0) translate(4 84)">
<title>sin</title>
<!-- Node1 -->
<g id="node1" class="node"><title>Node1</title>
<polygon fill="#bfbfbf" stroke="black" points="0,-30 0,-49 29,-49 29,-30 0,-30"/>
<text text-anchor="middle" x="14.5" y="-37" font-family="Helvetica,sans-Serif" font-size="10.00">sin</text>
</g>
<!-- Node2 -->
<g id="node2" class="node"><title>Node2</title>
<g id="a_node2"><a xlink:href="class_i_n_m_o_s_t_1_1sin__expression.html#a897c76d0ebeb2031c5db57140803fbce" target="_top" xlink:title="INMOST::sin_expression\l::sin_expression">
<polygon fill="none" stroke="black" points="66.5,-49.5 66.5,-79.5 191.5,-79.5 191.5,-49.5 66.5,-49.5"/>
<text text-anchor="start" x="74.5" y="-67.5" font-family="Helvetica,sans-Serif" font-size="10.00">INMOST::sin_expression</text>
<text text-anchor="middle" x="129" y="-56.5" font-family="Helvetica,sans-Serif" font-size="10.00">::sin_expression</text>
</a>
</g>
</g>
<!-- Node1&#45;&gt;Node2 -->
<g id="edge1" class="edge"><title>Node1&#45;&gt;Node2</title>
<path fill="none" stroke="midnightblue" d="M39.3019,-44.7893C47.3267,-46.5726 56.6903,-48.6534 66.268,-50.7818"/>
<polygon fill="midnightblue" stroke="midnightblue" points="39.8159,-41.3182 29.2947,-42.5655 38.2973,-48.1515 39.8159,-41.3182"/>
</g>
<!-- Node3 -->
<g id="node3" class="node"><title>Node3</title>
<g id="a_node3"><a xlink:href="class_i_n_m_o_s_t_1_1cos__expression.html#a3b8b414cfba9f94eb709ba20766f0a8b" target="_top" xlink:title="INMOST::cos_expression\l::cos_expression">
<polygon fill="none" stroke="black" points="65,-0.5 65,-30.5 193,-30.5 193,-0.5 65,-0.5"/>
<text text-anchor="start" x="73" y="-18.5" font-family="Helvetica,sans-Serif" font-size="10.00">INMOST::cos_expression</text>
<text text-anchor="middle" x="129" y="-7.5" font-family="Helvetica,sans-Serif" font-size="10.00">::cos_expression</text>
</a>
</g>
</g>
<!-- Node1&#45;&gt;Node3 -->
<g id="edge2" class="edge"><title>Node1&#45;&gt;Node3</title>
<path fill="none" stroke="midnightblue" d="M39.2315,-34.4373C46.9141,-32.7983 55.8294,-30.8964 64.9874,-28.9427"/>
<polygon fill="midnightblue" stroke="midnightblue" points="38.3444,-31.0477 29.2947,-36.5571 39.8049,-37.8936 38.3444,-31.0477"/>
</g>
</g>
</svg>
