<?xml version="1.0" encoding="UTF-8" standalone="no"?>
<!DOCTYPE svg PUBLIC "-//W3C//DTD SVG 1.1//EN"
 "http://www.w3.org/Graphics/SVG/1.1/DTD/svg11.dtd">
<!-- Generated by graphviz version 2.38.0 (20140413.2041)
 -->
<!-- Title: INMOST.lib/Source/Headers/inmost_dense.h Pages: 1 -->
<svg width="147pt" height="173pt"
 viewBox="0.00 0.00 147.00 173.00" xmlns="http://www.w3.org/2000/svg" xmlns:xlink="http://www.w3.org/1999/xlink">
<g id="graph0" class="graph" transform="scale(1 1) rotate(0) translate(4 169)">
<title>INMOST.lib/Source/Headers/inmost_dense.h</title>
<!-- Node1 -->
<g id="node1" class="node"><title>Node1</title>
<polygon fill="#bfbfbf" stroke="black" points="0,-134.5 0,-164.5 139,-164.5 139,-134.5 0,-134.5"/>
<text text-anchor="start" x="8" y="-152.5" font-family="Helvetica,sans-Serif" font-size="10.00">INMOST.lib/Source/Headers</text>
<text text-anchor="middle" x="69.5" y="-141.5" font-family="Helvetica,sans-Serif" font-size="10.00">/inmost_dense.h</text>
</g>
<!-- Node2 -->
<g id="node2" class="node"><title>Node2</title>
<g id="a_node2"><a xlink:href="inmost_8h.html" target="_top" xlink:title="INMOST.lib/Source/Headers\l/inmost.h">
<polygon fill="none" stroke="black" points="0,-67.5 0,-97.5 139,-97.5 139,-67.5 0,-67.5"/>
<text text-anchor="start" x="8" y="-85.5" font-family="Helvetica,sans-Serif" font-size="10.00">INMOST.lib/Source/Headers</text>
<text text-anchor="middle" x="69.5" y="-74.5" font-family="Helvetica,sans-Serif" font-size="10.00">/inmost.h</text>
</a>
</g>
</g>
<!-- Node1&#45;&gt;Node2 -->
<g id="edge1" class="edge"><title>Node1&#45;&gt;Node2</title>
<path fill="none" stroke="midnightblue" d="M69.5,-124.108C69.5,-115.154 69.5,-105.323 69.5,-97.5765"/>
<polygon fill="midnightblue" stroke="midnightblue" points="66.0001,-124.396 69.5,-134.396 73.0001,-124.396 66.0001,-124.396"/>
</g>
<!-- Node3 -->
<g id="node3" class="node"><title>Node3</title>
<g id="a_node3"><a xlink:href="inmost__partitioner_8h.html" target="_top" xlink:title="INMOST.lib/Source/Headers\l/inmost_partitioner.h">
<polygon fill="none" stroke="black" points="0,-0.5 0,-30.5 139,-30.5 139,-0.5 0,-0.5"/>
<text text-anchor="start" x="8" y="-18.5" font-family="Helvetica,sans-Serif" font-size="10.00">INMOST.lib/Source/Headers</text>
<text text-anchor="middle" x="69.5" y="-7.5" font-family="Helvetica,sans-Serif" font-size="10.00">/inmost_partitioner.h</text>
</a>
</g>
</g>
<!-- Node2&#45;&gt;Node3 -->
<g id="edge2" class="edge"><title>Node2&#45;&gt;Node3</title>
<path fill="none" stroke="midnightblue" d="M62.9547,-57.4029C62.5055,-48.3703 62.7957,-38.4078 63.8252,-30.5765"/>
<polygon fill="midnightblue" stroke="midnightblue" points="59.4703,-57.7359 63.8216,-67.396 66.4441,-57.1309 59.4703,-57.7359"/>
</g>
<!-- Node3&#45;&gt;Node2 -->
<g id="edge3" class="edge"><title>Node3&#45;&gt;Node2</title>
<path fill="none" stroke="midnightblue" d="M76.0438,-40.5653C76.4947,-49.5958 76.2062,-59.5597 75.1784,-67.396"/>
<polygon fill="midnightblue" stroke="midnightblue" points="79.5284,-40.2355 75.1748,-30.5765 72.5547,-40.8422 79.5284,-40.2355"/>
</g>
</g>
</svg>
