<?xml version="1.0" encoding="UTF-8" standalone="no"?>
<!DOCTYPE svg PUBLIC "-//W3C//DTD SVG 1.1//EN"
 "http://www.w3.org/Graphics/SVG/1.1/DTD/svg11.dtd">
<!-- Generated by graphviz version 2.38.0 (20140413.2041)
 -->
<!-- Title: INMOST.lib/Source/Headers/inmost_common.h Pages: 1 -->
<svg width="898pt" height="575pt"
 viewBox="0.00 0.00 898.00 575.00" xmlns="http://www.w3.org/2000/svg" xmlns:xlink="http://www.w3.org/1999/xlink">
<g id="graph0" class="graph" transform="scale(1 1) rotate(0) translate(4 571)">
<title>INMOST.lib/Source/Headers/inmost_common.h</title>
<!-- Node1 -->
<g id="node1" class="node"><title>Node1</title>
<polygon fill="#bfbfbf" stroke="black" points="351,-536.5 351,-566.5 490,-566.5 490,-536.5 351,-536.5"/>
<text text-anchor="start" x="359" y="-554.5" font-family="Helvetica,sans-Serif" font-size="10.00">INMOST.lib/Source/Headers</text>
<text text-anchor="middle" x="420.5" y="-543.5" font-family="Helvetica,sans-Serif" font-size="10.00">/inmost_common.h</text>
</g>
<!-- Node2 -->
<g id="node2" class="node"><title>Node2</title>
<g id="a_node2"><a xlink:href="container_8hpp.html" target="_top" xlink:title="INMOST.lib/Source/Headers\l/container.hpp">
<polygon fill="none" stroke="black" points="0,-469.5 0,-499.5 139,-499.5 139,-469.5 0,-469.5"/>
<text text-anchor="start" x="8" y="-487.5" font-family="Helvetica,sans-Serif" font-size="10.00">INMOST.lib/Source/Headers</text>
<text text-anchor="middle" x="69.5" y="-476.5" font-family="Helvetica,sans-Serif" font-size="10.00">/container.hpp</text>
</a>
</g>
</g>
<!-- Node1&#45;&gt;Node2 -->
<g id="edge1" class="edge"><title>Node1&#45;&gt;Node2</title>
<path fill="none" stroke="midnightblue" d="M340.82,-536.786C280.044,-525.807 197.224,-510.472 139.092,-499.435"/>
<polygon fill="midnightblue" stroke="midnightblue" points="340.295,-540.248 350.757,-538.578 341.537,-533.359 340.295,-540.248"/>
</g>
<!-- Node3 -->
<g id="node3" class="node"><title>Node3</title>
<g id="a_node3"><a xlink:href="inmost_8h.html" target="_top" xlink:title="INMOST.lib/Source/Headers\l/inmost.h">
<polygon fill="none" stroke="black" points="479,-67.5 479,-97.5 618,-97.5 618,-67.5 479,-67.5"/>
<text text-anchor="start" x="487" y="-85.5" font-family="Helvetica,sans-Serif" font-size="10.00">INMOST.lib/Source/Headers</text>
<text text-anchor="middle" x="548.5" y="-74.5" font-family="Helvetica,sans-Serif" font-size="10.00">/inmost.h</text>
</a>
</g>
</g>
<!-- Node1&#45;&gt;Node3 -->
<g id="edge3" class="edge"><title>Node1&#45;&gt;Node3</title>
<path fill="none" stroke="midnightblue" d="M340.415,-542.17C266.298,-529.504 167.5,-497.756 167.5,-418.5 167.5,-418.5 167.5,-418.5 167.5,-215.5 167.5,-150.397 368.627,-110.215 478.619,-93.108"/>
<polygon fill="midnightblue" stroke="midnightblue" points="340.266,-545.691 350.697,-543.833 341.384,-538.781 340.266,-545.691"/>
</g>
<!-- Node5 -->
<g id="node5" class="node"><title>Node5</title>
<g id="a_node5"><a xlink:href="inmost__mesh_8h.html" target="_top" xlink:title="INMOST.lib/Source/Headers\l/inmost_mesh.h">
<polygon fill="none" stroke="black" points="234,-268.5 234,-298.5 373,-298.5 373,-268.5 234,-268.5"/>
<text text-anchor="start" x="242" y="-286.5" font-family="Helvetica,sans-Serif" font-size="10.00">INMOST.lib/Source/Headers</text>
<text text-anchor="middle" x="303.5" y="-275.5" font-family="Helvetica,sans-Serif" font-size="10.00">/inmost_mesh.h</text>
</a>
</g>
</g>
<!-- Node1&#45;&gt;Node5 -->
<g id="edge6" class="edge"><title>Node1&#45;&gt;Node5</title>
<path fill="none" stroke="midnightblue" d="M386.53,-531.085C339.708,-502.109 257.4,-442.653 224.5,-366 219.066,-353.339 217.882,-347.084 224.5,-335 233.491,-318.581 250.347,-306.723 266.186,-298.641"/>
<polygon fill="midnightblue" stroke="midnightblue" points="384.754,-534.101 395.118,-536.303 388.389,-528.119 384.754,-534.101"/>
</g>
<!-- Node6 -->
<g id="node6" class="node"><title>Node6</title>
<g id="a_node6"><a xlink:href="inmost__variable_8h.html" target="_top" xlink:title="INMOST.lib/Source/Headers\l/inmost_variable.h">
<polygon fill="none" stroke="black" points="528,-134.5 528,-164.5 667,-164.5 667,-134.5 528,-134.5"/>
<text text-anchor="start" x="536" y="-152.5" font-family="Helvetica,sans-Serif" font-size="10.00">INMOST.lib/Source/Headers</text>
<text text-anchor="middle" x="597.5" y="-141.5" font-family="Helvetica,sans-Serif" font-size="10.00">/inmost_variable.h</text>
</a>
</g>
</g>
<!-- Node1&#45;&gt;Node6 -->
<g id="edge27" class="edge"><title>Node1&#45;&gt;Node6</title>
<path fill="none" stroke="midnightblue" d="M500.238,-539.735C551.912,-531.248 613.084,-517.86 632.5,-500 655.567,-478.781 649.549,-463.948 654.5,-433 663.056,-379.519 616.373,-214.448 601.763,-164.782"/>
<polygon fill="midnightblue" stroke="midnightblue" points="499.366,-536.33 490.045,-541.367 500.473,-543.242 499.366,-536.33"/>
</g>
<!-- Node7 -->
<g id="node7" class="node"><title>Node7</title>
<g id="a_node7"><a xlink:href="inmost__autodiff_8h.html" target="_top" xlink:title="INMOST.lib/Source/Headers\l/inmost_autodiff.h">
<polygon fill="none" stroke="black" points="332,-201.5 332,-231.5 471,-231.5 471,-201.5 332,-201.5"/>
<text text-anchor="start" x="340" y="-219.5" font-family="Helvetica,sans-Serif" font-size="10.00">INMOST.lib/Source/Headers</text>
<text text-anchor="middle" x="401.5" y="-208.5" font-family="Helvetica,sans-Serif" font-size="10.00">/inmost_autodiff.h</text>
</a>
</g>
</g>
<!-- Node1&#45;&gt;Node7 -->
<g id="edge28" class="edge"><title>Node1&#45;&gt;Node7</title>
<path fill="none" stroke="midnightblue" d="M414.939,-526.493C409.331,-500.153 401.5,-456.553 401.5,-418.5 401.5,-418.5 401.5,-418.5 401.5,-349.5 401.5,-306.646 401.5,-255.966 401.5,-231.759"/>
<polygon fill="midnightblue" stroke="midnightblue" points="411.537,-527.322 417.103,-536.337 418.374,-525.819 411.537,-527.322"/>
</g>
<!-- Node8 -->
<g id="node8" class="node"><title>Node8</title>
<g id="a_node8"><a xlink:href="inmost__data_8h.html" target="_top" xlink:title="INMOST.lib/Source/Headers\l/inmost_data.h">
<polygon fill="none" stroke="black" points="234,-335.5 234,-365.5 373,-365.5 373,-335.5 234,-335.5"/>
<text text-anchor="start" x="242" y="-353.5" font-family="Helvetica,sans-Serif" font-size="10.00">INMOST.lib/Source/Headers</text>
<text text-anchor="middle" x="303.5" y="-342.5" font-family="Helvetica,sans-Serif" font-size="10.00">/inmost_data.h</text>
</a>
</g>
</g>
<!-- Node1&#45;&gt;Node8 -->
<g id="edge12" class="edge"><title>Node1&#45;&gt;Node8</title>
<path fill="none" stroke="midnightblue" d="M405.142,-527.675C399.474,-519.077 393.078,-509.163 387.5,-500 357.93,-451.422 325.465,-392.18 311.081,-365.595"/>
<polygon fill="midnightblue" stroke="midnightblue" points="402.271,-529.679 410.72,-536.072 408.102,-525.806 402.271,-529.679"/>
</g>
<!-- Node9 -->
<g id="node9" class="node"><title>Node9</title>
<g id="a_node9"><a xlink:href="inmost__expression_8h.html" target="_top" xlink:title="INMOST.lib/Source/Headers\l/inmost_expression.h">
<polygon fill="none" stroke="black" points="506,-402.5 506,-432.5 645,-432.5 645,-402.5 506,-402.5"/>
<text text-anchor="start" x="514" y="-420.5" font-family="Helvetica,sans-Serif" font-size="10.00">INMOST.lib/Source/Headers</text>
<text text-anchor="middle" x="575.5" y="-409.5" font-family="Helvetica,sans-Serif" font-size="10.00">/inmost_expression.h</text>
</a>
</g>
</g>
<!-- Node1&#45;&gt;Node9 -->
<g id="edge14" class="edge"><title>Node1&#45;&gt;Node9</title>
<path fill="none" stroke="midnightblue" d="M500.093,-539.993C547.777,-531.883 601.905,-518.832 616.5,-500 632.994,-478.717 609.502,-449.761 591.857,-432.708"/>
<polygon fill="midnightblue" stroke="midnightblue" points="499.331,-536.571 490.032,-541.649 500.468,-543.478 499.331,-536.571"/>
</g>
<!-- Node10 -->
<g id="node10" class="node"><title>Node10</title>
<g id="a_node10"><a xlink:href="inmost__dense_8h.html" target="_top" xlink:title="INMOST.lib/Source/Headers\l/inmost_dense.h">
<polygon fill="none" stroke="black" points="664,-335.5 664,-365.5 803,-365.5 803,-335.5 664,-335.5"/>
<text text-anchor="start" x="672" y="-353.5" font-family="Helvetica,sans-Serif" font-size="10.00">INMOST.lib/Source/Headers</text>
<text text-anchor="middle" x="733.5" y="-342.5" font-family="Helvetica,sans-Serif" font-size="10.00">/inmost_dense.h</text>
</a>
</g>
</g>
<!-- Node1&#45;&gt;Node10 -->
<g id="edge25" class="edge"><title>Node1&#45;&gt;Node10</title>
<path fill="none" stroke="midnightblue" d="M500.541,-544.401C568.895,-537.607 660.341,-524.24 687.5,-500 727.168,-464.595 733.025,-395.742 733.617,-365.886"/>
<polygon fill="midnightblue" stroke="midnightblue" points="499.827,-540.953 490.209,-545.396 500.498,-547.921 499.827,-540.953"/>
</g>
<!-- Node11 -->
<g id="node11" class="node"><title>Node11</title>
<g id="a_node11"><a xlink:href="inmost__sparse_8h.html" target="_top" xlink:title="INMOST.lib/Source/Headers\l/inmost_sparse.h">
<polygon fill="none" stroke="black" points="468,-469.5 468,-499.5 607,-499.5 607,-469.5 468,-469.5"/>
<text text-anchor="start" x="476" y="-487.5" font-family="Helvetica,sans-Serif" font-size="10.00">INMOST.lib/Source/Headers</text>
<text text-anchor="middle" x="537.5" y="-476.5" font-family="Helvetica,sans-Serif" font-size="10.00">/inmost_sparse.h</text>
</a>
</g>
</g>
<!-- Node1&#45;&gt;Node11 -->
<g id="edge19" class="edge"><title>Node1&#45;&gt;Node11</title>
<path fill="none" stroke="midnightblue" d="M454.816,-531.435C473.173,-521.237 495.385,-508.897 512.162,-499.577"/>
<polygon fill="midnightblue" stroke="midnightblue" points="452.929,-528.48 445.887,-536.396 456.329,-534.599 452.929,-528.48"/>
</g>
<!-- Node12 -->
<g id="node12" class="node"><title>Node12</title>
<g id="a_node12"><a xlink:href="inmost__solver_8h.html" target="_top" xlink:title="INMOST.lib/Source/Headers\l/inmost_solver.h">
<polygon fill="none" stroke="black" points="430,-268.5 430,-298.5 569,-298.5 569,-268.5 430,-268.5"/>
<text text-anchor="start" x="438" y="-286.5" font-family="Helvetica,sans-Serif" font-size="10.00">INMOST.lib/Source/Headers</text>
<text text-anchor="middle" x="499.5" y="-275.5" font-family="Helvetica,sans-Serif" font-size="10.00">/inmost_solver.h</text>
</a>
</g>
</g>
<!-- Node1&#45;&gt;Node12 -->
<g id="edge26" class="edge"><title>Node1&#45;&gt;Node12</title>
<path fill="none" stroke="midnightblue" d="M427.326,-526.499C438.704,-486.647 462.383,-404.338 483.5,-335 487.251,-322.683 491.685,-308.734 494.932,-298.623"/>
<polygon fill="midnightblue" stroke="midnightblue" points="423.895,-525.771 424.519,-536.348 430.626,-527.691 423.895,-525.771"/>
</g>
<!-- Node13 -->
<g id="node13" class="node"><title>Node13</title>
<g id="a_node13"><a xlink:href="inmost__nonlinear_8h.html" target="_top" xlink:title="INMOST.lib/Source/Headers\l/inmost_nonlinear.h">
<polygon fill="none" stroke="black" points="751,-402.5 751,-432.5 890,-432.5 890,-402.5 751,-402.5"/>
<text text-anchor="start" x="759" y="-420.5" font-family="Helvetica,sans-Serif" font-size="10.00">INMOST.lib/Source/Headers</text>
<text text-anchor="middle" x="820.5" y="-409.5" font-family="Helvetica,sans-Serif" font-size="10.00">/inmost_nonlinear.h</text>
</a>
</g>
</g>
<!-- Node1&#45;&gt;Node13 -->
<g id="edge29" class="edge"><title>Node1&#45;&gt;Node13</title>
<path fill="none" stroke="midnightblue" d="M500.299,-543.273C579.968,-535.081 696.188,-520.193 736.5,-500 768.475,-483.983 796.187,-451.468 810.385,-432.71"/>
<polygon fill="midnightblue" stroke="midnightblue" points="499.882,-539.797 490.286,-544.287 500.588,-546.761 499.882,-539.797"/>
</g>
<!-- Node2&#45;&gt;Node1 -->
<g id="edge2" class="edge"><title>Node2&#45;&gt;Node1</title>
<path fill="none" stroke="midnightblue" d="M149.081,-499.196C209.848,-510.173 292.698,-525.513 350.859,-536.556"/>
<polygon fill="midnightblue" stroke="midnightblue" points="149.608,-495.734 139.145,-497.404 148.365,-502.623 149.608,-495.734"/>
</g>
<!-- Node4 -->
<g id="node4" class="node"><title>Node4</title>
<g id="a_node4"><a xlink:href="inmost__partitioner_8h.html" target="_top" xlink:title="INMOST.lib/Source/Headers\l/inmost_partitioner.h">
<polygon fill="none" stroke="black" points="479,-0.5 479,-30.5 618,-30.5 618,-0.5 479,-0.5"/>
<text text-anchor="start" x="487" y="-18.5" font-family="Helvetica,sans-Serif" font-size="10.00">INMOST.lib/Source/Headers</text>
<text text-anchor="middle" x="548.5" y="-7.5" font-family="Helvetica,sans-Serif" font-size="10.00">/inmost_partitioner.h</text>
</a>
</g>
</g>
<!-- Node3&#45;&gt;Node4 -->
<g id="edge4" class="edge"><title>Node3&#45;&gt;Node4</title>
<path fill="none" stroke="midnightblue" d="M541.955,-57.4029C541.505,-48.3703 541.796,-38.4078 542.825,-30.5765"/>
<polygon fill="midnightblue" stroke="midnightblue" points="538.47,-57.7359 542.822,-67.396 545.444,-57.1309 538.47,-57.7359"/>
</g>
<!-- Node4&#45;&gt;Node3 -->
<g id="edge5" class="edge"><title>Node4&#45;&gt;Node3</title>
<path fill="none" stroke="midnightblue" d="M555.044,-40.5653C555.495,-49.5958 555.206,-59.5597 554.178,-67.396"/>
<polygon fill="midnightblue" stroke="midnightblue" points="558.528,-40.2355 554.175,-30.5765 551.555,-40.8422 558.528,-40.2355"/>
</g>
<!-- Node5&#45;&gt;Node3 -->
<g id="edge7" class="edge"><title>Node5&#45;&gt;Node3</title>
<path fill="none" stroke="midnightblue" d="M296.677,-258.377C293.254,-241.086 291.812,-217.95 302.5,-201 340.936,-140.046 420.664,-110.035 478.975,-95.7199"/>
<polygon fill="midnightblue" stroke="midnightblue" points="293.305,-259.33 298.974,-268.281 300.124,-257.749 293.305,-259.33"/>
</g>
<!-- Node5&#45;&gt;Node6 -->
<g id="edge8" class="edge"><title>Node5&#45;&gt;Node6</title>
<path fill="none" stroke="midnightblue" d="M302.841,-258.225C303.721,-239.919 308.068,-215.556 323.5,-201 352.353,-173.784 456.688,-160.713 527.952,-154.834"/>
<polygon fill="midnightblue" stroke="midnightblue" points="299.338,-258.382 302.669,-268.44 306.337,-258.5 299.338,-258.382"/>
</g>
<!-- Node5&#45;&gt;Node7 -->
<g id="edge10" class="edge"><title>Node5&#45;&gt;Node7</title>
<path fill="none" stroke="midnightblue" d="M333.302,-262.734C348.466,-252.676 366.545,-240.685 380.277,-231.577"/>
<polygon fill="midnightblue" stroke="midnightblue" points="331.164,-259.952 324.765,-268.396 335.033,-265.785 331.164,-259.952"/>
</g>
<!-- Node6&#45;&gt;Node3 -->
<g id="edge9" class="edge"><title>Node6&#45;&gt;Node3</title>
<path fill="none" stroke="midnightblue" d="M580.657,-126.157C573.512,-116.679 565.4,-105.919 559.112,-97.5765"/>
<polygon fill="midnightblue" stroke="midnightblue" points="578.053,-128.518 586.868,-134.396 583.643,-124.304 578.053,-128.518"/>
</g>
<!-- Node7&#45;&gt;Node6 -->
<g id="edge11" class="edge"><title>Node7&#45;&gt;Node6</title>
<path fill="none" stroke="midnightblue" d="M453.582,-198.228C485.288,-187.713 525.279,-174.451 555.054,-164.577"/>
<polygon fill="midnightblue" stroke="midnightblue" points="452.419,-194.926 444.029,-201.396 454.622,-201.57 452.419,-194.926"/>
</g>
<!-- Node8&#45;&gt;Node5 -->
<g id="edge13" class="edge"><title>Node8&#45;&gt;Node5</title>
<path fill="none" stroke="midnightblue" d="M303.5,-325.108C303.5,-316.154 303.5,-306.323 303.5,-298.577"/>
<polygon fill="midnightblue" stroke="midnightblue" points="300,-325.396 303.5,-335.396 307,-325.396 300,-325.396"/>
</g>
<!-- Node9&#45;&gt;Node6 -->
<g id="edge18" class="edge"><title>Node9&#45;&gt;Node6</title>
<path fill="none" stroke="midnightblue" d="M577.521,-392.065C582.028,-337.572 592.784,-207.521 596.338,-164.549"/>
<polygon fill="midnightblue" stroke="midnightblue" points="574.019,-391.944 576.683,-402.199 580.995,-392.521 574.019,-391.944"/>
</g>
<!-- Node9&#45;&gt;Node8 -->
<g id="edge15" class="edge"><title>Node9&#45;&gt;Node8</title>
<path fill="none" stroke="midnightblue" d="M506.95,-400.119C462.443,-389.483 405.03,-375.763 362.549,-365.611"/>
<polygon fill="midnightblue" stroke="midnightblue" points="506.275,-403.556 516.815,-402.476 507.902,-396.748 506.275,-403.556"/>
</g>
<!-- Node9&#45;&gt;Node10 -->
<g id="edge16" class="edge"><title>Node9&#45;&gt;Node10</title>
<path fill="none" stroke="midnightblue" d="M619.146,-398.544C644.429,-388.143 675.798,-375.238 699.283,-365.577"/>
<polygon fill="midnightblue" stroke="midnightblue" points="617.7,-395.355 609.784,-402.396 620.363,-401.828 617.7,-395.355"/>
</g>
<!-- Node10&#45;&gt;Node3 -->
<g id="edge17" class="edge"><title>Node10&#45;&gt;Node3</title>
<path fill="none" stroke="midnightblue" d="M733.835,-325.164C733.125,-281.451 725.468,-189.072 676.5,-134 661.023,-116.594 638.768,-105.121 617.143,-97.5868"/>
<polygon fill="midnightblue" stroke="midnightblue" points="730.336,-325.434 733.885,-335.417 737.336,-325.4 730.336,-325.434"/>
</g>
<!-- Node11&#45;&gt;Node9 -->
<g id="edge20" class="edge"><title>Node11&#45;&gt;Node9</title>
<path fill="none" stroke="midnightblue" d="M550.902,-460.576C556.359,-451.241 562.493,-440.748 567.271,-432.577"/>
<polygon fill="midnightblue" stroke="midnightblue" points="547.771,-458.997 545.745,-469.396 553.814,-462.529 547.771,-458.997"/>
</g>
<!-- Node11&#45;&gt;Node12 -->
<g id="edge21" class="edge"><title>Node11&#45;&gt;Node12</title>
<path fill="none" stroke="midnightblue" d="M514.926,-461.615C507.946,-453.379 501.14,-443.457 497.5,-433 481.142,-386.003 490.586,-325.465 496.224,-298.515"/>
<polygon fill="midnightblue" stroke="midnightblue" points="512.541,-464.194 521.853,-469.247 517.724,-459.49 512.541,-464.194"/>
</g>
<!-- Node12&#45;&gt;Node3 -->
<g id="edge22" class="edge"><title>Node12&#45;&gt;Node3</title>
<path fill="none" stroke="midnightblue" d="M499.932,-257.792C501.108,-227.771 505.25,-175.934 519.5,-134 523.924,-120.981 531.832,-107.543 538.274,-97.8043"/>
<polygon fill="midnightblue" stroke="midnightblue" points="496.422,-258.061 499.612,-268.164 503.419,-258.277 496.422,-258.061"/>
</g>
<!-- Node12&#45;&gt;Node6 -->
<g id="edge24" class="edge"><title>Node12&#45;&gt;Node6</title>
<path fill="none" stroke="midnightblue" d="M516.064,-260.189C536.355,-232.859 570.117,-187.383 587.088,-164.525"/>
<polygon fill="midnightblue" stroke="midnightblue" points="513.139,-258.258 509.988,-268.374 518.759,-262.431 513.139,-258.258"/>
</g>
<!-- Node12&#45;&gt;Node7 -->
<g id="edge23" class="edge"><title>Node12&#45;&gt;Node7</title>
<path fill="none" stroke="midnightblue" d="M469.698,-262.734C454.534,-252.676 436.455,-240.685 422.723,-231.577"/>
<polygon fill="midnightblue" stroke="midnightblue" points="467.967,-265.785 478.235,-268.396 471.836,-259.952 467.967,-265.785"/>
</g>
<!-- Node13&#45;&gt;Node3 -->
<g id="edge30" class="edge"><title>Node13&#45;&gt;Node3</title>
<path fill="none" stroke="midnightblue" d="M823.763,-392.04C827.006,-365.58 831.5,-322.127 831.5,-284.5 831.5,-284.5 831.5,-284.5 831.5,-215.5 831.5,-121.575 701.886,-94.3227 618.092,-86.5184"/>
<polygon fill="midnightblue" stroke="midnightblue" points="820.251,-391.912 822.467,-402.273 827.196,-392.792 820.251,-391.912"/>
</g>
</g>
</svg>
