<?xml version="1.0" encoding="UTF-8" standalone="no"?>
<!DOCTYPE svg PUBLIC "-//W3C//DTD SVG 1.1//EN"
 "http://www.w3.org/Graphics/SVG/1.1/DTD/svg11.dtd">
<!-- Generated by graphviz version 2.38.0 (20140413.2041)
 -->
<!-- Title: cos Pages: 1 -->
<svg width="204pt" height="88pt"
 viewBox="0.00 0.00 204.00 88.00" xmlns="http://www.w3.org/2000/svg" xmlns:xlink="http://www.w3.org/1999/xlink">
<g id="graph0" class="graph" transform="scale(1 1) rotate(0) translate(4 84)">
<title>cos</title>
<!-- Node1 -->
<g id="node1" class="node"><title>Node1</title>
<polygon fill="#bfbfbf" stroke="black" points="0,-30 0,-49 32,-49 32,-30 0,-30"/>
<text text-anchor="middle" x="16" y="-37" font-family="Helvetica,sans-Serif" font-size="10.00">cos</text>
</g>
<!-- Node2 -->
<g id="node2" class="node"><title>Node2</title>
<g id="a_node2"><a xlink:href="class_i_n_m_o_s_t_1_1sin__expression.html#a897c76d0ebeb2031c5db57140803fbce" target="_top" xlink:title="INMOST::sin_expression\l::sin_expression">
<polygon fill="none" stroke="black" points="69.5,-49.5 69.5,-79.5 194.5,-79.5 194.5,-49.5 69.5,-49.5"/>
<text text-anchor="start" x="77.5" y="-67.5" font-family="Helvetica,sans-Serif" font-size="10.00">INMOST::sin_expression</text>
<text text-anchor="middle" x="132" y="-56.5" font-family="Helvetica,sans-Serif" font-size="10.00">::sin_expression</text>
</a>
</g>
</g>
<!-- Node1&#45;&gt;Node2 -->
<g id="edge1" class="edge"><title>Node1&#45;&gt;Node2</title>
<path fill="none" stroke="midnightblue" d="M42.2293,-45.0327C50.349,-46.8134 59.7325,-48.8712 69.2938,-50.9679"/>
<polygon fill="midnightblue" stroke="midnightblue" points="42.8922,-41.595 32.3745,-42.8716 41.3927,-48.4325 42.8922,-41.595"/>
</g>
<!-- Node3 -->
<g id="node3" class="node"><title>Node3</title>
<g id="a_node3"><a xlink:href="class_i_n_m_o_s_t_1_1cos__expression.html#a3b8b414cfba9f94eb709ba20766f0a8b" target="_top" xlink:title="INMOST::cos_expression\l::cos_expression">
<polygon fill="none" stroke="black" points="68,-0.5 68,-30.5 196,-30.5 196,-0.5 68,-0.5"/>
<text text-anchor="start" x="76" y="-18.5" font-family="Helvetica,sans-Serif" font-size="10.00">INMOST::cos_expression</text>
<text text-anchor="middle" x="132" y="-7.5" font-family="Helvetica,sans-Serif" font-size="10.00">::cos_expression</text>
</a>
</g>
</g>
<!-- Node1&#45;&gt;Node3 -->
<g id="edge2" class="edge"><title>Node1&#45;&gt;Node3</title>
<path fill="none" stroke="midnightblue" d="M42.3586,-34.1613C50.0126,-32.55 58.7808,-30.704 67.7581,-28.8141"/>
<polygon fill="midnightblue" stroke="midnightblue" points="41.439,-30.7781 32.3745,-36.2633 42.8811,-37.628 41.439,-30.7781"/>
</g>
</g>
</svg>
