<?xml version="1.0" encoding="UTF-8" standalone="no"?>
<!DOCTYPE svg PUBLIC "-//W3C//DTD SVG 1.1//EN"
 "http://www.w3.org/Graphics/SVG/1.1/DTD/svg11.dtd">
<!-- Generated by graphviz version 2.38.0 (20140413.2041)
 -->
<!-- Title: INMOST.lib/Source/Headers/inmost_mesh.h Pages: 1 -->
<svg width="990pt" height="375pt"
 viewBox="0.00 0.00 989.50 375.00" xmlns="http://www.w3.org/2000/svg" xmlns:xlink="http://www.w3.org/1999/xlink">
<g id="graph0" class="graph" transform="scale(1 1) rotate(0) translate(4 371)">
<title>INMOST.lib/Source/Headers/inmost_mesh.h</title>
<!-- Node1 -->
<g id="node1" class="node"><title>Node1</title>
<polygon fill="#bfbfbf" stroke="black" points="444,-336.5 444,-366.5 583,-366.5 583,-336.5 444,-336.5"/>
<text text-anchor="start" x="452" y="-354.5" font-family="Helvetica,sans-Serif" font-size="10.00">INMOST.lib/Source/Headers</text>
<text text-anchor="middle" x="513.5" y="-343.5" font-family="Helvetica,sans-Serif" font-size="10.00">/inmost_mesh.h</text>
</g>
<!-- Node2 -->
<g id="node2" class="node"><title>Node2</title>
<g id="a_node2"><a xlink:href="inmost__common_8h.html" target="_top" xlink:title="inmost_common.h">
<polygon fill="none" stroke="black" points="451,-112.5 451,-131.5 548,-131.5 548,-112.5 451,-112.5"/>
<text text-anchor="middle" x="499.5" y="-119.5" font-family="Helvetica,sans-Serif" font-size="10.00">inmost_common.h</text>
</a>
</g>
</g>
<!-- Node1&#45;&gt;Node2 -->
<g id="edge1" class="edge"><title>Node1&#45;&gt;Node2</title>
<path fill="none" stroke="midnightblue" d="M508.397,-336.133C505.129,-326.143 501.193,-312.441 499.5,-300 491.715,-242.78 495.36,-174.189 497.848,-141.755"/>
<polygon fill="midnightblue" stroke="midnightblue" points="501.358,-141.783 498.69,-131.529 494.381,-141.208 501.358,-141.783"/>
</g>
<!-- Node24 -->
<g id="node24" class="node"><title>Node24</title>
<g id="a_node24"><a xlink:href="inmost__data_8h.html" target="_top" xlink:title="inmost_data.h">
<polygon fill="none" stroke="black" points="508.5,-280.5 508.5,-299.5 586.5,-299.5 586.5,-280.5 508.5,-280.5"/>
<text text-anchor="middle" x="547.5" y="-287.5" font-family="Helvetica,sans-Serif" font-size="10.00">inmost_data.h</text>
</a>
</g>
</g>
<!-- Node1&#45;&gt;Node24 -->
<g id="edge26" class="edge"><title>Node1&#45;&gt;Node24</title>
<path fill="none" stroke="midnightblue" d="M521.558,-336.399C526.345,-328.021 532.456,-317.327 537.544,-308.423"/>
<polygon fill="midnightblue" stroke="midnightblue" points="540.63,-310.077 542.553,-299.658 534.552,-306.604 540.63,-310.077"/>
</g>
<!-- Node3 -->
<g id="node3" class="node"><title>Node3</title>
<polygon fill="none" stroke="#bfbfbf" points="0,-56.5 0,-75.5 91,-75.5 91,-56.5 0,-56.5"/>
<text text-anchor="middle" x="45.5" y="-63.5" font-family="Helvetica,sans-Serif" font-size="10.00">inmost_options.h</text>
</g>
<!-- Node2&#45;&gt;Node3 -->
<g id="edge2" class="edge"><title>Node2&#45;&gt;Node3</title>
<path fill="none" stroke="midnightblue" d="M450.752,-116.359C377.232,-109.174 233.357,-94.3937 101.425,-76.2096"/>
<polygon fill="midnightblue" stroke="midnightblue" points="101.525,-72.6901 91.139,-74.7815 100.563,-79.6236 101.525,-72.6901"/>
</g>
<!-- Node4 -->
<g id="node4" class="node"><title>Node4</title>
<polygon fill="none" stroke="#bfbfbf" points="109,-56.5 109,-75.5 150,-75.5 150,-56.5 109,-56.5"/>
<text text-anchor="middle" x="129.5" y="-63.5" font-family="Helvetica,sans-Serif" font-size="10.00">string</text>
</g>
<!-- Node2&#45;&gt;Node4 -->
<g id="edge3" class="edge"><title>Node2&#45;&gt;Node4</title>
<path fill="none" stroke="midnightblue" d="M450.943,-117.034C386.532,-111.233 269.233,-98.7899 159.918,-75.7503"/>
<polygon fill="midnightblue" stroke="midnightblue" points="160.556,-72.3074 150.044,-73.6351 159.089,-79.1521 160.556,-72.3074"/>
</g>
<!-- Node5 -->
<g id="node5" class="node"><title>Node5</title>
<polygon fill="none" stroke="#bfbfbf" points="168.5,-56.5 168.5,-75.5 210.5,-75.5 210.5,-56.5 168.5,-56.5"/>
<text text-anchor="middle" x="189.5" y="-63.5" font-family="Helvetica,sans-Serif" font-size="10.00">vector</text>
</g>
<!-- Node2&#45;&gt;Node5 -->
<g id="edge4" class="edge"><title>Node2&#45;&gt;Node5</title>
<path fill="none" stroke="midnightblue" d="M450.816,-115.161C396.746,-108.235 306.752,-95.4021 220.648,-76.0128"/>
<polygon fill="midnightblue" stroke="midnightblue" points="221.241,-72.5581 210.713,-73.7418 219.681,-79.3821 221.241,-72.5581"/>
</g>
<!-- Node6 -->
<g id="node6" class="node"><title>Node6</title>
<polygon fill="none" stroke="#bfbfbf" points="228.5,-56.5 228.5,-75.5 258.5,-75.5 258.5,-56.5 228.5,-56.5"/>
<text text-anchor="middle" x="243.5" y="-63.5" font-family="Helvetica,sans-Serif" font-size="10.00">set</text>
</g>
<!-- Node2&#45;&gt;Node6 -->
<g id="edge5" class="edge"><title>Node2&#45;&gt;Node6</title>
<path fill="none" stroke="midnightblue" d="M450.962,-114.009C405.856,-106.973 336.742,-94.8218 268.645,-75.9373"/>
<polygon fill="midnightblue" stroke="midnightblue" points="269.183,-72.4524 258.608,-73.102 267.28,-79.1888 269.183,-72.4524"/>
</g>
<!-- Node7 -->
<g id="node7" class="node"><title>Node7</title>
<polygon fill="none" stroke="#bfbfbf" points="277,-56.5 277,-75.5 312,-75.5 312,-56.5 277,-56.5"/>
<text text-anchor="middle" x="294.5" y="-63.5" font-family="Helvetica,sans-Serif" font-size="10.00">map</text>
</g>
<!-- Node2&#45;&gt;Node7 -->
<g id="edge6" class="edge"><title>Node2&#45;&gt;Node7</title>
<path fill="none" stroke="midnightblue" d="M461.526,-112.465C427.175,-104.52 375.036,-91.9061 321.676,-76.1754"/>
<polygon fill="midnightblue" stroke="midnightblue" points="322.638,-72.81 312.055,-73.3085 320.639,-79.5185 322.638,-72.81"/>
</g>
<!-- Node8 -->
<g id="node8" class="node"><title>Node8</title>
<polygon fill="none" stroke="#bfbfbf" points="330,-56.5 330,-75.5 359,-75.5 359,-56.5 330,-56.5"/>
<text text-anchor="middle" x="344.5" y="-63.5" font-family="Helvetica,sans-Serif" font-size="10.00">list</text>
</g>
<!-- Node2&#45;&gt;Node8 -->
<g id="edge7" class="edge"><title>Node2&#45;&gt;Node8</title>
<path fill="none" stroke="midnightblue" d="M473.822,-112.415C449.218,-104.138 410.824,-91.0886 368.794,-76.0349"/>
<polygon fill="midnightblue" stroke="midnightblue" points="369.794,-72.6752 359.199,-72.5862 367.426,-79.2626 369.794,-72.6752"/>
</g>
<!-- Node9 -->
<g id="node9" class="node"><title>Node9</title>
<polygon fill="none" stroke="#bfbfbf" points="377.5,-56.5 377.5,-75.5 433.5,-75.5 433.5,-56.5 377.5,-56.5"/>
<text text-anchor="middle" x="405.5" y="-63.5" font-family="Helvetica,sans-Serif" font-size="10.00">algorithm</text>
</g>
<!-- Node2&#45;&gt;Node9 -->
<g id="edge8" class="edge"><title>Node2&#45;&gt;Node9</title>
<path fill="none" stroke="midnightblue" d="M484.397,-112.324C469.597,-103.822 446.806,-90.7288 429.518,-80.7975"/>
<polygon fill="midnightblue" stroke="midnightblue" points="430.98,-77.6009 420.565,-75.6545 427.493,-83.6707 430.98,-77.6009"/>
</g>
<!-- Node10 -->
<g id="node10" class="node"><title>Node10</title>
<polygon fill="none" stroke="#bfbfbf" points="346.5,-0.5 346.5,-19.5 390.5,-19.5 390.5,-0.5 346.5,-0.5"/>
<text text-anchor="middle" x="368.5" y="-7.5" font-family="Helvetica,sans-Serif" font-size="10.00">cmath</text>
</g>
<!-- Node2&#45;&gt;Node10 -->
<g id="edge9" class="edge"><title>Node2&#45;&gt;Node10</title>
<path fill="none" stroke="midnightblue" d="M493.209,-112.25C483.402,-99.0101 463.417,-73.5689 442.5,-56 427.955,-43.7832 409.745,-32.6656 395.029,-24.5373"/>
<polygon fill="midnightblue" stroke="midnightblue" points="396.402,-21.3014 385.937,-19.646 393.085,-27.4659 396.402,-21.3014"/>
</g>
<!-- Node11 -->
<g id="node11" class="node"><title>Node11</title>
<polygon fill="none" stroke="#bfbfbf" points="621.5,-56.5 621.5,-75.5 675.5,-75.5 675.5,-56.5 621.5,-56.5"/>
<text text-anchor="middle" x="648.5" y="-63.5" font-family="Helvetica,sans-Serif" font-size="10.00">iostream</text>
</g>
<!-- Node2&#45;&gt;Node11 -->
<g id="edge10" class="edge"><title>Node2&#45;&gt;Node11</title>
<path fill="none" stroke="midnightblue" d="M523.109,-112.444C547.958,-103.438 587.274,-89.1891 615.254,-79.049"/>
<polygon fill="midnightblue" stroke="midnightblue" points="616.792,-82.2144 625.001,-75.5164 614.407,-75.6332 616.792,-82.2144"/>
</g>
<!-- Node12 -->
<g id="node12" class="node"><title>Node12</title>
<polygon fill="none" stroke="#bfbfbf" points="694,-56.5 694,-75.5 743,-75.5 743,-56.5 694,-56.5"/>
<text text-anchor="middle" x="718.5" y="-63.5" font-family="Helvetica,sans-Serif" font-size="10.00">fstream</text>
</g>
<!-- Node2&#45;&gt;Node12 -->
<g id="edge11" class="edge"><title>Node2&#45;&gt;Node12</title>
<path fill="none" stroke="midnightblue" d="M535.711,-112.42C571.004,-104.007 626.438,-90.6596 683.683,-76.1699"/>
<polygon fill="midnightblue" stroke="midnightblue" points="684.801,-79.4971 693.633,-73.6444 683.079,-72.7123 684.801,-79.4971"/>
</g>
<!-- Node13 -->
<g id="node13" class="node"><title>Node13</title>
<polygon fill="none" stroke="#bfbfbf" points="408.5,-0.5 408.5,-19.5 456.5,-19.5 456.5,-0.5 408.5,-0.5"/>
<text text-anchor="middle" x="432.5" y="-7.5" font-family="Helvetica,sans-Serif" font-size="10.00">stdlib.h</text>
</g>
<!-- Node2&#45;&gt;Node13 -->
<g id="edge12" class="edge"><title>Node2&#45;&gt;Node13</title>
<path fill="none" stroke="midnightblue" d="M497.443,-112.071C494.175,-99.04 486.968,-74.3663 475.5,-56 468.734,-45.1645 459.047,-34.7401 450.58,-26.6579"/>
<polygon fill="midnightblue" stroke="midnightblue" points="452.709,-23.8621 442.971,-19.6896 447.982,-29.0245 452.709,-23.8621"/>
</g>
<!-- Node14 -->
<g id="node14" class="node"><title>Node14</title>
<polygon fill="none" stroke="#bfbfbf" points="761.5,-56.5 761.5,-75.5 807.5,-75.5 807.5,-56.5 761.5,-56.5"/>
<text text-anchor="middle" x="784.5" y="-63.5" font-family="Helvetica,sans-Serif" font-size="10.00">stdio.h</text>
</g>
<!-- Node2&#45;&gt;Node14 -->
<g id="edge13" class="edge"><title>Node2&#45;&gt;Node14</title>
<path fill="none" stroke="midnightblue" d="M548.068,-113.651C599.005,-105.635 681.262,-91.8157 751.5,-76 751.601,-75.9772 751.703,-75.9542 751.805,-75.9312"/>
<polygon fill="midnightblue" stroke="midnightblue" points="752.607,-79.3382 761.487,-73.5588 750.941,-72.5393 752.607,-79.3382"/>
</g>
<!-- Node15 -->
<g id="node15" class="node"><title>Node15</title>
<polygon fill="none" stroke="#bfbfbf" points="825.5,-56.5 825.5,-75.5 873.5,-75.5 873.5,-56.5 825.5,-56.5"/>
<text text-anchor="middle" x="849.5" y="-63.5" font-family="Helvetica,sans-Serif" font-size="10.00">limits.h</text>
</g>
<!-- Node2&#45;&gt;Node15 -->
<g id="edge14" class="edge"><title>Node2&#45;&gt;Node15</title>
<path fill="none" stroke="midnightblue" d="M548.16,-116.009C608.65,-109.382 715.177,-96.324 815.44,-75.993"/>
<polygon fill="midnightblue" stroke="midnightblue" points="816.344,-79.3805 825.434,-73.9377 814.933,-72.524 816.344,-79.3805"/>
</g>
<!-- Node16 -->
<g id="node16" class="node"><title>Node16</title>
<g id="a_node16"><a xlink:href="container_8hpp.html" target="_top" xlink:title="container.hpp">
<polygon fill="none" stroke="black" points="528,-56.5 528,-75.5 603,-75.5 603,-56.5 528,-56.5"/>
<text text-anchor="middle" x="565.5" y="-63.5" font-family="Helvetica,sans-Serif" font-size="10.00">container.hpp</text>
</a>
</g>
</g>
<!-- Node2&#45;&gt;Node16 -->
<g id="edge15" class="edge"><title>Node2&#45;&gt;Node16</title>
<path fill="none" stroke="midnightblue" d="M505.232,-112.083C513.632,-103.777 528.649,-91.2461 541.714,-81.5018"/>
<polygon fill="midnightblue" stroke="midnightblue" points="543.869,-84.2635 549.929,-75.5732 539.772,-78.5873 543.869,-84.2635"/>
</g>
<!-- Node16&#45;&gt;Node2 -->
<g id="edge25" class="edge"><title>Node16&#45;&gt;Node2</title>
<path fill="none" stroke="midnightblue" d="M559.852,-75.8339C551.502,-84.1057 536.515,-96.6204 523.443,-106.38"/>
<polygon fill="midnightblue" stroke="midnightblue" points="521.274,-103.63 515.219,-112.324 525.374,-109.303 521.274,-103.63"/>
</g>
<!-- Node16&#45;&gt;Node10 -->
<g id="edge22" class="edge"><title>Node16&#45;&gt;Node10</title>
<path fill="none" stroke="midnightblue" d="M533.32,-56.4586C501.805,-48.0534 452.177,-34.7116 400.225,-20.1686"/>
<polygon fill="midnightblue" stroke="midnightblue" points="401.075,-16.772 390.502,-17.44 399.184,-23.5117 401.075,-16.772"/>
</g>
<!-- Node16&#45;&gt;Node13 -->
<g id="edge16" class="edge"><title>Node16&#45;&gt;Node13</title>
<path fill="none" stroke="midnightblue" d="M544.426,-56.4435C522.44,-47.5171 487.766,-33.4387 462.836,-23.3168"/>
<polygon fill="midnightblue" stroke="midnightblue" points="464.058,-20.0355 453.476,-19.5164 461.424,-26.5213 464.058,-20.0355"/>
</g>
<!-- Node17 -->
<g id="node17" class="node"><title>Node17</title>
<polygon fill="none" stroke="#bfbfbf" points="475,-0.5 475,-19.5 526,-19.5 526,-0.5 475,-0.5"/>
<text text-anchor="middle" x="500.5" y="-7.5" font-family="Helvetica,sans-Serif" font-size="10.00">stddef.h</text>
</g>
<!-- Node16&#45;&gt;Node17 -->
<g id="edge17" class="edge"><title>Node16&#45;&gt;Node17</title>
<path fill="none" stroke="midnightblue" d="M555.057,-56.324C545.354,-48.2631 530.685,-36.0765 519,-26.3695"/>
<polygon fill="midnightblue" stroke="midnightblue" points="521.062,-23.532 511.133,-19.8339 516.589,-28.9163 521.062,-23.532"/>
</g>
<!-- Node18 -->
<g id="node18" class="node"><title>Node18</title>
<polygon fill="none" stroke="#bfbfbf" points="544,-0.5 544,-19.5 593,-19.5 593,-0.5 544,-0.5"/>
<text text-anchor="middle" x="568.5" y="-7.5" font-family="Helvetica,sans-Serif" font-size="10.00">string.h</text>
</g>
<!-- Node16&#45;&gt;Node18 -->
<g id="edge18" class="edge"><title>Node16&#45;&gt;Node18</title>
<path fill="none" stroke="midnightblue" d="M565.995,-56.083C566.389,-49.0059 566.952,-38.8611 567.445,-29.9865"/>
<polygon fill="midnightblue" stroke="midnightblue" points="570.954,-29.9299 568.014,-19.7511 563.964,-29.5415 570.954,-29.9299"/>
</g>
<!-- Node19 -->
<g id="node19" class="node"><title>Node19</title>
<polygon fill="none" stroke="#bfbfbf" points="611.5,-0.5 611.5,-19.5 663.5,-19.5 663.5,-0.5 611.5,-0.5"/>
<text text-anchor="middle" x="637.5" y="-7.5" font-family="Helvetica,sans-Serif" font-size="10.00">memory</text>
</g>
<!-- Node16&#45;&gt;Node19 -->
<g id="edge19" class="edge"><title>Node16&#45;&gt;Node19</title>
<path fill="none" stroke="midnightblue" d="M577.068,-56.324C587.92,-48.1849 604.381,-35.8395 617.383,-26.0874"/>
<polygon fill="midnightblue" stroke="midnightblue" points="619.821,-28.6339 625.721,-19.8339 615.621,-23.0339 619.821,-28.6339"/>
</g>
<!-- Node20 -->
<g id="node20" class="node"><title>Node20</title>
<polygon fill="none" stroke="#bfbfbf" points="878.5,-0.5 878.5,-19.5 912.5,-19.5 912.5,-0.5 878.5,-0.5"/>
<text text-anchor="middle" x="895.5" y="-7.5" font-family="Helvetica,sans-Serif" font-size="10.00">new</text>
</g>
<!-- Node16&#45;&gt;Node20 -->
<g id="edge20" class="edge"><title>Node16&#45;&gt;Node20</title>
<path fill="none" stroke="midnightblue" d="M603.181,-57.6182C606.33,-57.0518 609.468,-56.5049 612.5,-56 724.969,-37.2728 755.252,-44.9773 866.5,-20 867.233,-19.8354 867.974,-19.6613 868.72,-19.4792"/>
<polygon fill="midnightblue" stroke="midnightblue" points="869.742,-22.828 878.448,-16.7896 867.877,-16.0812 869.742,-22.828"/>
</g>
<!-- Node21 -->
<g id="node21" class="node"><title>Node21</title>
<polygon fill="none" stroke="#bfbfbf" points="682,-0.5 682,-19.5 729,-19.5 729,-0.5 682,-0.5"/>
<text text-anchor="middle" x="705.5" y="-7.5" font-family="Helvetica,sans-Serif" font-size="10.00">iterator</text>
</g>
<!-- Node16&#45;&gt;Node21 -->
<g id="edge21" class="edge"><title>Node16&#45;&gt;Node21</title>
<path fill="none" stroke="midnightblue" d="M587.683,-56.4435C610.928,-47.4776 647.649,-33.314 673.915,-23.1827"/>
<polygon fill="midnightblue" stroke="midnightblue" points="675.35,-26.3807 683.42,-19.5164 672.831,-19.8497 675.35,-26.3807"/>
</g>
<!-- Node22 -->
<g id="node22" class="node"><title>Node22</title>
<polygon fill="none" stroke="#bfbfbf" points="747.5,-0.5 747.5,-19.5 799.5,-19.5 799.5,-0.5 747.5,-0.5"/>
<text text-anchor="middle" x="773.5" y="-7.5" font-family="Helvetica,sans-Serif" font-size="10.00">assert.h</text>
</g>
<!-- Node16&#45;&gt;Node22 -->
<g id="edge23" class="edge"><title>Node16&#45;&gt;Node22</title>
<path fill="none" stroke="midnightblue" d="M598.458,-56.4435C636.314,-46.6156 698.225,-30.5427 737.367,-20.3807"/>
<polygon fill="midnightblue" stroke="midnightblue" points="738.482,-23.7073 747.282,-17.8067 736.723,-16.9319 738.482,-23.7073"/>
</g>
<!-- Node23 -->
<g id="node23" class="node"><title>Node23</title>
<polygon fill="none" stroke="#bfbfbf" points="817.5,-0.5 817.5,-19.5 857.5,-19.5 857.5,-0.5 817.5,-0.5"/>
<text text-anchor="middle" x="837.5" y="-7.5" font-family="Helvetica,sans-Serif" font-size="10.00">limits</text>
</g>
<!-- Node16&#45;&gt;Node23 -->
<g id="edge24" class="edge"><title>Node16&#45;&gt;Node23</title>
<path fill="none" stroke="midnightblue" d="M603.205,-57.7539C606.349,-57.1576 609.479,-56.5667 612.5,-56 696.49,-40.2453 720.805,-41.0805 807.566,-19.9985"/>
<polygon fill="midnightblue" stroke="midnightblue" points="808.429,-23.3906 817.305,-17.6048 806.758,-16.5929 808.429,-23.3906"/>
</g>
<!-- Node24&#45;&gt;Node2 -->
<g id="edge27" class="edge"><title>Node24&#45;&gt;Node2</title>
<path fill="none" stroke="midnightblue" d="M544.919,-280.075C537.364,-253.945 515.175,-177.211 504.872,-141.577"/>
<polygon fill="midnightblue" stroke="midnightblue" points="508.118,-140.202 501.978,-131.568 501.393,-142.147 508.118,-140.202"/>
</g>
<!-- Node25 -->
<g id="node25" class="node"><title>Node25</title>
<g id="a_node25"><a xlink:href="inmost__expression_8h.html" target="_top" xlink:title="inmost_expression.h">
<polygon fill="none" stroke="black" points="576,-224.5 576,-243.5 683,-243.5 683,-224.5 576,-224.5"/>
<text text-anchor="middle" x="629.5" y="-231.5" font-family="Helvetica,sans-Serif" font-size="10.00">inmost_expression.h</text>
</a>
</g>
</g>
<!-- Node24&#45;&gt;Node25 -->
<g id="edge28" class="edge"><title>Node24&#45;&gt;Node25</title>
<path fill="none" stroke="midnightblue" d="M560.675,-280.324C573.347,-271.979 592.733,-259.212 607.706,-249.352"/>
<polygon fill="midnightblue" stroke="midnightblue" points="609.931,-252.078 616.358,-243.655 606.081,-246.231 609.931,-252.078"/>
</g>
<!-- Node25&#45;&gt;Node2 -->
<g id="edge29" class="edge"><title>Node25&#45;&gt;Node2</title>
<path fill="none" stroke="midnightblue" d="M619.115,-224.412C608.218,-215.386 590.606,-200.753 575.5,-188 555.576,-171.179 532.871,-151.723 517.507,-138.513"/>
<polygon fill="midnightblue" stroke="midnightblue" points="519.653,-135.743 509.79,-131.873 515.088,-141.049 519.653,-135.743"/>
</g>
<!-- Node25&#45;&gt;Node20 -->
<g id="edge33" class="edge"><title>Node25&#45;&gt;Node20</title>
<path fill="none" stroke="midnightblue" d="M656.367,-224.475C708.926,-206.322 825.199,-158.618 882.5,-76 891.826,-62.5542 894.802,-43.9926 895.606,-30.146"/>
<polygon fill="midnightblue" stroke="midnightblue" points="899.112,-29.9232 895.861,-19.8395 892.115,-29.7497 899.112,-29.9232"/>
</g>
<!-- Node26 -->
<g id="node26" class="node"><title>Node26</title>
<g id="a_node26"><a xlink:href="inmost__sparse_8h.html" target="_top" xlink:title="inmost_sparse.h">
<polygon fill="none" stroke="black" points="585,-168.5 585,-187.5 674,-187.5 674,-168.5 585,-168.5"/>
<text text-anchor="middle" x="629.5" y="-175.5" font-family="Helvetica,sans-Serif" font-size="10.00">inmost_sparse.h</text>
</a>
</g>
</g>
<!-- Node25&#45;&gt;Node26 -->
<g id="edge30" class="edge"><title>Node25&#45;&gt;Node26</title>
<path fill="none" stroke="midnightblue" d="M629.5,-224.083C629.5,-217.006 629.5,-206.861 629.5,-197.986"/>
<polygon fill="midnightblue" stroke="midnightblue" points="633,-197.751 629.5,-187.751 626,-197.751 633,-197.751"/>
</g>
<!-- Node27 -->
<g id="node27" class="node"><title>Node27</title>
<polygon fill="none" stroke="#bfbfbf" points="929.5,-168.5 929.5,-187.5 981.5,-187.5 981.5,-168.5 929.5,-168.5"/>
<text text-anchor="middle" x="955.5" y="-175.5" font-family="Helvetica,sans-Serif" font-size="10.00">sstream</text>
</g>
<!-- Node25&#45;&gt;Node27 -->
<g id="edge32" class="edge"><title>Node25&#45;&gt;Node27</title>
<path fill="none" stroke="midnightblue" d="M683.183,-225.62C740.794,-217.452 834.901,-203.391 915.5,-188 916.759,-187.76 918.038,-187.509 919.329,-187.25"/>
<polygon fill="midnightblue" stroke="midnightblue" points="920.236,-190.635 929.301,-185.152 918.795,-183.785 920.236,-190.635"/>
</g>
<!-- Node26&#45;&gt;Node2 -->
<g id="edge31" class="edge"><title>Node26&#45;&gt;Node2</title>
<path fill="none" stroke="midnightblue" d="M608.901,-168.444C587.507,-159.557 553.819,-145.563 529.476,-135.451"/>
<polygon fill="midnightblue" stroke="midnightblue" points="530.58,-132.12 520.003,-131.516 527.895,-138.585 530.58,-132.12"/>
</g>
</g>
</svg>
