<?xml version="1.0" encoding="UTF-8" standalone="no"?>
<!DOCTYPE svg PUBLIC "-//W3C//DTD SVG 1.1//EN"
 "http://www.w3.org/Graphics/SVG/1.1/DTD/svg11.dtd">
<!-- Generated by graphviz version 2.38.0 (20140413.2041)
 -->
<!-- Title: INMOST::ComposeEdgeHandle Pages: 1 -->
<svg width="313pt" height="66pt"
 viewBox="0.00 0.00 313.00 66.00" xmlns="http://www.w3.org/2000/svg" xmlns:xlink="http://www.w3.org/1999/xlink">
<g id="graph0" class="graph" transform="scale(1 1) rotate(0) translate(4 62)">
<title>INMOST::ComposeEdgeHandle</title>
<!-- Node1 -->
<g id="node1" class="node"><title>Node1</title>
<polygon fill="#bfbfbf" stroke="black" points="0,-19.5 0,-38.5 153,-38.5 153,-19.5 0,-19.5"/>
<text text-anchor="middle" x="76.5" y="-26.5" font-family="Helvetica,sans-Serif" font-size="10.00">INMOST::ComposeEdgeHandle</text>
</g>
<!-- Node2 -->
<g id="node2" class="node"><title>Node2</title>
<g id="a_node2"><a xlink:href="namespace_i_n_m_o_s_t.html#a115b3e54c3b7be04ffec9b69c058df18" target="_top" xlink:title="INMOST::InvalidHandle">
<polygon fill="none" stroke="black" points="189,-38.5 189,-57.5 305,-57.5 305,-38.5 189,-38.5"/>
<text text-anchor="middle" x="247" y="-45.5" font-family="Helvetica,sans-Serif" font-size="10.00">INMOST::InvalidHandle</text>
</a>
</g>
</g>
<!-- Node1&#45;&gt;Node2 -->
<g id="edge1" class="edge"><title>Node1&#45;&gt;Node2</title>
<path fill="none" stroke="midnightblue" d="M153.37,-37.5551C161.878,-38.5145 170.501,-39.4868 178.888,-40.4325"/>
<polygon fill="midnightblue" stroke="midnightblue" points="178.647,-43.9274 188.977,-41.5701 179.432,-36.9715 178.647,-43.9274"/>
</g>
<!-- Node3 -->
<g id="node3" class="node"><title>Node3</title>
<g id="a_node3"><a xlink:href="namespace_i_n_m_o_s_t.html#abfa34d6393c75e4cb6bbfbc1ded4f99a" target="_top" xlink:title="INMOST::ElementNum">
<polygon fill="none" stroke="black" points="189,-0.5 189,-19.5 305,-19.5 305,-0.5 189,-0.5"/>
<text text-anchor="middle" x="247" y="-7.5" font-family="Helvetica,sans-Serif" font-size="10.00">INMOST::ElementNum</text>
</a>
</g>
</g>
<!-- Node1&#45;&gt;Node3 -->
<g id="edge2" class="edge"><title>Node1&#45;&gt;Node3</title>
<path fill="none" stroke="midnightblue" d="M153.37,-20.4449C161.878,-19.4855 170.501,-18.5132 178.888,-17.5675"/>
<polygon fill="midnightblue" stroke="midnightblue" points="179.432,-21.0285 188.977,-16.4299 178.647,-14.0726 179.432,-21.0285"/>
</g>
</g>
</svg>
