<?xml version="1.0" encoding="UTF-8" standalone="no"?>
<!DOCTYPE svg PUBLIC "-//W3C//DTD SVG 1.1//EN"
 "http://www.w3.org/Graphics/SVG/1.1/DTD/svg11.dtd">
<!-- Generated by graphviz version 2.38.0 (20140413.2041)
 -->
<!-- Title: INMOST::check_nans Pages: 1 -->
<svg width="632pt" height="78pt"
 viewBox="0.00 0.00 632.00 77.50" xmlns="http://www.w3.org/2000/svg" xmlns:xlink="http://www.w3.org/1999/xlink">
<g id="graph0" class="graph" transform="scale(1 1) rotate(0) translate(4 73.5)">
<title>INMOST::check_nans</title>
<!-- Node1 -->
<g id="node1" class="node"><title>Node1</title>
<polygon fill="#bfbfbf" stroke="black" points="0,-22.5 0,-41.5 112,-41.5 112,-22.5 0,-22.5"/>
<text text-anchor="middle" x="56" y="-29.5" font-family="Helvetica,sans-Serif" font-size="10.00">INMOST::check_nans</text>
</g>
<!-- Node2 -->
<g id="node2" class="node"><title>Node2</title>
<g id="a_node2"><a xlink:href="class_i_n_m_o_s_t_1_1enhanced__multivar__expression.html#aeb6a84957da4c24c21a594a26e8f2d54" target="_top" xlink:title="INMOST::enhanced_multivar\l_expression::check_nans">
<polygon fill="none" stroke="black" points="148,-17 148,-47 288,-47 288,-17 148,-17"/>
<text text-anchor="start" x="156" y="-35" font-family="Helvetica,sans-Serif" font-size="10.00">INMOST::enhanced_multivar</text>
<text text-anchor="middle" x="218" y="-24" font-family="Helvetica,sans-Serif" font-size="10.00">_expression::check_nans</text>
</a>
</g>
</g>
<!-- Node1&#45;&gt;Node2 -->
<g id="edge1" class="edge"><title>Node1&#45;&gt;Node2</title>
<path fill="none" stroke="midnightblue" d="M112.063,-32C120.379,-32 129.095,-32 137.798,-32"/>
<polygon fill="midnightblue" stroke="midnightblue" points="137.985,-35.5001 147.985,-32 137.985,-28.5001 137.985,-35.5001"/>
</g>
<!-- Node3 -->
<g id="node3" class="node"><title>Node3</title>
<g id="a_node3"><a xlink:href="class_i_n_m_o_s_t_1_1_sparse_1_1_row.html#ae151ff1b4c953a41174aaf5a4261fafa" target="_top" xlink:title="INMOST::Sparse::Row\l::Begin">
<polygon fill="none" stroke="black" points="335.5,-39 335.5,-69 450.5,-69 450.5,-39 335.5,-39"/>
<text text-anchor="start" x="343.5" y="-57" font-family="Helvetica,sans-Serif" font-size="10.00">INMOST::Sparse::Row</text>
<text text-anchor="middle" x="393" y="-46" font-family="Helvetica,sans-Serif" font-size="10.00">::Begin</text>
</a>
</g>
</g>
<!-- Node2&#45;&gt;Node3 -->
<g id="edge2" class="edge"><title>Node2&#45;&gt;Node3</title>
<path fill="none" stroke="midnightblue" d="M288.369,-40.8215C300.56,-42.3718 313.224,-43.9822 325.339,-45.5229"/>
<polygon fill="midnightblue" stroke="midnightblue" points="325.003,-49.0082 335.365,-46.7978 325.886,-42.0642 325.003,-49.0082"/>
</g>
<!-- Node5 -->
<g id="node5" class="node"><title>Node5</title>
<g id="a_node5"><a xlink:href="class_i_n_m_o_s_t_1_1_sparse_1_1_row.html#a8f933f39bae05075356ab209eafcc47a" target="_top" xlink:title="INMOST::Sparse::Row::End">
<polygon fill="none" stroke="black" points="324,-0.5 324,-19.5 462,-19.5 462,-0.5 324,-0.5"/>
<text text-anchor="middle" x="393" y="-7.5" font-family="Helvetica,sans-Serif" font-size="10.00">INMOST::Sparse::Row::End</text>
</a>
</g>
</g>
<!-- Node2&#45;&gt;Node5 -->
<g id="edge4" class="edge"><title>Node2&#45;&gt;Node5</title>
<path fill="none" stroke="midnightblue" d="M288.369,-23.1785C296.656,-22.1247 305.161,-21.0431 313.565,-19.9744"/>
<polygon fill="midnightblue" stroke="midnightblue" points="314.264,-23.4138 323.742,-18.6802 313.381,-16.4697 314.264,-23.4138"/>
</g>
<!-- Node4 -->
<g id="node4" class="node"><title>Node4</title>
<g id="a_node4"><a xlink:href="class_i_n_m_o_s_t_1_1dynarray.html#a95d4cabcea41ee216d2ccd310d04cd61" target="_top" xlink:title="INMOST::dynarray::begin">
<polygon fill="none" stroke="black" points="498,-44.5 498,-63.5 624,-63.5 624,-44.5 498,-44.5"/>
<text text-anchor="middle" x="561" y="-51.5" font-family="Helvetica,sans-Serif" font-size="10.00">INMOST::dynarray::begin</text>
</a>
</g>
</g>
<!-- Node3&#45;&gt;Node4 -->
<g id="edge3" class="edge"><title>Node3&#45;&gt;Node4</title>
<path fill="none" stroke="midnightblue" d="M450.663,-54C462.551,-54 475.242,-54 487.613,-54"/>
<polygon fill="midnightblue" stroke="midnightblue" points="487.906,-57.5001 497.906,-54 487.906,-50.5001 487.906,-57.5001"/>
</g>
<!-- Node6 -->
<g id="node6" class="node"><title>Node6</title>
<g id="a_node6"><a xlink:href="class_i_n_m_o_s_t_1_1dynarray.html#ad3e9af27a79aa4c5a57635546091a33d" target="_top" xlink:title="INMOST::dynarray::end">
<polygon fill="none" stroke="black" points="501.5,-0.5 501.5,-19.5 620.5,-19.5 620.5,-0.5 501.5,-0.5"/>
<text text-anchor="middle" x="561" y="-7.5" font-family="Helvetica,sans-Serif" font-size="10.00">INMOST::dynarray::end</text>
</a>
</g>
</g>
<!-- Node5&#45;&gt;Node6 -->
<g id="edge5" class="edge"><title>Node5&#45;&gt;Node6</title>
<path fill="none" stroke="midnightblue" d="M462.477,-10C471.987,-10 481.76,-10 491.274,-10"/>
<polygon fill="midnightblue" stroke="midnightblue" points="491.473,-13.5001 501.473,-10 491.473,-6.5001 491.473,-13.5001"/>
</g>
</g>
</svg>
