<?xml version="1.0" encoding="UTF-8" standalone="no"?>
<!DOCTYPE svg PUBLIC "-//W3C//DTD SVG 1.1//EN"
 "http://www.w3.org/Graphics/SVG/1.1/DTD/svg11.dtd">
<!-- Generated by graphviz version 2.38.0 (20140413.2041)
 -->
<!-- Title: INMOST::check_nans Pages: 1 -->
<svg width="637pt" height="78pt"
 viewBox="0.00 0.00 637.00 77.50" xmlns="http://www.w3.org/2000/svg" xmlns:xlink="http://www.w3.org/1999/xlink">
<g id="graph0" class="graph" transform="scale(1 1) rotate(0) translate(4 73.5)">
<title>INMOST::check_nans</title>
<!-- Node1 -->
<g id="node1" class="node"><title>Node1</title>
<polygon fill="#bfbfbf" stroke="black" points="0,-22.5 0,-41.5 112,-41.5 112,-22.5 0,-22.5"/>
<text text-anchor="middle" x="56" y="-29.5" font-family="Helvetica,sans-Serif" font-size="10.00">INMOST::check_nans</text>
</g>
<!-- Node2 -->
<g id="node2" class="node"><title>Node2</title>
<g id="a_node2"><a xlink:href="class_i_n_m_o_s_t_1_1multivar__expression.html#a1c15ad7bf3f378471f911fc1e60f8a3b" target="_top" xlink:title="INMOST::multivar_expression\l::check_nans">
<polygon fill="none" stroke="black" points="148,-17 148,-47 293,-47 293,-17 148,-17"/>
<text text-anchor="start" x="156" y="-35" font-family="Helvetica,sans-Serif" font-size="10.00">INMOST::multivar_expression</text>
<text text-anchor="middle" x="220.5" y="-24" font-family="Helvetica,sans-Serif" font-size="10.00">::check_nans</text>
</a>
</g>
</g>
<!-- Node1&#45;&gt;Node2 -->
<g id="edge1" class="edge"><title>Node1&#45;&gt;Node2</title>
<path fill="none" stroke="midnightblue" d="M112.015,-32C120.287,-32 128.966,-32 137.654,-32"/>
<polygon fill="midnightblue" stroke="midnightblue" points="137.833,-35.5001 147.833,-32 137.833,-28.5001 137.833,-35.5001"/>
</g>
<!-- Node3 -->
<g id="node3" class="node"><title>Node3</title>
<g id="a_node3"><a xlink:href="class_i_n_m_o_s_t_1_1_sparse_1_1_row.html#ae151ff1b4c953a41174aaf5a4261fafa" target="_top" xlink:title="INMOST::Sparse::Row\l::Begin">
<polygon fill="none" stroke="black" points="340.5,-39 340.5,-69 455.5,-69 455.5,-39 340.5,-39"/>
<text text-anchor="start" x="348.5" y="-57" font-family="Helvetica,sans-Serif" font-size="10.00">INMOST::Sparse::Row</text>
<text text-anchor="middle" x="398" y="-46" font-family="Helvetica,sans-Serif" font-size="10.00">::Begin</text>
</a>
</g>
</g>
<!-- Node2&#45;&gt;Node3 -->
<g id="edge2" class="edge"><title>Node2&#45;&gt;Node3</title>
<path fill="none" stroke="midnightblue" d="M293.136,-40.98C305.428,-42.5208 318.156,-44.1165 330.312,-45.6402"/>
<polygon fill="midnightblue" stroke="midnightblue" points="330.008,-49.1294 340.366,-46.9005 330.879,-42.1838 330.008,-49.1294"/>
</g>
<!-- Node5 -->
<g id="node5" class="node"><title>Node5</title>
<g id="a_node5"><a xlink:href="class_i_n_m_o_s_t_1_1_sparse_1_1_row.html#a8f933f39bae05075356ab209eafcc47a" target="_top" xlink:title="INMOST::Sparse::Row::End">
<polygon fill="none" stroke="black" points="329,-0.5 329,-19.5 467,-19.5 467,-0.5 329,-0.5"/>
<text text-anchor="middle" x="398" y="-7.5" font-family="Helvetica,sans-Serif" font-size="10.00">INMOST::Sparse::Row::End</text>
</a>
</g>
</g>
<!-- Node2&#45;&gt;Node5 -->
<g id="edge4" class="edge"><title>Node2&#45;&gt;Node5</title>
<path fill="none" stroke="midnightblue" d="M293.136,-23.02C301.651,-21.9526 310.376,-20.8588 318.975,-19.7809"/>
<polygon fill="midnightblue" stroke="midnightblue" points="319.505,-23.242 328.992,-18.5253 318.634,-16.2964 319.505,-23.242"/>
</g>
<!-- Node4 -->
<g id="node4" class="node"><title>Node4</title>
<g id="a_node4"><a xlink:href="class_i_n_m_o_s_t_1_1dynarray.html#a95d4cabcea41ee216d2ccd310d04cd61" target="_top" xlink:title="INMOST::dynarray::begin">
<polygon fill="none" stroke="black" points="503,-44.5 503,-63.5 629,-63.5 629,-44.5 503,-44.5"/>
<text text-anchor="middle" x="566" y="-51.5" font-family="Helvetica,sans-Serif" font-size="10.00">INMOST::dynarray::begin</text>
</a>
</g>
</g>
<!-- Node3&#45;&gt;Node4 -->
<g id="edge3" class="edge"><title>Node3&#45;&gt;Node4</title>
<path fill="none" stroke="midnightblue" d="M455.663,-54C467.551,-54 480.242,-54 492.613,-54"/>
<polygon fill="midnightblue" stroke="midnightblue" points="492.906,-57.5001 502.906,-54 492.906,-50.5001 492.906,-57.5001"/>
</g>
<!-- Node6 -->
<g id="node6" class="node"><title>Node6</title>
<g id="a_node6"><a xlink:href="class_i_n_m_o_s_t_1_1dynarray.html#ad3e9af27a79aa4c5a57635546091a33d" target="_top" xlink:title="INMOST::dynarray::end">
<polygon fill="none" stroke="black" points="506.5,-0.5 506.5,-19.5 625.5,-19.5 625.5,-0.5 506.5,-0.5"/>
<text text-anchor="middle" x="566" y="-7.5" font-family="Helvetica,sans-Serif" font-size="10.00">INMOST::dynarray::end</text>
</a>
</g>
</g>
<!-- Node5&#45;&gt;Node6 -->
<g id="edge5" class="edge"><title>Node5&#45;&gt;Node6</title>
<path fill="none" stroke="midnightblue" d="M467.477,-10C476.987,-10 486.76,-10 496.274,-10"/>
<polygon fill="midnightblue" stroke="midnightblue" points="496.473,-13.5001 506.473,-10 496.473,-6.5001 496.473,-13.5001"/>
</g>
</g>
</svg>
