<?xml version="1.0" encoding="UTF-8" standalone="no"?>
<!DOCTYPE svg PUBLIC "-//W3C//DTD SVG 1.1//EN"
 "http://www.w3.org/Graphics/SVG/1.1/DTD/svg11.dtd">
<!-- Generated by graphviz version 2.38.0 (20140413.2041)
 -->
<!-- Title: INMOST::GetHandleElementType Pages: 1 -->
<svg width="575pt" height="218pt"
 viewBox="0.00 0.00 575.00 218.00" xmlns="http://www.w3.org/2000/svg" xmlns:xlink="http://www.w3.org/1999/xlink">
<g id="graph0" class="graph" transform="scale(1 1) rotate(0) translate(4 214)">
<title>INMOST::GetHandleElementType</title>
<!-- Node1 -->
<g id="node1" class="node"><title>Node1</title>
<polygon fill="#bfbfbf" stroke="black" points="0,-95.5 0,-114.5 162,-114.5 162,-95.5 0,-95.5"/>
<text text-anchor="middle" x="81" y="-102.5" font-family="Helvetica,sans-Serif" font-size="10.00">INMOST::GetHandleElementType</text>
</g>
<!-- Node2 -->
<g id="node2" class="node"><title>Node2</title>
<g id="a_node2"><a xlink:href="class_i_n_m_o_s_t_1_1_storage.html#ae6928532b6665a12831d13293c4c7b31" target="_top" xlink:title="INMOST::Storage::GetElementType">
<polygon fill="none" stroke="black" points="198,-95.5 198,-114.5 370,-114.5 370,-95.5 198,-95.5"/>
<text text-anchor="middle" x="284" y="-102.5" font-family="Helvetica,sans-Serif" font-size="10.00">INMOST::Storage::GetElementType</text>
</a>
</g>
</g>
<!-- Node1&#45;&gt;Node2 -->
<g id="edge1" class="edge"><title>Node1&#45;&gt;Node2</title>
<path fill="none" stroke="midnightblue" d="M172.073,-105C180.691,-105 189.413,-105 197.981,-105"/>
<polygon fill="midnightblue" stroke="midnightblue" points="172.018,-101.5 162.018,-105 172.018,-108.5 172.018,-101.5"/>
</g>
<!-- Node3 -->
<g id="node3" class="node"><title>Node3</title>
<g id="a_node3"><a xlink:href="class_i_n_m_o_s_t_1_1_storage.html#a1120f87c2cb4eaf015db837f0f7cce3f" target="_top" xlink:title="INMOST::Storage::getAsElement">
<polygon fill="none" stroke="black" points="406,-190.5 406,-209.5 567,-209.5 567,-190.5 406,-190.5"/>
<text text-anchor="middle" x="486.5" y="-197.5" font-family="Helvetica,sans-Serif" font-size="10.00">INMOST::Storage::getAsElement</text>
</a>
</g>
</g>
<!-- Node2&#45;&gt;Node3 -->
<g id="edge2" class="edge"><title>Node2&#45;&gt;Node3</title>
<path fill="none" stroke="midnightblue" d="M305.35,-120.719C328.516,-137.89 368.076,-165.069 406,-181 415.027,-184.792 424.964,-187.921 434.664,-190.467"/>
<polygon fill="midnightblue" stroke="midnightblue" points="307.407,-117.886 297.311,-114.672 303.199,-123.48 307.407,-117.886"/>
</g>
<!-- Node4 -->
<g id="node4" class="node"><title>Node4</title>
<g id="a_node4"><a xlink:href="class_i_n_m_o_s_t_1_1_storage.html#aac94c3afac6383b988c7992a72fc353c" target="_top" xlink:title="INMOST::Storage::getAsNode">
<polygon fill="none" stroke="black" points="413,-152.5 413,-171.5 560,-171.5 560,-152.5 413,-152.5"/>
<text text-anchor="middle" x="486.5" y="-159.5" font-family="Helvetica,sans-Serif" font-size="10.00">INMOST::Storage::getAsNode</text>
</a>
</g>
</g>
<!-- Node2&#45;&gt;Node4 -->
<g id="edge3" class="edge"><title>Node2&#45;&gt;Node4</title>
<path fill="none" stroke="midnightblue" d="M323.351,-117.796C347.045,-125.514 378.143,-135.307 406,-143 418.037,-146.324 431.193,-149.608 443.276,-152.487"/>
<polygon fill="midnightblue" stroke="midnightblue" points="324.274,-114.415 313.681,-114.628 322.094,-121.067 324.274,-114.415"/>
</g>
<!-- Node5 -->
<g id="node5" class="node"><title>Node5</title>
<g id="a_node5"><a xlink:href="class_i_n_m_o_s_t_1_1_storage.html#aae2639c86f7e1ed99341800a6350beaf" target="_top" xlink:title="INMOST::Storage::getAsEdge">
<polygon fill="none" stroke="black" points="413,-114.5 413,-133.5 560,-133.5 560,-114.5 413,-114.5"/>
<text text-anchor="middle" x="486.5" y="-121.5" font-family="Helvetica,sans-Serif" font-size="10.00">INMOST::Storage::getAsEdge</text>
</a>
</g>
</g>
<!-- Node2&#45;&gt;Node5 -->
<g id="edge4" class="edge"><title>Node2&#45;&gt;Node5</title>
<path fill="none" stroke="midnightblue" d="M380.065,-114.009C391.033,-115.048 402.084,-116.095 412.692,-117.1"/>
<polygon fill="midnightblue" stroke="midnightblue" points="380.316,-110.517 370.03,-113.058 379.655,-117.486 380.316,-110.517"/>
</g>
<!-- Node6 -->
<g id="node6" class="node"><title>Node6</title>
<g id="a_node6"><a xlink:href="class_i_n_m_o_s_t_1_1_storage.html#a3bb9ba79f8c0f6be46abeb505ae6522a" target="_top" xlink:title="INMOST::Storage::getAsFace">
<polygon fill="none" stroke="black" points="413.5,-76.5 413.5,-95.5 559.5,-95.5 559.5,-76.5 413.5,-76.5"/>
<text text-anchor="middle" x="486.5" y="-83.5" font-family="Helvetica,sans-Serif" font-size="10.00">INMOST::Storage::getAsFace</text>
</a>
</g>
</g>
<!-- Node2&#45;&gt;Node6 -->
<g id="edge5" class="edge"><title>Node2&#45;&gt;Node6</title>
<path fill="none" stroke="midnightblue" d="M380.216,-95.977C391.35,-94.9219 402.567,-93.859 413.316,-92.8403"/>
<polygon fill="midnightblue" stroke="midnightblue" points="379.655,-92.5144 370.03,-96.9423 380.316,-99.4832 379.655,-92.5144"/>
</g>
<!-- Node7 -->
<g id="node7" class="node"><title>Node7</title>
<g id="a_node7"><a xlink:href="class_i_n_m_o_s_t_1_1_storage.html#a273dc6c3f277ad2cda0f37df30a8f534" target="_top" xlink:title="INMOST::Storage::getAsCell">
<polygon fill="none" stroke="black" points="416,-38.5 416,-57.5 557,-57.5 557,-38.5 416,-38.5"/>
<text text-anchor="middle" x="486.5" y="-45.5" font-family="Helvetica,sans-Serif" font-size="10.00">INMOST::Storage::getAsCell</text>
</a>
</g>
</g>
<!-- Node2&#45;&gt;Node7 -->
<g id="edge6" class="edge"><title>Node2&#45;&gt;Node7</title>
<path fill="none" stroke="midnightblue" d="M323.351,-92.2039C347.045,-84.4861 378.143,-74.6929 406,-67 418.037,-63.6758 431.193,-60.3918 443.276,-57.5133"/>
<polygon fill="midnightblue" stroke="midnightblue" points="322.094,-88.9325 313.681,-95.3722 324.274,-95.5846 322.094,-88.9325"/>
</g>
<!-- Node8 -->
<g id="node8" class="node"><title>Node8</title>
<g id="a_node8"><a xlink:href="class_i_n_m_o_s_t_1_1_storage.html#a20b4ae741200cfea234a9989b36f4c11" target="_top" xlink:title="INMOST::Storage::getAsSet">
<polygon fill="none" stroke="black" points="416.5,-0.5 416.5,-19.5 556.5,-19.5 556.5,-0.5 416.5,-0.5"/>
<text text-anchor="middle" x="486.5" y="-7.5" font-family="Helvetica,sans-Serif" font-size="10.00">INMOST::Storage::getAsSet</text>
</a>
</g>
</g>
<!-- Node2&#45;&gt;Node8 -->
<g id="edge7" class="edge"><title>Node2&#45;&gt;Node8</title>
<path fill="none" stroke="midnightblue" d="M305.35,-89.2815C328.516,-72.1098 368.076,-44.9315 406,-29 415.027,-25.2076 424.964,-22.0793 434.664,-19.5325"/>
<polygon fill="midnightblue" stroke="midnightblue" points="303.199,-86.5199 297.311,-95.3284 307.407,-92.1138 303.199,-86.5199"/>
</g>
</g>
</svg>
