<?xml version="1.0" encoding="UTF-8" standalone="no"?>
<!DOCTYPE svg PUBLIC "-//W3C//DTD SVG 1.1//EN"
 "http://www.w3.org/Graphics/SVG/1.1/DTD/svg11.dtd">
<!-- Generated by graphviz version 2.38.0 (20140413.2041)
 -->
<!-- Title: INMOST::InvalidHandle Pages: 1 -->
<svg width="739pt" height="1286pt"
 viewBox="0.00 0.00 739.00 1286.00" xmlns="http://www.w3.org/2000/svg" xmlns:xlink="http://www.w3.org/1999/xlink">
<g id="graph0" class="graph" transform="scale(1 1) rotate(0) translate(4 1282)">
<title>INMOST::InvalidHandle</title>
<!-- Node1 -->
<g id="node1" class="node"><title>Node1</title>
<polygon fill="#bfbfbf" stroke="black" points="0,-754 0,-773 116,-773 116,-754 0,-754"/>
<text text-anchor="middle" x="58" y="-761" font-family="Helvetica,sans-Serif" font-size="10.00">INMOST::InvalidHandle</text>
</g>
<!-- Node2 -->
<g id="node2" class="node"><title>Node2</title>
<g id="a_node2"><a xlink:href="namespace_i_n_m_o_s_t.html#a0a1e057f5c33c6194342ac1f5535e66b" target="_top" xlink:title="INMOST::ComposeHandle">
<polygon fill="none" stroke="black" points="177.5,-1229 177.5,-1248 308.5,-1248 308.5,-1229 177.5,-1229"/>
<text text-anchor="middle" x="243" y="-1236" font-family="Helvetica,sans-Serif" font-size="10.00">INMOST::ComposeHandle</text>
</a>
</g>
</g>
<!-- Node1&#45;&gt;Node2 -->
<g id="edge1" class="edge"><title>Node1&#45;&gt;Node2</title>
<path fill="none" stroke="midnightblue" d="M60.2029,-783.054C65.4618,-862.01 89.0511,-1156.12 152,-1219.5 158.977,-1226.53 167.853,-1231.26 177.3,-1234.41"/>
<polygon fill="midnightblue" stroke="midnightblue" points="63.6922,-782.773 59.5575,-773.019 56.7066,-783.223 63.6922,-782.773"/>
</g>
<!-- Node5 -->
<g id="node5" class="node"><title>Node5</title>
<g id="a_node5"><a xlink:href="namespace_i_n_m_o_s_t.html#a363b19b1172290392eaf268cbf964e20" target="_top" xlink:title="INMOST::ComposeCellHandle">
<polygon fill="none" stroke="black" points="169.5,-1191 169.5,-1210 316.5,-1210 316.5,-1191 169.5,-1191"/>
<text text-anchor="middle" x="243" y="-1198" font-family="Helvetica,sans-Serif" font-size="10.00">INMOST::ComposeCellHandle</text>
</a>
</g>
</g>
<!-- Node1&#45;&gt;Node5 -->
<g id="edge4" class="edge"><title>Node1&#45;&gt;Node5</title>
<path fill="none" stroke="midnightblue" d="M60.6177,-783.331C67.1504,-858.454 94.0602,-1124.19 152,-1181.5 156.995,-1186.44 162.932,-1190.25 169.34,-1193.16"/>
<polygon fill="midnightblue" stroke="midnightblue" points="64.1016,-782.992 59.7712,-773.322 57.1265,-783.582 64.1016,-782.992"/>
</g>
<!-- Node6 -->
<g id="node6" class="node"><title>Node6</title>
<g id="a_node6"><a xlink:href="namespace_i_n_m_o_s_t.html#a8e9471554dd1216f5d402a9cee363a1d" target="_top" xlink:title="INMOST::ComposeFaceHandle">
<polygon fill="none" stroke="black" points="167,-1153 167,-1172 319,-1172 319,-1153 167,-1153"/>
<text text-anchor="middle" x="243" y="-1160" font-family="Helvetica,sans-Serif" font-size="10.00">INMOST::ComposeFaceHandle</text>
</a>
</g>
</g>
<!-- Node1&#45;&gt;Node6 -->
<g id="edge5" class="edge"><title>Node1&#45;&gt;Node6</title>
<path fill="none" stroke="midnightblue" d="M61.0887,-783.312C68.9392,-853.971 98.9686,-1092.14 152,-1143.5 156.359,-1147.72 161.407,-1151.11 166.843,-1153.82"/>
<polygon fill="midnightblue" stroke="midnightblue" points="64.5422,-782.694 59.9836,-773.13 57.5831,-783.449 64.5422,-782.694"/>
</g>
<!-- Node7 -->
<g id="node7" class="node"><title>Node7</title>
<g id="a_node7"><a xlink:href="namespace_i_n_m_o_s_t.html#a14ac6d11fedfa106eddc0a0259e36157" target="_top" xlink:title="INMOST::ComposeEdgeHandle">
<polygon fill="none" stroke="black" points="166.5,-1115 166.5,-1134 319.5,-1134 319.5,-1115 166.5,-1115"/>
<text text-anchor="middle" x="243" y="-1122" font-family="Helvetica,sans-Serif" font-size="10.00">INMOST::ComposeEdgeHandle</text>
</a>
</g>
</g>
<!-- Node1&#45;&gt;Node7 -->
<g id="edge6" class="edge"><title>Node1&#45;&gt;Node7</title>
<path fill="none" stroke="midnightblue" d="M61.6801,-783.433C70.9714,-849.561 103.884,-1060.07 152,-1105.5 156.18,-1109.45 160.965,-1112.66 166.1,-1115.27"/>
<polygon fill="midnightblue" stroke="midnightblue" points="65.0956,-782.58 60.2638,-773.151 58.1611,-783.535 65.0956,-782.58"/>
</g>
<!-- Node8 -->
<g id="node8" class="node"><title>Node8</title>
<g id="a_node8"><a xlink:href="namespace_i_n_m_o_s_t.html#ab122aaedaadc72ef10cac8868e55bd27" target="_top" xlink:title="INMOST::ComposeNodeHandle">
<polygon fill="none" stroke="black" points="166.5,-1077 166.5,-1096 319.5,-1096 319.5,-1077 166.5,-1077"/>
<text text-anchor="middle" x="243" y="-1084" font-family="Helvetica,sans-Serif" font-size="10.00">INMOST::ComposeNodeHandle</text>
</a>
</g>
</g>
<!-- Node1&#45;&gt;Node8 -->
<g id="edge7" class="edge"><title>Node1&#45;&gt;Node8</title>
<path fill="none" stroke="midnightblue" d="M58.6488,-783.232C58.8276,-837.473 67.2224,-989.937 152,-1067.5 156.242,-1071.38 161.07,-1074.55 166.236,-1077.12"/>
<polygon fill="midnightblue" stroke="midnightblue" points="62.1488,-783.232 58.7109,-773.211 55.1489,-783.189 62.1488,-783.232"/>
</g>
<!-- Node9 -->
<g id="node9" class="node"><title>Node9</title>
<g id="a_node9"><a xlink:href="namespace_i_n_m_o_s_t.html#a3f3e030bc504c1992f6061e65fe8659d" target="_top" xlink:title="INMOST::ComposeSetHandle">
<polygon fill="none" stroke="black" points="170,-1039 170,-1058 316,-1058 316,-1039 170,-1039"/>
<text text-anchor="middle" x="243" y="-1046" font-family="Helvetica,sans-Serif" font-size="10.00">INMOST::ComposeSetHandle</text>
</a>
</g>
</g>
<!-- Node1&#45;&gt;Node9 -->
<g id="edge8" class="edge"><title>Node1&#45;&gt;Node9</title>
<path fill="none" stroke="midnightblue" d="M59.6339,-783.059C62.3513,-832.504 76.6742,-963.267 152,-1029.5 157.277,-1034.14 163.398,-1037.75 169.918,-1040.54"/>
<polygon fill="midnightblue" stroke="midnightblue" points="63.1298,-782.887 59.1867,-773.053 56.1367,-783.2 63.1298,-782.887"/>
</g>
<!-- Node10 -->
<g id="node10" class="node"><title>Node10</title>
<g id="a_node10"><a xlink:href="namespace_i_n_m_o_s_t.html#adfd1fb8f456156532c262eac5e045aa3" target="_top" xlink:title="INMOST::ComposeHandleNum">
<polygon fill="none" stroke="black" points="167.5,-1001 167.5,-1020 318.5,-1020 318.5,-1001 167.5,-1001"/>
<text text-anchor="middle" x="243" y="-1008" font-family="Helvetica,sans-Serif" font-size="10.00">INMOST::ComposeHandleNum</text>
</a>
</g>
</g>
<!-- Node1&#45;&gt;Node10 -->
<g id="edge9" class="edge"><title>Node1&#45;&gt;Node10</title>
<path fill="none" stroke="midnightblue" d="M60.938,-783.227C66.4188,-827.775 86.1966,-936.548 152,-991.5 156.658,-995.39 161.916,-998.543 167.493,-1001.09"/>
<polygon fill="midnightblue" stroke="midnightblue" points="64.3989,-782.681 59.8108,-773.131 57.4421,-783.458 64.3989,-782.681"/>
</g>
<!-- Node19 -->
<g id="node19" class="node"><title>Node19</title>
<g id="a_node19"><a xlink:href="namespace_i_n_m_o_s_t.html#a3d17fe1169060ffdd105f549dc77b8ec" target="_top" xlink:title="INMOST::InvalidElement">
<polygon fill="none" stroke="black" points="182,-963 182,-982 304,-982 304,-963 182,-963"/>
<text text-anchor="middle" x="243" y="-970" font-family="Helvetica,sans-Serif" font-size="10.00">INMOST::InvalidElement</text>
</a>
</g>
</g>
<!-- Node1&#45;&gt;Node19 -->
<g id="edge18" class="edge"><title>Node1&#45;&gt;Node19</title>
<path fill="none" stroke="midnightblue" d="M62.6769,-783.111C71.0688,-822.113 95.4498,-909.445 152,-953.5 160.566,-960.174 170.932,-964.642 181.537,-967.607"/>
<polygon fill="midnightblue" stroke="midnightblue" points="66.098,-782.37 60.6819,-773.264 59.2374,-783.76 66.098,-782.37"/>
</g>
<!-- Node20 -->
<g id="node20" class="node"><title>Node20</title>
<g id="a_node20"><a xlink:href="namespace_i_n_m_o_s_t.html#a732ff3633e6564d8257b730a8a1d0753" target="_top" xlink:title="INMOST::InvalidNode">
<polygon fill="none" stroke="black" points="189,-925 189,-944 297,-944 297,-925 189,-925"/>
<text text-anchor="middle" x="243" y="-932" font-family="Helvetica,sans-Serif" font-size="10.00">INMOST::InvalidNode</text>
</a>
</g>
</g>
<!-- Node1&#45;&gt;Node20 -->
<g id="edge19" class="edge"><title>Node1&#45;&gt;Node20</title>
<path fill="none" stroke="midnightblue" d="M65.1849,-782.994C76.6732,-815.861 104.55,-881.99 152,-915.5 162.696,-923.054 175.774,-927.718 188.611,-930.569"/>
<polygon fill="midnightblue" stroke="midnightblue" points="68.4058,-781.589 61.9125,-773.217 61.7678,-783.811 68.4058,-781.589"/>
</g>
<!-- Node21 -->
<g id="node21" class="node"><title>Node21</title>
<g id="a_node21"><a xlink:href="namespace_i_n_m_o_s_t.html#acc0b0c3859426a62668bd7616b3462df" target="_top" xlink:title="INMOST::InvalidEdge">
<polygon fill="none" stroke="black" points="189,-887 189,-906 297,-906 297,-887 189,-887"/>
<text text-anchor="middle" x="243" y="-894" font-family="Helvetica,sans-Serif" font-size="10.00">INMOST::InvalidEdge</text>
</a>
</g>
</g>
<!-- Node1&#45;&gt;Node21 -->
<g id="edge20" class="edge"><title>Node1&#45;&gt;Node21</title>
<path fill="none" stroke="midnightblue" d="M68.7705,-782.111C83.3025,-807.85 113.125,-853.811 152,-877.5 163.046,-884.231 176.112,-888.605 188.814,-891.439"/>
<polygon fill="midnightblue" stroke="midnightblue" points="71.8336,-780.418 63.9627,-773.326 65.6929,-783.778 71.8336,-780.418"/>
</g>
<!-- Node22 -->
<g id="node22" class="node"><title>Node22</title>
<g id="a_node22"><a xlink:href="namespace_i_n_m_o_s_t.html#a4f9cda586461ac88215624c9314669da" target="_top" xlink:title="INMOST::InvalidFace">
<polygon fill="none" stroke="black" points="189.5,-849 189.5,-868 296.5,-868 296.5,-849 189.5,-849"/>
<text text-anchor="middle" x="243" y="-856" font-family="Helvetica,sans-Serif" font-size="10.00">INMOST::InvalidFace</text>
</a>
</g>
</g>
<!-- Node1&#45;&gt;Node22 -->
<g id="edge21" class="edge"><title>Node1&#45;&gt;Node22</title>
<path fill="none" stroke="midnightblue" d="M74.7565,-780.481C92.0133,-798.013 121.34,-824.818 152,-839.5 163.523,-845.018 176.633,-848.942 189.213,-851.731"/>
<polygon fill="midnightblue" stroke="midnightblue" points="77.1685,-777.939 67.7156,-773.154 72.1214,-782.79 77.1685,-777.939"/>
</g>
<!-- Node23 -->
<g id="node23" class="node"><title>Node23</title>
<g id="a_node23"><a xlink:href="namespace_i_n_m_o_s_t.html#a925fc2095e0d50cf504b6d0549445853" target="_top" xlink:title="INMOST::InvalidCell">
<polygon fill="none" stroke="black" points="192,-811 192,-830 294,-830 294,-811 192,-811"/>
<text text-anchor="middle" x="243" y="-818" font-family="Helvetica,sans-Serif" font-size="10.00">INMOST::InvalidCell</text>
</a>
</g>
</g>
<!-- Node1&#45;&gt;Node23 -->
<g id="edge22" class="edge"><title>Node1&#45;&gt;Node23</title>
<path fill="none" stroke="midnightblue" d="M88.6841,-777.228C106.704,-785.157 130.335,-794.846 152,-801.5 164.67,-805.391 178.586,-808.757 191.606,-811.528"/>
<polygon fill="midnightblue" stroke="midnightblue" points="89.8562,-773.919 79.2983,-773.035 87.0007,-780.31 89.8562,-773.919"/>
</g>
<!-- Node24 -->
<g id="node24" class="node"><title>Node24</title>
<g id="a_node24"><a xlink:href="namespace_i_n_m_o_s_t.html#a88eecb9c1331a41050913cc6a0610fa8" target="_top" xlink:title="INMOST::InvalidElementSet">
<polygon fill="none" stroke="black" points="174.5,-773 174.5,-792 311.5,-792 311.5,-773 174.5,-773"/>
<text text-anchor="middle" x="243" y="-780" font-family="Helvetica,sans-Serif" font-size="10.00">INMOST::InvalidElementSet</text>
</a>
</g>
</g>
<!-- Node1&#45;&gt;Node24 -->
<g id="edge23" class="edge"><title>Node1&#45;&gt;Node24</title>
<path fill="none" stroke="midnightblue" d="M126.289,-770.486C141.976,-772.115 158.685,-773.85 174.386,-775.48"/>
<polygon fill="midnightblue" stroke="midnightblue" points="126.458,-766.985 116.15,-769.434 125.735,-773.948 126.458,-766.985"/>
</g>
<!-- Node25 -->
<g id="node25" class="node"><title>Node25</title>
<g id="a_node25"><a xlink:href="class_i_n_m_o_s_t_1_1_mesh.html#a84ff5329978e77876ca6b1b3ed9b5c39" target="_top" xlink:title="INMOST::Mesh::SetMarkerArray">
<polygon fill="none" stroke="black" points="164,-735 164,-754 322,-754 322,-735 164,-735"/>
<text text-anchor="middle" x="243" y="-742" font-family="Helvetica,sans-Serif" font-size="10.00">INMOST::Mesh::SetMarkerArray</text>
</a>
</g>
</g>
<!-- Node1&#45;&gt;Node25 -->
<g id="edge24" class="edge"><title>Node1&#45;&gt;Node25</title>
<path fill="none" stroke="midnightblue" d="M126.249,-756.518C138.47,-755.249 151.314,-753.915 163.819,-752.617"/>
<polygon fill="midnightblue" stroke="midnightblue" points="125.735,-753.052 116.15,-757.566 126.458,-760.015 125.735,-753.052"/>
</g>
<!-- Node26 -->
<g id="node26" class="node"><title>Node26</title>
<g id="a_node26"><a xlink:href="class_i_n_m_o_s_t_1_1_mesh.html#a284d5f2e671908500d394c814f59b0dd" target="_top" xlink:title="INMOST::Mesh::SetPrivate\lMarkerArray">
<polygon fill="none" stroke="black" points="176,-685.5 176,-715.5 310,-715.5 310,-685.5 176,-685.5"/>
<text text-anchor="start" x="184" y="-703.5" font-family="Helvetica,sans-Serif" font-size="10.00">INMOST::Mesh::SetPrivate</text>
<text text-anchor="middle" x="243" y="-692.5" font-family="Helvetica,sans-Serif" font-size="10.00">MarkerArray</text>
</a>
</g>
</g>
<!-- Node1&#45;&gt;Node26 -->
<g id="edge25" class="edge"><title>Node1&#45;&gt;Node26</title>
<path fill="none" stroke="midnightblue" d="M89.9067,-749.809C107.841,-742.134 130.973,-732.689 152,-725.5 162.281,-721.985 173.345,-718.598 184.078,-715.512"/>
<polygon fill="midnightblue" stroke="midnightblue" points="88.3144,-746.685 80.5246,-753.866 91.0924,-753.11 88.3144,-746.685"/>
</g>
<!-- Node27 -->
<g id="node27" class="node"><title>Node27</title>
<g id="a_node27"><a xlink:href="class_i_n_m_o_s_t_1_1_mesh.html#a14f8614996be1f7dd81825a447e9f4e8" target="_top" xlink:title="INMOST::Mesh::RemMarkerArray">
<polygon fill="none" stroke="black" points="161.5,-647 161.5,-666 324.5,-666 324.5,-647 161.5,-647"/>
<text text-anchor="middle" x="243" y="-654" font-family="Helvetica,sans-Serif" font-size="10.00">INMOST::Mesh::RemMarkerArray</text>
</a>
</g>
</g>
<!-- Node1&#45;&gt;Node27 -->
<g id="edge26" class="edge"><title>Node1&#45;&gt;Node27</title>
<path fill="none" stroke="midnightblue" d="M72.6528,-745.645C89.1676,-725.367 118.903,-692.854 152,-675.5 159.354,-671.644 167.435,-668.57 175.642,-666.121"/>
<polygon fill="midnightblue" stroke="midnightblue" points="69.693,-743.744 66.2216,-753.754 75.1776,-748.094 69.693,-743.744"/>
</g>
<!-- Node28 -->
<g id="node28" class="node"><title>Node28</title>
<g id="a_node28"><a xlink:href="class_i_n_m_o_s_t_1_1_mesh.html#a4ecd1a36ff0b30e86a34b2c995751577" target="_top" xlink:title="INMOST::Mesh::RemPrivate\lMarkerArray">
<polygon fill="none" stroke="black" points="173.5,-597.5 173.5,-627.5 312.5,-627.5 312.5,-597.5 173.5,-597.5"/>
<text text-anchor="start" x="181.5" y="-615.5" font-family="Helvetica,sans-Serif" font-size="10.00">INMOST::Mesh::RemPrivate</text>
<text text-anchor="middle" x="243" y="-604.5" font-family="Helvetica,sans-Serif" font-size="10.00">MarkerArray</text>
</a>
</g>
</g>
<!-- Node1&#45;&gt;Node28 -->
<g id="edge27" class="edge"><title>Node1&#45;&gt;Node28</title>
<path fill="none" stroke="midnightblue" d="M67.6747,-744.893C81.5345,-717.229 111.313,-665.512 152,-637.5 158.545,-632.994 165.882,-629.297 173.467,-626.264"/>
<polygon fill="midnightblue" stroke="midnightblue" points="64.5166,-743.384 63.2979,-753.909 70.8138,-746.442 64.5166,-743.384"/>
</g>
<!-- Node29 -->
<g id="node29" class="node"><title>Node29</title>
<g id="a_node29"><a xlink:href="class_i_n_m_o_s_t_1_1_mesh_1_1_global_i_d_comparator.html#ac382eb1939cb5099bafb7fca4b081e3c" target="_top" xlink:title="INMOST::Mesh::GlobalIDComparator\l::operator()">
<polygon fill="none" stroke="black" points="155,-548.5 155,-578.5 331,-578.5 331,-548.5 155,-548.5"/>
<text text-anchor="start" x="163" y="-566.5" font-family="Helvetica,sans-Serif" font-size="10.00">INMOST::Mesh::GlobalIDComparator</text>
<text text-anchor="middle" x="243" y="-555.5" font-family="Helvetica,sans-Serif" font-size="10.00">::operator()</text>
</a>
</g>
</g>
<!-- Node1&#45;&gt;Node29 -->
<g id="edge28" class="edge"><title>Node1&#45;&gt;Node29</title>
<path fill="none" stroke="midnightblue" d="M63.7806,-743.823C73.7031,-707.273 100.066,-628.869 152,-587.5 156.301,-584.074 161.046,-581.135 166.043,-578.614"/>
<polygon fill="midnightblue" stroke="midnightblue" points="60.3325,-743.177 61.2189,-753.735 67.1098,-744.929 60.3325,-743.177"/>
</g>
<!-- Node30 -->
<g id="node30" class="node"><title>Node30</title>
<g id="a_node30"><a xlink:href="class_i_n_m_o_s_t_1_1_mesh_1_1_hierarchy_comparator.html#aa3c55e88d75e733b2d541c63e7d155e2" target="_top" xlink:title="INMOST::Mesh::HierarchyComparator\l::operator()">
<polygon fill="none" stroke="black" points="152.5,-499.5 152.5,-529.5 333.5,-529.5 333.5,-499.5 152.5,-499.5"/>
<text text-anchor="start" x="160.5" y="-517.5" font-family="Helvetica,sans-Serif" font-size="10.00">INMOST::Mesh::HierarchyComparator</text>
<text text-anchor="middle" x="243" y="-506.5" font-family="Helvetica,sans-Serif" font-size="10.00">::operator()</text>
</a>
</g>
</g>
<!-- Node1&#45;&gt;Node30 -->
<g id="edge29" class="edge"><title>Node1&#45;&gt;Node30</title>
<path fill="none" stroke="midnightblue" d="M61.3128,-743.662C67.5049,-699.809 88.5502,-594.119 152,-538.5 155.891,-535.089 160.216,-532.156 164.805,-529.634"/>
<polygon fill="midnightblue" stroke="midnightblue" points="57.8349,-743.267 60.0153,-753.635 64.7763,-744.17 57.8349,-743.267"/>
</g>
<!-- Node31 -->
<g id="node31" class="node"><title>Node31</title>
<g id="a_node31"><a xlink:href="class_i_n_m_o_s_t_1_1_mesh_1_1_real_comparator.html#af394d903edeb659bd1a48a95b569996c" target="_top" xlink:title="INMOST::Mesh::RealComparator\l::operator()">
<polygon fill="none" stroke="black" points="163.5,-450.5 163.5,-480.5 322.5,-480.5 322.5,-450.5 163.5,-450.5"/>
<text text-anchor="start" x="171.5" y="-468.5" font-family="Helvetica,sans-Serif" font-size="10.00">INMOST::Mesh::RealComparator</text>
<text text-anchor="middle" x="243" y="-457.5" font-family="Helvetica,sans-Serif" font-size="10.00">::operator()</text>
</a>
</g>
</g>
<!-- Node1&#45;&gt;Node31 -->
<g id="edge30" class="edge"><title>Node1&#45;&gt;Node31</title>
<path fill="none" stroke="midnightblue" d="M59.6471,-743.607C62.3957,-693.272 76.7859,-559.864 152,-489.5 155.661,-486.075 159.755,-483.128 164.123,-480.593"/>
<polygon fill="midnightblue" stroke="midnightblue" points="56.1422,-743.643 59.1935,-753.789 63.1352,-743.954 56.1422,-743.643"/>
</g>
<!-- Node32 -->
<g id="node32" class="node"><title>Node32</title>
<g id="a_node32"><a xlink:href="class_i_n_m_o_s_t_1_1_mesh_1_1_integer_comparator.html#a521ea8d9df71795f037272d6a45523de" target="_top" xlink:title="INMOST::Mesh::IntegerComparator\l::operator()">
<polygon fill="none" stroke="black" points="158.5,-401.5 158.5,-431.5 327.5,-431.5 327.5,-401.5 158.5,-401.5"/>
<text text-anchor="start" x="166.5" y="-419.5" font-family="Helvetica,sans-Serif" font-size="10.00">INMOST::Mesh::IntegerComparator</text>
<text text-anchor="middle" x="243" y="-408.5" font-family="Helvetica,sans-Serif" font-size="10.00">::operator()</text>
</a>
</g>
</g>
<!-- Node1&#45;&gt;Node32 -->
<g id="edge31" class="edge"><title>Node1&#45;&gt;Node32</title>
<path fill="none" stroke="midnightblue" d="M58.4477,-743.571C58.0285,-687.331 64.8615,-525.935 152,-440.5 155.464,-437.104 159.352,-434.174 163.517,-431.648"/>
<polygon fill="midnightblue" stroke="midnightblue" points="54.9538,-743.971 58.6209,-753.911 61.9528,-743.853 54.9538,-743.971"/>
</g>
<!-- Node33 -->
<g id="node33" class="node"><title>Node33</title>
<g id="a_node33"><a xlink:href="class_i_n_m_o_s_t_1_1_mesh_1_1_bulk_comparator.html#a8bd2436e36d465c2f9c2984b55c83ccd" target="_top" xlink:title="INMOST::Mesh::BulkComparator\l::operator()">
<polygon fill="none" stroke="black" points="163.5,-352.5 163.5,-382.5 322.5,-382.5 322.5,-352.5 163.5,-352.5"/>
<text text-anchor="start" x="171.5" y="-370.5" font-family="Helvetica,sans-Serif" font-size="10.00">INMOST::Mesh::BulkComparator</text>
<text text-anchor="middle" x="243" y="-359.5" font-family="Helvetica,sans-Serif" font-size="10.00">::operator()</text>
</a>
</g>
</g>
<!-- Node1&#45;&gt;Node33 -->
<g id="edge32" class="edge"><title>Node1&#45;&gt;Node33</title>
<path fill="none" stroke="midnightblue" d="M61.2983,-743.74C69.7602,-674.31 101.344,-442.953 152,-391.5 155.403,-388.043 159.245,-385.066 163.376,-382.506"/>
<polygon fill="midnightblue" stroke="midnightblue" points="57.8109,-743.427 60.1008,-753.771 64.7616,-744.257 57.8109,-743.427"/>
</g>
<!-- Node34 -->
<g id="node34" class="node"><title>Node34</title>
<g id="a_node34"><a xlink:href="class_i_n_m_o_s_t_1_1_mesh_1_1_real_d_f_comparator.html#a32d2944a800656447a02c967fda7c9e2" target="_top" xlink:title="INMOST::Mesh::RealDFComparator\l::operator()">
<polygon fill="none" stroke="black" points="157,-303.5 157,-333.5 329,-333.5 329,-303.5 157,-303.5"/>
<text text-anchor="start" x="165" y="-321.5" font-family="Helvetica,sans-Serif" font-size="10.00">INMOST::Mesh::RealDFComparator</text>
<text text-anchor="middle" x="243" y="-310.5" font-family="Helvetica,sans-Serif" font-size="10.00">::operator()</text>
</a>
</g>
</g>
<!-- Node1&#45;&gt;Node34 -->
<g id="edge33" class="edge"><title>Node1&#45;&gt;Node34</title>
<path fill="none" stroke="midnightblue" d="M60.6909,-743.622C67.4905,-668.306 95.2447,-401.761 152,-342.5 155.244,-339.113 158.907,-336.186 162.854,-333.657"/>
<polygon fill="midnightblue" stroke="midnightblue" points="57.1982,-743.387 59.8083,-753.655 64.1712,-744 57.1982,-743.387"/>
</g>
<!-- Node35 -->
<g id="node35" class="node"><title>Node35</title>
<g id="a_node35"><a xlink:href="class_i_n_m_o_s_t_1_1_mesh_1_1_integer_d_f_comparator.html#afff0d1793113eb0d1a8f90e98d5c118a" target="_top" xlink:title="INMOST::Mesh::IntegerDFComparator\l::operator()">
<polygon fill="none" stroke="black" points="152,-254.5 152,-284.5 334,-284.5 334,-254.5 152,-254.5"/>
<text text-anchor="start" x="160" y="-272.5" font-family="Helvetica,sans-Serif" font-size="10.00">INMOST::Mesh::IntegerDFComparator</text>
<text text-anchor="middle" x="243" y="-261.5" font-family="Helvetica,sans-Serif" font-size="10.00">::operator()</text>
</a>
</g>
</g>
<!-- Node1&#45;&gt;Node35 -->
<g id="edge34" class="edge"><title>Node1&#45;&gt;Node35</title>
<path fill="none" stroke="midnightblue" d="M60.2071,-743.446C65.4824,-662.452 89.1268,-360.616 152,-293.5 155.206,-290.078 158.841,-287.123 162.766,-284.573"/>
<polygon fill="midnightblue" stroke="midnightblue" points="56.6944,-743.539 59.5596,-753.739 63.6806,-743.978 56.6944,-743.539"/>
</g>
<!-- Node36 -->
<g id="node36" class="node"><title>Node36</title>
<g id="a_node36"><a xlink:href="class_i_n_m_o_s_t_1_1_mesh_1_1_bulk_d_f_comparator.html#a714397aff2fb2191ad02921b22fca995" target="_top" xlink:title="INMOST::Mesh::BulkDFComparator\l::operator()">
<polygon fill="none" stroke="black" points="157,-205.5 157,-235.5 329,-235.5 329,-205.5 157,-205.5"/>
<text text-anchor="start" x="165" y="-223.5" font-family="Helvetica,sans-Serif" font-size="10.00">INMOST::Mesh::BulkDFComparator</text>
<text text-anchor="middle" x="243" y="-212.5" font-family="Helvetica,sans-Serif" font-size="10.00">::operator()</text>
</a>
</g>
</g>
<!-- Node1&#45;&gt;Node36 -->
<g id="edge35" class="edge"><title>Node1&#45;&gt;Node36</title>
<path fill="none" stroke="midnightblue" d="M59.7806,-743.871C63.574,-658.409 82.8216,-319.695 152,-244.5 155.175,-241.049 158.786,-238.071 162.693,-235.505"/>
<polygon fill="midnightblue" stroke="midnightblue" points="56.2779,-743.861 59.3521,-754 63.2717,-744.157 56.2779,-743.861"/>
</g>
<!-- Node37 -->
<g id="node37" class="node"><title>Node37</title>
<g id="a_node37"><a xlink:href="class_i_n_m_o_s_t_1_1_storage.html#a59da31b96c2b4e09e260f0deb4dae4d9" target="_top" xlink:title="INMOST::Storage::isValid">
<polygon fill="none" stroke="black" points="179,-167 179,-186 307,-186 307,-167 179,-167"/>
<text text-anchor="middle" x="243" y="-174" font-family="Helvetica,sans-Serif" font-size="10.00">INMOST::Storage::isValid</text>
</a>
</g>
</g>
<!-- Node1&#45;&gt;Node37 -->
<g id="edge36" class="edge"><title>Node1&#45;&gt;Node37</title>
<path fill="none" stroke="midnightblue" d="M59.3544,-743.687C61.3942,-652.79 74.4701,-276.662 152,-195.5 159.28,-187.879 168.789,-182.924 178.893,-179.768"/>
<polygon fill="midnightblue" stroke="midnightblue" points="55.8499,-743.877 59.1453,-753.947 62.8484,-744.02 55.8499,-743.877"/>
</g>
<!-- Node3 -->
<g id="node3" class="node"><title>Node3</title>
<g id="a_node3"><a xlink:href="class_i_n_m_o_s_t_1_1_mesh_1_1base__iterator.html#a8b0cef4064c2eef72fcabf2c01fd7fd4" target="_top" xlink:title="INMOST::Mesh::base\l_iterator::operator*">
<polygon fill="none" stroke="black" points="400,-1247.5 400,-1277.5 510,-1277.5 510,-1247.5 400,-1247.5"/>
<text text-anchor="start" x="408" y="-1265.5" font-family="Helvetica,sans-Serif" font-size="10.00">INMOST::Mesh::base</text>
<text text-anchor="middle" x="455" y="-1254.5" font-family="Helvetica,sans-Serif" font-size="10.00">_iterator::operator*</text>
</a>
</g>
</g>
<!-- Node2&#45;&gt;Node3 -->
<g id="edge2" class="edge"><title>Node2&#45;&gt;Node3</title>
<path fill="none" stroke="midnightblue" d="M318.804,-1247.05C345.519,-1250.1 375.085,-1253.48 399.738,-1256.3"/>
<polygon fill="midnightblue" stroke="midnightblue" points="319.053,-1243.55 308.72,-1245.9 318.258,-1250.51 319.053,-1243.55"/>
</g>
<!-- Node4 -->
<g id="node4" class="node"><title>Node4</title>
<g id="a_node4"><a xlink:href="class_i_n_m_o_s_t_1_1_mesh_1_1base__iterator.html#a1b5d24fd44090fbe7d644d27551f2c31" target="_top" xlink:title="INMOST::Mesh::base\l_iterator::operator&#45;\&gt;">
<polygon fill="none" stroke="black" points="400,-1198.5 400,-1228.5 510,-1228.5 510,-1198.5 400,-1198.5"/>
<text text-anchor="start" x="408" y="-1216.5" font-family="Helvetica,sans-Serif" font-size="10.00">INMOST::Mesh::base</text>
<text text-anchor="middle" x="455" y="-1205.5" font-family="Helvetica,sans-Serif" font-size="10.00">_iterator::operator&#45;&gt;</text>
</a>
</g>
</g>
<!-- Node2&#45;&gt;Node4 -->
<g id="edge3" class="edge"><title>Node2&#45;&gt;Node4</title>
<path fill="none" stroke="midnightblue" d="M318.804,-1229.59C345.519,-1226.41 375.085,-1222.89 399.738,-1219.96"/>
<polygon fill="midnightblue" stroke="midnightblue" points="318.237,-1226.14 308.72,-1230.8 319.064,-1233.09 318.237,-1226.14"/>
</g>
<!-- Node11 -->
<g id="node11" class="node"><title>Node11</title>
<g id="a_node11"><a xlink:href="class_i_n_m_o_s_t_1_1_mesh.html#aedac2611fffd95b7cd20ed9540c743fa" target="_top" xlink:title="INMOST::Mesh::ElementByLocalID">
<polygon fill="none" stroke="black" points="370,-1134 370,-1153 540,-1153 540,-1134 370,-1134"/>
<text text-anchor="middle" x="455" y="-1141" font-family="Helvetica,sans-Serif" font-size="10.00">INMOST::Mesh::ElementByLocalID</text>
</a>
</g>
</g>
<!-- Node10&#45;&gt;Node11 -->
<g id="edge10" class="edge"><title>Node10&#45;&gt;Node11</title>
<path fill="none" stroke="midnightblue" d="M327.622,-1024.74C329.85,-1026.19 331.984,-1027.77 334,-1029.5 368.291,-1058.87 335.921,-1094.88 370,-1124.5 374.401,-1128.33 379.411,-1131.43 384.742,-1133.93"/>
<polygon fill="midnightblue" stroke="midnightblue" points="329.062,-1021.54 318.614,-1019.78 325.686,-1027.67 329.062,-1021.54"/>
</g>
<!-- Node12 -->
<g id="node12" class="node"><title>Node12</title>
<g id="a_node12"><a xlink:href="class_i_n_m_o_s_t_1_1_mesh.html#a4f26f7a8fbf7bf0a104b79f2433334a2" target="_top" xlink:title="INMOST::Mesh::FirstHandle">
<polygon fill="none" stroke="black" points="385.5,-1096 385.5,-1115 524.5,-1115 524.5,-1096 385.5,-1096"/>
<text text-anchor="middle" x="455" y="-1103" font-family="Helvetica,sans-Serif" font-size="10.00">INMOST::Mesh::FirstHandle</text>
</a>
</g>
</g>
<!-- Node10&#45;&gt;Node12 -->
<g id="edge11" class="edge"><title>Node10&#45;&gt;Node12</title>
<path fill="none" stroke="midnightblue" d="M325.323,-1024.3C328.34,-1025.86 331.247,-1027.58 334,-1029.5 358.597,-1046.61 345.526,-1069.21 370,-1086.5 375.496,-1090.38 381.655,-1093.49 388.074,-1095.97"/>
<polygon fill="midnightblue" stroke="midnightblue" points="326.541,-1021.01 315.985,-1020.1 323.674,-1027.39 326.541,-1021.01"/>
</g>
<!-- Node13 -->
<g id="node13" class="node"><title>Node13</title>
<g id="a_node13"><a xlink:href="class_i_n_m_o_s_t_1_1_mesh.html#a863be497f888170153331f74fae93e06" target="_top" xlink:title="INMOST::Mesh::LastHandle">
<polygon fill="none" stroke="black" points="386,-1058 386,-1077 524,-1077 524,-1058 386,-1058"/>
<text text-anchor="middle" x="455" y="-1065" font-family="Helvetica,sans-Serif" font-size="10.00">INMOST::Mesh::LastHandle</text>
</a>
</g>
</g>
<!-- Node10&#45;&gt;Node13 -->
<g id="edge12" class="edge"><title>Node10&#45;&gt;Node13</title>
<path fill="none" stroke="midnightblue" d="M311.169,-1022.52C318.957,-1024.55 326.714,-1026.87 334,-1029.5 351.014,-1035.65 353.03,-1042.23 370,-1048.5 380.098,-1052.23 391.16,-1055.37 401.845,-1057.95"/>
<polygon fill="midnightblue" stroke="midnightblue" points="311.867,-1019.09 301.322,-1020.11 310.201,-1025.89 311.867,-1019.09"/>
</g>
<!-- Node14 -->
<g id="node14" class="node"><title>Node14</title>
<g id="a_node14"><a xlink:href="class_i_n_m_o_s_t_1_1_mesh.html#a83562665b8922806e475fa75f79a9b69" target="_top" xlink:title="INMOST::Mesh::NodeByLocalID">
<polygon fill="none" stroke="black" points="377,-1020 377,-1039 533,-1039 533,-1020 377,-1020"/>
<text text-anchor="middle" x="455" y="-1027" font-family="Helvetica,sans-Serif" font-size="10.00">INMOST::Mesh::NodeByLocalID</text>
</a>
</g>
</g>
<!-- Node10&#45;&gt;Node14 -->
<g id="edge13" class="edge"><title>Node10&#45;&gt;Node14</title>
<path fill="none" stroke="midnightblue" d="M328.92,-1018.18C344.743,-1019.61 361.197,-1021.1 376.773,-1022.51"/>
<polygon fill="midnightblue" stroke="midnightblue" points="328.904,-1014.67 318.629,-1017.25 328.273,-1021.64 328.904,-1014.67"/>
</g>
<!-- Node15 -->
<g id="node15" class="node"><title>Node15</title>
<g id="a_node15"><a xlink:href="class_i_n_m_o_s_t_1_1_mesh.html#a318f86a5b9807fa73d7e1ffe493fb1d0" target="_top" xlink:title="INMOST::Mesh::EdgeByLocalID">
<polygon fill="none" stroke="black" points="377,-982 377,-1001 533,-1001 533,-982 377,-982"/>
<text text-anchor="middle" x="455" y="-989" font-family="Helvetica,sans-Serif" font-size="10.00">INMOST::Mesh::EdgeByLocalID</text>
</a>
</g>
</g>
<!-- Node10&#45;&gt;Node15 -->
<g id="edge14" class="edge"><title>Node10&#45;&gt;Node15</title>
<path fill="none" stroke="midnightblue" d="M328.92,-1002.82C344.743,-1001.39 361.197,-999.896 376.773,-998.487"/>
<polygon fill="midnightblue" stroke="midnightblue" points="328.273,-999.361 318.629,-1003.75 328.904,-1006.33 328.273,-999.361"/>
</g>
<!-- Node16 -->
<g id="node16" class="node"><title>Node16</title>
<g id="a_node16"><a xlink:href="class_i_n_m_o_s_t_1_1_mesh.html#aec7e83bc5a26c47443dd5ae701747ccf" target="_top" xlink:title="INMOST::Mesh::FaceByLocalID">
<polygon fill="none" stroke="black" points="377.5,-944 377.5,-963 532.5,-963 532.5,-944 377.5,-944"/>
<text text-anchor="middle" x="455" y="-951" font-family="Helvetica,sans-Serif" font-size="10.00">INMOST::Mesh::FaceByLocalID</text>
</a>
</g>
</g>
<!-- Node10&#45;&gt;Node16 -->
<g id="edge15" class="edge"><title>Node10&#45;&gt;Node16</title>
<path fill="none" stroke="midnightblue" d="M311.169,-998.479C318.957,-996.451 326.714,-994.134 334,-991.5 351.014,-985.35 353.03,-978.772 370,-972.5 380.098,-968.768 391.16,-965.632 401.845,-963.053"/>
<polygon fill="midnightblue" stroke="midnightblue" points="310.201,-995.112 301.322,-1000.89 311.867,-1001.91 310.201,-995.112"/>
</g>
<!-- Node17 -->
<g id="node17" class="node"><title>Node17</title>
<g id="a_node17"><a xlink:href="class_i_n_m_o_s_t_1_1_mesh.html#a0d502f77d8d56014a67e1715f8628c0f" target="_top" xlink:title="INMOST::Mesh::CellByLocalID">
<polygon fill="none" stroke="black" points="380,-906 380,-925 530,-925 530,-906 380,-906"/>
<text text-anchor="middle" x="455" y="-913" font-family="Helvetica,sans-Serif" font-size="10.00">INMOST::Mesh::CellByLocalID</text>
</a>
</g>
</g>
<!-- Node10&#45;&gt;Node17 -->
<g id="edge16" class="edge"><title>Node10&#45;&gt;Node17</title>
<path fill="none" stroke="midnightblue" d="M325.323,-996.704C328.34,-995.144 331.247,-993.415 334,-991.5 358.597,-974.39 345.526,-951.786 370,-934.5 375.496,-930.618 381.655,-927.514 388.074,-925.034"/>
<polygon fill="midnightblue" stroke="midnightblue" points="323.674,-993.607 315.985,-1000.9 326.541,-999.993 323.674,-993.607"/>
</g>
<!-- Node18 -->
<g id="node18" class="node"><title>Node18</title>
<g id="a_node18"><a xlink:href="class_i_n_m_o_s_t_1_1_mesh.html#af2af21e0963cd29ae7f809e6e2939719" target="_top" xlink:title="INMOST::Mesh::EsetByLocalID">
<polygon fill="none" stroke="black" points="378,-868 378,-887 532,-887 532,-868 378,-868"/>
<text text-anchor="middle" x="455" y="-875" font-family="Helvetica,sans-Serif" font-size="10.00">INMOST::Mesh::EsetByLocalID</text>
</a>
</g>
</g>
<!-- Node10&#45;&gt;Node18 -->
<g id="edge17" class="edge"><title>Node10&#45;&gt;Node18</title>
<path fill="none" stroke="midnightblue" d="M327.622,-996.26C329.85,-994.81 331.984,-993.227 334,-991.5 368.291,-962.126 335.921,-926.12 370,-896.5 374.401,-892.675 379.411,-889.574 384.742,-887.066"/>
<polygon fill="midnightblue" stroke="midnightblue" points="325.686,-993.331 318.614,-1001.22 329.062,-999.463 325.686,-993.331"/>
</g>
<!-- Node38 -->
<g id="node38" class="node"><title>Node38</title>
<g id="a_node38"><a xlink:href="class_i_n_m_o_s_t_1_1_mesh.html#a94963a0f3f1d80ee0785fb8ebd409339" target="_top" xlink:title="INMOST::Mesh::GetStatus">
<polygon fill="none" stroke="black" points="388,-300 388,-319 522,-319 522,-300 388,-300"/>
<text text-anchor="middle" x="455" y="-307" font-family="Helvetica,sans-Serif" font-size="10.00">INMOST::Mesh::GetStatus</text>
</a>
</g>
</g>
<!-- Node37&#45;&gt;Node38 -->
<g id="edge37" class="edge"><title>Node37&#45;&gt;Node38</title>
<path fill="none" stroke="midnightblue" d="M316.703,-184.923C322.97,-187.64 328.866,-191.103 334,-195.5 368.291,-224.874 335.921,-260.88 370,-290.5 375.191,-295.012 381.229,-298.516 387.641,-301.228"/>
<polygon fill="midnightblue" stroke="midnightblue" points="317.896,-181.632 307.303,-181.454 315.473,-188.2 317.896,-181.632"/>
</g>
<!-- Node39 -->
<g id="node39" class="node"><title>Node39</title>
<g id="a_node39"><a xlink:href="class_i_n_m_o_s_t_1_1_storage.html#a04201e9bd362d98f568664168cba71be" target="_top" xlink:title="Check if any data is associated with Tag. ">
<polygon fill="none" stroke="black" points="385,-262 385,-281 525,-281 525,-262 385,-262"/>
<text text-anchor="middle" x="455" y="-269" font-family="Helvetica,sans-Serif" font-size="10.00">INMOST::Storage::HaveData</text>
</a>
</g>
</g>
<!-- Node37&#45;&gt;Node39 -->
<g id="edge38" class="edge"><title>Node37&#45;&gt;Node39</title>
<path fill="none" stroke="midnightblue" d="M316.881,-186.457C322.945,-188.876 328.752,-191.85 334,-195.5 358.597,-212.61 345.526,-235.214 370,-252.5 375.496,-256.382 381.655,-259.486 388.074,-261.966"/>
<polygon fill="midnightblue" stroke="midnightblue" points="317.78,-183.065 307.185,-183.095 315.487,-189.678 317.78,-183.065"/>
</g>
<!-- Node40 -->
<g id="node40" class="node"><title>Node40</title>
<g id="a_node40"><a xlink:href="class_i_n_m_o_s_t_1_1_storage.html#a66b86d9ae28d429ff830735a63ecef4d" target="_top" xlink:title="INMOST::Storage::SetMarker">
<polygon fill="none" stroke="black" points="383,-224 383,-243 527,-243 527,-224 383,-224"/>
<text text-anchor="middle" x="455" y="-231" font-family="Helvetica,sans-Serif" font-size="10.00">INMOST::Storage::SetMarker</text>
</a>
</g>
</g>
<!-- Node37&#45;&gt;Node40 -->
<g id="edge39" class="edge"><title>Node37&#45;&gt;Node40</title>
<path fill="none" stroke="midnightblue" d="M311.169,-188.521C318.957,-190.549 326.714,-192.866 334,-195.5 351.014,-201.65 353.03,-208.228 370,-214.5 380.098,-218.232 391.16,-221.368 401.845,-223.947"/>
<polygon fill="midnightblue" stroke="midnightblue" points="311.867,-185.089 301.322,-186.107 310.201,-191.888 311.867,-185.089"/>
</g>
<!-- Node41 -->
<g id="node41" class="node"><title>Node41</title>
<g id="a_node41"><a xlink:href="class_i_n_m_o_s_t_1_1_storage.html#ad256a6f5101df9f507e359cdddef3a66" target="_top" xlink:title="INMOST::Storage::GetMarker">
<polygon fill="none" stroke="black" points="382.5,-186 382.5,-205 527.5,-205 527.5,-186 382.5,-186"/>
<text text-anchor="middle" x="455" y="-193" font-family="Helvetica,sans-Serif" font-size="10.00">INMOST::Storage::GetMarker</text>
</a>
</g>
</g>
<!-- Node37&#45;&gt;Node41 -->
<g id="edge40" class="edge"><title>Node37&#45;&gt;Node41</title>
<path fill="none" stroke="midnightblue" d="M317.182,-183.121C338.253,-185.028 361.212,-187.105 382.198,-189.004"/>
<polygon fill="midnightblue" stroke="midnightblue" points="317.282,-179.616 307.007,-182.201 316.651,-186.588 317.282,-179.616"/>
</g>
<!-- Node49 -->
<g id="node49" class="node"><title>Node49</title>
<g id="a_node49"><a xlink:href="class_i_n_m_o_s_t_1_1_storage.html#aeae593e88e3269f8590742a9e95d1813" target="_top" xlink:title="INMOST::Storage::RemMarker">
<polygon fill="none" stroke="black" points="380.5,-148 380.5,-167 529.5,-167 529.5,-148 380.5,-148"/>
<text text-anchor="middle" x="455" y="-155" font-family="Helvetica,sans-Serif" font-size="10.00">INMOST::Storage::RemMarker</text>
</a>
</g>
</g>
<!-- Node37&#45;&gt;Node49 -->
<g id="edge48" class="edge"><title>Node37&#45;&gt;Node49</title>
<path fill="none" stroke="midnightblue" d="M317.198,-169.877C337.639,-168.028 359.856,-166.018 380.324,-164.166"/>
<polygon fill="midnightblue" stroke="midnightblue" points="316.651,-166.412 307.007,-170.799 317.282,-173.384 316.651,-166.412"/>
</g>
<!-- Node50 -->
<g id="node50" class="node"><title>Node50</title>
<g id="a_node50"><a xlink:href="class_i_n_m_o_s_t_1_1_storage.html#a0e061a35dc4196b9bb88bef49c882c08" target="_top" xlink:title="INMOST::Storage::SetPrivate\lMarker">
<polygon fill="none" stroke="black" points="383.5,-98.5 383.5,-128.5 526.5,-128.5 526.5,-98.5 383.5,-98.5"/>
<text text-anchor="start" x="391.5" y="-116.5" font-family="Helvetica,sans-Serif" font-size="10.00">INMOST::Storage::SetPrivate</text>
<text text-anchor="middle" x="455" y="-105.5" font-family="Helvetica,sans-Serif" font-size="10.00">Marker</text>
</a>
</g>
</g>
<!-- Node37&#45;&gt;Node50 -->
<g id="edge49" class="edge"><title>Node37&#45;&gt;Node50</title>
<path fill="none" stroke="midnightblue" d="M285.302,-164.003C309.894,-156.572 341.722,-146.972 370,-138.5 380.786,-135.269 392.355,-131.816 403.353,-128.541"/>
<polygon fill="midnightblue" stroke="midnightblue" points="284.137,-160.698 275.577,-166.942 286.162,-167.399 284.137,-160.698"/>
</g>
<!-- Node51 -->
<g id="node51" class="node"><title>Node51</title>
<g id="a_node51"><a xlink:href="class_i_n_m_o_s_t_1_1_storage.html#ae55c21c60460d82e202669890cbb05ce" target="_top" xlink:title="INMOST::Storage::GetPrivate\lMarker">
<polygon fill="none" stroke="black" points="383,-49.5 383,-79.5 527,-79.5 527,-49.5 383,-49.5"/>
<text text-anchor="start" x="391" y="-67.5" font-family="Helvetica,sans-Serif" font-size="10.00">INMOST::Storage::GetPrivate</text>
<text text-anchor="middle" x="455" y="-56.5" font-family="Helvetica,sans-Serif" font-size="10.00">Marker</text>
</a>
</g>
</g>
<!-- Node37&#45;&gt;Node51 -->
<g id="edge50" class="edge"><title>Node37&#45;&gt;Node51</title>
<path fill="none" stroke="midnightblue" d="M262.821,-160.32C286.42,-140.778 328.797,-108.098 370,-88.5 376.985,-85.1775 384.521,-82.2263 392.111,-79.6303"/>
<polygon fill="midnightblue" stroke="midnightblue" points="260.421,-157.765 255.013,-166.876 264.922,-163.126 260.421,-157.765"/>
</g>
<!-- Node52 -->
<g id="node52" class="node"><title>Node52</title>
<g id="a_node52"><a xlink:href="class_i_n_m_o_s_t_1_1_storage.html#a7eb821d11fb14f7c7c86c93c57587666" target="_top" xlink:title="INMOST::Storage::RemPrivate\lMarker">
<polygon fill="none" stroke="black" points="380.5,-0.5 380.5,-30.5 529.5,-30.5 529.5,-0.5 380.5,-0.5"/>
<text text-anchor="start" x="388.5" y="-18.5" font-family="Helvetica,sans-Serif" font-size="10.00">INMOST::Storage::RemPrivate</text>
<text text-anchor="middle" x="455" y="-7.5" font-family="Helvetica,sans-Serif" font-size="10.00">Marker</text>
</a>
</g>
</g>
<!-- Node37&#45;&gt;Node52 -->
<g id="edge51" class="edge"><title>Node37&#45;&gt;Node52</title>
<path fill="none" stroke="midnightblue" d="M255.674,-158.395C275.565,-129.006 318.878,-71.037 370,-39.5 375.551,-36.0759 381.606,-33.1249 387.841,-30.5848"/>
<polygon fill="midnightblue" stroke="midnightblue" points="252.668,-156.594 250.058,-166.863 258.502,-160.463 252.668,-156.594"/>
</g>
<!-- Node42 -->
<g id="node42" class="node"><title>Node42</title>
<g id="a_node42"><a xlink:href="class_i_n_m_o_s_t_1_1_automatizator.html#a3da0c47982b82640337e87375abe7314" target="_top" xlink:title="INMOST::Automatizator\l::isDynamicValid">
<polygon fill="none" stroke="black" points="593.5,-339.5 593.5,-369.5 713.5,-369.5 713.5,-339.5 593.5,-339.5"/>
<text text-anchor="start" x="601.5" y="-357.5" font-family="Helvetica,sans-Serif" font-size="10.00">INMOST::Automatizator</text>
<text text-anchor="middle" x="653.5" y="-346.5" font-family="Helvetica,sans-Serif" font-size="10.00">::isDynamicValid</text>
</a>
</g>
</g>
<!-- Node41&#45;&gt;Node42 -->
<g id="edge41" class="edge"><title>Node41&#45;&gt;Node42</title>
<path fill="none" stroke="midnightblue" d="M535.194,-210.564C536.868,-211.784 538.475,-213.094 540,-214.5 579.372,-250.807 538.367,-291.394 576,-329.5 580.909,-334.471 586.819,-338.453 593.151,-341.644"/>
<polygon fill="midnightblue" stroke="midnightblue" points="536.682,-207.374 526.314,-205.19 533.057,-213.362 536.682,-207.374"/>
</g>
<!-- Node43 -->
<g id="node43" class="node"><title>Node43</title>
<g id="a_node43"><a xlink:href="class_i_n_m_o_s_t_1_1_automatizator.html#a6ae69d02eb607b39c5000c39882c484d" target="_top" xlink:title="INMOST::Automatizator\l::isStaticValid">
<polygon fill="none" stroke="black" points="593.5,-290.5 593.5,-320.5 713.5,-320.5 713.5,-290.5 593.5,-290.5"/>
<text text-anchor="start" x="601.5" y="-308.5" font-family="Helvetica,sans-Serif" font-size="10.00">INMOST::Automatizator</text>
<text text-anchor="middle" x="653.5" y="-297.5" font-family="Helvetica,sans-Serif" font-size="10.00">::isStaticValid</text>
</a>
</g>
</g>
<!-- Node41&#45;&gt;Node43 -->
<g id="edge42" class="edge"><title>Node41&#45;&gt;Node43</title>
<path fill="none" stroke="midnightblue" d="M532.131,-209.391C534.879,-210.926 537.515,-212.623 540,-214.5 566.661,-234.64 550.308,-259.137 576,-280.5 581.157,-284.788 587.069,-288.347 593.273,-291.299"/>
<polygon fill="midnightblue" stroke="midnightblue" points="533.562,-206.195 523.032,-205.024 530.533,-212.506 533.562,-206.195"/>
</g>
<!-- Node44 -->
<g id="node44" class="node"><title>Node44</title>
<g id="a_node44"><a xlink:href="class_i_n_m_o_s_t_1_1enhanced__multivar__expression.html#aa7a9b5c6c18e890d941c0abaf36fc9ac" target="_top" xlink:title="INMOST::enhanced_multivar\l_expression::enhanced_multivar\l_expression">
<polygon fill="none" stroke="black" points="576,-230 576,-271 731,-271 731,-230 576,-230"/>
<text text-anchor="start" x="584" y="-259" font-family="Helvetica,sans-Serif" font-size="10.00">INMOST::enhanced_multivar</text>
<text text-anchor="start" x="584" y="-248" font-family="Helvetica,sans-Serif" font-size="10.00">_expression::enhanced_multivar</text>
<text text-anchor="middle" x="653.5" y="-237" font-family="Helvetica,sans-Serif" font-size="10.00">_expression</text>
</a>
</g>
</g>
<!-- Node41&#45;&gt;Node44 -->
<g id="edge43" class="edge"><title>Node41&#45;&gt;Node44</title>
<path fill="none" stroke="midnightblue" d="M511.373,-207.303C520.954,-209.551 530.792,-211.991 540,-214.5 556.916,-219.11 575.082,-224.657 591.776,-230"/>
<polygon fill="midnightblue" stroke="midnightblue" points="512.048,-203.867 501.518,-205.035 510.478,-210.689 512.048,-203.867"/>
</g>
<!-- Node45 -->
<g id="node45" class="node"><title>Node45</title>
<g id="a_node45"><a xlink:href="class_i_n_m_o_s_t_1_1dynamic__variable.html#a41483a4546777613637e523f4f57ec81" target="_top" xlink:title="INMOST::dynamic_variable\l::Index">
<polygon fill="none" stroke="black" points="586.5,-180.5 586.5,-210.5 720.5,-210.5 720.5,-180.5 586.5,-180.5"/>
<text text-anchor="start" x="594.5" y="-198.5" font-family="Helvetica,sans-Serif" font-size="10.00">INMOST::dynamic_variable</text>
<text text-anchor="middle" x="653.5" y="-187.5" font-family="Helvetica,sans-Serif" font-size="10.00">::Index</text>
</a>
</g>
</g>
<!-- Node41&#45;&gt;Node45 -->
<g id="edge44" class="edge"><title>Node41&#45;&gt;Node45</title>
<path fill="none" stroke="midnightblue" d="M537.78,-195.5C554.004,-195.5 570.844,-195.5 586.463,-195.5"/>
<polygon fill="midnightblue" stroke="midnightblue" points="537.775,-192 527.775,-195.5 537.775,-199 537.775,-192"/>
</g>
<!-- Node46 -->
<g id="node46" class="node"><title>Node46</title>
<g id="a_node46"><a xlink:href="class_i_n_m_o_s_t_1_1dynamic__variable.html#a432e3db3a15b60eebc084cfd8dcfb28e" target="_top" xlink:title="INMOST::dynamic_variable\l::Variable">
<polygon fill="none" stroke="black" points="586.5,-131.5 586.5,-161.5 720.5,-161.5 720.5,-131.5 586.5,-131.5"/>
<text text-anchor="start" x="594.5" y="-149.5" font-family="Helvetica,sans-Serif" font-size="10.00">INMOST::dynamic_variable</text>
<text text-anchor="middle" x="653.5" y="-138.5" font-family="Helvetica,sans-Serif" font-size="10.00">::Variable</text>
</a>
</g>
</g>
<!-- Node41&#45;&gt;Node46 -->
<g id="edge45" class="edge"><title>Node41&#45;&gt;Node46</title>
<path fill="none" stroke="midnightblue" d="M509.621,-183.693C519.729,-181.376 530.201,-178.914 540,-176.5 558.842,-171.859 579.373,-166.479 597.676,-161.569"/>
<polygon fill="midnightblue" stroke="midnightblue" points="508.648,-180.324 499.672,-185.954 510.199,-187.15 508.648,-180.324"/>
</g>
<!-- Node47 -->
<g id="node47" class="node"><title>Node47</title>
<g id="a_node47"><a xlink:href="class_i_n_m_o_s_t_1_1dynamic__variable.html#af98d84e841029239fe4b098025ef0801" target="_top" xlink:title="INMOST::dynamic_variable\l::operator[]">
<polygon fill="none" stroke="black" points="586.5,-82.5 586.5,-112.5 720.5,-112.5 720.5,-82.5 586.5,-82.5"/>
<text text-anchor="start" x="594.5" y="-100.5" font-family="Helvetica,sans-Serif" font-size="10.00">INMOST::dynamic_variable</text>
<text text-anchor="middle" x="653.5" y="-89.5" font-family="Helvetica,sans-Serif" font-size="10.00">::operator[]</text>
</a>
</g>
</g>
<!-- Node41&#45;&gt;Node47 -->
<g id="edge46" class="edge"><title>Node41&#45;&gt;Node47</title>
<path fill="none" stroke="midnightblue" d="M531.27,-181.703C534.31,-180.147 537.237,-178.418 540,-176.5 563.999,-159.839 552.7,-139.125 576,-121.5 580.551,-118.057 585.607,-115.101 590.889,-112.565"/>
<polygon fill="midnightblue" stroke="midnightblue" points="529.585,-178.621 521.862,-185.875 532.422,-185.021 529.585,-178.621"/>
</g>
<!-- Node48 -->
<g id="node48" class="node"><title>Node48</title>
<g id="a_node48"><a xlink:href="class_i_n_m_o_s_t_1_1dynamic__variable.html#a144f4624248335fd4b690f3416720007" target="_top" xlink:title="INMOST::dynamic_variable\l::isUnknown">
<polygon fill="none" stroke="black" points="586.5,-33.5 586.5,-63.5 720.5,-63.5 720.5,-33.5 586.5,-33.5"/>
<text text-anchor="start" x="594.5" y="-51.5" font-family="Helvetica,sans-Serif" font-size="10.00">INMOST::dynamic_variable</text>
<text text-anchor="middle" x="653.5" y="-40.5" font-family="Helvetica,sans-Serif" font-size="10.00">::isUnknown</text>
</a>
</g>
</g>
<!-- Node41&#45;&gt;Node48 -->
<g id="edge47" class="edge"><title>Node41&#45;&gt;Node48</title>
<path fill="none" stroke="midnightblue" d="M534.564,-180.777C536.462,-179.462 538.28,-178.039 540,-176.5 576.449,-143.881 540.911,-106.577 576,-72.5 579.495,-69.1058 583.464,-66.1912 587.713,-63.6883"/>
<polygon fill="midnightblue" stroke="midnightblue" points="532.676,-177.826 525.786,-185.874 536.192,-183.879 532.676,-177.826"/>
</g>
</g>
</svg>
