<?xml version="1.0" encoding="UTF-8" standalone="no"?>
<!DOCTYPE svg PUBLIC "-//W3C//DTD SVG 1.1//EN"
 "http://www.w3.org/Graphics/SVG/1.1/DTD/svg11.dtd">
<!-- Generated by graphviz version 2.38.0 (20140413.2041)
 -->
<!-- Title: INMOST::ComposeHandleNum Pages: 1 -->
<svg width="365pt" height="294pt"
 viewBox="0.00 0.00 365.00 294.00" xmlns="http://www.w3.org/2000/svg" xmlns:xlink="http://www.w3.org/1999/xlink">
<g id="graph0" class="graph" transform="scale(1 1) rotate(0) translate(4 290)">
<title>INMOST::ComposeHandleNum</title>
<!-- Node1 -->
<g id="node1" class="node"><title>Node1</title>
<polygon fill="#bfbfbf" stroke="black" points="0,-133.5 0,-152.5 151,-152.5 151,-133.5 0,-133.5"/>
<text text-anchor="middle" x="75.5" y="-140.5" font-family="Helvetica,sans-Serif" font-size="10.00">INMOST::ComposeHandleNum</text>
</g>
<!-- Node2 -->
<g id="node2" class="node"><title>Node2</title>
<g id="a_node2"><a xlink:href="class_i_n_m_o_s_t_1_1_mesh.html#aedac2611fffd95b7cd20ed9540c743fa" target="_top" xlink:title="INMOST::Mesh::ElementByLocalID">
<polygon fill="none" stroke="black" points="187,-266.5 187,-285.5 357,-285.5 357,-266.5 187,-266.5"/>
<text text-anchor="middle" x="272" y="-273.5" font-family="Helvetica,sans-Serif" font-size="10.00">INMOST::Mesh::ElementByLocalID</text>
</a>
</g>
</g>
<!-- Node1&#45;&gt;Node2 -->
<g id="edge1" class="edge"><title>Node1&#45;&gt;Node2</title>
<path fill="none" stroke="midnightblue" d="M88.7965,-161.172C107.091,-186.723 143.978,-232.838 187,-257 193.909,-260.88 201.558,-263.968 209.344,-266.426"/>
<polygon fill="midnightblue" stroke="midnightblue" points="91.5192,-158.958 82.9207,-152.768 85.7823,-162.969 91.5192,-158.958"/>
</g>
<!-- Node3 -->
<g id="node3" class="node"><title>Node3</title>
<g id="a_node3"><a xlink:href="class_i_n_m_o_s_t_1_1_mesh.html#a4f26f7a8fbf7bf0a104b79f2433334a2" target="_top" xlink:title="INMOST::Mesh::FirstHandle">
<polygon fill="none" stroke="black" points="202.5,-228.5 202.5,-247.5 341.5,-247.5 341.5,-228.5 202.5,-228.5"/>
<text text-anchor="middle" x="272" y="-235.5" font-family="Helvetica,sans-Serif" font-size="10.00">INMOST::Mesh::FirstHandle</text>
</a>
</g>
</g>
<!-- Node1&#45;&gt;Node3 -->
<g id="edge2" class="edge"><title>Node1&#45;&gt;Node3</title>
<path fill="none" stroke="midnightblue" d="M95.0301,-159.071C115.972,-176.402 151.754,-203.578 187,-219 195.767,-222.836 205.4,-225.941 214.919,-228.442"/>
<polygon fill="midnightblue" stroke="midnightblue" points="97.1621,-156.29 87.2593,-152.524 92.652,-161.644 97.1621,-156.29"/>
</g>
<!-- Node4 -->
<g id="node4" class="node"><title>Node4</title>
<g id="a_node4"><a xlink:href="class_i_n_m_o_s_t_1_1_mesh.html#a863be497f888170153331f74fae93e06" target="_top" xlink:title="INMOST::Mesh::LastHandle">
<polygon fill="none" stroke="black" points="203,-190.5 203,-209.5 341,-209.5 341,-190.5 203,-190.5"/>
<text text-anchor="middle" x="272" y="-197.5" font-family="Helvetica,sans-Serif" font-size="10.00">INMOST::Mesh::LastHandle</text>
</a>
</g>
</g>
<!-- Node1&#45;&gt;Node4 -->
<g id="edge3" class="edge"><title>Node1&#45;&gt;Node4</title>
<path fill="none" stroke="midnightblue" d="M111.123,-155.992C132.749,-163.835 161.278,-173.692 187,-181 199.081,-184.433 212.278,-187.658 224.558,-190.443"/>
<polygon fill="midnightblue" stroke="midnightblue" points="112.301,-152.696 101.707,-152.546 109.895,-159.27 112.301,-152.696"/>
</g>
<!-- Node5 -->
<g id="node5" class="node"><title>Node5</title>
<g id="a_node5"><a xlink:href="class_i_n_m_o_s_t_1_1_mesh.html#a83562665b8922806e475fa75f79a9b69" target="_top" xlink:title="INMOST::Mesh::NodeByLocalID">
<polygon fill="none" stroke="black" points="194,-152.5 194,-171.5 350,-171.5 350,-152.5 194,-152.5"/>
<text text-anchor="middle" x="272" y="-159.5" font-family="Helvetica,sans-Serif" font-size="10.00">INMOST::Mesh::NodeByLocalID</text>
</a>
</g>
</g>
<!-- Node1&#45;&gt;Node5 -->
<g id="edge4" class="edge"><title>Node1&#45;&gt;Node5</title>
<path fill="none" stroke="midnightblue" d="M161.103,-151.265C172.034,-152.332 183.181,-153.421 193.98,-154.476"/>
<polygon fill="midnightblue" stroke="midnightblue" points="161.435,-147.78 151.143,-150.292 160.755,-154.747 161.435,-147.78"/>
</g>
<!-- Node6 -->
<g id="node6" class="node"><title>Node6</title>
<g id="a_node6"><a xlink:href="class_i_n_m_o_s_t_1_1_mesh.html#a318f86a5b9807fa73d7e1ffe493fb1d0" target="_top" xlink:title="INMOST::Mesh::EdgeByLocalID">
<polygon fill="none" stroke="black" points="194,-114.5 194,-133.5 350,-133.5 350,-114.5 194,-114.5"/>
<text text-anchor="middle" x="272" y="-121.5" font-family="Helvetica,sans-Serif" font-size="10.00">INMOST::Mesh::EdgeByLocalID</text>
</a>
</g>
</g>
<!-- Node1&#45;&gt;Node6 -->
<g id="edge5" class="edge"><title>Node1&#45;&gt;Node6</title>
<path fill="none" stroke="midnightblue" d="M161.103,-134.735C172.034,-133.668 183.181,-132.579 193.98,-131.524"/>
<polygon fill="midnightblue" stroke="midnightblue" points="160.755,-131.253 151.143,-135.708 161.435,-138.22 160.755,-131.253"/>
</g>
<!-- Node7 -->
<g id="node7" class="node"><title>Node7</title>
<g id="a_node7"><a xlink:href="class_i_n_m_o_s_t_1_1_mesh.html#aec7e83bc5a26c47443dd5ae701747ccf" target="_top" xlink:title="INMOST::Mesh::FaceByLocalID">
<polygon fill="none" stroke="black" points="194.5,-76.5 194.5,-95.5 349.5,-95.5 349.5,-76.5 194.5,-76.5"/>
<text text-anchor="middle" x="272" y="-83.5" font-family="Helvetica,sans-Serif" font-size="10.00">INMOST::Mesh::FaceByLocalID</text>
</a>
</g>
</g>
<!-- Node1&#45;&gt;Node7 -->
<g id="edge6" class="edge"><title>Node1&#45;&gt;Node7</title>
<path fill="none" stroke="midnightblue" d="M111.123,-130.008C132.749,-122.165 161.278,-112.308 187,-105 199.081,-101.567 212.278,-98.3417 224.558,-95.5568"/>
<polygon fill="midnightblue" stroke="midnightblue" points="109.895,-126.73 101.707,-133.454 112.301,-133.304 109.895,-126.73"/>
</g>
<!-- Node8 -->
<g id="node8" class="node"><title>Node8</title>
<g id="a_node8"><a xlink:href="class_i_n_m_o_s_t_1_1_mesh.html#a0d502f77d8d56014a67e1715f8628c0f" target="_top" xlink:title="INMOST::Mesh::CellByLocalID">
<polygon fill="none" stroke="black" points="197,-38.5 197,-57.5 347,-57.5 347,-38.5 197,-38.5"/>
<text text-anchor="middle" x="272" y="-45.5" font-family="Helvetica,sans-Serif" font-size="10.00">INMOST::Mesh::CellByLocalID</text>
</a>
</g>
</g>
<!-- Node1&#45;&gt;Node8 -->
<g id="edge7" class="edge"><title>Node1&#45;&gt;Node8</title>
<path fill="none" stroke="midnightblue" d="M95.0301,-126.929C115.972,-109.598 151.754,-82.4223 187,-67 195.767,-63.1641 205.4,-60.0586 214.919,-57.5581"/>
<polygon fill="midnightblue" stroke="midnightblue" points="92.652,-124.356 87.2593,-133.476 97.1621,-129.71 92.652,-124.356"/>
</g>
<!-- Node9 -->
<g id="node9" class="node"><title>Node9</title>
<g id="a_node9"><a xlink:href="class_i_n_m_o_s_t_1_1_mesh.html#af2af21e0963cd29ae7f809e6e2939719" target="_top" xlink:title="INMOST::Mesh::EsetByLocalID">
<polygon fill="none" stroke="black" points="195,-0.5 195,-19.5 349,-19.5 349,-0.5 195,-0.5"/>
<text text-anchor="middle" x="272" y="-7.5" font-family="Helvetica,sans-Serif" font-size="10.00">INMOST::Mesh::EsetByLocalID</text>
</a>
</g>
</g>
<!-- Node1&#45;&gt;Node9 -->
<g id="edge8" class="edge"><title>Node1&#45;&gt;Node9</title>
<path fill="none" stroke="midnightblue" d="M88.7965,-124.828C107.091,-99.277 143.978,-53.1619 187,-29 193.909,-25.1196 201.558,-22.0316 209.344,-19.5741"/>
<polygon fill="midnightblue" stroke="midnightblue" points="85.7823,-123.031 82.9207,-133.232 91.5192,-127.042 85.7823,-123.031"/>
</g>
</g>
</svg>
