<?xml version="1.0" encoding="UTF-8" standalone="no"?>
<!DOCTYPE svg PUBLIC "-//W3C//DTD SVG 1.1//EN"
 "http://www.w3.org/Graphics/SVG/1.1/DTD/svg11.dtd">
<!-- Generated by graphviz version 2.38.0 (20140413.2041)
 -->
<!-- Title: INMOST::ComposeCellHandle Pages: 1 -->
<svg width="307pt" height="66pt"
 viewBox="0.00 0.00 307.00 66.00" xmlns="http://www.w3.org/2000/svg" xmlns:xlink="http://www.w3.org/1999/xlink">
<g id="graph0" class="graph" transform="scale(1 1) rotate(0) translate(4 62)">
<title>INMOST::ComposeCellHandle</title>
<!-- Node1 -->
<g id="node1" class="node"><title>Node1</title>
<polygon fill="#bfbfbf" stroke="black" points="0,-19.5 0,-38.5 147,-38.5 147,-19.5 0,-19.5"/>
<text text-anchor="middle" x="73.5" y="-26.5" font-family="Helvetica,sans-Serif" font-size="10.00">INMOST::ComposeCellHandle</text>
</g>
<!-- Node2 -->
<g id="node2" class="node"><title>Node2</title>
<g id="a_node2"><a xlink:href="namespace_i_n_m_o_s_t.html#a115b3e54c3b7be04ffec9b69c058df18" target="_top" xlink:title="INMOST::InvalidHandle">
<polygon fill="none" stroke="black" points="183,-38.5 183,-57.5 299,-57.5 299,-38.5 183,-38.5"/>
<text text-anchor="middle" x="241" y="-45.5" font-family="Helvetica,sans-Serif" font-size="10.00">INMOST::InvalidHandle</text>
</a>
</g>
</g>
<!-- Node1&#45;&gt;Node2 -->
<g id="edge1" class="edge"><title>Node1&#45;&gt;Node2</title>
<path fill="none" stroke="midnightblue" d="M147.091,-37.3337C155.612,-38.3119 164.278,-39.3069 172.722,-40.2763"/>
<polygon fill="midnightblue" stroke="midnightblue" points="172.553,-43.7797 182.887,-41.4432 173.351,-36.8254 172.553,-43.7797"/>
</g>
<!-- Node3 -->
<g id="node3" class="node"><title>Node3</title>
<g id="a_node3"><a xlink:href="namespace_i_n_m_o_s_t.html#abfa34d6393c75e4cb6bbfbc1ded4f99a" target="_top" xlink:title="INMOST::ElementNum">
<polygon fill="none" stroke="black" points="183,-0.5 183,-19.5 299,-19.5 299,-0.5 183,-0.5"/>
<text text-anchor="middle" x="241" y="-7.5" font-family="Helvetica,sans-Serif" font-size="10.00">INMOST::ElementNum</text>
</a>
</g>
</g>
<!-- Node1&#45;&gt;Node3 -->
<g id="edge2" class="edge"><title>Node1&#45;&gt;Node3</title>
<path fill="none" stroke="midnightblue" d="M147.091,-20.6663C155.612,-19.6881 164.278,-18.6931 172.722,-17.7237"/>
<polygon fill="midnightblue" stroke="midnightblue" points="173.351,-21.1746 182.887,-16.5568 172.553,-14.2203 173.351,-21.1746"/>
</g>
</g>
</svg>
