<?xml version="1.0" encoding="UTF-8" standalone="no"?>
<!DOCTYPE svg PUBLIC "-//W3C//DTD SVG 1.1//EN"
 "http://www.w3.org/Graphics/SVG/1.1/DTD/svg11.dtd">
<!-- Generated by graphviz version 2.38.0 (20140413.2041)
 -->
<!-- Title: INMOST::OneType Pages: 1 -->
<svg width="282pt" height="122pt"
 viewBox="0.00 0.00 282.00 122.00" xmlns="http://www.w3.org/2000/svg" xmlns:xlink="http://www.w3.org/1999/xlink">
<g id="graph0" class="graph" transform="scale(1 1) rotate(0) translate(4 118)">
<title>INMOST::OneType</title>
<!-- Node1 -->
<g id="node1" class="node"><title>Node1</title>
<polygon fill="#bfbfbf" stroke="black" points="0,-56.5 0,-75.5 98,-75.5 98,-56.5 0,-56.5"/>
<text text-anchor="middle" x="49" y="-63.5" font-family="Helvetica,sans-Serif" font-size="10.00">INMOST::OneType</text>
</g>
<!-- Node2 -->
<g id="node2" class="node"><title>Node2</title>
<g id="a_node2"><a xlink:href="class_i_n_m_o_s_t_1_1_tag.html#aef6923542b80e0e8ec121f8f95eeb5b7" target="_top" xlink:title="INMOST::Tag::isDefined">
<polygon fill="none" stroke="black" points="143.5,-94.5 143.5,-113.5 264.5,-113.5 264.5,-94.5 143.5,-94.5"/>
<text text-anchor="middle" x="204" y="-101.5" font-family="Helvetica,sans-Serif" font-size="10.00">INMOST::Tag::isDefined</text>
</a>
</g>
</g>
<!-- Node1&#45;&gt;Node2 -->
<g id="edge1" class="edge"><title>Node1&#45;&gt;Node2</title>
<path fill="none" stroke="midnightblue" d="M98.4768,-78.04C119.852,-83.3488 144.613,-89.4988 164.669,-94.4799"/>
<polygon fill="midnightblue" stroke="midnightblue" points="99.1572,-74.6027 88.6084,-75.589 97.4698,-81.3963 99.1572,-74.6027"/>
</g>
<!-- Node3 -->
<g id="node3" class="node"><title>Node3</title>
<g id="a_node3"><a xlink:href="class_i_n_m_o_s_t_1_1_tag.html#a0151597a4ccd7f9ad8ffe3b4774c2040" target="_top" xlink:title="INMOST::Tag::isSparse">
<polygon fill="none" stroke="black" points="144.5,-56.5 144.5,-75.5 263.5,-75.5 263.5,-56.5 144.5,-56.5"/>
<text text-anchor="middle" x="204" y="-63.5" font-family="Helvetica,sans-Serif" font-size="10.00">INMOST::Tag::isSparse</text>
</a>
</g>
</g>
<!-- Node1&#45;&gt;Node3 -->
<g id="edge2" class="edge"><title>Node1&#45;&gt;Node3</title>
<path fill="none" stroke="midnightblue" d="M108.562,-66C120.324,-66 132.686,-66 144.448,-66"/>
<polygon fill="midnightblue" stroke="midnightblue" points="108.41,-62.5001 98.4102,-66 108.41,-69.5001 108.41,-62.5001"/>
</g>
<!-- Node4 -->
<g id="node4" class="node"><title>Node4</title>
<g id="a_node4"><a xlink:href="class_i_n_m_o_s_t_1_1_mesh.html#a34c34383e2eefea680d1217af76a381f" target="_top" xlink:title="INMOST::Mesh::LastLocalID">
<polygon fill="none" stroke="black" points="134,-0.5 134,-19.5 274,-19.5 274,-0.5 134,-0.5"/>
<text text-anchor="middle" x="204" y="-7.5" font-family="Helvetica,sans-Serif" font-size="10.00">INMOST::Mesh::LastLocalID</text>
</a>
</g>
</g>
<!-- Node1&#45;&gt;Node4 -->
<g id="edge3" class="edge"><title>Node1&#45;&gt;Node4</title>
<path fill="none" stroke="midnightblue" d="M85.7279,-52.9231C113.697,-42.686 151.939,-28.6889 177.042,-19.5011"/>
<polygon fill="midnightblue" stroke="midnightblue" points="84.4894,-49.6493 76.3016,-56.3733 86.8954,-56.2228 84.4894,-49.6493"/>
</g>
<!-- Node4&#45;&gt;Node4 -->
<g id="edge4" class="edge"><title>Node4&#45;&gt;Node4</title>
<path fill="none" stroke="midnightblue" d="M175.254,-28.6539C176.456,-33.9368 186.038,-38 204,-38 231.371,-38 239.283,-28.5653 227.736,-19.7571"/>
<polygon fill="midnightblue" stroke="midnightblue" points="178.407,-30.1879 180.264,-19.7571 172.308,-26.7532 178.407,-30.1879"/>
</g>
</g>
</svg>
