<?xml version="1.0" encoding="UTF-8" standalone="no"?>
<!DOCTYPE svg PUBLIC "-//W3C//DTD SVG 1.1//EN"
 "http://www.w3.org/Graphics/SVG/1.1/DTD/svg11.dtd">
<!-- Generated by graphviz version 2.38.0 (20140413.2041)
 -->
<!-- Title: INMOST::GetHandleID Pages: 1 -->
<svg width="503pt" height="160pt"
 viewBox="0.00 0.00 503.00 160.00" xmlns="http://www.w3.org/2000/svg" xmlns:xlink="http://www.w3.org/1999/xlink">
<g id="graph0" class="graph" transform="scale(1 1) rotate(0) translate(4 156)">
<title>INMOST::GetHandleID</title>
<!-- Node1 -->
<g id="node1" class="node"><title>Node1</title>
<polygon fill="#bfbfbf" stroke="black" points="0,-57.5 0,-76.5 114,-76.5 114,-57.5 0,-57.5"/>
<text text-anchor="middle" x="57" y="-64.5" font-family="Helvetica,sans-Serif" font-size="10.00">INMOST::GetHandleID</text>
</g>
<!-- Node2 -->
<g id="node2" class="node"><title>Node2</title>
<g id="a_node2"><a xlink:href="class_i_n_m_o_s_t_1_1_mesh.html#a99d2f7410acff5bc75b0184890d7decd" target="_top" xlink:title="For debug purposes. ">
<polygon fill="none" stroke="black" points="150,-132.5 150,-151.5 307,-151.5 307,-132.5 150,-132.5"/>
<text text-anchor="middle" x="228.5" y="-139.5" font-family="Helvetica,sans-Serif" font-size="10.00">INMOST::Mesh::HandleDataPos</text>
</a>
</g>
</g>
<!-- Node1&#45;&gt;Node2 -->
<g id="edge1" class="edge"><title>Node1&#45;&gt;Node2</title>
<path fill="none" stroke="midnightblue" d="M79.2877,-82.5653C97.3166,-95.0919 124.266,-112.313 150,-123 159.084,-126.772 169.09,-129.914 178.809,-132.484"/>
<polygon fill="midnightblue" stroke="midnightblue" points="80.91,-79.4254 70.7264,-76.5021 76.8643,-85.1379 80.91,-79.4254"/>
</g>
<!-- Node3 -->
<g id="node3" class="node"><title>Node3</title>
<g id="a_node3"><a xlink:href="class_i_n_m_o_s_t_1_1_mesh.html#aefe80cb31b7763f7124d013050c21e3e" target="_top" xlink:title="INMOST::Mesh::isValidElement">
<polygon fill="none" stroke="black" points="151,-76.5 151,-95.5 306,-95.5 306,-76.5 151,-76.5"/>
<text text-anchor="middle" x="228.5" y="-83.5" font-family="Helvetica,sans-Serif" font-size="10.00">INMOST::Mesh::isValidElement</text>
</a>
</g>
</g>
<!-- Node1&#45;&gt;Node3 -->
<g id="edge2" class="edge"><title>Node1&#45;&gt;Node3</title>
<path fill="none" stroke="midnightblue" d="M124.442,-74.4477C133.084,-75.4165 141.994,-76.4153 150.787,-77.4009"/>
<polygon fill="midnightblue" stroke="midnightblue" points="124.769,-70.9626 114.441,-73.3267 123.989,-77.919 124.769,-70.9626"/>
</g>
<!-- Node4 -->
<g id="node4" class="node"><title>Node4</title>
<g id="a_node4"><a xlink:href="class_i_n_m_o_s_t_1_1_mesh.html#a2078f4c2589dc14fe6291416ac21050f" target="_top" xlink:title="INMOST::Mesh::DataLocalID">
<polygon fill="none" stroke="black" points="157.5,-38.5 157.5,-57.5 299.5,-57.5 299.5,-38.5 157.5,-38.5"/>
<text text-anchor="middle" x="228.5" y="-45.5" font-family="Helvetica,sans-Serif" font-size="10.00">INMOST::Mesh::DataLocalID</text>
</a>
</g>
</g>
<!-- Node1&#45;&gt;Node4 -->
<g id="edge4" class="edge"><title>Node1&#45;&gt;Node4</title>
<path fill="none" stroke="midnightblue" d="M124.621,-59.5322C135.395,-58.3245 146.579,-57.0708 157.432,-55.8542"/>
<polygon fill="midnightblue" stroke="midnightblue" points="123.989,-56.081 114.441,-60.6733 124.769,-63.0374 123.989,-56.081"/>
</g>
<!-- Node6 -->
<g id="node6" class="node"><title>Node6</title>
<g id="a_node6"><a xlink:href="class_i_n_m_o_s_t_1_1_storage.html#a5ab98a55b99c3e9bcfcd4f8623e2f3fd" target="_top" xlink:title="INMOST::Storage::LocalID">
<polygon fill="none" stroke="black" points="163,-0.5 163,-19.5 294,-19.5 294,-0.5 163,-0.5"/>
<text text-anchor="middle" x="228.5" y="-7.5" font-family="Helvetica,sans-Serif" font-size="10.00">INMOST::Storage::LocalID</text>
</a>
</g>
</g>
<!-- Node1&#45;&gt;Node6 -->
<g id="edge6" class="edge"><title>Node1&#45;&gt;Node6</title>
<path fill="none" stroke="midnightblue" d="M87.7782,-53.3556C105.583,-45.5379 128.796,-35.9341 150,-29 160.797,-25.4691 172.629,-22.2508 183.724,-19.5071"/>
<polygon fill="midnightblue" stroke="midnightblue" points="86.205,-50.2247 78.4904,-57.4867 89.0498,-56.6206 86.205,-50.2247"/>
</g>
<!-- Node3&#45;&gt;Node3 -->
<g id="edge3" class="edge"><title>Node3&#45;&gt;Node3</title>
<path fill="none" stroke="midnightblue" d="M196.689,-104.275C197.596,-109.741 208.199,-114 228.5,-114 258.715,-114 267.449,-104.565 254.702,-95.7571"/>
<polygon fill="midnightblue" stroke="midnightblue" points="199.721,-106.034 202.298,-95.7571 193.875,-102.184 199.721,-106.034"/>
</g>
<!-- Node5 -->
<g id="node5" class="node"><title>Node5</title>
<g id="a_node5"><a xlink:href="class_i_n_m_o_s_t_1_1_storage.html#a4112611429fe0c871f97392b22b8a86b" target="_top" xlink:title="INMOST::Storage::DataLocalID">
<polygon fill="none" stroke="black" points="343,-38.5 343,-57.5 495,-57.5 495,-38.5 343,-38.5"/>
<text text-anchor="middle" x="419" y="-45.5" font-family="Helvetica,sans-Serif" font-size="10.00">INMOST::Storage::DataLocalID</text>
</a>
</g>
</g>
<!-- Node4&#45;&gt;Node5 -->
<g id="edge5" class="edge"><title>Node4&#45;&gt;Node5</title>
<path fill="none" stroke="midnightblue" d="M309.996,-48C320.845,-48 331.942,-48 342.696,-48"/>
<polygon fill="midnightblue" stroke="midnightblue" points="309.69,-44.5001 299.69,-48 309.69,-51.5001 309.69,-44.5001"/>
</g>
</g>
</svg>
