<?xml version="1.0" encoding="UTF-8" standalone="no"?>
<!DOCTYPE svg PUBLIC "-//W3C//DTD SVG 1.1//EN"
 "http://www.w3.org/Graphics/SVG/1.1/DTD/svg11.dtd">
<!-- Generated by graphviz version 2.38.0 (20140413.2041)
 -->
<!-- Title: INMOST::ComposeHandle Pages: 1 -->
<svg width="285pt" height="88pt"
 viewBox="0.00 0.00 285.00 88.00" xmlns="http://www.w3.org/2000/svg" xmlns:xlink="http://www.w3.org/1999/xlink">
<g id="graph0" class="graph" transform="scale(1 1) rotate(0) translate(4 84)">
<title>INMOST::ComposeHandle</title>
<!-- Node1 -->
<g id="node1" class="node"><title>Node1</title>
<polygon fill="#bfbfbf" stroke="black" points="0,-30 0,-49 131,-49 131,-30 0,-30"/>
<text text-anchor="middle" x="65.5" y="-37" font-family="Helvetica,sans-Serif" font-size="10.00">INMOST::ComposeHandle</text>
</g>
<!-- Node2 -->
<g id="node2" class="node"><title>Node2</title>
<g id="a_node2"><a xlink:href="class_i_n_m_o_s_t_1_1_mesh_1_1base__iterator.html#a8b0cef4064c2eef72fcabf2c01fd7fd4" target="_top" xlink:title="INMOST::Mesh::base\l_iterator::operator*">
<polygon fill="none" stroke="black" points="167,-49.5 167,-79.5 277,-79.5 277,-49.5 167,-49.5"/>
<text text-anchor="start" x="175" y="-67.5" font-family="Helvetica,sans-Serif" font-size="10.00">INMOST::Mesh::base</text>
<text text-anchor="middle" x="222" y="-56.5" font-family="Helvetica,sans-Serif" font-size="10.00">_iterator::operator*</text>
</a>
</g>
</g>
<!-- Node1&#45;&gt;Node2 -->
<g id="edge1" class="edge"><title>Node1&#45;&gt;Node2</title>
<path fill="none" stroke="midnightblue" d="M135.381,-50.6458C145.937,-52.3539 156.705,-54.0962 166.882,-55.743"/>
<polygon fill="midnightblue" stroke="midnightblue" points="135.781,-47.1651 125.351,-49.0227 134.663,-54.0752 135.781,-47.1651"/>
</g>
<!-- Node3 -->
<g id="node3" class="node"><title>Node3</title>
<g id="a_node3"><a xlink:href="class_i_n_m_o_s_t_1_1_mesh_1_1base__iterator.html#a1b5d24fd44090fbe7d644d27551f2c31" target="_top" xlink:title="INMOST::Mesh::base\l_iterator::operator&#45;\&gt;">
<polygon fill="none" stroke="black" points="167,-0.5 167,-30.5 277,-30.5 277,-0.5 167,-0.5"/>
<text text-anchor="start" x="175" y="-18.5" font-family="Helvetica,sans-Serif" font-size="10.00">INMOST::Mesh::base</text>
<text text-anchor="middle" x="222" y="-7.5" font-family="Helvetica,sans-Serif" font-size="10.00">_iterator::operator&#45;&gt;</text>
</a>
</g>
</g>
<!-- Node1&#45;&gt;Node3 -->
<g id="edge2" class="edge"><title>Node1&#45;&gt;Node3</title>
<path fill="none" stroke="midnightblue" d="M137.994,-28.3942C147.644,-26.8951 157.415,-25.3773 166.699,-23.9351"/>
<polygon fill="midnightblue" stroke="midnightblue" points="137.351,-24.952 128.006,-29.9456 138.425,-31.8691 137.351,-24.952"/>
</g>
</g>
</svg>
