<?xml version="1.0" encoding="UTF-8" standalone="no"?>
<!DOCTYPE svg PUBLIC "-//W3C//DTD SVG 1.1//EN"
 "http://www.w3.org/Graphics/SVG/1.1/DTD/svg11.dtd">
<!-- Generated by graphviz version 2.38.0 (20140413.2041)
 -->
<!-- Title: INMOST::ElementNum Pages: 1 -->
<svg width="482pt" height="816pt"
 viewBox="0.00 0.00 482.00 815.50" xmlns="http://www.w3.org/2000/svg" xmlns:xlink="http://www.w3.org/1999/xlink">
<g id="graph0" class="graph" transform="scale(1 1) rotate(0) translate(4 811.5)">
<title>INMOST::ElementNum</title>
<!-- Node1 -->
<g id="node1" class="node"><title>Node1</title>
<polygon fill="#bfbfbf" stroke="black" points="0,-397.5 0,-416.5 116,-416.5 116,-397.5 0,-397.5"/>
<text text-anchor="middle" x="58" y="-404.5" font-family="Helvetica,sans-Serif" font-size="10.00">INMOST::ElementNum</text>
</g>
<!-- Node2 -->
<g id="node2" class="node"><title>Node2</title>
<g id="a_node2"><a xlink:href="namespace_i_n_m_o_s_t.html#a0a1e057f5c33c6194342ac1f5535e66b" target="_top" xlink:title="INMOST::ComposeHandle">
<polygon fill="none" stroke="black" points="174.5,-758.5 174.5,-777.5 305.5,-777.5 305.5,-758.5 174.5,-758.5"/>
<text text-anchor="middle" x="240" y="-765.5" font-family="Helvetica,sans-Serif" font-size="10.00">INMOST::ComposeHandle</text>
</a>
</g>
</g>
<!-- Node1&#45;&gt;Node2 -->
<g id="edge1" class="edge"><title>Node1&#45;&gt;Node2</title>
<path fill="none" stroke="midnightblue" d="M61.6922,-426.921C71.022,-493.008 104.043,-703.405 152,-749 158.275,-754.965 165.967,-759.23 174.157,-762.253"/>
<polygon fill="midnightblue" stroke="midnightblue" points="65.1079,-426.07 60.2698,-416.644 58.1741,-427.03 65.1079,-426.07"/>
</g>
<!-- Node5 -->
<g id="node5" class="node"><title>Node5</title>
<g id="a_node5"><a xlink:href="namespace_i_n_m_o_s_t.html#a363b19b1172290392eaf268cbf964e20" target="_top" xlink:title="INMOST::ComposeCellHandle">
<polygon fill="none" stroke="black" points="166.5,-720.5 166.5,-739.5 313.5,-739.5 313.5,-720.5 166.5,-720.5"/>
<text text-anchor="middle" x="240" y="-727.5" font-family="Helvetica,sans-Serif" font-size="10.00">INMOST::ComposeCellHandle</text>
</a>
</g>
</g>
<!-- Node1&#45;&gt;Node5 -->
<g id="edge4" class="edge"><title>Node1&#45;&gt;Node5</title>
<path fill="none" stroke="midnightblue" d="M58.6771,-426.701C58.9286,-480.863 67.4928,-633.142 152,-711 156.207,-714.876 161.015,-718.028 166.163,-720.585"/>
<polygon fill="midnightblue" stroke="midnightblue" points="62.177,-426.712 58.7253,-416.695 55.1771,-426.678 62.177,-426.712"/>
</g>
<!-- Node6 -->
<g id="node6" class="node"><title>Node6</title>
<g id="a_node6"><a xlink:href="namespace_i_n_m_o_s_t.html#a8e9471554dd1216f5d402a9cee363a1d" target="_top" xlink:title="INMOST::ComposeFaceHandle">
<polygon fill="none" stroke="black" points="164,-682.5 164,-701.5 316,-701.5 316,-682.5 164,-682.5"/>
<text text-anchor="middle" x="240" y="-689.5" font-family="Helvetica,sans-Serif" font-size="10.00">INMOST::ComposeFaceHandle</text>
</a>
</g>
</g>
<!-- Node1&#45;&gt;Node6 -->
<g id="edge5" class="edge"><title>Node1&#45;&gt;Node6</title>
<path fill="none" stroke="midnightblue" d="M59.6613,-426.528C62.4432,-475.9 76.9051,-606.505 152,-673 156.283,-676.792 161.145,-679.885 166.329,-682.402"/>
<polygon fill="midnightblue" stroke="midnightblue" points="63.1577,-426.366 59.2007,-416.537 56.1651,-426.688 63.1577,-426.366"/>
</g>
<!-- Node7 -->
<g id="node7" class="node"><title>Node7</title>
<g id="a_node7"><a xlink:href="namespace_i_n_m_o_s_t.html#a14ac6d11fedfa106eddc0a0259e36157" target="_top" xlink:title="INMOST::ComposeEdgeHandle">
<polygon fill="none" stroke="black" points="163.5,-644.5 163.5,-663.5 316.5,-663.5 316.5,-644.5 163.5,-644.5"/>
<text text-anchor="middle" x="240" y="-651.5" font-family="Helvetica,sans-Serif" font-size="10.00">INMOST::ComposeEdgeHandle</text>
</a>
</g>
</g>
<!-- Node1&#45;&gt;Node7 -->
<g id="edge6" class="edge"><title>Node1&#45;&gt;Node7</title>
<path fill="none" stroke="midnightblue" d="M60.9649,-426.695C66.5018,-471.176 86.3882,-579.819 152,-635 156.496,-638.781 161.574,-641.859 166.963,-644.358"/>
<polygon fill="midnightblue" stroke="midnightblue" points="64.4266,-426.158 59.8245,-416.615 57.471,-426.945 64.4266,-426.158"/>
</g>
<!-- Node8 -->
<g id="node8" class="node"><title>Node8</title>
<g id="a_node8"><a xlink:href="namespace_i_n_m_o_s_t.html#ab122aaedaadc72ef10cac8868e55bd27" target="_top" xlink:title="INMOST::ComposeNodeHandle">
<polygon fill="none" stroke="black" points="163.5,-606.5 163.5,-625.5 316.5,-625.5 316.5,-606.5 163.5,-606.5"/>
<text text-anchor="middle" x="240" y="-613.5" font-family="Helvetica,sans-Serif" font-size="10.00">INMOST::ComposeNodeHandle</text>
</a>
</g>
</g>
<!-- Node1&#45;&gt;Node8 -->
<g id="edge7" class="edge"><title>Node1&#45;&gt;Node8</title>
<path fill="none" stroke="midnightblue" d="M62.7029,-426.578C71.1418,-465.52 95.6034,-552.748 152,-597 156.865,-600.817 162.334,-603.906 168.099,-606.4"/>
<polygon fill="midnightblue" stroke="midnightblue" points="66.1255,-425.844 60.6955,-416.747 59.267,-427.245 66.1255,-425.844"/>
</g>
<!-- Node9 -->
<g id="node9" class="node"><title>Node9</title>
<g id="a_node9"><a xlink:href="namespace_i_n_m_o_s_t.html#a3f3e030bc504c1992f6061e65fe8659d" target="_top" xlink:title="INMOST::ComposeSetHandle">
<polygon fill="none" stroke="black" points="167,-568.5 167,-587.5 313,-587.5 313,-568.5 167,-568.5"/>
<text text-anchor="middle" x="240" y="-575.5" font-family="Helvetica,sans-Serif" font-size="10.00">INMOST::ComposeSetHandle</text>
</a>
</g>
</g>
<!-- Node1&#45;&gt;Node9 -->
<g id="edge8" class="edge"><title>Node1&#45;&gt;Node9</title>
<path fill="none" stroke="midnightblue" d="M65.2098,-426.458C76.7355,-459.273 104.666,-525.325 152,-559 157.417,-562.854 163.469,-565.949 169.789,-568.432"/>
<polygon fill="midnightblue" stroke="midnightblue" points="68.4323,-425.06 61.9257,-416.699 61.7978,-427.293 68.4323,-425.06"/>
</g>
<!-- Node10 -->
<g id="node10" class="node"><title>Node10</title>
<g id="a_node10"><a xlink:href="class_i_n_m_o_s_t_1_1_tag.html#a0151597a4ccd7f9ad8ffe3b4774c2040" target="_top" xlink:title="INMOST::Tag::isSparse">
<polygon fill="none" stroke="black" points="180.5,-530.5 180.5,-549.5 299.5,-549.5 299.5,-530.5 180.5,-530.5"/>
<text text-anchor="middle" x="240" y="-537.5" font-family="Helvetica,sans-Serif" font-size="10.00">INMOST::Tag::isSparse</text>
</a>
</g>
</g>
<!-- Node1&#45;&gt;Node10 -->
<g id="edge9" class="edge"><title>Node1&#45;&gt;Node10</title>
<path fill="none" stroke="midnightblue" d="M68.7934,-425.574C83.3527,-451.268 113.208,-497.176 152,-521 160.563,-526.259 170.387,-530.072 180.278,-532.835"/>
<polygon fill="midnightblue" stroke="midnightblue" points="71.8582,-423.884 63.9756,-416.804 65.7231,-427.254 71.8582,-423.884"/>
</g>
<!-- Node11 -->
<g id="node11" class="node"><title>Node11</title>
<g id="a_node11"><a xlink:href="class_i_n_m_o_s_t_1_1_mesh.html#aed6fa04f985b48852a2fd6305364983e" target="_top" xlink:title="INMOST::Mesh::isValidElement">
<polygon fill="none" stroke="black" points="162.5,-492.5 162.5,-511.5 317.5,-511.5 317.5,-492.5 162.5,-492.5"/>
<text text-anchor="middle" x="240" y="-499.5" font-family="Helvetica,sans-Serif" font-size="10.00">INMOST::Mesh::isValidElement</text>
</a>
</g>
</g>
<!-- Node1&#45;&gt;Node11 -->
<g id="edge10" class="edge"><title>Node1&#45;&gt;Node11</title>
<path fill="none" stroke="midnightblue" d="M74.7768,-423.938C92.0505,-441.436 121.391,-468.211 152,-483 160.074,-486.901 168.955,-490.01 177.863,-492.485"/>
<polygon fill="midnightblue" stroke="midnightblue" points="77.1889,-421.398 67.7281,-416.628 72.1499,-426.256 77.1889,-421.398"/>
</g>
<!-- Node12 -->
<g id="node12" class="node"><title>Node12</title>
<g id="a_node12"><a xlink:href="class_i_n_m_o_s_t_1_1_mesh.html#aef3f8578b266f8b13db2416e2f3f26f3" target="_top" xlink:title="INMOST::Mesh::isValidCell">
<polygon fill="none" stroke="black" points="172.5,-454.5 172.5,-473.5 307.5,-473.5 307.5,-454.5 172.5,-454.5"/>
<text text-anchor="middle" x="240" y="-461.5" font-family="Helvetica,sans-Serif" font-size="10.00">INMOST::Mesh::isValidCell</text>
</a>
</g>
</g>
<!-- Node1&#45;&gt;Node12 -->
<g id="edge11" class="edge"><title>Node1&#45;&gt;Node12</title>
<path fill="none" stroke="midnightblue" d="M89.0529,-420.828C107.034,-428.709 130.499,-438.315 152,-445 163.515,-448.58 176.09,-451.743 188.009,-454.41"/>
<polygon fill="midnightblue" stroke="midnightblue" points="90.2343,-417.523 79.6749,-416.656 87.3894,-423.919 90.2343,-417.523"/>
</g>
<!-- Node13 -->
<g id="node13" class="node"><title>Node13</title>
<g id="a_node13"><a xlink:href="class_i_n_m_o_s_t_1_1_mesh.html#a4a31c106d1127dd51d2b867b02cc85cc" target="_top" xlink:title="INMOST::Mesh::isValidFace">
<polygon fill="none" stroke="black" points="170,-416.5 170,-435.5 310,-435.5 310,-416.5 170,-416.5"/>
<text text-anchor="middle" x="240" y="-423.5" font-family="Helvetica,sans-Serif" font-size="10.00">INMOST::Mesh::isValidFace</text>
</a>
</g>
</g>
<!-- Node1&#45;&gt;Node13 -->
<g id="edge12" class="edge"><title>Node1&#45;&gt;Node13</title>
<path fill="none" stroke="midnightblue" d="M126.578,-414.133C140.71,-415.625 155.631,-417.2 169.821,-418.698"/>
<polygon fill="midnightblue" stroke="midnightblue" points="126.76,-410.633 116.448,-413.064 126.025,-417.594 126.76,-410.633"/>
</g>
<!-- Node14 -->
<g id="node14" class="node"><title>Node14</title>
<g id="a_node14"><a xlink:href="class_i_n_m_o_s_t_1_1_mesh.html#aa731c6b5de55cde2cbea42ab17e52419" target="_top" xlink:title="INMOST::Mesh::isValidEdge">
<polygon fill="none" stroke="black" points="169.5,-378.5 169.5,-397.5 310.5,-397.5 310.5,-378.5 169.5,-378.5"/>
<text text-anchor="middle" x="240" y="-385.5" font-family="Helvetica,sans-Serif" font-size="10.00">INMOST::Mesh::isValidEdge</text>
</a>
</g>
</g>
<!-- Node1&#45;&gt;Node14 -->
<g id="edge13" class="edge"><title>Node1&#45;&gt;Node14</title>
<path fill="none" stroke="midnightblue" d="M126.515,-399.873C140.56,-398.391 155.385,-396.826 169.5,-395.336"/>
<polygon fill="midnightblue" stroke="midnightblue" points="126.025,-396.406 116.448,-400.936 126.76,-403.367 126.025,-396.406"/>
</g>
<!-- Node15 -->
<g id="node15" class="node"><title>Node15</title>
<g id="a_node15"><a xlink:href="class_i_n_m_o_s_t_1_1_mesh.html#aca88fce5b216e77e10a1de9222c71d97" target="_top" xlink:title="INMOST::Mesh::isValidNode">
<polygon fill="none" stroke="black" points="169.5,-340.5 169.5,-359.5 310.5,-359.5 310.5,-340.5 169.5,-340.5"/>
<text text-anchor="middle" x="240" y="-347.5" font-family="Helvetica,sans-Serif" font-size="10.00">INMOST::Mesh::isValidNode</text>
</a>
</g>
</g>
<!-- Node1&#45;&gt;Node15 -->
<g id="edge14" class="edge"><title>Node1&#45;&gt;Node15</title>
<path fill="none" stroke="midnightblue" d="M89.0529,-393.172C107.034,-385.291 130.499,-375.685 152,-369 163.515,-365.42 176.09,-362.257 188.009,-359.59"/>
<polygon fill="midnightblue" stroke="midnightblue" points="87.3894,-390.081 79.6749,-397.344 90.2343,-396.477 87.3894,-390.081"/>
</g>
<!-- Node16 -->
<g id="node16" class="node"><title>Node16</title>
<g id="a_node16"><a xlink:href="class_i_n_m_o_s_t_1_1_mesh.html#a673ab2bc496d16124c5b3bffc7e04cb8" target="_top" xlink:title="INMOST::Mesh::isValidElementSet">
<polygon fill="none" stroke="black" points="155,-302.5 155,-321.5 325,-321.5 325,-302.5 155,-302.5"/>
<text text-anchor="middle" x="240" y="-309.5" font-family="Helvetica,sans-Serif" font-size="10.00">INMOST::Mesh::isValidElementSet</text>
</a>
</g>
</g>
<!-- Node1&#45;&gt;Node16 -->
<g id="edge15" class="edge"><title>Node1&#45;&gt;Node16</title>
<path fill="none" stroke="midnightblue" d="M74.7768,-390.062C92.0505,-372.564 121.391,-345.789 152,-331 160.074,-327.099 168.955,-323.99 177.863,-321.515"/>
<polygon fill="midnightblue" stroke="midnightblue" points="72.1499,-387.744 67.7281,-397.372 77.1889,-392.602 72.1499,-387.744"/>
</g>
<!-- Node17 -->
<g id="node17" class="node"><title>Node17</title>
<g id="a_node17"><a xlink:href="class_i_n_m_o_s_t_1_1_mesh.html#aa9d09a55b27ac2f0f500400648ca38ee" target="_top" xlink:title="INMOST::Mesh::ElementByLocalID">
<polygon fill="none" stroke="black" points="155,-246.5 155,-265.5 325,-265.5 325,-246.5 155,-246.5"/>
<text text-anchor="middle" x="240" y="-253.5" font-family="Helvetica,sans-Serif" font-size="10.00">INMOST::Mesh::ElementByLocalID</text>
</a>
</g>
</g>
<!-- Node1&#45;&gt;Node17 -->
<g id="edge16" class="edge"><title>Node1&#45;&gt;Node17</title>
<path fill="none" stroke="midnightblue" d="M69.8916,-388.706C85.3848,-364.039 115.944,-320.088 152,-293 168.272,-280.775 189.193,-271.712 206.44,-265.616"/>
<polygon fill="midnightblue" stroke="midnightblue" points="66.7879,-387.072 64.5405,-397.426 72.754,-390.734 66.7879,-387.072"/>
</g>
<!-- Node18 -->
<g id="node18" class="node"><title>Node18</title>
<g id="a_node18"><a xlink:href="class_i_n_m_o_s_t_1_1_mesh.html#a4f26f7a8fbf7bf0a104b79f2433334a2" target="_top" xlink:title="INMOST::Mesh::FirstHandle">
<polygon fill="none" stroke="black" points="170.5,-208.5 170.5,-227.5 309.5,-227.5 309.5,-208.5 170.5,-208.5"/>
<text text-anchor="middle" x="240" y="-215.5" font-family="Helvetica,sans-Serif" font-size="10.00">INMOST::Mesh::FirstHandle</text>
</a>
</g>
</g>
<!-- Node1&#45;&gt;Node18 -->
<g id="edge18" class="edge"><title>Node1&#45;&gt;Node18</title>
<path fill="none" stroke="midnightblue" d="M63.8165,-387.765C73.7991,-352.079 100.258,-275.734 152,-237 157.569,-232.831 163.869,-229.54 170.47,-226.948"/>
<polygon fill="midnightblue" stroke="midnightblue" points="60.4292,-386.884 61.2377,-397.448 67.1934,-388.686 60.4292,-386.884"/>
</g>
<!-- Node19 -->
<g id="node19" class="node"><title>Node19</title>
<g id="a_node19"><a xlink:href="class_i_n_m_o_s_t_1_1_mesh.html#a863be497f888170153331f74fae93e06" target="_top" xlink:title="INMOST::Mesh::LastHandle">
<polygon fill="none" stroke="black" points="171,-170.5 171,-189.5 309,-189.5 309,-170.5 171,-170.5"/>
<text text-anchor="middle" x="240" y="-177.5" font-family="Helvetica,sans-Serif" font-size="10.00">INMOST::Mesh::LastHandle</text>
</a>
</g>
</g>
<!-- Node1&#45;&gt;Node19 -->
<g id="edge19" class="edge"><title>Node1&#45;&gt;Node19</title>
<path fill="none" stroke="midnightblue" d="M61.8153,-387.328C68.863,-345.678 91.2747,-248.376 152,-199 157.638,-194.416 164.138,-190.875 170.994,-188.148"/>
<polygon fill="midnightblue" stroke="midnightblue" points="58.3431,-386.878 60.2466,-397.301 65.258,-387.966 58.3431,-386.878"/>
</g>
<!-- Node20 -->
<g id="node20" class="node"><title>Node20</title>
<g id="a_node20"><a xlink:href="class_i_n_m_o_s_t_1_1_mesh.html#a692fbbc2f3ccaf3b8951c20ec0b14a19" target="_top" xlink:title="INMOST::Mesh::NextLocalID">
<polygon fill="none" stroke="black" points="169,-132.5 169,-151.5 311,-151.5 311,-132.5 169,-132.5"/>
<text text-anchor="middle" x="240" y="-139.5" font-family="Helvetica,sans-Serif" font-size="10.00">INMOST::Mesh::NextLocalID</text>
</a>
</g>
</g>
<!-- Node1&#45;&gt;Node20 -->
<g id="edge20" class="edge"><title>Node1&#45;&gt;Node20</title>
<path fill="none" stroke="midnightblue" d="M60.3003,-387.37C64.5096,-340.506 81.9182,-221.504 152,-161 157.032,-156.656 162.828,-153.235 168.99,-150.55"/>
<polygon fill="midnightblue" stroke="midnightblue" points="56.8051,-387.173 59.5062,-397.418 63.7833,-387.725 56.8051,-387.173"/>
</g>
<!-- Node21 -->
<g id="node21" class="node"><title>Node21</title>
<g id="a_node21"><a xlink:href="class_i_n_m_o_s_t_1_1_mesh.html#a751a12b5299610c2ecbfd935fc3efcfe" target="_top" xlink:title="INMOST::Mesh::PrevLocalID">
<polygon fill="none" stroke="black" points="170,-94.5 170,-113.5 310,-113.5 310,-94.5 170,-94.5"/>
<text text-anchor="middle" x="240" y="-101.5" font-family="Helvetica,sans-Serif" font-size="10.00">INMOST::Mesh::PrevLocalID</text>
</a>
</g>
</g>
<!-- Node1&#45;&gt;Node21 -->
<g id="edge21" class="edge"><title>Node1&#45;&gt;Node21</title>
<path fill="none" stroke="midnightblue" d="M59.1721,-387.225C60.7561,-335.414 72.542,-194.78 152,-123 157.162,-118.336 163.198,-114.725 169.641,-111.941"/>
<polygon fill="midnightblue" stroke="midnightblue" points="55.6695,-387.318 58.9629,-397.388 62.668,-387.462 55.6695,-387.318"/>
</g>
<!-- Node22 -->
<g id="node22" class="node"><title>Node22</title>
<g id="a_node22"><a xlink:href="class_i_n_m_o_s_t_1_1_mesh.html#a34c34383e2eefea680d1217af76a381f" target="_top" xlink:title="INMOST::Mesh::LastLocalID">
<polygon fill="none" stroke="black" points="170,-38.5 170,-57.5 310,-57.5 310,-38.5 170,-38.5"/>
<text text-anchor="middle" x="240" y="-45.5" font-family="Helvetica,sans-Serif" font-size="10.00">INMOST::Mesh::LastLocalID</text>
</a>
</g>
</g>
<!-- Node1&#45;&gt;Node22 -->
<g id="edge22" class="edge"><title>Node1&#45;&gt;Node22</title>
<path fill="none" stroke="midnightblue" d="M59.1054,-387.361C60.4402,-332.532 71.4932,-175.884 152,-85 163.645,-71.8538 180.754,-63.2331 196.726,-57.6516"/>
<polygon fill="midnightblue" stroke="midnightblue" points="55.6045,-387.402 58.9466,-397.456 62.6036,-387.512 55.6045,-387.402"/>
</g>
<!-- Node23 -->
<g id="node23" class="node"><title>Node23</title>
<g id="a_node23"><a xlink:href="class_i_n_m_o_s_t_1_1_mesh.html#a10797f897575540e8f44e4ca9482dbc0" target="_top" xlink:title="INMOST::Mesh::HaveGeometricData">
<polygon fill="none" stroke="black" points="152,-0.5 152,-19.5 328,-19.5 328,-0.5 152,-0.5"/>
<text text-anchor="middle" x="240" y="-7.5" font-family="Helvetica,sans-Serif" font-size="10.00">INMOST::Mesh::HaveGeometricData</text>
</a>
</g>
</g>
<!-- Node1&#45;&gt;Node23 -->
<g id="edge24" class="edge"><title>Node1&#45;&gt;Node23</title>
<path fill="none" stroke="midnightblue" d="M61.1167,-387.304C69.0629,-317.056 99.3787,-80.259 152,-29 155.876,-25.2243 160.318,-22.1259 165.1,-19.5901"/>
<polygon fill="midnightblue" stroke="midnightblue" points="57.6177,-387.103 59.9975,-397.427 64.5753,-387.872 57.6177,-387.103"/>
</g>
<!-- Node3 -->
<g id="node3" class="node"><title>Node3</title>
<g id="a_node3"><a xlink:href="class_i_n_m_o_s_t_1_1_mesh_1_1base__iterator.html#a8b0cef4064c2eef72fcabf2c01fd7fd4" target="_top" xlink:title="INMOST::Mesh::base\l_iterator::operator*">
<polygon fill="none" stroke="black" points="364,-777 364,-807 474,-807 474,-777 364,-777"/>
<text text-anchor="start" x="372" y="-795" font-family="Helvetica,sans-Serif" font-size="10.00">INMOST::Mesh::base</text>
<text text-anchor="middle" x="419" y="-784" font-family="Helvetica,sans-Serif" font-size="10.00">_iterator::operator*</text>
</a>
</g>
</g>
<!-- Node2&#45;&gt;Node3 -->
<g id="edge2" class="edge"><title>Node2&#45;&gt;Node3</title>
<path fill="none" stroke="midnightblue" d="M315.654,-778.123C331.881,-780.323 348.745,-782.609 363.99,-784.677"/>
<polygon fill="midnightblue" stroke="midnightblue" points="316.032,-774.642 305.652,-776.766 315.091,-781.578 316.032,-774.642"/>
</g>
<!-- Node4 -->
<g id="node4" class="node"><title>Node4</title>
<g id="a_node4"><a xlink:href="class_i_n_m_o_s_t_1_1_mesh_1_1base__iterator.html#a1b5d24fd44090fbe7d644d27551f2c31" target="_top" xlink:title="INMOST::Mesh::base\l_iterator::operator&#45;\&gt;">
<polygon fill="none" stroke="black" points="364,-728 364,-758 474,-758 474,-728 364,-728"/>
<text text-anchor="start" x="372" y="-746" font-family="Helvetica,sans-Serif" font-size="10.00">INMOST::Mesh::base</text>
<text text-anchor="middle" x="419" y="-735" font-family="Helvetica,sans-Serif" font-size="10.00">_iterator::operator&#45;&gt;</text>
</a>
</g>
</g>
<!-- Node2&#45;&gt;Node4 -->
<g id="edge3" class="edge"><title>Node2&#45;&gt;Node4</title>
<path fill="none" stroke="midnightblue" d="M315.654,-757.456C331.881,-755.164 348.745,-752.782 363.99,-750.629"/>
<polygon fill="midnightblue" stroke="midnightblue" points="315.065,-754.004 305.652,-758.868 316.044,-760.935 315.065,-754.004"/>
</g>
<!-- Node17&#45;&gt;Node17 -->
<g id="edge17" class="edge"><title>Node17&#45;&gt;Node17</title>
<path fill="none" stroke="midnightblue" d="M206.642,-273.891C207.13,-279.541 218.25,-284 240,-284 271.637,-284 280.782,-274.565 267.435,-265.757"/>
<polygon fill="midnightblue" stroke="midnightblue" points="209.508,-275.901 212.565,-265.757 203.849,-271.781 209.508,-275.901"/>
</g>
<!-- Node22&#45;&gt;Node22 -->
<g id="edge23" class="edge"><title>Node22&#45;&gt;Node22</title>
<path fill="none" stroke="midnightblue" d="M206.642,-65.8913C207.13,-71.5406 218.25,-76 240,-76 271.637,-76 280.782,-66.5653 267.435,-57.7571"/>
<polygon fill="midnightblue" stroke="midnightblue" points="209.508,-67.9012 212.565,-57.7571 203.849,-63.7806 209.508,-67.9012"/>
</g>
</g>
</svg>
