<?xml version="1.0" encoding="UTF-8" standalone="no"?>
<!DOCTYPE svg PUBLIC "-//W3C//DTD SVG 1.1//EN"
 "http://www.w3.org/Graphics/SVG/1.1/DTD/svg11.dtd">
<!-- Generated by graphviz version 2.38.0 (20140413.2041)
 -->
<!-- Title: INMOST::GetHandleElementNum Pages: 1 -->
<svg width="781pt" height="293pt"
 viewBox="0.00 0.00 781.00 293.00" xmlns="http://www.w3.org/2000/svg" xmlns:xlink="http://www.w3.org/1999/xlink">
<g id="graph0" class="graph" transform="scale(1 1) rotate(0) translate(4 289)">
<title>INMOST::GetHandleElementNum</title>
<!-- Node1 -->
<g id="node1" class="node"><title>Node1</title>
<polygon fill="#bfbfbf" stroke="black" points="0,-76.5 0,-95.5 161,-95.5 161,-76.5 0,-76.5"/>
<text text-anchor="middle" x="80.5" y="-83.5" font-family="Helvetica,sans-Serif" font-size="10.00">INMOST::GetHandleElementNum</text>
</g>
<!-- Node2 -->
<g id="node2" class="node"><title>Node2</title>
<g id="a_node2"><a xlink:href="namespace_i_n_m_o_s_t.html#ad6fc386c976a00725d44392f3e211bf2" target="_top" xlink:title="INMOST::GetHandleElementType">
<polygon fill="none" stroke="black" points="201.5,-170.5 201.5,-189.5 363.5,-189.5 363.5,-170.5 201.5,-170.5"/>
<text text-anchor="middle" x="282.5" y="-177.5" font-family="Helvetica,sans-Serif" font-size="10.00">INMOST::GetHandleElementType</text>
</a>
</g>
</g>
<!-- Node1&#45;&gt;Node2 -->
<g id="edge1" class="edge"><title>Node1&#45;&gt;Node2</title>
<path fill="none" stroke="midnightblue" d="M101.091,-101.863C123.132,-118.932 160.623,-145.683 197,-161 206.008,-164.793 215.889,-167.885 225.619,-170.387"/>
<polygon fill="midnightblue" stroke="midnightblue" points="103.191,-99.0622 93.1687,-95.6271 98.8615,-104.563 103.191,-99.0622"/>
</g>
<!-- Node10 -->
<g id="node10" class="node"><title>Node10</title>
<g id="a_node10"><a xlink:href="class_i_n_m_o_s_t_1_1_mesh.html#a99d2f7410acff5bc75b0184890d7decd" target="_top" xlink:title="For debug purposes. ">
<polygon fill="none" stroke="black" points="204,-132.5 204,-151.5 361,-151.5 361,-132.5 204,-132.5"/>
<text text-anchor="middle" x="282.5" y="-139.5" font-family="Helvetica,sans-Serif" font-size="10.00">INMOST::Mesh::HandleDataPos</text>
</a>
</g>
</g>
<!-- Node1&#45;&gt;Node10 -->
<g id="edge9" class="edge"><title>Node1&#45;&gt;Node10</title>
<path fill="none" stroke="midnightblue" d="M118.357,-98.7295C140.915,-106.29 170.452,-115.778 197,-123 209.478,-126.394 223.108,-129.652 235.709,-132.482"/>
<polygon fill="midnightblue" stroke="midnightblue" points="119.427,-95.3967 108.833,-95.5134 117.187,-102.029 119.427,-95.3967"/>
</g>
<!-- Node11 -->
<g id="node11" class="node"><title>Node11</title>
<g id="a_node11"><a xlink:href="class_i_n_m_o_s_t_1_1_mesh.html#aefe80cb31b7763f7124d013050c21e3e" target="_top" xlink:title="INMOST::Mesh::isValidElement">
<polygon fill="none" stroke="black" points="205,-76.5 205,-95.5 360,-95.5 360,-76.5 205,-76.5"/>
<text text-anchor="middle" x="282.5" y="-83.5" font-family="Helvetica,sans-Serif" font-size="10.00">INMOST::Mesh::isValidElement</text>
</a>
</g>
</g>
<!-- Node1&#45;&gt;Node11 -->
<g id="edge10" class="edge"><title>Node1&#45;&gt;Node11</title>
<path fill="none" stroke="midnightblue" d="M171.311,-86C182.478,-86 193.816,-86 204.76,-86"/>
<polygon fill="midnightblue" stroke="midnightblue" points="171.12,-82.5001 161.12,-86 171.12,-89.5001 171.12,-82.5001"/>
</g>
<!-- Node12 -->
<g id="node12" class="node"><title>Node12</title>
<g id="a_node12"><a xlink:href="class_i_n_m_o_s_t_1_1_mesh.html#a2078f4c2589dc14fe6291416ac21050f" target="_top" xlink:title="INMOST::Mesh::DataLocalID">
<polygon fill="none" stroke="black" points="211.5,-38.5 211.5,-57.5 353.5,-57.5 353.5,-38.5 211.5,-38.5"/>
<text text-anchor="middle" x="282.5" y="-45.5" font-family="Helvetica,sans-Serif" font-size="10.00">INMOST::Mesh::DataLocalID</text>
</a>
</g>
</g>
<!-- Node1&#45;&gt;Node12 -->
<g id="edge12" class="edge"><title>Node1&#45;&gt;Node12</title>
<path fill="none" stroke="midnightblue" d="M141.595,-74.5819C170.212,-69.1448 204.043,-62.7168 231.269,-57.5439"/>
<polygon fill="midnightblue" stroke="midnightblue" points="140.881,-71.1549 131.71,-76.46 142.188,-78.0318 140.881,-71.1549"/>
</g>
<!-- Node14 -->
<g id="node14" class="node"><title>Node14</title>
<g id="a_node14"><a xlink:href="class_i_n_m_o_s_t_1_1_storage.html#aad2877ace0d29292ddedd1fe48808fc1" target="_top" xlink:title="INMOST::Storage::GetElementNum">
<polygon fill="none" stroke="black" points="197,-0.5 197,-19.5 368,-19.5 368,-0.5 197,-0.5"/>
<text text-anchor="middle" x="282.5" y="-7.5" font-family="Helvetica,sans-Serif" font-size="10.00">INMOST::Storage::GetElementNum</text>
</a>
</g>
</g>
<!-- Node1&#45;&gt;Node14 -->
<g id="edge14" class="edge"><title>Node1&#45;&gt;Node14</title>
<path fill="none" stroke="midnightblue" d="M106.519,-71.4829C129.419,-58.7278 164.574,-40.4634 197,-29 207.491,-25.2913 218.977,-22.1392 230.007,-19.5316"/>
<polygon fill="midnightblue" stroke="midnightblue" points="104.779,-68.4457 97.7911,-76.409 108.22,-74.5418 104.779,-68.4457"/>
</g>
<!-- Node3 -->
<g id="node3" class="node"><title>Node3</title>
<g id="a_node3"><a xlink:href="class_i_n_m_o_s_t_1_1_storage.html#ae6928532b6665a12831d13293c4c7b31" target="_top" xlink:title="INMOST::Storage::GetElementType">
<polygon fill="none" stroke="black" points="404,-170.5 404,-189.5 576,-189.5 576,-170.5 404,-170.5"/>
<text text-anchor="middle" x="490" y="-177.5" font-family="Helvetica,sans-Serif" font-size="10.00">INMOST::Storage::GetElementType</text>
</a>
</g>
</g>
<!-- Node2&#45;&gt;Node3 -->
<g id="edge2" class="edge"><title>Node2&#45;&gt;Node3</title>
<path fill="none" stroke="midnightblue" d="M373.827,-180C383.768,-180 393.867,-180 403.744,-180"/>
<polygon fill="midnightblue" stroke="midnightblue" points="373.54,-176.5 363.54,-180 373.54,-183.5 373.54,-176.5"/>
</g>
<!-- Node4 -->
<g id="node4" class="node"><title>Node4</title>
<g id="a_node4"><a xlink:href="class_i_n_m_o_s_t_1_1_storage.html#a1120f87c2cb4eaf015db837f0f7cce3f" target="_top" xlink:title="INMOST::Storage::getAsElement">
<polygon fill="none" stroke="black" points="612,-265.5 612,-284.5 773,-284.5 773,-265.5 612,-265.5"/>
<text text-anchor="middle" x="692.5" y="-272.5" font-family="Helvetica,sans-Serif" font-size="10.00">INMOST::Storage::getAsElement</text>
</a>
</g>
</g>
<!-- Node3&#45;&gt;Node4 -->
<g id="edge3" class="edge"><title>Node3&#45;&gt;Node4</title>
<path fill="none" stroke="midnightblue" d="M511.35,-195.719C534.516,-212.89 574.076,-240.069 612,-256 621.027,-259.792 630.964,-262.921 640.664,-265.467"/>
<polygon fill="midnightblue" stroke="midnightblue" points="513.407,-192.886 503.311,-189.672 509.199,-198.48 513.407,-192.886"/>
</g>
<!-- Node5 -->
<g id="node5" class="node"><title>Node5</title>
<g id="a_node5"><a xlink:href="class_i_n_m_o_s_t_1_1_storage.html#aac94c3afac6383b988c7992a72fc353c" target="_top" xlink:title="INMOST::Storage::getAsNode">
<polygon fill="none" stroke="black" points="619,-227.5 619,-246.5 766,-246.5 766,-227.5 619,-227.5"/>
<text text-anchor="middle" x="692.5" y="-234.5" font-family="Helvetica,sans-Serif" font-size="10.00">INMOST::Storage::getAsNode</text>
</a>
</g>
</g>
<!-- Node3&#45;&gt;Node5 -->
<g id="edge4" class="edge"><title>Node3&#45;&gt;Node5</title>
<path fill="none" stroke="midnightblue" d="M529.351,-192.796C553.045,-200.514 584.143,-210.307 612,-218 624.037,-221.324 637.193,-224.608 649.276,-227.487"/>
<polygon fill="midnightblue" stroke="midnightblue" points="530.274,-189.415 519.681,-189.628 528.094,-196.067 530.274,-189.415"/>
</g>
<!-- Node6 -->
<g id="node6" class="node"><title>Node6</title>
<g id="a_node6"><a xlink:href="class_i_n_m_o_s_t_1_1_storage.html#aae2639c86f7e1ed99341800a6350beaf" target="_top" xlink:title="INMOST::Storage::getAsEdge">
<polygon fill="none" stroke="black" points="619,-189.5 619,-208.5 766,-208.5 766,-189.5 619,-189.5"/>
<text text-anchor="middle" x="692.5" y="-196.5" font-family="Helvetica,sans-Serif" font-size="10.00">INMOST::Storage::getAsEdge</text>
</a>
</g>
</g>
<!-- Node3&#45;&gt;Node6 -->
<g id="edge5" class="edge"><title>Node3&#45;&gt;Node6</title>
<path fill="none" stroke="midnightblue" d="M586.065,-189.009C597.033,-190.048 608.084,-191.095 618.692,-192.1"/>
<polygon fill="midnightblue" stroke="midnightblue" points="586.316,-185.517 576.03,-188.058 585.655,-192.486 586.316,-185.517"/>
</g>
<!-- Node7 -->
<g id="node7" class="node"><title>Node7</title>
<g id="a_node7"><a xlink:href="class_i_n_m_o_s_t_1_1_storage.html#a3bb9ba79f8c0f6be46abeb505ae6522a" target="_top" xlink:title="INMOST::Storage::getAsFace">
<polygon fill="none" stroke="black" points="619.5,-151.5 619.5,-170.5 765.5,-170.5 765.5,-151.5 619.5,-151.5"/>
<text text-anchor="middle" x="692.5" y="-158.5" font-family="Helvetica,sans-Serif" font-size="10.00">INMOST::Storage::getAsFace</text>
</a>
</g>
</g>
<!-- Node3&#45;&gt;Node7 -->
<g id="edge6" class="edge"><title>Node3&#45;&gt;Node7</title>
<path fill="none" stroke="midnightblue" d="M586.216,-170.977C597.35,-169.922 608.567,-168.859 619.316,-167.84"/>
<polygon fill="midnightblue" stroke="midnightblue" points="585.655,-167.514 576.03,-171.942 586.316,-174.483 585.655,-167.514"/>
</g>
<!-- Node8 -->
<g id="node8" class="node"><title>Node8</title>
<g id="a_node8"><a xlink:href="class_i_n_m_o_s_t_1_1_storage.html#a273dc6c3f277ad2cda0f37df30a8f534" target="_top" xlink:title="INMOST::Storage::getAsCell">
<polygon fill="none" stroke="black" points="622,-113.5 622,-132.5 763,-132.5 763,-113.5 622,-113.5"/>
<text text-anchor="middle" x="692.5" y="-120.5" font-family="Helvetica,sans-Serif" font-size="10.00">INMOST::Storage::getAsCell</text>
</a>
</g>
</g>
<!-- Node3&#45;&gt;Node8 -->
<g id="edge7" class="edge"><title>Node3&#45;&gt;Node8</title>
<path fill="none" stroke="midnightblue" d="M529.351,-167.204C553.045,-159.486 584.143,-149.693 612,-142 624.037,-138.676 637.193,-135.392 649.276,-132.513"/>
<polygon fill="midnightblue" stroke="midnightblue" points="528.094,-163.933 519.681,-170.372 530.274,-170.585 528.094,-163.933"/>
</g>
<!-- Node9 -->
<g id="node9" class="node"><title>Node9</title>
<g id="a_node9"><a xlink:href="class_i_n_m_o_s_t_1_1_storage.html#a20b4ae741200cfea234a9989b36f4c11" target="_top" xlink:title="INMOST::Storage::getAsSet">
<polygon fill="none" stroke="black" points="622.5,-75.5 622.5,-94.5 762.5,-94.5 762.5,-75.5 622.5,-75.5"/>
<text text-anchor="middle" x="692.5" y="-82.5" font-family="Helvetica,sans-Serif" font-size="10.00">INMOST::Storage::getAsSet</text>
</a>
</g>
</g>
<!-- Node3&#45;&gt;Node9 -->
<g id="edge8" class="edge"><title>Node3&#45;&gt;Node9</title>
<path fill="none" stroke="midnightblue" d="M511.35,-164.281C534.516,-147.11 574.076,-119.931 612,-104 621.027,-100.208 630.964,-97.0793 640.664,-94.5325"/>
<polygon fill="midnightblue" stroke="midnightblue" points="509.199,-161.52 503.311,-170.328 513.407,-167.114 509.199,-161.52"/>
</g>
<!-- Node11&#45;&gt;Node11 -->
<g id="edge11" class="edge"><title>Node11&#45;&gt;Node11</title>
<path fill="none" stroke="midnightblue" d="M244.625,-103.504C244.631,-109.336 257.256,-114 282.5,-114 318.402,-114 328.78,-104.565 313.634,-95.7571"/>
<polygon fill="midnightblue" stroke="midnightblue" points="247.442,-105.599 251.366,-95.7571 242.161,-101.004 247.442,-105.599"/>
</g>
<!-- Node13 -->
<g id="node13" class="node"><title>Node13</title>
<g id="a_node13"><a xlink:href="class_i_n_m_o_s_t_1_1_storage.html#a4112611429fe0c871f97392b22b8a86b" target="_top" xlink:title="INMOST::Storage::DataLocalID">
<polygon fill="none" stroke="black" points="414,-38.5 414,-57.5 566,-57.5 566,-38.5 414,-38.5"/>
<text text-anchor="middle" x="490" y="-45.5" font-family="Helvetica,sans-Serif" font-size="10.00">INMOST::Storage::DataLocalID</text>
</a>
</g>
</g>
<!-- Node12&#45;&gt;Node13 -->
<g id="edge13" class="edge"><title>Node12&#45;&gt;Node13</title>
<path fill="none" stroke="midnightblue" d="M363.796,-48C380.292,-48 397.599,-48 413.902,-48"/>
<polygon fill="midnightblue" stroke="midnightblue" points="363.647,-44.5001 353.647,-48 363.647,-51.5001 363.647,-44.5001"/>
</g>
</g>
</svg>
