<?xml version="1.0" encoding="UTF-8" standalone="no"?>
<!DOCTYPE svg PUBLIC "-//W3C//DTD SVG 1.1//EN"
 "http://www.w3.org/Graphics/SVG/1.1/DTD/svg11.dtd">
<!-- Generated by graphviz version 2.38.0 (20140413.2041)
 -->
<!-- Title: INMOST::Automatizator::table Pages: 1 -->
<svg width="381pt" height="226pt"
 viewBox="0.00 0.00 380.50 226.00" xmlns="http://www.w3.org/2000/svg" xmlns:xlink="http://www.w3.org/1999/xlink">
<g id="graph0" class="graph" transform="scale(1 1) rotate(0) translate(4 222)">
<title>INMOST::Automatizator::table</title>
<!-- Node1 -->
<g id="node1" class="node"><title>Node1</title>
<polygon fill="#bfbfbf" stroke="black" points="179,-0.5 179,-101.5 299,-101.5 299,-0.5 179,-0.5"/>
<text text-anchor="start" x="187" y="-89.5" font-family="Helvetica,sans-Serif" font-size="10.00">INMOST::Automatizator</text>
<text text-anchor="middle" x="239" y="-78.5" font-family="Helvetica,sans-Serif" font-size="10.00">::table</text>
<polyline fill="none" stroke="black" points="179,-71.5 299,-71.5 "/>
<text text-anchor="middle" x="239" y="-59.5" font-family="Helvetica,sans-Serif" font-size="10.00"> </text>
<polyline fill="none" stroke="black" points="179,-52.5 299,-52.5 "/>
<text text-anchor="start" x="187" y="-40.5" font-family="Helvetica,sans-Serif" font-size="10.00">+ binary_search()</text>
<text text-anchor="start" x="187" y="-29.5" font-family="Helvetica,sans-Serif" font-size="10.00">+ get_value()</text>
<text text-anchor="start" x="187" y="-18.5" font-family="Helvetica,sans-Serif" font-size="10.00">+ get_derivative()</text>
<text text-anchor="start" x="187" y="-7.5" font-family="Helvetica,sans-Serif" font-size="10.00">+ get_both()</text>
</g>
<!-- Node2 -->
<g id="node2" class="node"><title>Node2</title>
<polygon fill="none" stroke="#bfbfbf" points="0,-160.5 0,-217.5 146,-217.5 146,-160.5 0,-160.5"/>
<text text-anchor="middle" x="73" y="-205.5" font-family="Helvetica,sans-Serif" font-size="10.00">INMOST_DATA_REAL_TYPE</text>
<polyline fill="none" stroke="#bfbfbf" points="0,-198.5 146,-198.5 "/>
<text text-anchor="middle" x="73" y="-186.5" font-family="Helvetica,sans-Serif" font-size="10.00"> </text>
<polyline fill="none" stroke="#bfbfbf" points="0,-179.5 146,-179.5 "/>
<text text-anchor="middle" x="73" y="-167.5" font-family="Helvetica,sans-Serif" font-size="10.00"> </text>
</g>
<!-- Node2&#45;&gt;Node1 -->
<g id="edge1" class="edge"><title>Node2&#45;&gt;Node1</title>
<path fill="none" stroke="#404040" d="M106.593,-160.478C124.666,-145.672 147.653,-126.839 169.383,-109.036"/>
<polygon fill="none" stroke="#404040" points="169.645,-108.821 171.751,-101.925 178.927,-101.216 176.821,-108.113 169.645,-108.821"/>
<text text-anchor="middle" x="170" y="-134" font-family="Helvetica,sans-Serif" font-size="10.00"> +args</text>
<text text-anchor="middle" x="170" y="-123" font-family="Helvetica,sans-Serif" font-size="10.00">+vals</text>
</g>
<!-- Node3 -->
<g id="node3" class="node"><title>Node3</title>
<polygon fill="none" stroke="#bfbfbf" points="164.5,-160.5 164.5,-217.5 313.5,-217.5 313.5,-160.5 164.5,-160.5"/>
<text text-anchor="middle" x="239" y="-205.5" font-family="Helvetica,sans-Serif" font-size="10.00">INMOST_DATA_ENUM_TYPE</text>
<polyline fill="none" stroke="#bfbfbf" points="164.5,-198.5 313.5,-198.5 "/>
<text text-anchor="middle" x="239" y="-186.5" font-family="Helvetica,sans-Serif" font-size="10.00"> </text>
<polyline fill="none" stroke="#bfbfbf" points="164.5,-179.5 313.5,-179.5 "/>
<text text-anchor="middle" x="239" y="-167.5" font-family="Helvetica,sans-Serif" font-size="10.00"> </text>
</g>
<!-- Node3&#45;&gt;Node1 -->
<g id="edge2" class="edge"><title>Node3&#45;&gt;Node1</title>
<path fill="none" stroke="#404040" d="M239,-160.478C239,-147.057 239,-130.327 239,-114.055"/>
<polygon fill="none" stroke="#404040" points="239,-113.764 235,-107.764 239,-101.764 243,-107.764 239,-113.764"/>
<text text-anchor="middle" x="253" y="-128.5" font-family="Helvetica,sans-Serif" font-size="10.00"> +size</text>
</g>
<!-- Node4 -->
<g id="node4" class="node"><title>Node4</title>
<polygon fill="none" stroke="#bfbfbf" points="331.5,-160.5 331.5,-217.5 372.5,-217.5 372.5,-160.5 331.5,-160.5"/>
<text text-anchor="middle" x="352" y="-205.5" font-family="Helvetica,sans-Serif" font-size="10.00">string</text>
<polyline fill="none" stroke="#bfbfbf" points="331.5,-198.5 372.5,-198.5 "/>
<text text-anchor="middle" x="352" y="-186.5" font-family="Helvetica,sans-Serif" font-size="10.00"> </text>
<polyline fill="none" stroke="#bfbfbf" points="331.5,-179.5 372.5,-179.5 "/>
<text text-anchor="middle" x="352" y="-167.5" font-family="Helvetica,sans-Serif" font-size="10.00"> </text>
</g>
<!-- Node4&#45;&gt;Node1 -->
<g id="edge3" class="edge"><title>Node4&#45;&gt;Node1</title>
<path fill="none" stroke="#404040" d="M331.274,-163.056C319.12,-148.428 303.215,-129.285 288.04,-111.022"/>
<polygon fill="none" stroke="#404040" points="287.864,-110.81 280.953,-108.751 280.195,-101.58 287.106,-103.639 287.864,-110.81"/>
<text text-anchor="middle" x="330" y="-128.5" font-family="Helvetica,sans-Serif" font-size="10.00"> +name</text>
</g>
</g>
</svg>
