<?xml version="1.0" encoding="UTF-8" standalone="no"?>
<!DOCTYPE svg PUBLIC "-//W3C//DTD SVG 1.1//EN"
 "http://www.w3.org/Graphics/SVG/1.1/DTD/svg11.dtd">
<!-- Generated by graphviz version 2.38.0 (20140413.2041)
 -->
<!-- Title: INMOST::Sparse::Row::entry_s Pages: 1 -->
<svg width="322pt" height="182pt"
 viewBox="0.00 0.00 321.50 182.00" xmlns="http://www.w3.org/2000/svg" xmlns:xlink="http://www.w3.org/1999/xlink">
<g id="graph0" class="graph" transform="scale(1 1) rotate(0) translate(4 178)">
<title>INMOST::Sparse::Row::entry_s</title>
<!-- Node1 -->
<g id="node1" class="node"><title>Node1</title>
<polygon fill="#bfbfbf" stroke="black" points="98.5,-0.5 98.5,-68.5 213.5,-68.5 213.5,-0.5 98.5,-0.5"/>
<text text-anchor="start" x="106.5" y="-56.5" font-family="Helvetica,sans-Serif" font-size="10.00">INMOST::Sparse::Row</text>
<text text-anchor="middle" x="156" y="-45.5" font-family="Helvetica,sans-Serif" font-size="10.00">::entry_s</text>
<polyline fill="none" stroke="black" points="98.5,-38.5 213.5,-38.5 "/>
<text text-anchor="middle" x="156" y="-26.5" font-family="Helvetica,sans-Serif" font-size="10.00"> </text>
<polyline fill="none" stroke="black" points="98.5,-19.5 213.5,-19.5 "/>
<text text-anchor="start" x="106.5" y="-7.5" font-family="Helvetica,sans-Serif" font-size="10.00">+ operator&lt;()</text>
</g>
<!-- Node2 -->
<g id="node2" class="node"><title>Node2</title>
<polygon fill="none" stroke="#bfbfbf" points="0,-116.5 0,-173.5 146,-173.5 146,-116.5 0,-116.5"/>
<text text-anchor="middle" x="73" y="-161.5" font-family="Helvetica,sans-Serif" font-size="10.00">INMOST_DATA_REAL_TYPE</text>
<polyline fill="none" stroke="#bfbfbf" points="0,-154.5 146,-154.5 "/>
<text text-anchor="middle" x="73" y="-142.5" font-family="Helvetica,sans-Serif" font-size="10.00"> </text>
<polyline fill="none" stroke="#bfbfbf" points="0,-135.5 146,-135.5 "/>
<text text-anchor="middle" x="73" y="-123.5" font-family="Helvetica,sans-Serif" font-size="10.00"> </text>
</g>
<!-- Node2&#45;&gt;Node1 -->
<g id="edge1" class="edge"><title>Node2&#45;&gt;Node1</title>
<path fill="none" stroke="#404040" d="M94.1592,-116.34C103.039,-104.733 113.568,-90.9678 123.399,-78.1168"/>
<polygon fill="none" stroke="#404040" points="123.45,-78.0496 123.919,-70.8537 130.742,-68.5186 130.273,-75.7144 123.45,-78.0496"/>
<text text-anchor="middle" x="135.5" y="-90" font-family="Helvetica,sans-Serif" font-size="10.00"> +second</text>
</g>
<!-- Node3 -->
<g id="node3" class="node"><title>Node3</title>
<polygon fill="none" stroke="#bfbfbf" points="164.5,-116.5 164.5,-173.5 313.5,-173.5 313.5,-116.5 164.5,-116.5"/>
<text text-anchor="middle" x="239" y="-161.5" font-family="Helvetica,sans-Serif" font-size="10.00">INMOST_DATA_ENUM_TYPE</text>
<polyline fill="none" stroke="#bfbfbf" points="164.5,-154.5 313.5,-154.5 "/>
<text text-anchor="middle" x="239" y="-142.5" font-family="Helvetica,sans-Serif" font-size="10.00"> </text>
<polyline fill="none" stroke="#bfbfbf" points="164.5,-135.5 313.5,-135.5 "/>
<text text-anchor="middle" x="239" y="-123.5" font-family="Helvetica,sans-Serif" font-size="10.00"> </text>
</g>
<!-- Node3&#45;&gt;Node1 -->
<g id="edge2" class="edge"><title>Node3&#45;&gt;Node1</title>
<path fill="none" stroke="#404040" d="M217.841,-116.34C208.961,-104.733 198.432,-90.9678 188.601,-78.1168"/>
<polygon fill="none" stroke="#404040" points="188.55,-78.0496 181.727,-75.7144 181.258,-68.5186 188.081,-70.8537 188.55,-78.0496"/>
<text text-anchor="middle" x="215.5" y="-90" font-family="Helvetica,sans-Serif" font-size="10.00"> +first</text>
</g>
</g>
</svg>
