<?xml version="1.0" encoding="UTF-8" standalone="no"?>
<!DOCTYPE svg PUBLIC "-//W3C//DTD SVG 1.1//EN"
 "http://www.w3.org/Graphics/SVG/1.1/DTD/svg11.dtd">
<!-- Generated by graphviz version 2.38.0 (20140413.2041)
 -->
<!-- Title: INMOST::sparse_data&lt; IndType, ValType &gt;::pair_t Pages: 1 -->
<svg width="128pt" height="204pt"
 viewBox="0.00 0.00 128.00 204.00" xmlns="http://www.w3.org/2000/svg" xmlns:xlink="http://www.w3.org/1999/xlink">
<g id="graph0" class="graph" transform="scale(1 1) rotate(0) translate(4 200)">
<title>INMOST::sparse_data&lt; IndType, ValType &gt;::pair_t</title>
<!-- Node1 -->
<g id="node1" class="node"><title>Node1</title>
<polygon fill="#bfbfbf" stroke="black" points="3.5,-0.5 3.5,-90.5 116.5,-90.5 116.5,-0.5 3.5,-0.5"/>
<text text-anchor="start" x="11.5" y="-78.5" font-family="Helvetica,sans-Serif" font-size="10.00">INMOST::sparse_data</text>
<text text-anchor="start" x="11.5" y="-67.5" font-family="Helvetica,sans-Serif" font-size="10.00">&lt; IndType, ValType &gt;</text>
<text text-anchor="middle" x="60" y="-56.5" font-family="Helvetica,sans-Serif" font-size="10.00">::pair_t</text>
<polyline fill="none" stroke="black" points="3.5,-49.5 116.5,-49.5 "/>
<text text-anchor="middle" x="60" y="-37.5" font-family="Helvetica,sans-Serif" font-size="10.00"> </text>
<polyline fill="none" stroke="black" points="3.5,-30.5 116.5,-30.5 "/>
<text text-anchor="start" x="11.5" y="-18.5" font-family="Helvetica,sans-Serif" font-size="10.00">+ pair_t()</text>
<text text-anchor="start" x="11.5" y="-7.5" font-family="Helvetica,sans-Serif" font-size="10.00">+ pair_t()</text>
</g>
<!-- Node2 -->
<g id="node2" class="node"><title>Node2</title>
<polygon fill="none" stroke="#bfbfbf" points="0,-138.5 0,-195.5 52,-195.5 52,-138.5 0,-138.5"/>
<text text-anchor="middle" x="26" y="-183.5" font-family="Helvetica,sans-Serif" font-size="10.00">ValType</text>
<polyline fill="none" stroke="#bfbfbf" points="0,-176.5 52,-176.5 "/>
<text text-anchor="middle" x="26" y="-164.5" font-family="Helvetica,sans-Serif" font-size="10.00"> </text>
<polyline fill="none" stroke="#bfbfbf" points="0,-157.5 52,-157.5 "/>
<text text-anchor="middle" x="26" y="-145.5" font-family="Helvetica,sans-Serif" font-size="10.00"> </text>
</g>
<!-- Node2&#45;&gt;Node1 -->
<g id="edge1" class="edge"><title>Node2&#45;&gt;Node1</title>
<path fill="none" stroke="#404040" d="M27.1379,-138.424C27.991,-128.976 29.4645,-118.416 32,-109 32.6144,-106.718 33.3022,-104.414 34.0483,-102.105"/>
<polygon fill="none" stroke="#404040" points="34.1276,-101.884 32.3977,-94.8835 38.1943,-90.5941 39.9243,-97.5946 34.1276,-101.884"/>
<text text-anchor="middle" x="52.5" y="-112" font-family="Helvetica,sans-Serif" font-size="10.00"> +second</text>
</g>
<!-- Node3 -->
<g id="node3" class="node"><title>Node3</title>
<polygon fill="none" stroke="#bfbfbf" points="70,-138.5 70,-195.5 120,-195.5 120,-138.5 70,-138.5"/>
<text text-anchor="middle" x="95" y="-183.5" font-family="Helvetica,sans-Serif" font-size="10.00">IndType</text>
<polyline fill="none" stroke="#bfbfbf" points="70,-176.5 120,-176.5 "/>
<text text-anchor="middle" x="95" y="-164.5" font-family="Helvetica,sans-Serif" font-size="10.00"> </text>
<polyline fill="none" stroke="#bfbfbf" points="70,-157.5 120,-157.5 "/>
<text text-anchor="middle" x="95" y="-145.5" font-family="Helvetica,sans-Serif" font-size="10.00"> </text>
</g>
<!-- Node3&#45;&gt;Node1 -->
<g id="edge2" class="edge"><title>Node3&#45;&gt;Node1</title>
<path fill="none" stroke="#404040" d="M86.8823,-138.284C83.7604,-127.625 80.073,-115.035 76.4461,-102.652"/>
<polygon fill="none" stroke="#404040" points="76.3809,-102.429 70.8556,-97.7949 73.0078,-90.9125 78.5331,-95.5462 76.3809,-102.429"/>
<text text-anchor="middle" x="92.5" y="-112" font-family="Helvetica,sans-Serif" font-size="10.00"> +first</text>
</g>
</g>
</svg>
